<?xml version="1.0" encoding="UTF-8"?>
 <!DOCTYPE svg PUBLIC "-//W3C//DTD SVG 1.1//EN"
   "http://www.w3.org/Graphics/SVG/1.1/DTD/svg11.dtd">
 <svg xmlns="http://www.w3.org/2000/svg" version="1.1"
   xmlns:xlink="http://www.w3.org/1999/xlink" width="760" height="750">
  <path d="M 572.60958,442.59196 C 572.60958,592.99626 450.68281,714.92303 300.27851,714.92303 149.87421,714.92303 27.947434,592.99626 27.947434,442.59196 27.947434,292.18766 149.87421,170.26089 300.27851,170.26089 450.68281,170.26089 572.60958,292.18766 572.60958,442.59196 z" style="fill:none;stroke:#000000;stroke-width:4" />
  <path d="M 300.56641,56.155211 300.56641,737.60853" style="fill:none;stroke:#000000;stroke-width:4" />
  <path d="M 5.9019627,442.87981 656.05629,442.87981" style="fill:none;stroke:#000000;stroke-width:4" />
  <path d="M 300.5664,442.87981 394.42617,216.57989" style="fill:none;stroke:#000000;stroke-width:4" />
  <path d="M 300.67221,12.919799 316.74673,72.910744 285.29254,72.910744 300.67221,12.919799 z" style="stroke:#000000;stroke-width:2" />
  <path d="M 711.30139,440.96546 651.31045,457.03998 651.31045,425.58579 711.30139,440.96546 z" style="stroke:#000000;stroke-width:2" />
  <path d="M 263.5416,474.04764 C 263.5416,469.7247 264.19377,466.00734 265.49811,462.89552 266.80245,459.76514 268.53537,457.43596 270.69684,455.90799 272.37384,454.69686 274.10675,454.09127 275.89557,454.09122 278.80237,454.09127 281.41105,455.57262 283.72161,458.5353 286.60978,462.20612 288.05387,467.18124 288.0539,473.46068 288.05387,477.85819 287.42033,481.5942 286.15329,484.66869 284.88619,487.74322 283.26508,489.97924 281.28995,491.37673 279.33342,492.75562 277.44213,493.44505 275.61607,493.44505 272.00118,493.44505 268.99189,491.31151 266.58817,487.04447 264.55712,483.44821 263.5416,479.11594 263.5416,474.04764 M 269.01983,474.7464 C 269.01983,479.96377 269.66268,484.22151 270.9484,487.51961 272.01049,490.296 273.59434,491.6842 275.69993,491.6842 276.70611,491.6842 277.74959,491.23699 278.83035,490.34259 279.91107,489.42955 280.73094,487.91093 281.28995,485.78671 282.14707,482.58177 282.57564,478.06317 282.57567,472.23088 282.57564,467.90794 282.12844,464.30238 281.23406,461.41417 280.56323,459.27135 279.69677,457.75272 278.6347,456.85829 277.8707,456.24343 276.94835,455.93597 275.86763,455.93594 274.60054,455.93597 273.47321,456.5043 272.48566,457.6409 271.14403,459.1875 270.231,461.61916 269.74655,464.93588 269.26207,468.25267 269.01983,471.52283 269.01983,474.7464" />
  <path d="M 333.27504,478.60835 C 332.59755,481.92248 331.27007,484.47674 329.2926,486.27112 327.31509,488.0472 325.12703,488.93524 322.72842,488.93524 319.87204,488.93524 317.38187,487.73594 315.2579,485.3373 313.13393,482.93869 312.07195,479.69781 312.07195,475.61465 312.07195,471.65968 313.24379,468.44627 315.58749,465.97439 317.94948,463.50255 320.77839,462.26662 324.07421,462.2666 326.54606,462.26662 328.57848,462.92579 330.17149,464.24408 331.76443,465.54412 332.56092,466.89906 332.56095,468.30892 332.56092,469.00472 332.33205,469.57234 331.87432,470.01176 331.43485,470.43291 330.8123,470.64348 330.00669,470.64347 328.92637,470.64348 328.11158,470.29559 327.56229,469.59979 327.251,469.2153 327.04044,468.48288 326.9306,467.40258 326.83903,466.3223 326.47282,465.49835 325.83198,464.93071 325.19112,464.38143 324.30308,464.10678 323.16787,464.10675 321.33685,464.10678 319.86289,464.78426 318.74598,466.13917 317.26286,467.93358 316.52129,470.30474 316.52131,473.25265 316.52129,476.25551 317.25369,478.91048 318.71852,481.21754 320.20163,483.50631 322.19742,484.65069 324.70592,484.65069 326.50029,484.65069 328.11158,484.0373 329.53977,482.81052 330.54681,481.96827 331.52641,480.43936 332.47855,478.22384 L 333.27504,478.60835 M 349.14989,462.2666 C 352.95837,462.26662 356.01616,463.71312 358.32324,466.60609 360.28241,469.07796 361.26199,471.91603 361.26201,475.12027 361.26199,477.37243 360.72185,479.65203 359.64157,481.9591 358.56125,484.26617 357.06898,486.00563 355.16475,487.17747 353.2788,488.34933 351.17314,488.93524 348.84778,488.93524 345.05758,488.93524 342.04557,487.42466 339.81174,484.4035 337.92579,481.85839 336.98283,479.00203 336.98283,475.83436 336.98283,473.52731 337.55044,471.23855 338.68567,468.96809 339.8392,466.67935 341.34978,464.99482 343.21742,463.9145 345.08504,462.81591 347.06252,462.26662 349.14989,462.2666 M 348.29847,464.05183 C 347.32802,464.05185 346.34843,464.34482 345.3597,464.93071 344.38925,465.49835 343.60192,466.5054 342.9977,467.95188 342.39346,469.3984 342.09134,471.25687 342.09135,473.52729 342.09134,477.18933 342.8146,480.34781 344.26109,483.00277 345.72589,485.65774 347.64845,486.98522 350.02877,486.98522 351.80484,486.98522 353.26965,486.25282 354.4232,484.788 355.57672,483.32321 356.15348,480.80556 356.15349,477.23509 356.15348,472.76745 355.1922,469.25191 353.26966,466.68848 351.96963,464.93073 350.31256,464.05185 348.29847,464.05183 M 381.22917,462.2666 381.22917,470.83572 380.32283,470.83572 C 379.62703,468.14416 378.72983,466.31315 377.63123,465.34268 376.55093,464.37228 375.16853,463.88707 373.484,463.88704 372.20229,463.88707 371.16778,464.22579 370.38044,464.90324 369.59311,465.58075 369.19943,466.33145 369.19945,467.15539 369.19943,468.18077 369.4924,469.05966 370.07833,469.79204 370.64594,470.54278 371.79947,471.33927 373.53894,472.18151 L 377.54884,474.13153 C 381.26577,475.94425 383.12424,478.33372 383.12427,481.29994 383.12424,483.5887 382.25453,485.43802 380.51508,486.84788 378.79392,488.23945 376.86221,488.93524 374.71993,488.93524 373.18187,488.93524 371.42411,488.66059 369.44664,488.11129 368.84239,487.92819 368.34802,487.83664 367.96352,487.83664 367.54238,487.83664 367.2128,488.07466 366.97476,488.55073 L 366.06842,488.55073 366.06842,479.56963 366.97476,479.56963 C 367.48745,482.13304 368.46703,484.06476 369.91354,485.36478 371.36003,486.6648 372.98047,487.3148 374.77487,487.3148 376.03824,487.3148 377.06361,486.9486 377.85096,486.21619 378.65659,485.46548 379.05942,484.56829 379.05943,483.52461 379.05942,482.26122 378.61082,481.19924 377.71363,480.33866 376.83473,479.47808 375.06782,478.38864 372.41286,477.07031 369.7579,475.75198 368.01844,474.56183 367.19449,473.49983 366.37053,472.45617 365.95856,471.13784 365.95856,469.54485 365.95856,467.47583 366.6635,465.74553 368.07337,464.35394 369.50156,462.9624 371.34172,462.26662 373.59387,462.2666 374.5826,462.26662 375.78192,462.47719 377.19179,462.8983 378.1256,463.17296 378.74814,463.31029 379.05943,463.31026 379.35238,463.31029 379.58124,463.2462 379.74605,463.11801 379.91083,462.98986 380.10308,462.70606 380.32283,462.2666 L 381.22917,462.2666 M 408.99642,500.19595 406.19498,500.19595 409.51826,488.82538 C 406.8633,488.80708 404.80341,488.01059 403.33861,486.43592 401.8921,484.84294 401.16886,482.66404 401.16886,479.89922 401.16886,475.68791 402.47803,471.89772 405.09638,468.52865 407.71471,465.15961 410.98306,463.42015 414.90143,463.31026 L 414.59932,464.29902 C 412.14575,464.70186 410.00347,466.70681 408.17247,470.31388 406.35977,473.92098 405.45342,477.45483 405.45342,480.91542 405.45342,485.09013 406.93653,487.24156 409.90278,487.36972 L 413.61058,475.09281 C 414.54437,471.92518 415.38664,469.57234 416.13736,468.03427 416.88806,466.47794 417.81272,465.3061 418.91135,464.51873 420.00993,463.71312 421.18177,463.31029 422.42688,463.31026 424.18462,463.31029 425.54872,464.061 426.51918,465.56241 427.48959,467.04555 427.97481,469.01388 427.97484,471.46742 427.97481,475.89847 426.60155,479.8626 423.85507,483.35982 421.12683,486.83873 417.24511,488.66974 412.20985,488.85284 L 408.99642,500.19595 M 412.70422,487.34226 C 416.36623,487.10423 419.19513,485.20914 421.19095,481.65699 423.18673,478.08653 424.18462,474.44282 424.18465,470.72586 424.18462,467.55823 423.37898,465.97441 421.76771,465.97439 420.79726,465.97441 419.92753,466.56034 419.15853,467.73216 418.38949,468.90402 417.39158,471.56813 416.16483,475.72451 L 412.70422,487.34226" />
  <path d="M 336.4878,435.37357 333.70334,435.37357 337.00647,424.07194 C 334.36759,424.05373 332.3202,423.26207 330.86429,421.69696 329.42655,420.11365 328.70769,417.94795 328.70769,415.19988 328.70769,411.0141 330.00893,407.24691 332.6114,403.89825 335.21386,400.54966 338.46239,398.82074 342.357,398.71152 L 342.05671,399.69427 C 339.61803,400.09467 337.48874,402.08747 335.66885,405.67267 333.86712,409.25789 332.96627,412.77031 332.96628,416.20994 332.96627,420.35932 334.44039,422.49772 337.38865,422.62511 L 341.07396,410.42263 C 342.00211,407.2742 342.83926,404.93562 343.58544,403.40689 344.33158,401.85997 345.25064,400.69524 346.34259,399.91266 347.43453,399.11192 348.59927,398.71155 349.83682,398.71152 351.58392,398.71155 352.93974,399.4577 353.90432,400.95001 354.86884,402.42415 355.35111,404.38055 355.35114,406.81921 355.35111,411.2234 353.98619,415.16349 351.25636,418.63952 348.54466,422.09734 344.68646,423.91725 339.68173,424.09924 L 336.4878,435.37357 M 340.17311,422.59781 C 343.8129,422.36122 346.62466,420.47762 348.60838,416.94699 350.59206,413.39818 351.58392,409.77657 351.58393,406.08214 351.58392,402.93373 350.78316,401.35951 349.18166,401.35948 348.21708,401.35951 347.35263,401.94187 346.58828,403.10659 345.8239,404.27136 344.83206,406.91932 343.61273,411.0505 L 340.17311,422.59781" />
  <path d="M 330.23656,110.59663 C 330.10868,111.50997 330.04475,112.26804 330.04475,112.87082 330.04475,114.49656 330.62015,115.88482 331.77095,117.0356 332.92174,118.16813 334.31912,118.73441 335.96314,118.73441 337.27832,118.73441 338.53871,118.46954 339.74432,117.93981 340.96817,117.39182 342.77656,116.19535 345.16951,114.35042 L 345.7449,115.14502 C 341.4157,119.43767 337.28745,121.58399 333.36014,121.58399 330.69321,121.58399 328.68389,120.74374 327.33217,119.0632 325.98043,117.38268 325.30456,115.52863 325.30458,113.50102 325.30456,110.77931 326.14483,107.99365 327.82536,105.14405 329.50588,102.29449 331.61568,100.08423 334.15474,98.513276 336.69378,96.924106 339.30591,96.129506 341.99111,96.129486 343.92735,96.129506 345.36127,96.522246 346.29289,97.307676 347.22446,98.093156 347.69027,99.024766 347.69029,100.10248 347.69027,101.61862 347.08747,103.07082 345.8819,104.45905 344.29268,106.26747 341.95456,107.72879 338.86753,108.84304 336.82165,109.59197 333.94466,110.17651 330.23656,110.59663 M 330.42836,109.25404 C 333.1318,108.94351 335.33293,108.41378 337.03173,107.66485 339.2785,106.66019 340.95902,105.46374 342.07331,104.07546 343.20582,102.66895 343.77208,101.33549 343.77211,100.07507 343.77208,99.307896 343.52548,98.686826 343.0323,98.211876 342.55736,97.736966 341.87236,97.499506 340.97732,97.499476 339.11411,97.499506 337.13218,98.495036 335.03153,100.48607 332.94914,102.45889 331.41473,105.38154 330.42836,109.25404" />
  <path d="M 361.19801,67.432096 C 361.78414,67.432123 362.27955,67.634478 362.68428,68.039161 363.08897,68.443897 363.29133,68.939318 363.29134,69.525424 363.29133,70.097625 363.082,70.593046 362.66334,71.011687 362.25861,71.416421 361.77017,71.618776 361.19801,71.618752 360.62582,71.618776 360.13041,71.416421 359.71174,71.011687 359.30703,70.593046 359.10468,70.097625 359.10468,69.525424 359.10468,68.939318 359.30703,68.443897 359.71174,68.039161 360.11645,67.634478 360.61187,67.432123 361.19801,67.432096 M 361.47014,75.74261 357.32536,90.416846 C 357.04624,91.407686 356.90668,92.000796 356.90669,92.196176 356.90668,92.419466 356.96949,92.600886 357.09508,92.740436 357.23464,92.879996 357.39512,92.949776 357.57655,92.949776 357.78588,92.949776 358.03708,92.838126 358.33015,92.614836 359.12561,91.986846 359.92805,91.093696 360.73747,89.935376 L 361.47014,90.416846 C 360.52116,91.868226 359.40472,93.089326 358.12082,94.080166 357.17184,94.819816 356.26472,95.189636 355.39949,95.189636 354.82731,95.189636 354.35981,95.022166 353.99696,94.687236 353.63412,94.338346 353.45269,93.905726 353.4527,93.389376 353.45269,92.873016 353.62714,92.014756 353.97602,90.814576 L 356.69735,81.436465 C 357.14392,79.901371 357.36721,78.938441 357.36721,78.54767 357.36721,78.240665 357.25558,77.989467 357.03228,77.794072 356.82294,77.598713 356.52989,77.501024 356.15308,77.501006 355.84606,77.501024 355.21109,77.577779 354.24815,77.731273 L 354.24815,76.914875 361.47014,75.74261 M 371.01573,103.85601 368.88052,103.85601 371.41345,95.189636 C 369.3899,95.175676 367.8199,94.568616 366.70347,93.368436 365.60098,92.154306 365.04974,90.493606 365.04974,88.386316 365.04974,85.176555 366.04755,82.287764 368.04319,79.719935 370.03883,77.152136 372.52988,75.826362 375.51638,75.74261 L 375.28611,76.496208 C 373.41607,76.803248 371.78327,78.331377 370.38772,81.080599 369.00613,83.829847 368.31533,86.523266 368.31533,89.160846 368.31533,92.342706 369.44571,93.982486 371.70652,94.080166 L 374.53251,84.72299 C 375.24423,82.308698 375.88619,80.515415 376.45838,79.343137 377.03054,78.156933 377.73529,77.263781 378.57265,76.663675 379.40996,76.049651 380.30311,75.74263 381.25211,75.74261 382.59181,75.74263 383.6315,76.314805 384.37117,77.45914 385.11078,78.589553 385.4806,80.089771 385.48063,81.959796 385.4806,85.337043 384.43393,88.358406 382.34063,91.023906 380.26124,93.675466 377.30267,95.071016 373.46491,95.210566 L 371.01573,103.85601 M 373.84171,94.059236 C 376.63281,93.877816 378.78894,92.433416 380.3101,89.726046 381.83124,87.004726 382.59181,84.22758 382.59183,81.394599 382.59181,78.980308 381.97776,77.773156 380.7497,77.77314 380.01004,77.773156 379.34716,78.219733 378.76103,79.11287 378.17489,80.006038 377.41431,82.036564 376.47932,85.204457 L 373.84171,94.059236" />
  <path d="M 584.18277,461.30992 593.48374,456.77218 594.41383,456.77218 594.41383,489.04371 C 594.41381,491.18576 594.49837,492.51984 594.6675,493.04594 594.85538,493.57206 595.23117,493.97605 595.79489,494.2579 596.35857,494.53974 597.50474,494.69946 599.23343,494.73703 L 599.23343,495.77987 584.85921,495.77987 584.85921,494.73703 C 586.66302,494.69946 587.82799,494.54913 588.35411,494.28607 588.88021,494.00423 589.24661,493.63783 589.45333,493.18687 589.66,492.71713 589.76334,491.33608 589.76335,489.04371 L 589.76335,468.41248 C 589.76334,465.63162 589.66939,463.84659 589.48151,463.05739 589.34997,462.45614 589.1057,462.01457 588.74871,461.7327 588.41047,461.45088 587.9971,461.30997 587.50857,461.30992 586.81334,461.30997 585.84566,461.60121 584.60555,462.18365 L 584.18277,461.30992" />
  <path d="M 680.44671,514.90716 670.4218,514.90716 657.71066,497.34971 C 656.76907,497.38664 656.0029,497.40512 655.41213,497.4051 655.1721,497.40512 654.91364,497.40512 654.63671,497.4051 654.35977,497.38664 654.07361,497.36818 653.77824,497.34971 L 653.77824,508.2608 C 653.77822,510.62396 654.03669,512.09168 654.55363,512.664 655.25518,513.47635 656.30752,513.8825 657.71066,513.8825 L 659.17838,513.8825 659.17838,514.90716 643.08868,514.90716 643.08868,513.8825 644.50103,513.8825 C 646.08877,513.8825 647.22418,513.36556 647.90728,512.3317 648.29498,511.75936 648.48884,510.4024 648.48884,508.2608 L 648.48884,484.00163 C 648.48884,481.6385 648.23037,480.17078 647.71343,479.59841 646.99341,478.78611 645.92261,478.37996 644.50103,478.37991 L 643.08868,478.37991 643.08868,477.35527 656.76908,477.35527 C 660.75688,477.3553 663.69235,477.65071 665.5755,478.24145 667.47707,478.81382 669.08327,479.88462 670.39411,481.45385 671.72335,483.00471 672.38798,484.86013 672.38801,487.02018 672.38798,489.32795 671.63104,491.3311 670.11717,493.02958 668.62172,494.72812 666.2955,495.92814 663.13851,496.62969 L 670.89258,507.40231 C 672.66491,509.87623 674.18803,511.51937 675.46195,512.3317 676.7358,513.14403 678.39738,513.66097 680.44671,513.8825 L 680.44671,514.90716 M 653.77824,495.60504 C 654.129,495.60507 654.43362,495.6143 654.69211,495.63274 654.95056,495.63276 655.16287,495.63276 655.32905,495.63274 658.91067,495.63276 661.60613,494.85734 663.41544,493.30651 665.24316,491.75571 666.15703,489.78027 666.15706,487.38019 666.15703,485.03552 665.41855,483.13393 663.94161,481.67539 662.48308,480.19846 660.54457,479.45999 658.12606,479.45996 657.05523,479.45999 655.60596,479.63538 653.77824,479.98611 L 653.77824,495.60504 M 686.04073,499.09438 C 686.02225,502.86066 686.93612,505.81459 688.78235,507.95617 690.62854,510.09779 692.79783,511.16859 695.29023,511.16857 696.95179,511.16859 698.39185,510.71627 699.61036,509.81161 700.84729,508.88851 701.88118,507.31925 702.71198,505.10378 L 703.57047,505.65764 C 703.18274,508.18695 702.05657,510.49471 700.19191,512.58092 698.32722,514.64869 695.99177,515.68255 693.18555,515.68255 690.13929,515.68255 687.52691,514.50098 685.3484,512.13783 683.18832,509.75623 682.10829,506.56229 682.10831,502.55602 682.10829,498.21745 683.21602,494.83888 685.43148,492.42032 687.66539,489.98337 690.46238,488.76486 693.82249,488.76483 696.66563,488.76486 699.00108,489.70644 700.82885,491.58954 702.65657,493.45422 703.57046,495.95583 703.57047,499.09438 L 686.04073,499.09438 M 686.04073,497.48817 697.78261,497.48817 C 697.69028,495.86352 697.49644,494.71889 697.20105,494.05423 696.73948,493.02038 696.04715,492.20805 695.12407,491.61722 694.21941,491.02646 693.26861,490.73107 692.27168,490.73104 690.73931,490.73107 689.3639,491.3311 688.14539,492.53111 686.94537,493.71269 686.24381,495.36506 686.04073,497.48817" />
  <path d="M 223.19989,74.591266 223.19989,75.610706 207.1919,75.610706 207.1919,74.591266 208.51442,74.591266 C 210.05737,74.591266 211.17782,74.141246 211.87582,73.241196 212.31666,72.653416 212.53709,71.239056 212.53709,68.998116 L 212.53709,44.862162 C 212.53709,42.970258 212.41768,41.721215 212.17891,41.115028 211.99521,40.655855 211.61866,40.260935 211.04925,39.930272 210.24105,39.489469 209.3961,39.269049 208.51442,39.269012 L 207.1919,39.269012 207.1919,38.249572 223.19989,38.249572 223.19989,39.269012 221.84981,39.269012 C 220.32523,39.269049 219.21396,39.719072 218.51598,40.619083 218.05676,41.206903 217.82715,42.621261 217.82716,44.862162 L 217.82716,68.998116 C 217.82715,70.890056 217.94653,72.139096 218.18534,72.745246 218.36901,73.204456 218.75474,73.599376 219.34254,73.930006 220.13237,74.370846 220.96812,74.591266 221.84981,74.591266 L 223.19989,74.591266 M 233.89025,55.001467 C 235.72707,53.164659 236.81079,52.108482 237.14143,51.832933 237.968,51.134963 238.85886,50.593099 239.81403,50.207338 240.76915,49.82163 241.71512,49.628763 242.65193,49.628737 244.23158,49.628763 245.59084,50.087971 246.72969,51.00636 247.8685,51.924799 248.63079,53.2565 249.01655,55.001467 250.90845,52.797294 252.50649,51.355382 253.81067,50.67573 255.1148,49.97776 256.45568,49.628763 257.83332,49.628737 259.17418,49.628763 260.35894,49.97776 261.3876,50.67573 262.43455,51.355382 263.26112,52.475847 263.86732,54.037131 264.27139,55.102513 264.47343,56.774027 264.47348,59.051678 L 264.47348,69.907346 C 264.47343,71.487026 264.59282,72.570756 264.83166,73.158536 265.0153,73.562646 265.35511,73.911636 265.85109,74.205536 266.347,74.481056 267.1552,74.618816 268.27572,74.618816 L 268.27572,75.610706 255.82201,75.610706 255.82201,74.618816 256.3455,74.618816 C 257.4292,74.618816 258.27413,74.407586 258.88032,73.985116 259.30276,73.691216 259.60583,73.222826 259.78956,72.579936 259.86299,72.267676 259.89974,71.376816 259.89977,69.907346 L 259.89977,59.051678 C 259.89974,56.994447 259.65176,55.543351 259.15584,54.69839 258.43945,53.52284 257.29143,52.935055 255.71178,52.935032 254.73823,52.935055 253.75553,53.183027 252.76368,53.678948 251.79013,54.156546 250.60538,55.056593 249.20941,56.37909 L 249.1543,56.682167 249.20941,57.866923 249.20941,69.907346 C 249.20938,71.633976 249.30122,72.708516 249.48494,73.130986 249.68697,73.553456 250.05433,73.911636 250.58703,74.205536 251.11969,74.481056 252.02892,74.618816 253.31472,74.618816 L 253.31472,75.610706 240.55794,75.610706 240.55794,74.618816 C 241.95392,74.618816 242.90906,74.453506 243.42339,74.122876 243.95605,73.792246 244.32342,73.296306 244.52549,72.635036 244.61732,72.322786 244.66323,71.413556 244.66325,69.907346 L 244.66325,59.051678 C 244.66323,56.994447 244.36016,55.515799 243.75402,54.615732 242.9458,53.440183 241.81615,52.852398 240.36507,52.852375 239.37317,52.852398 238.39047,53.118738 237.41695,53.651396 235.89237,54.459624 234.7168,55.368854 233.89025,56.37909 L 233.89025,69.907346 C 233.89023,71.560496 234.00044,72.635046 234.22087,73.130986 234.45965,73.626926 234.79946,74.003486 235.24032,74.260636 235.69951,74.499426 236.61793,74.618816 237.99556,74.618816 L 237.99556,75.610706 225.5143,75.610706 225.5143,74.618816 C 226.6715,74.618816 227.4797,74.499426 227.93891,74.260636 228.39811,74.003486 228.74711,73.608566 228.9859,73.075876 229.22468,72.524836 229.34408,71.468656 229.34408,69.907346 L 229.34408,60.263986 C 229.34408,57.49039 229.26143,55.699482 229.09611,54.891256 228.96754,54.285124 228.76548,53.871837 228.48995,53.651396 228.21443,53.412631 227.83788,53.293236 227.36031,53.293215 226.846,53.293236 226.23066,53.430999 225.5143,53.706501 L 225.10101,52.714613 232.70548,49.628737 233.89025,49.628737 233.89025,55" />
  <path d="M 282.43636,118.57754 C 283.25454,118.57757 283.94611,118.86004 284.51107,119.42495 285.07599,119.98993 285.35846,120.6815 285.35848,121.49966 285.35846,122.2984 285.06625,122.98997 284.48185,123.57436 283.91689,124.13934 283.23507,124.42181 282.43636,124.42178 281.63764,124.42181 280.94608,124.13934 280.36166,123.57436 279.7967,122.98997 279.51423,122.2984 279.51424,121.49966 279.51423,120.6815 279.7967,119.98993 280.36166,119.42495 280.92658,118.86004 281.61816,118.57757 282.43636,118.57754 M 282.81624,130.17836 277.03045,150.66243 C 276.64082,152.04557 276.44601,152.8735 276.44601,153.14623 276.44601,153.45793 276.53367,153.71118 276.709,153.90598 276.90381,154.1008 277.12783,154.1982 277.38109,154.1982 277.6733,154.1982 278.02396,154.04235 278.43306,153.73066 279.54346,152.85402 280.66361,151.60725 281.79349,149.99034 L 282.81624,150.66243 C 281.49153,152.68844 279.93307,154.39301 278.14084,155.77616 276.81615,156.80864 275.54988,157.32487 274.34209,157.32487 273.54337,157.32487 272.89076,157.09111 272.38426,156.62357 271.87775,156.13655 271.62451,155.53264 271.62451,154.81184 271.62451,154.09106 271.86802,152.89299 272.35505,151.21763 L 276.1538,138.12653 C 276.77717,135.98366 277.08888,134.63949 277.08888,134.094 277.08888,133.66545 276.93303,133.31479 276.62134,133.04204 276.32913,132.76933 275.92002,132.63297 275.39405,132.63294 274.96546,132.63297 274.07909,132.74011 272.73492,132.95437 L 272.73492,131.81475 282.81624,130.17836" />
  <path d="M 430.95739,309.54128 430.95739,318.09125 430.05307,318.09125 C 429.35882,315.4057 428.46363,313.5788 427.36749,312.6105 426.2896,311.64227 424.91029,311.15813 423.22952,311.15811 421.95067,311.15813 420.91846,311.49611 420.1329,312.17204 419.34733,312.84802 418.95453,313.59707 418.95455,314.41916 418.95453,315.44225 419.24685,316.31917 419.83147,317.04992 420.39781,317.79896 421.54876,318.59367 423.28434,319.43404 L 427.28528,321.37971 C 430.9939,323.18836 432.84822,325.57249 432.84825,328.53209 432.84822,330.81575 431.98045,332.66092 430.24489,334.06765 428.52758,335.45611 426.60018,336.15034 424.46269,336.15034 422.92807,336.15034 421.17423,335.8763 419.20117,335.32823 418.59828,335.14552 418.10503,335.05418 417.72138,335.05418 417.30118,335.05418 416.97233,335.29168 416.73483,335.76669 L 415.83051,335.76669 415.83051,326.80566 416.73483,326.80566 C 417.24637,329.36334 418.22377,331.29074 419.66704,332.58784 421.1103,333.88495 422.72712,334.53352 424.51751,334.53352 425.77806,334.53352 426.80114,334.16812 427.58673,333.43736 428.39055,332.68833 428.79248,331.79315 428.7925,330.75179 428.79248,329.49123 428.34487,328.43162 427.4497,327.57295 426.57277,326.71431 424.80979,325.6273 422.16078,324.31191 419.51175,322.99654 417.77618,321.80905 416.95407,320.74943 416.13195,319.7081 415.7209,318.39271 415.7209,316.80328 415.7209,314.73889 416.42426,313.01245 417.83099,311.62397 419.25598,310.23554 421.09202,309.54131 423.33915,309.54128 424.32567,309.54131 425.5223,309.7514 426.92903,310.17156 427.86075,310.44563 428.4819,310.58266 428.7925,310.58263 429.08478,310.58266 429.31314,310.51871 429.47758,310.3908 429.64199,310.26294 429.83381,309.97977 430.05307,309.54128 L 430.95739,309.54128 M 442.93282,296.41488 C 443.70013,296.41491 444.34868,296.68897 444.8785,297.23699 445.42656,297.76684 445.7006,298.41539 445.70061,299.18266 445.7006,299.95 445.42656,300.60769 444.8785,301.15574 444.34868,301.70384 443.70013,301.97787 442.93282,301.97784 442.16552,301.97787 441.50783,301.70384 440.95976,301.15574 440.41167,300.60769 440.13764,299.95 440.13765,299.18266 440.13764,298.41539 440.40254,297.76684 440.93236,297.23699 441.48042,296.68897 442.14725,296.41491 442.93282,296.41488 M 445.20734,309.54128 445.20734,329.71046 C 445.20734,331.28161 445.31695,332.33209 445.53619,332.86188 445.77368,333.37342 446.11166,333.75708 446.55013,334.01285 447.00685,334.26862 447.82895,334.39649 449.01647,334.39649 L 449.01647,335.38303 436.82179,335.38303 436.82179,334.39649 C 438.04583,334.39649 438.86794,334.27775 439.28813,334.04025 439.70831,333.80274 440.03716,333.40996 440.27466,332.86188 440.53043,332.3138 440.65831,331.26334 440.65833,329.71046 L 440.65833,320.03693 C 440.65831,317.31484 440.5761,315.55186 440.41169,314.74799 440.2838,314.1634 440.08284,313.76149 439.8088,313.54224 439.53475,313.30475 439.16024,313.186 438.68525,313.18599 438.17371,313.186 437.55256,313.32303 436.82179,313.59704 L 436.43815,312.6105 444.00158,309.54128 445.20734,309.54128 M 459.42989,314.85762 C 462.37122,311.31342 465.17554,309.54131 467.84285,309.54128 469.21302,309.54131 470.39139,309.88843 471.37793,310.58263 472.36445,311.25861 473.15003,312.38216 473.73466,313.95328 474.13656,315.04946 474.33751,316.73022 474.33754,318.99558 L 474.33754,329.71046 C 474.33751,331.29987 474.46541,332.37775 474.72119,332.94409 474.92213,333.40083 475.24183,333.75708 475.68032,334.01285 476.13704,334.26862 476.96828,334.39649 478.17406,334.39649 L 478.17406,335.38303 465.76016,335.38303 465.76016,334.39649 466.28083,334.39649 C 467.45004,334.39649 468.26303,334.22294 468.71977,333.87582 469.19475,333.51044 469.5236,332.98064 469.7063,332.28641 469.77937,332.01237 469.8159,331.15371 469.81592,329.71046 L 469.81592,319.43404 C 469.8159,317.15041 469.51447,315.49705 468.9116,314.47396 468.32696,313.43264 467.3313,312.91197 465.92459,312.91195 463.75055,312.91197 461.58565,314.09946 459.42989,316.47443 L 459.42989,329.71046 C 459.42989,331.40948 459.53037,332.45996 459.73134,332.86188 459.9871,333.3917 460.33421,333.78448 460.77269,334.04025 461.2294,334.27775 462.14285,334.39649 463.51306,334.39649 L 463.51306,335.38303 451.09915,335.38303 451.09915,334.39649 451.64723,334.39649 C 452.92607,334.39649 453.78472,334.07678 454.22318,333.43736 454.67991,332.77968 454.90828,331.53738 454.90828,329.71046 L 454.90828,320.39318 C 454.90828,317.37878 454.8352,315.54273 454.68904,314.88502 454.56116,314.22735 454.35106,313.77976 454.05876,313.54224 453.78472,313.30475 453.41021,313.186 452.9352,313.18599 452.42366,313.186 451.81164,313.32303 451.09915,313.59704 L 450.6881,312.6105 458.25154,309.54128 459.42989,309.54128 459.42989,314.85762 M 502.28938,347.38588 499.49419,347.38588 502.81005,336.04072 C 500.16101,336.02244 498.10573,335.22773 496.64419,333.6566 495.20093,332.06718 494.47931,329.89315 494.47931,327.13449 494.47931,322.93259 495.78554,319.15089 498.39803,315.78934 501.01053,312.42784 504.27156,310.69227 508.18119,310.58263 L 507.87974,311.56916 C 505.43167,311.9711 503.29416,313.97158 501.46726,317.57059 499.6586,321.16962 498.75428,324.69557 498.75428,328.14844 498.75428,332.3138 500.23409,334.46044 503.1937,334.58832 L 506.89321,322.33884 C 507.82492,319.17829 508.6653,316.8307 509.41436,315.29608 510.16337,313.74321 511.08597,312.57399 512.18213,311.7884 513.27826,310.98457 514.44749,310.58266 515.68981,310.58263 517.44362,310.58266 518.80468,311.33168 519.77298,312.82974 520.74122,314.30956 521.22534,316.27349 521.22537,318.72155 521.22534,323.1427 519.85516,327.09796 517.1148,330.58738 514.39268,334.05851 510.51962,335.88543 505.49561,336.06812 L 502.28938,347.38588 M 505.98889,334.56092 C 509.6427,334.32342 512.46528,332.43256 514.45664,328.88833 516.44796,325.32585 517.44362,321.69029 517.44365,317.98164 517.44362,314.8211 516.63978,313.24082 515.03213,313.24079 514.06383,313.24082 513.19604,313.82542 512.42877,314.99463 511.66144,316.16388 510.66578,318.82204 509.44176,322.96913 L 505.98889,334.56092" />
  <path d="M 404.91041,191.44671 404.91041,443.89274" style="fill:none;stroke:#000000;stroke-width:4" />
  <path d="M 330.12919,374.11514 C 359.37143,385.4067 378.33884,412.1285 378.06807,441.65274" style="fill:none;stroke:#000000;stroke-width:4" />
  <path d="M 404.62706,192.08522 397.917,236.96041 376.84391,227.79571 404.62706,192.08522 z" style="stroke-width:1.5px" />
  <path d="M 392.68408,96.732276 422.24859,96.732276 422.24859,98.979076 392.68408,98.979076 392.68408,96.732276 M 392.68408,105.66465 422.24859,105.66465 422.24859,107.91145 392.68408,107.91145 392.68408,105.66465 M 460.44405,111.39123 C 459.76816,114.69749 458.44383,117.24568 456.47106,119.0358 454.49825,120.80766 452.3154,121.69359 449.92249,121.69359 447.07288,121.69359 444.58863,120.49713 442.46972,118.10421 440.35078,115.71129 439.29132,112.4781 439.29133,108.40464 439.29132,104.45907 440.46039,101.25329 442.7985,98.787276 445.1549,96.321306 447.97709,95.088316 451.26508,95.088286 453.73106,95.088316 455.75865,95.745906 457.34786,97.061076 458.93704,98.358026 459.73163,99.709766 459.73165,101.11627 459.73163,101.81041 459.5033,102.37669 459.04665,102.81507 458.60823,103.23522 457.98717,103.44528 457.18346,103.44526 456.10572,103.44528 455.29284,103.09821 454.74486,102.40407 454.43432,102.02049 454.22425,101.28983 454.11467,100.21207 454.02332,99.134356 453.65799,98.312366 453.01868,97.746076 452.37932,97.198096 451.49339,96.924106 450.36088,96.924086 448.53421,96.924106 447.06375,97.599966 445.9495,98.951676 444.4699,100.74182 443.73011,103.10735 443.73011,106.04825 443.73011,109.04398 444.46077,111.69263 445.9221,113.99422 447.40168,116.27755 449.39275,117.41921 451.89528,117.41921 453.68539,117.41921 455.29284,116.80728 456.71766,115.58342 457.72231,114.74316 458.69957,113.21789 459.64945,111.00763 L 460.44405,111.39123 M 476.28119,95.088286 C 480.08062,95.088316 483.13115,96.531376 485.43277,99.417476 487.38726,101.88348 488.36452,104.7148 488.36455,107.91145 488.36452,110.15825 487.82566,112.43244 486.74795,114.73401 485.67021,117.03562 484.18148,118.77093 482.28178,119.93999 480.40029,121.10907 478.29963,121.69359 475.97979,121.69359 472.19859,121.69359 469.19374,120.18659 466.96522,117.17261 465.08377,114.63355 464.14303,111.78397 464.14303,108.62384 464.14303,106.32226 464.7093,104.03895 465.84183,101.77387 466.99261,99.490556 468.49961,97.810026 470.36281,96.732276 472.226,95.636306 474.19879,95.088316 476.28119,95.088286 M 475.4318,96.869286 C 474.46365,96.869316 473.48639,97.161576 472.5,97.746076 471.53187,98.312366 470.74641,99.317026 470.14362,100.76007 469.54081,102.20315 469.23941,104.05721 469.23941,106.32226 469.23941,109.97558 469.96094,113.12656 471.40401,115.77521 472.86533,118.42387 474.78333,119.7482 477.15798,119.7482 478.92983,119.7482 480.39116,119.01754 481.54197,117.5562 482.69275,116.09488 483.26814,113.58323 483.26817,110.02124 483.26814,105.5642 482.30916,102.05701 480.39118,99.499676 479.09423,97.746096 477.44111,96.869316 475.4318,96.869286 M 508.28429,95.088286 508.28429,103.63706 507.38008,103.63706 C 506.68593,100.95189 505.79087,99.125226 504.6949,98.157086 503.61716,97.188966 502.23802,96.704906 500.55751,96.704876 499.27884,96.704906 498.24678,97.042846 497.46133,97.718686 496.67585,98.394566 496.28312,99.143486 496.28312,99.965466 496.28312,100.98842 496.57538,101.86522 497.15992,102.59586 497.72618,103.34482 498.87697,104.13941 500.6123,104.97965 L 504.6127,106.92504 C 508.3208,108.73345 510.17486,111.11724 510.17487,114.07642 510.17486,116.35975 509.30719,118.20468 507.57189,119.6112 505.85481,120.99945 503.92768,121.69359 501.79051,121.69359 500.2561,121.69359 498.50251,121.41959 496.52972,120.8716 495.92692,120.68893 495.43372,120.5976 495.05013,120.5976 494.62999,120.5976 494.30119,120.83507 494.06373,121.30999 L 493.15954,121.30999 493.15954,112.35022 494.06373,112.35022 C 494.57519,114.90756 495.55245,116.83468 496.99552,118.13161 498.43857,119.42854 500.05516,120.077 501.8453,120.077 503.10569,120.077 504.12861,119.71167 504.91409,118.98101 505.7178,118.23207 506.11967,117.33701 506.11969,116.29581 506.11967,115.03542 505.67214,113.97596 504.7771,113.11743 503.90028,112.25891 502.13756,111.17203 499.48892,109.85684 496.84025,108.54166 495.10492,107.35433 494.28293,106.29485 493.46093,105.25366 493.04993,103.93848 493.04993,102.34926 493.04993,100.28516 493.75319,98.558966 495.15972,97.170676 496.58451,95.782446 498.42031,95.088316 500.66711,95.088286 501.65349,95.088316 502.84995,95.298376 504.2565,95.718486 505.18807,95.992516 505.80913,96.129506 506.11969,96.129486 506.41193,96.129506 506.64027,96.065566 506.80469,95.937676 506.96908,95.809846 507.16087,95.526716 507.38008,95.088286 L 508.28429,95.088286 M 535.98557,132.92755 533.19079,132.92755 536.50617,121.58399 C 533.85751,121.56573 531.80251,120.77113 530.34119,119.2002 528.89812,117.61101 528.1766,115.43729 528.1766,112.67903 528.1766,108.47772 529.48266,104.69654 532.09479,101.33547 534.7069,97.974436 537.96749,96.239096 541.87655,96.129486 L 541.57516,97.115886 C 539.12741,97.517766 536.99023,99.517966 535.16358,103.11646 533.35518,106.715 532.45099,110.24045 532.45099,113.69282 532.45099,117.85761 533.93057,120.00393 536.88978,120.1318 L 540.58876,107.88404 C 541.52034,104.72393 542.36061,102.37669 543.10954,100.84227 543.85847,99.289626 544.78092,98.120566 545.87694,97.335076 546.97292,96.531376 548.14197,96.129506 549.38413,96.129486 551.1377,96.129506 552.49855,96.878446 553.46671,98.376276 554.43481,99.855886 554.91888,101.81956 554.91891,104.26726 554.91888,108.68778 553.54888,112.6425 550.80892,116.13141 548.08718,119.60207 544.21466,121.42872 539.19137,121.61139 L 535.98557,132.92755 M 539.68456,120.10439 C 543.33787,119.86694 546.16006,117.97634 548.15114,114.43262 550.14217,110.87064 551.1377,107.2356 551.13773,103.52747 551.1377,100.36736 550.33397,98.787296 548.72653,98.787276 547.75838,98.787296 546.89072,99.371826 546.12354,100.54088 545.35633,101.70995 544.36079,104.36774 543.13695,108.51423 L 539.68456,120.10439 M 585.8534,117.06301 585.8534,103.39046 572.20824,103.39046 572.20824,101.14368 585.8534,101.14368 585.8534,87.525916 588.04538,87.525916 588.04538,101.14368 601.74533,101.14368 601.74533,103.39046 588.04538,103.39046 588.04538,117.06301 585.8534,117.06301 M 629.44665,85.251723 C 630.21382,85.251759 630.86229,85.516624 631.39204,86.046319 631.92176,86.576086 632.18662,87.224546 632.18664,87.991716 632.18662,88.740676 631.91262,89.389136 631.36463,89.937106 630.83488,90.466866 630.19556,90.731736 629.44665,90.731706 628.6977,90.731736 628.04924,90.466866 627.50124,89.937106 626.97151,89.389136 626.70665,88.740676 626.70665,87.991716 626.70665,87.224546 626.97151,86.576086 627.50124,86.046319 628.03097,85.516624 628.67943,85.251759 629.44665,85.251723 M 629.80285,96.129486 624.37766,115.33681 C 624.01232,116.63375 623.82965,117.41008 623.82967,117.66581 623.82965,117.95807 623.91185,118.19554 624.07625,118.37821 624.25892,118.56087 624.46898,118.65221 624.70646,118.65221 624.98045,118.65221 625.30925,118.50607 625.69286,118.21381 626.73404,117.39182 627.78437,116.22274 628.84385,114.70662 L 629.80285,115.33681 C 628.5607,117.23655 627.09937,118.83487 625.41886,120.1318 624.17672,121.09993 622.9894,121.58399 621.85687,121.58399 621.10793,121.58399 620.496,121.3648 620.02107,120.9264 619.54614,120.46972 619.30867,119.90347 619.30867,119.2276 619.30867,118.55174 619.53701,117.42834 619.99368,115.85741 L 623.55565,103.58226 C 624.14019,101.57296 624.43245,100.31257 624.43245,99.801066 624.43245,99.399226 624.28631,99.070426 623.99405,98.814676 622.86072,98.155254 621.59958,98.547965 620.34987,98.732476 L 620.34987,97.663876 629.80285,96.129486 M 664.46373,95.088286 664.46373,103.63706 663.55954,103.63706 C 662.86539,100.95189 661.97032,99.125226 660.87434,98.157086 659.7966,97.188966 658.41747,96.704906 656.73696,96.704876 655.45829,96.704906 654.42622,97.042846 653.64077,97.718686 652.85529,98.394566 652.46257,99.143486 652.46257,99.965466 652.46257,100.98842 652.75483,101.86522 653.33937,102.59586 653.90562,103.34482 655.05642,104.13941 656.79176,104.97965 L 660.79214,106.92504 C 664.50025,108.73345 666.3543,111.11724 666.35432,114.07642 666.3543,116.35975 665.48664,118.20468 663.75134,119.6112 662.03425,120.99945 660.10713,121.69359 657.96995,121.69359 656.43555,121.69359 654.68196,121.41959 652.70917,120.8716 652.10637,120.68893 651.61317,120.5976 651.22957,120.5976 650.80944,120.5976 650.48064,120.83507 650.24318,121.30999 L 649.33899,121.30999 649.33899,112.35022 650.24318,112.35022 C 650.75465,114.90756 651.73191,116.83468 653.17496,118.13161 654.61802,119.42854 656.23462,120.077 658.02476,120.077 659.28514,120.077 660.30807,119.71167 661.09354,118.98101 661.89726,118.23207 662.29912,117.33701 662.29914,116.29581 662.29912,115.03542 661.85159,113.97596 660.95654,113.11743 660.07973,112.25891 658.31701,111.17203 655.66837,109.85684 653.0197,108.54166 651.28438,107.35433 650.46239,106.29485 649.64038,105.25366 649.22938,103.93848 649.22938,102.34926 649.22938,100.28516 649.93264,98.558966 651.33917,97.170676 652.76396,95.782446 654.59976,95.088316 656.84656,95.088286 657.83295,95.088316 659.0294,95.298376 660.43594,95.718486 661.36753,95.992516 661.9886,96.129506 662.29914,96.129486 662.59138,96.129506 662.81972,96.065566 662.98414,95.937676 663.14852,95.809846 663.34032,95.526716 663.55954,95.088286 L 664.46373,95.088286 M 676.43747,81.963734 C 677.20467,81.963773 677.85313,82.237772 678.38288,82.785731 678.93086,83.315501 679.20486,83.963964 679.20487,84.731125 679.20486,85.498356 678.93086,86.155954 678.38288,86.703916 677.85313,87.251946 677.20467,87.525946 676.43747,87.525916 675.67027,87.525946 675.01268,87.251946 674.46469,86.703916 673.91668,86.155954 673.64268,85.498356 673.64269,84.731125 673.64268,83.963964 673.90754,83.315501 674.43729,82.785731 674.98527,82.237772 675.65201,81.963773 676.43747,81.963734 M 678.71167,95.088286 678.71167,115.25461 C 678.71167,116.82554 678.82126,117.87587 679.04047,118.4056 679.27792,118.91707 679.61586,119.30067 680.05427,119.5564 680.51092,119.81213 681.33291,119.93999 682.52026,119.93999 L 682.52026,120.9264 670.3273,120.9264 670.3273,119.93999 C 671.55117,119.93999 672.37316,119.82126 672.79329,119.58379 673.21341,119.34634 673.54221,118.9536 673.77969,118.4056 674.03542,117.85761 674.16328,116.80728 674.16329,115.25461 L 674.16329,105.58245 C 674.16328,102.86074 674.08108,101.09802 673.91669,100.29427 673.78882,99.709766 673.58789,99.307896 673.31389,99.088666 673.03988,98.851226 672.66542,98.732506 672.19049,98.732476 671.67902,98.732506 671.05796,98.869496 670.3273,99.143476 L 669.94371,98.157086 677.50608,95.088286 678.71167,95.088286 M 692.93222,100.40387 C 695.87313,96.860166 698.67704,95.088316 701.34399,95.088286 702.71396,95.088316 703.89215,95.435376 704.87858,96.129486 705.86496,96.805376 706.65042,97.928776 707.23497,99.499676 707.63681,100.5957 707.83774,102.27622 707.83777,104.54125 L 707.83777,115.25461 C 707.83774,116.84381 707.96562,117.92155 708.22137,118.48781 708.42228,118.94447 708.74193,119.30067 709.18036,119.5564 709.637,119.81213 710.46813,119.93999 711.67375,119.93999 L 711.67375,120.9264 699.2616,120.9264 699.2616,119.93999 699.7822,119.93999 C 700.95124,119.93999 701.7641,119.76647 702.22079,119.41941 702.6957,119.05406 703.0245,118.52433 703.20718,117.8302 703.28024,117.55622 703.31676,116.69768 703.31678,115.25461 L 703.31678,104.97965 C 703.31676,102.69634 703.01537,101.04323 702.41259,100.02028 701.82804,98.979086 700.83251,98.458506 699.426,98.458476 697.25225,98.458506 695.08767,99.645826 692.93222,102.02047 L 692.93222,115.25461 C 692.9322,116.95342 693.03268,118.00375 693.23363,118.4056 693.48935,118.93534 693.83641,119.32808 694.27481,119.58379 694.73147,119.82126 695.6448,119.93999 697.01481,119.93999 L 697.01481,120.9264 684.60264,120.9264 684.60264,119.93999 685.15065,119.93999 C 686.42931,119.93999 687.28784,119.62034 687.72624,118.98101 688.1829,118.3234 688.41123,117.08128 688.41124,115.25461 L 688.41124,105.93865 C 688.41123,102.92468 688.33817,101.08889 688.19203,100.43126 688.06416,99.773686 687.8541,99.326156 687.56184,99.088666 687.28784,98.851226 686.91337,98.732506 686.43844,98.732476 685.92697,98.732506 685.31504,98.869496 684.60264,99.143476 L 684.19166,98.157086 691.75403,95.088286 692.93222,95.088286 692.93222,100.40387 M 735.78566,132.92755 732.99087,132.92755 736.30626,121.58399 C 733.65759,121.56573 731.6026,120.77113 730.14128,119.2002 728.69821,117.61101 727.97668,115.43729 727.97668,112.67903 727.97668,108.47772 729.28275,104.69654 731.89488,101.33547 734.50699,97.974436 737.76758,96.239096 741.67664,96.129486 L 741.37524,97.115886 C 738.9275,97.517766 736.79031,99.517966 734.96367,103.11646 733.15527,106.715 732.25107,110.24045 732.25107,113.69282 732.25107,117.85761 733.73066,120.00393 736.68985,120.1318 L 740.38885,107.88404 C 741.32042,104.72393 742.16069,102.37669 742.90963,100.84227 743.65856,99.289626 744.58101,98.120566 745.67703,97.335076 746.773,96.531376 747.94206,96.129506 749.18422,96.129486 750.93778,96.129506 752.29864,96.878446 753.2668,98.376276 754.2349,99.855886 754.71897,101.81956 754.719,104.26726 754.71897,108.68778 753.34897,112.6425 750.60901,116.13141 747.88726,119.60207 744.01475,121.42872 738.99145,121.61139 L 735.78566,132.92755 M 739.48464,120.10439 C 743.13796,119.86694 745.96014,117.97634 747.95122,114.43262 749.94226,110.87064 750.93778,107.2356 750.93781,103.52747 750.93778,100.36736 750.13406,98.787296 748.52661,98.787276 747.55847,98.787296 746.6908,99.371826 745.92362,100.54088 745.1564,101.70995 744.16088,104.36774 742.93704,108.51423 L 739.48464,120.10439" />
 </svg>