<?xml version="1.0" encoding="utf-8"?>
<!-- Generator: Adobe Illustrator 16.0.0, SVG Export Plug-In . SVG Version: 6.00 Build 0)  -->
<!DOCTYPE svg PUBLIC "-//W3C//DTD SVG 1.1//EN" "http://www.w3.org/Graphics/SVG/1.1/DTD/svg11.dtd">
<svg version="1.1" id="Calque_1" xmlns="http://www.w3.org/2000/svg" xmlns:xlink="http://www.w3.org/1999/xlink" x="0px" y="0px"
	 width="648.849px" height="631.969px" viewBox="0 0 648.849 631.969" enable-background="new 0 0 648.849 631.969"
	 xml:space="preserve">
<path fill="none" stroke="#000000" d="M648.349,315.98c0,174.244-145.031,315.489-323.932,315.489
	C145.521,631.469,0.5,490.224,0.5,315.98C0.5,141.745,145.521,0.5,324.417,0.5C503.317,0.5,648.349,141.745,648.349,315.98z"/>
<g>
	<g>
		<g>
			<line fill="none" stroke="#000000" stroke-width="1.8072" x1="324.386" y1="334.216" x2="324.386" y2="332.86"/>
			
				<line fill="none" stroke="#000000" stroke-width="1.8072" stroke-dasharray="2.687,4.4784" x1="324.386" y1="328.382" x2="324.386" y2="144.32"/>
			<line fill="none" stroke="#000000" stroke-width="1.8072" x1="324.386" y1="142.081" x2="324.386" y2="140.726"/>
		</g>
	</g>
	
		<line fill="none" stroke="#000000" stroke-width="1.6772" stroke-dasharray="2.5158,4.193" x1="150.396" y1="413.714" x2="324.386" y2="334.216"/>
	<path fill="none" stroke="#000000" stroke-width="1.8072" d="M324.386,136.226C97.899,214.224,150.396,413.714,150.396,413.714"/>
	
		<line fill="none" stroke="#000000" stroke-width="1.6818" stroke-dasharray="2.5227,4.2045" x1="497.419" y1="413.714" x2="324.386" y2="333.338"/>
	<path fill="none" stroke="#000000" stroke-width="2.2358" d="M150.396,413.714c186.5,115.055,347.021,0,347.021,0"/>
	<path fill="none" stroke="#000000" stroke-width="1.8072" d="M323.43,136.226c226.486,77.998,173.989,277.488,173.989,277.488"/>
	<g>
		<defs>
			<rect id="SVGID_1_" x="309.154" y="483.744" width="30.463" height="30.463"/>
		</defs>
		<clipPath id="SVGID_2_">
			<use xlink:href="#SVGID_1_"  overflow="visible"/>
		</clipPath>
		<g clip-path="url(#SVGID_2_)">
			<path d="M333.888,486.099c1.093,0,1.864,0.643,1.864,1.735c0,0.257,0,0.386-0.45,2.186l-2.313,8.997
				c-0.578,2.442-0.707,3.085-1.414,5.785c-0.707,2.827-0.836,3.342-0.836,4.756c0,1.285,0.193,2.956,1.929,2.956
				c2.635,0,3.792-3.792,4.884-7.97c0.193-0.899,0.258-1.156,0.9-1.156c0.192,0,0.771,0,0.771,0.643
				c0,0.128-0.836,4.049-1.929,6.362c-1.028,2.057-2.506,3.535-4.756,3.535c-3.085,0-5.334-2.121-5.849-4.82
				c-3.856,4.563-7.069,4.82-8.354,4.82c-5.014,0-8.548-4.242-8.548-10.283c0-9.384,7.969-18.831,15.488-18.831
				c2.893,0,4.756,1.735,5.913,4.113C331.381,487.513,332.346,486.099,333.888,486.099z M330.225,492.976
				c0.064-0.321,0.192-0.707,0.192-1.093s-0.899-5.655-5.077-5.655c-2.57,0-5.463,2.378-7.455,6.17
				c-1.479,2.956-3.535,10.861-3.535,14.075c0,2.506,0.9,6.041,4.113,6.041c1.8,0,4.435-1.028,7.263-4.563
				c0.964-1.092,0.964-1.221,1.285-2.378L330.225,492.976z"/>
		</g>
	</g>
	<g>
		<defs>
			<rect id="SVGID_3_" x="497.419" y="221.343" width="25.087" height="46.59"/>
		</defs>
		<clipPath id="SVGID_4_">
			<use xlink:href="#SVGID_3_"  overflow="visible"/>
		</clipPath>
		<g clip-path="url(#SVGID_4_)">
			<path d="M505.692,242.034c1.928-1.992,4.563-3.856,7.52-3.856c5.142,0,8.548,4.435,8.548,10.283
				c0,9.255-7.905,18.831-15.489,18.831c-4.756,0-8.162-3.985-8.162-10.09c0-2.25,0.257-3.278,1.028-6.491l5.271-20.952
				c0.321-1.35,0.899-3.535,0.899-3.985c0-0.643-0.128-1.092-3.213-1.092c-0.965,0-1.543,0-1.543-0.771
				c0-1.157,0.707-1.221,1.222-1.285c1.671-0.129,6.362-0.643,7.841-0.643c0.835,0,0.835,0.643,0.835,0.707L505.692,242.034z
				 M502.993,252.896c-1.028,4.049-1.028,5.27-1.028,6.491c0,4.756,2.121,6.491,4.306,6.491c2.507,0,5.463-2.313,7.584-6.62
				c1.157-2.442,3.278-9.833,3.278-13.625c0-4.113-1.735-6.042-4.05-6.042c-1.671,0-4.562,0.964-7.712,5.142
				c-0.578,0.707-0.578,0.836-0.964,2.25L502.993,252.896z"/>
		</g>
	</g>
	<g>
		<defs>
			<rect id="SVGID_5_" x="125.497" y="237.47" width="26.777" height="30.463"/>
		</defs>
		<clipPath id="SVGID_6_">
			<use xlink:href="#SVGID_5_"  overflow="visible"/>
		</clipPath>
		<g clip-path="url(#SVGID_6_)">
			<path d="M142.971,239.953c-3.535,0-7.069,2.764-9.062,6.427c-2.185,3.985-3.471,10.219-3.471,12.854
				c0,3.856,1.735,7.005,5.785,7.005c0.771,0,7.776,0,12.854-6.363c0.386-0.514,0.515-0.643,0.836-0.643
				c0.386,0,0.771,0.45,0.771,0.835c0,0.771-5.398,7.584-14.589,7.584c-6.685,0-10.412-5.078-10.412-10.862
				c0-9.062,8.548-18.252,17.225-18.252c4.563,0,7.584,2.378,7.584,5.527c0,2.571-1.735,4.113-3.6,4.113
				c-1.221,0-2.378-0.707-2.378-2.249c0-0.45,0.129-1.542,1.157-2.507c0.899-0.899,1.8-0.899,2.828-0.899
				C147.598,240.789,145.155,239.953,142.971,239.953z"/>
		</g>
	</g>
	<g>
		<defs>
			<rect id="SVGID_7_" x="303.12" y="75.625" width="42.532" height="44.168"/>
		</defs>
		<clipPath id="SVGID_8_">
			<use xlink:href="#SVGID_7_"  overflow="visible"/>
		</clipPath>
		<g clip-path="url(#SVGID_8_)">
			<path d="M333.296,77.553c0.353-0.587,0.587-0.998,1.525-0.998c0.998,0,0.998,0.235,1.115,1.408l3.578,36.669
				c0.177,1.701,0.177,2.112,3.814,2.112c0.763,0,1.349,0,1.349,0.646c0,1.173-0.704,1.173-1.056,1.173
				c-1.467,0-5.163-0.176-6.63-0.176c-2.405,0-4.928,0.176-7.334,0.176c-0.117,0-0.821,0-0.821-0.646
				c0-1.173,0.587-1.173,1.408-1.173c1.174,0,4.225-0.176,4.225-1.936c0-0.587-0.821-8.566-0.939-9.798h-14.726l-4.459,7.51
				c-0.47,0.821-0.821,1.467-0.821,2.171c0,1.467,1.408,1.936,2.758,2.053c0.41,0,0.938,0.059,0.938,0.704
				c0,1.115-0.763,1.115-1.115,1.115c-1.877,0-3.931-0.176-5.867-0.176c-1.643,0-3.461,0.176-5.045,0.176
				c-0.47,0-0.763-0.293-0.763-0.646c0-1.115,0.527-1.115,1.231-1.173c2.582-0.176,4.87-0.997,7.217-4.928L333.296,77.553z
				 M333.354,103.192l-1.877-19.361l-11.559,19.361H333.354z"/>
		</g>
	</g>
	<g>
		<defs>
			<rect id="SVGID_9_" x="94.718" y="403.386" width="44.168" height="40.896"/>
		</defs>
		<clipPath id="SVGID_10_">
			<use xlink:href="#SVGID_9_"  overflow="visible"/>
		</clipPath>
		<g clip-path="url(#SVGID_10_)">
			<path d="M110.485,407.625c0.176-0.704,0.234-0.88,0.234-1.115c0-0.763-0.527-0.821-1.584-0.938
				c-0.997-0.117-2.112-0.117-2.229-0.117c-1.114,0-1.643,0-1.643-0.646c0-1.173,0.587-1.173,1.701-1.173h19.714
				c7.04,0,10.912,3.755,10.912,8.096c0,5.574-6.16,9.916-12.262,11.03c5.69,0.646,9.094,4.049,9.094,8.272
				c0,5.75-6.923,12.673-16.193,12.673H97.284c-1.056,0-1.584,0-1.584-0.646c0-1.173,0.587-1.173,1.584-1.173
				c4.636,0,4.753-0.47,5.34-2.758L110.485,407.625z M116.821,441.889c6.924,0,12.146-5.691,12.146-11.5
				c0-2.522-1.115-6.864-6.747-6.864h-11.089l-4.049,16.369c-0.293,1.056-0.293,1.173-0.293,1.35c0,0.469,0.176,0.527,0.763,0.587
				c0.353,0.059,0.47,0.059,1.291,0.059H116.821z M120.049,422.233c7.157,0,12.203-5.573,12.203-10.736
				c0-2.581-1.232-6.043-6.396-6.043h-7.568c-2.522,0-2.64,0.176-3.168,2.229l-3.638,14.55H120.049z"/>
		</g>
	</g>
	<g>
		<defs>
			<rect id="SVGID_11_" x="509.963" y="401.422" width="44.168" height="44.823"/>
		</defs>
		<clipPath id="SVGID_12_">
			<use xlink:href="#SVGID_11_"  overflow="visible"/>
		</clipPath>
		<g clip-path="url(#SVGID_12_)">
			<path d="M549.048,418.547c-0.293,1.056-0.293,1.173-1.056,1.173c-0.234,0-0.88,0-0.88-0.587c0-0.586,0.176-0.645,0.176-2.992
				c0-6.806-3.462-11.323-9.445-11.323c-5.222,0-10.737,2.934-14.316,7.1c-5.866,6.864-7.099,16.369-7.099,19.713
				c0,9.152,6.219,12.203,11.499,12.203c3.051,0,6.747-0.997,10.796-4.282c4.048-3.403,5.397-7.568,5.926-9.271
				c0.117-0.469,0.41-0.587,0.763-0.587c0.117,0,0.704,0,0.704,0.587c0,0.176-0.998,5.516-6.454,10.326
				c-3.109,2.699-7.568,5.046-12.673,5.046c-8.977,0-15.899-6.396-15.899-16.076c0-13.611,13.2-26.577,26.284-26.577
				c6.513,0,9.211,4.4,9.739,5.222l4.106-4.518c0.646-0.646,0.704-0.704,0.881-0.704c0.527,0,0.645,0.41,0.645,0.587
				L549.048,418.547z"/>
		</g>
	</g>
	<path fill="none" stroke="#000000" stroke-width="2" d="M274.79,157.336c49.596,53.886,98.22,0,98.22,0"/>
	<path fill="none" stroke="#000000" stroke-width="2.0747" d="M501.47,359.856c-60.687,23.965-44.328,75.893-44.328,75.893"/>
	<path fill="none" stroke="#000000" stroke-width="2.0747" d="M192.936,434.82c5.926-64.977-47.806-73.752-47.806-73.752"/>
</g>
</svg>
