<?xml version="1.0" encoding="utf-8"?>
<!-- Generator: Adobe Illustrator 16.0.0, SVG Export Plug-In . SVG Version: 6.00 Build 0)  -->
<!DOCTYPE svg PUBLIC "-//W3C//DTD SVG 1.1//EN" "http://www.w3.org/Graphics/SVG/1.1/DTD/svg11.dtd">
<svg version="1.1" id="Calque_1" xmlns="http://www.w3.org/2000/svg" xmlns:xlink="http://www.w3.org/1999/xlink" x="0px" y="0px"
	 width="739.286px" height="436.744px" viewBox="0 0 739.286 436.744" enable-background="new 0 0 739.286 436.744"
	 xml:space="preserve">
<g>
	<path fill-rule="evenodd" clip-rule="evenodd" fill="none" stroke="#000000" stroke-width="1.372" stroke-miterlimit="10" d="
		M521.003,265.47c-13.382-146.241-42.154-154.508-42.154-154.508s89.213-10.346,217.943,64.611
		C650.255,154.888,521.003,265.47,521.003,265.47z"/>
	<g opacity="0.5">
		<defs>
			<rect id="SVGID_1_" x="483.693" y="72.973" opacity="0.5" width="18.574" height="25.003"/>
		</defs>
		<clipPath id="SVGID_2_">
			<use xlink:href="#SVGID_1_"  overflow="visible"/>
		</clipPath>
		<polyline clip-path="url(#SVGID_2_)" fill="#FF0000" points="496.532,73.305 493.09,76.804 493.564,77.26 496.532,74.655 
			499.48,77.26 499.956,76.804 496.532,73.305 		"/>
		<path clip-path="url(#SVGID_2_)" fill="#FF0000" d="M491.016,90.823l5.041-8.464l0.817,8.464H491.016 M487.934,94.59
			c-1.024,1.731-2.037,2.093-3.155,2.169c-0.305,0.019-0.553,0.019-0.553,0.514c0,0.152,0.134,0.266,0.342,0.266
			c0.686,0,1.484-0.076,2.207-0.076c0.835,0,1.748,0.076,2.569,0.076c0.151,0,0.473,0,0.473-0.475c0-0.286-0.229-0.304-0.399-0.304
			c-0.589-0.057-1.216-0.267-1.216-0.914c0-0.304,0.171-0.589,0.363-0.932l1.959-3.291h6.428c0.058,0.533,0.418,4.033,0.418,4.28
			c0,0.78-1.333,0.856-1.844,0.856c-0.363,0-0.61,0-0.61,0.514c0,0.266,0.305,0.266,0.345,0.266c1.062,0,2.167-0.076,3.212-0.076
			c0.647,0,2.265,0.076,2.892,0.076c0.154,0,0.479,0,0.479-0.514c0-0.265-0.269-0.265-0.593-0.265c-1.598,0-1.598-0.19-1.675-0.933
			l-1.558-16.034c-0.058-0.515-0.058-0.61-0.496-0.61c-0.398,0-0.512,0.171-0.666,0.438L487.934,94.59z"/>
	</g>
	<g opacity="0.5">
		<defs>
			<rect id="SVGID_3_" x="677.504" y="177.986" opacity="0.5" width="19.288" height="25.002"/>
		</defs>
		<clipPath id="SVGID_4_">
			<use xlink:href="#SVGID_3_"  overflow="visible"/>
		</clipPath>
		<polyline clip-path="url(#SVGID_4_)" fill="#FF0000" points="689.355,178.318 685.913,181.818 686.369,182.273 689.355,179.668 
			692.304,182.273 692.76,181.818 689.355,178.318 		"/>
		<path clip-path="url(#SVGID_4_)" fill="#FF0000" d="M683.687,201.772c-0.358,0-0.419,0-0.571-0.04
			c-0.248-0.018-0.323-0.037-0.323-0.246c0-0.077,0-0.133,0.114-0.591l1.787-7.17h4.853c2.454,0,2.95,1.901,2.95,3.006
			c0,2.549-2.286,5.041-5.329,5.041H683.687 M684.847,193.174l1.579-6.373c0.228-0.895,0.284-0.97,1.388-0.97h3.31
			c2.267,0,2.796,1.521,2.796,2.643c0,2.265-2.204,4.7-5.324,4.7H684.847z M680.966,200.553c-0.245,1.008-0.303,1.219-2.341,1.219
			c-0.435,0-0.683,0-0.683,0.513c0,0.265,0.228,0.265,0.683,0.265h9.171c4.051,0,7.076-3.023,7.076-5.534
			c0-1.845-1.482-3.33-3.975-3.615c2.663-0.496,5.363-2.378,5.363-4.832c0-1.883-1.692-3.537-4.775-3.537h-8.618
			c-0.493,0-0.739,0-0.739,0.515c0,0.284,0.228,0.284,0.703,0.284c0.058,0,0.551,0,0.988,0.058c0.456,0.037,0.687,0.075,0.687,0.398
			c0,0.115-0.022,0.191-0.096,0.496L680.966,200.553z"/>
	</g>
	<g opacity="0.5">
		<defs>
			<rect id="SVGID_5_" x="534.793" y="255.891" opacity="0.5" width="19.292" height="25.434"/>
		</defs>
		<clipPath id="SVGID_6_">
			<use xlink:href="#SVGID_5_"  overflow="visible"/>
		</clipPath>
		<polyline clip-path="url(#SVGID_6_)" fill="#FF0000" points="546.21,256.235 542.766,259.715 543.24,260.19 546.21,257.566 
			549.156,260.19 549.612,259.715 546.21,256.235 		"/>
		<path clip-path="url(#SVGID_6_)" fill="#FF0000" d="M553.515,262.646c0-0.096-0.06-0.266-0.288-0.266
			c-0.077,0-0.094,0.018-0.379,0.303l-1.809,1.979c-0.228-0.363-1.406-2.281-4.261-2.281c-5.708,0-11.49,5.667-11.49,11.621
			c0,4.242,3.025,7.038,6.965,7.038c2.225,0,4.184-1.026,5.534-2.205c2.378-2.11,2.817-4.452,2.817-4.529
			c0-0.246-0.248-0.246-0.306-0.246c-0.153,0-0.284,0.038-0.324,0.246c-0.248,0.744-0.838,2.569-2.606,4.053
			c-1.769,1.446-3.387,1.882-4.717,1.882c-2.301,0-5.021-1.333-5.021-5.346c0-1.463,0.532-5.611,3.102-8.616
			c1.558-1.825,3.974-3.099,6.257-3.099c2.623,0,4.127,1.978,4.127,4.944c0,1.028-0.077,1.047-0.077,1.313
			c0,0.246,0.285,0.246,0.399,0.246c0.324,0,0.324-0.037,0.459-0.512L553.515,262.646"/>
	</g>
	<g opacity="0.5">
		<defs>
			<rect id="SVGID_7_" x="588.607" y="187.089" opacity="0.5" width="12.146" height="12.144"/>
		</defs>
		<clipPath id="SVGID_8_">
			<use xlink:href="#SVGID_7_"  overflow="visible"/>
		</clipPath>
		<path clip-path="url(#SVGID_8_)" fill="#FF0000" d="M595.724,195.753c-0.135,0.457-0.135,0.514-0.513,0.951
			c-1.124,1.408-2.189,1.826-2.893,1.826c-1.294,0-1.654-1.426-1.654-2.415c0-1.294,0.834-4.432,1.427-5.631
			c0.778-1.502,1.938-2.454,2.967-2.454c1.674,0,2.036,2.112,2.036,2.265c0,0.153-0.058,0.304-0.078,0.437L595.724,195.753
			 M597.398,189.115c-0.459-0.951-1.22-1.656-2.358-1.656c-3.008,0-6.184,3.785-6.184,7.516c0,2.415,1.406,4.107,3.405,4.107
			c0.514,0,1.786-0.095,3.327-1.921c0.211,1.086,1.103,1.921,2.339,1.921c0.897,0,1.486-0.589,1.902-1.405
			c0.438-0.916,0.763-2.492,0.763-2.532c0-0.267-0.23-0.267-0.304-0.267c-0.248,0-0.288,0.097-0.362,0.458
			c-0.438,1.673-0.894,3.194-1.942,3.194c-0.701,0-0.777-0.666-0.777-1.178c0-0.57,0.058-0.78,0.342-1.904
			c0.284-1.083,0.322-1.331,0.569-2.32l0.915-3.576c0.19-0.723,0.19-0.78,0.19-0.874c0-0.438-0.325-0.704-0.761-0.704
			C597.854,187.974,597.472,188.544,597.398,189.115z"/>
	</g>
	<g opacity="0.5">
		<defs>
			<rect id="SVGID_9_" x="513.963" y="166.112" opacity="0.5" width="10.002" height="18.574"/>
		</defs>
		<clipPath id="SVGID_10_">
			<use xlink:href="#SVGID_9_"  overflow="visible"/>
		</clipPath>
		<path clip-path="url(#SVGID_10_)" fill="#FF0000" d="M516.76,176.297c0.15-0.57,0.15-0.627,0.379-0.913
			c1.256-1.655,2.418-2.053,3.081-2.053c0.915,0,1.618,0.779,1.618,2.415c0,1.521-0.857,4.47-1.313,5.441
			c-0.837,1.731-2.036,2.645-3.024,2.645c-0.874,0-1.731-0.687-1.731-2.589c0-0.494,0-0.97,0.422-2.587L516.76,176.297
			 M519.175,166.596c0-0.037,0-0.287-0.342-0.287c-0.592,0-2.455,0.21-3.139,0.25c-0.19,0.037-0.476,0.056-0.476,0.513
			c0,0.322,0.228,0.322,0.609,0.322c1.233,0,1.294,0.172,1.294,0.418c0,0.191-0.228,1.066-0.362,1.599l-2.11,8.369
			c-0.305,1.275-0.401,1.694-0.401,2.586c0,2.435,1.35,4.035,3.252,4.035c3.024,0,6.184-3.824,6.184-7.516
			c0-2.338-1.37-4.108-3.406-4.108c-1.195,0-2.244,0.742-3.005,1.542L519.175,166.596z"/>
	</g>
	<g opacity="0.5">
		<defs>
			<rect id="SVGID_11_" x="582.463" y="131.066" opacity="0.5" width="10.714" height="12.144"/>
		</defs>
		<clipPath id="SVGID_12_">
			<use xlink:href="#SVGID_11_"  overflow="visible"/>
		</clipPath>
		<path clip-path="url(#SVGID_12_)" fill="#FF0000" d="M591.632,133.034c-0.419,0-0.78,0-1.143,0.362
			c-0.398,0.38-0.456,0.818-0.456,0.989c0,0.628,0.456,0.913,0.95,0.913c0.742,0,1.428-0.627,1.428-1.655
			c0-1.255-1.198-2.207-3.025-2.207c-3.462,0-6.866,3.672-6.866,7.287c0,2.319,1.484,4.335,4.147,4.335
			c3.669,0,5.818-2.718,5.818-3.022c0-0.153-0.15-0.324-0.303-0.324c-0.135,0-0.171,0.038-0.324,0.247
			c-2.036,2.549-4.832,2.549-5.137,2.549c-1.615,0-2.303-1.256-2.303-2.796c0-1.066,0.517-3.558,1.373-5.136
			c0.796-1.465,2.205-2.569,3.632-2.569C590.278,132.007,591.271,132.35,591.632,133.034"/>
	</g>
	<path fill="none" stroke="#000000" stroke-width="1.372" stroke-miterlimit="10" d="M492.98,129.184c0,0,13.135-2.768,16.34-17.434
		"/>
	<path fill="none" stroke="#000000" stroke-width="1.372" stroke-miterlimit="10" d="M518.556,241.676
		c0,0,15.882-7.487,23.006,7.125"/>
	<path fill="none" stroke="#000000" stroke-width="1.372" stroke-miterlimit="10" d="M663.299,157.48c0,0-11.285,9.534-1.119,19.043
		"/>
	<g>
		<defs>
			<rect id="SVGID_13_" x="506.761" y="268.608" width="14.401" height="22.884"/>
		</defs>
		<clipPath id="SVGID_14_">
			<use xlink:href="#SVGID_13_"  overflow="visible"/>
		</clipPath>
		<path clip-path="url(#SVGID_14_)" d="M516.036,279.002l-3.903-0.948c-1.896-0.451-3.067-2.098-3.067-3.858
			c0-2.123,1.645-3.995,4.017-3.995c5.078,0,5.755,5.01,5.936,6.364c0.021,0.182,0.021,0.361,0.362,0.361
			c0.405,0,0.405-0.137,0.405-0.722v-6.117c0-0.519,0-0.722-0.338-0.722c-0.229,0-0.249,0.022-0.477,0.384l-1.058,1.739
			c-0.905-0.882-2.168-2.123-4.878-2.123c-3.363,0-5.937,2.663-5.937,5.891c0,2.527,1.629,4.763,3.997,5.573
			c0.339,0.114,1.896,0.499,4.017,0.995c0.834,0.224,1.738,0.428,2.595,1.558c0.634,0.789,0.948,1.804,0.948,2.797
			c0,2.167-1.533,4.356-4.082,4.356c-0.883,0-3.206-0.136-4.811-1.646c-1.76-1.628-1.85-3.591-1.894-4.673
			c-0.023-0.316-0.274-0.316-0.361-0.316c-0.409,0-0.409,0.226-0.409,0.769v6.093c0,0.519,0,0.72,0.343,0.72
			c0.224,0,0.247-0.067,0.472-0.382c0-0.048,0.09-0.136,1.082-1.738c0.948,1.038,2.891,2.12,5.597,2.12
			c3.568,0,6.004-2.978,6.004-6.318C520.596,282.118,518.589,279.612,516.036,279.002"/>
	</g>
	<g>
		<defs>
			<rect id="SVGID_15_" x="512.711" y="120.05" width="14.622" height="20.977"/>
		</defs>
		<clipPath id="SVGID_16_">
			<use xlink:href="#SVGID_15_"  overflow="visible"/>
		</clipPath>
		<path clip-path="url(#SVGID_16_)" fill="#008000" d="M523.528,121.072c0.015-0.085,0.067-0.221,0.067-0.339
			c0-0.235-0.171-0.255-0.271-0.255c-0.238,0-0.253,0.05-0.356,0.458l-3.775,15.099c-1.742-0.22-2.607-1.05-2.607-2.555
			c0-0.457,0-1.068,1.237-4.248c0.085-0.29,0.235-0.662,0.235-1.119c0-1.033-0.726-1.879-1.861-1.879
			c-2.165,0-3.011,3.303-3.011,3.521c0,0.22,0.22,0.22,0.271,0.22c0.233,0,0.252-0.05,0.37-0.406
			c0.611-2.167,1.525-2.826,2.304-2.826c0.185,0,0.574,0,0.574,0.726c0,0.592-0.234,1.169-0.521,1.965
			c-1.106,2.877-1.106,3.469-1.106,3.858c0,2.167,1.779,3.098,3.964,3.233c-0.171,0.829-0.171,0.865-0.49,2.081
			c-0.067,0.256-0.522,2.101-0.522,2.168c0,0.017,0,0.236,0.271,0.236c0.051,0,0.15,0,0.199-0.102
			c0.071-0.049,0.203-0.608,0.271-0.929l0.883-3.403c0.828,0,2.843,0,4.995-2.437c0.929-1.05,1.42-2.066,1.656-2.742
			c0.219-0.576,0.71-2.558,0.71-3.571c0-1.271-0.609-1.593-0.998-1.593c-0.575,0-1.149,0.592-1.149,1.102
			c0,0.288,0.151,0.422,0.354,0.609c0.253,0.254,0.812,0.845,0.812,1.946c0,1.455-1.185,3.335-1.979,4.146
			c-2.018,2.033-3.47,2.033-4.303,2.033L523.528,121.072"/>
	</g>
	<g>
		<defs>
			<rect id="SVGID_17_" x="619.084" y="155.184" width="32.418" height="17.162"/>
		</defs>
		<clipPath id="SVGID_18_">
			<use xlink:href="#SVGID_17_"  overflow="visible"/>
		</clipPath>
		<path clip-path="url(#SVGID_18_)" fill="#008000" d="M627.158,157.772l6.127,12.322H620.98L627.158,157.772 M628.479,155.896
			c-0.169-0.291-0.204-0.407-0.592-0.407c-0.39,0-0.439,0.116-0.594,0.407l-7.719,15.485c-0.116,0.204-0.116,0.252-0.116,0.273
			c0,0.187,0.135,0.187,0.506,0.187h15.846c0.352,0,0.49,0,0.49-0.187c0-0.021,0-0.069-0.103-0.273L628.479,155.896z"/>
		<path clip-path="url(#SVGID_18_)" fill="#008000" d="M646.757,169.57c-2.013,1.762-3.772,2.015-4.688,2.015
			c-1.369,0-2.05-1.033-2.05-2.488c0-1.119,0.597-3.589,1.323-4.739c1.064-1.677,2.302-2.116,3.099-2.116
			c2.267,0,2.267,2.997,2.267,4.774C646.708,167.861,646.708,169.198,646.757,169.57 M648.282,166.455
			c0-3.587-2.134-4.705-3.809-4.705c-3.131,0-6.143,3.266-6.143,6.483c0,2.116,1.368,3.859,3.688,3.859
			c1.437,0,3.083-0.526,4.827-1.931c0.301,1.219,1.045,1.931,2.076,1.931c1.204,0,1.913-1.254,1.913-1.625
			c0-0.153-0.132-0.219-0.27-0.219c-0.172,0-0.236,0.066-0.305,0.219c-0.405,1.117-1.236,1.117-1.27,1.117
			c-0.71,0-0.71-1.778-0.71-2.318c0-0.491,0-0.525,0.22-0.814c2.151-2.692,2.641-5.33,2.641-5.366c0-0.033-0.036-0.218-0.286-0.218
			c-0.221,0-0.221,0.067-0.342,0.474c-0.405,1.438-1.166,3.181-2.232,4.519V166.455z"/>
	</g>
	<g>
		<defs>
			<rect id="SVGID_19_" x="486.371" y="179.836" width="9.537" height="17.161"/>
		</defs>
		<clipPath id="SVGID_20_">
			<use xlink:href="#SVGID_19_"  overflow="visible"/>
		</clipPath>
		<path clip-path="url(#SVGID_20_)" fill="#008000" d="M493.371,188.942c-0.252,1.051-0.742,2.98-1.605,4.621
			c-0.799,1.557-1.66,2.674-2.643,2.674c-0.763,0-1.236-0.66-1.236-2.777c0-0.962,0.136-2.285,0.729-4.518H493.371 M488.802,188.196
			c0.391-1.456,0.846-3.282,1.764-4.907c0.604-1.117,1.452-2.387,2.484-2.387c1.118,0,1.252,1.457,1.252,2.76
			c0,1.117-0.185,2.285-0.729,4.535H488.802z M495.807,185.083c0-1.507-0.403-4.688-2.738-4.688c-3.165,0-6.688,6.432-6.688,11.661
			c0,2.152,0.66,4.691,2.742,4.691C492.339,196.746,495.807,190.193,495.807,185.083z"/>
	</g>
	<g>
		<defs>
			
				<rect id="SVGID_21_" x="607.643" y="217.139" transform="matrix(-1 0.0074 -0.0074 -1 1272.3309 470.8897)" width="55.303" height="41.319"/>
		</defs>
		<clipPath id="SVGID_22_">
			<use xlink:href="#SVGID_21_"  overflow="visible"/>
		</clipPath>
		<path clip-path="url(#SVGID_22_)" fill="#008000" d="M613.798,218.822l2.589-0.02c-0.734,3.39-0.932,4.374-0.92,5.897
			c0.002,0.34,0.007,0.967,0.199,1.743c0.242,0.997,0.48,1.129,0.839,1.127c0.453-0.004,0.928-0.412,0.925-0.869
			c-0.003-0.137-0.003-0.186-0.142-0.507c-0.673-1.636-0.682-3.126-0.688-3.752c-0.01-1.219,0.138-2.455,0.383-3.643l2.605-0.02
			c0.288-0.001,1.116-0.009,1.108-0.786c-0.002-0.54-0.491-0.537-0.917-0.533l-7.649,0.056c-0.509,0.005-1.368,0.01-2.361,1.083
			c-0.806,0.902-1.391,1.958-1.388,2.076c0,0.017,0.001,0.22,0.287,0.217c0.169,0,0.218-0.086,0.355-0.271
			c1.102-1.771,2.44-1.781,2.879-1.785l1.303-0.009c-0.706,2.765-1.923,5.551-2.854,7.622c-0.186,0.357-0.186,0.391-0.183,0.559
			c0.002,0.424,0.379,0.607,0.67,0.604c0.689-0.005,0.853-0.648,1.118-1.498c0.312-1.051,0.312-1.085,0.611-2.237L613.798,218.822"
			/>
		
			<line clip-path="url(#SVGID_22_)" fill="none" stroke="#008000" stroke-width="0.9108" stroke-miterlimit="10" x1="607.872" y1="237.097" x2="621.686" y2="236.994"/>
		<path clip-path="url(#SVGID_22_)" fill="#008000" d="M612.15,256.683l2.401-2.37c3.533-3.175,4.893-4.42,4.876-6.705
			c-0.019-2.607-2.082-4.42-4.874-4.4c-2.569,0.019-4.251,2.148-4.236,4.178c0.01,1.27,1.146,1.262,1.215,1.262
			c0.39-0.003,1.181-0.281,1.173-1.211c-0.002-0.592-0.413-1.199-1.208-1.194c-0.188,0.002-0.238,0.002-0.306,0.04
			c0.513-1.496,1.742-2.351,3.083-2.361c2.064-0.015,3.06,1.841,3.073,3.702c0.013,1.826-1.109,3.646-2.348,5.061l-4.35,4.924
			c-0.256,0.257-0.256,0.29-0.25,0.849l8.464-0.063l0.612-3.983l-0.575,0.005c-0.097,0.693-0.258,1.693-0.474,2.036
			c-0.169,0.186-1.677,0.198-2.182,0.201L612.15,256.683"/>
		<path clip-path="url(#SVGID_22_)" fill="#008000" d="M644.558,237.249c0.388-0.003,0.794-0.006,0.79-0.463
			c-0.004-0.458-0.409-0.455-0.798-0.452l-12.356,0.091c-0.392,0.003-0.796,0.006-0.792,0.463c0.003,0.458,0.407,0.455,0.798,0.452
			L644.558,237.249"/>
		<path clip-path="url(#SVGID_22_)" fill="#008000" d="M658.537,232.911c0.568,1.048,1.271,2.277,1.281,3.918
			c0.013,1.507-0.821,5.337-2.954,5.354c-1.253,0.009-2.191-0.947-2.203-2.691C654.649,238.07,655.465,233.763,658.537,232.911
			 M658.246,232.426c-2.836,0.697-5.034,3.689-5.013,6.451c0.016,2.182,1.485,3.814,3.635,3.798c2.674-0.02,4.542-3.605,4.518-6.771
			c-0.015-2.064-0.937-3.209-1.725-4.219c-0.819-1.026-2.186-2.726-2.192-3.742c-0.004-0.49,0.453-1.053,1.244-1.059
			c0.693-0.004,1.154,0.296,1.63,0.615c0.461,0.267,0.918,0.552,1.257,0.549c0.577-0.003,0.91-0.549,0.907-0.92
			c-0.004-0.491-0.376-0.556-1.19-0.736c-1.185-0.245-1.507-0.241-1.878-0.239c-1.78,0.014-2.587,0.999-2.575,2.372
			C656.872,229.761,657.54,231.025,658.246,232.426z"/>
	</g>
	<g>
		<defs>
			<rect id="SVGID_23_" x="573.86" y="77.317" width="62.929" height="41.319"/>
		</defs>
		<clipPath id="SVGID_24_">
			<use xlink:href="#SVGID_23_"  overflow="visible"/>
		</clipPath>
		<path clip-path="url(#SVGID_24_)" fill="#008000" d="M580.039,78.841h2.571c-0.747,3.385-0.946,4.367-0.946,5.891
			c0,0.337,0,0.964,0.17,1.742c0.235,0.999,0.49,1.136,0.827,1.136c0.455,0,0.931-0.407,0.931-0.864c0-0.135,0-0.187-0.134-0.506
			c-0.661-1.643-0.661-3.134-0.661-3.76c0-1.218,0.171-2.453,0.405-3.639h2.607c0.304,0,1.113,0,1.113-0.778
			c0-0.542-0.47-0.542-0.91-0.542h-7.649c-0.492,0-1.356,0-2.368,1.065c-0.797,0.898-1.393,1.947-1.393,2.068
			c0,0.014,0,0.217,0.271,0.217c0.188,0,0.238-0.083,0.373-0.271c1.118-1.76,2.439-1.76,2.893-1.76h1.304
			c-0.729,2.759-1.962,5.535-2.928,7.602c-0.183,0.353-0.183,0.388-0.183,0.556c0,0.424,0.372,0.611,0.674,0.611
			c0.68,0,0.864-0.644,1.133-1.49c0.324-1.051,0.324-1.084,0.61-2.234L580.039,78.841"/>
		
			<line clip-path="url(#SVGID_24_)" fill="none" stroke="#008000" stroke-width="0.9108" stroke-miterlimit="10" x1="573.977" y1="97.072" x2="587.79" y2="97.072"/>
		<path clip-path="url(#SVGID_24_)" fill="#008000" d="M578.09,116.69l2.422-2.354c3.573-3.149,4.926-4.384,4.926-6.669
			c0-2.607-2.05-4.438-4.842-4.438c-2.573,0-4.263,2.118-4.263,4.148c0,1.271,1.148,1.271,1.216,1.271
			c0.389,0,1.186-0.271,1.186-1.202c0-0.593-0.406-1.202-1.218-1.202c-0.17,0-0.222,0-0.289,0.034
			c0.526-1.49,1.762-2.336,3.081-2.336c2.081,0,3.062,1.861,3.062,3.724c0,1.827-1.149,3.639-2.404,5.044l-4.381,4.891
			c-0.252,0.254-0.252,0.288-0.252,0.846h8.478l0.627-3.977h-0.559c-0.117,0.694-0.271,1.691-0.51,2.031
			c-0.151,0.187-1.656,0.187-2.164,0.187H578.09"/>
		<path clip-path="url(#SVGID_24_)" fill="#008000" d="M610.642,97.496c0.388,0,0.793,0,0.793-0.459
			c0-0.456-0.405-0.456-0.793-0.456h-12.34c-0.39,0-0.812,0-0.812,0.456c0,0.459,0.423,0.459,0.812,0.459H610.642"/>
		<path clip-path="url(#SVGID_24_)" fill="#008000" d="M624.726,93.262c0.57,1.05,1.25,2.287,1.25,3.927
			c0,1.507-0.864,5.333-2.996,5.333c-1.252,0-2.184-0.965-2.184-2.708C620.796,98.391,621.642,94.092,624.726,93.262 M624.45,92.771
			c-2.858,0.678-5.074,3.656-5.074,6.416c0,2.184,1.474,3.826,3.604,3.826c2.672,0,4.572-3.572,4.572-6.737
			c0-2.064-0.918-3.217-1.694-4.232c-0.813-1.032-2.168-2.741-2.168-3.756c0-0.492,0.458-1.05,1.255-1.05
			c0.693,0,1.149,0.305,1.625,0.625c0.455,0.272,0.912,0.56,1.25,0.56c0.574,0,0.916-0.542,0.916-0.914
			c0-0.491-0.357-0.559-1.184-0.744c-1.188-0.255-1.51-0.255-1.863-0.255c-1.795,0-2.606,0.982-2.606,2.353
			C623.082,90.097,623.742,91.366,624.45,92.771z"/>
		<path clip-path="url(#SVGID_24_)" fill="#008000" d="M633.051,106.042c-0.727,0-1.713-0.424-2.015-1.728
			c-0.234-0.947-0.234-2.25-0.234-3.435c0-1.151,0-2.369,0.234-3.251c0.34-1.252,1.353-1.59,2.015-1.59
			c0.863,0,1.691,0.524,1.981,1.457c0.251,0.862,0.269,2.014,0.269,3.384c0,1.185,0,2.369-0.201,3.368
			C634.775,105.703,633.692,106.042,633.051,106.042 M636.738,101.098c0-1.758-0.203-3.011-0.929-4.129
			c-0.493-0.729-1.49-1.371-2.759-1.371c-3.691,0-3.691,4.35-3.691,5.5c0,1.135,0,5.4,3.691,5.4
			C636.738,106.498,636.738,102.233,636.738,101.098z"/>
	</g>
	<g>
		<defs>
			<rect id="SVGID_25_" x="705.57" y="164.458" width="16.106" height="21.189"/>
		</defs>
		<clipPath id="SVGID_26_">
			<use xlink:href="#SVGID_25_"  overflow="visible"/>
		</clipPath>
		<path clip-path="url(#SVGID_26_)" d="M720.872,165.584c0.205-0.339,0.205-0.361,0.205-0.587c0-0.473-0.182-0.473-0.791-0.473
			h-13.633l-0.335,6.839h0.763c0.205-3.431,1.129-5.891,6.121-5.891h4.783l-11.849,18.71c-0.228,0.338-0.228,0.36-0.228,0.608
			c0,0.52,0.161,0.52,0.814,0.52h14.014l0.521-8.125h-0.747c-0.248,4.219-0.834,7.087-6.452,7.087h-5.011L720.872,165.584"/>
	</g>
	<g>
		<defs>
			<rect id="SVGID_27_" x="687.964" y="136.238" width="51.322" height="18.476"/>
		</defs>
		<clipPath id="SVGID_28_">
			<use xlink:href="#SVGID_27_"  overflow="visible"/>
		</clipPath>
		<path clip-path="url(#SVGID_28_)" d="M693.392,137.707c-0.219-0.292-0.255-0.329-0.707-0.329h-4.174v0.766h0.711
			c0.364,0,0.853,0.018,1.218,0.055c0.566,0.072,0.587,0.09,0.587,0.564v12.828c0,0.656,0,1.821-2.516,1.821v0.747
			c0.854-0.018,2.056-0.073,2.86-0.073c0.82,0,2.021,0.055,2.877,0.073v-0.747c-2.531,0-2.531-1.165-2.531-1.821v-12.792
			c0.127,0.127,0.144,0.146,0.254,0.31l10.022,14.741c0.219,0.292,0.237,0.309,0.419,0.309c0.345,0,0.345-0.164,0.345-0.637v-13.557
			c0-0.674,0-1.822,2.536-1.822v-0.766c-0.878,0.036-2.08,0.073-2.881,0.073c-0.821,0-2.023-0.037-2.877-0.073v0.766
			c2.531,0,2.531,1.148,2.531,1.822v10.495L693.392,137.707"/>
		<path clip-path="url(#SVGID_28_)" d="M707.477,145.759c0,5.084,3.973,8.947,8.546,8.947c4.009,0,6.414-3.408,6.414-6.268
			c0-0.238,0-0.42-0.309-0.42c-0.274,0-0.274,0.146-0.311,0.401c-0.181,3.517-2.824,5.521-5.5,5.521
			c-1.498,0-6.306-0.838-6.306-8.163c0-7.344,4.791-8.182,6.284-8.182c2.681,0,4.864,2.241,5.357,5.831
			c0.053,0.346,0.053,0.418,0.401,0.418c0.382,0,0.382-0.073,0.382-0.583v-5.831c0-0.42,0-0.584-0.271-0.584
			c-0.095,0-0.201,0-0.386,0.292l-1.239,1.805c-0.912-0.875-2.147-2.096-4.519-2.096C711.429,136.85,707.477,140.75,707.477,145.759
			"/>
		<path clip-path="url(#SVGID_28_)" d="M729.323,145.759v-6.632c0-0.819,0.058-0.983,1.202-0.983h2.188
			c3.915,0,3.915,2.605,3.915,3.809c0,1.147,0,3.807-3.915,3.807H729.323 M729.397,146.397h4.157c2.947,0,5.61-1.986,5.61-4.445
			c0-2.406-2.441-4.574-5.815-4.574h-8.672v0.766h0.583c1.896,0,1.949,0.272,1.949,1.148v12.956c0,0.891-0.054,1.165-1.949,1.165
			h-0.583v0.747c0.857-0.073,2.679-0.073,3.608-0.073c0.947,0,2.787,0,3.644,0.073v-0.747h-0.583c-1.893,0-1.949-0.274-1.949-1.165
			V146.397z"/>
	</g>
	<g>
		<defs>
			<rect id="SVGID_29_" x="444.527" y="93.875" width="25.357" height="26.175"/>
		</defs>
		<clipPath id="SVGID_30_">
			<use xlink:href="#SVGID_29_"  overflow="visible"/>
		</clipPath>
		<path clip-path="url(#SVGID_30_)" d="M453.479,103.41l-3.768-0.893c-1.83-0.457-2.962-2.047-2.962-3.747
			c0-2.047,1.59-3.833,3.877-3.833c4.901,0,5.554,4.813,5.728,6.121c0.022,0.196,0.022,0.371,0.349,0.371
			c0.392,0,0.392-0.153,0.392-0.719v-5.902c0-0.5,0-0.697-0.327-0.697c-0.217,0-0.24,0.022-0.457,0.371l-1.024,1.677
			c-0.871-0.849-2.091-2.047-4.705-2.047c-3.246,0-5.729,2.571-5.729,5.685c0,2.44,1.568,4.596,3.855,5.38
			c0.327,0.13,1.83,0.479,3.877,0.98c0.806,0.196,1.677,0.414,2.504,1.502c0.61,0.762,0.915,1.721,0.915,2.701
			c0,2.069-1.481,4.182-3.942,4.182c-0.85,0-3.093-0.13-4.639-1.568c-1.699-1.589-1.786-3.463-1.83-4.53
			c-0.022-0.305-0.262-0.305-0.349-0.305c-0.392,0-0.392,0.218-0.392,0.74v5.881c0,0.501,0,0.697,0.327,0.697
			c0.218,0,0.24-0.043,0.458-0.37c0-0.044,0.087-0.131,1.045-1.677c0.915,1.002,2.789,2.047,5.402,2.047
			c3.441,0,5.793-2.875,5.793-6.098C457.878,106.416,455.94,103.998,453.479,103.41"/>
		<path clip-path="url(#SVGID_30_)" d="M467.462,111.055c-0.371,0.151-0.566,0.479-0.566,0.893c0,0.566,0.393,0.98,0.958,0.98
			c0.566,0,1.002-0.349,1.002-1.024c0-1.808-2.854-1.808-3.441-1.808c-3.071,0-4.966,2.353-4.966,4.705
			c0,2.592,2.179,4.639,4.879,4.639c3.049,0,3.768-2.417,3.768-2.679c0-0.239-0.261-0.239-0.349-0.239
			c-0.261,0-0.283,0.065-0.392,0.348c-0.457,1.286-1.546,1.917-2.788,1.917c-1.416,0-3.268-1.045-3.268-4.008
			c0-2.592,1.285-4.029,3.18-4.029C465.741,110.75,466.743,110.75,467.462,111.055"/>
	</g>
</g>
<path fill="#8585FF" d="M399.131,238.719c0,28.562-89.101,51.72-199.016,51.72c-109.913,0-199.013-23.157-199.013-51.72
	c0-28.568,89.101-51.727,199.013-51.727C310.03,186.993,399.131,210.151,399.131,238.719z"/>
<g>
	<g opacity="0.5">
		<defs>
			<rect id="SVGID_31_" x="57.453" y="97.833" opacity="0.5" width="290.739" height="284.518"/>
		</defs>
		<clipPath id="SVGID_32_">
			<use xlink:href="#SVGID_31_"  overflow="visible"/>
		</clipPath>
		<path clip-path="url(#SVGID_32_)" fill="#FF0005" d="M61.648,101.978c-18.645,19.093,29.159,96.012,106.775,171.793
			c77.614,75.788,155.646,121.744,174.294,102.65c18.645-19.101-29.158-96.012-106.774-171.799
			C158.328,128.833,80.297,82.877,61.648,101.978z"/>
	</g>
	<g>
		<g>
			<path fill="none" stroke="#000000" stroke-width="1.1661" d="M317.328,97.723C69.893,391.825,71.136,391.777,71.136,391.777"/>
			<g>
				<path d="M315.994,99.334l1.576,4.658l0.165-0.049l2.319-6.997c1.132-2.166,2.264-4.332,3.396-6.498
					c-1.937,1.491-3.873,2.982-5.81,4.473l-6.488,3.499l-0.037,0.156L315.994,99.334z"/>
			</g>
		</g>
	</g>
	<path fill="none" stroke="#000000" stroke-width="1.5547" d="M281.283,64.841c-9.18,12.978,3.346,25.073,3.346,25.073"/>
</g>
<rect x="51.702" y="96.441" fill="none" width="290.739" height="284.519"/>
<path fill="none" stroke="#000000" stroke-width="1.1661" d="M399.65,241.823c0,107.332-89.337,194.338-199.538,194.338
	c-110.198,0-199.529-87.006-199.529-194.338c0-107.326,89.331-194.331,199.529-194.331
	C310.313,47.492,399.65,134.497,399.65,241.823z"/>
<g>
	<g>
		<path fill="none" stroke="#000000" stroke-width="1.1661" d="M200.113,52.246c0,383.915,0,383.915,0,383.915"/>
		<g>
			<path d="M200.113,53.292l2.101,1.278l0.048-0.072l-1.361-3.425c-0.262-1.193-0.525-2.387-0.788-3.58
				c-0.263,1.193-0.525,2.387-0.788,3.58l-1.361,3.425l0.036,0.072L200.113,53.292z"/>
		</g>
	</g>
</g>
<g>
	<g>
		<path fill="none" stroke="#000000" stroke-width="1.1591" d="M186.417,285.778c21.255-68.729,27.015-87.754,29.123-94.191"/>
		<g>
			<path d="M186.721,284.785l-1.621-1.83l-0.066,0.054l0.288,3.652c-0.101,1.21-0.201,2.421-0.301,3.631
				c0.599-1.057,1.198-2.113,1.798-3.169l2.296-2.854l-0.013-0.079L186.721,284.785z"/>
		</g>
		<g>
			<path d="M215.235,192.588l-2.399,0.466l-0.02-0.083l2.451-2.723c0.657-1.022,1.313-2.044,1.97-3.065
				c-0.167,1.203-0.334,2.406-0.502,3.609l0.086,3.662l-0.058,0.055L215.235,192.588z"/>
		</g>
	</g>
</g>
<path fill="#0D7016" stroke="#0D7016" stroke-width="1.5547" stroke-linecap="round" d="M207.705,285.565
	c5.653,42.312,5.653,42.312,5.653,42.312"/>
<path fill="none" stroke="#000000" stroke-width="1.5547" d="M224.177,71.646c10.761-0.127,18.927-5.522,21.827-18.989"/>
<g>
	<g>
		<defs>
			
				<rect id="SVGID_33_" x="259.023" y="99.43" transform="matrix(-0.9169 0.3991 -0.3991 -0.9169 562.3818 94.9013)" width="24.574" height="13.143"/>
		</defs>
		<clipPath id="SVGID_34_">
			<use xlink:href="#SVGID_33_"  overflow="visible"/>
		</clipPath>
		<path clip-path="url(#SVGID_34_)" d="M264.618,111.235c-0.279,0.122-1.05,0.458-2.001-0.289c-0.546-0.445-0.881-1.211-1.211-1.968
			c-0.365-0.836-0.677-1.557-0.577-2.286c0.122-0.977,0.674-1.45,1.26-1.706c0.777-0.337,1.567-0.056,2.156,0.507
			c0.422,0.415,0.905,1.365,1.215,2.075C266.015,108.854,266.091,110.595,264.618,111.235 M266.191,109.146l0.212,0.493
			c1.573,3.611,0.13,5.082-0.856,5.512c-0.273,0.119-1.196,0.493-1.889,0.167c0.75-0.327,0.683-0.826,0.565-1.091
			c-0.207-0.481-0.708-0.537-1.081-0.373c-0.264,0.114-0.717,0.476-0.458,1.071c0.456,1.043,1.643,1.276,3.082,0.65
			c2.174-0.946,3.307-3.934,1.858-7.257c-1.81-4.16-4.2-4.375-5.706-3.721c-0.92,0.401-1.628,1.038-2.047,2.053
			c-0.386,0.999-0.495,1.81,0.015,2.979c0.835,1.924,2.97,2.795,4.858,1.973C265.784,111.149,266.191,110.208,266.191,109.146z"/>
		<path clip-path="url(#SVGID_34_)" d="M274.788,111.239c-0.662,0.288-1.819,0.34-2.779-1.014c-0.589-0.849-1.208-2.27-1.6-3.175
			c-0.438-0.998-0.881-2.018-1.105-2.913c-0.474-1.975,0.729-2.663,1.151-2.848c0.553-0.239,1.783-0.446,2.775,0.947
			c0.538,0.789,1.051,1.969,1.476,2.943c0.504,1.159,0.957,2.201,1.218,3.274C276.303,110.034,275.55,110.907,274.788,111.239
			 M276.184,104.753c-0.541-1.236-1.151-2.443-2.25-3.327c-1.418-1.141-2.903-0.796-3.617-0.487
			c-1.011,0.442-2.062,1.377-2.131,3.125c-0.076,1.3,0.374,2.538,0.911,3.773c0.504,1.159,1.172,2.518,2.375,3.396
			c1.269,0.938,2.642,0.707,3.464,0.348c0.914-0.397,2.044-1.271,2.15-3.063C277.168,107.215,276.713,105.971,276.184,104.753z"/>
		<path clip-path="url(#SVGID_34_)" d="M279.251,100.637c-1.093,0.477-2.302,0.024-2.721-0.94c-0.434-0.997,0.082-2.163,1.166-2.634
			c1.112-0.485,2.314-0.026,2.727,0.925C280.864,98.997,280.344,100.163,279.251,100.637 M281.003,97.75
			c-0.568-1.307-2.147-1.818-3.538-1.214c-1.409,0.613-2.068,2.14-1.521,3.4c0.571,1.307,2.153,1.833,3.538,1.229
			C280.897,100.549,281.553,99.01,281.003,97.75z"/>
	</g>
	<path d="M290.189,100.246c0.155-0.067,0.322-0.139,0.201-0.414c-0.119-0.272-0.282-0.2-0.438-0.133l-4.986,2.171
		c-0.152,0.065-0.319,0.139-0.204,0.41c0.122,0.275,0.289,0.202,0.44,0.137L290.189,100.246"/>
	<g>
		<defs>
			
				<rect id="SVGID_35_" x="294.227" y="88.823" transform="matrix(-0.9169 0.3991 -0.3991 -0.9169 609.3492 63.454)" width="7.683" height="12.673"/>
		</defs>
		<clipPath id="SVGID_36_">
			<use xlink:href="#SVGID_35_"  overflow="visible"/>
		</clipPath>
		<path clip-path="url(#SVGID_36_)" d="M298.169,93.983c0.738,0.526,1.615,1.138,2.098,2.249c0.443,1.021,0.914,3.883-0.65,4.564
			c-0.92,0.4-1.904,0.066-2.417-1.113C296.775,98.707,296.141,95.534,298.169,93.983 M297.826,93.737
			c-1.898,1.371-2.663,4.09-1.846,5.97c0.644,1.478,2.202,2.124,3.787,1.433c1.98-0.861,2.317-3.896,1.388-6.029
			c-0.607-1.398-1.618-1.885-2.496-2.333c-0.911-0.422-2.405-1.15-2.703-1.839c-0.146-0.33,0.024-0.853,0.614-1.11
			c0.498-0.217,0.926-0.159,1.388-0.102c0.416,0.037,0.838,0.086,1.09-0.023c0.419-0.183,0.507-0.658,0.398-0.912
			c-0.143-0.331-0.438-0.26-1.093-0.123c-0.947,0.208-1.184,0.312-1.46,0.432c-1.309,0.57-1.634,1.501-1.23,2.43
			C296.025,92.367,296.888,93.014,297.826,93.737z"/>
	</g>
</g>
<g>
	<g>
		<g>
			<defs>
				
					<rect id="SVGID_37_" x="260.231" y="40.496" transform="matrix(-0.9486 -0.3166 0.3166 -0.9486 515.7246 177.6756)" width="24.128" height="12.902"/>
			</defs>
			<clipPath id="SVGID_38_">
				<use xlink:href="#SVGID_37_"  overflow="visible"/>
			</clipPath>
			<path clip-path="url(#SVGID_38_)" d="M263.975,46.372c-0.284-0.093-1.069-0.356-1.268-1.523
				c-0.114-0.684,0.146-1.464,0.404-2.231c0.281-0.851,0.526-1.583,1.079-2.047c0.73-0.637,1.445-0.619,2.042-0.419
				c0.788,0.264,1.179,0.989,1.24,1.786c0.032,0.58-0.234,1.591-0.474,2.313C266.565,45.553,265.47,46.87,263.975,46.372
				 M266.489,45.878l-0.165,0.5c-1.226,3.669-3.244,3.797-4.241,3.463c-0.285-0.096-1.202-0.427-1.494-1.12
				c0.766,0.256,1.045-0.155,1.134-0.424c0.164-0.488-0.166-0.856-0.55-0.983c-0.266-0.089-0.829-0.123-1.032,0.481
				c-0.354,1.059,0.359,2.011,1.818,2.497c2.21,0.737,5.005-0.698,6.131-4.074c1.411-4.229-0.202-5.956-1.725-6.466
				c-0.938-0.312-1.869-0.309-2.845,0.153c-0.938,0.476-1.552,0.997-1.948,2.184c-0.651,1.954,0.337,3.993,2.26,4.634
				C264.882,47.076,265.791,46.656,266.489,45.878z"/>
			<path clip-path="url(#SVGID_38_)" d="M271.393,53.052c-0.672-0.225-1.546-0.945-1.357-2.562c0.123-1.007,0.606-2.451,0.913-3.371
				c0.336-1.012,0.684-2.048,1.109-2.849c0.949-1.755,2.278-1.466,2.709-1.323c0.556,0.186,1.594,0.844,1.405,2.513
				c-0.129,0.926-0.531,2.127-0.86,3.115c-0.394,1.178-0.745,2.235-1.259,3.192C273.291,53.168,272.169,53.311,271.393,53.052
				 M276.676,49.238c0.418-1.255,0.764-2.541,0.541-3.906c-0.285-1.764-1.599-2.489-2.318-2.729
				c-1.034-0.344-2.414-0.352-3.611,0.878c-0.908,0.901-1.392,2.098-1.813,3.354c-0.391,1.175-0.798,2.607-0.5,4.038
				c0.317,1.517,1.461,2.249,2.302,2.53c0.925,0.31,2.328,0.416,3.576-0.826C275.777,51.681,276.263,50.474,276.676,49.238z"/>
			<path clip-path="url(#SVGID_38_)" d="M281.616,48.248c-1.112-0.37-1.696-1.496-1.369-2.474c0.339-1.014,1.481-1.525,2.582-1.158
				c1.129,0.378,1.702,1.502,1.381,2.467C283.869,48.108,282.723,48.618,281.616,48.248 M284.792,47.292
				c0.443-1.33-0.375-2.738-1.785-3.21c-1.435-0.479-2.915,0.203-3.343,1.484c-0.446,1.328,0.37,2.75,1.773,3.219
				C282.876,49.265,284.367,48.571,284.792,47.292z"/>
		</g>
		<path d="M289.858,55.146c0.156,0.052,0.325,0.108,0.416-0.169c0.095-0.277-0.074-0.334-0.23-0.387l-5.064-1.691
			c-0.159-0.051-0.325-0.108-0.419,0.17c-0.091,0.278,0.078,0.333,0.234,0.386L289.858,55.146"/>
		<g>
			<defs>
				
					<rect id="SVGID_39_" x="295.179" y="50.385" transform="matrix(-0.9486 -0.3165 0.3165 -0.9486 564.6198 204.9181)" width="7.543" height="12.445"/>
			</defs>
			<clipPath id="SVGID_40_">
				<use xlink:href="#SVGID_39_"  overflow="visible"/>
			</clipPath>
			<path clip-path="url(#SVGID_40_)" d="M299.796,55.816c0.195,0.865,0.429,1.889,0.052,3.018c-0.343,1.037-1.88,3.437-3.468,2.907
				c-0.938-0.312-1.432-1.203-1.034-2.403C295.675,58.35,297.298,55.616,299.796,55.816 M299.707,55.409
				c-2.285-0.246-4.632,1.237-5.268,3.146c-0.502,1.503,0.212,2.995,1.828,3.533c2.003,0.669,4.248-1.323,4.97-3.49
				c0.472-1.418,0.053-2.44-0.294-3.343c-0.386-0.905-0.999-2.417-0.767-3.117c0.114-0.337,0.581-0.606,1.185-0.407
				c0.503,0.169,0.78,0.492,1.069,0.837c0.285,0.301,0.559,0.614,0.815,0.7c0.431,0.144,0.805-0.146,0.892-0.404
				c0.114-0.338-0.149-0.476-0.717-0.807c-0.831-0.474-1.072-0.553-1.351-0.646c-1.331-0.445-2.178,0.022-2.496,0.968
				C299.289,53.229,299.497,54.269,299.707,55.409z"/>
		</g>
	</g>
	<path d="M301.34,68.605c-0.366-0.121-0.843-0.514-0.738-1.392c0.065-0.547,0.327-1.331,0.493-1.831
		c0.186-0.55,0.371-1.113,0.6-1.548c0.521-0.95,1.239-0.793,1.477-0.716c0.303,0.102,0.867,0.457,0.763,1.365
		c-0.068,0.504-0.283,1.153-0.464,1.691c-0.212,0.639-0.406,1.215-0.686,1.733C302.368,68.667,301.762,68.748,301.34,68.605
		 M304.208,66.533c0.228-0.684,0.412-1.379,0.297-2.12c-0.159-0.959-0.869-1.352-1.265-1.483c-0.556-0.186-1.306-0.192-1.958,0.477
		c-0.495,0.49-0.755,1.138-0.983,1.821c-0.212,0.64-0.437,1.416-0.27,2.193c0.167,0.825,0.794,1.221,1.25,1.373
		c0.503,0.167,1.267,0.226,1.939-0.45C303.719,67.861,303.985,67.204,304.208,66.533z"/>
</g>
<g>
	<defs>
		<rect id="SVGID_41_" x="144.937" y="1.953" width="112.174" height="18.235"/>
	</defs>
	<clipPath id="SVGID_42_">
		<use xlink:href="#SVGID_41_"  overflow="visible"/>
	</clipPath>
	<g clip-path="url(#SVGID_42_)">
		<path d="M159.642,16.281c0.099,0.178,0.099,0.218,0.099,0.238c0,0.159-0.119,0.159-0.436,0.159h-13.756
			c-0.317,0-0.436,0-0.436-0.159c0-0.02,0-0.06,0.099-0.238l6.7-13.438c0.139-0.258,0.178-0.357,0.515-0.357
			s0.376,0.099,0.515,0.357L159.642,16.281z M146.441,15.171h10.684l-5.332-10.704L146.441,15.171z"/>
	</g>
	<g clip-path="url(#SVGID_42_)">
		<path d="M170.15,13.229c0.932-1.169,1.586-2.676,1.942-3.925c0.099-0.357,0.099-0.416,0.297-0.416
			c0.218,0,0.238,0.158,0.238,0.198c0,0.02-0.416,2.319-2.279,4.658c-0.198,0.238-0.198,0.277-0.198,0.694
			c0,0.476,0,2.021,0.615,2.021c0.04,0,0.753,0,1.11-0.971c0.06-0.139,0.119-0.198,0.258-0.198c0.119,0,0.238,0.06,0.238,0.198
			c0,0.317-0.615,1.408-1.665,1.408c-0.892,0-1.546-0.615-1.804-1.665c-1.506,1.209-2.934,1.665-4.182,1.665
			c-2.022,0-3.211-1.507-3.211-3.35c0-2.795,2.617-5.629,5.332-5.629c1.467,0,3.31,0.971,3.31,4.083V13.229z M168.783,12.495
			c0-1.546,0-4.143-1.962-4.143c-0.693,0-1.764,0.376-2.695,1.823c-0.634,1.011-1.15,3.152-1.15,4.123
			c0,1.269,0.595,2.16,1.784,2.16c0.792,0,2.319-0.218,4.063-1.744C168.783,14.378,168.783,13.229,168.783,12.495z"/>
	</g>
	<g clip-path="url(#SVGID_42_)">
		<path d="M180.736,10.196c-0.297,0-0.674,0-0.674-0.396s0.377-0.396,0.654-0.396h11.873c0.277,0,0.654,0,0.654,0.396
			s-0.376,0.396-0.674,0.396H180.736z M180.717,14.041c-0.277,0-0.654,0-0.654-0.396s0.377-0.396,0.674-0.396h11.833
			c0.297,0,0.674,0,0.674,0.396s-0.376,0.396-0.654,0.396H180.717z"/>
	</g>
	<g clip-path="url(#SVGID_42_)">
		<path d="M209.326,13.229c0.932-1.169,1.586-2.676,1.942-3.925c0.099-0.357,0.099-0.416,0.297-0.416
			c0.218,0,0.238,0.158,0.238,0.198c0,0.02-0.416,2.319-2.279,4.658c-0.198,0.238-0.198,0.277-0.198,0.694
			c0,0.476,0,2.021,0.615,2.021c0.04,0,0.753,0,1.11-0.971c0.06-0.139,0.119-0.198,0.258-0.198c0.119,0,0.238,0.06,0.238,0.198
			c0,0.317-0.615,1.408-1.665,1.408c-0.892,0-1.546-0.615-1.804-1.665c-1.506,1.209-2.934,1.665-4.182,1.665
			c-2.022,0-3.211-1.507-3.211-3.35c0-2.795,2.617-5.629,5.332-5.629c1.467,0,3.31,0.971,3.31,4.083V13.229z M207.958,12.495
			c0-1.546,0-4.143-1.962-4.143c-0.693,0-1.764,0.376-2.695,1.823c-0.634,1.011-1.15,3.152-1.15,4.123
			c0,1.269,0.595,2.16,1.784,2.16c0.792,0,2.319-0.218,4.063-1.744C207.958,14.378,207.958,13.229,207.958,12.495z"/>
	</g>
	<g clip-path="url(#SVGID_42_)">
		<path d="M219.368,12.118c-0.337,0-0.694,0-0.694-0.396c0-0.396,0.357-0.396,0.694-0.396h10.723c0.337,0,0.694,0,0.694,0.396
			c0,0.396-0.357,0.396-0.694,0.396H219.368z"/>
	</g>
	<g clip-path="url(#SVGID_42_)">
		<path d="M246.302,13.229c0.932-1.169,1.586-2.676,1.942-3.925c0.099-0.357,0.099-0.416,0.297-0.416
			c0.218,0,0.238,0.158,0.238,0.198c0,0.02-0.416,2.319-2.279,4.658c-0.198,0.238-0.198,0.277-0.198,0.694
			c0,0.476,0,2.021,0.615,2.021c0.04,0,0.753,0,1.11-0.971c0.06-0.139,0.119-0.198,0.258-0.198c0.119,0,0.238,0.06,0.238,0.198
			c0,0.317-0.615,1.408-1.665,1.408c-0.892,0-1.546-0.615-1.804-1.665c-1.506,1.209-2.934,1.665-4.182,1.665
			c-2.022,0-3.211-1.507-3.211-3.35c0-2.795,2.617-5.629,5.332-5.629c1.467,0,3.31,0.971,3.31,4.083V13.229z M244.934,12.495
			c0-1.546,0-4.143-1.962-4.143c-0.693,0-1.764,0.376-2.695,1.823c-0.634,1.011-1.15,3.152-1.15,4.123
			c0,1.269,0.595,2.16,1.784,2.16c0.792,0,2.319-0.218,4.063-1.744C244.934,14.378,244.934,13.229,244.934,12.495z"/>
	</g>
	<g clip-path="url(#SVGID_42_)">
		<path d="M253.464,19.928c-3.218,0-3.218-3.703-3.218-4.702c0-0.999,0-4.785,3.218-4.785c1.11,0,1.97,0.555,2.4,1.193
			c0.638,0.971,0.818,2.067,0.818,3.592C256.682,16.225,256.682,19.928,253.464,19.928z M255.239,17.973
			c0.181-0.874,0.181-1.9,0.181-2.927c0-1.207-0.014-2.205-0.236-2.954c-0.25-0.805-0.971-1.262-1.72-1.262
			c-0.568,0-1.456,0.291-1.748,1.387c-0.208,0.763-0.208,1.817-0.208,2.83c0,1.026,0,2.164,0.194,2.982
			c0.277,1.138,1.124,1.512,1.761,1.512C254.019,19.54,254.962,19.235,255.239,17.973z"/>
	</g>
</g>
<g>
	<defs>
		<rect id="SVGID_43_" x="255.29" y="72.93" width="20.807" height="11.015"/>
	</defs>
	<clipPath id="SVGID_44_">
		<use xlink:href="#SVGID_43_"  overflow="visible"/>
	</clipPath>
	<g clip-path="url(#SVGID_44_)">
		<path d="M266.259,83.347c0.073,0.131,0.073,0.161,0.073,0.175c0,0.117-0.087,0.117-0.322,0.117h-10.155
			c-0.234,0-0.322,0-0.322-0.117c0-0.015,0-0.044,0.073-0.175l4.946-9.921c0.103-0.19,0.132-0.264,0.38-0.264
			s0.278,0.073,0.38,0.264L266.259,83.347z M256.513,82.527h7.888l-3.937-7.902L256.513,82.527z"/>
	</g>
	<g clip-path="url(#SVGID_44_)">
		<path d="M274.02,81.093c0.688-0.863,1.171-1.975,1.434-2.897c0.073-0.264,0.073-0.308,0.22-0.308c0.161,0,0.175,0.117,0.175,0.146
			c0,0.015-0.307,1.712-1.683,3.439c-0.146,0.175-0.146,0.205-0.146,0.512c0,0.351,0,1.492,0.454,1.492c0.029,0,0.556,0,0.819-0.717
			c0.044-0.103,0.088-0.146,0.19-0.146c0.088,0,0.176,0.044,0.176,0.146c0,0.234-0.454,1.039-1.229,1.039
			c-0.658,0-1.141-0.454-1.332-1.229c-1.112,0.893-2.166,1.229-3.087,1.229c-1.493,0-2.371-1.112-2.371-2.473
			c0-2.063,1.932-4.156,3.936-4.156c1.083,0,2.444,0.717,2.444,3.014V81.093z M273.01,80.552c0-1.142,0-3.059-1.449-3.059
			c-0.512,0-1.302,0.278-1.99,1.346c-0.468,0.747-0.849,2.327-0.849,3.044c0,0.937,0.439,1.595,1.317,1.595
			c0.585,0,1.712-0.161,3-1.288C273.01,81.942,273.01,81.093,273.01,80.552z"/>
	</g>
</g>
<g>
	<path fill="#EE0000" d="M229.364,264.555c0.714,0,1.982,0,3.727-1.764c0.694-0.714,1.724-2.339,1.724-3.607
		c0-0.952-0.495-1.467-0.713-1.685c-0.178-0.159-0.297-0.277-0.297-0.535c0-0.436,0.496-0.951,0.991-0.951
		c0.337,0,0.872,0.277,0.872,1.387c0,0.872-0.436,2.597-0.614,3.092c-0.218,0.595-0.634,1.467-1.447,2.378
		c-1.863,2.121-3.607,2.121-4.341,2.121l-0.753,2.953c-0.06,0.277-0.179,0.773-0.238,0.812c-0.04,0.08-0.139,0.08-0.179,0.08
		c-0.238,0-0.238-0.179-0.238-0.198c0-0.06,0.396-1.665,0.456-1.883c0.277-1.05,0.277-1.09,0.436-1.804
		c-1.903-0.119-3.449-0.932-3.449-2.814c0-0.337,0-0.852,0.951-3.35c0.258-0.694,0.456-1.189,0.456-1.705
		c0-0.634-0.337-0.634-0.496-0.634c-0.674,0-1.467,0.575-2.002,2.458c-0.099,0.317-0.119,0.357-0.317,0.357
		c-0.04,0-0.238,0-0.238-0.198c0-0.178,0.733-3.052,2.617-3.052c0.991,0,1.625,0.733,1.625,1.625c0,0.396-0.139,0.733-0.218,0.971
		c-1.07,2.775-1.07,3.291-1.07,3.687c0,1.308,0.753,2.042,2.259,2.22l3.291-13.102c0.079-0.357,0.099-0.396,0.297-0.396
		c0.099,0,0.238,0.02,0.238,0.218c0,0.099-0.04,0.218-0.06,0.297L229.364,264.555z"/>
</g>
<g>
	<defs>
		<rect id="SVGID_45_" x="214.24" y="79.427" width="8.841" height="14.92"/>
	</defs>
	<clipPath id="SVGID_46_">
		<use xlink:href="#SVGID_45_"  overflow="visible"/>
	</clipPath>
	<g clip-path="url(#SVGID_46_)">
		<path d="M217.164,94.15c-1.804,0-2.378-2.2-2.378-4.063c0-4.539,3.052-10.129,5.808-10.129c2.021,0,2.378,2.755,2.378,4.063
			C222.971,88.461,219.958,94.15,217.164,94.15z M216.728,87.371c-0.515,1.943-0.634,3.092-0.634,3.925
			c0,1.843,0.417,2.418,1.07,2.418c0.853,0,1.605-0.971,2.299-2.319c0.753-1.427,1.169-3.112,1.388-4.024H216.728z M221.029,86.736
			c0.476-1.962,0.634-2.973,0.634-3.944c0-1.13-0.119-2.398-1.09-2.398c-0.892,0-1.625,1.11-2.16,2.082
			c-0.793,1.407-1.189,2.993-1.526,4.261H221.029z"/>
	</g>
</g>
<g>
	<defs>
		<rect id="SVGID_47_" x="175.024" y="297.946" width="8.468" height="22.003"/>
	</defs>
	<clipPath id="SVGID_48_">
		<use xlink:href="#SVGID_47_"  overflow="visible"/>
	</clipPath>
	<g clip-path="url(#SVGID_48_)">
		<path d="M181.037,318.226h2.094v1.427c-1.032-0.03-2.428-0.091-3.733-0.091c-1.305,0-2.762,0.061-3.733,0.091v-1.427h2.094
			v-16.783c0-1.184-0.212-1.184-2.094-1.184v-1.426l5.372-0.243V318.226z"/>
	</g>
</g>
<g>
	<defs>
		<rect id="SVGID_49_" x="408.517" y="230.813" width="27.083" height="14.389"/>
	</defs>
	<clipPath id="SVGID_50_">
		<use xlink:href="#SVGID_49_"  overflow="visible"/>
	</clipPath>
	<g clip-path="url(#SVGID_50_)">
		<path d="M408.535,232.747v-1.426l5.22-0.243v3.278c0.971-1.912,2.701-3.278,5.341-3.278c1.153,0,3.946,0.091,4.553,2.914
			c0.789-1.396,2.367-2.914,5.129-2.914c3.126,0,4.674,1.244,4.674,4.37v7.861h2.094v1.426c-0.85-0.03-2.64-0.091-3.824-0.091
			c-1.153,0-2.974,0.061-3.824,0.091v-1.426h2.094v-8.195c0-2.337-0.667-2.944-1.699-2.944c-1.882,0-4.522,1.487-4.522,4.795v6.343
			h2.094v1.426c-0.85-0.03-2.64-0.091-3.824-0.091c-1.153,0-2.975,0.061-3.824,0.091v-1.426h2.094v-8.195
			c0-2.337-0.668-2.944-1.7-2.944c-1.882,0-4.522,1.487-4.522,4.795v6.343h2.094v1.426c-0.85-0.03-2.64-0.091-3.824-0.091
			c-1.153,0-2.975,0.061-3.824,0.091v-1.426h2.094v-9.378C410.629,232.747,410.417,232.747,408.535,232.747z"/>
	</g>
</g>
<g>
	<defs>
		<rect id="SVGID_51_" x="174.604" y="52.443" width="17.775" height="14.389"/>
	</defs>
	<clipPath id="SVGID_52_">
		<use xlink:href="#SVGID_51_"  overflow="visible"/>
	</clipPath>
	<g clip-path="url(#SVGID_52_)">
		<path d="M174.733,54.378v-1.426l5.22-0.243v3.278c0.789-1.548,2.397-3.278,5.311-3.278c3.035,0,4.674,1.184,4.674,4.37v7.861
			h2.094v1.426c-0.85-0.03-2.64-0.091-3.824-0.091c-1.153,0-2.974,0.061-3.824,0.091V64.94h2.094v-8.195
			c0-2.306-0.637-2.944-1.669-2.944c-1.912,0-4.522,1.487-4.522,4.795v6.343h2.094v1.426c-0.85-0.03-2.64-0.091-3.824-0.091
			c-1.153,0-2.975,0.061-3.824,0.091V64.94h2.094v-9.378C176.828,54.378,176.615,54.378,174.733,54.378z"/>
	</g>
</g>
<g>
	<path fill="#0000EE" d="M53.856,263.789c-0.099,0.376-0.119,0.476-0.119,0.951c0,0.277,0,0.912,0.595,0.912
		c0.793,0,1.169-1.169,1.506-2.458c0.06-0.277,0.079-0.357,0.277-0.357c0.06,0,0.238,0,0.238,0.198c0,0.04-0.238,1.189-0.595,1.942
		c-0.337,0.714-0.833,1.11-1.487,1.11c-0.932,0-1.804-0.694-1.804-1.824c0-0.317,0.04-0.456,0.099-0.674l2.498-9.911l0.06-0.396
		c0-0.159-0.02-0.337-0.971-0.337c-0.297,0-0.496,0-0.496-0.218c0-0.376,0.218-0.396,0.376-0.416
		c0.515-0.04,1.962-0.198,2.418-0.198c0.258,0,0.258,0.198,0.258,0.218L53.856,263.789z"/>
</g>
<g>
	<path fill="#0000EE" d="M65.189,259.388c-0.297,0-0.674,0-0.674-0.396s0.377-0.396,0.654-0.396h11.873c0.277,0,0.654,0,0.654,0.396
		s-0.376,0.396-0.674,0.396H65.189z M65.17,263.233c-0.277,0-0.654,0-0.654-0.396s0.377-0.396,0.674-0.396h11.833
		c0.297,0,0.674,0,0.674,0.396s-0.376,0.396-0.654,0.396H65.17z"/>
	<path fill="#0000EE" d="M85.82,261.113c-0.535-0.437-0.852-0.991-0.852-1.685c0-1.11,0.753-2.438,3.171-2.438
		c0.297,0,1.11,0,1.863,0.555c0.08-0.06,0.278-0.238,0.337-0.317c0.257-0.238,0.297-0.238,0.396-0.238
		c0.218,0,0.218,0.139,0.218,0.476v2.002c0,0.377,0,0.476-0.258,0.476c-0.04,0-0.218,0-0.238-0.178
		c-0.04-0.614-0.139-2.398-2.319-2.398c-1.705,0-2.22,0.813-2.22,1.506c0,1.15,1.328,1.408,2.438,1.625
		c0.833,0.159,1.605,0.317,2.26,0.952c0.238,0.238,0.833,0.833,0.833,1.883c0,1.427-0.912,2.755-3.191,2.755
		c-0.416,0-1.308-0.02-2.18-0.853c-0.357,0.376-0.357,0.416-0.396,0.456c-0.376,0.376-0.396,0.396-0.496,0.396
		c-0.218,0-0.218-0.139-0.218-0.476v-2.616c0-0.357,0-0.496,0.257-0.496c0.198,0,0.218,0.079,0.278,0.337
		c0.376,1.685,1.09,2.814,2.755,2.814c1.546,0,2.24-0.792,2.24-1.804c0-1.427-1.625-1.744-2.062-1.823
		C87.01,261.747,86.455,261.628,85.82,261.113z"/>
	<path fill="#0000EE" d="M95.631,264.383c0,0.773,0.079,0.873,1.388,0.873v0.614c-0.674-0.02-1.368-0.06-2.062-0.06
		c-0.476,0-1.546,0.04-2.18,0.06v-0.614c1.328,0,1.546,0,1.546-0.892v-5.332c0-0.971-0.178-1.09-1.467-1.09v-0.614l2.775-0.218
		V264.383z M94.66,254.71c-0.614,0-1.05-0.516-1.05-1.051c0-0.515,0.436-1.05,1.05-1.05c0.555,0,1.05,0.416,1.05,1.05
		S95.215,254.71,94.66,254.71z"/>
	<path fill="#0000EE" d="M98.247,257.941v-0.614l2.795-0.218v2.081c0.555-1.229,1.486-2.081,2.934-2.081
		c1.149,0,1.804,0.396,2.081,0.733c0.614,0.713,0.614,1.328,0.614,3.032v3.786c0.02,0.595,0.516,0.595,1.546,0.595v0.614
		c-0.674-0.02-1.705-0.06-2.22-0.06c-0.535,0-1.546,0.04-2.24,0.06v-0.614c1.328,0,1.546,0,1.546-0.892v-4.618
		c0-1.13-0.218-2.2-1.467-2.2c-1.269,0-2.676,1.11-2.676,3.171v3.647c0,0.892,0.218,0.892,1.546,0.892v0.614
		c-0.674-0.02-1.705-0.06-2.22-0.06c-0.535,0-1.546,0.04-2.24,0.06v-0.614c1.328,0,1.546,0,1.546-0.892v-5.312
		C99.792,258.08,99.634,257.941,98.247,257.941z"/>
</g>
<g>
	<path fill="#0000EE" d="M118.243,265.651c0.714,0,1.982,0,3.727-1.764c0.694-0.714,1.724-2.339,1.724-3.607
		c0-0.952-0.495-1.467-0.713-1.685c-0.178-0.159-0.297-0.277-0.297-0.535c0-0.436,0.496-0.951,0.991-0.951
		c0.337,0,0.872,0.277,0.872,1.387c0,0.872-0.436,2.597-0.614,3.092c-0.218,0.595-0.634,1.467-1.447,2.378
		c-1.863,2.121-3.607,2.121-4.341,2.121l-0.753,2.953c-0.06,0.277-0.179,0.773-0.238,0.812c-0.04,0.08-0.139,0.08-0.179,0.08
		c-0.238,0-0.238-0.179-0.238-0.198c0-0.06,0.396-1.665,0.456-1.883c0.277-1.05,0.277-1.09,0.436-1.804
		c-1.903-0.119-3.449-0.932-3.449-2.814c0-0.337,0-0.852,0.951-3.35c0.258-0.694,0.456-1.189,0.456-1.705
		c0-0.634-0.337-0.634-0.496-0.634c-0.674,0-1.467,0.575-2.002,2.458c-0.099,0.317-0.119,0.357-0.317,0.357
		c-0.04,0-0.238,0-0.238-0.198c0-0.178,0.733-3.052,2.617-3.052c0.991,0,1.625,0.733,1.625,1.625c0,0.396-0.139,0.733-0.218,0.971
		c-1.07,2.775-1.07,3.291-1.07,3.687c0,1.308,0.753,2.042,2.259,2.22l3.291-13.102c0.079-0.357,0.099-0.396,0.297-0.396
		c0.099,0,0.238,0.02,0.238,0.218c0,0.099-0.04,0.218-0.06,0.297L118.243,265.651z"/>
</g>
<g>
	<path fill="#0000EE" d="M130.393,261.113c-0.535-0.437-0.852-0.991-0.852-1.685c0-1.11,0.753-2.438,3.171-2.438
		c0.297,0,1.11,0,1.863,0.555c0.08-0.06,0.278-0.238,0.337-0.317c0.257-0.238,0.297-0.238,0.396-0.238
		c0.218,0,0.218,0.139,0.218,0.476v2.002c0,0.377,0,0.476-0.258,0.476c-0.04,0-0.218,0-0.238-0.178
		c-0.04-0.614-0.139-2.398-2.319-2.398c-1.705,0-2.22,0.813-2.22,1.506c0,1.15,1.328,1.408,2.438,1.625
		c0.833,0.159,1.605,0.317,2.26,0.952c0.238,0.238,0.833,0.833,0.833,1.883c0,1.427-0.912,2.755-3.191,2.755
		c-0.416,0-1.308-0.02-2.18-0.853c-0.357,0.376-0.357,0.416-0.396,0.456c-0.376,0.376-0.396,0.396-0.496,0.396
		c-0.218,0-0.218-0.139-0.218-0.476v-2.616c0-0.357,0-0.496,0.257-0.496c0.198,0,0.218,0.079,0.278,0.337
		c0.376,1.685,1.09,2.814,2.755,2.814c1.546,0,2.24-0.792,2.24-1.804c0-1.427-1.625-1.744-2.062-1.823
		C131.582,261.747,131.027,261.628,130.393,261.113z"/>
	<path fill="#0000EE" d="M140.203,264.383c0,0.773,0.079,0.873,1.388,0.873v0.614c-0.674-0.02-1.368-0.06-2.062-0.06
		c-0.476,0-1.546,0.04-2.18,0.06v-0.614c1.328,0,1.546,0,1.546-0.892v-5.332c0-0.971-0.178-1.09-1.467-1.09v-0.614l2.775-0.218
		V264.383z M139.232,254.71c-0.614,0-1.05-0.516-1.05-1.051c0-0.515,0.436-1.05,1.05-1.05c0.555,0,1.05,0.416,1.05,1.05
		S139.787,254.71,139.232,254.71z"/>
	<path fill="#0000EE" d="M142.818,257.941v-0.614l2.795-0.218v2.081c0.555-1.229,1.486-2.081,2.934-2.081
		c1.149,0,1.804,0.396,2.081,0.733c0.614,0.713,0.614,1.328,0.614,3.032v3.786c0.02,0.595,0.516,0.595,1.546,0.595v0.614
		c-0.674-0.02-1.705-0.06-2.22-0.06c-0.535,0-1.546,0.04-2.24,0.06v-0.614c1.328,0,1.546,0,1.546-0.892v-4.618
		c0-1.13-0.218-2.2-1.467-2.2c-1.269,0-2.676,1.11-2.676,3.171v3.647c0,0.892,0.218,0.892,1.546,0.892v0.614
		c-0.674-0.02-1.705-0.06-2.22-0.06c-0.535,0-1.546,0.04-2.24,0.06v-0.614c1.328,0,1.546,0,1.546-0.892v-5.312
		C144.364,258.08,144.206,257.941,142.818,257.941z"/>
</g>
<g>
	<path fill="#0000EE" d="M159.73,266.088c-1.804,0-2.378-2.2-2.378-4.063c0-4.539,3.052-10.129,5.808-10.129
		c2.021,0,2.378,2.755,2.378,4.063C165.538,260.399,162.525,266.088,159.73,266.088z M159.294,259.309
		c-0.515,1.943-0.634,3.092-0.634,3.925c0,1.843,0.417,2.418,1.07,2.418c0.853,0,1.605-0.971,2.299-2.319
		c0.753-1.427,1.169-3.112,1.388-4.024H159.294z M163.595,258.674c0.476-1.962,0.634-2.973,0.634-3.944
		c0-1.13-0.119-2.398-1.09-2.398c-0.892,0-1.625,1.11-2.16,2.082c-0.793,1.407-1.189,2.993-1.526,4.261H163.595z"/>
</g>
<g>
	<path fill="#0D7016" d="M161.697,335.196c0.257-1.031,0.317-1.249,0.317-1.665c0-0.753-0.297-0.912-0.614-0.912
		c-0.714,0-1.11,0.952-1.447,2.359c-0.119,0.436-0.139,0.455-0.337,0.455c-0.04,0-0.238,0-0.238-0.198
		c0-0.059,0.258-1.229,0.615-1.922c0.178-0.357,0.555-1.13,1.467-1.13c0.892,0,1.724,0.595,1.823,1.725
		c0.337-0.456,1.308-1.725,3.092-1.725c0.496,0,1.13,0.099,1.625,0.515c0.555,0.477,0.615,1.15,0.635,1.408
		c0.733-1.051,1.744-1.923,3.23-1.923c1.487,0,2.28,0.832,2.28,2.121c0,1.129-0.833,3.329-1.209,4.36
		c-0.178,0.436-0.356,0.912-0.356,1.407c0,0.456,0.139,0.654,0.476,0.654c1.09,0,1.725-1.407,2.021-2.458
		c0.099-0.298,0.099-0.356,0.297-0.356c0.06,0,0.238,0,0.238,0.198c0,0.158-0.733,3.052-2.596,3.052
		c-0.932,0-1.625-0.693-1.625-1.625c0-0.396,0.079-0.614,0.258-1.09c0.396-1.051,1.229-3.311,1.229-4.44
		c0-0.714-0.218-1.388-1.071-1.388c-2.16,0-3.211,2.379-3.27,2.637c-0.179,0.772-0.912,3.667-1.189,4.776
		c-0.159,0.635-0.277,1.13-0.892,1.13c-0.297,0-0.575-0.178-0.575-0.535c0-0.099,0.178-0.772,0.258-1.169l0.396-1.507l0.555-2.299
		c0.159-0.595,0.297-1.149,0.297-1.646c0-0.654-0.178-1.388-1.07-1.388c-1.883,0-2.934,1.804-3.231,2.419
		c-0.02,0.079-0.178,0.653-0.257,0.99c-0.099,0.456-0.218,0.893-0.337,1.328l-0.436,1.784c-0.119,0.495-0.356,1.427-0.376,1.467
		c-0.139,0.396-0.496,0.555-0.733,0.555c-0.297,0-0.575-0.178-0.575-0.535c0-0.099,0.119-0.555,0.178-0.853L161.697,335.196z"/>
</g>
<g>
	<path fill="#0D7016" d="M183.49,334.462c-0.297,0-0.674,0-0.674-0.396s0.377-0.396,0.654-0.396h11.873c0.277,0,0.654,0,0.654,0.396
		s-0.376,0.396-0.674,0.396H183.49z M183.47,338.308c-0.277,0-0.654,0-0.654-0.396s0.377-0.396,0.674-0.396h11.833
		c0.297,0,0.674,0,0.674,0.396s-0.376,0.396-0.654,0.396H183.47z"/>
	<path fill="#0D7016" d="M207.728,340.667c0.733,0,2.022-0.238,2.597-2.081c0.04-0.119,0.079-0.198,0.258-0.198
		c0.059,0,0.257,0,0.257,0.198s-0.634,2.576-3.29,2.576c-2.299,0-4.262-1.962-4.262-4.499c0-2.458,1.824-4.599,4.301-4.599
		c1.526,0,3.033,0.773,3.033,2.121c0,0.595-0.396,0.932-0.912,0.932c-0.555,0-0.912-0.396-0.912-0.912
		c0-0.258,0.119-0.853,0.932-0.912c-0.694-0.713-1.942-0.733-2.121-0.733c-1.051,0-2.676,0.833-2.676,4.063
		C204.933,339.814,206.678,340.667,207.728,340.667z"/>
	<path fill="#0D7016" d="M216.349,341.162c-2.319,0-4.38-1.902-4.38-4.46c0-2.478,1.922-4.638,4.4-4.638
		c2.398,0,4.381,2.101,4.381,4.638C220.75,339.219,218.748,341.162,216.349,341.162z M218.668,339.2
		c0.436-0.872,0.436-1.942,0.436-2.656c0-0.753,0-1.902-0.515-2.755s-1.368-1.288-2.24-1.288c-0.793,0-1.725,0.416-2.26,1.327
		c-0.476,0.872-0.476,1.943-0.476,2.716c0,0.714,0,1.923,0.496,2.795c0.535,0.912,1.407,1.328,2.259,1.328
		C217.36,340.667,218.232,340.091,218.668,339.2z"/>
	<path fill="#0D7016" d="M222.829,336.187c-0.535-0.437-0.852-0.991-0.852-1.685c0-1.11,0.753-2.438,3.171-2.438
		c0.297,0,1.11,0,1.863,0.555c0.08-0.06,0.278-0.237,0.337-0.316c0.258-0.238,0.297-0.238,0.396-0.238
		c0.218,0,0.218,0.139,0.218,0.476v2.002c0,0.377,0,0.476-0.258,0.476c-0.04,0-0.218,0-0.238-0.178
		c-0.04-0.615-0.139-2.398-2.319-2.398c-1.705,0-2.22,0.812-2.22,1.506c0,1.149,1.328,1.407,2.438,1.626
		c0.833,0.158,1.605,0.316,2.26,0.951c0.238,0.237,0.833,0.832,0.833,1.883c0,1.427-0.912,2.755-3.191,2.755
		c-0.416,0-1.308-0.02-2.18-0.853c-0.357,0.377-0.357,0.417-0.396,0.456c-0.376,0.377-0.396,0.396-0.496,0.396
		c-0.218,0-0.218-0.139-0.218-0.476v-2.616c0-0.356,0-0.495,0.257-0.495c0.198,0,0.218,0.079,0.278,0.337
		c0.376,1.685,1.09,2.814,2.755,2.814c1.546,0,2.24-0.793,2.24-1.804c0-1.428-1.625-1.744-2.061-1.824
		C224.019,336.821,223.463,336.702,222.829,336.187z"/>
</g>
<g>
	<path fill="#0D7016" d="M238.748,340.726c0.714,0,1.982,0,3.727-1.765c0.694-0.713,1.724-2.339,1.724-3.607
		c0-0.951-0.495-1.467-0.713-1.685c-0.178-0.158-0.297-0.277-0.297-0.535c0-0.437,0.496-0.951,0.991-0.951
		c0.337,0,0.872,0.277,0.872,1.388c0,0.872-0.436,2.596-0.614,3.092c-0.218,0.595-0.634,1.467-1.447,2.379
		c-1.863,2.12-3.607,2.12-4.341,2.12l-0.753,2.954c-0.06,0.277-0.179,0.772-0.238,0.812c-0.04,0.079-0.139,0.079-0.179,0.079
		c-0.238,0-0.238-0.179-0.238-0.198c0-0.06,0.396-1.665,0.456-1.883c0.277-1.051,0.277-1.091,0.436-1.804
		c-1.903-0.119-3.449-0.932-3.449-2.814c0-0.338,0-0.853,0.951-3.351c0.258-0.693,0.456-1.188,0.456-1.704
		c0-0.635-0.337-0.635-0.496-0.635c-0.674,0-1.467,0.575-2.002,2.458c-0.099,0.317-0.119,0.356-0.317,0.356
		c-0.04,0-0.238,0-0.238-0.198c0-0.178,0.733-3.052,2.617-3.052c0.991,0,1.625,0.733,1.625,1.625c0,0.396-0.139,0.733-0.218,0.972
		c-1.07,2.774-1.07,3.29-1.07,3.687c0,1.308,0.753,2.041,2.259,2.22l3.291-13.102c0.079-0.356,0.099-0.396,0.297-0.396
		c0.099,0,0.238,0.02,0.238,0.218c0,0.1-0.04,0.218-0.06,0.298L238.748,340.726z"/>
</g>
<g>
	<path fill="#0D7016" d="M250.896,336.187c-0.535-0.437-0.852-0.991-0.852-1.685c0-1.11,0.753-2.438,3.171-2.438
		c0.297,0,1.11,0,1.863,0.555c0.08-0.06,0.278-0.237,0.337-0.316c0.257-0.238,0.297-0.238,0.396-0.238
		c0.218,0,0.218,0.139,0.218,0.476v2.002c0,0.377,0,0.476-0.258,0.476c-0.04,0-0.218,0-0.238-0.178
		c-0.04-0.615-0.139-2.398-2.319-2.398c-1.705,0-2.22,0.812-2.22,1.506c0,1.149,1.328,1.407,2.438,1.626
		c0.833,0.158,1.605,0.316,2.26,0.951c0.238,0.237,0.833,0.832,0.833,1.883c0,1.427-0.912,2.755-3.191,2.755
		c-0.416,0-1.308-0.02-2.18-0.853c-0.357,0.377-0.357,0.417-0.396,0.456c-0.376,0.377-0.396,0.396-0.496,0.396
		c-0.218,0-0.218-0.139-0.218-0.476v-2.616c0-0.356,0-0.495,0.257-0.495c0.198,0,0.218,0.079,0.278,0.337
		c0.376,1.685,1.09,2.814,2.755,2.814c1.546,0,2.24-0.793,2.24-1.804c0-1.428-1.625-1.744-2.062-1.824
		C252.085,336.821,251.53,336.702,250.896,336.187z"/>
	<path fill="#0D7016" d="M260.707,339.458c0,0.772,0.079,0.872,1.388,0.872v0.614c-0.674-0.02-1.368-0.06-2.062-0.06
		c-0.476,0-1.546,0.04-2.18,0.06v-0.614c1.328,0,1.546,0,1.546-0.893v-5.331c0-0.972-0.178-1.091-1.467-1.091v-0.614l2.775-0.218
		V339.458z M259.735,329.785c-0.614,0-1.05-0.516-1.05-1.051c0-0.516,0.436-1.051,1.05-1.051c0.555,0,1.05,0.417,1.05,1.051
		C260.786,329.369,260.291,329.785,259.735,329.785z"/>
	<path fill="#0D7016" d="M263.322,333.015v-0.614l2.795-0.218v2.081c0.555-1.229,1.486-2.081,2.934-2.081
		c1.149,0,1.804,0.396,2.081,0.733c0.614,0.713,0.614,1.328,0.614,3.032v3.786c0.02,0.595,0.516,0.595,1.546,0.595v0.614
		c-0.674-0.02-1.705-0.06-2.22-0.06c-0.535,0-1.546,0.04-2.24,0.06v-0.614c1.328,0,1.546,0,1.546-0.893v-4.618
		c0-1.13-0.218-2.2-1.467-2.2c-1.269,0-2.676,1.11-2.676,3.172v3.646c0,0.893,0.218,0.893,1.546,0.893v0.614
		c-0.674-0.02-1.705-0.06-2.22-0.06c-0.535,0-1.546,0.04-2.24,0.06v-0.614c1.328,0,1.546,0,1.546-0.893v-5.312
		C264.868,333.154,264.709,333.015,263.322,333.015z"/>
</g>
<g>
	<path fill="#0D7016" d="M280.236,341.162c-1.804,0-2.378-2.2-2.378-4.063c0-4.539,3.052-10.128,5.808-10.128
		c2.021,0,2.378,2.755,2.378,4.063C286.044,335.473,283.031,341.162,280.236,341.162z M279.8,334.383
		c-0.515,1.942-0.634,3.092-0.634,3.925c0,1.843,0.417,2.418,1.07,2.418c0.853,0,1.605-0.972,2.299-2.319
		c0.753-1.427,1.169-3.112,1.388-4.023H279.8z M284.102,333.749c0.476-1.962,0.634-2.973,0.634-3.944c0-1.13-0.119-2.398-1.09-2.398
		c-0.892,0-1.625,1.11-2.16,2.081c-0.793,1.407-1.189,2.993-1.526,4.262H284.102z"/>
</g>
<g>
	<defs>
		<rect id="SVGID_53_" x="93.525" y="207.526" width="15.465" height="11.95"/>
	</defs>
	<clipPath id="SVGID_54_">
		<use xlink:href="#SVGID_53_"  overflow="visible"/>
	</clipPath>
	<g clip-path="url(#SVGID_54_)">
		<path d="M105.169,214.703c1.185-1.487,2.017-3.403,2.47-4.991c0.126-0.454,0.126-0.529,0.378-0.529
			c0.277,0,0.302,0.202,0.302,0.252c0,0.025-0.529,2.949-2.899,5.923c-0.252,0.303-0.252,0.353-0.252,0.882
			c0,0.605,0,2.571,0.781,2.571c0.051,0,0.958,0,1.412-1.235c0.075-0.177,0.151-0.252,0.328-0.252c0.151,0,0.302,0.076,0.302,0.252
			c0,0.403-0.781,1.79-2.117,1.79c-1.135,0-1.966-0.782-2.294-2.118c-1.916,1.538-3.731,2.118-5.319,2.118
			c-2.571,0-4.083-1.916-4.083-4.26c0-3.554,3.327-7.159,6.781-7.159c1.865,0,4.209,1.235,4.209,5.193V214.703z M103.43,213.77
			c0-1.966,0-5.269-2.496-5.269c-0.882,0-2.244,0.479-3.428,2.319c-0.807,1.286-1.462,4.008-1.462,5.243
			c0,1.613,0.756,2.748,2.269,2.748c1.008,0,2.949-0.277,5.167-2.218C103.43,216.165,103.43,214.703,103.43,213.77z"/>
	</g>
</g>
<g>
	<defs>
		<rect id="SVGID_55_" x="38.58" y="81.368" width="22.08" height="14.509"/>
	</defs>
	<clipPath id="SVGID_56_">
		<use xlink:href="#SVGID_55_"  overflow="visible"/>
	</clipPath>
	<g clip-path="url(#SVGID_56_)">
		<path d="M48.541,87.807c1.063-1.335,1.81-3.055,2.218-4.48c0.113-0.407,0.113-0.475,0.339-0.475c0.249,0,0.271,0.181,0.271,0.226
			c0,0.023-0.475,2.648-2.603,5.318c-0.226,0.271-0.226,0.317-0.226,0.792c0,0.543,0,2.308,0.702,2.308c0.045,0,0.86,0,1.267-1.109
			c0.068-0.158,0.136-0.226,0.294-0.226c0.136,0,0.271,0.068,0.271,0.226c0,0.362-0.701,1.607-1.9,1.607
			c-1.019,0-1.765-0.702-2.06-1.901c-1.72,1.38-3.349,1.901-4.774,1.901c-2.308,0-3.666-1.72-3.666-3.824
			c0-3.191,2.987-6.427,6.087-6.427c1.674,0,3.779,1.109,3.779,4.662V87.807z M46.979,86.969c0-1.765,0-4.729-2.24-4.729
			c-0.792,0-2.014,0.43-3.078,2.082c-0.724,1.154-1.312,3.598-1.312,4.707c0,1.448,0.679,2.466,2.036,2.466
			c0.905,0,2.648-0.249,4.639-1.991C46.979,89.119,46.979,87.807,46.979,86.969z"/>
	</g>
	<g clip-path="url(#SVGID_56_)">
		<path d="M56.72,95.456c-3.674,0-3.674-4.229-3.674-5.37c0-1.14,0-5.464,3.674-5.464c1.267,0,2.249,0.634,2.74,1.362
			c0.729,1.109,0.935,2.36,0.935,4.102C60.395,91.227,60.395,95.456,56.72,95.456z M58.748,93.222
			c0.206-0.998,0.206-2.17,0.206-3.342c0-1.378-0.016-2.519-0.269-3.374c-0.285-0.919-1.109-1.441-1.964-1.441
			c-0.649,0-1.663,0.333-1.996,1.583c-0.237,0.872-0.237,2.075-0.237,3.231c0,1.172,0,2.471,0.222,3.405
			c0.316,1.299,1.283,1.727,2.011,1.727C57.354,95.012,58.431,94.664,58.748,93.222z"/>
	</g>
</g>
<g>
	<defs>
		<rect id="SVGID_57_" x="191.354" y="25.839" width="19.34" height="17.683"/>
	</defs>
	<clipPath id="SVGID_58_">
		<use xlink:href="#SVGID_57_"  overflow="visible"/>
	</clipPath>
	<g clip-path="url(#SVGID_58_)">
		<path d="M201.961,35.989c0,2.002-1.229,4.242-4.5,4.242c-0.812,0-2.656-0.119-3.964-1.09l-0.912,0.912
			c-0.159,0.139-0.198,0.179-0.376,0.179c-0.357,0-0.357-0.179-0.357-0.555v-3.607c0-0.456,0-0.575,0.476-0.575
			c0.436,0,0.436,0.099,0.456,0.456c0.159,2.954,3.171,3.35,4.678,3.35c2.062,0,2.577-1.368,2.577-2.319
			c0-0.912-0.496-1.427-0.793-1.724c-0.436-0.417-0.773-0.476-2.517-0.853c-2.161-0.476-2.834-0.614-3.806-1.586
			c-0.416-0.436-1.07-1.348-1.07-2.636c0-2.082,1.427-3.984,4.44-3.984c0.952,0,2.24,0.179,3.39,1.09l0.892-0.872
			c0.218-0.198,0.238-0.218,0.396-0.218c0.357,0,0.357,0.179,0.357,0.555v3.627c0,0.456,0,0.555-0.476,0.555
			c-0.417,0-0.417-0.04-0.496-0.515c-0.456-2.696-2.458-3.37-4.043-3.37c-1.982,0-2.537,1.229-2.537,2.081
			c0,1.209,1.11,1.883,1.903,2.062l2.874,0.614C200.356,32.184,201.961,33.79,201.961,35.989z"/>
	</g>
	<g clip-path="url(#SVGID_58_)">
		<path d="M209.669,42.639c-0.555,0.319-1.262,0.43-1.942,0.43c-2.622,0-3.828-1.54-3.828-3.162c0-1.29,0.818-3.204,3.912-3.204
			c0.804,0,2.663,0.042,2.663,1.373c0,0.583-0.402,0.971-0.971,0.971c-0.541,0-0.957-0.389-0.957-0.957
			c0-0.305,0.125-0.513,0.153-0.555c0.014-0.014,0.027-0.027,0.027-0.055c0-0.056-0.791-0.069-0.874-0.069
			c-1.859,0-2.025,1.401-2.025,2.441c0,0.569,0,2.511,2.233,2.511c1.068,0,1.512-0.527,1.72-0.985
			c0.097-0.208,0.125-0.222,0.444-0.222c0.208,0,0.444,0,0.444,0.25C210.667,41.488,210.459,42.167,209.669,42.639z"/>
	</g>
</g>
<path fill="none" stroke="#000000" stroke-width="0.9759" d="M201.024,48.73c14.91,0,29.019,27.012,38.396,73.489
	c9.374,46.482,11.925,108.245,8.8,166.698"/>
<path fill="none" stroke="#000000" stroke-width="0.9759" d="M322.921,90.28c-9.924-11.127-39.476-3.675-80.4,20.267
	c-40.925,23.947-88.405,61.268-129.946,102.509"/>
<g>
	<path d="M261.889,137.153c0,2.002-1.229,4.242-4.5,4.242c-0.812,0-2.656-0.119-3.964-1.09l-0.912,0.912
		c-0.159,0.139-0.198,0.179-0.376,0.179c-0.357,0-0.357-0.179-0.357-0.555v-3.607c0-0.456,0-0.575,0.476-0.575
		c0.436,0,0.436,0.099,0.456,0.456c0.159,2.954,3.171,3.35,4.678,3.35c2.062,0,2.577-1.368,2.577-2.319
		c0-0.912-0.496-1.427-0.793-1.725c-0.436-0.416-0.773-0.476-2.517-0.852c-2.161-0.476-2.834-0.614-3.806-1.586
		c-0.416-0.436-1.07-1.348-1.07-2.636c0-2.081,1.427-3.984,4.44-3.984c0.951,0,2.24,0.178,3.39,1.09l0.892-0.872
		c0.218-0.198,0.238-0.218,0.396-0.218c0.357,0,0.357,0.178,0.357,0.555v3.627c0,0.456,0,0.555-0.476,0.555
		c-0.417,0-0.417-0.04-0.496-0.515c-0.456-2.696-2.458-3.37-4.043-3.37c-1.982,0-2.537,1.229-2.537,2.081
		c0,1.209,1.11,1.883,1.903,2.062l2.874,0.614C260.283,133.347,261.889,134.953,261.889,137.153z"/>
</g>
<g>
	<defs>
		<rect id="SVGID_59_" x="331.229" y="36.902" width="58.834" height="21.181"/>
	</defs>
	<clipPath id="SVGID_60_">
		<use xlink:href="#SVGID_59_"  overflow="visible"/>
	</clipPath>
	<path clip-path="url(#SVGID_60_)" d="M337.448,38.584c-0.249-0.335-0.292-0.376-0.808-0.376h-4.786v0.877h0.814
		c0.419,0,0.981,0.02,1.397,0.064c0.65,0.082,0.674,0.104,0.674,0.647v14.706c0,0.75,0,2.086-2.885,2.086v0.856
		c0.978-0.019,2.356-0.082,3.28-0.082c0.941,0,2.314,0.063,3.298,0.082v-0.856c-2.903,0-2.903-1.336-2.903-2.086V39.837
		c0.146,0.146,0.167,0.168,0.292,0.355l11.491,16.9c0.249,0.334,0.273,0.353,0.48,0.353c0.395,0,0.395-0.187,0.395-0.729V41.174
		c0-0.773,0-2.089,2.909-2.089v-0.877c-1.008,0.041-2.387,0.083-3.304,0.083c-0.941,0-2.32-0.042-3.298-0.083v0.877
		c2.903,0,2.903,1.316,2.903,2.089v12.031L337.448,38.584"/>
	<path clip-path="url(#SVGID_60_)" d="M353.597,47.815c0,5.829,4.555,10.258,9.796,10.258c4.597,0,7.354-3.907,7.354-7.185
		c0-0.273,0-0.483-0.355-0.483c-0.313,0-0.313,0.167-0.355,0.46c-0.207,4.031-3.237,6.33-6.307,6.33
		c-1.716,0-7.227-0.96-7.227-9.359c0-8.417,5.493-9.379,7.206-9.379c3.07,0,5.575,2.569,6.14,6.685
		c0.061,0.396,0.061,0.48,0.462,0.48c0.437,0,0.437-0.083,0.437-0.668v-6.684c0-0.483,0-0.67-0.312-0.67
		c-0.106,0-0.228,0-0.44,0.334l-1.421,2.069c-1.044-1.004-2.462-2.404-5.18-2.404C358.127,37.602,353.597,42.073,353.597,47.815"/>
	<path clip-path="url(#SVGID_60_)" d="M378.643,47.815v-7.602c0-0.94,0.063-1.128,1.378-1.128h2.508
		c4.488,0,4.488,2.988,4.488,4.367c0,1.315,0,4.364-4.488,4.364H378.643 M378.728,48.547h4.764c3.38,0,6.432-2.277,6.432-5.096
		c0-2.759-2.8-5.244-6.665-5.244h-9.942v0.877h0.668c2.174,0,2.235,0.313,2.235,1.316v14.851c0,1.023-0.061,1.336-2.235,1.336
		h-0.668v0.856c0.984-0.082,3.073-0.082,4.136-0.082c1.087,0,3.194,0,4.178,0.082v-0.856h-0.668c-2.171,0-2.235-0.313-2.235-1.336
		V48.547z"/>
</g>
<path d="M339.173,68.326c0.191-0.314,0.191-0.334,0.191-0.545c0-0.439-0.167-0.439-0.735-0.439h-12.647l-0.316,6.346h0.713
	c0.188-3.184,1.048-5.466,5.676-5.466h4.439l-10.996,17.361c-0.209,0.314-0.209,0.336-0.209,0.566c0,0.481,0.146,0.481,0.753,0.481
	h13.006l0.483-7.539h-0.692c-0.231,3.917-0.774,6.577-5.988,6.577h-4.652L339.173,68.326"/>
<path fill="none" stroke="#EE0000" stroke-width="1.3451" d="M214.228,257.194c8.276-0.125,14.558-5.375,16.79-18.478"/>
<g>
	<defs>
		
			<rect id="SVGID_61_" x="175.768" y="133.609" transform="matrix(-0.8774 0.4797 -0.4797 -0.8774 406.3257 178.5244)" width="9.173" height="15.133"/>
	</defs>
	<clipPath id="SVGID_62_">
		<use xlink:href="#SVGID_61_"  overflow="visible"/>
	</clipPath>
	<path clip-path="url(#SVGID_62_)" d="M180.348,139.764c0.933,0.547,2.042,1.182,2.736,2.451c0.636,1.167,1.503,4.521-0.285,5.498
		c-1.052,0.575-2.257,0.283-2.994-1.065C179.197,145.532,178.102,141.826,180.348,139.764 M179.911,139.508
		c-2.11,1.833-2.729,5.15-1.554,7.298c0.922,1.688,2.844,2.29,4.656,1.298c2.261-1.236,2.339-4.881,1.006-7.318
		c-0.874-1.599-2.128-2.069-3.22-2.507c-1.129-0.405-2.982-1.111-3.412-1.898c-0.207-0.376-0.062-1.017,0.613-1.386
		c0.569-0.311,1.084-0.288,1.637-0.27c0.5,0,1.007,0.014,1.294-0.143c0.479-0.263,0.534-0.837,0.377-1.127
		c-0.208-0.378-0.547-0.262-1.315-0.029c-1.104,0.35-1.374,0.498-1.689,0.669c-1.497,0.818-1.784,1.961-1.204,3.022
		C177.623,138.072,178.72,138.75,179.911,139.508z"/>
</g>
<g>
	<defs>
		<rect id="SVGID_63_" x="112.983" y="32.907" width="18.578" height="21.231"/>
	</defs>
	<clipPath id="SVGID_64_">
		<use xlink:href="#SVGID_63_"  overflow="visible"/>
	</clipPath>
	<g clip-path="url(#SVGID_64_)">
		<path d="M116.896,35.452c0-1.428,0.857-2.452,2.714-2.452c0.381,0,0.714,0,1.952,0.262c0.857,0.19,1.238,0.262,1.238,0.786
			c0,0.381-0.357,0.952-0.952,0.952c-0.357,0-0.833-0.31-1.309-0.595c-0.5-0.333-0.976-0.643-1.69-0.643
			c-0.833,0-1.31,0.571-1.31,1.095c0,1.047,1.404,2.833,2.262,3.904c0.809,1.071,1.761,2.262,1.761,4.428
			c0,3.285-1.976,7.022-4.761,7.022c-2.238,0-3.761-1.714-3.761-3.999c0-2.88,2.309-5.975,5.285-6.689
			C117.586,38.07,116.896,36.737,116.896,35.452z M114.515,46.878c0,1.809,0.976,2.809,2.285,2.809c2.214,0,3.118-3.975,3.118-5.546
			c0-1.714-0.714-3-1.309-4.094C115.396,40.903,114.515,45.378,114.515,46.878z"/>
	</g>
	<g clip-path="url(#SVGID_64_)">
		<path d="M127.348,53.827c-3.865,0-3.865-4.449-3.865-5.648s0-5.749,3.865-5.749c1.333,0,2.366,0.667,2.883,1.433
			c0.767,1.166,0.983,2.482,0.983,4.315C131.214,49.378,131.214,53.827,127.348,53.827z M129.48,51.478
			c0.217-1.05,0.217-2.283,0.217-3.516c0-1.449-0.017-2.649-0.283-3.549c-0.3-0.966-1.167-1.517-2.066-1.517
			c-0.683,0-1.75,0.35-2.099,1.667c-0.25,0.917-0.25,2.183-0.25,3.399c0,1.233,0,2.6,0.233,3.583
			c0.333,1.367,1.35,1.816,2.116,1.816C128.015,53.361,129.147,52.994,129.48,51.478z"/>
	</g>
</g>
<g>
	<g>
		<line fill="none" stroke="#000000" stroke-width="1.1661" x1="5.336" y1="238.713" x2="394.897" y2="238.713"/>
		<g>
			<path d="M6.383,238.713l1.277-2.101l-0.072-0.048l-3.425,1.361c-1.193,0.262-2.387,0.525-3.58,0.788
				c1.193,0.263,2.387,0.525,3.58,0.788l3.425,1.361l0.072-0.036L6.383,238.713z"/>
		</g>
		<g>
			<path d="M393.851,238.713l-1.277-2.101l0.072-0.048l3.425,1.361c1.193,0.262,2.387,0.525,3.58,0.788
				c-1.193,0.263-2.387,0.525-3.58,0.788l-3.425,1.361l-0.072-0.036L393.851,238.713z"/>
		</g>
	</g>
</g>
<g>
	<g>
		
			<line fill="none" stroke="#EE0000" stroke-width="1.5547" stroke-linecap="round" x1="200.423" y1="238.701" x2="235.439" y2="118.099"/>
		<g>
			<path fill="#EE0000" d="M235.05,119.439l-3.165,0.855l-0.034-0.11l3.015-3.88c0.78-1.431,1.56-2.861,2.34-4.292
				c-0.107,1.625-0.215,3.251-0.322,4.877l0.469,4.892l-0.073,0.078L235.05,119.439z"/>
		</g>
	</g>
</g>
<g>
	<g>
		<line fill="none" stroke="#000000" stroke-width="1.5547" x1="237.206" y1="112.013" x2="237.206" y2="113.567"/>
		
			<line fill="none" stroke="#000000" stroke-width="1.5547" stroke-dasharray="3.099,3.099" x1="237.206" y1="116.667" x2="237.206" y2="282.461"/>
		<line fill="none" stroke="#000000" stroke-width="1.5547" x1="237.206" y1="284.011" x2="237.206" y2="285.565"/>
	</g>
</g>
<polygon opacity="0.8" fill="#FFFF7A" stroke="#7F7FFF" stroke-width="2.031" points="230.489,98.362 237.061,105.37 
	243.361,98.116 243.055,107.72 252.642,107.048 245.633,113.621 252.884,119.922 243.283,119.615 243.954,129.2 237.382,122.191 
	231.082,129.445 231.388,119.842 221.804,120.514 228.81,113.94 221.558,107.639 231.16,107.947 "/>
<polygon opacity="0.8" fill="#FFFF7A" stroke="#7F7FFF" stroke-width="1.4444" points="231.485,276.392 237.073,280.561 
	242.429,276.246 242.168,281.961 250.315,281.56 244.357,285.471 250.522,289.218 242.359,289.036 242.93,294.739 237.346,290.57 
	231.989,294.885 232.25,289.173 224.103,289.574 230.058,285.66 223.893,281.912 232.056,282.094 "/>
<line fill="#0D7016" stroke="#0D7016" stroke-width="1.5547" stroke-linecap="round" x1="237.206" y1="285.565" x2="186.925" y2="285.565"/>
<g>
	<g>
		
			<line fill="none" stroke="#EE0000" stroke-width="1.8585" stroke-linecap="round" x1="200.423" y1="238.701" x2="232.529" y2="279.606"/>
		<g>
			<path fill="#EE0000" d="M231.499,278.294l1.376-3.669l0.13,0.043l1.665,5.633c0.845,1.754,1.691,3.509,2.536,5.264
				c-1.503-1.238-3.007-2.476-4.511-3.713l-5.076-2.956l-0.026-0.125L231.499,278.294z"/>
		</g>
	</g>
</g>
<line fill="#0000EE" stroke="#0000EE" stroke-width="1.5547" stroke-linecap="round" x1="200.641" y1="238.701" x2="187.113" y2="283.254"/>
<path fill="#0000EE" stroke="#0000EE" stroke-width="0.7774" d="M170.169,262.135c21.583,5.278,21.583,5.278,21.583,5.278"/>
<polyline fill="none" stroke="#000000" stroke-width="0.7774" points="119.216,206.544 113.012,199.646 106.487,205.435 "/>
<g>
	<path fill="#121212" d="M241.374,81.149c0.714,0,1.982,0,3.727-1.764c0.694-0.714,1.724-2.339,1.724-3.607
		c0-0.952-0.495-1.467-0.713-1.685c-0.178-0.159-0.297-0.277-0.297-0.535c0-0.436,0.496-0.951,0.991-0.951
		c0.337,0,0.872,0.277,0.872,1.387c0,0.872-0.436,2.597-0.614,3.092c-0.218,0.595-0.634,1.467-1.447,2.378
		c-1.863,2.121-3.607,2.121-4.341,2.121l-0.753,2.953c-0.06,0.277-0.179,0.773-0.238,0.812c-0.04,0.08-0.139,0.08-0.179,0.08
		c-0.238,0-0.238-0.179-0.238-0.198c0-0.06,0.396-1.665,0.456-1.883c0.277-1.05,0.277-1.09,0.436-1.804
		c-1.903-0.119-3.449-0.932-3.449-2.814c0-0.337,0-0.852,0.951-3.35c0.258-0.694,0.456-1.189,0.456-1.705
		c0-0.634-0.337-0.634-0.496-0.634c-0.674,0-1.467,0.575-2.002,2.458c-0.099,0.317-0.119,0.357-0.317,0.357
		c-0.04,0-0.238,0-0.238-0.198c0-0.178,0.733-3.052,2.617-3.052c0.991,0,1.625,0.733,1.625,1.625c0,0.396-0.139,0.733-0.218,0.971
		c-1.07,2.775-1.07,3.291-1.07,3.687c0,1.308,0.753,2.042,2.259,2.22l3.291-13.102c0.079-0.357,0.099-0.396,0.297-0.396
		c0.099,0,0.238,0.02,0.238,0.218c0,0.099-0.04,0.218-0.06,0.297L241.374,81.149z"/>
</g>
<g>
</g>
<g>
</g>
<g>
</g>
<g>
</g>
<g>
</g>
<g>
</g>
<g>
</g>
</svg>
