<?xml version="1.0" encoding="UTF-8" standalone="no"?>
<!-- Generator: Adobe Illustrator 16.0.0, SVG Export Plug-In . SVG Version: 6.00 Build 0)  -->

<svg
   xmlns:dc="http://purl.org/dc/elements/1.1/"
   xmlns:cc="http://creativecommons.org/ns#"
   xmlns:rdf="http://www.w3.org/1999/02/22-rdf-syntax-ns#"
   xmlns:svg="http://www.w3.org/2000/svg"
   xmlns="http://www.w3.org/2000/svg"
   xmlns:xlink="http://www.w3.org/1999/xlink"
   xmlns:sodipodi="http://sodipodi.sourceforge.net/DTD/sodipodi-0.dtd"
   xmlns:inkscape="http://www.inkscape.org/namespaces/inkscape"
   version="1.1"
   id="Calque_1"
   x="0px"
   y="0px"
   width="495.524px"
   height="307.453px"
   viewBox="0 0 495.524 307.453"
   enable-background="new 0 0 495.524 307.453"
   xml:space="preserve"
   inkscape:version="0.91 r13725"
   sodipodi:docname="conversion-comp.svg"><metadata
     id="metadata603"><rdf:RDF><cc:Work
         rdf:about=""><dc:format>image/svg+xml</dc:format><dc:type
           rdf:resource="http://purl.org/dc/dcmitype/StillImage" /></cc:Work></rdf:RDF></metadata><defs
     id="defs601" /><sodipodi:namedview
     pagecolor="#ffffff"
     bordercolor="#666666"
     borderopacity="1"
     objecttolerance="10"
     gridtolerance="10"
     guidetolerance="10"
     inkscape:pageopacity="0"
     inkscape:pageshadow="2"
     inkscape:window-width="1872"
     inkscape:window-height="1004"
     id="namedview599"
     showgrid="false"
     inkscape:zoom="0.57716681"
     inkscape:cx="247.76199"
     inkscape:cy="153.7265"
     inkscape:window-x="0"
     inkscape:window-y="24"
     inkscape:window-maximized="1"
     inkscape:current-layer="Calque_1" /><path
     fill="#8585FF"
     d="M273.487,158.685c0,18.37-57.309,33.266-128.004,33.266S17.479,177.055,17.479,158.685  c0-18.375,57.309-33.271,128.004-33.271S273.487,140.309,273.487,158.685z"
     id="path3" /><path
     opacity="0.5"
     fill="#FF0005"
     d="M234.202,71.762c11.992,12.281-18.755,61.754-68.677,110.496  c-49.921,48.747-100.109,78.305-112.105,66.024c-11.992-12.285,18.755-61.754,68.677-110.5  C172.019,89.035,222.207,59.477,234.202,71.762z"
     id="path5" /><path
     fill="none"
     stroke="#000000"
     stroke-width="0.75"
     d="M274.155,162.024c0,69.035-57.461,124.996-128.34,124.996  S17.479,231.06,17.479,162.024c0-69.031,57.457-124.992,128.336-124.992S274.155,92.993,274.155,162.024z"
     id="path7" /><path
     fill="none"
     stroke="#000000"
     stroke-width="0.75"
     d="M145.815,37.032c0,249.988,0,249.988,0,249.988"
     id="path9" /><path
     fill="none"
     stroke="#000000"
     stroke-width="0.75"
     d="M273.487,158.685c-255.883-1.441-255.883-1.441-255.883-1.441"
     id="path11" /><path
     fill="none"
     stroke="#000000"
     stroke-width="0.75"
     d="M155.991,192.06c-20.254-65.336-20.867-66.652-20.867-66.652"
     id="path13" /><path
     fill="none"
     stroke="#000000"
     stroke-width="0.75"
     d="M66.272,63.766C229.37,257.61,228.558,257.578,228.558,257.578"
     id="path15" /><path
     fill="none"
     stroke="#000000"
     stroke-width="0.75"
     d="M234.202,71.762C53.42,248.282,53.42,248.282,53.42,248.282"
     id="path17" /><path
     fill="none"
     stroke="#000000"
     stroke-width="0.75"
     d="M66.679,64.16c16.746-13.753,41.508-14.047,68.363-0.808  s53.391,38.816,73.258,70.613"
     id="path19" /><path
     fill="none"
     stroke="#000000"
     stroke-width="0.75"
     d="M146.401,37.829c13.727,0,26.715,17.332,35.348,47.152  c8.629,29.824,12.094,67.303,9.219,104.807"
     id="path21" /><path
     fill="none"
     stroke="#000000"
     stroke-width="0.75"
     d="M186.386,104.375c43.547-39.793,48.309-32.519,48.309-32.519"
     id="path23" /><path
     fill="none"
     stroke="#000000"
     stroke-width="0.75"
     d="M208.3,133.965c-62.484,24.438-62.484,24.438-62.484,24.438"
     id="path25" /><path
     fill="none"
     stroke="#000000"
     stroke-width="0.75"
     d="M203.886,127.399c6.016-7.352,6.016-7.352,6.016-7.352l4.68,6.016"
     id="path27" /><path
     fill="none"
     stroke="#000000"
     stroke-width="0.75"
     d="M94.625,47.371c6.855,2.911-0.051,6.52-0.051,6.52"
     id="path29" /><path
     fill="none"
     stroke="#000000"
     stroke-width="0.75"
     d="M132.952,37.649c6.102,9.387,27.551,6.691,27.82,6.656"
     id="path31" /><path
     fill="none"
     stroke="#000000"
     stroke-width="0.75"
     d="M167.218,85.18c5.617-8.84,12.329-7.164,12.363-7.156"
     id="path33" /><path
     fill="none"
     stroke="#000000"
     stroke-width="0.375"
     d="M183.612,34.262c-15.305,10.203-15.305,10.203-15.305,10.203"
     id="path35" /><polygon
     fill-rule="evenodd"
     clip-rule="evenodd"
     points="171.429,42.387 171.843,40.305 168.307,44.465 173.507,42.801 "
     id="polygon37" /><polygon
     fill="none"
     stroke="#000000"
     stroke-width="0.4"
     points="171.429,42.387 171.843,40.305 168.307,44.465 173.507,42.801 "
     id="polygon39" /><path
     fill="none"
     stroke="#000000"
     stroke-width="0.75"
     d="M166.249,50.547c8.258-0.058,14.523-2.101,16.75-8.191"
     id="path41" /><g
     id="g43"><defs
       id="defs45"><rect
         id="SVGID_1_"
         x="109.023"
         y="43.616"
         width="9.755"
         height="10.104" /></defs><clipPath
       id="SVGID_2_"><use
         xlink:href="#SVGID_1_"
         overflow="visible"
         id="use49" /></clipPath><path
       clip-path="url(#SVGID_2_)"
       d="M115.972,45.389v0.723c0,0.724,0.027,1.457,0.064,2.18c0.009,0.251,0.064,1.187,0.121,1.837   h-2.282c-0.205,0-0.389,0-0.715,0.204c0.873-1.354,1.597-2.653,1.68-2.792c0.622-1.113,0.955-1.836,1.123-2.152H115.972    M116.222,50.816c0.065,0.788,0.213,1.363,0.278,1.604c0.14,0.566,0.205,0.835,0.733,0.835c0.566,0,1.531-0.557,1.531-0.808   c0-0.064-0.046-0.093-0.111-0.093c-0.167,0-0.427,0.14-0.464,0.167c-0.083,0.046-0.11,0.046-0.139,0.046   c-0.353,0-0.426-0.334-0.575-1.086c-0.084-0.417-0.195-0.918-0.297-2.625c-0.093-1.281-0.139-2.561-0.139-3.831   c0-0.307,0.01-0.632,0.01-0.929c0-0.204,0-0.25-0.14-0.25c-0.167,0-0.686,0.213-0.909,0.547l-0.092,0.139   c-0.983,2.115-1.912,3.627-2.561,4.648c-0.742,1.132-2.041,3.172-2.718,3.172c-0.463,0-0.844-0.296-0.965-0.751   c-0.009-0.019-0.037-0.093-0.083-0.093c-0.186,0-0.464,0.594-0.464,0.946c0,0.501,0.539,1.049,1.132,1.049   c0.862,0,2.301-2.246,2.569-2.69H116.222z"
       id="path51" /></g><g
     id="g53"><path
       d="M205.217,35.963c0.142-0.522,0.186-0.686,1.556-0.686c0.445,0,0.565,0,0.565-0.283c0-0.174-0.163-0.174-0.239-0.174   c-0.479,0-1.687,0.043-2.176,0.043c-0.436,0-1.5-0.043-1.947-0.043c-0.098,0-0.282,0-0.282,0.294c0,0.163,0.142,0.163,0.413,0.163   c0.032,0,0.316,0,0.555,0.033c0.272,0.021,0.402,0.043,0.402,0.229c0,0.065-0.01,0.109-0.054,0.283l-1.969,7.875   c-0.153,0.577-0.174,0.697-1.339,0.697c-0.249,0-0.391,0-0.391,0.293c0,0.152,0.13,0.152,0.391,0.152h6.788   c0.357,0,0.37,0,0.456-0.25l1.164-3.165c0.055-0.164,0.055-0.186,0.055-0.207c0-0.054-0.043-0.164-0.174-0.164   c-0.13,0-0.142,0.077-0.25,0.315c-0.501,1.35-1.143,3.024-3.677,3.024h-1.382c-0.206,0-0.238,0-0.326-0.022   c-0.142-0.011-0.185-0.021-0.185-0.141c0-0.044,0-0.076,0.065-0.337L205.217,35.963"
       id="path55" /><path
       d="M213.406,45.775c-0.076,0.283-0.293,0.489-0.521,0.684c-0.087,0.077-0.5,0.402-0.935,0.402   c-0.381,0-0.751-0.261-0.751-0.99c0-0.543,0.293-1.664,0.533-2.078c0.467-0.815,0.989-0.978,1.272-0.978   c0.718,0,0.913,0.783,0.913,0.892c0,0.043-0.021,0.12-0.032,0.152L213.406,45.775 M214.06,43.142   c-0.206-0.337-0.555-0.608-1.055-0.608c-1.306,0-2.632,1.446-2.632,2.915c0,1,0.663,1.707,1.543,1.707   c0.556,0,1.045-0.326,1.448-0.717c0.195,0.608,0.794,0.717,1.055,0.717c0.369,0,0.632-0.229,0.815-0.544   c0.218-0.402,0.359-0.989,0.359-1.022c0-0.141-0.142-0.141-0.163-0.141c-0.153,0-0.163,0.043-0.229,0.327   c-0.12,0.489-0.315,1.086-0.751,1.086c-0.261,0-0.337-0.217-0.337-0.5c0-0.174,0.087-0.544,0.152-0.805   c0.076-0.283,0.174-0.696,0.229-0.924l0.206-0.772c0.055-0.272,0.186-0.751,0.186-0.805c0-0.229-0.186-0.327-0.348-0.327   C214.364,42.729,214.125,42.848,214.06,43.142z"
       id="path57" /></g><path
     d="M49.562,250.841c0-0.057-0.042-0.184-0.212-0.184c-0.099,0-0.112,0.015-0.339,0.282l-0.918,1.088  c-0.494-0.904-1.482-1.37-2.726-1.37c-2.415,0-4.703,2.189-4.703,4.491c0,1.539,1.003,2.415,1.978,2.697l2.034,0.536  c0.706,0.17,1.765,0.467,1.765,2.02c0,1.724-1.567,3.503-3.432,3.503c-1.229,0-3.333-0.409-3.333-2.782  c0-0.451,0.099-0.903,0.113-1.017c0.014-0.085,0.042-0.099,0.042-0.142c0-0.184-0.141-0.212-0.24-0.212  c-0.085,0-0.127,0.028-0.184,0.085c-0.084,0.07-1.144,4.421-1.144,4.477c0,0.113,0.099,0.185,0.212,0.185  c0.099,0,0.113-0.015,0.339-0.283l0.933-1.087c0.819,1.102,2.118,1.37,3.219,1.37c2.6,0,4.845-2.528,4.845-4.901  c0-1.313-0.649-1.948-0.932-2.217c-0.438-0.438-0.735-0.522-2.43-0.961c-0.41-0.112-1.102-0.296-1.271-0.339  c-0.509-0.169-1.158-0.72-1.158-1.737c0-1.539,1.524-3.163,3.333-3.163c1.581,0,2.739,0.819,2.739,2.952  c0,0.621-0.07,0.96-0.07,1.072c0,0.015,0,0.185,0.226,0.185c0.184,0,0.212-0.057,0.283-0.382L49.562,250.841"
     id="path59" /><g
     id="g61"><path
       d="M133.514,299.644l-2.443-0.594c-1.186-0.282-1.92-1.313-1.92-2.414c0-1.328,1.03-2.5,2.514-2.5   c3.178,0,3.602,3.135,3.714,3.982c0.015,0.113,0.015,0.226,0.226,0.226c0.255,0,0.255-0.085,0.255-0.452v-3.827   c0-0.324,0-0.451-0.212-0.451c-0.142,0-0.155,0.014-0.297,0.239l-0.664,1.088c-0.564-0.551-1.355-1.327-3.05-1.327   c-2.104,0-3.715,1.666-3.715,3.686c0,1.582,1.018,2.979,2.5,3.488c0.212,0.07,1.187,0.312,2.514,0.636   c0.523,0.127,1.088,0.255,1.624,0.96c0.396,0.494,0.594,1.13,0.594,1.752c0,1.355-0.961,2.726-2.557,2.726   c-0.551,0-2.005-0.085-3.008-1.031c-1.102-1.017-1.158-2.245-1.187-2.923c-0.014-0.198-0.169-0.198-0.226-0.198   c-0.255,0-0.255,0.142-0.255,0.48v3.812c0,0.325,0,0.452,0.212,0.452c0.142,0,0.155-0.042,0.297-0.24   c0-0.027,0.057-0.084,0.678-1.087c0.593,0.649,1.808,1.327,3.503,1.327c2.231,0,3.757-1.863,3.757-3.954   C136.368,301.593,135.11,300.025,133.514,299.644"
       id="path63" /><path
       d="M138.485,300.52c0,3.939,3.08,6.934,6.623,6.934c3.107,0,4.973-2.641,4.973-4.858c0-0.183,0-0.324-0.24-0.324   c-0.213,0-0.213,0.112-0.24,0.311c-0.141,2.726-2.189,4.279-4.266,4.279c-1.158,0-4.887-0.649-4.887-6.327   c0-5.691,3.715-6.342,4.873-6.342c2.076,0,3.771,1.737,4.152,4.521c0.043,0.268,0.043,0.324,0.311,0.324   c0.297,0,0.297-0.057,0.297-0.452v-4.52c0-0.324,0-0.451-0.213-0.451c-0.07,0-0.141,0-0.295,0.226l-0.961,1.412   c-0.707-0.692-1.668-1.638-3.504-1.638C141.55,293.613,138.485,296.636,138.485,300.52"
       id="path65" /><path
       d="M155.419,300.52v-5.142c0-0.635,0.043-0.762,0.934-0.762h1.693c3.037,0,3.037,2.02,3.037,2.951   c0,0.903,0,2.952-3.037,2.952H155.419 M155.476,301.014h3.221c2.287,0,4.35-1.54,4.35-3.446c0-1.864-1.893-3.545-4.506-3.545   h-6.723v0.594h0.467c1.453,0,1.496,0.212,1.496,0.889v10.042c0,0.692-0.043,0.904-1.496,0.904h-0.467v0.579   c0.664-0.057,2.076-0.057,2.797-0.057c0.734,0,2.16,0,2.824,0.057v-0.579h-0.451c-1.469,0-1.512-0.212-1.512-0.904V301.014z"
       id="path67" /></g><g
     id="g69"><path
       d="M131.57,0.663c-0.17-0.226-0.184-0.254-0.552-0.254h-3.233v0.594h0.551c0.283,0,0.663,0.014,0.946,0.042   c0.438,0.057,0.466,0.07,0.466,0.438v9.942c0,0.509,0,1.413-1.963,1.413v0.579c0.664-0.015,1.596-0.057,2.231-0.057   c0.621,0,1.554,0.042,2.218,0.057v-0.579c-1.95,0-1.95-0.904-1.95-1.413V1.511c0.085,0.099,0.113,0.127,0.184,0.24l7.768,11.425   c0.17,0.227,0.199,0.241,0.324,0.241c0.27,0,0.27-0.128,0.27-0.495V2.415c0-0.523,0-1.412,1.963-1.412V0.409   c-0.664,0.028-1.596,0.057-2.232,0.057c-0.622,0-1.552-0.028-2.231-0.057v0.594c1.963,0,1.963,0.889,1.963,1.412v8.135   L131.57,0.663"
       id="path71" /><path
       d="M142.485,6.906c0,3.939,3.094,6.934,6.625,6.934c3.107,0,4.971-2.641,4.971-4.858c0-0.183,0-0.324-0.24-0.324   c-0.211,0-0.211,0.112-0.227,0.311c-0.154,2.726-2.188,4.279-4.264,4.279c-1.174,0-4.9-0.649-4.9-6.327   c0-5.691,3.713-6.342,4.871-6.342c2.076,0,3.771,1.737,4.152,4.521c0.043,0.268,0.043,0.324,0.311,0.324   c0.297,0,0.297-0.057,0.297-0.452v-4.52c0-0.324,0-0.451-0.197-0.451c-0.084,0-0.156,0-0.311,0.226l-0.947,1.412   C151.921,0.945,150.946,0,149.11,0C145.552,0,142.485,3.022,142.485,6.906"
       id="path73" /><path
       d="M159.421,6.906V1.765c0-0.635,0.041-0.762,0.932-0.762h1.695c3.035,0,3.035,2.02,3.035,2.951c0,0.903,0,2.952-3.035,2.952   H159.421 M159.476,7.4h3.221c2.287,0,4.35-1.54,4.35-3.446c0-1.864-1.893-3.545-4.504-3.545h-6.723v0.594h0.465   c1.469,0,1.498,0.212,1.498,0.889v10.042c0,0.692-0.029,0.904-1.498,0.904h-0.465v0.579c0.676-0.057,2.074-0.057,2.809-0.057   c0.723,0,2.146,0,2.811,0.057v-0.579h-0.451c-1.469,0-1.512-0.212-1.512-0.904V7.4z"
       id="path75" /></g><path
     d="M135.985,110.13c0.479-0.848,0.931-1.525,2.132-1.624c0.17-0.015,0.368-0.015,0.368-0.382c0-0.07-0.085-0.212-0.227-0.212  c-0.466,0-1.004,0.057-1.469,0.057c-0.65,0-1.355-0.057-1.992-0.057c-0.112,0-0.352,0-0.352,0.367c0,0.212,0.168,0.227,0.281,0.227  c0.452,0.014,1.13,0.169,1.13,0.748c0,0.197-0.099,0.354-0.255,0.621l-5.14,8.969l-0.707-9.448c-0.013-0.382-0.056-0.876,1.328-0.89  c0.324,0,0.522,0,0.522-0.382c0-0.184-0.211-0.212-0.282-0.212c-0.763,0-1.568,0.057-2.33,0.057c-0.438,0-1.567-0.057-2.006-0.057  c-0.113,0-0.354,0-0.354,0.382c0,0.212,0.184,0.212,0.452,0.212c0.834,0,0.975,0.113,1.017,0.48l0.113,1.468l-4.829,8.39  l-0.722-9.646c0-0.241,0-0.679,1.455-0.692c0.185,0,0.396,0,0.396-0.382c0-0.212-0.226-0.212-0.269-0.212  c-0.762,0-1.553,0.057-2.344,0.057c-0.664,0-1.356-0.057-1.991-0.057c-0.1,0-0.354,0-0.354,0.367c0,0.227,0.17,0.227,0.48,0.227  c0.96,0,0.974,0.169,1.017,0.706l0.848,11.637c0.027,0.34,0.042,0.495,0.311,0.495c0.226,0,0.283-0.113,0.451-0.396l5.607-9.716  l0.707,9.617c0.027,0.396,0.07,0.495,0.296,0.495c0.254,0,0.367-0.185,0.467-0.367L135.985,110.13"
     id="path77" /><path
     d="M123.659,172.646c-1.893,0-3.219-1.54-3.219-4.054c0-0.847,0.267-3.63,1.723-5.847c1.313-1.991,3.191-2.98,4.688-2.98  c1.567,0,3.276,1.074,3.276,3.912c0,1.37-0.509,4.336-2.401,6.681C126.808,171.516,125.254,172.646,123.659,172.646   M131.822,164.412c0-3.065-2.02-5.112-4.858-5.112c-4.109,0-8.304,4.321-8.304,8.756c0,3.164,2.133,5.084,4.872,5.084  C127.571,173.14,131.822,168.974,131.822,164.412z"
     id="path79" /><g
     id="g81"><path
       d="M142.488,46.276c0.083-0.332,0.104-0.428,0.779-0.428c0.241,0,0.317,0,0.317-0.187c0-0.104-0.104-0.104-0.131-0.104   c-0.263,0-0.932,0.028-1.186,0.028c-0.277,0-0.932-0.028-1.201-0.028c-0.075,0-0.18,0-0.18,0.187c0,0.104,0.084,0.104,0.263,0.104   c0.015,0,0.192,0,0.352,0.021c0.166,0.014,0.248,0.027,0.248,0.145c0,0.042-0.007,0.055-0.034,0.179l-0.559,2.269h-2.834   l0.545-2.185c0.082-0.332,0.11-0.428,0.786-0.428c0.241,0,0.31,0,0.31-0.187c0-0.104-0.096-0.104-0.124-0.104   c-0.261,0-0.931,0.028-1.192,0.028c-0.27,0-0.931-0.028-1.2-0.028c-0.076,0-0.179,0-0.179,0.187c0,0.104,0.083,0.104,0.262,0.104   c0.021,0,0.193,0,0.351,0.021c0.172,0.014,0.255,0.027,0.255,0.145c0,0.042-0.014,0.069-0.042,0.179l-1.241,4.993   c-0.096,0.366-0.117,0.441-0.848,0.441c-0.166,0-0.255,0-0.255,0.186c0,0.097,0.117,0.097,0.131,0.097   c0.263,0,0.924-0.028,1.187-0.028c0.192,0,0.399,0.014,0.592,0.014c0.207,0,0.408,0.014,0.608,0.014c0.068,0,0.186,0,0.186-0.186   c0-0.097-0.09-0.097-0.262-0.097c-0.345,0-0.607,0-0.607-0.172c0-0.055,0.021-0.097,0.028-0.159l0.634-2.544h2.834   c-0.386,1.544-0.6,2.427-0.641,2.565c-0.09,0.296-0.27,0.311-0.849,0.311c-0.138,0-0.22,0-0.22,0.186   c0,0.097,0.109,0.097,0.131,0.097c0.262,0,0.924-0.028,1.178-0.028c0.201,0,0.4,0.014,0.602,0.014c0.199,0,0.406,0.014,0.6,0.014   c0.075,0,0.186,0,0.186-0.186c0-0.097-0.082-0.097-0.254-0.097c-0.346,0-0.607,0-0.607-0.172c0-0.055,0.021-0.097,0.027-0.159   L142.488,46.276"
       id="path83" /><path
       d="M133.667,49.823c0.098,0,0.2,0,0.2-0.186s-0.102-0.186-0.2-0.186h-3.106c-0.094,0-0.2,0-0.2,0.186s0.106,0.186,0.2,0.186   H133.667"
       id="path85" /></g><g
     id="g87"><path
       d="M25.587,37.65c0.172-0.216,0.172-0.244,0.172-0.331c0-0.243-0.144-0.243-0.503-0.243h-6.192l-0.214,3.117h0.487   c0.115-1.982,0.475-2.701,2.614-2.701h2.199l-5.402,7.312c-0.172,0.216-0.172,0.245-0.172,0.346c0,0.273,0.129,0.273,0.502,0.273   h6.395l0.329-3.621h-0.487c-0.173,2.284-0.575,3.132-2.831,3.132h-2.285L25.587,37.65"
       id="path89" /><path
       d="M28.762,40.94h5.402c0.432,0,0.488,0,0.488-0.402c0-1.91-1.049-3.793-3.463-3.793c-2.255,0-4.036,1.997-4.036,4.411   c0,2.601,2.039,4.482,4.267,4.482c2.356,0,3.232-2.155,3.232-2.528c0-0.188-0.158-0.23-0.244-0.23   c-0.187,0-0.216,0.115-0.259,0.273c-0.675,1.997-2.428,1.997-2.614,1.997c-0.963,0-1.738-0.574-2.185-1.294   C28.762,42.922,28.762,41.644,28.762,40.94 M28.777,40.538c0.129-2.888,1.753-3.376,2.413-3.376c1.997,0,2.185,2.615,2.185,3.376   H28.777z"
       id="path91" /><path
       d="M37.383,38.756v5.186c0,0.877-0.217,0.877-1.524,0.877v0.604c0.689-0.015,1.667-0.058,2.199-0.058   c0.503,0,1.508,0.043,2.169,0.058v-0.604c-1.293,0-1.508,0-1.508-0.877v-3.562c0-2.011,1.364-3.103,2.614-3.103   c1.222,0,1.437,1.048,1.437,2.154v4.511c0,0.877-0.215,0.877-1.523,0.877v0.604c0.69-0.015,1.667-0.058,2.198-0.058   c0.504,0,1.509,0.043,2.17,0.058v-0.604c-1.006,0-1.494,0-1.509-0.574v-3.707c0-1.666,0-2.271-0.604-2.96   c-0.272-0.329-0.919-0.718-2.04-0.718c-1.407,0-2.327,0.833-2.859,2.025V36.86l-2.744,0.216v0.589   C37.225,37.665,37.383,37.808,37.383,38.756"
       id="path93" /><path
       d="M49.493,33.484c0-0.618-0.487-1.021-1.033-1.021c-0.604,0-1.02,0.518-1.02,1.021c0,0.531,0.416,1.034,1.02,1.034   C49.005,34.518,49.493,34.102,49.493,33.484 M49.408,36.86l-2.715,0.216v0.589c1.264,0,1.437,0.129,1.437,1.077v5.2   c0,0.877-0.202,0.877-1.509,0.877v0.604c0.617-0.015,1.667-0.058,2.126-0.058c0.69,0,1.365,0.043,2.025,0.058v-0.604   c-1.279,0-1.364-0.101-1.364-0.848V36.86z"
       id="path95" /><path
       d="M54.68,37.665h2.772v-0.589H54.68v-3.577h-0.488c-0.015,1.595-0.604,3.663-2.5,3.75v0.416h1.651v5.358   c0,2.386,1.796,2.615,2.501,2.615c1.364,0,1.911-1.379,1.911-2.615v-1.106h-0.489v1.063c0,1.438-0.574,2.17-1.294,2.17   c-1.292,0-1.292-1.768-1.292-2.098V37.665"
       id="path97" /><path
       d="M61.016,43.942c0,0.877-0.216,0.877-1.523,0.877v0.604c0.69-0.015,1.667-0.058,2.198-0.058c0.504,0,1.51,0.043,2.17,0.058   v-0.604c-1.309,0-1.508,0-1.508-0.877v-3.562c0-2.011,1.364-3.103,2.614-3.103c1.22,0,1.421,1.048,1.421,2.154v4.511   c0,0.877-0.201,0.877-1.507,0.877v0.604c0.688-0.015,1.666-0.058,2.197-0.058c0.503,0,1.509,0.043,2.17,0.058v-0.604   c-1.006,0-1.494,0-1.509-0.574v-3.707c0-1.666,0-2.271-0.604-2.96c-0.271-0.329-0.919-0.718-2.038-0.718   c-1.625,0-2.486,1.164-2.802,1.896v-6.781l-2.803,0.216v0.603c1.365,0,1.523,0.13,1.523,1.078V43.942"
       id="path99" /></g><g
     id="g101"><path
       d="M224.225,269.479v5.192c0,0.877-0.216,0.877-1.51,0.877v0.604c0.676-0.015,1.668-0.058,2.186-0.058   c0.504,0,1.511,0.043,2.172,0.058v-0.604c-1.294,0-1.511,0-1.511-0.877v-3.566c0-2.014,1.381-3.106,2.618-3.106   c1.223,0,1.438,1.05,1.438,2.157v4.516c0,0.877-0.216,0.877-1.511,0.877v0.604c0.676-0.015,1.669-0.058,2.187-0.058   c0.503,0,1.51,0.043,2.171,0.058v-0.604c-1.006,0-1.495,0-1.509-0.575v-3.71c0-1.669,0-2.272-0.604-2.963   c-0.273-0.331-0.906-0.719-2.043-0.719c-1.409,0-2.314,0.834-2.861,2.027v-2.027l-2.732,0.215v0.59   C224.066,268.386,224.225,268.529,224.225,269.479"
       id="path103" /><path
       d="M239.167,271.492v1.941c0,1.841-1.409,2.503-2.271,2.503c-0.949,0-1.755-0.676-1.755-1.654   C235.141,273.218,235.96,271.607,239.167,271.492 M239.297,274.671c0.071,0.776,0.604,1.597,1.511,1.597   c0.417,0,1.596-0.273,1.596-1.841v-1.094h-0.489v1.094c0,1.121-0.488,1.236-0.689,1.236c-0.647,0-0.72-0.862-0.72-0.963v-3.884   c0-0.819,0-1.567-0.705-2.287c-0.762-0.762-1.725-1.063-2.66-1.063c-1.582,0-2.919,0.905-2.919,2.186   c0,0.59,0.388,0.906,0.892,0.906c0.531,0,0.892-0.374,0.892-0.892c0-0.23-0.101-0.863-0.993-0.892   c0.519-0.677,1.468-0.892,2.101-0.892c0.949,0,2.056,0.763,2.056,2.487v0.72c-0.991,0.058-2.358,0.115-3.58,0.69   c-1.453,0.661-1.928,1.668-1.928,2.531c0,1.567,1.87,2.057,3.092,2.057C238.031,276.368,238.923,275.591,239.297,274.671z"
       id="path105" /><path
       d="M249.925,269.882v3.983c0,0.346,0,0.389-0.201,0.72c-0.589,0.92-1.466,1.352-2.301,1.352c-0.863,0-1.567-0.504-2.028-1.236   c-0.503-0.792-0.561-1.898-0.561-2.704c0-0.72,0.028-1.87,0.604-2.747c0.402-0.604,1.137-1.251,2.186-1.251   c0.676,0,1.496,0.302,2.1,1.164C249.925,269.493,249.925,269.536,249.925,269.882 M249.925,275.088v1.28l2.862-0.216v-0.604   c-1.366,0-1.524-0.129-1.524-1.078V262.69l-2.79,0.216v0.604c1.366,0,1.51,0.13,1.51,1.079v4.186   c-0.561-0.69-1.395-1.193-2.444-1.193c-2.287,0-4.314,1.897-4.314,4.4c0,2.459,1.898,4.387,4.113,4.387   C248.573,276.368,249.45,275.706,249.925,275.088z"
       id="path107" /><path
       d="M256.814,264.2c0-0.618-0.475-1.021-1.021-1.021c-0.604,0-1.036,0.518-1.036,1.021c0,0.532,0.432,1.036,1.036,1.036   C256.34,265.236,256.814,264.819,256.814,264.2 M256.742,267.581l-2.718,0.215v0.59c1.265,0,1.438,0.13,1.438,1.079v5.206   c0,0.877-0.217,0.877-1.511,0.877v0.604c0.618-0.015,1.669-0.058,2.129-0.058c0.676,0,1.366,0.043,2.014,0.058v-0.604   c-1.28,0-1.353-0.101-1.353-0.848V267.581z"
       id="path109" /><path
       d="M261.949,269.709v-2.128l-2.69,0.215v0.59c1.353,0,1.511,0.144,1.511,1.093v5.192c0,0.877-0.216,0.877-1.511,0.877v0.604   c0.748-0.015,1.669-0.058,2.201-0.058c0.776,0,1.697,0,2.474,0.058v-0.604h-0.417c-1.438,0-1.467-0.216-1.467-0.905v-2.992   c0-1.912,0.805-3.652,2.287-3.652c0.128,0,0.172,0,0.215,0.028c-0.058,0.015-0.445,0.245-0.445,0.748   c0,0.546,0.402,0.834,0.834,0.834c0.345,0,0.834-0.23,0.834-0.849s-0.604-1.179-1.438-1.179   C262.912,267.581,262.223,268.875,261.949,269.709"
       id="path111" /></g><path
     d="M264,39.743c0.191-0.799,0.562-1.404,2.158-1.463c0.088,0,0.325-0.03,0.325-0.399c0-0.03,0-0.222-0.252-0.222  c-0.664,0-1.359,0.059-2.01,0.059c-0.68,0-1.375-0.059-2.04-0.059c-0.118,0-0.354,0-0.354,0.399c0,0.222,0.192,0.222,0.354,0.222  c1.139,0.014,1.36,0.428,1.36,0.872c0,0.059-0.045,0.354-0.06,0.412l-2.231,8.869l-4.405-10.405  c-0.162-0.354-0.177-0.369-0.636-0.369h-2.675c-0.397,0-0.576,0-0.576,0.399c0,0.222,0.179,0.222,0.548,0.222  c0.103,0,1.358,0,1.358,0.176l-2.675,10.702c-0.192,0.798-0.532,1.433-2.144,1.493c-0.118,0-0.34,0.014-0.34,0.398  c0,0.148,0.104,0.222,0.252,0.222c0.65,0,1.345-0.06,1.995-0.06c0.68,0,1.404,0.06,2.054,0.06c0.104,0,0.355,0,0.355-0.398  c0-0.208-0.177-0.222-0.399-0.222c-1.152-0.045-1.314-0.473-1.314-0.872c0-0.148,0.028-0.237,0.089-0.459l2.63-10.523  c0.074,0.119,0.074,0.147,0.178,0.355l4.966,11.735c0.133,0.34,0.192,0.384,0.37,0.384c0.222,0,0.222-0.06,0.324-0.414L264,39.743"
     id="path113" /><g
     id="g115"><g
       id="g117"><defs
         id="defs119"><rect
           id="SVGID_3_"
           x="178.162"
           y="58.148"
           width="14.958"
           height="8.724" /></defs><clipPath
         id="SVGID_4_"><use
           xlink:href="#SVGID_3_"
           overflow="visible"
           id="use123" /></clipPath><path
         clip-path="url(#SVGID_4_)"
         d="M180.636,63.923c-0.184,0-0.697,0-1.046-0.706c-0.199-0.415-0.199-0.971-0.199-1.518    c0-0.606,0-1.129,0.232-1.544c0.307-0.564,0.73-0.705,1.119-0.705c0.516,0,0.889,0.381,1.08,0.879    c0.133,0.365,0.174,1.071,0.174,1.585C181.996,62.844,181.614,63.923,180.636,63.923 M182.021,63.068v0.357    c0,2.614-1.162,3.128-1.816,3.128c-0.184,0-0.789-0.017-1.096-0.399c0.498,0,0.581-0.323,0.581-0.514    c0-0.348-0.266-0.514-0.515-0.514c-0.175,0-0.515,0.1-0.515,0.531c0,0.756,0.606,1.212,1.561,1.212    c1.444,0,2.805-1.519,2.805-3.925c0-3.012-1.287-3.775-2.283-3.775c-0.613,0-1.16,0.2-1.643,0.706    c-0.456,0.506-0.714,0.971-0.714,1.817c0,1.394,0.979,2.489,2.233,2.489C181.307,64.18,181.763,63.715,182.021,63.068z"
         id="path125" /><path
         clip-path="url(#SVGID_4_)"
         d="M186.311,66.62c-0.44,0-1.096-0.274-1.303-1.353c-0.124-0.672-0.124-1.701-0.124-2.357    c0-0.721,0-1.46,0.091-2.065c0.216-1.328,1.054-1.428,1.336-1.428c0.365,0,1.104,0.2,1.319,1.312    c0.107,0.622,0.107,1.477,0.107,2.182c0,0.839,0,1.593-0.115,2.316C187.447,66.288,186.816,66.62,186.311,66.62 M188.667,63.043    c0-0.896-0.05-1.792-0.448-2.622c-0.514-1.071-1.427-1.253-1.899-1.253c-0.673,0-1.486,0.291-1.95,1.336    c-0.357,0.771-0.406,1.643-0.406,2.539c0,0.838,0.041,1.842,0.497,2.696c0.481,0.905,1.303,1.129,1.851,1.129    c0.606,0,1.451-0.232,1.942-1.295C188.617,64.803,188.667,63.923,188.667,63.043z"
         id="path127" /><path
         clip-path="url(#SVGID_4_)"
         d="M191.38,61.351c-0.729,0-1.294-0.597-1.294-1.294c0-0.722,0.572-1.294,1.294-1.294    c0.738,0,1.295,0.598,1.295,1.286C192.675,60.778,192.102,61.351,191.38,61.351 M193.057,60.056c0-0.946-0.756-1.675-1.677-1.675    c-0.938,0-1.676,0.754-1.676,1.667c0,0.946,0.755,1.685,1.676,1.685C192.318,61.733,193.057,60.969,193.057,60.056z"
         id="path129" /></g><path
       d="M197.577,64.01c0.104,0,0.212,0,0.212-0.198c0-0.198-0.108-0.198-0.212-0.198h-3.31c-0.101,0-0.213,0-0.213,0.198   c0,0.198,0.112,0.198,0.213,0.198H197.577"
       id="path131" /><g
       id="g133"><defs
         id="defs135"><rect
           id="SVGID_5_"
           x="200.873"
           y="58.794"
           width="4.675"
           height="8.414" /></defs><clipPath
         id="SVGID_6_"><use
           xlink:href="#SVGID_5_"
           overflow="visible"
           id="use139" /></clipPath><path
         clip-path="url(#SVGID_6_)"
         d="M203.553,62.312c0.283,0.514,0.623,1.12,0.623,1.925c0,0.739-0.431,2.605-1.469,2.605    c-0.613,0-1.079-0.464-1.079-1.319C201.628,64.818,202.043,62.719,203.553,62.312 M203.421,62.071    c-1.394,0.332-2.481,1.784-2.481,3.145c0,1.07,0.714,1.875,1.768,1.875c1.312,0,2.24-1.758,2.24-3.302    c0-1.012-0.448-1.576-0.83-2.082c-0.406-0.498-1.062-1.336-1.062-1.834c0-0.24,0.224-0.514,0.614-0.514    c0.331,0,0.555,0.149,0.796,0.307c0.225,0.133,0.448,0.274,0.615,0.274c0.281,0,0.446-0.266,0.446-0.449    c0-0.24-0.182-0.273-0.58-0.364c-0.581-0.125-0.739-0.125-0.921-0.125c-0.871,0-1.277,0.481-1.277,1.154    C202.749,60.761,203.072,61.383,203.421,62.071z"
         id="path141" /></g></g><g
     id="g143"><defs
       id="defs145"><rect
         id="SVGID_7_"
         x="164.262"
         y="21.826"
         width="44.248"
         height="9.66" /></defs><clipPath
       id="SVGID_8_"><use
         xlink:href="#SVGID_7_"
         overflow="visible"
         id="use149" /></clipPath><path
       clip-path="url(#SVGID_8_)"
       d="M172.426,23.521c0.101-0.406,0.125-0.515,0.938-0.515c0.291,0,0.382,0,0.382-0.224   c0-0.125-0.124-0.125-0.157-0.125c-0.308,0-1.12,0.033-1.427,0.033c-0.324,0-1.121-0.033-1.444-0.033c-0.091,0-0.216,0-0.216,0.224   c0,0.125,0.1,0.125,0.315,0.125c0.025,0,0.232,0,0.424,0.025c0.198,0.017,0.298,0.034,0.298,0.174c0,0.05-0.008,0.067-0.041,0.216   l-0.672,2.729h-3.411l0.656-2.63c0.1-0.406,0.141-0.515,0.945-0.515c0.291,0,0.382,0,0.382-0.224c0-0.125-0.124-0.125-0.157-0.125   c-0.315,0-1.12,0.033-1.436,0.033c-0.323,0-1.121-0.033-1.444-0.033c-0.091,0-0.215,0-0.215,0.224c0,0.125,0.107,0.125,0.315,0.125   c0.025,0,0.231,0,0.423,0.025c0.207,0.017,0.307,0.034,0.307,0.174c0,0.05-0.017,0.083-0.049,0.216l-1.494,6.007   c-0.116,0.439-0.133,0.522-1.021,0.522c-0.199,0-0.3,0-0.3,0.224c0,0.125,0.134,0.125,0.15,0.125c0.315,0,1.111-0.033,1.427-0.033   c0.232,0,0.481,0.016,0.714,0.016c0.249,0,0.489,0.017,0.729,0.017c0.083,0,0.225,0,0.225-0.224c0-0.125-0.1-0.125-0.315-0.125   c-0.415,0-0.729,0-0.729-0.199c0-0.066,0.024-0.125,0.032-0.191l0.764-3.062h3.41c-0.465,1.859-0.722,2.921-0.771,3.087   c-0.107,0.356-0.324,0.365-1.013,0.365c-0.174,0-0.273,0-0.273,0.224c0,0.125,0.133,0.125,0.158,0.125   c0.314,0,1.111-0.033,1.418-0.033c0.241,0,0.481,0.016,0.722,0.016c0.241,0,0.49,0.017,0.722,0.017c0.092,0,0.225,0,0.225-0.224   c0-0.125-0.1-0.125-0.307-0.125c-0.415,0-0.73,0-0.73-0.199c0-0.066,0.024-0.125,0.033-0.191L172.426,23.521"
       id="path151" /><path
       clip-path="url(#SVGID_8_)"
       d="M181.147,27.727h3.119c0.157,0,0.373,0,0.373-0.224c0-0.224-0.216-0.224-0.373-0.224h-3.119   v-3.136c0-0.15,0-0.366-0.225-0.366s-0.225,0.216-0.225,0.366v3.136h-3.137c-0.149,0-0.364,0-0.364,0.224   c0,0.224,0.215,0.224,0.364,0.224h3.137v3.136c0,0.158,0,0.366,0.225,0.366s0.225-0.208,0.225-0.366V27.727"
       id="path153" /><path
       clip-path="url(#SVGID_8_)"
       d="M191.013,23.139c0-0.266,0-0.291-0.258-0.291c-0.689,0.713-1.677,0.713-2.033,0.713v0.349   c0.225,0,0.88,0,1.47-0.291v5.8c0,0.397-0.034,0.531-1.046,0.531h-0.357V30.3c0.391-0.033,1.369-0.033,1.817-0.033   s1.419,0,1.809,0.033v-0.349h-0.357c-1.003,0-1.044-0.116-1.044-0.531V23.139"
       id="path155" /><path
       clip-path="url(#SVGID_8_)"
       d="M195.676,26.723l1.377,0.872c0.307,0.208,0.839,0.548,0.839,1.228   c0,0.83-0.839,1.411-1.76,1.411c-0.963,0-1.768-0.688-1.768-1.618C194.364,27.96,194.721,27.246,195.676,26.723 M196.795,26.25   c0.806-0.415,1.353-0.996,1.353-1.734c0-1.029-0.995-1.667-2.016-1.667c-1.12,0-2.024,0.83-2.024,1.867   c0,0.208,0.024,0.706,0.489,1.236c0.124,0.133,0.539,0.415,0.821,0.597c-0.647,0.332-1.609,0.955-1.609,2.066   c0,1.187,1.137,1.933,2.314,1.933c1.261,0,2.323-0.929,2.323-2.124c0-0.406-0.124-0.913-0.547-1.377   C197.691,26.807,197.509,26.698,196.795,26.25z M195.161,25.188c-0.515-0.34-0.564-0.713-0.564-0.904   c0-0.689,0.73-1.153,1.526-1.153c0.813,0,1.535,0.581,1.535,1.385c0,0.639-0.439,1.178-1.111,1.569L195.161,25.188z"
       id="path157" /><path
       clip-path="url(#SVGID_8_)"
       d="M201.698,30.3c-0.438,0-1.094-0.274-1.293-1.353c-0.125-0.671-0.125-1.701-0.125-2.356   c0-0.722,0-1.46,0.082-2.066c0.217-1.327,1.055-1.427,1.336-1.427c0.365,0,1.112,0.199,1.32,1.302   c0.115,0.631,0.115,1.485,0.115,2.191c0,0.838,0,1.593-0.124,2.315C202.845,29.968,202.206,30.3,201.698,30.3 M204.063,26.723   c0-0.896-0.058-1.792-0.447-2.622c-0.516-1.071-1.436-1.253-1.909-1.253c-0.672,0-1.484,0.291-1.941,1.335   c-0.365,0.772-0.414,1.643-0.414,2.539c0,0.838,0.04,1.842,0.497,2.697c0.481,0.904,1.303,1.128,1.85,1.128   c0.607,0,1.453-0.232,1.951-1.302C204.006,28.474,204.063,27.603,204.063,26.723z"
       id="path159" /><path
       clip-path="url(#SVGID_8_)"
       d="M206.769,25.022c-0.729,0-1.295-0.588-1.295-1.286c0-0.722,0.581-1.294,1.295-1.294   c0.738,0,1.303,0.588,1.303,1.286C208.071,24.458,207.49,25.022,206.769,25.022 M208.453,23.736c0-0.946-0.764-1.676-1.685-1.676   c-0.938,0-1.676,0.755-1.676,1.668c0,0.946,0.755,1.685,1.676,1.685C207.707,25.413,208.453,24.649,208.453,23.736z"
       id="path161" /></g><g
     id="g163"><g
       id="g165"><defs
         id="defs167"><rect
           id="SVGID_9_"
           x="109"
           y="28.247"
           width="12.152"
           height="9.66" /></defs><clipPath
         id="SVGID_10_"><use
           xlink:href="#SVGID_9_"
           overflow="visible"
           id="use171" /></clipPath><path
         clip-path="url(#SVGID_10_)"
         d="M112.966,29.145c0.1-0.407,0.132-0.531,1.187-0.531c0.341,0,0.423,0,0.423-0.207    c0-0.142-0.116-0.142-0.174-0.142c-0.374,0-1.286,0.034-1.659,0.034c-0.332,0-1.154-0.034-1.486-0.034    c-0.083,0-0.215,0-0.215,0.225c0,0.124,0.1,0.124,0.314,0.124c0.025,0,0.232,0,0.424,0.025c0.199,0.025,0.307,0.033,0.307,0.183    c0,0.041-0.016,0.074-0.05,0.207l-1.502,6.008c-0.107,0.439-0.133,0.531-1.013,0.531c-0.189,0-0.307,0-0.307,0.224    c0,0.125,0.1,0.125,0.307,0.125h5.179c0.273,0,0.282,0,0.349-0.191l0.888-2.423c0.042-0.116,0.042-0.141,0.042-0.149    c0-0.05-0.034-0.125-0.134-0.125s-0.115,0.05-0.19,0.232c-0.382,1.029-0.871,2.307-2.812,2.307h-1.046    c-0.157,0-0.183,0-0.249-0.017c-0.116-0.008-0.149-0.017-0.149-0.107c0-0.033,0-0.059,0.058-0.257L112.966,29.145"
         id="path173" /><path
         clip-path="url(#SVGID_10_)"
         d="M119.181,36.621c-0.059,0.216-0.224,0.374-0.398,0.523c-0.066,0.058-0.381,0.307-0.722,0.307    c-0.282,0-0.564-0.199-0.564-0.754c0-0.416,0.225-1.27,0.406-1.585c0.356-0.622,0.756-0.739,0.971-0.739    c0.548,0,0.697,0.589,0.697,0.681c0,0.025-0.017,0.083-0.025,0.107L119.181,36.621 M119.679,34.613    c-0.167-0.257-0.424-0.464-0.806-0.464c-0.995,0-2.017,1.103-2.017,2.232c0,0.755,0.516,1.294,1.188,1.294    c0.414,0,0.796-0.241,1.104-0.548c0.149,0.464,0.605,0.548,0.805,0.548c0.282,0,0.48-0.174,0.622-0.415    c0.166-0.307,0.273-0.747,0.273-0.78c0-0.1-0.107-0.1-0.132-0.1c-0.108,0-0.116,0.024-0.166,0.24    c-0.1,0.374-0.241,0.83-0.572,0.83c-0.2,0-0.258-0.166-0.258-0.381c0-0.133,0.066-0.415,0.116-0.614    c0.058-0.208,0.133-0.531,0.175-0.705l0.157-0.589c0.041-0.207,0.141-0.572,0.141-0.614c0-0.166-0.141-0.249-0.265-0.249    C119.911,34.297,119.728,34.397,119.679,34.613z"
         id="path175" /></g><g
       id="g177"><defs
         id="defs179"><rect
           id="SVGID_11_"
           x="87.946"
           y="27.157"
           width="14.956"
           height="8.724" /></defs><clipPath
         id="SVGID_12_"><use
           xlink:href="#SVGID_11_"
           overflow="visible"
           id="use183" /></clipPath><path
         clip-path="url(#SVGID_12_)"
         d="M90.417,32.932c-0.183,0-0.696,0-1.045-0.706c-0.199-0.415-0.199-0.971-0.199-1.519    c0-0.605,0-1.128,0.232-1.543c0.307-0.564,0.729-0.705,1.12-0.705c0.514,0,0.887,0.381,1.079,0.879    c0.132,0.365,0.173,1.071,0.173,1.585C91.778,31.853,91.397,32.932,90.417,32.932 M91.803,32.077v0.357    c0,2.614-1.161,3.128-1.817,3.128c-0.183,0-0.788-0.017-1.095-0.399c0.497,0,0.581-0.323,0.581-0.514    c0-0.348-0.266-0.514-0.515-0.514c-0.175,0-0.515,0.099-0.515,0.531c0,0.755,0.605,1.211,1.561,1.211    c1.443,0,2.804-1.519,2.804-3.924c0-3.012-1.286-3.776-2.281-3.776c-0.614,0-1.162,0.199-1.643,0.706    c-0.457,0.506-0.714,0.971-0.714,1.817c0,1.394,0.979,2.489,2.231,2.489C91.09,33.189,91.546,32.724,91.803,32.077z"
         id="path185" /><path
         clip-path="url(#SVGID_12_)"
         d="M96.093,35.629c-0.439,0-1.095-0.274-1.303-1.353c-0.125-0.672-0.125-1.701-0.125-2.356    c0-0.722,0-1.46,0.091-2.066c0.217-1.328,1.055-1.427,1.337-1.427c0.365,0,1.104,0.199,1.318,1.311    c0.108,0.623,0.108,1.477,0.108,2.183c0,0.838,0,1.593-0.116,2.314C97.23,35.297,96.599,35.629,96.093,35.629 M98.45,32.052    c0-0.896-0.051-1.792-0.448-2.622c-0.515-1.071-1.427-1.253-1.9-1.253c-0.672,0-1.485,0.291-1.95,1.336    c-0.356,0.772-0.406,1.643-0.406,2.539c0,0.838,0.042,1.842,0.498,2.697c0.481,0.905,1.303,1.128,1.851,1.128    c0.605,0,1.452-0.232,1.941-1.294C98.399,33.812,98.45,32.932,98.45,32.052z"
         id="path187" /><path
         clip-path="url(#SVGID_12_)"
         d="M101.163,30.36c-0.73,0-1.294-0.598-1.294-1.294c0-0.722,0.572-1.294,1.294-1.294    c0.739,0,1.295,0.597,1.295,1.286C102.458,29.788,101.884,30.36,101.163,30.36 M102.838,29.065c0-0.946-0.755-1.676-1.676-1.676    c-0.938,0-1.677,0.755-1.677,1.668c0,0.946,0.756,1.685,1.677,1.685C102.1,30.742,102.838,29.978,102.838,29.065z"
         id="path189" /></g><path
       d="M107.359,33.019c0.104,0,0.214,0,0.214-0.198c0-0.198-0.109-0.198-0.214-0.198h-3.309c-0.1,0-0.213,0-0.213,0.198   c0,0.198,0.113,0.198,0.213,0.198H107.359"
       id="path191" /></g><g
     id="g193"><path
       d="M113.113,75.349c-0.173,0-0.688,0-1.037-0.706c-0.207-0.415-0.207-0.97-0.207-1.519c0-0.605,0-1.128,0.241-1.543   c0.299-0.564,0.721-0.706,1.12-0.706c0.515,0,0.879,0.382,1.07,0.879c0.133,0.366,0.182,1.071,0.182,1.585   C114.482,74.27,114.101,75.349,113.113,75.349 M114.499,74.493v0.358c0,2.613-1.16,3.127-1.808,3.127   c-0.191,0-0.797-0.017-1.096-0.398c0.489,0,0.58-0.324,0.58-0.514c0-0.349-0.265-0.515-0.514-0.515c-0.183,0-0.516,0.1-0.516,0.531   c0,0.756,0.607,1.212,1.553,1.212c1.443,0,2.812-1.519,2.812-3.925c0-3.012-1.286-3.775-2.281-3.775   c-0.622,0-1.17,0.199-1.651,0.706c-0.457,0.506-0.714,0.971-0.714,1.817c0,1.394,0.987,2.489,2.24,2.489   C113.786,75.605,114.242,75.142,114.499,74.493z"
       id="path195" /><path
       d="M118.789,78.045c-0.431,0-1.095-0.274-1.294-1.353c-0.125-0.672-0.125-1.701-0.125-2.356c0-0.722,0-1.46,0.092-2.066   c0.207-1.328,1.054-1.427,1.327-1.427c0.373,0,1.112,0.199,1.319,1.311c0.116,0.622,0.116,1.477,0.116,2.182   c0,0.837,0,1.593-0.125,2.315C119.934,77.713,119.295,78.045,118.789,78.045 M121.153,74.469c0-0.896-0.058-1.792-0.446-2.622   c-0.516-1.07-1.436-1.252-1.901-1.252c-0.672,0-1.493,0.291-1.95,1.336c-0.356,0.771-0.414,1.643-0.414,2.539   c0,0.838,0.041,1.843,0.507,2.696c0.48,0.905,1.294,1.129,1.841,1.129c0.606,0,1.461-0.232,1.95-1.294   C121.095,76.229,121.153,75.349,121.153,74.469z"
       id="path197" /><path
       d="M123.867,72.311c-0.738,0-1.303-0.598-1.303-1.295c0-0.722,0.581-1.294,1.303-1.294c0.73,0,1.294,0.597,1.294,1.286   C125.161,71.739,124.581,72.311,123.867,72.311 M125.542,71.016c0-0.945-0.755-1.675-1.676-1.675c-0.938,0-1.685,0.754-1.685,1.667   c0,0.946,0.756,1.685,1.685,1.685C124.796,72.692,125.542,71.929,125.542,71.016z"
       id="path199" /><path
       d="M135.974,74.203c-2.24,1.204-2.365,2.647-2.365,2.921c0,0.846,0.83,1.385,1.893,1.385c1.866,0,3.369-1.767,3.369-2   c0-0.066-0.059-0.083-0.115-0.083c-0.135,0-0.557,0.149-0.814,0.498c-0.232,0.324-0.705,0.972-1.701,0.972   c-0.796,0-1.676-0.415-1.676-1.253c0-0.547,0.622-2.208,2.39-2.273c0.531-0.025,0.921-0.415,0.921-0.539   c0-0.066-0.058-0.075-0.116-0.075c-1.577-0.066-1.892-0.838-1.892-1.286c0-0.258,0.174-1.478,1.742-1.478   c0.208,0,1.062,0.034,1.062,0.614c0,0.174-0.092,0.332-0.141,0.398c-0.018,0.033-0.049,0.091-0.049,0.125   c0,0.083,0.072,0.083,0.105,0.083c0.342,0,1.029-0.439,1.029-1.078c0-0.655-0.771-0.755-1.27-0.755   c-1.526,0-3.426,1.203-3.426,2.572C134.92,73.606,135.418,74.013,135.974,74.203"
       id="path201" /><path
       d="M130.903,74.642c0.104,0,0.213,0,0.213-0.198c0-0.198-0.108-0.198-0.213-0.198h-3.31c-0.1,0-0.214,0-0.214,0.198   c0,0.198,0.114,0.198,0.214,0.198H130.903"
       id="path203" /></g><path
     d="M150.752,21.086c0.122-0.202,0.122-0.215,0.122-0.351c0-0.282-0.107-0.282-0.472-0.282h-8.136l-0.202,4.082h0.458  c0.121-2.048,0.674-3.516,3.65-3.516h2.855l-7.071,11.167c-0.136,0.202-0.136,0.216-0.136,0.364c0,0.31,0.095,0.31,0.485,0.31h8.364  l0.311-4.849h-0.444c-0.148,2.519-0.499,4.23-3.853,4.23h-2.991L150.752,21.086"
     id="path205" /><path
     d="M170.428,107.07l-2.33-0.565c-1.118-0.27-1.832-1.253-1.832-2.304c0-1.28,0.983-2.384,2.397-2.384  c3.031,0,3.435,2.977,3.543,3.798c0.013,0.108,0.013,0.216,0.216,0.216c0.242,0,0.242-0.095,0.242-0.431v-3.65  c0-0.311,0-0.445-0.202-0.445c-0.135,0-0.148,0.027-0.27,0.243l-0.646,1.037c-0.539-0.525-1.28-1.279-2.896-1.279  c-2.021,0-3.542,1.603-3.542,3.529c0,1.509,0.956,2.829,2.37,3.327c0.202,0.068,1.132,0.283,2.398,0.593  c0.497,0.135,1.037,0.256,1.549,0.93c0.377,0.471,0.565,1.078,0.565,1.67c0,1.293-0.916,2.6-2.438,2.6  c-0.525,0-1.913-0.095-2.869-0.983c-1.052-0.983-1.104-2.142-1.132-2.802c-0.014-0.175-0.162-0.175-0.216-0.175  c-0.229,0-0.229,0.121-0.229,0.458v3.623c0,0.311,0,0.445,0.188,0.445c0.135,0,0.148-0.041,0.283-0.242  c0-0.014,0.053-0.067,0.646-1.037c0.566,0.619,1.725,1.279,3.341,1.279c2.129,0,3.583-1.778,3.583-3.785  C173.148,108.916,171.95,107.434,170.428,107.07"
     id="path207" /><path
     d="M219.097,140.201c1.765-0.445,3.18-1.549,3.18-2.963c0-1.751-2.074-3.273-4.741-3.273h-5.712v0.565h0.444  c1.388,0,1.428,0.202,1.428,0.849v9.577c0,0.646-0.04,0.849-1.428,0.849h-0.444v0.565c0.66-0.054,1.953-0.054,2.654-0.054  c0.714,0,2.006,0,2.653,0.054v-0.565H216.7c-1.402,0-1.442-0.202-1.442-0.849v-4.593h2.089c0.296,0,1.063,0,1.697,0.606  c0.687,0.66,0.687,1.226,0.687,2.438c0,1.185,0,1.912,0.74,2.6c0.755,0.66,1.752,0.768,2.29,0.768c1.415,0,1.725-1.495,1.725-2.007  c0-0.108,0-0.31-0.229-0.31c-0.203,0-0.203,0.175-0.216,0.296c-0.108,1.293-0.755,1.616-1.199,1.616  c-0.89,0-1.037-0.929-1.293-2.613l-0.242-1.455C220.983,141.144,220.094,140.538,219.097,140.201 M215.258,139.958v-4.701  c0-0.417,0-0.646,0.404-0.7c0.176-0.027,0.7-0.027,1.064-0.027c1.644,0,3.677,0.067,3.677,2.708c0,1.252-0.431,2.721-3.125,2.721  H215.258z"
     id="path209" /><path
     d="M240.328,68.286c2.142-0.97,3.689-3.287,3.689-6.035c0-3.705-2.747-6.654-6.047-6.654c-3.26,0-6.035,2.909-6.035,6.654  c0,3.664,2.747,6.56,6.048,6.56c0.565,0,1.198-0.108,1.725-0.269c0.283,1.724,0.524,3.394,2.223,3.394  c1.846,0,2.195-2.424,2.195-3.34c0-0.189,0-0.391-0.202-0.391c-0.162,0-0.175,0.148-0.202,0.337  c-0.107,0.97-0.862,1.522-1.644,1.522C241.217,70.063,240.759,69.444,240.328,68.286 M239.587,67.935  c-0.62,0.351-1.199,0.417-1.604,0.417c-0.93,0-1.063-0.835-1.063-1.104c0-0.525,0.377-1.131,1.077-1.131  C238.98,66.117,239.384,66.884,239.587,67.935z M236.771,68.11c-0.982-0.35-3.017-1.684-3.017-5.859  c0-4.728,2.546-6.196,4.217-6.196c1.765,0,4.229,1.562,4.229,6.196c0,1.414-0.216,3.974-2.142,5.388  c-0.403-1.01-0.982-1.926-2.061-1.926c-0.916,0-1.482,0.781-1.482,1.536C236.515,67.733,236.744,68.083,236.771,68.11z"
     id="path211" /><g
     id="g213"><defs
       id="defs215"><rect
         id="SVGID_13_"
         x="165.107"
         y="68.516"
         width="5.46"
         height="8.736" /></defs><clipPath
       id="SVGID_14_"><use
         xlink:href="#SVGID_13_"
         overflow="visible"
         id="use219" /></clipPath><g
       clip-path="url(#SVGID_14_)"
       id="g221"><path
         d="M168.752,76.137c-0.026,0.118-0.053,0.196-0.053,0.287c0,0.118,0,0.209,0.627,0.209c0.209,0,0.34,0,0.34,0.144    c0,0.261-0.17,0.261-0.235,0.261c-0.431,0-0.901-0.039-1.345-0.039c-0.432,0-0.889,0.039-1.307,0.039    c-0.17,0-0.17-0.13-0.17-0.144c0-0.261,0.131-0.261,0.301-0.261c0.731-0.013,0.836-0.065,0.94-0.431    c0.039-0.117,0.47-1.881,0.588-2.338c-0.471,0.47-0.979,0.784-1.541,0.784c-0.954,0-1.725-0.81-1.725-2.09    c0-1.894,1.606-3.827,3.147-3.827c0.418,0,0.928,0.209,1.215,0.914c0.223-0.379,0.745-0.901,0.889-0.901    c0.091,0,0.13,0.079,0.13,0.131L168.752,76.137z M168.595,73.159c0.039-0.052,0.758-2.913,0.758-2.991    c0-0.091-0.183-1.149-1.032-1.149c-0.535,0-1.214,0.549-1.619,1.515c-0.222,0.548-0.601,1.972-0.601,2.599    c0,0.222,0.052,1.228,0.836,1.228C167.668,74.361,168.399,73.525,168.595,73.159z"
         id="path223" /></g></g><g
     id="g225"><defs
       id="defs227"><rect
         id="SVGID_15_"
         x="103.467"
         y="194.741"
         width="41.43"
         height="12.889" /></defs><clipPath
       id="SVGID_16_"><use
         xlink:href="#SVGID_15_"
         overflow="visible"
         id="use231" /></clipPath><g
       clip-path="url(#SVGID_16_)"
       id="g233"><path
         d="M105.998,207.572c-0.109,0-1.056-0.715-1.716-2.068c-0.605-1.243-0.727-2.574-0.727-3.432    c0-0.925,0.132-2.146,0.693-3.355c0.649-1.397,1.64-2.146,1.749-2.146c0.066,0,0.11,0.033,0.11,0.109c0,0.033,0,0.056-0.144,0.188    c-1.353,1.375-1.771,3.289-1.771,5.204c0,1.683,0.352,3.762,1.727,5.148c0.188,0.187,0.188,0.209,0.188,0.242    C106.108,207.54,106.064,207.572,105.998,207.572z"
         id="path235" /></g><g
       clip-path="url(#SVGID_16_)"
       id="g237"><path
         d="M108.044,202.292c-0.187,0-0.385,0-0.385-0.22c0-0.221,0.198-0.221,0.385-0.221h5.952c0.188,0,0.385,0,0.385,0.221    c0,0.22-0.197,0.22-0.385,0.22H108.044z"
         id="path239" /></g><g
       clip-path="url(#SVGID_16_)"
       id="g241"><path
         d="M118.135,200.125c1.222,0,2.2,1.056,2.2,2.453c0,1.452-1.045,2.486-2.266,2.486c-1.023,0-2.3-0.781-2.3-3.719    c0-2.432,1.485-3.851,2.894-3.851c0.913,0,1.397,0.528,1.397,1.188c0,0.429-0.33,0.528-0.506,0.528    c-0.242,0-0.507-0.165-0.507-0.507c0-0.495,0.44-0.495,0.605-0.495c-0.242-0.374-0.704-0.439-0.968-0.439    c-0.562,0-1.926,0.396-1.926,3.179v0.265C116.979,200.686,117.387,200.125,118.135,200.125z M119.158,204.041    c0.187-0.396,0.187-0.946,0.187-1.474c0-0.539,0-1.101-0.197-1.508c-0.342-0.682-0.848-0.682-1.023-0.682    c-0.99,0-1.342,1.1-1.342,1.958c0,0.198,0,1.078,0.197,1.595c0.066,0.165,0.396,0.825,1.09,0.825    C118.322,204.756,118.828,204.701,119.158,204.041z"
         id="path243" /></g><g
       clip-path="url(#SVGID_16_)"
       id="g245"><path
         d="M124.778,199.669c0,0.331,0.077,0.331,0.577,0.331v0.277c-0.069-0.008-0.601-0.031-0.886-0.031    c-0.323,0-0.863,0.031-0.878,0.031V200c0.5,0,0.577,0,0.577-0.331v-1.757c0-0.394-0.069-0.817-0.608-0.817    c-0.509,0-1.148,0.378-1.148,1.187v1.388c0,0.331,0.077,0.331,0.578,0.331v0.277c-0.069-0.008-0.601-0.031-0.886-0.031    c-0.324,0-0.863,0.031-0.879,0.031V200c0.501,0,0.578,0,0.578-0.331v-3.945c0-0.378-0.062-0.432-0.578-0.432v-0.277l1.156-0.085    v2.65h0.008c0.169-0.293,0.547-0.701,1.232-0.701c0.824,0,1.156,0.394,1.156,1.063V199.669z"
         id="path247" /></g><g
       clip-path="url(#SVGID_16_)"
       id="g249"><path
         d="M127.456,206.945c-0.056,0-0.11-0.044-0.11-0.121c0-0.032,0-0.055,0.121-0.176c0.363-0.363,0.748-1.023,0.748-1.837    c0-0.154-0.011-0.165-0.021-0.165c-0.012,0-0.022,0.011-0.056,0.033c-0.109,0.099-0.253,0.143-0.385,0.143    c-0.363,0-0.583-0.286-0.583-0.583c0-0.309,0.22-0.583,0.583-0.583c0.429,0,0.704,0.429,0.704,1.155    C128.457,206.099,127.577,206.945,127.456,206.945z"
         id="path251" /></g><g
       clip-path="url(#SVGID_16_)"
       id="g253"><path
         d="M135.768,203.788c-0.483,1.045-1.32,1.276-1.914,1.276c-0.539,0-1.342-0.22-1.815-1.111    c-0.451-0.836-0.495-1.826-0.495-2.651c0-0.88,0.056-1.738,0.407-2.497c0.451-1.023,1.254-1.31,1.914-1.31    c0.463,0,1.364,0.176,1.871,1.232c0.385,0.813,0.439,1.694,0.439,2.574C136.175,202.171,136.12,203.029,135.768,203.788z     M135.141,203.447c0.121-0.704,0.121-1.452,0.121-2.277c0-0.693,0-1.529-0.11-2.146c-0.209-1.089-0.935-1.287-1.298-1.287    c-0.274,0-1.1,0.099-1.309,1.408c-0.089,0.594-0.089,1.32-0.089,2.024c0,0.648,0,1.661,0.121,2.321    c0.198,1.056,0.848,1.331,1.276,1.331C134.349,204.822,134.976,204.492,135.141,203.447z"
         id="path255" /></g><g
       clip-path="url(#SVGID_16_)"
       id="g257"><path
         d="M138.867,200c-0.909,0-1.656-0.725-1.656-1.657c0-0.901,0.731-1.648,1.656-1.648c0.909,0,1.657,0.725,1.657,1.656    C140.524,199.253,139.792,200,138.867,200z M140.146,198.343c0-0.686-0.555-1.271-1.279-1.271c-0.709,0-1.279,0.562-1.279,1.278    c0,0.687,0.555,1.271,1.279,1.271C139.576,199.622,140.146,199.06,140.146,198.343z"
         id="path259" /></g><g
       clip-path="url(#SVGID_16_)"
       id="g261"><path
         d="M144.163,205.428c-0.649,1.396-1.64,2.145-1.749,2.145c-0.066,0-0.11-0.044-0.11-0.109c0-0.033,0-0.056,0.144-0.188    c1.364-1.386,1.771-3.322,1.771-5.203c0-2.3-0.627-4.049-1.705-5.138c-0.209-0.198-0.209-0.221-0.209-0.254    c0-0.065,0.044-0.109,0.11-0.109c0.109,0,1.056,0.715,1.716,2.068c0.605,1.243,0.727,2.574,0.727,3.433    C144.856,202.996,144.725,204.217,144.163,205.428z"
         id="path263" /></g></g><g
     id="g265"><defs
       id="defs267"><rect
         id="SVGID_17_"
         x="20.584"
         y="144.438"
         width="33.145"
         height="12.889" /></defs><clipPath
       id="SVGID_18_"><use
         xlink:href="#SVGID_17_"
         overflow="visible"
         id="use271" /></clipPath><g
       clip-path="url(#SVGID_18_)"
       id="g273"><path
         d="M23.282,157.27c-0.109,0-1.056-0.715-1.716-2.068c-0.605-1.243-0.727-2.574-0.727-3.432c0-0.925,0.132-2.146,0.693-3.355    c0.649-1.397,1.64-2.146,1.749-2.146c0.066,0,0.11,0.033,0.11,0.109c0,0.033,0,0.056-0.144,0.188    c-1.353,1.375-1.771,3.289-1.771,5.204c0,1.683,0.352,3.762,1.727,5.148c0.188,0.187,0.188,0.209,0.188,0.242    C23.393,157.237,23.349,157.27,23.282,157.27z"
         id="path275" /><path
         d="M28.675,153.485c-0.483,1.045-1.32,1.276-1.914,1.276c-0.539,0-1.342-0.22-1.815-1.111    c-0.451-0.836-0.495-1.826-0.495-2.651c0-0.88,0.056-1.738,0.407-2.497c0.451-1.023,1.254-1.31,1.914-1.31    c0.463,0,1.364,0.176,1.871,1.232c0.385,0.814,0.439,1.694,0.439,2.574C29.082,151.868,29.027,152.727,28.675,153.485z     M28.048,153.145c0.121-0.704,0.121-1.452,0.121-2.277c0-0.693,0-1.529-0.11-2.146c-0.209-1.089-0.935-1.287-1.298-1.287    c-0.275,0-1.1,0.099-1.309,1.408c-0.089,0.594-0.089,1.32-0.089,2.024c0,0.648,0,1.661,0.121,2.321    c0.198,1.056,0.848,1.331,1.276,1.331C27.256,154.52,27.883,154.189,28.048,153.145z"
         id="path277" /></g><g
       clip-path="url(#SVGID_18_)"
       id="g279"><path
         d="M33.505,149.367c0,0.331,0.077,0.331,0.577,0.331v0.277c-0.069-0.008-0.601-0.031-0.886-0.031    c-0.323,0-0.863,0.031-0.878,0.031v-0.277c0.5,0,0.577,0,0.577-0.331v-1.757c0-0.394-0.069-0.817-0.608-0.817    c-0.509,0-1.148,0.378-1.148,1.187v1.388c0,0.331,0.077,0.331,0.578,0.331v0.277c-0.069-0.008-0.601-0.031-0.886-0.031    c-0.324,0-0.863,0.031-0.879,0.031v-0.277c0.501,0,0.578,0,0.578-0.331v-3.945c0-0.378-0.062-0.432-0.578-0.432v-0.277    l1.156-0.085v2.65h0.008c0.169-0.293,0.547-0.701,1.232-0.701c0.824,0,1.156,0.394,1.156,1.063V149.367z"
         id="path281" /></g><g
       clip-path="url(#SVGID_18_)"
       id="g283"><path
         d="M36.18,156.643c-0.056,0-0.11-0.044-0.11-0.121c0-0.032,0-0.055,0.121-0.176c0.363-0.363,0.748-1.023,0.748-1.837    c0-0.154-0.011-0.165-0.021-0.165c-0.012,0-0.022,0.011-0.056,0.033c-0.109,0.099-0.253,0.143-0.385,0.143    c-0.363,0-0.583-0.286-0.583-0.583c0-0.309,0.22-0.583,0.583-0.583c0.429,0,0.704,0.429,0.704,1.155    C37.181,155.796,36.301,156.643,36.18,156.643z"
         id="path285" /></g><g
       clip-path="url(#SVGID_18_)"
       id="g287"><path
         d="M44.492,153.485c-0.483,1.045-1.32,1.276-1.914,1.276c-0.539,0-1.342-0.22-1.815-1.111    c-0.451-0.836-0.495-1.826-0.495-2.651c0-0.88,0.056-1.738,0.407-2.497c0.451-1.023,1.254-1.31,1.914-1.31    c0.463,0,1.364,0.176,1.871,1.232c0.385,0.814,0.439,1.694,0.439,2.574C44.899,151.868,44.845,152.727,44.492,153.485z     M43.865,153.145c0.121-0.704,0.121-1.452,0.121-2.277c0-0.693,0-1.529-0.11-2.146c-0.209-1.089-0.935-1.287-1.298-1.287    c-0.274,0-1.1,0.099-1.309,1.408c-0.089,0.594-0.089,1.32-0.089,2.024c0,0.648,0,1.661,0.121,2.321    c0.198,1.056,0.848,1.331,1.276,1.331C43.073,154.52,43.7,154.189,43.865,153.145z"
         id="path289" /></g><g
       clip-path="url(#SVGID_18_)"
       id="g291"><path
         d="M47.592,149.698c-0.909,0-1.656-0.725-1.656-1.657c0-0.901,0.731-1.648,1.656-1.648c0.909,0,1.657,0.725,1.657,1.656    C49.249,148.951,48.517,149.698,47.592,149.698z M48.871,148.041c0-0.686-0.555-1.271-1.279-1.271    c-0.709,0-1.279,0.562-1.279,1.278c0,0.687,0.555,1.271,1.279,1.271C48.301,149.32,48.871,148.758,48.871,148.041z"
         id="path293" /></g><g
       clip-path="url(#SVGID_18_)"
       id="g295"><path
         d="M52.888,155.125c-0.649,1.396-1.64,2.145-1.749,2.145c-0.066,0-0.11-0.044-0.11-0.109c0-0.033,0-0.056,0.144-0.188    c1.364-1.386,1.771-3.322,1.771-5.203c0-2.3-0.627-4.049-1.705-5.138c-0.209-0.198-0.209-0.221-0.209-0.254    c0-0.065,0.044-0.109,0.11-0.109c0.109,0,1.056,0.715,1.716,2.068c0.605,1.243,0.727,2.574,0.727,3.433    C53.581,152.693,53.449,153.914,52.888,155.125z"
         id="path297" /></g></g><line
     fill="none"
     stroke="#EE0000"
     stroke-width="2"
     x1="145.815"
     y1="158.403"
     x2="186.386"
     y2="104.375"
     id="line309" /><g
     id="g311"><defs
       id="defs313"><rect
         id="SVGID_19_"
         x="157.29"
         y="127.399"
         width="4.962"
         height="5.623" /></defs><clipPath
       id="SVGID_20_"><use
         xlink:href="#SVGID_19_"
         overflow="visible"
         id="use317" /></clipPath><g
       clip-path="url(#SVGID_20_)"
       id="g319"><path
         fill="#FF0000"
         d="M161.314,129.922c0.415,0.332,0.651,0.747,0.651,1.257c0,1.731-1.825,1.731-2.193,1.731    c-0.236,0-0.854,0-1.398-0.379c-0.036,0.023-0.297,0.201-0.309,0.201c-0.249,0.178-0.272,0.178-0.355,0.178    c-0.213,0-0.213-0.107-0.213-0.332v-1.292c0-0.272,0-0.344,0.284-0.344c0.166,0,0.225,0,0.284,0.166    c0.143,0.51,0.45,1.375,1.707,1.375c0.261,0,1.352,0,1.352-0.89c0-0.699-0.889-0.854-1.315-0.924    c-0.913-0.166-1.363-0.237-1.838-0.652c-0.237-0.202-0.474-0.521-0.474-0.996c0-1.553,1.825-1.553,2.181-1.553    c0.475,0,0.89,0.071,1.197,0.225c0.463-0.225,0.486-0.225,0.534-0.225c0.213,0,0.213,0.106,0.213,0.332v0.949    c0,0.272,0,0.332-0.284,0.332c-0.249,0-0.261-0.06-0.272-0.237c-0.06-0.652-0.51-0.996-1.399-0.996c-0.226,0-1.328,0-1.328,0.735    c0,0.557,0.771,0.688,1.21,0.771C160.473,129.507,160.852,129.579,161.314,129.922z"
         id="path321" /></g></g><g
     id="g323"><defs
       id="defs325"><rect
         id="SVGID_21_"
         x="0.358"
         y="148.004"
         width="16.133"
         height="13.444" /></defs><clipPath
       id="SVGID_22_"><use
         xlink:href="#SVGID_21_"
         overflow="visible"
         id="use329" /></clipPath><g
       clip-path="url(#SVGID_22_)"
       id="g331"><path
         d="M12.479,149.976c0.154-0.173,0.367-0.424,0.367-0.694c0-0.54-0.599-0.578-0.771-0.598    c-0.136-0.02-0.232-0.077-0.232-0.212c0-0.386,0.251-0.386,0.367-0.386c0.694,0,1.427,0.058,2.141,0.058    c0.598,0,1.234-0.058,1.812-0.058c0.251,0,0.251,0.192,0.251,0.212c0,0.366-0.173,0.366-0.424,0.386    c-1.157,0.058-1.891,0.521-2.45,0.983c-0.617,0.54-2.642,2.835-3.953,4.186c0.443,1.157,1.735,4.166,2.488,5.96    c0.327,0.771,0.366,0.829,1.658,0.849c0.154,0,0.348,0,0.348,0.231c0,0.366-0.232,0.366-0.367,0.366    c-0.482,0-1.658-0.058-2.141-0.058c-0.54,0-1.891,0.058-2.43,0.058c-0.078,0-0.29,0-0.29-0.231c0-0.328,0.174-0.348,0.386-0.366    c0.752-0.077,1.119-0.405,1.119-0.56c0-0.039-0.02-0.058-0.097-0.27l-1.948-4.61l-1.735,1.891l-1.968,2.083    c-0.231,0.25-0.521,0.559-0.521,0.867c0,0.541,0.598,0.579,0.771,0.599c0.038,0,0.231,0.019,0.231,0.212    c0,0.386-0.231,0.386-0.348,0.386c-0.693,0-1.446-0.058-2.16-0.058c-0.598,0-1.234,0.058-1.812,0.058    c-0.251,0-0.251-0.192-0.251-0.212c0-0.367,0.174-0.367,0.425-0.386c0.983-0.058,1.89-0.366,2.835-1.389l0.251-0.212l4.069-4.379    l-2.276-5.381c-0.173-0.424-0.289-0.617-1.446-0.617c-0.251,0-0.443,0-0.443-0.212c0-0.386,0.231-0.386,0.347-0.386    c0.482,0,1.679,0.058,2.16,0.058c0.811,0,1.64-0.058,2.431-0.058c0.058,0,0.289,0,0.289,0.231c0,0.327-0.192,0.347-0.386,0.366    c-0.81,0.077-1.138,0.443-1.138,0.56c0,0.019,0.038,0.097,0.097,0.251l1.62,3.838L12.479,149.976z"
         id="path333" /></g></g><g
     id="g335"><path
       d="M155.508,208.576c-0.154,0.174-0.174,0.231-0.271,0.598l-0.675,2.72c-0.097,0.405-0.271,1.08-0.271,1.215   c0,0.231,0.116,0.271,0.521,0.309c0.328,0.039,0.694,0.039,0.732,0.039c0.367,0,0.54,0,0.54,0.212c0,0.386-0.231,0.386-0.366,0.386   c-0.54,0-1.929-0.058-2.469-0.058s-1.891,0.058-2.43,0.058c-0.039,0-0.271,0-0.271-0.212c0-0.386,0.154-0.386,0.521-0.386   c1.543-0.02,1.562-0.077,1.813-1.139c0.097-0.347,0.868-3.452,0.868-3.51s-0.059-0.27-0.078-0.328l-2.372-6.346   c-0.173-0.481-0.251-0.655-1.407-0.655c-0.251,0-0.444,0-0.444-0.212c0-0.386,0.251-0.386,0.366-0.386   c0.482,0,1.679,0.058,2.16,0.058c0.541,0,1.891-0.058,2.431-0.058c0.058,0,0.289,0,0.289,0.212c0,0.386-0.192,0.386-0.463,0.386   c-0.192,0-1.138,0-1.138,0.463c0,0.02,0,0.058,0.115,0.328l2.122,5.728l4.475-5.149c0.077-0.097,0.521-0.598,0.521-0.926   c0-0.405-0.559-0.443-0.694-0.443c-0.097,0-0.289-0.02-0.289-0.231c0-0.366,0.251-0.366,0.366-0.366   c0.617,0,1.293,0.058,1.929,0.058c0.521,0,1.08-0.058,1.582-0.058c0.154,0,0.251,0.077,0.251,0.231   c0,0.347-0.174,0.347-0.387,0.366c-1.311,0.097-1.947,0.752-2.526,1.331l-0.27,0.27L155.508,208.576z"
       id="path337" /><path
       d="M180.406,213.726c-0.135,0.309-0.154,0.328-0.598,0.328h-10.011c-0.366,0-0.539,0-0.539-0.231   c0-0.366,0.212-0.366,0.539-0.366c1.524,0,1.562-0.154,1.756-0.906l2.546-10.203c0.097-0.348,0.097-0.386,0.097-0.463   c0-0.348-0.541-0.348-1.254-0.348c-0.367,0-0.54,0-0.54-0.212c0-0.386,0.192-0.386,0.578-0.386h9.74c0.482,0,0.579,0,0.521,0.521   l-0.386,3.337c-0.038,0.366-0.058,0.482-0.27,0.482c-0.174,0-0.231-0.135-0.231-0.231s0.02-0.231,0.02-0.348   c0.076-0.521,0.076-0.56,0.076-1.022c0-1.581-0.578-2.141-2.932-2.141H176.8c-0.849,0-0.868,0.077-1.042,0.752l-1.157,4.648h1.813   c1.774,0,2.121-0.443,2.526-1.909c0.058-0.231,0.097-0.347,0.27-0.347c0.136,0,0.232,0.096,0.232,0.212l-1.1,4.513   c-0.077,0.289-0.135,0.386-0.289,0.386c-0.174,0-0.251-0.115-0.251-0.212c0-0.058,0.019-0.115,0.058-0.212   c0.135-0.579,0.135-0.811,0.135-0.945c0-0.482,0-0.888-1.639-0.888h-1.91l-1.312,5.266c-0.097,0.348-0.097,0.386-0.097,0.443   c0,0.154,0.059,0.174,0.251,0.193c0.116,0.02,0.154,0.02,0.425,0.02h2.815c3.298,0,4.012-1.293,5.266-4.146   c0.038-0.116,0.077-0.232,0.251-0.232c0.231,0,0.231,0.193,0.231,0.213c0,0.038-0.058,0.174-0.097,0.27L180.406,213.726z"
       id="path339" /></g><line
     fill="none"
     stroke="#000000"
     stroke-miterlimit="10"
     x1="158.29"
     y1="216.917"
     x2="171.567"
     y2="196.417"
     id="line341" /><g
     id="g343"><defs
       id="defs345"><rect
         id="SVGID_23_"
         x="53.306"
         y="48.823"
         width="11.991"
         height="12.492" /></defs><clipPath
       id="SVGID_24_"><use
         xlink:href="#SVGID_23_"
         overflow="visible"
         id="use349" /></clipPath><g
       clip-path="url(#SVGID_24_)"
       id="g351"><path
         d="M65.101,53.044h-0.448c-0.251-2.884-0.52-3.475-3.225-3.475c-0.34,0-0.824,0-1.021,0.036    c-0.323,0.072-0.323,0.323-0.323,0.681v9.441c0,0.609,0,0.86,1.881,0.86h0.716v0.555c-0.734-0.054-2.58-0.054-3.403-0.054    c-0.824,0-2.651,0-3.386,0.054v-0.555h0.716c1.881,0,1.881-0.251,1.881-0.86v-9.441c0-0.412,0-0.609-0.376-0.681    c-0.179-0.036-0.645-0.036-0.967-0.036c-2.705,0-2.974,0.591-3.225,3.475h-0.448l0.34-4.03h10.945L65.101,53.044z"
         id="path353" /></g></g><path
     fill="none"
     stroke="#000000"
     stroke-width="0.8"
     d="M432.423,111.698"
     id="path355" /><path
     fill="none"
     stroke="#000000"
     stroke-width="0.8"
     d="M475.72,183.653c-8.197-42.343-24.857-71.955-43.297-71.955  c-32.639,0-62.609,11.125-86.133,29.694C377.323,115.906,432.802,134.703,475.72,183.653L475.72,183.653z"
     id="path357" /><path
     fill="none"
     stroke="#000000"
     stroke-width="0.8"
     d="M377.883,122.7c4.792,3.101-0.116,7.395-0.116,7.395"
     id="path359" /><path
     fill="none"
     stroke="#000000"
     stroke-width="0.8"
     d="M455.251,163.057c3.137-10.787,13.152-7.639,13.188-7.631"
     id="path361" /><path
     fill="none"
     stroke="#000000"
     stroke-width="0.8"
     d="M418.7,112.358c6.512,10.012,24.938,9.911,29.676,7.103"
     id="path363" /><g
     id="g365"><defs
       id="defs367"><rect
         id="SVGID_25_"
         x="434.151"
         y="97.453"
         width="9.391"
         height="12.354" /></defs><clipPath
       id="SVGID_26_"><use
         xlink:href="#SVGID_25_"
         overflow="visible"
         id="use371" /></clipPath><path
       clip-path="url(#SVGID_26_)"
       d="M443.073,98.109c0.119-0.197,0.119-0.211,0.119-0.343c0-0.276-0.105-0.276-0.461-0.276h-7.949   l-0.197,3.988h0.447c0.119-2.001,0.658-3.436,3.566-3.436h2.791l-6.91,10.91c-0.131,0.197-0.131,0.209-0.131,0.354   c0,0.303,0.092,0.303,0.473,0.303h8.172l0.305-4.737h-0.436c-0.145,2.461-0.486,4.132-3.764,4.132h-2.922L443.073,98.109"
       id="path373" /></g><g
     id="g375"><defs
       id="defs377"><rect
         id="SVGID_27_"
         x="331.248"
         y="139.486"
         width="11.86"
         height="12.355" /></defs><clipPath
       id="SVGID_28_"><use
         xlink:href="#SVGID_27_"
         overflow="visible"
         id="use381" /></clipPath><path
       clip-path="url(#SVGID_28_)"
       d="M342.578,139.631h-10.843l-0.342,3.986h0.447c0.25-2.855,0.513-3.435,3.184-3.435   c0.33,0,0.79,0,0.961,0.026c0.382,0.079,0.382,0.276,0.382,0.685v9.343c0,0.605,0,0.855-1.868,0.855h-0.711v0.553   c0.724-0.053,2.539-0.053,3.355-0.053s2.645,0,3.369,0.053v-0.553h-0.711c-1.855,0-1.855-0.25-1.855-0.855v-9.343   c0-0.355,0-0.605,0.316-0.685c0.197-0.026,0.67-0.026,1.012-0.026c2.686,0,2.948,0.579,3.198,3.435h0.435L342.578,139.631"
       id="path383" /></g><g
     id="g385"><defs
       id="defs387"><rect
         id="SVGID_29_"
         x="477.946"
         y="187.808"
         width="8.396"
         height="13.343" /></defs><clipPath
       id="SVGID_30_"><use
         xlink:href="#SVGID_29_"
         overflow="visible"
         id="use391" /></clipPath><path
       clip-path="url(#SVGID_30_)"
       d="M483.354,193.868l-2.275-0.553c-1.107-0.264-1.791-1.225-1.791-2.25   c0-1.238,0.961-2.33,2.344-2.33c2.959,0,3.355,2.922,3.461,3.711c0.012,0.105,0.012,0.211,0.209,0.211   c0.238,0,0.238-0.079,0.238-0.422v-3.565c0-0.304,0-0.421-0.197-0.421c-0.133,0-0.145,0.013-0.277,0.224l-0.617,1.013   c-0.527-0.513-1.264-1.236-2.844-1.236c-1.961,0-3.461,1.553-3.461,3.435c0,1.474,0.947,2.776,2.33,3.25   c0.197,0.065,1.105,0.29,2.342,0.579c0.486,0.131,1.014,0.25,1.514,0.908c0.369,0.461,0.553,1.053,0.553,1.632   c0,1.263-0.895,2.54-2.383,2.54c-0.514,0-1.867-0.08-2.803-0.961c-1.025-0.948-1.078-2.093-1.105-2.725   c-0.014-0.184-0.158-0.184-0.209-0.184c-0.238,0-0.238,0.131-0.238,0.447v3.553c0,0.303,0,0.421,0.197,0.421   c0.131,0,0.145-0.04,0.277-0.224c0-0.026,0.053-0.078,0.631-1.014c0.553,0.605,1.684,1.237,3.264,1.237   c2.078,0,3.5-1.737,3.5-3.685C486.013,195.685,484.843,194.224,483.354,193.868"
       id="path393" /></g><g
     id="g395"><defs
       id="defs397"><rect
         id="SVGID_31_"
         x="423.884"
         y="82.455"
         width="29.924"
         height="10.771" /></defs><clipPath
       id="SVGID_32_"><use
         xlink:href="#SVGID_31_"
         overflow="visible"
         id="use401" /></clipPath><path
       clip-path="url(#SVGID_32_)"
       d="M427.05,83.311c-0.127-0.17-0.148-0.191-0.414-0.191h-2.434v0.446h0.416   c0.211,0,0.498,0.011,0.711,0.032c0.328,0.042,0.34,0.053,0.34,0.329v7.479c0,0.383,0,1.062-1.467,1.062v0.436   c0.5-0.011,1.201-0.043,1.668-0.043c0.479,0,1.18,0.032,1.678,0.043v-0.436c-1.475,0-1.475-0.68-1.475-1.062v-7.459   c0.074,0.074,0.084,0.086,0.148,0.182l5.842,8.595c0.129,0.17,0.139,0.181,0.244,0.181c0.203,0,0.203-0.096,0.203-0.372v-7.904   c0-0.394,0-1.062,1.477-1.062v-0.446c-0.51,0.021-1.211,0.043-1.68,0.043c-0.477,0-1.178-0.021-1.678-0.043v0.446   c1.477,0,1.477,0.669,1.477,1.062v6.119L427.05,83.311"
       id="path403" /><path
       clip-path="url(#SVGID_32_)"
       d="M435.263,88.006c0,2.965,2.316,5.217,4.982,5.217c2.336,0,3.74-1.986,3.74-3.654   c0-0.139,0-0.245-0.182-0.245c-0.16,0-0.16,0.085-0.18,0.233c-0.107,2.051-1.648,3.22-3.209,3.22c-0.871,0-3.676-0.488-3.676-4.759   c0-4.282,2.795-4.771,3.664-4.771c1.562,0,2.838,1.307,3.125,3.4c0.031,0.201,0.031,0.244,0.232,0.244   c0.225,0,0.225-0.043,0.225-0.34v-3.399c0-0.245,0-0.341-0.16-0.341c-0.053,0-0.117,0-0.223,0.17l-0.723,1.053   c-0.531-0.51-1.254-1.223-2.635-1.223C437.567,82.811,435.263,85.085,435.263,88.006"
       id="path405" /><path
       clip-path="url(#SVGID_32_)"
       d="M448.001,88.006v-3.867c0-0.478,0.031-0.573,0.701-0.573h1.275   c2.283,0,2.283,1.52,2.283,2.221c0,0.669,0,2.22-2.283,2.22H448.001 M448.044,88.378h2.422c1.721,0,3.271-1.157,3.271-2.592   c0-1.403-1.424-2.667-3.389-2.667h-5.057v0.446h0.34c1.105,0,1.137,0.159,1.137,0.669v7.555c0,0.52-0.031,0.68-1.137,0.68h-0.34   v0.436c0.498-0.043,1.561-0.043,2.104-0.043c0.553,0,1.625,0,2.125,0.043v-0.436h-0.342c-1.104,0-1.135-0.16-1.135-0.68V88.378z"
       id="path407" /></g><path
     fill="#007400"
     d="M386.534,125.979l1.939-3.266l0.315,3.266H386.534 M385.347,127.428c-0.395,0.658-0.783,0.798-1.215,0.827  c-0.117,0.008-0.212,0.008-0.212,0.198c0,0.059,0.052,0.109,0.132,0.109c0.264,0,0.57-0.029,0.85-0.029  c0.321,0,0.674,0.029,0.988,0.029c0.059,0,0.184,0,0.184-0.19c0-0.109-0.09-0.117-0.154-0.117c-0.227-0.021-0.469-0.095-0.469-0.344  c0-0.117,0.066-0.228,0.139-0.366l0.754-1.267h2.476c0.021,0.212,0.161,1.552,0.161,1.655c0,0.292-0.514,0.321-0.711,0.321  c-0.139,0-0.233,0-0.233,0.198c0,0.109,0.117,0.109,0.131,0.109c0.411,0,0.835-0.029,1.237-0.029c0.249,0,0.871,0.029,1.113,0.029  c0.059,0,0.183,0,0.183-0.197c0-0.11-0.103-0.11-0.228-0.11c-0.614,0-0.614-0.065-0.644-0.351l-0.601-6.174  c-0.021-0.197-0.021-0.241-0.189-0.241c-0.154,0-0.198,0.073-0.258,0.169L385.347,127.428z"
     id="path409" /><g
     id="g411"><path
       fill="#007400"
       d="M453.888,150.795c0.168,0,0.342,0,0.342-0.197s-0.174-0.197-0.342-0.197h-5.346   c-0.168,0-0.344,0-0.344,0.197s0.176,0.197,0.344,0.197H453.888"
       id="path413" /><path
       fill="#007400"
       d="M456.778,152.963c-0.594,0-0.637-0.762-0.637-0.931c0-0.476,0.285-1.552,0.453-1.962   c0.309-0.732,0.82-1.148,1.23-1.148c0.637,0,0.775,0.797,0.775,0.87c0,0.059-0.541,2.219-0.57,2.263   C457.884,152.326,457.327,152.963,456.778,152.963 M459.509,148.811c0-0.036-0.027-0.095-0.094-0.095   c-0.111,0-0.506,0.396-0.674,0.681c-0.221-0.534-0.602-0.695-0.916-0.695c-1.164,0-2.379,1.465-2.379,2.899   c0,0.966,0.578,1.575,1.303,1.575c0.424,0,0.807-0.235,1.164-0.587c-0.088,0.345-0.416,1.677-0.445,1.765   c-0.082,0.278-0.154,0.314-0.711,0.322c-0.133,0-0.229,0-0.229,0.197c0,0.015,0,0.109,0.133,0.109c0.314,0,0.658-0.028,0.98-0.028   c0.338,0,0.697,0.028,1.018,0.028c0.053,0,0.184,0,0.184-0.197c0-0.109-0.102-0.109-0.256-0.109c-0.477,0-0.477-0.066-0.477-0.154   c0-0.072,0.016-0.131,0.037-0.219L459.509,148.811z"
       id="path415" /></g><g
     id="g417"><path
       fill="#007400"
       d="M424.271,126.5c0.168,0,0.344,0,0.344-0.198s-0.176-0.198-0.344-0.198h-5.346c-0.168,0-0.344,0-0.344,0.198   s0.176,0.198,0.344,0.198H424.271"
       id="path419" /><path
       fill="#007400"
       d="M432.968,122.787c0.088-0.358,0.109-0.454,0.828-0.454c0.256,0,0.336,0,0.336-0.196   c0-0.111-0.109-0.111-0.139-0.111c-0.279,0-0.988,0.029-1.26,0.029c-0.293,0-0.988-0.029-1.273-0.029c-0.08,0-0.191,0-0.191,0.198   c0,0.109,0.088,0.109,0.277,0.109c0.016,0,0.207,0,0.375,0.016c0.176,0.021,0.264,0.029,0.264,0.161   c0,0.035-0.008,0.059-0.037,0.182l-0.592,2.416h-3.01l0.578-2.32c0.088-0.358,0.117-0.454,0.836-0.454c0.254,0,0.328,0,0.328-0.196   c0-0.111-0.104-0.111-0.133-0.111c-0.277,0-0.988,0.029-1.266,0.029c-0.285,0-0.988-0.029-1.273-0.029   c-0.082,0-0.191,0-0.191,0.198c0,0.109,0.088,0.109,0.279,0.109c0.021,0,0.205,0,0.373,0.016c0.184,0.021,0.271,0.029,0.271,0.161   c0,0.035-0.016,0.064-0.045,0.182L426.985,128c-0.102,0.381-0.123,0.462-0.9,0.462c-0.176,0-0.27,0-0.27,0.196   c0,0.111,0.123,0.111,0.139,0.111c0.277,0,0.98-0.029,1.26-0.029c0.203,0,0.424,0.006,0.629,0.006c0.219,0,0.432,0.023,0.645,0.023   c0.072,0,0.197,0,0.197-0.199c0-0.108-0.096-0.108-0.277-0.108c-0.367,0-0.645,0-0.645-0.176c0-0.06,0.021-0.11,0.029-0.169   l0.674-2.709h3.008c-0.41,1.641-0.637,2.578-0.682,2.73c-0.094,0.315-0.283,0.323-0.893,0.323c-0.152,0-0.24,0-0.24,0.196   c0,0.111,0.117,0.111,0.139,0.111c0.277,0,0.98-0.029,1.252-0.029c0.213,0,0.424,0.006,0.637,0.006s0.432,0.023,0.637,0.023   c0.08,0,0.199,0,0.199-0.199c0-0.108-0.09-0.108-0.271-0.108c-0.367,0-0.645,0-0.645-0.176c0-0.06,0.021-0.11,0.029-0.169   L432.968,122.787"
       id="path421" /></g><g
     opacity="0.5"
     id="g423"><defs
       id="defs425"><rect
         id="SVGID_33_"
         x="426.226"
         y="135.229"
         opacity="0.5"
         width="7.082"
         height="7.081" /></defs><clipPath
       id="SVGID_34_"><use
         xlink:href="#SVGID_33_"
         overflow="visible"
         id="use429" /></clipPath><path
       clip-path="url(#SVGID_34_)"
       fill="#FF0000"
       d="M430.374,140.28c-0.078,0.267-0.078,0.3-0.299,0.554   c-0.654,0.821-1.275,1.065-1.686,1.065c-0.754,0-0.965-0.831-0.965-1.408c0-0.755,0.486-2.585,0.832-3.284   c0.453-0.875,1.131-1.43,1.729-1.43c0.977,0,1.188,1.23,1.188,1.32c0,0.088-0.033,0.177-0.045,0.254L430.374,140.28    M431.351,136.41c-0.268-0.555-0.711-0.967-1.375-0.967c-1.754,0-3.605,2.207-3.605,4.383c0,1.408,0.82,2.395,1.986,2.395   c0.299,0,1.041-0.055,1.939-1.12c0.123,0.633,0.643,1.12,1.363,1.12c0.523,0,0.867-0.344,1.109-0.82   c0.256-0.533,0.445-1.453,0.445-1.476c0-0.155-0.135-0.155-0.178-0.155c-0.145,0-0.168,0.057-0.211,0.268   c-0.256,0.975-0.521,1.862-1.133,1.862c-0.408,0-0.453-0.388-0.453-0.688c0-0.333,0.033-0.454,0.199-1.11   c0.166-0.631,0.188-0.775,0.332-1.352l0.533-2.086c0.111-0.422,0.111-0.455,0.111-0.51c0-0.256-0.189-0.41-0.443-0.41   C431.616,135.744,431.394,136.076,431.351,136.41z"
       id="path431" /></g><g
     opacity="0.5"
     id="g433"><defs
       id="defs435"><rect
         id="SVGID_35_"
         x="449.511"
         y="127.38"
         opacity="0.5"
         width="5.832"
         height="10.829" /></defs><clipPath
       id="SVGID_36_"><use
         xlink:href="#SVGID_35_"
         overflow="visible"
         id="use439" /></clipPath><path
       clip-path="url(#SVGID_36_)"
       fill="#FF0000"
       d="M451.142,133.318c0.088-0.332,0.088-0.366,0.223-0.533   c0.73-0.965,1.408-1.197,1.795-1.197c0.533,0,0.943,0.455,0.943,1.408c0,0.888-0.498,2.607-0.766,3.173   c-0.488,1.009-1.186,1.542-1.764,1.542c-0.51,0-1.008-0.4-1.008-1.51c0-0.287,0-0.564,0.244-1.508L451.142,133.318 M452.55,127.662   c0-0.021,0-0.167-0.199-0.167c-0.344,0-1.432,0.122-1.83,0.146c-0.111,0.021-0.277,0.032-0.277,0.299   c0,0.188,0.133,0.188,0.355,0.188c0.721,0,0.754,0.101,0.754,0.244c0,0.111-0.133,0.622-0.211,0.933l-1.23,4.88   c-0.178,0.743-0.234,0.987-0.234,1.508c0,1.42,0.789,2.352,1.896,2.352c1.764,0,3.605-2.229,3.605-4.381   c0-1.363-0.799-2.396-1.984-2.396c-0.699,0-1.309,0.433-1.754,0.898L452.55,127.662z"
       id="path441" /></g><g
     opacity="0.5"
     id="g443"><defs
       id="defs445"><rect
         id="SVGID_37_"
         x="399.643"
         y="116.723"
         opacity="0.5"
         width="6.247"
         height="7.082" /></defs><clipPath
       id="SVGID_38_"><use
         xlink:href="#SVGID_37_"
         overflow="visible"
         id="use449" /></clipPath><path
       clip-path="url(#SVGID_38_)"
       fill="#FF0000"
       d="M404.987,117.871c-0.244,0-0.455,0-0.664,0.211   c-0.234,0.221-0.268,0.477-0.268,0.576c0,0.367,0.268,0.532,0.555,0.532c0.434,0,0.832-0.366,0.832-0.965   c0-0.731-0.699-1.286-1.764-1.286c-2.019,0-4.003,2.141-4.003,4.248c0,1.353,0.865,2.527,2.418,2.527   c2.14,0,3.394-1.584,3.394-1.762c0-0.09-0.088-0.189-0.178-0.189c-0.078,0-0.1,0.022-0.188,0.145   c-1.188,1.486-2.818,1.486-2.996,1.486c-0.941,0-1.342-0.732-1.342-1.631c0-0.621,0.3-2.074,0.799-2.994   c0.465-0.854,1.286-1.498,2.118-1.498C404.2,117.271,404.776,117.473,404.987,117.871"
       id="path451" /></g><g
     opacity="0.5"
     id="g453"><defs
       id="defs455"><rect
         id="SVGID_39_"
         x="444.8"
         y="99.133"
         opacity="0.5"
         width="10.83"
         height="14.579" /></defs><clipPath
       id="SVGID_40_"><use
         xlink:href="#SVGID_39_"
         overflow="visible"
         id="use459" /></clipPath><polyline
       clip-path="url(#SVGID_40_)"
       fill="#FF0000"
       points="452.286,99.326 450.278,101.367 450.556,101.633 452.286,100.113    454.005,101.633 454.282,101.367 452.286,99.326  "
       id="polyline461" /><path
       clip-path="url(#SVGID_40_)"
       fill="#FF0000"
       d="M449.069,109.541l2.939-4.936l0.477,4.936H449.069 M447.272,111.737   c-0.6,1.009-1.188,1.22-1.842,1.265c-0.176,0.011-0.32,0.011-0.32,0.299c0,0.09,0.078,0.156,0.199,0.156   c0.4,0,0.865-0.045,1.287-0.045c0.486,0,1.02,0.045,1.496,0.045c0.09,0,0.277,0,0.277-0.277c0-0.167-0.133-0.178-0.232-0.178   c-0.344-0.033-0.711-0.155-0.711-0.533c0-0.177,0.102-0.344,0.211-0.543l1.143-1.918h3.748c0.035,0.311,0.246,2.351,0.246,2.495   c0,0.454-0.777,0.499-1.076,0.499c-0.211,0-0.355,0-0.355,0.299c0,0.156,0.178,0.156,0.199,0.156c0.621,0,1.266-0.045,1.875-0.045   c0.377,0,1.32,0.045,1.686,0.045c0.088,0,0.277,0,0.277-0.301c0-0.154-0.154-0.154-0.344-0.154c-0.932,0-0.932-0.111-0.977-0.543   l-0.908-9.35c-0.033-0.301-0.033-0.355-0.289-0.355c-0.232,0-0.299,0.1-0.389,0.255L447.272,111.737z"
       id="path463" /></g><g
     opacity="0.5"
     id="g465"><defs
       id="defs467"><rect
         id="SVGID_41_"
         x="341.108"
         y="142.77"
         opacity="0.5"
         width="11.247"
         height="14.578" /></defs><clipPath
       id="SVGID_42_"><use
         xlink:href="#SVGID_41_"
         overflow="visible"
         id="use471" /></clipPath><polyline
       clip-path="url(#SVGID_42_)"
       fill="#FF0000"
       points="348.019,142.963 346.012,145.003 346.277,145.269 348.019,143.75    349.738,145.269 350.004,145.003 348.019,142.963  "
       id="polyline473" /><path
       clip-path="url(#SVGID_42_)"
       fill="#FF0000"
       d="M344.714,156.638c-0.211,0-0.244,0-0.333-0.022   c-0.145-0.012-0.188-0.022-0.188-0.145c0-0.045,0-0.077,0.066-0.344l1.042-4.182h2.829c1.43,0,1.719,1.109,1.719,1.753   c0,1.486-1.33,2.939-3.105,2.939H344.714 M345.39,151.624l0.922-3.716c0.133-0.521,0.166-0.565,0.809-0.565h1.93   c1.32,0,1.631,0.888,1.631,1.542c0,1.32-1.287,2.739-3.105,2.739H345.39z M343.128,155.928c-0.145,0.588-0.178,0.71-1.365,0.71   c-0.254,0-0.398,0-0.398,0.3c0,0.154,0.133,0.154,0.398,0.154h5.347c2.362,0,4.126-1.764,4.126-3.228   c0-1.075-0.865-1.94-2.318-2.106c1.553-0.289,3.127-1.387,3.127-2.818c0-1.098-0.986-2.062-2.783-2.062h-5.024   c-0.288,0-0.432,0-0.432,0.3c0,0.166,0.132,0.166,0.409,0.166c0.033,0,0.322,0,0.578,0.034c0.266,0.021,0.398,0.043,0.398,0.232   c0,0.066-0.012,0.111-0.055,0.288L343.128,155.928z"
       id="path475" /></g><g
     opacity="0.5"
     id="g477"><defs
       id="defs479"><rect
         id="SVGID_43_"
         x="463.181"
         y="181.393"
         opacity="0.5"
         width="11.246"
         height="14.829" /></defs><clipPath
       id="SVGID_44_"><use
         xlink:href="#SVGID_43_"
         overflow="visible"
         id="use483" /></clipPath><polyline
       clip-path="url(#SVGID_44_)"
       fill="#FF0000"
       points="469.835,181.593 467.827,183.622 468.106,183.899 469.835,182.368    471.554,183.899 471.821,183.622 469.835,181.593  "
       id="polyline485" /><path
       clip-path="url(#SVGID_44_)"
       fill="#FF0000"
       d="M474.095,185.331c0-0.057-0.033-0.156-0.166-0.156   c-0.045,0-0.057,0.012-0.223,0.178l-1.053,1.153c-0.133-0.211-0.82-1.331-2.484-1.331c-3.328,0-6.699,3.305-6.699,6.777   c0,2.473,1.764,4.104,4.059,4.104c1.299,0,2.441-0.6,3.229-1.287c1.387-1.23,1.641-2.595,1.641-2.64   c0-0.144-0.145-0.144-0.178-0.144c-0.088,0-0.166,0.021-0.188,0.144c-0.145,0.433-0.488,1.497-1.52,2.362   c-1.031,0.844-1.975,1.099-2.752,1.099c-1.342,0-2.928-0.777-2.928-3.117c0-0.854,0.311-3.271,1.809-5.024   c0.91-1.064,2.318-1.807,3.648-1.807c1.531,0,2.406,1.152,2.406,2.883c0,0.6-0.043,0.609-0.043,0.766   c0,0.144,0.166,0.144,0.232,0.144c0.188,0,0.188-0.022,0.266-0.3L474.095,185.331"
       id="path487" /></g><g
     id="g489"><defs
       id="defs491"><rect
         id="SVGID_45_"
         x="415.124"
         y="145.602"
         width="8.912"
         height="8.912" /></defs><clipPath
       id="SVGID_46_"><use
         xlink:href="#SVGID_45_"
         overflow="visible"
         id="use495" /></clipPath><path
       clip-path="url(#SVGID_46_)"
       fill="#139201"
       d="M417.261,152.644c1.02-1.103,1.562-1.563,2.246-2.149   c0-0.028,1.16-1.02,1.844-1.703c1.787-1.745,2.207-2.652,2.207-2.723c0-0.195-0.184-0.195-0.211-0.195   c-0.139,0-0.195,0.042-0.293,0.209c-0.559,0.908-0.949,1.201-1.41,1.201c-0.445,0-0.67-0.279-0.949-0.601   c-0.363-0.433-0.684-0.81-1.312-0.81c-1.41,0-2.275,1.759-2.275,2.15c0,0.098,0.057,0.209,0.225,0.209   c0.18,0,0.209-0.098,0.25-0.209c0.363-0.865,1.451-0.88,1.605-0.88c0.391,0,0.754,0.126,1.188,0.278   c0.754,0.279,0.949,0.279,1.438,0.279c-0.67,0.811-2.248,2.164-2.609,2.473l-1.691,1.576c-1.283,1.257-1.939,2.332-1.939,2.472   c0,0.181,0.182,0.181,0.223,0.181c0.154,0,0.182-0.027,0.295-0.236c0.445-0.657,1.004-1.174,1.605-1.174   c0.432,0,0.627,0.168,1.088,0.713c0.32,0.404,0.67,0.697,1.215,0.697c1.855,0,2.945-2.387,2.945-2.89   c0-0.098-0.07-0.195-0.223-0.195c-0.168,0-0.209,0.112-0.266,0.251c-0.434,1.215-1.635,1.578-2.248,1.578   c-0.377,0-0.725-0.111-1.117-0.252c-0.643-0.236-0.92-0.32-1.312-0.32C417.735,152.574,417.427,152.574,417.261,152.644"
       id="path497" /></g><g
     id="g499"><defs
       id="defs501"><rect
         id="SVGID_47_"
         x="387.767"
         y="105.352"
         width="7.865"
         height="8.912" /></defs><clipPath
       id="SVGID_48_"><use
         xlink:href="#SVGID_47_"
         overflow="visible"
         id="use505" /></clipPath><path
       clip-path="url(#SVGID_48_)"
       fill="#139201"
       d="M394.607,106.907c-0.53,0.014-0.907,0.433-0.907,0.851   c0,0.266,0.167,0.545,0.586,0.545s0.865-0.32,0.865-1.061c0-0.838-0.809-1.619-2.246-1.619c-2.486,0-3.184,1.926-3.184,2.75   c0,1.466,1.396,1.758,1.939,1.871c0.992,0.182,1.969,0.391,1.969,1.424c0,0.488-0.433,2.08-2.693,2.08c-0.266,0-1.717,0-2.15-1.006   c0.712,0.098,1.187-0.475,1.187-0.991c0-0.433-0.308-0.67-0.698-0.67c-0.488,0-1.047,0.405-1.047,1.242   c0,1.075,1.061,1.829,2.68,1.829c3.059,0,3.798-2.275,3.798-3.127c0-0.67-0.362-1.145-0.587-1.368   c-0.516-0.53-1.061-0.628-1.884-0.796c-0.685-0.139-1.438-0.279-1.438-1.131c0-0.545,0.461-1.689,2.109-1.689   C393.378,106.041,394.328,106.168,394.607,106.907"
       id="path507" /></g><g
     id="g509"><defs
       id="defs511"><rect
         id="SVGID_49_"
         x="463.292"
         y="125.397"
         width="6.291"
         height="12.054" /></defs><clipPath
       id="SVGID_50_"><use
         xlink:href="#SVGID_49_"
         overflow="visible"
         id="use515" /></clipPath><path
       clip-path="url(#SVGID_50_)"
       fill="#139201"
       d="M466.812,129.711h1.758c0.377,0,0.572,0,0.572-0.377   c0-0.209-0.195-0.209-0.529-0.209h-1.662c0.684-2.667,0.783-3.043,0.783-3.155c0-0.321-0.238-0.517-0.547-0.517   c-0.055,0-0.586,0.015-0.752,0.684l-0.74,2.988h-1.773c-0.377,0-0.559,0-0.559,0.363c0,0.223,0.154,0.223,0.518,0.223h1.66   c-1.354,5.348-1.424,5.668-1.424,6.003c0,1.02,0.713,1.731,1.73,1.731c1.912,0,2.988-2.75,2.988-2.891   c0-0.195-0.154-0.195-0.223-0.195c-0.168,0-0.182,0.057-0.279,0.266c-0.811,1.955-1.814,2.416-2.457,2.416   c-0.393,0-0.572-0.252-0.572-0.866c0-0.461,0.027-0.587,0.111-0.907L466.812,129.711"
       id="path517" /></g><g
     id="g519"><defs
       id="defs521"><rect
         id="SVGID_51_"
         x="321.212"
         y="207.421"
         width="53.008"
         height="19.576" /></defs><clipPath
       id="SVGID_52_"><use
         xlink:href="#SVGID_51_"
         overflow="visible"
         id="use525" /></clipPath><path
       clip-path="url(#SVGID_52_)"
       fill="#139201"
       d="M324.933,215.425c-0.305,0.008-0.521,0.25-0.521,0.482   c0,0.152,0.097,0.312,0.338,0.312c0.232,0,0.497-0.176,0.497-0.602c0-0.49-0.466-0.93-1.292-0.93c-1.428,0-1.828,1.105-1.828,1.578   c0,0.844,0.803,1.004,1.115,1.068c0.561,0.111,1.123,0.232,1.123,0.826c0,0.279-0.25,1.186-1.541,1.186   c-0.152,0-0.986,0-1.234-0.568c0.408,0.055,0.682-0.273,0.682-0.578c0-0.248-0.176-0.377-0.4-0.377   c-0.281,0-0.609,0.225-0.609,0.715c0,0.617,0.617,1.049,1.547,1.049c1.756,0,2.174-1.307,2.174-1.795   c0-0.385-0.201-0.658-0.336-0.787c-0.29-0.305-0.603-0.359-1.075-0.457c-0.394-0.088-0.827-0.16-0.827-0.648   c0-0.312,0.258-0.971,1.211-0.971C324.228,214.929,324.765,215.001,324.933,215.425"
       id="path527" /><path
       clip-path="url(#SVGID_52_)"
       fill="#139201"
       d="M336.217,218.032c0.145,0,0.353,0,0.353-0.217s-0.208-0.217-0.369-0.217   h-6.455c-0.16,0-0.369,0-0.369,0.217s0.209,0.217,0.361,0.217H336.217 M336.2,215.931c0.161,0,0.369,0,0.369-0.217   s-0.208-0.217-0.353-0.217h-6.479c-0.152,0-0.361,0-0.361,0.217s0.209,0.217,0.369,0.217H336.2z"
       id="path529" /><path
       clip-path="url(#SVGID_52_)"
       fill="#139201"
       d="M344.316,208.144h1.228c-0.361,1.604-0.457,2.07-0.457,2.791   c0,0.16,0,0.457,0.088,0.826c0.104,0.473,0.225,0.537,0.385,0.537c0.217,0,0.449-0.191,0.449-0.408c0-0.064,0-0.088-0.072-0.242   c-0.312-0.777-0.312-1.482-0.312-1.779c0-0.578,0.08-1.164,0.2-1.725h1.228c0.144,0,0.529,0,0.529-0.369   c0-0.256-0.225-0.256-0.426-0.256h-3.624c-0.241,0-0.649,0-1.131,0.504c-0.377,0.426-0.658,0.924-0.658,0.979   c0,0.01,0,0.105,0.129,0.105c0.088,0,0.112-0.041,0.177-0.129c0.529-0.834,1.154-0.834,1.371-0.834h0.617   c-0.345,1.307-0.93,2.623-1.388,3.602c-0.08,0.168-0.08,0.184-0.08,0.264c0,0.201,0.168,0.289,0.313,0.289   c0.32,0,0.408-0.305,0.537-0.705c0.152-0.498,0.152-0.514,0.297-1.059L344.316,208.144"
       id="path531" /><line
       clip-path="url(#SVGID_52_)"
       fill="none"
       stroke="#139201"
       stroke-width="0.4315"
       stroke-miterlimit="10"
       x1="341.462"
       y1="216.78"
       x2="348.014"
       y2="216.78"
       id="line533" /><path
       clip-path="url(#SVGID_52_)"
       fill="#139201"
       d="M343.394,226.075l1.148-1.113c1.691-1.492,2.342-2.078,2.342-3.16   c0-1.236-0.979-2.102-2.295-2.102c-1.227,0-2.028,1.002-2.028,1.965c0,0.602,0.546,0.602,0.577,0.602   c0.185,0,0.562-0.129,0.562-0.568c0-0.281-0.192-0.57-0.569-0.57c-0.088,0-0.111,0-0.145,0.016   c0.249-0.705,0.835-1.107,1.459-1.107c0.987,0,1.452,0.883,1.452,1.766c0,0.865-0.545,1.723-1.139,2.389l-2.077,2.318   c-0.12,0.121-0.12,0.137-0.12,0.4h4.018l0.306-1.885h-0.273c-0.057,0.33-0.129,0.803-0.24,0.963   c-0.072,0.088-0.787,0.088-1.027,0.088H343.394"
       id="path535" /><path
       clip-path="url(#SVGID_52_)"
       fill="#139201"
       d="M358.849,216.981c0.185,0,0.377,0,0.377-0.217s-0.192-0.217-0.377-0.217   h-5.847c-0.185,0-0.384,0-0.384,0.217s0.199,0.217,0.384,0.217H358.849"
       id="path537" /><path
       clip-path="url(#SVGID_52_)"
       fill="#139201"
       d="M366.548,212.923c0.096-0.385,0.128-0.504,1.146-0.504   c0.329,0,0.409,0,0.409-0.209c0-0.129-0.112-0.129-0.169-0.129c-0.361,0-1.242,0.033-1.604,0.033c-0.32,0-1.115-0.033-1.436-0.033   c-0.08,0-0.209,0-0.209,0.217c0,0.121,0.096,0.121,0.305,0.121c0.024,0,0.225,0,0.41,0.016c0.199,0.023,0.296,0.031,0.296,0.176   c0,0.041-0.017,0.072-0.048,0.209l-1.443,5.807c-0.113,0.424-0.137,0.504-0.986,0.504c-0.186,0-0.297,0-0.297,0.217   c0,0.121,0.104,0.121,0.297,0.121h5.004c0.264,0,0.272,0,0.336-0.186l0.859-2.332c0.039-0.121,0.039-0.145,0.039-0.154   c0-0.039-0.031-0.119-0.128-0.119c-0.096,0-0.112,0.057-0.184,0.225c-0.37,1.002-0.843,2.229-2.72,2.229h-1.01   c-0.152,0-0.178,0-0.24-0.008c-0.113-0.008-0.145-0.023-0.145-0.111c0-0.033,0-0.049,0.055-0.248L366.548,212.923"
       id="path539" /><path
       clip-path="url(#SVGID_52_)"
       fill="#139201"
       d="M372.555,220.149c-0.048,0.217-0.217,0.361-0.386,0.506   c-0.064,0.062-0.368,0.305-0.689,0.305c-0.281,0-0.553-0.201-0.553-0.73c0-0.4,0.216-1.234,0.393-1.531   c0.345-0.609,0.73-0.723,0.938-0.723c0.529,0,0.675,0.578,0.675,0.658c0,0.031-0.017,0.08-0.024,0.104L372.555,220.149    M373.036,218.208c-0.152-0.248-0.41-0.441-0.779-0.441c-0.961,0-1.939,1.066-1.939,2.15c0,0.729,0.488,1.25,1.139,1.25   c0.408,0,0.77-0.232,1.066-0.529c0.145,0.459,0.585,0.529,0.777,0.529c0.273,0,0.465-0.16,0.602-0.4   c0.16-0.289,0.266-0.723,0.266-0.754c0-0.096-0.105-0.096-0.121-0.096c-0.111,0-0.121,0.031-0.169,0.232   c-0.088,0.361-0.231,0.811-0.554,0.811c-0.191,0-0.248-0.17-0.248-0.369c0-0.129,0.064-0.402,0.112-0.602   c0.056-0.201,0.128-0.514,0.169-0.674l0.151-0.578c0.041-0.191,0.138-0.545,0.138-0.586c0-0.168-0.138-0.24-0.257-0.24   C373.26,217.911,373.083,218.001,373.036,218.208z"
       id="path541" /></g><g
     id="g543"><defs
       id="defs545"><rect
         id="SVGID_53_"
         x="445.228"
         y="207.421"
         width="50.297"
         height="19.576" /></defs><clipPath
       id="SVGID_54_"><use
         xlink:href="#SVGID_53_"
         overflow="visible"
         id="use549" /></clipPath><path
       clip-path="url(#SVGID_54_)"
       fill="#139201"
       d="M446.247,218.569c0.584-0.625,0.898-0.898,1.281-1.236   c0-0.008,0.676-0.578,1.068-0.971c1.025-1.002,1.258-1.523,1.258-1.57c0-0.105-0.096-0.105-0.119-0.105   c-0.072,0-0.105,0.025-0.16,0.121c-0.32,0.521-0.555,0.689-0.811,0.689s-0.385-0.16-0.553-0.344   c-0.201-0.25-0.387-0.467-0.746-0.467c-0.811,0-1.309,1.002-1.309,1.236c0,0.047,0.033,0.119,0.129,0.119s0.121-0.055,0.145-0.119   c0.201-0.498,0.834-0.514,0.914-0.514c0.232,0,0.434,0.08,0.682,0.168c0.434,0.16,0.553,0.16,0.834,0.16   c-0.385,0.465-1.299,1.244-1.5,1.412l-0.979,0.914c-0.729,0.721-1.113,1.34-1.113,1.412c0,0.111,0.111,0.111,0.135,0.111   c0.08,0,0.105-0.023,0.168-0.145c0.25-0.377,0.578-0.666,0.924-0.666c0.248,0,0.354,0.098,0.625,0.41   c0.186,0.225,0.377,0.4,0.689,0.4c1.076,0,1.701-1.371,1.701-1.668c0-0.057-0.041-0.104-0.129-0.104   c-0.096,0-0.119,0.064-0.152,0.137c-0.248,0.705-0.938,0.914-1.299,0.914c-0.217,0-0.41-0.074-0.633-0.145   c-0.369-0.137-0.529-0.186-0.764-0.186C446.519,218.536,446.343,218.536,446.247,218.569"
       id="path551" /><path
       clip-path="url(#SVGID_54_)"
       fill="#139201"
       d="M460.737,218.032c0.152,0,0.361,0,0.361-0.217s-0.209-0.217-0.369-0.217   h-6.455c-0.16,0-0.369,0-0.369,0.217s0.209,0.217,0.361,0.217H460.737 M460.729,215.931c0.16,0,0.369,0,0.369-0.217   s-0.209-0.217-0.361-0.217h-6.471c-0.152,0-0.361,0-0.361,0.217s0.209,0.217,0.369,0.217H460.729z"
       id="path553" /><path
       clip-path="url(#SVGID_54_)"
       fill="#139201"
       d="M468.878,208.144h1.219c-0.354,1.604-0.457,2.069-0.457,2.791   c0,0.16,0,0.457,0.088,0.826c0.113,0.473,0.232,0.537,0.393,0.537c0.217,0,0.441-0.193,0.441-0.409c0-0.063,0-0.089-0.064-0.24   c-0.311-0.778-0.311-1.484-0.311-1.78c0-0.578,0.07-1.163,0.191-1.725h1.234c0.137,0,0.529,0,0.529-0.369   c0-0.257-0.225-0.257-0.432-0.257h-3.625c-0.234,0-0.65,0-1.123,0.505c-0.377,0.426-0.658,0.923-0.658,0.979   c0,0.009,0,0.104,0.127,0.104c0.09,0,0.105-0.04,0.17-0.128c0.537-0.834,1.162-0.834,1.379-0.834h0.617   c-0.344,1.307-0.93,2.622-1.387,3.601c-0.088,0.169-0.088,0.185-0.088,0.265c0,0.201,0.176,0.289,0.312,0.289   c0.328,0,0.416-0.305,0.545-0.706c0.152-0.497,0.152-0.513,0.289-1.058L468.878,208.144"
       id="path555" /><line
       clip-path="url(#SVGID_54_)"
       fill="none"
       stroke="#139201"
       stroke-width="0.4315"
       stroke-miterlimit="10"
       x1="466.007"
       y1="216.78"
       x2="472.552"
       y2="216.78"
       id="line557" /><path
       clip-path="url(#SVGID_54_)"
       fill="#139201"
       d="M467.956,226.075l1.146-1.115c1.684-1.49,2.334-2.076,2.334-3.16   c0-1.234-0.971-2.1-2.293-2.1c-1.221,0-2.021,1.002-2.021,1.965c0,0.602,0.545,0.602,0.576,0.602c0.186,0,0.562-0.129,0.562-0.57   c0-0.281-0.201-0.568-0.578-0.568c-0.088,0-0.104,0-0.137,0.016c0.25-0.705,0.834-1.107,1.461-1.107   c0.986,0,1.451,0.883,1.451,1.764c0,0.867-0.545,1.725-1.139,2.391l-2.078,2.318c-0.119,0.119-0.119,0.137-0.119,0.4h4.018   l0.297-1.885h-0.264c-0.057,0.33-0.139,0.803-0.242,0.963c-0.08,0.088-0.793,0.088-1.027,0.088H467.956"
       id="path559" /><path
       clip-path="url(#SVGID_54_)"
       fill="#139201"
       d="M483.378,216.981c0.184,0,0.377,0,0.377-0.217s-0.193-0.217-0.377-0.217   h-5.855c-0.184,0-0.377,0-0.377,0.217s0.193,0.217,0.377,0.217H483.378"
       id="path561" /><path
       clip-path="url(#SVGID_54_)"
       fill="#139201"
       d="M494.692,216.948c0.018-0.055,0.049-0.127,0.049-0.152   c0-0.008,0-0.121-0.129-0.121c-0.096,0-0.119,0.066-0.135,0.129c-0.707,1.605-1.107,2.326-2.961,2.326h-1.58   c-0.143,0-0.168,0-0.232-0.008c-0.111-0.008-0.143-0.023-0.143-0.111c0-0.033,0-0.049,0.055-0.25l0.738-2.951h1.066   c0.922,0,0.922,0.232,0.922,0.498c0,0.08,0,0.207-0.08,0.527c-0.016,0.059-0.031,0.09-0.031,0.121c0,0.057,0.047,0.121,0.145,0.121   c0.088,0,0.119-0.057,0.16-0.217l0.617-2.533c0-0.064-0.055-0.113-0.129-0.113c-0.096,0-0.119,0.064-0.152,0.193   c-0.223,0.816-0.424,1.066-1.418,1.066h-1.012l0.643-2.606c0.104-0.377,0.111-0.417,0.586-0.417h1.521   c1.324,0,1.646,0.312,1.646,1.195c0,0.264,0,0.287-0.041,0.576c0,0.064-0.008,0.137-0.008,0.193c0,0.055,0.031,0.129,0.129,0.129   c0.119,0,0.127-0.064,0.15-0.266l0.217-1.876c0.033-0.29-0.023-0.29-0.297-0.29h-5.461c-0.215,0-0.32,0-0.32,0.217   c0,0.121,0.096,0.121,0.305,0.121c0.393,0,0.697,0,0.697,0.192c0,0.04,0,0.063-0.057,0.257l-1.426,5.725   c-0.105,0.426-0.129,0.506-0.98,0.506c-0.184,0-0.303,0-0.303,0.209c0,0.129,0.096,0.129,0.303,0.129h5.615   c0.248,0,0.256-0.01,0.328-0.186L494.692,216.948"
       id="path563" /></g><g
     id="g565"><defs
       id="defs567"><rect
         id="SVGID_55_"
         x="386.056"
         y="207.421"
         width="45.479"
         height="19.576" /></defs><clipPath
       id="SVGID_56_"><use
         xlink:href="#SVGID_55_"
         overflow="visible"
         id="use571" /></clipPath><path
       clip-path="url(#SVGID_56_)"
       fill="#139201"
       d="M388.197,215.144h1.011c0.217,0,0.329,0,0.329-0.215   c0-0.121-0.112-0.121-0.305-0.121h-0.955c0.394-1.539,0.45-1.756,0.45-1.82c0-0.184-0.137-0.289-0.314-0.289   c-0.031,0-0.336,0.008-0.432,0.385l-0.426,1.725h-1.018c-0.217,0-0.322,0-0.322,0.201c0,0.135,0.09,0.135,0.307,0.135h0.945   c-0.777,3.072-0.818,3.258-0.818,3.449c0,0.586,0.41,0.994,0.994,0.994c1.1,0,1.718-1.58,1.718-1.668   c0-0.104-0.089-0.104-0.129-0.104c-0.097,0-0.104,0.031-0.161,0.152c-0.465,1.123-1.042,1.379-1.402,1.379   c-0.232,0-0.338-0.137-0.338-0.496c0-0.258,0.016-0.338,0.064-0.514L388.197,215.144"
       id="path573" /><path
       clip-path="url(#SVGID_56_)"
       fill="#139201"
       d="M400.308,218.032c0.152,0,0.353,0,0.353-0.217s-0.2-0.217-0.368-0.217h-6.457   c-0.16,0-0.368,0-0.368,0.217s0.208,0.217,0.36,0.217H400.308 M400.292,215.931c0.168,0,0.368,0,0.368-0.217   s-0.2-0.217-0.353-0.217h-6.48c-0.152,0-0.36,0-0.36,0.217s0.208,0.217,0.368,0.217H400.292z"
       id="path575" /><path
       clip-path="url(#SVGID_56_)"
       fill="#139201"
       d="M408.407,208.144h1.227c-0.361,1.604-0.458,2.068-0.458,2.791   c0,0.16,0,0.457,0.089,0.826c0.104,0.473,0.226,0.537,0.386,0.537c0.217,0,0.449-0.193,0.449-0.41c0-0.062,0-0.088-0.064-0.24   c-0.321-0.777-0.321-1.482-0.321-1.779c0-0.578,0.079-1.164,0.201-1.725h1.227c0.144,0,0.537,0,0.537-0.369   c0-0.256-0.231-0.256-0.433-0.256h-3.625c-0.24,0-0.649,0-1.123,0.504c-0.384,0.426-0.665,0.924-0.665,0.979   c0,0.008,0,0.105,0.128,0.105c0.089,0,0.112-0.041,0.177-0.129c0.529-0.834,1.155-0.834,1.371-0.834h0.617   c-0.344,1.307-0.93,2.623-1.379,3.602c-0.088,0.168-0.088,0.184-0.088,0.264c0,0.201,0.168,0.289,0.312,0.289   c0.321,0,0.409-0.305,0.537-0.705c0.153-0.498,0.153-0.514,0.297-1.059L408.407,208.144"
       id="path577" /><line
       clip-path="url(#SVGID_56_)"
       fill="none"
       stroke="#139201"
       stroke-width="0.4315"
       stroke-miterlimit="10"
       x1="405.561"
       y1="216.78"
       x2="412.104"
       y2="216.78"
       id="line579" /><path
       clip-path="url(#SVGID_56_)"
       fill="#139201"
       d="M407.485,226.075l1.146-1.115c1.691-1.49,2.341-2.076,2.341-3.158   c0-1.236-0.979-2.102-2.292-2.102c-1.228,0-2.021,1.002-2.021,1.965c0,0.602,0.537,0.602,0.57,0.602   c0.184,0,0.561-0.129,0.561-0.57c0-0.279-0.193-0.568-0.57-0.568c-0.088,0-0.111,0-0.143,0.016   c0.248-0.705,0.833-1.107,1.459-1.107c0.985,0,1.45,0.883,1.45,1.766c0,0.865-0.537,1.723-1.139,2.389l-2.076,2.318   c-0.112,0.119-0.112,0.137-0.112,0.4h4.009l0.305-1.885H410.7c-0.056,0.328-0.128,0.803-0.24,0.963   c-0.073,0.088-0.786,0.088-1.026,0.088H407.485"
       id="path581" /><path
       clip-path="url(#SVGID_56_)"
       fill="#139201"
       d="M422.938,216.981c0.186,0,0.387,0,0.387-0.217s-0.201-0.217-0.387-0.217   h-5.846c-0.184,0-0.385,0-0.385,0.217s0.201,0.217,0.385,0.217H422.938"
       id="path583" /><path
       clip-path="url(#SVGID_56_)"
       fill="#139201"
       d="M429.579,214.976c0.273,0.498,0.594,1.084,0.594,1.861   c0,0.715-0.408,2.525-1.412,2.525c-0.592,0-1.041-0.457-1.041-1.283C427.72,217.407,428.12,215.368,429.579,214.976    M429.452,214.743c-1.357,0.32-2.398,1.732-2.398,3.039c0,1.035,0.689,1.812,1.707,1.812c1.26,0,2.158-1.691,2.158-3.191   c0-0.979-0.426-1.523-0.795-2.004c-0.393-0.49-1.025-1.299-1.025-1.781c0-0.232,0.209-0.498,0.594-0.498   c0.32,0,0.537,0.146,0.762,0.297c0.217,0.129,0.434,0.266,0.602,0.266c0.264,0,0.432-0.256,0.432-0.434   c0-0.232-0.176-0.264-0.568-0.352c-0.561-0.121-0.713-0.121-0.883-0.121c-0.842,0-1.234,0.465-1.234,1.115   C428.802,213.476,429.114,214.077,429.452,214.743z"
       id="path585" /></g><g
     id="g587" /><g
     id="g589" /><g
     id="g591" /><g
     id="g593" /><g
     id="g595" /><g
     id="g597" /></svg>