<?xml version="1.0" encoding="utf-8"?>
<!-- Generator: Adobe Illustrator 16.0.0, SVG Export Plug-In . SVG Version: 6.00 Build 0)  -->
<!DOCTYPE svg PUBLIC "-//W3C//DTD SVG 1.1//EN" "http://www.w3.org/Graphics/SVG/1.1/DTD/svg11.dtd">
<svg version="1.1"
	 id="svg15042" xmlns:cc="http://creativecommons.org/ns#" xmlns:svg="http://www.w3.org/2000/svg" xmlns:dc="http://purl.org/dc/elements/1.1/" xmlns:sodipodi="http://sodipodi.sourceforge.net/DTD/sodipodi-0.dtd" xmlns:rdf="http://www.w3.org/1999/02/22-rdf-syntax-ns#" xmlns:inkscape="http://www.inkscape.org/namespaces/inkscape" sodipodi:docname="enu_alt_az.svg" inkscape:version="0.48.3.1 r9886"
	 xmlns="http://www.w3.org/2000/svg" xmlns:xlink="http://www.w3.org/1999/xlink" x="0px" y="0px" width="1886.605px"
	 height="724.812px" viewBox="-726.06 18.669 1886.605 724.812" enable-background="new -726.06 18.669 1886.605 724.812"
	 xml:space="preserve">
<sodipodi:namedview  fit-margin-left="0" fit-margin-top="0" showgrid="false" inkscape:cy="115.96017" inkscape:cx="-11.249652" inkscape:zoom="0.56729519" borderopacity="1.0" bordercolor="#666666" pagecolor="#ffffff" id="base" inkscape:window-maximized="1" inkscape:window-y="24" inkscape:window-x="65" inkscape:window-height="744" inkscape:window-width="1301" fit-margin-bottom="0" fit-margin-right="0" inkscape:current-layer="layer1" inkscape:snap-nodes="false" inkscape:pageshadow="2" inkscape:document-units="px" inkscape:pageopacity="0.0" inkscape:object-paths="false" inkscape:object-nodes="false">
	</sodipodi:namedview>
<g>
	<g id="path15050" inkscape:connector-curvature="0">
		<g>
			<path fill="none" stroke="#000000" stroke-width="2" stroke-linecap="round" d="M779.593,175.456c0,237.849,0,237.849,0,237.849
				l-129.761,132.79"/>
			<g>
				<path d="M779.593,179.045l7.205,4.383l0.164-0.246l-4.668-11.75c-0.9-4.094-1.801-8.188-2.701-12.281
					c-0.902,4.094-1.801,8.188-2.703,12.281l-4.666,11.75l0.121,0.246L779.593,179.045z"/>
			</g>
			<g>
				<path d="M652.341,543.527l8.217,1.9l-0.055,0.291l-11.551,5.142c-3.506,2.298-7.011,4.597-10.516,6.896
					c2.216-3.559,4.435-7.114,6.65-10.673l4.875-11.665l0.258-0.092L652.341,543.527z"/>
			</g>
		</g>
	</g>
	
		<path id="path15050_5_" inkscape:connector-curvature="0" fill="none" stroke="#000000" stroke-width="2" stroke-linecap="round" stroke-dasharray="2,2" d="
		M975.706,506.932"/>
	
		<path id="path15050_2_" inkscape:connector-curvature="0" fill="none" stroke="#000000" stroke-width="2" stroke-linecap="round" stroke-dasharray="2,2" d="
		M1160.546,400.392"/>
	
		<path id="path15050_6_" inkscape:connector-curvature="0" fill="none" stroke="#078F00" stroke-width="2" stroke-dasharray="4,4" d="
		M1063.661,413.304l-90.203,92.081"/>
	<g id="path15052" inkscape:connector-curvature="0">
		<g>
			
				<line fill="none" stroke="#000000" stroke-width="2" stroke-linecap="round" x1="779.471" y1="413.544" x2="1102.132" y2="413.544"/>
			<g>
				<path d="M1098.542,413.544l-4.383-7.205l0.246-0.164l11.75,4.668c4.094,0.9,8.188,1.801,12.281,2.701
					c-4.094,0.902-8.188,1.801-12.281,2.703l-11.75,4.666l-0.246-0.121L1098.542,413.544z"/>
			</g>
		</g>
	</g>
	
		<path id="path15182_4_" inkscape:connector-curvature="0" fill="none" stroke="#000000" stroke-width="1.9368" stroke-dasharray="0.7074,2.8294" d="
		M779.936,413.544"/>
	<g id="path15126-2" inkscape:connector-curvature="0">
		<g>
			<path fill="none" stroke="#FF0000" stroke-width="3" stroke-linecap="round" d="M779.593,413.304
				c100.522-51.361,148.691-76.163,171.769-88.14"/>
			<g>
				<path fill="#FF0000" d="M946.591,327.675l-11.038-6.18l0.2-0.396l18.79-2.567c6.012-1.843,12.022-3.686,18.034-5.528
					c-4.682,4.197-9.367,8.39-14.049,12.587l-11.907,14.76l-0.411,0.023L946.591,327.675z"/>
			</g>
		</g>
	</g>
	<path id="path15182" inkscape:connector-curvature="0" fill="none" stroke="#078F00" stroke-width="2" stroke-dasharray="4,4" d="
		M973.458,506.97c-284.876,0-284.876,0-284.876,0"/>
	<g>
		<g>
			<path fill="#078F00" d="M787.625,461.28c7.076,0.509,9.774,5.191,9.774,9.213c0,6.821-7.381,13.693-15.577,13.948l-1.935,7.584
				c-0.152,0.713-0.458,1.935-0.56,2.036c-0.152,0.153-0.255,0.204-0.509,0.204c-0.255,0-0.611-0.051-0.611-0.561
				c0-0.152,0.51-2.087,1.12-4.479c0.407-1.578,0.764-3.207,1.171-4.784c-6.21-0.356-9.773-4.378-9.773-9.214
				c0-6.923,7.482-13.693,15.576-13.947l2.953-11.759c0.203-0.865,0.254-1.019,0.764-1.019c0.61,0,0.61,0.458,0.61,0.509
				c0,0.052-0.152,0.611-0.152,0.713L787.625,461.28z M785.996,462.399c-7.584,0.662-11.962,7.788-11.962,13.897
				c0,5.09,3.665,6.871,6.72,7.024L785.996,462.399z M782.077,483.321c7.636-0.611,12.014-7.891,12.014-13.896
				c0-4.479-2.902-6.821-6.771-7.025L782.077,483.321z"/>
		</g>
	</g>
	<g>
		<g>
			<path fill="#078F00" d="M813.229,363.714c-4.633,0-6.109-5.649-6.109-10.435c0-11.657,7.84-26.012,14.916-26.012
				c5.191,0,6.107,7.075,6.107,10.436C828.143,349.106,820.407,363.714,813.229,363.714z M812.11,346.306
				c-1.324,4.988-1.629,7.94-1.629,10.078c0,4.734,1.068,6.211,2.748,6.211c2.189,0,4.123-2.495,5.904-5.956
				c1.936-3.665,3.004-7.992,3.564-10.333H812.11z M823.155,344.677c1.223-5.04,1.629-7.636,1.629-10.13
				c0-2.901-0.305-6.16-2.799-6.16c-2.291,0-4.174,2.852-5.549,5.346c-2.037,3.614-3.055,7.687-3.92,10.944H823.155z"/>
		</g>
	</g>
	<g>
		<g>
			<path fill="#FF0500" d="M887.889,379.875c1.527-6.211,6.871-11.301,11.809-11.301c3.717,0,7.076,2.901,7.076,8.297
				c0,7.585-6.566,14.762-12.521,14.762c-2.393,0-4.021-1.374-5.039-3.41c-1.375,5.498-3.004,12.318-3.258,12.776
				c-0.104,0.153-0.713,1.069-1.783,1.069c-0.865,0-1.424-0.611-1.424-1.374c0-0.103,0-0.204,0.152-0.814L887.889,379.875z
				 M900.259,385.677c1.375-2.494,2.852-8.196,2.852-10.995c0-3.513-1.629-4.988-3.514-4.988c-1.578,0-4.123,1.119-6.311,4.836
				c-1.121,2.035-1.629,3.868-3.055,9.569c-0.152,0.662-0.408,1.68-0.408,1.883c0,0.459,0.814,4.531,4.379,4.531
				C896.135,390.513,898.579,388.884,900.259,385.677z"/>
		</g>
	</g>
	<g>
		<defs>
			<rect id="SVGID_1_" x="602.243" y="538.03" width="31.021" height="27.755"/>
		</defs>
		<clipPath id="SVGID_2_">
			<use xlink:href="#SVGID_1_"  overflow="visible"/>
		</clipPath>
		<g clip-path="url(#SVGID_2_)">
			<path d="M618.419,555.223c-0.645,2.576-0.996,3.864-0.996,5.152c0,1.99,0.938,3.864,3.221,3.864c1.873,0,5.854-1.405,7.787-7.67
				c0.117-0.409,0.233-0.644,0.761-0.644c0.176,0,0.703,0,0.703,0.585c0,1.464-3.338,9.017-9.368,9.017
				c-3.513,0-5.62-2.283-6.323-4.449c-0.176,0.352-2.283,4.449-6.147,4.449c-2.576,0-5.504-1.171-5.504-3.864
				c0-1.874,1.464-3.396,3.221-3.396c0.878,0,2.166,0.469,2.166,2.049c0,1.64-1.288,2.869-2.752,3.162
				c1.229,0.761,2.576,0.761,2.928,0.761c2.576,0,4.625-2.459,5.562-6.089c2.167-8.197,3.162-12.119,3.162-13.935
				c0-3.396-2.049-3.923-3.162-3.923c-1.99,0-5.854,1.464-7.845,7.67c-0.117,0.527-0.293,0.645-0.762,0.645
				c-0.117,0-0.702,0-0.702-0.586c0-1.464,3.337-9.017,9.426-9.017c1.698,0,4.86,0.585,6.323,4.45
				c0.703-1.348,2.752-4.45,6.147-4.45c1.991,0,5.445,0.819,5.445,3.864c0,2.342-1.873,3.396-3.161,3.396
				c-1.581,0-2.226-1.113-2.226-2.05c0-1.405,1.171-2.868,2.811-3.161c-1.229-0.762-2.635-0.762-2.928-0.762
				c-4.098,0-5.444,5.387-5.796,6.908L618.419,555.223z"/>
		</g>
	</g>
	<g>
		<defs>
			<rect id="SVGID_3_" x="1103.743" y="421.419" width="29.387" height="39.183"/>
		</defs>
		<clipPath id="SVGID_4_">
			<use xlink:href="#SVGID_3_"  overflow="visible"/>
		</clipPath>
		<g clip-path="url(#SVGID_4_)">
			<path d="M1126.51,448.333c-1.64,6.615-7.669,11.943-13.7,11.943c-3.63,0-6.206-2.166-6.206-5.094
				c0-2.868,1.933-3.806,3.278-3.806c0.586,0,2.167,0.234,2.167,2.05c0,1.112-0.585,1.873-1.171,2.4
				c-0.82,0.702-1.581,0.702-2.518,0.702c0.995,2.283,3.63,2.459,4.449,2.459c2.693,0,4.918-1.697,6.44-3.688
				c2.342-3.103,3.044-5.972,3.806-9.017c-1.639,1.64-3.63,2.635-5.914,2.635c-3.453,0-7.143-1.756-7.143-6.967
				c0-2.752,1.055-6.089,3.396-12.295c0.41-1.112,0.995-2.635,0.995-4.099c0-1.874-0.995-1.874-1.464-1.874
				c-1.99,0-4.332,1.757-5.913,7.261c-0.293,0.937-0.352,1.054-0.937,1.054c-0.117,0-0.703,0-0.703-0.586
				c0-0.526,2.166-9.017,7.729-9.017c2.928,0,4.801,2.167,4.801,4.802c0,1.171-0.234,1.814-1.171,4.215
				c-1.991,5.152-2.985,8.782-2.985,11.476c0,2.166,0.644,4.742,3.629,4.742c3.865,0,6.383-4.098,6.616-4.977l2.635-10.538
				c0.352-1.581,0.761-3.162,1.171-4.685c0.234-1.054,0.703-2.868,0.82-3.161c0.526-0.878,1.463-1.229,2.049-1.229
				c0.878,0,1.697,0.527,1.697,1.581c0,0.409,0,0.526-0.234,1.347L1126.51,448.333z"/>
		</g>
	</g>
	<g>
		<defs>
			<rect id="SVGID_5_" x="787.77" y="118.188" width="27.754" height="27.754"/>
		</defs>
		<clipPath id="SVGID_6_">
			<use xlink:href="#SVGID_5_"  overflow="visible"/>
		</clipPath>
		<g clip-path="url(#SVGID_6_)">
			<path d="M795.94,140.007c1.229,0,2.107,0.234,4.098,0.995c1.23,0.41,2.283,0.761,3.455,0.761c1.932,0,5.678-1.112,7.025-4.918
				c0.176-0.409,0.293-0.761,0.82-0.761c0.467,0,0.701,0.293,0.701,0.585c0,1.581-3.395,9.017-9.191,9.017
				c-1.697,0-2.752-0.937-3.748-2.166c-1.463-1.698-2.049-2.225-3.395-2.225c-1.873,0-3.631,1.58-4.977,3.63
				c-0.352,0.644-0.469,0.761-0.938,0.761c-0.117,0-0.703,0-0.703-0.585c0-0.41,2.051-3.747,6.031-7.67l5.27-4.918
				c1.113-0.937,6.031-5.152,8.139-7.67c-1.523,0-2.166,0-4.508-0.878c-1.348-0.469-2.459-0.879-3.689-0.879
				c-0.469,0-3.863,0.059-4.977,2.752c-0.117,0.352-0.234,0.645-0.762,0.645c-0.525,0-0.701-0.352-0.701-0.645
				c0-1.229,2.691-6.675,7.084-6.675c1.932,0,2.928,1.172,4.039,2.518c0.879,0.996,1.58,1.874,2.986,1.874
				c1.404,0,2.635-0.937,4.391-3.747c0.293-0.527,0.469-0.645,0.879-0.645c0.117,0,0.645,0,0.645,0.586
				c0,0.234-1.289,3.045-6.852,8.489c-2.107,2.108-5.736,5.211-5.736,5.27c-2.109,1.815-3.807,3.278-6.969,6.675
				C794.885,140.007,795.823,140.007,795.94,140.007z"/>
		</g>
	</g>
	<g>
		<path fill="#FF0000" d="M997.655,343.902c-0.066,0.357-0.201,0.656-0.201,1.014c0,1.074,1.889,1.074,4.387,1.074
			c1.283,0,1.891,0,1.891,0.655c0,1.193-0.877,1.193-1.35,1.193c-1.418,0-2.902-0.119-4.389-0.119c-1.418,0-2.902-0.06-4.32-0.06
			c-1.891,0-6.684,0.179-8.572,0.179c-0.203,0-1.014,0-1.014-0.716c0-1.133,0.742-1.133,1.891-1.133
			c5.332,0,5.469-0.478,6.143-2.804l9.047-32.03c0.201-0.716,0.27-0.895,0.27-1.134c0-0.656-0.406-0.834-1.486-0.954
			c-0.809-0.06-2.023-0.119-2.902-0.119c-1.35,0-1.957,0-1.957-0.716c0-1.133,0.742-1.133,2.025-1.133h21.871
			c8.844,0,13.299,4.414,13.299,9.006c0,6.681-9.383,12.885-18.969,12.885h-11.477L997.655,343.902z M1002.11,327.44h9.52
			c2.971,0,7.02-0.479,10.395-3.162c2.633-2.146,3.984-7.277,3.984-9.604c0-4.115-3.578-5.726-9.182-5.726h-6.48
			c-2.902,0-3.037,0.179-3.645,2.267L1002.11,327.44z"/>
	</g>
	
		<path id="path15176_2_" inkscape:connector-curvature="0" fill="none" stroke="#078F00" stroke-width="2" stroke-dasharray="4,4" d="
		M972.577,313.004c0.881,193.206,0.881,193.206,0.881,193.206"/>
	
		<line fill="none" stroke="#FF0000" stroke-width="2.1522" stroke-linecap="round" stroke-dasharray="4,4" x1="779.593" y1="413.304" x2="973.458" y2="506.21"/>
	
		<path id="path15050_7_" inkscape:connector-curvature="0" fill="none" stroke="#078F00" stroke-width="2" stroke-dasharray="4,4" d="
		M1063.661,220.111l-90.203,92.081"/>
	
		<path id="path15176_3_" inkscape:connector-curvature="0" fill="none" stroke="#078F00" stroke-width="2" stroke-dasharray="4,4" d="
		M1063.932,220.402c0.881,193.206,0.881,193.206,0.881,193.206"/>
	
		<path id="path15182_1_" inkscape:connector-curvature="0" fill="none" stroke="#078F00" stroke-width="2" stroke-dasharray="4,4" d="
		M973.458,312.192c-284.876,0-284.876,0-284.876,0"/>
	
		<path id="path15176_5_" inkscape:connector-curvature="0" fill="none" stroke="#078F00" stroke-width="2" stroke-linecap="round" stroke-dasharray="4,4" d="
		M688.141,312.193c0.881,193.205,0.881,194.018,0.881,194.018"/>
	
		<path id="path15050_8_" inkscape:connector-curvature="0" fill="none" stroke="#078F00" stroke-width="2" stroke-dasharray="4,4" d="
		M778.343,220.111l-90.201,92.082"/>
	
		<path id="path15182_5_" inkscape:connector-curvature="0" fill="none" stroke="#078F00" stroke-width="2" stroke-dasharray="4,4" d="
		M1061.221,220.081c-284.876,0-284.876,0-284.876,0"/>
	<g id="path15050_11_" inkscape:connector-curvature="0">
		<g>
			<line fill="none" stroke="#078F00" stroke-width="2" x1="779.471" y1="413.544" x2="699.951" y2="495.284"/>
			<g>
				<path fill="#078F00" d="M702.455,492.71l8.22,1.883l-0.054,0.291l-11.539,5.167c-3.5,2.306-7,4.612-10.5,6.919
					c2.208-3.563,4.419-7.124,6.626-10.688l4.85-11.676l0.258-0.092L702.455,492.71z"/>
			</g>
		</g>
	</g>
	<g id="path15050_4_" inkscape:connector-curvature="0">
		<g>
			
				<line fill="none" stroke="#078F00" stroke-width="2" stroke-linecap="round" x1="779.593" y1="413.304" x2="779.364" y2="236.416"/>
			<g>
				<path fill="#078F00" d="M779.368,240.006l-7.199,4.392l-0.164-0.246l4.652-11.756c0.896-4.095,1.79-8.19,2.686-12.285
					c0.907,4.093,1.812,8.185,2.719,12.278l4.682,11.744l-0.121,0.247L779.368,240.006z"/>
			</g>
		</g>
	</g>
	<g id="path15050_10_" inkscape:connector-curvature="0">
		<g>
			
				<line fill="none" stroke="#078F00" stroke-width="2.4092" stroke-linecap="round" x1="779.936" y1="413.608" x2="1045.173" y2="413.608"/>
			<g>
				<path fill="#078F00" d="M1040.848,413.608l-5.28-8.68l0.297-0.197l14.154,5.623c4.931,1.085,9.862,2.169,14.794,3.254
					c-4.932,1.087-9.863,2.169-14.794,3.256l-14.154,5.621l-0.297-0.146L1040.848,413.608z"/>
			</g>
		</g>
	</g>
	<path fill="none" stroke="#078F00" stroke-width="2" stroke-dasharray="4,4" d="M778.343,363.155c0,0,13.762-3.333,28.428,4.601
		s18.182,22.357,18.182,22.357"/>
	<g>
		<g>
			<g enable-background="new    ">
				<defs>
					<polygon id="SVGID_7_" enable-background="new    " points="754.519,448.961 754.693,433.661 817.312,433.661 817.486,448.961 
											"/>
				</defs>
				<clipPath id="SVGID_8_">
					<use xlink:href="#SVGID_7_"  overflow="visible"/>
				</clipPath>
				<g clip-path="url(#SVGID_8_)">
					<g>
						<g>
							<g>
								<path fill="#078F00" d="M811.823,437.793c-0.179,0.166-0.359,0.33-0.543,0.493c-0.184,0.162-0.37,0.323-0.559,0.481
									c-0.188,0.159-0.38,0.316-0.572,0.471c-0.193,0.155-0.389,0.308-0.585,0.457l1.572,0.747
									c0.208-0.158,0.413-0.319,0.615-0.481s0.401-0.326,0.598-0.492c0.197-0.167,0.392-0.335,0.583-0.505
									c0.192-0.171,0.381-0.343,0.568-0.518L811.823,437.793 M756.278,439.853l-1.663,0.671c0.181,0.163,0.365,0.323,0.554,0.482
									c0.188,0.159,0.38,0.316,0.576,0.472s0.396,0.309,0.602,0.46c0.204,0.152,0.412,0.302,0.624,0.449l1.521-0.791
									c-0.199-0.139-0.395-0.278-0.586-0.42c-0.192-0.142-0.381-0.285-0.565-0.43c-0.185-0.146-0.365-0.292-0.542-0.441
									C756.62,440.157,756.447,440.005,756.278,439.853 M807.006,441.46c-0.226,0.142-0.455,0.28-0.687,0.417
									c-0.232,0.137-0.467,0.271-0.704,0.403c-0.237,0.133-0.477,0.263-0.719,0.391s-0.486,0.254-0.733,0.377l1.276,0.928
									c0.263-0.13,0.522-0.263,0.779-0.397s0.511-0.272,0.762-0.412s0.499-0.281,0.745-0.426c0.245-0.145,0.487-0.291,0.727-0.44
									L807.006,441.46 M761.195,443.25l-1.333,0.906c0.256,0.137,0.515,0.271,0.778,0.403c0.264,0.133,0.53,0.263,0.802,0.39
									c0.271,0.127,0.546,0.252,0.823,0.374c0.278,0.122,0.561,0.242,0.846,0.359l1.135-1c-0.268-0.11-0.531-0.223-0.792-0.337
									s-0.518-0.231-0.771-0.351c-0.254-0.12-0.505-0.241-0.753-0.365C761.682,443.504,761.437,443.378,761.195,443.25
									 M801.036,444.427c-0.271,0.105-0.546,0.209-0.822,0.311c-0.276,0.101-0.556,0.199-0.837,0.295
									c-0.281,0.097-0.564,0.19-0.851,0.281c-0.285,0.091-0.573,0.179-0.864,0.265l0.889,1.087
									c0.309-0.093,0.614-0.188,0.918-0.284c0.304-0.098,0.604-0.197,0.902-0.299c0.299-0.103,0.594-0.206,0.886-0.312
									c0.292-0.107,0.581-0.216,0.867-0.327L801.036,444.427 M767.572,445.866l-0.909,1.077c0.306,0.094,0.615,0.185,0.927,0.271
									s0.626,0.171,0.943,0.252s0.638,0.159,0.961,0.233c0.323,0.075,0.649,0.147,0.979,0.217l0.665-1.143
									c-0.307-0.063-0.61-0.131-0.912-0.201c-0.302-0.069-0.602-0.143-0.898-0.218c-0.297-0.076-0.592-0.154-0.885-0.236
									C768.15,446.038,767.86,445.954,767.572,445.866 M794.077,446.486c-0.299,0.064-0.603,0.126-0.908,0.186
									c-0.307,0.06-0.615,0.117-0.927,0.172c-0.312,0.056-0.626,0.108-0.941,0.158c-0.316,0.05-0.635,0.098-0.955,0.143
									l0.452,1.181c0.341-0.049,0.679-0.1,1.014-0.153c0.335-0.053,0.667-0.108,0.996-0.166c0.329-0.059,0.656-0.118,0.979-0.182
									c0.323-0.062,0.644-0.128,0.961-0.195L794.077,446.486 M774.868,447.4l-0.411,1.181c0.334,0.042,0.67,0.081,1.008,0.116
									c0.338,0.036,0.678,0.068,1.02,0.097c0.342,0.029,0.686,0.055,1.03,0.077s0.69,0.042,1.038,0.059l0.157-1.208
									c-0.327-0.016-0.652-0.033-0.976-0.055c-0.324-0.021-0.646-0.045-0.966-0.071c-0.32-0.027-0.639-0.057-0.955-0.09
									C775.496,447.473,775.181,447.438,774.868,447.4 M786.504,447.563c-0.315,0.024-0.634,0.047-0.954,0.067
									s-0.644,0.038-0.969,0.055c-0.325,0.016-0.653,0.029-0.983,0.041c-0.331,0.011-0.664,0.021-1,0.027l0.071,1.208
									c0.35-0.007,0.696-0.016,1.042-0.028c0.345-0.012,0.688-0.026,1.028-0.044c0.341-0.017,0.68-0.036,1.016-0.058
									s0.67-0.046,1.002-0.071L786.504,447.563 M815.491,433.661c-0.133,0.182-0.269,0.362-0.405,0.541
									c-0.138,0.18-0.277,0.357-0.419,0.533c-0.142,0.177-0.285,0.352-0.432,0.524s-0.295,0.345-0.446,0.515l1.767,0.566
									c0.155-0.177,0.309-0.355,0.46-0.534c0.152-0.18,0.302-0.36,0.449-0.543s0.292-0.366,0.435-0.552
									c0.143-0.185,0.282-0.372,0.419-0.561L815.491,433.661"/>
							</g>
						</g>
					</g>
				</g>
			</g>
		</g>
	</g>
</g>
<g>
	<g>
		<defs>
			<rect id="SVGID_9_" x="1.4" y="437.267" width="43.255" height="50.979"/>
		</defs>
		<clipPath id="SVGID_10_">
			<use xlink:href="#SVGID_9_"  overflow="visible"/>
		</clipPath>
		<g clip-path="url(#SVGID_10_)">
			<path fill="#078F00" d="M8.068,464.083c1.662-6.759,7.479-12.3,12.854-12.3c4.044,0,7.701,3.158,7.701,9.031
				c0,8.256-7.147,16.067-13.63,16.067c-2.604,0-4.377-1.496-5.485-3.712c-1.496,5.983-3.269,13.408-3.546,13.906
				c-0.11,0.166-0.775,1.164-1.938,1.164c-0.942,0-1.552-0.665-1.552-1.496c0-0.111,0-0.222,0.166-0.887L8.068,464.083z
				 M21.532,470.399c1.495-2.715,3.103-8.92,3.103-11.967c0-3.823-1.773-5.43-3.823-5.43c-1.718,0-4.487,1.219-6.87,5.263
				c-1.219,2.217-1.772,4.211-3.324,10.416c-0.166,0.721-0.443,1.829-0.443,2.051c0,0.498,0.887,4.931,4.765,4.931
				C17.044,475.663,19.703,473.889,21.532,470.399z"/>
		</g>
		<g clip-path="url(#SVGID_10_)">
			<path fill="#078F00" d="M35.769,470.455c-0.277,1.053-0.333,1.33-0.333,2.659c0,0.775,0,2.549,1.662,2.549
				c2.217,0,3.27-3.269,4.211-6.87c0.166-0.775,0.222-0.997,0.775-0.997c0.167,0,0.665,0,0.665,0.554c0,0.11-0.665,3.324-1.662,5.43
				c-0.941,1.994-2.327,3.103-4.155,3.103c-2.604,0-5.042-1.939-5.042-5.097c0-0.887,0.111-1.274,0.277-1.884l6.981-27.703
				l0.166-1.107c0-0.443-0.056-0.942-2.715-0.942c-0.831,0-1.386,0-1.386-0.609c0-1.053,0.609-1.108,1.053-1.163
				c1.44-0.111,5.485-0.555,6.76-0.555c0.72,0,0.72,0.555,0.72,0.609L35.769,470.455z"/>
		</g>
	</g>
	<g>
		<defs>
			<rect id="SVGID_11_" x="66.083" y="200.925" width="60.248" height="38.312"/>
		</defs>
		<clipPath id="SVGID_12_">
			<use xlink:href="#SVGID_11_"  overflow="visible"/>
		</clipPath>
		<g clip-path="url(#SVGID_12_)">
			<path fill="#078F00" d="M72.038,214.146c1.662-6.759,7.48-12.3,12.854-12.3c4.044,0,7.701,3.158,7.701,9.031
				c0,8.256-7.147,16.067-13.629,16.067c-2.604,0-4.377-1.496-5.485-3.712c-1.496,5.983-3.269,13.408-3.546,13.906
				c-0.111,0.166-0.776,1.164-1.939,1.164c-0.942,0-1.551-0.665-1.551-1.496c0-0.111,0-0.222,0.166-0.887L72.038,214.146z
				 M85.502,220.462c1.496-2.715,3.103-8.92,3.103-11.967c0-3.823-1.773-5.43-3.823-5.43c-1.717,0-4.488,1.219-6.87,5.263
				c-1.219,2.217-1.773,4.211-3.324,10.416c-0.166,0.721-0.443,1.829-0.443,2.051c0,0.498,0.887,4.931,4.765,4.931
				C81.014,225.726,83.674,223.952,85.502,220.462z"/>
		</g>
		<g clip-path="url(#SVGID_12_)">
			<path fill="#078F00" d="M101.519,210.268c0.721-2.881,0.887-3.49,0.887-4.654c0-1.828-0.609-2.548-1.718-2.548
				c-1.994,0-3.103,2.659-4.044,6.593c-0.333,1.219-0.388,1.274-0.942,1.274c-0.111,0-0.665,0-0.665-0.555
				c0-0.221,0.775-3.49,1.662-5.374c0.554-0.997,1.606-3.158,4.155-3.158c2.548,0,4.82,1.718,5.097,4.82
				c0.942-1.274,3.657-4.82,8.643-4.82c3.989,0,6.372,2.217,6.372,5.929c0,3.158-2.327,9.253-3.38,12.189
				c-0.499,1.219-0.997,2.548-0.997,3.934c0,1.274,0.388,1.828,1.33,1.828c2.715,0,4.543-3.103,5.651-6.87
				c0.277-0.831,0.277-0.997,0.831-0.997c0.166,0,0.665,0,0.665,0.554c0,0.443-2.05,8.532-7.258,8.532
				c-2.604,0-4.543-1.939-4.543-4.543c0-0.609,0.055-1.274,0.554-2.549c0.887-2.383,3.602-9.475,3.602-12.909
				c0-1.828-0.499-3.878-2.992-3.878c-5.264,0-8.2,5.041-9.031,6.759c-0.055,0.222-0.499,1.828-0.72,2.771
				c-0.277,1.274-0.609,2.493-0.942,3.712l-1.219,4.986c-0.333,1.386-0.998,3.989-1.053,4.101c-0.388,1.107-1.385,1.551-2.05,1.551
				c-0.831,0-1.607-0.499-1.607-1.496c0-0.276,0.333-1.551,0.499-2.382L101.519,210.268z"/>
		</g>
	</g>
	<g>
		<defs>
			<rect id="SVGID_13_" x="350.766" y="366.769" width="75.697" height="38.312"/>
		</defs>
		<clipPath id="SVGID_14_">
			<use xlink:href="#SVGID_13_"  overflow="visible"/>
		</clipPath>
		<g clip-path="url(#SVGID_14_)">
			<path fill="#078F00" d="M357.063,379.991c1.662-6.759,7.479-12.3,12.854-12.3c4.044,0,7.701,3.158,7.701,9.031
				c0,8.256-7.147,16.067-13.63,16.067c-2.604,0-4.377-1.496-5.485-3.712c-1.496,5.983-3.269,13.408-3.546,13.906
				c-0.11,0.166-0.775,1.164-1.938,1.164c-0.942,0-1.552-0.665-1.552-1.496c0-0.111,0-0.222,0.166-0.887L357.063,379.991z
				 M370.527,386.307c1.495-2.715,3.103-8.92,3.103-11.967c0-3.823-1.773-5.43-3.823-5.43c-1.718,0-4.487,1.219-6.87,5.263
				c-1.219,2.217-1.772,4.211-3.324,10.416c-0.166,0.721-0.443,1.829-0.443,2.051c0,0.498,0.887,4.931,4.765,4.931
				C366.039,391.571,368.698,389.797,370.527,386.307z"/>
		</g>
		<g clip-path="url(#SVGID_14_)">
			<path fill="#078F00" d="M386.543,376.113c0.721-2.881,0.887-3.49,0.887-4.654c0-2.105-0.831-2.548-1.718-2.548
				c-1.994,0-3.103,2.659-4.044,6.593c-0.333,1.219-0.389,1.274-0.942,1.274c-0.11,0-0.665,0-0.665-0.554
				c0-0.167,0.721-3.436,1.718-5.375c0.499-0.997,1.552-3.158,4.1-3.158c2.493,0,4.82,1.662,5.098,4.82
				c0.941-1.274,3.656-4.82,8.644-4.82c1.385,0,3.157,0.277,4.543,1.441c1.551,1.329,1.718,3.213,1.772,3.934
				c2.05-2.937,4.876-5.375,9.031-5.375s6.371,2.327,6.371,5.929c0,3.158-2.326,9.308-3.379,12.189
				c-0.499,1.219-0.998,2.548-0.998,3.934c0,1.274,0.389,1.828,1.33,1.828c3.047,0,4.82-3.934,5.651-6.87
				c0.277-0.831,0.277-0.997,0.831-0.997c0.166,0,0.665,0,0.665,0.554c0,0.443-2.05,8.532-7.258,8.532
				c-2.604,0-4.544-1.939-4.544-4.543c0-1.108,0.222-1.718,0.721-3.048c1.108-2.936,3.435-9.252,3.435-12.41
				c0-1.994-0.609-3.878-2.991-3.878c-6.039,0-8.976,6.648-9.142,7.368c-0.499,2.161-2.549,10.25-3.324,13.353
				c-0.443,1.773-0.776,3.158-2.494,3.158c-0.831,0-1.606-0.499-1.606-1.496c0-0.276,0.499-2.16,0.721-3.269l1.107-4.211
				l1.552-6.427c0.443-1.662,0.831-3.214,0.831-4.599c0-1.828-0.499-3.878-2.992-3.878c-5.263,0-8.199,5.041-9.03,6.759
				c-0.056,0.222-0.499,1.828-0.721,2.771c-0.277,1.274-0.609,2.493-0.941,3.712l-1.22,4.986c-0.332,1.386-0.997,3.989-1.053,4.101
				c-0.388,1.107-1.385,1.551-2.05,1.551c-0.831,0-1.606-0.499-1.606-1.496c0-0.276,0.332-1.551,0.499-2.382L386.543,376.113z"/>
		</g>
	</g>
	<g id="path15050_32_" inkscape:connector-curvature="0">
		<g>
			<path fill="none" stroke="#000000" stroke-width="2" stroke-linecap="round" d="M145.557,175.456c0,237.849,0,237.849,0,237.849
				L15.796,546.094"/>
			<g>
				<path d="M145.557,179.045l7.205,4.383l0.164-0.246l-4.668-11.75c-0.9-4.094-1.801-8.188-2.701-12.281
					c-0.902,4.094-1.801,8.188-2.703,12.281l-4.666,11.75l0.121,0.246L145.557,179.045z"/>
			</g>
			<g>
				<path d="M18.305,543.527l8.216,1.9l-0.055,0.291l-11.551,5.142c-3.505,2.298-7.01,4.597-10.515,6.896
					c2.216-3.559,4.434-7.114,6.65-10.673l4.875-11.665l0.259-0.092L18.305,543.527z"/>
			</g>
		</g>
	</g>
	
		<path id="path15050_31_" inkscape:connector-curvature="0" fill="none" stroke="#000000" stroke-width="2" stroke-linecap="round" stroke-dasharray="2,2" d="
		M341.671,506.932"/>
	
		<path id="path15050_28_" inkscape:connector-curvature="0" fill="none" stroke="#078F00" stroke-width="2" stroke-dasharray="4,4" d="
		M429.626,413.304l-90.203,92.081"/>
	<g id="path15052_2_" inkscape:connector-curvature="0">
		<g>
			
				<line fill="none" stroke="#000000" stroke-width="2" stroke-linecap="round" x1="145.436" y1="413.544" x2="468.096" y2="413.544"/>
			<g>
				<path d="M464.507,413.544l-4.383-7.205l0.246-0.164l11.75,4.668c4.094,0.9,8.188,1.801,12.281,2.701
					c-4.094,0.902-8.188,1.801-12.281,2.703l-11.75,4.666l-0.246-0.121L464.507,413.544z"/>
			</g>
		</g>
	</g>
	
		<path id="path15182_15_" inkscape:connector-curvature="0" fill="none" stroke="#000000" stroke-width="1.9368" stroke-dasharray="0.7074,2.8294" d="
		M145.901,413.544"/>
	<g id="path15126-2_2_" inkscape:connector-curvature="0">
		<g>
			<path fill="none" stroke="#FF0000" stroke-width="2.1522" stroke-linecap="round" d="M145.557,413.304
				c110.47-56.443,157.711-80.811,177.909-91.331"/>
			<g>
				<path fill="#FF0000" d="M320.042,323.778l-7.977-4.327l0.14-0.285l13.454-2.022c4.294-1.38,8.589-2.759,12.883-4.139
					c-3.318,3.056-6.639,6.108-9.956,9.164l-8.399,10.702l-0.295,0.021L320.042,323.778z"/>
			</g>
		</g>
	</g>
	
		<path id="path15182_13_" inkscape:connector-curvature="0" fill="none" stroke="#078F00" stroke-width="2" stroke-dasharray="4,4" d="
		M339.423,506.97c-284.877,0-284.877,0-284.877,0"/>
	<g>
		<defs>
			<rect id="SVGID_15_" x="-31.792" y="538.03" width="31.021" height="27.755"/>
		</defs>
		<clipPath id="SVGID_16_">
			<use xlink:href="#SVGID_15_"  overflow="visible"/>
		</clipPath>
		<g clip-path="url(#SVGID_16_)">
			<path d="M-15.617,555.223c-0.644,2.576-0.995,3.864-0.995,5.152c0,1.99,0.937,3.864,3.22,3.864c1.874,0,5.855-1.405,7.787-7.67
				c0.117-0.409,0.234-0.644,0.762-0.644c0.175,0,0.702,0,0.702,0.585c0,1.464-3.337,9.017-9.368,9.017
				c-3.513,0-5.62-2.283-6.322-4.449c-0.176,0.352-2.284,4.449-6.148,4.449c-2.575,0-5.503-1.171-5.503-3.864
				c0-1.874,1.464-3.396,3.22-3.396c0.879,0,2.167,0.469,2.167,2.049c0,1.64-1.288,2.869-2.752,3.162
				c1.229,0.761,2.576,0.761,2.927,0.761c2.576,0,4.626-2.459,5.562-6.089c2.166-8.197,3.161-12.119,3.161-13.935
				c0-3.396-2.049-3.923-3.161-3.923c-1.99,0-5.854,1.464-7.846,7.67c-0.117,0.527-0.293,0.645-0.761,0.645
				c-0.117,0-0.703,0-0.703-0.586c0-1.464,3.338-9.017,9.427-9.017c1.698,0,4.859,0.585,6.323,4.45
				c0.702-1.348,2.752-4.45,6.147-4.45c1.99,0,5.445,0.819,5.445,3.864c0,2.342-1.874,3.396-3.162,3.396
				c-1.581,0-2.225-1.113-2.225-2.05c0-1.405,1.171-2.868,2.811-3.161c-1.229-0.762-2.635-0.762-2.928-0.762
				c-4.099,0-5.445,5.387-5.796,6.908L-15.617,555.223z"/>
		</g>
	</g>
	<g>
		<defs>
			<rect id="SVGID_17_" x="469.708" y="421.419" width="29.387" height="39.183"/>
		</defs>
		<clipPath id="SVGID_18_">
			<use xlink:href="#SVGID_17_"  overflow="visible"/>
		</clipPath>
		<g clip-path="url(#SVGID_18_)">
			<path d="M492.473,448.333c-1.639,6.615-7.669,11.943-13.699,11.943c-3.631,0-6.207-2.166-6.207-5.094
				c0-2.868,1.933-3.806,3.279-3.806c0.586,0,2.166,0.234,2.166,2.05c0,1.112-0.585,1.873-1.171,2.4
				c-0.819,0.702-1.581,0.702-2.518,0.702c0.995,2.283,3.63,2.459,4.45,2.459c2.693,0,4.918-1.697,6.439-3.688
				c2.342-3.103,3.045-5.972,3.807-9.017c-1.64,1.64-3.631,2.635-5.914,2.635c-3.454,0-7.143-1.756-7.143-6.967
				c0-2.752,1.054-6.089,3.396-12.295c0.41-1.112,0.995-2.635,0.995-4.099c0-1.874-0.995-1.874-1.463-1.874
				c-1.991,0-4.333,1.757-5.914,7.261c-0.293,0.937-0.352,1.054-0.937,1.054c-0.117,0-0.702,0-0.702-0.586
				c0-0.526,2.166-9.017,7.729-9.017c2.927,0,4.801,2.167,4.801,4.802c0,1.171-0.234,1.814-1.172,4.215
				c-1.99,5.152-2.985,8.782-2.985,11.476c0,2.166,0.644,4.742,3.63,4.742c3.864,0,6.382-4.098,6.615-4.977l2.635-10.538
				c0.352-1.581,0.762-3.162,1.172-4.685c0.234-1.054,0.702-2.868,0.819-3.161c0.526-0.878,1.464-1.229,2.05-1.229
				c0.877,0,1.697,0.527,1.697,1.581c0,0.409,0,0.526-0.234,1.347L492.473,448.333z"/>
		</g>
	</g>
	<g>
		<defs>
			<rect id="SVGID_19_" x="153.735" y="118.188" width="27.754" height="27.754"/>
		</defs>
		<clipPath id="SVGID_20_">
			<use xlink:href="#SVGID_19_"  overflow="visible"/>
		</clipPath>
		<g clip-path="url(#SVGID_20_)">
			<path d="M161.904,140.007c1.229,0,2.107,0.234,4.099,0.995c1.229,0.41,2.283,0.761,3.454,0.761c1.932,0,5.679-1.112,7.025-4.918
				c0.176-0.409,0.293-0.761,0.82-0.761c0.468,0,0.702,0.293,0.702,0.585c0,1.581-3.396,9.017-9.192,9.017
				c-1.697,0-2.751-0.937-3.747-2.166c-1.463-1.698-2.049-2.225-3.396-2.225c-1.873,0-3.63,1.58-4.977,3.63
				c-0.352,0.644-0.468,0.761-0.937,0.761c-0.117,0-0.703,0-0.703-0.585c0-0.41,2.05-3.747,6.031-7.67l5.269-4.918
				c1.113-0.937,6.031-5.152,8.139-7.67c-1.522,0-2.166,0-4.508-0.878c-1.347-0.469-2.459-0.879-3.689-0.879
				c-0.468,0-3.863,0.059-4.977,2.752c-0.116,0.352-0.233,0.645-0.761,0.645c-0.526,0-0.702-0.352-0.702-0.645
				c0-1.229,2.692-6.675,7.084-6.675c1.932,0,2.928,1.172,4.04,2.518c0.878,0.996,1.58,1.874,2.985,1.874s2.635-0.937,4.392-3.747
				c0.293-0.527,0.468-0.645,0.878-0.645c0.117,0,0.645,0,0.645,0.586c0,0.234-1.288,3.045-6.851,8.489
				c-2.107,2.108-5.737,5.211-5.737,5.27c-2.108,1.815-3.806,3.278-6.968,6.675C160.85,140.007,161.787,140.007,161.904,140.007z"/>
		</g>
	</g>
	<g>
		<path fill="#FF0000" d="M363.62,343.902c-0.067,0.357-0.202,0.656-0.202,1.014c0,1.074,1.89,1.074,4.388,1.074
			c1.282,0,1.89,0,1.89,0.655c0,1.193-0.877,1.193-1.35,1.193c-1.418,0-2.902-0.119-4.388-0.119c-1.418,0-2.903-0.06-4.32-0.06
			c-1.891,0-6.684,0.179-8.573,0.179c-0.203,0-1.013,0-1.013-0.716c0-1.133,0.742-1.133,1.89-1.133c5.333,0,5.469-0.478,6.144-2.804
			l9.046-32.03c0.202-0.716,0.27-0.895,0.27-1.134c0-0.656-0.405-0.834-1.485-0.954c-0.81-0.06-2.024-0.119-2.902-0.119
			c-1.351,0-1.958,0-1.958-0.716c0-1.133,0.743-1.133,2.025-1.133h21.872c8.843,0,13.298,4.414,13.298,9.006
			c0,6.681-9.383,12.885-18.969,12.885h-11.476L363.62,343.902z M368.075,327.44h9.519c2.971,0,7.021-0.479,10.396-3.162
			c2.633-2.146,3.983-7.277,3.983-9.604c0-4.115-3.578-5.726-9.181-5.726h-6.48c-2.903,0-3.038,0.179-3.646,2.267L368.075,327.44z"
			/>
	</g>
	
		<path id="path15176_12_" inkscape:connector-curvature="0" fill="none" stroke="#078F00" stroke-width="2" stroke-dasharray="4,4" d="
		M338.542,313.004c0.881,193.206,0.881,193.206,0.881,193.206"/>
	
		<line fill="none" stroke="#FF0000" stroke-width="2.1522" stroke-linecap="round" stroke-dasharray="4,4" x1="145.557" y1="413.304" x2="339.423" y2="506.21"/>
	
		<path id="path15050_26_" inkscape:connector-curvature="0" fill="none" stroke="#078F00" stroke-width="2" stroke-dasharray="4,4" d="
		M429.626,220.111l-90.203,92.081"/>
	
		<path id="path15176_10_" inkscape:connector-curvature="0" fill="none" stroke="#078F00" stroke-width="2" stroke-dasharray="4,4" d="
		M429.897,220.402c0.881,193.206,0.881,193.206,0.881,193.206"/>
	
		<path id="path15182_11_" inkscape:connector-curvature="0" fill="none" stroke="#078F00" stroke-width="2" stroke-dasharray="4,4" d="
		M339.423,312.192c-284.877,0-284.877,0-284.877,0"/>
	
		<path id="path15176_4_" inkscape:connector-curvature="0" fill="none" stroke="#078F00" stroke-width="2" stroke-linecap="round" stroke-dasharray="4,4" d="
		M54.106,312.193c0.881,193.205,0.881,194.018,0.881,194.018"/>
	
		<path id="path15050_24_" inkscape:connector-curvature="0" fill="none" stroke="#078F00" stroke-width="2" stroke-dasharray="4,4" d="
		M144.307,220.111l-90.201,92.082"/>
	
		<path id="path15182_6_" inkscape:connector-curvature="0" fill="none" stroke="#078F00" stroke-width="2" stroke-dasharray="4,4" d="
		M427.186,220.081c-284.877,0-284.877,0-284.877,0"/>
	<g id="path15050_22_" inkscape:connector-curvature="0">
		<g>
			<line fill="none" stroke="#078F00" stroke-width="2" x1="145.436" y1="413.544" x2="65.915" y2="495.284"/>
			<g>
				<path fill="#078F00" d="M68.418,492.71l8.221,1.883l-0.054,0.291l-11.539,5.167c-3.5,2.307-7,4.612-10.5,6.919
					c2.208-3.563,4.418-7.124,6.626-10.688l4.849-11.676l0.258-0.092L68.418,492.71z"/>
			</g>
		</g>
	</g>
	<g id="path15050_20_" inkscape:connector-curvature="0">
		<g>
			
				<line fill="none" stroke="#078F00" stroke-width="2" stroke-linecap="round" x1="145.557" y1="413.304" x2="145.328" y2="236.416"/>
			<g>
				<path fill="#078F00" d="M145.333,240.006l-7.2,4.392l-0.164-0.246l4.653-11.756c0.895-4.095,1.79-8.19,2.685-12.285
					c0.908,4.093,1.812,8.185,2.719,12.278l4.681,11.744l-0.121,0.247L145.333,240.006z"/>
			</g>
		</g>
	</g>
	<g id="path15050_9_" inkscape:connector-curvature="0">
		<g>
			
				<line fill="none" stroke="#078F00" stroke-width="2.4092" stroke-linecap="round" x1="145.901" y1="413.608" x2="411.137" y2="413.608"/>
			<g>
				<path fill="#078F00" d="M406.813,413.608l-5.28-8.68l0.297-0.197l14.154,5.623c4.931,1.085,9.862,2.169,14.794,3.254
					c-4.932,1.087-9.863,2.169-14.794,3.256l-14.154,5.621l-0.297-0.146L406.813,413.608z"/>
			</g>
		</g>
	</g>
	
		<line fill="none" stroke="#FF0000" stroke-width="2.1522" stroke-linecap="round" stroke-dasharray="4,4" x1="145.116" y1="220.374" x2="338.981" y2="313.28"/>
	<g>
		<defs>
			<rect id="SVGID_21_" x="228.419" y="138.535" width="201.479" height="52.408"/>
		</defs>
		<clipPath id="SVGID_22_">
			<use xlink:href="#SVGID_21_"  overflow="visible"/>
		</clipPath>
		<g clip-path="url(#SVGID_22_)">
			<path fill="#FF1A10" d="M232.65,172.494c1.253-5.095,5.639-9.271,9.689-9.271c3.049,0,5.805,2.38,5.805,6.808
				c0,6.223-5.387,12.111-10.273,12.111c-1.963,0-3.299-1.127-4.135-2.798c-1.127,4.511-2.464,10.107-2.673,10.483
				c-0.083,0.125-0.585,0.877-1.461,0.877c-0.71,0-1.169-0.501-1.169-1.128c0-0.083,0-0.167,0.125-0.668L232.65,172.494z
				 M242.798,177.255c1.128-2.046,2.339-6.724,2.339-9.021c0-2.882-1.336-4.093-2.882-4.093c-1.294,0-3.383,0.919-5.179,3.967
				c-0.918,1.671-1.336,3.174-2.505,7.852c-0.126,0.543-0.335,1.378-0.335,1.545c0,0.376,0.669,3.717,3.592,3.717
				C239.415,181.223,241.42,179.886,242.798,177.255z"/>
		</g>
		<path clip-path="url(#SVGID_22_)" fill="#FF1A10" d="M256.958,166.938l-2.965,2.255l-0.627-0.667l5.807-4.471l8.898,20.721
			l21.555-44.95c0.209-0.459,0.375-0.836,0.92-0.836c0.502,0,0.836,0.376,0.836,0.836c0,0.126,0,0.209-0.293,0.752l-22.852,47.708
			c-0.418,0.794-0.459,0.835-1.754,0.835L256.958,166.938z"/>
		
			<line clip-path="url(#SVGID_22_)" fill="none" stroke="#FF1A10" stroke-width="1.6687" stroke-miterlimit="10" x1="290.542" y1="139.822" x2="429.026" y2="139.822"/>
		<g clip-path="url(#SVGID_22_)">
			<path fill="#FF1A10" d="M295.302,177.297c-0.209,0.793-0.25,1.002-0.25,2.005c0,0.584,0,1.921,1.253,1.921
				c1.67,0,2.464-2.464,3.174-5.179c0.125-0.584,0.167-0.751,0.585-0.751c0.125,0,0.501,0,0.501,0.417
				c0,0.083-0.501,2.506-1.253,4.093c-0.71,1.503-1.754,2.339-3.133,2.339c-1.963,0-3.8-1.462-3.8-3.842
				c0-0.668,0.083-0.96,0.209-1.42l5.262-20.882l0.125-0.835c0-0.334-0.041-0.71-2.046-0.71c-0.627,0-1.044,0-1.044-0.459
				c0-0.793,0.459-0.835,0.793-0.877c1.086-0.083,4.135-0.418,5.096-0.418c0.543,0,0.543,0.418,0.543,0.459L295.302,177.297z"/>
		</g>
		<g clip-path="url(#SVGID_22_)">
			<path fill="#FF1A10" d="M317.715,169.618H305.67c0-0.818,0-0.877,0.292-1.14l7.046-6.958c0.936-1.053,2.749-3.07,2.749-5.613
				c0-2.368-1.521-4.649-4.444-4.649c-1.374,0-3.362,0.644-4.269,2.719c1.521,0,1.725,1.023,1.725,1.549
				c0,1.053-0.848,1.55-1.549,1.55c-0.293,0-1.55-0.146-1.55-1.637c0-2.69,2.456-5.233,6.081-5.233c3.742,0,6.841,2.164,6.841,5.701
				c0,2.777-2.017,4.59-4.181,6.315c-1.754,1.374-2.777,2.192-5.847,4.912h5.379c0.409,0,2.661,0,2.895-0.176
				c0.38-0.292,0.673-2.017,0.761-2.66h0.993L317.715,169.618z"/>
		</g>
		<g clip-path="url(#SVGID_22_)">
			<path fill="#FF1A10" d="M348.927,183.771c0,0.584,0,1.378-0.835,1.378s-0.835-0.793-0.835-1.378v-11.694h-11.694
				c-0.585,0-1.378,0-1.378-0.835c0-0.835,0.793-0.835,1.378-0.835h11.694v-11.694c0-0.585,0-1.378,0.835-1.378
				s0.835,0.793,0.835,1.378v11.694h11.652c0.584,0,1.378,0,1.378,0.835c0,0.835-0.794,0.835-1.378,0.835h-11.652V183.771z"/>
		</g>
		<g clip-path="url(#SVGID_22_)">
			<path fill="#FF1A10" d="M379.718,169.571c0.543-2.172,0.668-2.631,0.668-3.508c0-1.587-0.626-1.921-1.295-1.921
				c-1.503,0-2.339,2.004-3.049,4.97c-0.25,0.919-0.292,0.96-0.71,0.96c-0.083,0-0.501,0-0.501-0.417
				c0-0.125,0.543-2.589,1.295-4.051c0.376-0.751,1.169-2.38,3.091-2.38c1.879,0,3.633,1.253,3.842,3.633
				c0.71-0.96,2.757-3.633,6.515-3.633c1.045,0,2.381,0.209,3.425,1.086c1.17,1.002,1.295,2.422,1.337,2.965
				c1.545-2.213,3.675-4.051,6.808-4.051c3.132,0,4.803,1.754,4.803,4.469c0,2.38-1.755,7.016-2.548,9.188
				c-0.376,0.919-0.752,1.921-0.752,2.965c0,0.96,0.292,1.378,1.002,1.378c2.298,0,3.634-2.965,4.261-5.179
				c0.208-0.626,0.208-0.751,0.626-0.751c0.125,0,0.501,0,0.501,0.417c0,0.334-1.545,6.432-5.471,6.432
				c-1.963,0-3.425-1.462-3.425-3.425c0-0.835,0.167-1.294,0.543-2.297c0.835-2.213,2.59-6.975,2.59-9.355
				c0-1.503-0.46-2.923-2.256-2.923c-4.552,0-6.766,5.012-6.891,5.555c-0.376,1.628-1.921,7.726-2.506,10.065
				c-0.334,1.336-0.585,2.38-1.879,2.38c-0.627,0-1.212-0.376-1.212-1.127c0-0.209,0.376-1.629,0.543-2.464l0.836-3.174l1.169-4.845
				c0.334-1.253,0.627-2.422,0.627-3.466c0-1.378-0.376-2.923-2.256-2.923c-3.968,0-6.181,3.8-6.808,5.095
				c-0.041,0.167-0.376,1.378-0.543,2.088c-0.208,0.96-0.459,1.879-0.71,2.798l-0.918,3.759c-0.251,1.044-0.752,3.007-0.794,3.09
				c-0.292,0.835-1.044,1.169-1.545,1.169c-0.627,0-1.212-0.376-1.212-1.127c0-0.209,0.251-1.169,0.376-1.796L379.718,169.571z"/>
		</g>
		<g clip-path="url(#SVGID_22_)">
			<path fill="#FF1A10" d="M424.177,169.618h-12.045c0-0.818,0-0.877,0.292-1.14l7.046-6.958c0.936-1.053,2.748-3.07,2.748-5.613
				c0-2.368-1.52-4.649-4.443-4.649c-1.374,0-3.362,0.644-4.269,2.719c1.521,0,1.725,1.023,1.725,1.549
				c0,1.053-0.848,1.55-1.549,1.55c-0.293,0-1.55-0.146-1.55-1.637c0-2.69,2.456-5.233,6.081-5.233c3.742,0,6.841,2.164,6.841,5.701
				c0,2.777-2.017,4.59-4.181,6.315c-1.754,1.374-2.777,2.192-5.847,4.912h5.379c0.41,0,2.661,0,2.895-0.176
				c0.38-0.292,0.673-2.017,0.761-2.66h0.993L424.177,169.618z"/>
		</g>
	</g>
	<g id="path15050_36_" inkscape:connector-curvature="0">
		<g>
			
				<line fill="none" stroke="#FF0000" stroke-width="2.1522" stroke-linecap="round" x1="317.643" y1="202.135" x2="285.415" y2="259.091"/>
			<g>
				<path fill="#FF0000" d="M287.317,255.729l9.07-0.287l0.023,0.317l-10.599,8.531c-3.013,3.356-6.025,6.714-9.038,10.07
					c1.324-4.312,2.652-8.622,3.977-12.935l1.857-13.477l0.243-0.167L287.317,255.729z"/>
			</g>
		</g>
	</g>
	<g>
		<g>
			<path fill="#FF0500" d="M262.502,368.605c1.527-6.211,6.872-11.301,11.81-11.301c3.716,0,7.076,2.901,7.076,8.297
				c0,7.585-6.566,14.762-12.522,14.762c-2.393,0-4.021-1.374-5.039-3.41c-1.375,5.498-3.004,12.318-3.258,12.776
				c-0.103,0.153-0.713,1.069-1.782,1.069c-0.865,0-1.425-0.611-1.425-1.374c0-0.103,0-0.204,0.152-0.814L262.502,368.605z
				 M274.872,374.408c1.374-2.494,2.851-8.196,2.851-10.995c0-3.513-1.629-4.988-3.513-4.988c-1.578,0-4.123,1.119-6.312,4.836
				c-1.12,2.035-1.629,3.868-3.055,9.569c-0.152,0.662-0.407,1.68-0.407,1.883c0,0.459,0.814,4.531,4.378,4.531
				C270.749,379.244,273.192,377.615,274.872,374.408z"/>
		</g>
	</g>
</g>
<g>
	
		<ellipse opacity="0.5" fill="none" stroke="#000000" stroke-width="1.9834" stroke-linecap="round" stroke-dasharray="3.7937,3.7937" cx="-457.32" cy="376.369" rx="266.275" ry="65.466"/>
	<path opacity="0.5" fill="#FF0000" d="M-364.795,329.076c0,0-6.743-28.667-34.875-43.884c-28.13-15.218-58.115-9.412-58.115-9.412
		l0.232,100.163L-364.795,329.076z"/>
	<path opacity="0.5" fill="#078F00" d="M-344.564,376.125c0,0,13.113-15.101,5.487-29.929
		c-8.987-17.475-25.594-17.475-25.594-17.475l-93.114,47.404L-344.564,376.125z"/>
	<g id="path15050_49_" inkscape:connector-curvature="0">
		<g>
			<path fill="none" stroke="#000000" stroke-width="2" stroke-linecap="round" d="M-457.663,71.271c0,240.74,0,305.098,0,305.098
				l-129.761,132.79"/>
			<g>
				<path d="M-457.663,74.86l7.205,4.383l0.164-0.246l-4.668-11.75c-0.9-4.094-1.801-8.188-2.701-12.281
					c-0.902,4.094-1.801,8.188-2.703,12.281l-4.666,11.75l0.121,0.246L-457.663,74.86z"/>
			</g>
			<g>
				<path d="M-584.915,506.591l8.216,1.9l-0.055,0.291l-11.551,5.142c-3.505,2.298-7.01,4.597-10.515,6.896
					c2.216-3.559,4.435-7.114,6.65-10.673l4.875-11.665l0.259-0.092L-584.915,506.591z"/>
			</g>
		</g>
	</g>
	
		<path id="path15050_48_" inkscape:connector-curvature="0" fill="none" stroke="#000000" stroke-width="2" stroke-linecap="round" stroke-dasharray="2,2" d="
		M-261.55,469.997"/>
	<g id="path15052_1_" inkscape:connector-curvature="0">
		<g>
			
				<line fill="none" stroke="#000000" stroke-width="2" stroke-linecap="round" x1="-457.784" y1="376.609" x2="-135.124" y2="376.609"/>
			<g>
				<path d="M-138.714,376.609l-4.383-7.205l0.246-0.164l11.75,4.668c4.094,0.9,8.188,1.801,12.281,2.701
					c-4.094,0.902-8.188,1.801-12.281,2.703l-11.75,4.666l-0.246-0.121L-138.714,376.609z"/>
			</g>
		</g>
	</g>
	
		<path id="path15182_20_" inkscape:connector-curvature="0" fill="none" stroke="#000000" stroke-width="1.9368" stroke-dasharray="0.7074,2.8294" d="
		M-457.32,376.609"/>
	<g id="path15126-2_1_" inkscape:connector-curvature="0">
		<g>
			<path fill="none" stroke="#FF0000" stroke-width="2.1522" stroke-linecap="round" d="M-457.663,376.369
				c110.47-56.443,157.711-80.811,177.909-91.331"/>
			<g>
				<path fill="#FF0000" d="M-283.178,286.842l-7.978-4.327l0.14-0.285l13.454-2.022c4.294-1.38,8.588-2.759,12.883-4.139
					c-3.318,3.056-6.638,6.108-9.957,9.164l-8.399,10.702l-0.294,0.021L-283.178,286.842z"/>
			</g>
		</g>
	</g>
	<g>
		<defs>
			<rect id="SVGID_23_" x="-635.013" y="501.094" width="31.021" height="27.755"/>
		</defs>
		<clipPath id="SVGID_24_">
			<use xlink:href="#SVGID_23_"  overflow="visible"/>
		</clipPath>
		<g clip-path="url(#SVGID_24_)">
			<path d="M-618.837,518.288c-0.645,2.576-0.996,3.864-0.996,5.152c0,1.99,0.938,3.864,3.221,3.864c1.873,0,5.854-1.405,7.787-7.67
				c0.117-0.409,0.233-0.644,0.761-0.644c0.176,0,0.703,0,0.703,0.585c0,1.464-3.338,9.017-9.368,9.017
				c-3.513,0-5.62-2.283-6.323-4.449c-0.176,0.352-2.283,4.449-6.147,4.449c-2.576,0-5.504-1.171-5.504-3.864
				c0-1.874,1.464-3.396,3.221-3.396c0.878,0,2.166,0.469,2.166,2.049c0,1.64-1.288,2.869-2.752,3.162
				c1.229,0.761,2.576,0.761,2.928,0.761c2.576,0,4.625-2.459,5.562-6.089c2.167-8.197,3.162-12.119,3.162-13.935
				c0-3.396-2.049-3.923-3.162-3.923c-1.99,0-5.854,1.464-7.845,7.67c-0.117,0.527-0.293,0.645-0.762,0.645
				c-0.117,0-0.702,0-0.702-0.586c0-1.464,3.337-9.017,9.426-9.017c1.698,0,4.86,0.585,6.323,4.45
				c0.703-1.348,2.752-4.45,6.147-4.45c1.991,0,5.445,0.819,5.445,3.864c0,2.342-1.873,3.396-3.161,3.396
				c-1.581,0-2.226-1.113-2.226-2.05c0-1.405,1.171-2.868,2.811-3.161c-1.229-0.762-2.635-0.762-2.928-0.762
				c-4.098,0-5.444,5.387-5.796,6.908L-618.837,518.288z"/>
		</g>
	</g>
	<g>
		<defs>
			<rect id="SVGID_25_" x="-133.513" y="384.484" width="29.387" height="39.183"/>
		</defs>
		<clipPath id="SVGID_26_">
			<use xlink:href="#SVGID_25_"  overflow="visible"/>
		</clipPath>
		<g clip-path="url(#SVGID_26_)">
			<path d="M-110.746,411.398c-1.639,6.615-7.669,11.943-13.7,11.943c-3.63,0-6.206-2.166-6.206-5.094
				c0-2.868,1.932-3.806,3.279-3.806c0.585,0,2.167,0.234,2.167,2.05c0,1.112-0.585,1.873-1.171,2.4
				c-0.819,0.702-1.581,0.702-2.518,0.702c0.996,2.283,3.63,2.459,4.45,2.459c2.693,0,4.918-1.697,6.44-3.688
				c2.342-3.103,3.044-5.972,3.806-9.017c-1.639,1.64-3.63,2.635-5.914,2.635c-3.454,0-7.143-1.756-7.143-6.967
				c0-2.752,1.054-6.089,3.396-12.295c0.41-1.112,0.996-2.635,0.996-4.099c0-1.874-0.996-1.874-1.464-1.874
				c-1.991,0-4.333,1.757-5.913,7.261c-0.293,0.937-0.352,1.054-0.937,1.054c-0.117,0-0.703,0-0.703-0.586
				c0-0.526,2.167-9.017,7.729-9.017c2.927,0,4.801,2.167,4.801,4.802c0,1.171-0.234,1.814-1.171,4.215
				c-1.991,5.152-2.986,8.782-2.986,11.476c0,2.166,0.644,4.742,3.63,4.742c3.864,0,6.382-4.098,6.616-4.977l2.635-10.538
				c0.352-1.581,0.761-3.162,1.171-4.685c0.234-1.054,0.703-2.868,0.82-3.161c0.527-0.878,1.464-1.229,2.049-1.229
				c0.878,0,1.698,0.527,1.698,1.581c0,0.409,0,0.526-0.234,1.347L-110.746,411.398z"/>
		</g>
	</g>
	<g>
		<defs>
			<rect id="SVGID_27_" x="-449.486" y="41.089" width="27.754" height="27.754"/>
		</defs>
		<clipPath id="SVGID_28_">
			<use xlink:href="#SVGID_27_"  overflow="visible"/>
		</clipPath>
		<g clip-path="url(#SVGID_28_)">
			<path d="M-441.316,62.908c1.229,0,2.107,0.234,4.099,0.995c1.229,0.41,2.283,0.762,3.454,0.762c1.932,0,5.679-1.112,7.025-4.918
				c0.176-0.41,0.293-0.762,0.82-0.762c0.468,0,0.702,0.293,0.702,0.586c0,1.581-3.396,9.017-9.192,9.017
				c-1.697,0-2.751-0.938-3.747-2.167c-1.463-1.697-2.049-2.225-3.396-2.225c-1.873,0-3.63,1.581-4.977,3.63
				c-0.352,0.645-0.468,0.762-0.937,0.762c-0.117,0-0.703,0-0.703-0.586c0-0.409,2.05-3.747,6.031-7.67l5.269-4.918
				c1.113-0.937,6.031-5.152,8.139-7.67c-1.522,0-2.166,0-4.508-0.878c-1.347-0.469-2.459-0.878-3.689-0.878
				c-0.468,0-3.863,0.059-4.977,2.752c-0.116,0.351-0.233,0.644-0.761,0.644c-0.526,0-0.702-0.352-0.702-0.644
				c0-1.229,2.692-6.675,7.084-6.675c1.932,0,2.928,1.171,4.04,2.518c0.878,0.995,1.58,1.873,2.985,1.873s2.635-0.937,4.392-3.747
				c0.293-0.526,0.468-0.644,0.878-0.644c0.117,0,0.645,0,0.645,0.585c0,0.234-1.288,3.045-6.851,8.49
				c-2.107,2.107-5.737,5.211-5.737,5.269c-2.108,1.815-3.806,3.279-6.968,6.675C-442.37,62.908-441.433,62.908-441.316,62.908z"/>
		</g>
	</g>
	<g>
		<path fill="#FF0000" d="M-248.409,317.581c-0.067,0.357-0.202,0.656-0.202,1.014c0,1.074,1.89,1.074,4.388,1.074
			c1.282,0,1.89,0,1.89,0.654c0,1.193-0.877,1.193-1.35,1.193c-1.418,0-2.902-0.119-4.388-0.119c-1.418,0-2.903-0.059-4.32-0.059
			c-1.891,0-6.684,0.178-8.573,0.178c-0.203,0-1.013,0-1.013-0.715c0-1.133,0.742-1.133,1.89-1.133c5.333,0,5.469-0.479,6.144-2.805
			l9.046-32.029c0.202-0.717,0.27-0.895,0.27-1.134c0-0.656-0.405-0.835-1.485-0.954c-0.81-0.061-2.024-0.119-2.902-0.119
			c-1.351,0-1.958,0-1.958-0.717c0-1.133,0.743-1.133,2.025-1.133h21.872c8.843,0,13.298,4.414,13.298,9.007
			c0,6.681-9.383,12.884-18.969,12.884h-11.476L-248.409,317.581z M-243.954,301.118h9.519c2.971,0,7.021-0.478,10.396-3.162
			c2.633-2.146,3.983-7.276,3.983-9.603c0-4.116-3.578-5.726-9.181-5.726h-6.48c-2.903,0-3.038,0.179-3.646,2.266L-243.954,301.118z
			"/>
	</g>
	<g>
		<g>
			<path fill="#FF0500" d="M-354.503,287.516c1.527-6.211,6.872-11.301,11.81-11.301c3.716,0,7.076,2.901,7.076,8.297
				c0,7.585-6.566,14.762-12.522,14.762c-2.393,0-4.021-1.374-5.039-3.41c-1.375,5.498-3.004,12.318-3.258,12.776
				c-0.103,0.153-0.713,1.069-1.782,1.069c-0.865,0-1.425-0.611-1.425-1.374c0-0.103,0-0.204,0.152-0.814L-354.503,287.516z
				 M-342.133,293.319c1.374-2.494,2.851-8.195,2.851-10.995c0-3.513-1.629-4.989-3.513-4.989c-1.578,0-4.123,1.12-6.312,4.836
				c-1.12,2.037-1.629,3.869-3.055,9.57c-0.152,0.662-0.407,1.68-0.407,1.883c0,0.459,0.814,4.531,4.378,4.531
				C-346.256,298.155-343.812,296.526-342.133,293.319z"/>
		</g>
	</g>
	<circle fill="none" stroke="#000000" stroke-width="4" stroke-linecap="round" cx="-457.784" cy="376.609" r="266.275"/>
	<path opacity="0.5" fill="#A9A2FF" d="M-364.671,328.722c0,0-3.809,25.139-40.06,48.808c-31.277,20.422-82.21,28.8-82.21,28.8
		l29.156-29.721L-364.671,328.722z"/>
	<g>
		<path fill="#0000FF" d="M-394.51,400.631c1.987-2.494,3.383-5.708,4.144-8.371c0.211-0.762,0.211-0.889,0.634-0.889
			c0.465,0,0.507,0.339,0.507,0.423c0,0.043-0.888,4.947-4.862,9.937c-0.423,0.508-0.423,0.592-0.423,1.479
			c0,1.016,0,4.313,1.311,4.313c0.084,0,1.606,0,2.368-2.072c0.127-0.296,0.253-0.423,0.55-0.423c0.253,0,0.507,0.127,0.507,0.423
			c0,0.677-1.311,3.002-3.552,3.002c-1.903,0-3.298-1.311-3.848-3.552c-3.213,2.579-6.258,3.552-8.921,3.552
			c-4.313,0-6.85-3.213-6.85-7.146c0-5.962,5.582-12.008,11.374-12.008c3.129,0,7.061,2.071,7.061,8.71V400.631z M-397.427,399.067
			c0-3.298,0-8.837-4.186-8.837c-1.479,0-3.763,0.804-5.75,3.891c-1.353,2.156-2.453,6.723-2.453,8.794
			c0,2.706,1.269,4.609,3.806,4.609c1.691,0,4.947-0.466,8.667-3.721C-397.427,403.084-397.427,400.631-397.427,399.067z"/>
	</g>
	<g>
		<g>
			<path fill="#078F00" d="M-306.961,346.226c1.522,1.057,3.086,3.256,3.086,6.3c0,3.129-1.353,5.835-3.382,7.78
				c-1.903,1.86-5.074,3.34-8.161,3.34c-3.086,0-4.947-1.564-5.75-4.102l-2.96,11.67c-0.042,0.127-0.169,0.212-0.507,0.212
				s-0.55-0.254-0.507-0.423l6.723-26.85c0.804-3.213,3.129-7.314,5.455-9.006c1.48-1.1,2.664-1.776,5.116-1.776
				c3.425,0,5.75,2.622,5.75,5.793C-302.098,342.208-304.508,344.831-306.961,346.226z M-308.398,334.344
				c-5.074,0-8.118,6.723-9.048,10.359l-2.706,10.697c-0.211,0.804-0.211,1.438-0.211,1.86c0,3.002,1.606,5.454,4.82,5.454
				c2.41,0,5.243-1.521,6.892-3.805c1.184-1.649,2.199-4.82,2.114-7.272c-0.042-1.945-0.253-3.256-1.86-4.778
				c-1.269,0.508-1.903,0.55-3.467,0.55c-0.761,0-2.959,0.127-2.917-1.057c0-1.396,2.368-1.354,3.256-1.354
				c1.269,0,2.114,0.085,3.256,0.508c2.199-1.312,3.805-4.355,3.805-7.315C-304.466,335.655-305.946,334.344-308.398,334.344z
				 M-311.527,345.972c-0.465,0-1.987-0.085-2.072,0.338c0.423,0.212,1.269,0.169,1.86,0.169c1.015,0,1.48-0.084,2.03-0.296
				C-310.259,345.972-310.639,345.972-311.527,345.972z"/>
		</g>
	</g>
	<g>
		<g>
			<path fill="#FF0000" d="M-418.711,255.627c-0.423,0-0.803,0-0.803-0.423c0-1.311,2.959-7.737,8.245-7.737
				c2.917,0,4.609,2.072,5.624,4.651c1.649,4.101,1.691,7.315,1.734,8.625c1.691-4.271,3.382-8.499,5.581-12.516
				c0.127-0.296,0.381-0.296,0.507-0.296c0.084,0,0.507,0,0.507,0.423c0,0.169-0.507,1.099-0.803,1.607
				c-1.691,3.34-4.397,9.64-5.75,13.826c-0.169,0.55-0.253,1.1-0.338,1.649c-0.169,1.311-0.592,3.72-1.564,7.272
				c-0.465,1.606-0.804,2.537-1.353,2.537c-0.338,0-0.55-0.296-0.55-0.762c0-1.099,1.269-6.004,2.199-9.089
				c0.296-0.846,0.507-1.564,0.507-4.144c0-3.341-0.465-10.74-6.85-10.74c-0.465,0-5.074,0.042-6.723,4.905L-418.711,255.627z"/>
		</g>
	</g>
	<circle cx="-264.678" cy="276.069" r="5"/>
</g>
<g>
	<defs>
		<rect id="SVGID_29_" x="-479.319" y="665.567" width="61.068" height="77.914"/>
	</defs>
	<clipPath id="SVGID_30_">
		<use xlink:href="#SVGID_29_"  overflow="visible"/>
	</clipPath>
	<g clip-path="url(#SVGID_30_)">
		<path d="M-449.777,691.916c1.284,0,2.19,0.755,2.19,2.039c0,0.302,0,0.454-0.529,2.568l-2.719,10.574
			c-0.68,2.87-0.831,3.626-1.662,6.798c-0.831,3.323-0.982,3.928-0.982,5.59c0,1.51,0.227,3.474,2.266,3.474
			c3.097,0,4.457-4.456,5.74-9.366c0.227-1.057,0.302-1.359,1.058-1.359c0.227,0,0.906,0,0.906,0.756
			c0,0.15-0.982,4.758-2.266,7.478c-1.208,2.417-2.946,4.154-5.589,4.154c-3.625,0-6.269-2.493-6.874-5.665
			c-4.532,5.363-8.308,5.665-9.819,5.665c-5.892,0-10.045-4.985-10.045-12.085c0-11.027,9.366-22.131,18.203-22.131
			c3.399,0,5.589,2.039,6.949,4.834C-452.723,693.577-451.59,691.916-449.777,691.916z M-454.082,699.997
			c0.076-0.377,0.227-0.83,0.227-1.283s-1.057-6.646-5.967-6.646c-3.021,0-6.42,2.795-8.762,7.25
			c-1.737,3.475-4.154,12.766-4.154,16.542c0,2.946,1.058,7.1,4.834,7.1c2.115,0,5.212-1.208,8.535-5.362
			c1.133-1.284,1.133-1.436,1.511-2.795L-454.082,699.997z"/>
	</g>
	<g clip-path="url(#SVGID_30_)">
		<path d="M-424.129,727.944c-4.456,9.592-11.254,14.729-12.009,14.729c-0.453,0-0.755-0.303-0.755-0.756
			c0-0.227,0-0.377,0.982-1.283c9.366-9.518,12.161-22.811,12.161-35.727c0-15.786-4.305-27.795-11.708-35.273
			c-1.435-1.359-1.435-1.51-1.435-1.736c0-0.453,0.302-0.756,0.755-0.756c0.755,0,7.251,4.91,11.783,14.2
			c4.154,8.534,4.985,17.674,4.985,23.565C-419.37,711.251-420.277,719.635-424.129,727.944z"/>
	</g>
</g>
<g>
	<defs>
		<rect id="SVGID_31_" x="191.828" y="665.567" width="52.645" height="77.914"/>
	</defs>
	<clipPath id="SVGID_32_">
		<use xlink:href="#SVGID_31_"  overflow="visible"/>
	</clipPath>
	<g clip-path="url(#SVGID_32_)">
		<path d="M202.026,694.937c2.266-2.341,5.363-4.532,8.837-4.532c6.042,0,10.045,5.213,10.045,12.086
			c0,10.876-9.29,22.131-18.203,22.131c-5.589,0-9.593-4.684-9.593-11.859c0-2.643,0.302-3.852,1.208-7.629l6.194-24.623
			c0.377-1.586,1.057-4.154,1.057-4.683c0-0.755-0.151-1.284-3.776-1.284c-1.133,0-1.813,0-1.813-0.906
			c0-1.359,0.831-1.436,1.436-1.51c1.963-0.152,7.478-0.756,9.214-0.756c0.982,0,0.982,0.756,0.982,0.83L202.026,694.937z
			 M198.854,707.702c-1.208,4.759-1.208,6.193-1.208,7.629c0,5.59,2.492,7.629,5.061,7.629c2.945,0,6.42-2.719,8.913-7.779
			c1.359-2.871,3.852-11.557,3.852-16.014c0-4.834-2.04-7.1-4.759-7.1c-1.963,0-5.362,1.133-9.063,6.043
			c-0.68,0.83-0.68,0.981-1.133,2.643L198.854,707.702z"/>
	</g>
	<g clip-path="url(#SVGID_32_)">
		<path d="M239.051,727.944c-4.456,9.593-11.254,14.729-12.009,14.729c-0.453,0-0.755-0.302-0.755-0.755
			c0-0.227,0-0.378,0.982-1.284c9.366-9.517,12.161-22.811,12.161-35.727c0-15.785-4.305-27.795-11.708-35.272
			c-1.435-1.359-1.435-1.511-1.435-1.737c0-0.453,0.302-0.756,0.755-0.756c0.755,0,7.251,4.91,11.783,14.201
			c4.154,8.534,4.985,17.674,4.985,23.564C243.81,711.252,242.903,719.635,239.051,727.944z"/>
	</g>
</g>
<g>
	<defs>
		<rect id="SVGID_33_" x="858.762" y="665.567" width="52.645" height="77.914"/>
	</defs>
	<clipPath id="SVGID_34_">
		<use xlink:href="#SVGID_33_"  overflow="visible"/>
	</clipPath>
	<g clip-path="url(#SVGID_34_)">
		<path d="M879.78,692.067c-4.154,0-8.309,3.248-10.65,7.554c-2.567,4.683-4.078,12.009-4.078,15.106
			c0,4.531,2.039,8.232,6.798,8.232c0.906,0,9.14,0,15.106-7.478c0.453-0.604,0.604-0.755,0.981-0.755
			c0.454,0,0.907,0.528,0.907,0.981c0,0.907-6.346,8.913-17.146,8.913c-7.855,0-12.236-5.967-12.236-12.766
			c0-10.649,10.047-21.45,20.242-21.45c5.363,0,8.914,2.795,8.914,6.495c0,3.021-2.04,4.834-4.23,4.834
			c-1.436,0-2.795-0.83-2.795-2.643c0-0.529,0.151-1.812,1.359-2.946c1.059-1.058,2.115-1.058,3.324-1.058
			C885.219,693.049,882.348,692.067,879.78,692.067z"/>
	</g>
	<g clip-path="url(#SVGID_34_)">
		<path d="M906.113,727.945c-4.456,9.593-11.254,14.729-12.009,14.729c-0.453,0-0.756-0.302-0.756-0.755
			c0-0.227,0-0.378,0.982-1.285c9.365-9.516,12.16-22.81,12.16-35.726c0-15.786-4.305-27.796-11.707-35.272
			c-1.436-1.359-1.436-1.512-1.436-1.738c0-0.453,0.303-0.755,0.756-0.755c0.755,0,7.25,4.909,11.782,14.2
			c4.154,8.535,4.985,17.674,4.985,23.565C910.872,711.252,909.966,719.636,906.113,727.945z"/>
	</g>
</g>
<g>
</g>
</svg>
