<?xml version="1.0" encoding="utf-8"?>
<!-- Generator: Adobe Illustrator 16.0.0, SVG Export Plug-In . SVG Version: 6.00 Build 0)  -->
<!DOCTYPE svg PUBLIC "-//W3C//DTD SVG 1.1//EN" "http://www.w3.org/Graphics/SVG/1.1/DTD/svg11.dtd">
<svg version="1.1" id="Calque_1" xmlns="http://www.w3.org/2000/svg" xmlns:xlink="http://www.w3.org/1999/xlink" x="0px" y="0px"
	 width="278.048px" height="265.919px" viewBox="0 0 278.048 265.919" enable-background="new 0 0 278.048 265.919"
	 xml:space="preserve">
<path fill="#8585FF" d="M256.717,138.552c0,18.37-57.309,33.266-128.004,33.266c-70.695,0-128.003-14.896-128.003-33.266
	c0-18.375,57.309-33.271,128.003-33.271C199.408,105.282,256.717,120.177,256.717,138.552z"/>
<path fill="none" stroke="#000000" stroke-width="0.75" d="M257.051,140.548c0,69.035-57.461,124.996-128.34,124.996
	c-70.878,0-128.335-55.961-128.335-124.996c0-69.031,57.457-124.992,128.335-124.992C199.59,15.556,257.051,71.517,257.051,140.548z
	"/>
<g>
	<g>
		<path fill="none" stroke="#000000" stroke-width="0.75" d="M128.711,18.613c0,246.931,0,246.931,0,246.931"/>
		<g>
			<path d="M128.711,19.287l1.351,0.821l0.031-0.046l-0.875-2.203c-0.168-0.768-0.337-1.535-0.506-2.303
				c-0.169,0.768-0.338,1.535-0.507,2.303l-0.875,2.203l0.023,0.046L128.711,19.287z"/>
		</g>
	</g>
</g>
<g>
	<g>
		<path fill="none" stroke="#000000" stroke-width="0.7455" d="M119.902,168.819c13.673-44.215,17.377-56.448,18.732-60.585"/>
		<g>
			<path d="M120.097,168.18l-1.042-1.177l-0.043,0.035l0.186,2.349c-0.064,0.779-0.129,1.558-0.194,2.336
				c0.386-0.68,0.771-1.359,1.156-2.038l1.477-1.837l-0.008-0.05L120.097,168.18z"/>
		</g>
		<g>
			<path d="M138.437,108.88l-1.543,0.3l-0.013-0.054l1.577-1.751c0.422-0.657,0.845-1.314,1.267-1.972
				c-0.107,0.774-0.215,1.547-0.322,2.321l0.055,2.356l-0.037,0.035L138.437,108.88z"/>
		</g>
	</g>
</g>
<g>
	<defs>
		<rect id="SVGID_1_" x="137.797" y="36.096" width="5.687" height="9.597"/>
	</defs>
	<clipPath id="SVGID_2_">
		<use xlink:href="#SVGID_1_"  overflow="visible"/>
	</clipPath>
	<g clip-path="url(#SVGID_2_)">
		<path d="M139.677,45.565c-1.16,0-1.529-1.414-1.529-2.612c0-2.918,1.962-6.511,3.733-6.511c1.299,0,1.528,1.771,1.528,2.612
			C143.409,41.909,141.473,45.565,139.677,45.565z M139.396,41.208c-0.332,1.249-0.408,1.988-0.408,2.523
			c0,1.185,0.268,1.554,0.688,1.554c0.548,0,1.031-0.625,1.478-1.491c0.484-0.917,0.752-2,0.892-2.586H139.396z M142.161,40.8
			c0.306-1.261,0.407-1.911,0.407-2.536c0-0.726-0.076-1.542-0.7-1.542c-0.573,0-1.045,0.713-1.389,1.338
			c-0.51,0.904-0.765,1.924-0.981,2.739H142.161z"/>
	</g>
</g>
<g>
	<defs>
		<rect id="SVGID_3_" x="112.304" y="18.741" width="11.433" height="9.255"/>
	</defs>
	<clipPath id="SVGID_4_">
		<use xlink:href="#SVGID_3_"  overflow="visible"/>
	</clipPath>
	<g clip-path="url(#SVGID_4_)">
		<path d="M112.388,19.981v-0.918l3.359-0.156v2.109c0.508-0.996,1.543-2.109,3.418-2.109c1.953,0,3.008,0.762,3.008,2.812v5.059
			h1.348v0.918c-0.547-0.02-1.699-0.059-2.461-0.059c-0.742,0-1.914,0.039-2.461,0.059v-0.918h1.348v-5.273
			c0-1.484-0.41-1.895-1.074-1.895c-1.23,0-2.91,0.957-2.91,3.086v4.082h1.348v0.918c-0.547-0.02-1.699-0.059-2.461-0.059
			c-0.742,0-1.914,0.039-2.461,0.059v-0.918h1.348v-6.035C113.735,19.981,113.599,19.981,112.388,19.981z"/>
	</g>
</g>
<g>
	<defs>
		<rect id="SVGID_5_" x="123.077" y="1.629" width="12.439" height="11.374"/>
	</defs>
	<clipPath id="SVGID_6_">
		<use xlink:href="#SVGID_5_"  overflow="visible"/>
	</clipPath>
	<g clip-path="url(#SVGID_6_)">
		<path d="M129.896,8.159c0,1.287-0.79,2.727-2.893,2.727c-0.522,0-1.707-0.077-2.548-0.701l-0.586,0.586
			c-0.103,0.089-0.128,0.115-0.242,0.115c-0.229,0-0.229-0.115-0.229-0.357V8.21c0-0.293,0-0.369,0.306-0.369
			c0.28,0,0.28,0.063,0.293,0.293c0.103,1.898,2.039,2.153,3.007,2.153c1.325,0,1.656-0.879,1.656-1.491
			c0-0.586-0.318-0.917-0.51-1.108c-0.28-0.268-0.496-0.306-1.617-0.548c-1.39-0.306-1.822-0.395-2.446-1.019
			c-0.268-0.28-0.688-0.866-0.688-1.694c0-1.338,0.917-2.561,2.854-2.561c0.611,0,1.439,0.115,2.179,0.701l0.573-0.561
			c0.14-0.127,0.152-0.14,0.255-0.14c0.229,0,0.229,0.115,0.229,0.356v2.332c0,0.293,0,0.357-0.306,0.357
			c-0.268,0-0.268-0.025-0.318-0.331c-0.293-1.733-1.58-2.166-2.599-2.166c-1.274,0-1.631,0.79-1.631,1.338
			c0,0.777,0.713,1.21,1.223,1.325l1.848,0.395C128.863,5.713,129.896,6.745,129.896,8.159z"/>
	</g>
	<g clip-path="url(#SVGID_6_)">
		<path d="M134.859,12.435c-0.357,0.205-0.812,0.277-1.25,0.277c-1.687,0-2.463-0.991-2.463-2.035c0-0.831,0.526-2.062,2.517-2.062
			c0.518,0,1.714,0.026,1.714,0.883c0,0.375-0.259,0.625-0.625,0.625c-0.348,0-0.615-0.25-0.615-0.616
			c0-0.196,0.08-0.331,0.098-0.357c0.009-0.009,0.019-0.018,0.019-0.036c0-0.036-0.509-0.044-0.562-0.044
			c-1.196,0-1.304,0.901-1.304,1.571c0,0.366,0,1.616,1.438,1.616c0.688,0,0.973-0.339,1.106-0.634
			c0.062-0.134,0.081-0.143,0.286-0.143c0.134,0,0.285,0,0.285,0.161C135.502,11.694,135.368,12.131,134.859,12.435z"/>
	</g>
</g>
<path fill="none" stroke="#000000" stroke-width="0.6277" d="M129.297,16.353c9.59,0,18.665,17.374,24.696,47.268
	c6.028,29.896,7.669,69.622,5.66,107.218"/>
<g>
	<path d="M168.44,73.227c0,1.287-0.79,2.727-2.893,2.727c-0.522,0-1.707-0.077-2.548-0.701l-0.586,0.586
		c-0.103,0.089-0.128,0.115-0.242,0.115c-0.229,0-0.229-0.115-0.229-0.357v-2.319c0-0.293,0-0.369,0.306-0.369
		c0.28,0,0.28,0.063,0.293,0.293c0.103,1.898,2.039,2.153,3.007,2.153c1.325,0,1.656-0.879,1.656-1.491
		c0-0.586-0.318-0.917-0.51-1.108c-0.28-0.268-0.496-0.306-1.617-0.548c-1.39-0.306-1.822-0.395-2.446-1.019
		c-0.268-0.28-0.688-0.866-0.688-1.694c0-1.338,0.917-2.561,2.854-2.561c0.611,0,1.439,0.115,2.179,0.701l0.573-0.561
		c0.14-0.127,0.152-0.14,0.255-0.14c0.229,0,0.229,0.115,0.229,0.356v2.332c0,0.293,0,0.357-0.306,0.357
		c-0.268,0-0.268-0.025-0.318-0.331c-0.293-1.733-1.58-2.166-2.599-2.166c-1.274,0-1.631,0.79-1.631,1.338
		c0,0.777,0.713,1.21,1.223,1.325l1.848,0.395C167.408,70.78,168.44,71.812,168.44,73.227z"/>
</g>
<g>
	<g>
		<line fill="none" stroke="#000000" stroke-width="0.75" x1="3.432" y1="138.548" x2="253.994" y2="138.548"/>
		<g>
			<path d="M4.105,138.548l0.821-1.351l-0.046-0.031l-2.203,0.875c-0.768,0.169-1.535,0.338-2.303,0.507
				c0.768,0.169,1.535,0.338,2.303,0.507l2.203,0.875l0.046-0.022L4.105,138.548z"/>
		</g>
		<g>
			<path d="M253.32,138.548l-0.821-1.351l0.046-0.031l2.203,0.875c0.768,0.169,1.535,0.338,2.303,0.507
				c-0.768,0.169-1.535,0.338-2.303,0.507l-2.203,0.875l-0.046-0.022L253.32,138.548z"/>
		</g>
	</g>
</g>
<g>
	<g>
		<line fill="none" stroke="#EE0000" stroke-linecap="round" x1="128.91" y1="138.54" x2="151.433" y2="60.97"/>
		<g>
			<path fill="#EE0000" d="M151.183,61.832l-2.035,0.55l-0.022-0.07l1.939-2.496c0.502-0.92,1.003-1.84,1.505-2.76
				c-0.068,1.046-0.139,2.091-0.207,3.137l0.301,3.146l-0.046,0.051L151.183,61.832z"/>
		</g>
	</g>
</g>
<g>
	<g>
		<line fill="none" stroke="#000000" x1="152.569" y1="57.055" x2="152.569" y2="58.055"/>
		<line fill="none" stroke="#000000" stroke-dasharray="1.9932,1.9932" x1="152.569" y1="60.048" x2="152.569" y2="166.686"/>
		<line fill="none" stroke="#000000" x1="152.569" y1="167.683" x2="152.569" y2="168.683"/>
	</g>
</g>
<polygon opacity="0.8" fill="#FFFF7A" stroke="#7F7FFF" stroke-width="1.3063" points="148.248,48.275 152.476,52.783 
	156.528,48.117 156.331,54.294 162.496,53.862 157.988,58.09 162.653,62.143 156.478,61.945 156.909,68.11 152.683,63.602 
	148.629,68.268 148.826,62.091 142.662,62.523 147.169,58.295 142.504,54.242 148.681,54.44 "/>
<polygon opacity="0.8" fill="#FFFF7A" stroke="#7F7FFF" stroke-width="0.929" points="148.889,162.783 152.482,165.464 
	155.928,162.688 155.76,166.364 161,166.107 157.168,168.623 161.133,171.033 155.884,170.916 156.251,174.583 152.658,171.902 
	149.213,174.677 149.381,171.003 144.141,171.26 147.972,168.744 144.006,166.333 149.256,166.451 "/>
<line fill="#0D7016" stroke="#0D7016" stroke-linecap="round" x1="152.569" y1="168.683" x2="120.229" y2="168.683"/>
<g>
	<g>
		
			<line fill="none" stroke="#EE0000" stroke-width="1.1954" stroke-linecap="round" x1="128.91" y1="138.54" x2="149.561" y2="164.85"/>
		<g>
			<path fill="#EE0000" d="M148.898,164.006l0.885-2.359l0.084,0.027l1.071,3.623c0.544,1.129,1.087,2.257,1.631,3.386
				c-0.968-0.796-1.934-1.593-2.901-2.389l-3.265-1.901l-0.018-0.08L148.898,164.006z"/>
		</g>
	</g>
</g>
<line fill="#0000EE" stroke="#0000EE" stroke-linecap="round" x1="129.05" y1="138.54" x2="120.35" y2="167.196"/>
<g>
	<defs>
		<rect id="SVGID_7_" x="162.548" y="142.29" width="66" height="13.5"/>
	</defs>
	<clipPath id="SVGID_8_">
		<use xlink:href="#SVGID_7_"  overflow="visible"/>
	</clipPath>
	<g clip-path="url(#SVGID_8_)">
		<path fill="#FF0000" d="M163.532,151.111c-0.483-0.395-0.771-0.896-0.771-1.524c0-1.004,0.682-2.205,2.868-2.205
			c0.27,0,1.004,0,1.686,0.502c0.072-0.054,0.251-0.215,0.305-0.287c0.233-0.215,0.27-0.215,0.358-0.215
			c0.197,0,0.197,0.126,0.197,0.431v1.811c0,0.341,0,0.431-0.232,0.431c-0.036,0-0.197,0-0.216-0.162
			c-0.035-0.556-0.125-2.169-2.098-2.169c-1.542,0-2.008,0.735-2.008,1.362c0,1.04,1.201,1.273,2.205,1.471
			c0.753,0.143,1.452,0.286,2.044,0.86c0.216,0.215,0.753,0.753,0.753,1.703c0,1.291-0.824,2.492-2.886,2.492
			c-0.377,0-1.184-0.018-1.973-0.771c-0.322,0.341-0.322,0.377-0.358,0.413c-0.341,0.341-0.358,0.358-0.448,0.358
			c-0.197,0-0.197-0.126-0.197-0.431v-2.366c0-0.323,0-0.448,0.233-0.448c0.179,0,0.196,0.071,0.251,0.305
			c0.34,1.524,0.985,2.546,2.492,2.546c1.398,0,2.025-0.717,2.025-1.632c0-1.291-1.47-1.577-1.864-1.649
			C164.608,151.684,164.106,151.577,163.532,151.111z"/>
		<path fill="#FF0000" d="M172.409,154.069c0,0.699,0.071,0.789,1.255,0.789v0.556c-0.609-0.018-1.237-0.054-1.865-0.054
			c-0.43,0-1.398,0.036-1.972,0.054v-0.556c1.201,0,1.398,0,1.398-0.807v-4.823c0-0.879-0.161-0.986-1.327-0.986v-0.556l2.511-0.197
			V154.069z M171.53,145.32c-0.556,0-0.95-0.467-0.95-0.95c0-0.467,0.395-0.95,0.95-0.95c0.502,0,0.95,0.376,0.95,0.95
			C172.48,144.943,172.032,145.32,171.53,145.32z"/>
		<path fill="#FF0000" d="M174.776,148.242v-0.556l2.527-0.197v1.883c0.502-1.111,1.345-1.883,2.653-1.883
			c1.04,0,1.632,0.358,1.883,0.663c0.556,0.646,0.556,1.202,0.556,2.743v3.425c0.019,0.538,0.467,0.538,1.398,0.538v0.556
			c-0.609-0.018-1.542-0.054-2.008-0.054c-0.484,0-1.398,0.036-2.026,0.054v-0.556c1.201,0,1.398,0,1.398-0.807v-4.178
			c0-1.022-0.197-1.99-1.326-1.99c-1.147,0-2.421,1.004-2.421,2.869v3.299c0,0.807,0.197,0.807,1.398,0.807v0.556
			c-0.609-0.018-1.542-0.054-2.008-0.054c-0.484,0-1.398,0.036-2.025,0.054v-0.556c1.201,0,1.398,0,1.398-0.807v-4.806
			C176.175,148.368,176.031,148.242,174.776,148.242z"/>
	</g>
	<g clip-path="url(#SVGID_8_)">
		<path fill="#FF0000" d="M190.081,155.611c-1.631,0-2.151-1.99-2.151-3.676c0-4.105,2.761-9.161,5.253-9.161
			c1.829,0,2.152,2.492,2.152,3.675C195.335,150.465,192.609,155.611,190.081,155.611z M189.687,149.479
			c-0.466,1.757-0.573,2.797-0.573,3.55c0,1.668,0.376,2.188,0.968,2.188c0.771,0,1.452-0.879,2.08-2.098
			c0.682-1.291,1.058-2.814,1.255-3.64H189.687z M193.577,148.906c0.431-1.775,0.574-2.689,0.574-3.568
			c0-1.021-0.107-2.169-0.986-2.169c-0.807,0-1.47,1.004-1.954,1.882c-0.718,1.273-1.076,2.708-1.381,3.855H193.577z"/>
	</g>
	<g clip-path="url(#SVGID_8_)">
		<path fill="#FF0000" d="M211.025,150.232c-1.165,0-2.133-0.646-3.102-1.291c-0.932-0.627-1.828-1.183-2.868-1.183
			c-0.933,0-2.402,0.537-2.492,2.044c0,0.071-0.072,0.412-0.251,0.412c-0.107,0-0.251-0.144-0.251-0.538
			c0-1.649,1.326-2.923,2.994-2.923c1.165,0,2.134,0.646,3.102,1.291c0.933,0.628,1.829,1.184,2.868,1.184
			c1.166,0,2.421-0.735,2.492-1.973c0.019-0.412,0.18-0.483,0.251-0.483c0.126,0,0.251,0.161,0.251,0.538
			C214.02,148.959,212.693,150.232,211.025,150.232z M211.025,154.41c-1.165,0-2.133-0.646-3.102-1.291
			c-0.932-0.628-1.828-1.184-2.868-1.184c-0.933,0-2.402,0.538-2.492,2.044c0,0.072-0.072,0.413-0.251,0.413
			c-0.107,0-0.251-0.144-0.251-0.538c0-1.649,1.326-2.923,2.994-2.923c1.165,0,2.134,0.646,3.102,1.291
			c0.933,0.628,1.829,1.184,2.868,1.184c1.166,0,2.421-0.735,2.492-1.973c0.019-0.395,0.18-0.483,0.251-0.483
			c0.036,0,0.251,0.035,0.251,0.556C214.02,153.083,212.729,154.41,211.025,154.41z"/>
	</g>
	<g clip-path="url(#SVGID_8_)">
		<path fill="#FF0000" d="M222.908,155.611c-1.631,0-2.151-1.99-2.151-3.676c0-4.105,2.761-9.161,5.253-9.161
			c1.829,0,2.152,2.492,2.152,3.675C228.162,150.465,225.437,155.611,222.908,155.611z M222.514,149.479
			c-0.466,1.757-0.573,2.797-0.573,3.55c0,1.668,0.376,2.188,0.968,2.188c0.771,0,1.452-0.879,2.08-2.098
			c0.682-1.291,1.058-2.814,1.255-3.64H222.514z M226.404,148.906c0.431-1.775,0.574-2.689,0.574-3.568
			c0-1.021-0.107-2.169-0.986-2.169c-0.807,0-1.47,1.004-1.954,1.882c-0.718,1.273-1.076,2.708-1.381,3.855H226.404z"/>
	</g>
</g>
<g>
	<defs>
		<rect id="SVGID_9_" x="215.55" y="184.649" width="15" height="16.5"/>
	</defs>
	<clipPath id="SVGID_10_">
		<use xlink:href="#SVGID_9_"  overflow="visible"/>
	</clipPath>
	<g clip-path="url(#SVGID_10_)">
		<path fill="#FF0000" d="M217.771,200.77c-1.631,0-2.151-1.99-2.151-3.676c0-4.105,2.761-9.161,5.253-9.161
			c1.829,0,2.152,2.492,2.152,3.675C223.024,195.625,220.299,200.77,217.771,200.77z M217.376,194.638
			c-0.466,1.757-0.573,2.797-0.573,3.55c0,1.668,0.376,2.188,0.968,2.188c0.771,0,1.452-0.879,2.08-2.098
			c0.682-1.291,1.058-2.814,1.255-3.64H217.376z M221.267,194.065c0.431-1.775,0.574-2.689,0.574-3.568
			c0-1.021-0.107-2.169-0.986-2.169c-0.807,0-1.47,1.004-1.954,1.882c-0.718,1.273-1.076,2.708-1.381,3.855H221.267z"/>
	</g>
	<g clip-path="url(#SVGID_10_)">
		<path fill="#FF0000" d="M229.748,193.169h-5.174c0-0.352,0-0.377,0.126-0.49l3.026-2.988c0.401-0.452,1.181-1.318,1.181-2.411
			c0-1.018-0.653-1.997-1.909-1.997c-0.59,0-1.444,0.276-1.833,1.168c0.652,0,0.74,0.439,0.74,0.666
			c0,0.452-0.364,0.665-0.665,0.665c-0.126,0-0.666-0.062-0.666-0.703c0-1.155,1.055-2.248,2.612-2.248
			c1.607,0,2.938,0.93,2.938,2.449c0,1.193-0.866,1.972-1.796,2.713c-0.753,0.59-1.193,0.941-2.512,2.109h2.311
			c0.176,0,1.144,0,1.243-0.075c0.164-0.126,0.289-0.867,0.327-1.143h0.427L229.748,193.169z"/>
	</g>
</g>
<g>
	<defs>
		<rect id="SVGID_11_" x="147.547" y="184.649" width="12" height="16.5"/>
	</defs>
	<clipPath id="SVGID_12_">
		<use xlink:href="#SVGID_11_"  overflow="visible"/>
	</clipPath>
	<g clip-path="url(#SVGID_12_)">
		<path fill="#0000FF" d="M149.214,198.69c-0.09,0.341-0.107,0.431-0.107,0.861c0,0.251,0,0.824,0.538,0.824
			c0.717,0,1.058-1.058,1.362-2.224c0.054-0.251,0.071-0.322,0.251-0.322c0.054,0,0.215,0,0.215,0.18
			c0,0.035-0.215,1.075-0.538,1.757c-0.305,0.646-0.753,1.004-1.344,1.004c-0.843,0-1.632-0.628-1.632-1.649
			c0-0.287,0.036-0.412,0.09-0.609l2.259-8.965l0.054-0.358c0-0.144-0.018-0.305-0.879-0.305c-0.269,0-0.448,0-0.448-0.197
			c0-0.341,0.197-0.358,0.341-0.377c0.467-0.036,1.775-0.179,2.188-0.179c0.233,0,0.233,0.179,0.233,0.197L149.214,198.69z"/>
	</g>
	<g clip-path="url(#SVGID_12_)">
		<path fill="#0000FF" d="M158.839,193.169h-5.174c0-0.352,0-0.377,0.126-0.49l3.026-2.988c0.401-0.452,1.181-1.318,1.181-2.411
			c0-1.018-0.653-1.997-1.909-1.997c-0.59,0-1.444,0.276-1.833,1.168c0.652,0,0.74,0.439,0.74,0.666
			c0,0.452-0.364,0.665-0.665,0.665c-0.126,0-0.666-0.062-0.666-0.703c0-1.155,1.055-2.248,2.612-2.248
			c1.607,0,2.938,0.93,2.938,2.449c0,1.193-0.866,1.972-1.796,2.713c-0.753,0.59-1.193,0.941-2.512,2.109h2.311
			c0.176,0,1.144,0,1.243-0.075c0.164-0.126,0.289-0.867,0.327-1.143h0.427L158.839,193.169z"/>
	</g>
</g>
<g>
	<defs>
		<rect id="SVGID_13_" x="175.549" y="184.649" width="22" height="16.5"/>
	</defs>
	<clipPath id="SVGID_14_">
		<use xlink:href="#SVGID_13_"  overflow="visible"/>
	</clipPath>
	<g clip-path="url(#SVGID_14_)">
		<path fill="#008000" d="M177.669,195.374c0.233-0.933,0.287-1.13,0.287-1.506c0-0.682-0.269-0.825-0.556-0.825
			c-0.646,0-1.004,0.86-1.309,2.134c-0.107,0.395-0.126,0.412-0.305,0.412c-0.036,0-0.216,0-0.216-0.179
			c0-0.055,0.233-1.112,0.557-1.739c0.161-0.323,0.502-1.022,1.326-1.022c0.807,0,1.56,0.538,1.649,1.56
			c0.305-0.412,1.184-1.56,2.797-1.56c0.448,0,1.022,0.09,1.471,0.467c0.502,0.43,0.556,1.039,0.573,1.272
			c0.664-0.95,1.578-1.739,2.923-1.739s2.062,0.753,2.062,1.919c0,1.021-0.753,3.012-1.094,3.944
			c-0.161,0.395-0.322,0.824-0.322,1.272c0,0.412,0.125,0.592,0.43,0.592c0.986,0,1.561-1.272,1.829-2.224
			c0.09-0.269,0.09-0.322,0.269-0.322c0.055,0,0.216,0,0.216,0.18c0,0.143-0.664,2.761-2.349,2.761
			c-0.843,0-1.471-0.628-1.471-1.471c0-0.358,0.072-0.556,0.233-0.985c0.358-0.95,1.111-2.994,1.111-4.017
			c0-0.646-0.197-1.255-0.968-1.255c-1.954,0-2.904,2.151-2.959,2.385c-0.161,0.699-0.824,3.316-1.075,4.32
			c-0.144,0.574-0.251,1.022-0.807,1.022c-0.27,0-0.521-0.161-0.521-0.484c0-0.09,0.162-0.699,0.233-1.058l0.358-1.362l0.502-2.08
			c0.144-0.538,0.27-1.04,0.27-1.488c0-0.592-0.162-1.255-0.969-1.255c-1.703,0-2.653,1.632-2.922,2.188
			c-0.019,0.071-0.162,0.592-0.233,0.896c-0.09,0.412-0.197,0.807-0.305,1.201l-0.395,1.613c-0.107,0.448-0.323,1.291-0.341,1.327
			c-0.125,0.358-0.448,0.502-0.663,0.502c-0.27,0-0.521-0.161-0.521-0.484c0-0.09,0.108-0.502,0.162-0.771L177.669,195.374z"/>
	</g>
	<g clip-path="url(#SVGID_14_)">
		<path fill="#008000" d="M196.762,193.169h-5.174c0-0.352,0-0.377,0.126-0.49l3.026-2.988c0.401-0.452,1.181-1.318,1.181-2.411
			c0-1.018-0.653-1.997-1.909-1.997c-0.59,0-1.444,0.276-1.833,1.168c0.652,0,0.74,0.439,0.74,0.666
			c0,0.452-0.364,0.665-0.665,0.665c-0.126,0-0.666-0.062-0.666-0.703c0-1.155,1.055-2.248,2.612-2.248
			c1.607,0,2.938,0.93,2.938,2.449c0,1.193-0.866,1.972-1.796,2.713c-0.753,0.59-1.193,0.941-2.512,2.109h2.311
			c0.176,0,1.144,0,1.243-0.075c0.164-0.126,0.289-0.867,0.327-1.143h0.427L196.762,193.169z"/>
	</g>
</g>
<g>
	<defs>
		<rect id="SVGID_15_" x="198.799" y="188.899" width="12" height="8"/>
	</defs>
	<clipPath id="SVGID_16_">
		<use xlink:href="#SVGID_15_"  overflow="visible"/>
	</clipPath>
	<g clip-path="url(#SVGID_16_)">
		<path d="M207.774,192.442c-1.165,0-2.133-0.646-3.102-1.291c-0.932-0.627-1.828-1.183-2.868-1.183
			c-0.933,0-2.402,0.537-2.492,2.044c0,0.071-0.072,0.412-0.251,0.412c-0.107,0-0.251-0.144-0.251-0.538
			c0-1.649,1.326-2.923,2.994-2.923c1.165,0,2.134,0.646,3.102,1.291c0.933,0.628,1.829,1.184,2.868,1.184
			c1.166,0,2.421-0.735,2.492-1.973c0.019-0.412,0.18-0.483,0.251-0.483c0.126,0,0.251,0.161,0.251,0.538
			C210.769,191.169,209.442,192.442,207.774,192.442z M207.774,196.62c-1.165,0-2.133-0.646-3.102-1.291
			c-0.932-0.628-1.828-1.184-2.868-1.184c-0.933,0-2.402,0.538-2.492,2.044c0,0.072-0.072,0.413-0.251,0.413
			c-0.107,0-0.251-0.144-0.251-0.538c0-1.649,1.326-2.923,2.994-2.923c1.165,0,2.134,0.646,3.102,1.291
			c0.933,0.628,1.829,1.184,2.868,1.184c1.166,0,2.421-0.735,2.492-1.973c0.019-0.395,0.18-0.483,0.251-0.483
			c0.036,0,0.251,0.035,0.251,0.556C210.769,195.292,209.479,196.62,207.774,196.62z"/>
	</g>
</g>
<g>
	<defs>
		<rect id="SVGID_17_" x="162.298" y="186.649" width="12" height="12.5"/>
	</defs>
	<clipPath id="SVGID_18_">
		<use xlink:href="#SVGID_17_"  overflow="visible"/>
	</clipPath>
	<g clip-path="url(#SVGID_18_)">
		<path d="M168.655,198.07c0,0.251,0,0.592-0.358,0.592s-0.358-0.341-0.358-0.592v-5.021h-5.021c-0.251,0-0.592,0-0.592-0.358
			s0.341-0.358,0.592-0.358h5.021v-5.021c0-0.251,0-0.592,0.358-0.592s0.358,0.341,0.358,0.592v5.021h5.002
			c0.251,0,0.592,0,0.592,0.358s-0.341,0.358-0.592,0.358h-5.002V198.07z"/>
	</g>
</g>
<g>
	<path stroke="#000000" stroke-width="0.5" d="M261.828,137.047c0.284-1.135,0.35-1.374,0.35-1.833c0-0.829-0.327-1.003-0.677-1.003
		c-0.785,0-1.222,1.047-1.593,2.597c-0.131,0.479-0.152,0.501-0.371,0.501c-0.044,0-0.262,0-0.262-0.218
		c0-0.065,0.283-1.353,0.677-2.116c0.196-0.394,0.61-1.244,1.614-1.244c0.982,0,1.898,0.654,2.008,1.898
		c0.371-0.502,1.439-1.898,3.403-1.898c0.546,0,1.244,0.109,1.79,0.567c0.61,0.523,0.676,1.266,0.697,1.549
		c0.808-1.156,1.921-2.116,3.558-2.116c1.636,0,2.509,0.917,2.509,2.335c0,1.243-0.916,3.666-1.331,4.8
		c-0.196,0.48-0.393,1.004-0.393,1.55c0,0.502,0.152,0.72,0.523,0.72c1.2,0,1.898-1.549,2.226-2.705
		c0.109-0.328,0.109-0.394,0.327-0.394c0.065,0,0.263,0,0.263,0.219c0,0.175-0.808,3.36-2.859,3.36
		c-1.025,0-1.789-0.764-1.789-1.789c0-0.437,0.088-0.677,0.284-1.2c0.437-1.157,1.353-3.645,1.353-4.888
		c0-0.786-0.24-1.527-1.178-1.527c-2.379,0-3.535,2.618-3.601,2.901c-0.196,0.852-1.004,4.037-1.31,5.259
		c-0.175,0.698-0.306,1.244-0.981,1.244c-0.327,0-0.633-0.196-0.633-0.589c0-0.109,0.196-0.852,0.283-1.288l0.437-1.658l0.611-2.531
		c0.174-0.654,0.327-1.266,0.327-1.811c0-0.721-0.196-1.527-1.179-1.527c-2.072,0-3.229,1.985-3.557,2.662
		c-0.021,0.087-0.196,0.72-0.283,1.091c-0.109,0.502-0.24,0.981-0.371,1.462l-0.48,1.964c-0.131,0.545-0.393,1.57-0.414,1.614
		c-0.153,0.437-0.546,0.611-0.808,0.611c-0.327,0-0.633-0.196-0.633-0.589c0-0.109,0.131-0.611,0.196-0.938L261.828,137.047z"/>
</g>
<g>
	<path stroke="#000000" stroke-width="0.5" d="M112.503,186.745c-0.109,0.414-0.131,0.523-0.131,1.047c0,0.306,0,1.004,0.654,1.004
		c0.873,0,1.287-1.287,1.658-2.705c0.065-0.306,0.088-0.394,0.306-0.394c0.065,0,0.262,0,0.262,0.219
		c0,0.044-0.262,1.309-0.654,2.139c-0.371,0.785-0.916,1.222-1.637,1.222c-1.025,0-1.985-0.764-1.985-2.008
		c0-0.349,0.044-0.502,0.109-0.742l2.749-10.909l0.065-0.437c0-0.175-0.021-0.371-1.069-0.371c-0.327,0-0.545,0-0.545-0.24
		c0-0.414,0.239-0.437,0.414-0.458c0.567-0.044,2.16-0.219,2.662-0.219c0.283,0,0.283,0.219,0.283,0.24L112.503,186.745z"/>
</g>
<g>
</g>
</svg>
