<?xml version="1.0" encoding="utf-8"?>
<!-- Generator: Adobe Illustrator 16.0.0, SVG Export Plug-In . SVG Version: 6.00 Build 0)  -->
<!DOCTYPE svg PUBLIC "-//W3C//DTD SVG 1.1//EN" "http://www.w3.org/Graphics/SVG/1.1/DTD/svg11.dtd">
<svg version="1.1"
	 id="svg15042" inkscape:version="0.48.3.1 r9886" sodipodi:docname="enu_alt_az.svg" xmlns:cc="http://creativecommons.org/ns#" xmlns:dc="http://purl.org/dc/elements/1.1/" xmlns:rdf="http://www.w3.org/1999/02/22-rdf-syntax-ns#" xmlns:inkscape="http://www.inkscape.org/namespaces/inkscape" xmlns:svg="http://www.w3.org/2000/svg" xmlns:sodipodi="http://sodipodi.sourceforge.net/DTD/sodipodi-0.dtd"
	 xmlns="http://www.w3.org/2000/svg" xmlns:xlink="http://www.w3.org/1999/xlink" x="0px" y="0px" width="532.275px"
	 height="523.918px" viewBox="93.657 -31.123 532.275 523.918" enable-background="new 93.657 -31.123 532.275 523.918"
	 xml:space="preserve">
<sodipodi:namedview  pagecolor="#ffffff" fit-margin-left="0" fit-margin-top="0" showgrid="false" inkscape:cy="115.96017" bordercolor="#666666" borderopacity="1.0" inkscape:cx="-11.249652" inkscape:zoom="0.56729519" id="base" inkscape:object-nodes="false" inkscape:object-paths="false" inkscape:pageopacity="0.0" inkscape:document-units="px" inkscape:pageshadow="2" inkscape:snap-nodes="false" inkscape:current-layer="layer1" fit-margin-right="0" fit-margin-bottom="0" inkscape:window-width="1301" inkscape:window-height="744" inkscape:window-x="65" inkscape:window-y="24" inkscape:window-maximized="1">
	</sodipodi:namedview>
<g>
	<path stroke="#000000" stroke-width="1.2487" d="M327.229,104.539c0.761,0,1.299,0.448,1.299,1.209c0,0.179,0,0.269-0.313,1.523
		l-1.612,6.27c-0.403,1.702-0.493,2.15-0.985,4.031c-0.493,1.97-0.582,2.329-0.582,3.314c0,0.896,0.134,2.06,1.343,2.06
		c1.837,0,2.643-2.642,3.404-5.553c0.134-0.627,0.179-0.806,0.627-0.806c0.134,0,0.537,0,0.537,0.448
		c0,0.09-0.582,2.821-1.344,4.434c-0.717,1.433-1.746,2.463-3.313,2.463c-2.15,0-3.718-1.478-4.076-3.359
		c-2.687,3.18-4.926,3.359-5.821,3.359c-3.493,0-5.957-2.956-5.957-7.166c0-6.539,5.554-13.122,10.793-13.122
		c2.016,0,3.314,1.209,4.121,2.866C325.482,105.524,326.154,104.539,327.229,104.539z M324.677,109.331
		c0.045-0.224,0.134-0.493,0.134-0.762c0-0.269-0.627-3.941-3.538-3.941c-1.791,0-3.807,1.657-5.194,4.299
		c-1.03,2.06-2.464,7.569-2.464,9.808c0,1.747,0.627,4.209,2.866,4.209c1.254,0,3.091-0.716,5.062-3.18
		c0.671-0.761,0.671-0.851,0.896-1.657L324.677,109.331z"/>
</g>
<g>
	<path d="M348.785,108.793c-0.672,0-1.522,0-1.522-0.896c0-0.896,0.851-0.896,1.478-0.896h26.826c0.627,0,1.479,0,1.479,0.896
		c0,0.896-0.852,0.896-1.523,0.896H348.785z M348.74,117.481c-0.627,0-1.478,0-1.478-0.896s0.851-0.896,1.522-0.896h26.736
		c0.672,0,1.523,0,1.523,0.896s-0.852,0.896-1.479,0.896H348.74z"/>
	<path d="M406.378,134.634c-0.448,0-4.3-2.911-6.986-8.419c-2.463-5.061-2.956-10.48-2.956-13.973c0-3.762,0.537-8.733,2.821-13.659
		c2.643-5.688,6.673-8.733,7.121-8.733c0.269,0,0.447,0.134,0.447,0.448c0,0.134,0,0.224-0.582,0.761
		c-5.508,5.598-7.21,13.391-7.21,21.183c0,6.852,1.433,15.316,7.031,20.959c0.761,0.761,0.761,0.851,0.761,0.985
		C406.825,134.5,406.646,134.634,406.378,134.634z"/>
</g>
<g>
	<path d="M428.032,104.539c0.761,0,1.299,0.448,1.299,1.209c0,0.179,0,0.269-0.313,1.523l-1.612,6.27
		c-0.403,1.702-0.493,2.15-0.985,4.031c-0.493,1.97-0.582,2.329-0.582,3.314c0,0.896,0.134,2.06,1.343,2.06
		c1.837,0,2.643-2.642,3.404-5.553c0.134-0.627,0.179-0.806,0.627-0.806c0.134,0,0.537,0,0.537,0.448
		c0,0.09-0.582,2.821-1.344,4.434c-0.717,1.433-1.746,2.463-3.313,2.463c-2.15,0-3.718-1.478-4.076-3.359
		c-2.687,3.18-4.926,3.359-5.821,3.359c-3.493,0-5.957-2.956-5.957-7.166c0-6.539,5.554-13.122,10.793-13.122
		c2.016,0,3.314,1.209,4.121,2.866C426.285,105.524,426.957,104.539,428.032,104.539z M425.479,109.331
		c0.045-0.224,0.134-0.493,0.134-0.762c0-0.269-0.627-3.941-3.538-3.941c-1.791,0-3.807,1.657-5.194,4.299
		c-1.03,2.06-2.464,7.569-2.464,9.808c0,1.747,0.627,4.209,2.866,4.209c1.254,0,3.091-0.716,5.062-3.18
		c0.671-0.761,0.671-0.851,0.896-1.657L425.479,109.331z"/>
</g>
<g>
	<path d="M443.613,127.587c0,1.034,0,1.441,3.135,1.441h1.19v1.128c-0.689-0.031-4.639-0.125-5.609-0.125
		c-1.16,0-5.015,0.094-5.579,0.125v-1.128h1.19c3.135,0,3.135-0.407,3.135-1.441v-15.984c-1.724,0.877-3.793,0.877-4.545,0.877
		v-1.128c1.285,0,4.138-0.032,6.144-2.006c0.877,0,0.939,0.031,0.939,0.877V127.587z"/>
</g>
<g>
	<path d="M458.219,132.082c-0.224,0-0.447-0.179-0.447-0.493c0-0.134,0-0.224,0.492-0.717c1.478-1.478,3.046-4.165,3.046-7.479
		c0-0.627-0.045-0.672-0.09-0.672s-0.09,0.045-0.224,0.135c-0.448,0.403-1.03,0.582-1.568,0.582c-1.478,0-2.373-1.165-2.373-2.374
		c0-1.254,0.896-2.374,2.373-2.374c1.747,0,2.866,1.747,2.866,4.702C462.295,128.633,458.713,132.082,458.219,132.082z"/>
	<path d="M491.674,104.539c0.761,0,1.299,0.448,1.299,1.209c0,0.179,0,0.269-0.313,1.523l-1.612,6.27
		c-0.403,1.702-0.493,2.15-0.985,4.031c-0.493,1.97-0.582,2.329-0.582,3.314c0,0.896,0.134,2.06,1.343,2.06
		c1.837,0,2.643-2.642,3.404-5.553c0.134-0.627,0.179-0.806,0.627-0.806c0.134,0,0.537,0,0.537,0.448
		c0,0.09-0.582,2.821-1.344,4.434c-0.717,1.433-1.746,2.463-3.313,2.463c-2.15,0-3.718-1.478-4.076-3.359
		c-2.687,3.18-4.926,3.359-5.821,3.359c-3.493,0-5.957-2.956-5.957-7.166c0-6.539,5.554-13.122,10.793-13.122
		c2.016,0,3.314,1.209,4.121,2.866C489.927,105.524,490.598,104.539,491.674,104.539z M489.121,109.331
		c0.045-0.224,0.134-0.493,0.134-0.762c0-0.269-0.627-3.941-3.538-3.941c-1.791,0-3.807,1.657-5.194,4.299
		c-1.03,2.06-2.464,7.569-2.464,9.808c0,1.747,0.627,4.209,2.866,4.209c1.254,0,3.091-0.716,5.061-3.18
		c0.672-0.761,0.672-0.851,0.896-1.657L489.121,109.331z"/>
</g>
<g>
	<path d="M511.67,130.157h-12.913c0-0.877,0-0.94,0.313-1.222l7.553-7.459c1.003-1.128,2.946-3.291,2.946-6.018
		c0-2.539-1.63-4.983-4.764-4.983c-1.473,0-3.604,0.689-4.576,2.915c1.63,0,1.85,1.097,1.85,1.661c0,1.128-0.909,1.661-1.661,1.661
		c-0.313,0-1.661-0.157-1.661-1.755c0-2.883,2.633-5.61,6.519-5.61c4.012,0,7.334,2.319,7.334,6.111c0,2.978-2.162,4.921-4.481,6.77
		c-1.881,1.473-2.978,2.351-6.269,5.265h5.767c0.439,0,2.853,0,3.104-0.188c0.407-0.313,0.721-2.163,0.814-2.852h1.065
		L511.67,130.157z"/>
</g>
<g>
	<path d="M521.884,132.082c-0.224,0-0.447-0.179-0.447-0.493c0-0.134,0-0.224,0.492-0.717c1.478-1.478,3.046-4.165,3.046-7.479
		c0-0.627-0.045-0.672-0.09-0.672s-0.09,0.045-0.224,0.135c-0.448,0.403-1.03,0.582-1.568,0.582c-1.478,0-2.373-1.165-2.373-2.374
		c0-1.254,0.896-2.374,2.373-2.374c1.747,0,2.866,1.747,2.866,4.702C525.959,128.633,522.377,132.082,521.884,132.082z"/>
	<path d="M555.338,104.539c0.761,0,1.299,0.448,1.299,1.209c0,0.179,0,0.269-0.313,1.523l-1.612,6.27
		c-0.403,1.702-0.493,2.15-0.985,4.031c-0.493,1.97-0.582,2.329-0.582,3.314c0,0.896,0.134,2.06,1.343,2.06
		c1.837,0,2.643-2.642,3.404-5.553c0.134-0.627,0.179-0.806,0.627-0.806c0.134,0,0.537,0,0.537,0.448
		c0,0.09-0.582,2.821-1.344,4.434c-0.717,1.433-1.746,2.463-3.313,2.463c-2.15,0-3.718-1.478-4.076-3.359
		c-2.687,3.18-4.926,3.359-5.821,3.359c-3.493,0-5.957-2.956-5.957-7.166c0-6.539,5.554-13.122,10.793-13.122
		c2.016,0,3.314,1.209,4.121,2.866C553.591,105.524,554.262,104.539,555.338,104.539z M552.785,109.331
		c0.045-0.224,0.134-0.493,0.134-0.762c0-0.269-0.627-3.941-3.538-3.941c-1.791,0-3.807,1.657-5.194,4.299
		c-1.03,2.06-2.464,7.569-2.464,9.808c0,1.747,0.627,4.209,2.866,4.209c1.254,0,3.091-0.716,5.061-3.18
		c0.672-0.761,0.672-0.851,0.896-1.657L552.785,109.331z"/>
</g>
<g>
	<path d="M567.312,119.688c-0.533,0-0.815,0-0.815-0.438c0-0.345,0.251-0.408,0.313-0.408c0.157-0.031,0.22-0.031,1.003-0.094
		c1.567-0.094,2.444-0.157,3.479-1.348c0.815-0.972,1.254-2.414,1.254-3.73c0-2.727-1.975-3.416-3.385-3.416
		c-1.159,0-3.322,0.345-4.419,1.724c0.972,0.063,1.599,0.721,1.599,1.63c0,0.877-0.627,1.599-1.599,1.599
		c-0.94,0-1.63-0.596-1.63-1.661c0-2.507,2.664-4.2,6.143-4.2c3.479,0,6.331,1.849,6.331,4.325c0,1.912-1.19,4.263-4.481,5.454
		c3.447,0.721,5.453,3.166,5.453,5.61c0,3.134-3.009,6.049-7.365,6.049c-3.792,0-7.052-1.912-7.052-4.858
		c0-1.285,0.878-1.818,1.755-1.818c0.972,0,1.724,0.721,1.724,1.724c0,0.658-0.345,1.692-1.817,1.755
		c1.316,1.849,4.074,2.194,5.328,2.194c1.817,0,4.074-1.16,4.074-5.046c0-3.354-1.755-5.046-4.199-5.046H567.312z"/>
</g>
<g>
	<path d="M590.663,125.901c-2.642,5.688-6.673,8.733-7.12,8.733c-0.27,0-0.448-0.179-0.448-0.448c0-0.134,0-0.224,0.582-0.761
		c5.554-5.643,7.211-13.525,7.211-21.183c0-9.36-2.553-16.48-6.942-20.914c-0.851-0.806-0.851-0.896-0.851-1.03
		c0-0.269,0.179-0.448,0.448-0.448c0.447,0,4.299,2.911,6.986,8.419c2.463,5.061,2.955,10.479,2.955,13.973
		C593.484,116.004,592.947,120.975,590.663,125.901z"/>
</g>
<g>
	<path opacity="0.5" fill="#FF0000" d="M365.264,279.284c0,0-6.743-28.667-34.875-43.884c-28.13-15.218-58.115-9.412-58.115-9.412
		l0.232,100.163L365.264,279.284z"/>
	<path opacity="0.5" fill="#078F00" d="M385.495,326.333c0,0,13.113-15.101,5.487-29.929c-8.987-17.475-25.594-17.475-25.594-17.475
		l-93.114,47.404L385.495,326.333z"/>
	<g id="path15050_49_" inkscape:connector-curvature="0">
		<g>
			<path fill="none" stroke="#000000" stroke-width="2" stroke-linecap="round" d="M272.395,21.479c0,240.74,0,305.098,0,305.098
				l-129.76,132.79"/>
			<g>
				<path d="M272.395,25.068l7.205,4.383l0.164-0.246l-4.668-11.75c-0.9-4.094-1.801-8.188-2.701-12.281
					c-0.902,4.094-1.801,8.188-2.703,12.281l-4.666,11.75l0.121,0.246L272.395,25.068z"/>
			</g>
			<g>
				<path d="M145.143,456.799l8.217,1.9l-0.055,0.291l-11.551,5.142c-3.505,2.298-7.01,4.597-10.515,6.896
					c2.216-3.559,4.435-7.114,6.65-10.673l4.875-11.665l0.259-0.092L145.143,456.799z"/>
			</g>
		</g>
	</g>
	<g id="path15052_1_" inkscape:connector-curvature="0">
		<g>
			
				<line fill="none" stroke="#000000" stroke-width="2" stroke-linecap="round" x1="272.274" y1="326.817" x2="594.934" y2="326.817"/>
			<g>
				<path d="M591.344,326.817l-4.383-7.205l0.246-0.164l11.75,4.668c4.094,0.9,8.188,1.801,12.281,2.701
					c-4.094,0.902-8.188,1.801-12.281,2.703l-11.75,4.666l-0.246-0.121L591.344,326.817z"/>
			</g>
		</g>
	</g>
	
		<path id="path15182_20_" inkscape:connector-curvature="0" fill="none" stroke="#000000" stroke-width="1.9368" stroke-dasharray="0.7074,2.8294" d="
		M272.739,326.817"/>
	<g id="path15126-2_1_" inkscape:connector-curvature="0">
		<g>
			<path fill="none" stroke="#FF0000" stroke-width="2.1521" stroke-linecap="round" d="M272.395,326.577
				c110.471-56.443,157.711-80.811,177.909-91.331"/>
			<g>
				<path fill="#FF0000" d="M446.881,237.05l-7.978-4.327l0.141-0.285l13.453-2.022c4.295-1.38,8.589-2.759,12.883-4.139
					c-3.317,3.056-6.638,6.108-9.956,9.164l-8.399,10.702l-0.295,0.021L446.881,237.05z"/>
			</g>
		</g>
	</g>
	<g>
		<defs>
			<rect id="SVGID_1_" x="95.046" y="451.302" width="31.021" height="27.755"/>
		</defs>
		<clipPath id="SVGID_2_">
			<use xlink:href="#SVGID_1_"  overflow="visible"/>
		</clipPath>
		<g clip-path="url(#SVGID_2_)">
			<path d="M111.222,468.497c-0.644,2.576-0.996,3.863-0.996,5.152c0,1.99,0.937,3.863,3.22,3.863c1.874,0,5.855-1.404,7.787-7.67
				c0.117-0.409,0.234-0.644,0.761-0.644c0.175,0,0.703,0,0.703,0.585c0,1.465-3.337,9.018-9.368,9.018
				c-3.513,0-5.62-2.283-6.323-4.45c-0.176,0.352-2.284,4.45-6.148,4.45c-2.576,0-5.503-1.172-5.503-3.865
				c0-1.873,1.464-3.395,3.22-3.395c0.878,0,2.167,0.468,2.167,2.049c0,1.639-1.288,2.869-2.752,3.161
				c1.229,0.761,2.576,0.761,2.927,0.761c2.576,0,4.625-2.459,5.562-6.088c2.167-8.197,3.162-12.12,3.162-13.936
				c0-3.395-2.049-3.922-3.162-3.922c-1.99,0-5.854,1.463-7.845,7.67c-0.117,0.526-0.293,0.644-0.761,0.644
				c-0.117,0-0.703,0-0.703-0.585c0-1.465,3.337-9.018,9.426-9.018c1.698,0,4.86,0.586,6.323,4.45
				c0.703-1.347,2.752-4.45,6.147-4.45c1.991,0,5.445,0.82,5.445,3.865c0,2.342-1.874,3.396-3.162,3.396
				c-1.581,0-2.225-1.112-2.225-2.05c0-1.404,1.171-2.868,2.811-3.161c-1.229-0.761-2.635-0.761-2.928-0.761
				c-4.098,0-5.445,5.387-5.796,6.908L111.222,468.497z"/>
		</g>
	</g>
	<g>
		<defs>
			<rect id="SVGID_3_" x="596.546" y="334.692" width="29.387" height="39.183"/>
		</defs>
		<clipPath id="SVGID_4_">
			<use xlink:href="#SVGID_3_"  overflow="visible"/>
		</clipPath>
		<g clip-path="url(#SVGID_4_)">
			<path d="M619.313,361.606c-1.64,6.615-7.67,11.943-13.701,11.943c-3.629,0-6.205-2.166-6.205-5.094
				c0-2.868,1.932-3.805,3.278-3.805c0.585,0,2.167,0.234,2.167,2.049c0,1.112-0.586,1.873-1.172,2.4
				c-0.819,0.703-1.58,0.703-2.518,0.703c0.996,2.283,3.631,2.459,4.449,2.459c2.693,0,4.919-1.698,6.441-3.689
				c2.342-3.103,3.044-5.972,3.805-9.016c-1.639,1.639-3.629,2.635-5.913,2.635c-3.454,0-7.143-1.757-7.143-6.968
				c0-2.751,1.054-6.089,3.396-12.295c0.41-1.112,0.996-2.635,0.996-4.099c0-1.873-0.996-1.873-1.465-1.873
				c-1.99,0-4.332,1.756-5.912,7.26c-0.293,0.937-0.352,1.054-0.938,1.054c-0.117,0-0.703,0-0.703-0.585
				c0-0.527,2.167-9.018,7.729-9.018c2.928,0,4.801,2.167,4.801,4.802c0,1.171-0.233,1.815-1.17,4.216
				c-1.991,5.152-2.986,8.781-2.986,11.475c0,2.166,0.645,4.742,3.63,4.742c3.864,0,6.382-4.098,6.616-4.977l2.635-10.538
				c0.352-1.581,0.761-3.161,1.17-4.685c0.234-1.053,0.703-2.868,0.82-3.161c0.527-0.878,1.464-1.229,2.049-1.229
				c0.879,0,1.698,0.527,1.698,1.581c0,0.409,0,0.526-0.234,1.347L619.313,361.606z"/>
		</g>
	</g>
	<g>
		<defs>
			<rect id="SVGID_5_" x="280.573" y="-8.703" width="27.754" height="27.754"/>
		</defs>
		<clipPath id="SVGID_6_">
			<use xlink:href="#SVGID_5_"  overflow="visible"/>
		</clipPath>
		<g clip-path="url(#SVGID_6_)">
			<path d="M288.743,13.116c1.23,0,2.107,0.234,4.1,0.995c1.229,0.41,2.283,0.761,3.453,0.761c1.932,0,5.68-1.112,7.025-4.918
				c0.176-0.41,0.293-0.761,0.82-0.761c0.469,0,0.703,0.293,0.703,0.585c0,1.581-3.396,9.017-9.193,9.017
				c-1.697,0-2.75-0.937-3.746-2.167c-1.463-1.698-2.049-2.225-3.396-2.225c-1.873,0-3.629,1.581-4.977,3.63
				c-0.352,0.644-0.467,0.761-0.936,0.761c-0.117,0-0.704,0-0.704-0.585c0-0.41,2.049-3.747,6.032-7.67l5.268-4.918
				c1.113-0.937,6.031-5.152,8.139-7.67c-1.521,0-2.166,0-4.508-0.878c-1.346-0.469-2.459-0.878-3.689-0.878
				c-0.467,0-3.863,0.059-4.977,2.752c-0.115,0.351-0.232,0.644-0.76,0.644s-0.703-0.352-0.703-0.644
				c0-1.229,2.693-6.675,7.084-6.675c1.932,0,2.928,1.171,4.041,2.518c0.877,0.996,1.58,1.874,2.984,1.874
				c1.406,0,2.635-0.937,4.393-3.747c0.293-0.527,0.467-0.644,0.877-0.644c0.117,0,0.645,0,0.645,0.585
				c0,0.234-1.287,3.045-6.85,8.49c-2.107,2.108-5.738,5.211-5.738,5.269c-2.107,1.815-3.805,3.279-6.967,6.675
				C287.69,13.116,288.626,13.116,288.743,13.116z"/>
		</g>
	</g>
	<path opacity="0.5" fill="#A9A2FF" d="M365.388,278.93c0,0-3.81,25.139-40.06,48.808c-31.277,20.422-82.211,28.8-82.211,28.8
		l29.156-29.721L365.388,278.93z"/>
	<g>
		<path fill="#0000FF" d="M335.55,350.839c1.987-2.494,3.383-5.708,4.144-8.371c0.212-0.762,0.212-0.889,0.634-0.889
			c0.466,0,0.508,0.339,0.508,0.423c0,0.043-0.888,4.947-4.862,9.937c-0.423,0.508-0.423,0.592-0.423,1.479
			c0,1.016,0,4.313,1.311,4.313c0.085,0,1.607,0,2.368-2.072c0.127-0.296,0.253-0.423,0.55-0.423c0.254,0,0.508,0.127,0.508,0.423
			c0,0.677-1.312,3.002-3.553,3.002c-1.902,0-3.297-1.311-3.848-3.552c-3.213,2.579-6.258,3.552-8.921,3.552
			c-4.313,0-6.851-3.213-6.851-7.146c0-5.962,5.582-12.008,11.375-12.008c3.129,0,7.061,2.071,7.061,8.71V350.839z M332.632,349.275
			c0-3.298,0-8.837-4.186-8.837c-1.479,0-3.763,0.804-5.75,3.891c-1.354,2.156-2.453,6.723-2.453,8.794
			c0,2.706,1.27,4.609,3.807,4.609c1.69,0,4.946-0.466,8.667-3.721C332.632,353.292,332.632,350.839,332.632,349.275z"/>
	</g>
	<g>
		<g>
			<path fill="#078F00" d="M423.098,296.434c1.521,1.057,3.086,3.256,3.086,6.3c0,3.129-1.353,5.835-3.382,7.78
				c-1.903,1.86-5.073,3.34-8.161,3.34c-3.086,0-4.946-1.564-5.75-4.102l-2.959,11.67c-0.043,0.127-0.17,0.212-0.508,0.212
				s-0.55-0.254-0.508-0.423l6.723-26.85c0.805-3.213,3.129-7.314,5.455-9.006c1.48-1.1,2.664-1.776,5.116-1.776
				c3.425,0,5.75,2.622,5.75,5.793C427.961,292.417,425.552,295.039,423.098,296.434z M421.661,284.552
				c-5.074,0-8.118,6.723-9.049,10.359l-2.705,10.697c-0.212,0.804-0.212,1.438-0.212,1.86c0,3.002,1.606,5.454,4.82,5.454
				c2.409,0,5.243-1.521,6.892-3.805c1.184-1.649,2.199-4.82,2.114-7.272c-0.042-1.945-0.253-3.256-1.86-4.778
				c-1.269,0.508-1.902,0.55-3.467,0.55c-0.762,0-2.96,0.127-2.918-1.057c0-1.396,2.368-1.354,3.256-1.354
				c1.269,0,2.114,0.085,3.256,0.508c2.199-1.312,3.805-4.355,3.805-7.315C425.593,285.863,424.113,284.552,421.661,284.552z
				 M418.532,296.18c-0.465,0-1.987-0.085-2.072,0.338c0.424,0.212,1.27,0.169,1.861,0.169c1.014,0,1.479-0.084,2.029-0.296
				C419.801,296.18,419.42,296.18,418.532,296.18z"/>
		</g>
	</g>
	<g>
		<g>
			<path fill="#FF0000" d="M311.348,205.834c-0.423,0-0.803,0-0.803-0.423c0-1.311,2.959-7.737,8.244-7.737
				c2.918,0,4.609,2.072,5.623,4.651c1.65,4.101,1.691,7.315,1.734,8.625c1.691-4.271,3.383-8.499,5.581-12.516
				c0.127-0.296,0.381-0.296,0.507-0.296c0.085,0,0.508,0,0.508,0.423c0,0.169-0.508,1.099-0.803,1.607
				c-1.691,3.34-4.398,9.64-5.751,13.826c-0.169,0.55-0.253,1.1-0.338,1.649c-0.169,1.311-0.593,3.721-1.564,7.272
				c-0.466,1.606-0.804,2.537-1.353,2.537c-0.339,0-0.551-0.296-0.551-0.762c0-1.099,1.27-6.004,2.199-9.09
				c0.296-0.846,0.508-1.564,0.508-4.144c0-3.341-0.466-10.74-6.85-10.74c-0.466,0-5.074,0.042-6.724,4.905L311.348,205.834z"/>
		</g>
	</g>
	<g>
		<g>
			<path fill="none" stroke="#000000" d="M385.495,326.333c0,0,0.489-0.563,1.224-1.579"/>
			<path fill="none" stroke="#000000" stroke-dasharray="4.0346,4.0346" d="M388.906,321.368c3.262-5.658,7.011-15.368,2.076-24.963
				c-3.871-7.526-9.155-11.812-13.918-14.251"/>
			<path fill="none" stroke="#000000" d="M375.234,281.292c-0.636-0.274-1.258-0.517-1.859-0.731"/>
			<g>
				<path d="M375.082,281.162l1.328,4.002l-0.139,0.053l-5.202-3.593c-1.894-0.897-3.787-1.796-5.681-2.693
					c2.096,0.02,4.191,0.041,6.287,0.061l6.249-0.956l0.106,0.087L375.082,281.162z"/>
			</g>
		</g>
	</g>
	<g>
		<g>
			<path fill="none" stroke="#000000" d="M362.597,271.581c-0.245-0.586-0.511-1.198-0.797-1.832"/>
			<path fill="none" stroke="#000000" stroke-dasharray="3.8976,3.8976" d="M360.109,266.239
				c-4.909-9.563-13.956-22.312-29.72-30.839c-22.031-11.918-45.201-10.941-54.212-9.958"/>
			<path fill="none" stroke="#000000" d="M274.245,225.679c-1.277,0.174-1.971,0.309-1.971,0.309"/>
			<g>
				<path d="M361.879,269.93l-4.133-0.834l-0.035,0.144l4.193,4.729c1.12,1.771,2.24,3.543,3.36,5.314
					c-0.272-2.078-0.547-4.156-0.819-6.234l0.194-6.318l-0.099-0.095L361.879,269.93z"/>
			</g>
		</g>
	</g>
	<g>
		<g>
			<path fill="none" stroke="#000000" d="M362.903,286.694c-0.246,0.582-0.516,1.191-0.81,1.826"/>
			<path fill="none" stroke="#000000" stroke-dasharray="4.0008,4.0008" d="M360.297,292.091
				c-5.13,9.462-15.249,22.771-34.968,35.646c-26.051,17.009-65.737,25.663-78.273,28.081"/>
			<path fill="none" stroke="#000000" d="M245.083,356.19c-1.273,0.233-1.965,0.348-1.965,0.348"/>
			<g>
				<path d="M362.205,288.354l2.712,3.229l0.116-0.091l-0.33-6.312c0.229-2.083,0.457-4.167,0.686-6.25
					c-1.083,1.795-2.163,3.59-3.246,5.385l-4.091,4.819l0.019,0.136L362.205,288.354z"/>
			</g>
		</g>
	</g>
</g>
<g>
	<path stroke="#000000" stroke-width="1.2487" d="M411.952,224.539c0.761,0,1.299,0.448,1.299,1.209c0,0.179,0,0.269-0.313,1.523
		l-1.612,6.27c-0.403,1.702-0.493,2.15-0.985,4.031c-0.493,1.97-0.582,2.329-0.582,3.314c0,0.896,0.134,2.06,1.343,2.06
		c1.837,0,2.643-2.642,3.404-5.553c0.134-0.627,0.179-0.806,0.627-0.806c0.134,0,0.537,0,0.537,0.448
		c0,0.09-0.582,2.821-1.344,4.434c-0.717,1.433-1.746,2.463-3.313,2.463c-2.15,0-3.718-1.478-4.076-3.359
		c-2.687,3.18-4.926,3.359-5.821,3.359c-3.493,0-5.957-2.956-5.957-7.166c0-6.539,5.554-13.122,10.793-13.122
		c2.016,0,3.314,1.209,4.121,2.866C410.205,225.524,410.877,224.539,411.952,224.539z M409.399,229.331
		c0.045-0.224,0.134-0.493,0.134-0.762c0-0.269-0.627-3.941-3.538-3.941c-1.791,0-3.807,1.657-5.194,4.299
		c-1.03,2.06-2.464,7.569-2.464,9.808c0,1.747,0.627,4.209,2.866,4.209c1.254,0,3.091-0.716,5.062-3.18
		c0.671-0.761,0.671-0.851,0.896-1.657L409.399,229.331z"/>
</g>
<g>
</g>
</svg>
