<?xml version="1.0" encoding="utf-8"?>
<!-- Generator: Adobe Illustrator 16.0.0, SVG Export Plug-In . SVG Version: 6.00 Build 0)  -->
<!DOCTYPE svg PUBLIC "-//W3C//DTD SVG 1.1//EN" "http://www.w3.org/Graphics/SVG/1.1/DTD/svg11.dtd">
<svg version="1.1" id="Calque_1" xmlns="http://www.w3.org/2000/svg" xmlns:xlink="http://www.w3.org/1999/xlink" x="0px" y="0px"
	 width="285.938px" height="290.32px" viewBox="0 0 285.938 290.32" enable-background="new 0 0 285.938 290.32"
	 xml:space="preserve">
<path fill="none" stroke="#FFE53F" stroke-width="2.6073" d="M269.877,103.403c2.827,10.988-49.194,33.514-116.52,50.832
	c-67.323,17.317-127.436,23.742-130.262,12.752"/>
<path fill="none" stroke="#000000" d="M277.268,142.46c0,18.369-57.309,33.266-128.005,33.266
	c-70.694,0-128.003-14.896-128.003-33.266"/>
<path fill="none" stroke="#000000" stroke-width="2" d="M277.936,145.8c0,69.035-57.461,124.996-128.341,124.996
	c-70.878,0-128.335-55.961-128.335-124.996c0-69.032,57.457-124.993,128.335-124.993C220.475,20.807,277.936,76.768,277.936,145.8z"
	/>
<path fill="none" stroke="#000000" stroke-width="0.75" stroke-dasharray="5,5" d="M149.596,20.807c0,249.989,0,249.989,0,249.989"
	/>
<g>
	<path d="M132.552,0.663c-0.17-0.226-0.184-0.254-0.553-0.254h-3.232v0.594h0.551c0.283,0,0.662,0.014,0.945,0.042
		c0.438,0.057,0.467,0.07,0.467,0.438v9.942c0,0.509,0,1.413-1.963,1.413v0.579c0.664-0.015,1.596-0.057,2.23-0.057
		c0.621,0,1.555,0.042,2.219,0.057v-0.579c-1.951,0-1.951-0.904-1.951-1.413V1.511c0.086,0.099,0.113,0.127,0.184,0.24l7.77,11.425
		c0.168,0.227,0.197,0.241,0.324,0.241c0.268,0,0.268-0.128,0.268-0.495V2.415c0-0.523,0-1.412,1.963-1.412V0.409
		c-0.662,0.028-1.596,0.057-2.23,0.057c-0.623,0-1.553-0.028-2.232-0.057v0.594c1.963,0,1.963,0.889,1.963,1.412v8.135
		L132.552,0.663"/>
	<path d="M143.468,6.906c0,3.939,3.094,6.934,6.623,6.934c3.109,0,4.973-2.641,4.973-4.858c0-0.183,0-0.324-0.24-0.324
		c-0.211,0-0.211,0.112-0.227,0.311c-0.154,2.726-2.188,4.279-4.266,4.279c-1.172,0-4.9-0.649-4.9-6.327
		c0-5.691,3.715-6.342,4.873-6.342c2.076,0,3.771,1.737,4.152,4.521c0.043,0.268,0.043,0.324,0.311,0.324
		c0.297,0,0.297-0.057,0.297-0.452v-4.52c0-0.324,0-0.451-0.197-0.451c-0.084,0-0.156,0-0.311,0.226l-0.947,1.412
		C152.903,0.945,151.929,0,150.091,0C146.532,0,143.468,3.022,143.468,6.906"/>
	<path d="M160.403,6.906V1.765c0-0.635,0.041-0.762,0.932-0.762h1.695c3.035,0,3.035,2.02,3.035,2.951c0,0.903,0,2.952-3.035,2.952
		H160.403 M160.458,7.4h3.221c2.287,0,4.35-1.54,4.35-3.446c0-1.864-1.893-3.545-4.504-3.545h-6.723v0.594h0.465
		c1.469,0,1.498,0.212,1.498,0.889v10.042c0,0.692-0.029,0.904-1.498,0.904h-0.465v0.579c0.676-0.057,2.074-0.057,2.809-0.057
		c0.723,0,2.146,0,2.811,0.057v-0.579h-0.451c-1.469,0-1.512-0.212-1.512-0.904V7.4z"/>
</g>
<g>
	<path d="M137.627,282.51l-2.443-0.594c-1.186-0.281-1.92-1.312-1.92-2.414c0-1.328,1.031-2.5,2.514-2.5
		c3.178,0,3.602,3.135,3.715,3.982c0.014,0.113,0.014,0.227,0.225,0.227c0.256,0,0.256-0.086,0.256-0.453v-3.826
		c0-0.324,0-0.451-0.213-0.451c-0.141,0-0.154,0.014-0.297,0.238l-0.664,1.088c-0.564-0.551-1.355-1.326-3.049-1.326
		c-2.105,0-3.715,1.666-3.715,3.686c0,1.582,1.018,2.979,2.5,3.488c0.211,0.07,1.186,0.311,2.514,0.635
		c0.523,0.127,1.088,0.256,1.623,0.961c0.396,0.494,0.594,1.129,0.594,1.752c0,1.355-0.961,2.725-2.557,2.725
		c-0.551,0-2.004-0.084-3.008-1.031c-1.102-1.016-1.158-2.244-1.186-2.922c-0.014-0.199-0.17-0.199-0.227-0.199
		c-0.254,0-0.254,0.143-0.254,0.48v3.812c0,0.326,0,0.453,0.211,0.453c0.143,0,0.156-0.043,0.297-0.24
		c0-0.027,0.057-0.084,0.678-1.088c0.594,0.65,1.809,1.328,3.504,1.328c2.23,0,3.756-1.863,3.756-3.955
		C140.48,284.459,139.223,282.893,137.627,282.51"/>
	<path d="M142.6,283.387c0,3.939,3.078,6.934,6.623,6.934c3.107,0,4.973-2.641,4.973-4.859c0-0.182,0-0.324-0.24-0.324
		c-0.213,0-0.213,0.113-0.24,0.311c-0.141,2.727-2.191,4.279-4.266,4.279c-1.158,0-4.887-0.648-4.887-6.326
		c0-5.691,3.713-6.342,4.871-6.342c2.076,0,3.771,1.736,4.154,4.52c0.043,0.268,0.043,0.324,0.311,0.324
		c0.297,0,0.297-0.057,0.297-0.451v-4.52c0-0.324,0-0.451-0.213-0.451c-0.07,0-0.141,0-0.295,0.225l-0.963,1.412
		c-0.705-0.691-1.666-1.637-3.502-1.637C145.664,276.48,142.6,279.502,142.6,283.387"/>
	<path d="M159.533,283.387v-5.143c0-0.635,0.043-0.762,0.934-0.762h1.693c3.037,0,3.037,2.02,3.037,2.951
		c0,0.904,0,2.953-3.037,2.953H159.533 M159.59,283.881h3.221c2.287,0,4.35-1.541,4.35-3.447c0-1.863-1.893-3.545-4.506-3.545
		h-6.723v0.594h0.467c1.453,0,1.496,0.213,1.496,0.889v10.043c0,0.691-0.043,0.904-1.496,0.904h-0.467v0.578
		c0.664-0.057,2.076-0.057,2.797-0.057c0.734,0,2.16,0,2.824,0.057v-0.578h-0.451c-1.469,0-1.512-0.213-1.512-0.904V283.881z"/>
</g>
<g>
	<defs>
		<rect id="SVGID_1_" x="58.733" y="176.925" width="13.628" height="16.893"/>
	</defs>
	<clipPath id="SVGID_2_">
		<use xlink:href="#SVGID_1_"  overflow="visible"/>
	</clipPath>
	<path clip-path="url(#SVGID_2_)" d="M59.531,181.876c0.962-2.812,3.63-2.83,3.884-2.83c3.701,0,3.974,4.281,3.974,6.225
		c0,1.486-0.127,1.904-0.29,2.395c-0.545,1.779-1.271,4.629-1.271,5.262c0,0.273,0.108,0.436,0.309,0.436
		c0.327,0,0.526-0.543,0.78-1.469c0.562-2.051,0.816-3.447,0.908-4.211c0.053-0.309,0.107-0.635,0.199-0.943
		c0.779-2.432,2.358-6.078,3.32-8.021c0.182-0.289,0.472-0.814,0.472-0.924c0-0.236-0.235-0.236-0.29-0.236
		c-0.072,0-0.218,0-0.291,0.164c-1.27,2.322-2.25,4.771-3.229,7.24c-0.036-0.744-0.055-2.613-1.017-4.99
		c-0.58-1.488-1.561-2.686-3.248-2.686c-3.066,0-4.772,3.719-4.772,4.48c0,0.236,0.218,0.236,0.472,0.236L59.531,181.876"/>
</g>
<line fill="none" stroke="#000000" stroke-width="0.75" x1="21.26" y1="142.46" x2="277.936" y2="142.46"/>
<line fill="none" stroke="#000000" stroke-width="0.75" x1="149.595" y1="142.457" x2="76.291" y2="169.791"/>
<path fill="none" stroke="#000000" stroke-width="0.9841" d="M149.267,270.464c-18.376,0-74.905-37.563-74.905-124.828
	c0-92.735,56.857-124.829,75.233-124.829"/>
<path fill="none" stroke="#000000" stroke-width="0.9841" d="M149.926,270.464c18.376,0,74.905-37.563,74.905-124.828
	c0-92.735-56.857-124.829-75.233-124.829"/>
<g opacity="0.5">
	<defs>
		<rect id="SVGID_3_" x="185.315" y="40.807" opacity="0.5" width="25" height="25"/>
	</defs>
	<clipPath id="SVGID_4_">
		<use xlink:href="#SVGID_3_"  overflow="visible"/>
	</clipPath>
	<g clip-path="url(#SVGID_4_)">
		<defs>
			<rect id="SVGID_5_" x="185.315" y="40.807" width="25" height="25"/>
		</defs>
		<clipPath id="SVGID_6_">
			<use xlink:href="#SVGID_5_"  overflow="visible"/>
		</clipPath>
		<polygon clip-path="url(#SVGID_6_)" fill="#FFFF00" points="207.858,57.772 202.241,57.909 201.612,63.495 197.546,59.616 
			193.151,63.119 193.019,57.502 187.433,56.877 191.312,52.807 187.804,48.416 193.425,48.28 194.05,42.698 198.12,46.573 
			202.511,43.069 202.647,48.686 208.229,49.315 204.354,53.381 		"/>
		<polygon clip-path="url(#SVGID_6_)" fill="none" stroke="#0000FF" stroke-width="1.5" points="207.858,57.772 202.241,57.909 
			201.612,63.495 197.546,59.616 193.151,63.119 193.019,57.502 187.433,56.877 191.312,52.807 187.804,48.416 193.425,48.28 
			194.05,42.698 198.12,46.573 202.511,43.069 202.647,48.686 208.229,49.315 204.354,53.381 		"/>
	</g>
</g>
<line fill="none" stroke="#000000" stroke-width="0.75" x1="149.595" y1="142.457" x2="199.012" y2="53.307"/>
<path fill="none" stroke="#000000" stroke-dasharray="5,5" d="M21.594,142.459c0-18.375,57.309-33.271,128.003-33.271
	c70.696,0,128.005,14.895,128.005,33.271"/>
<g>
	<path fill="none" stroke="#55A221" stroke-width="1.7504" d="M197.535,140.62c0,6.897-21.52,12.492-48.064,12.492
		c-26.542,0-48.061-5.595-48.061-12.492"/>
	<g>
		<ellipse fill="none" stroke="#55A221" stroke-width="1.7504" cx="149.598" cy="141.875" rx="48.188" ry="46.933"/>
		<path fill="none" stroke="#55A221" stroke-width="1.7504" d="M101.534,140.62c0-6.899,21.52-12.492,48.063-12.492
			s48.062,5.593,48.062,12.492"/>
	</g>
</g>
<g>
	<path fill="#C9B81C" d="M32.674,144.684c0.159,0.439,0.19,0.581-0.739,0.918l-0.296,0.108l0.132,0.365l6.978-2.529l-0.63-3.3
		l-0.297,0.108c0.372,1.973,0.417,2.96-1.661,3.714l-1.604,0.583c-0.572,0.207-0.633,0.126-0.775-0.269l-1.169-3.224l1.093-0.396
		c1.173-0.425,1.446-0.088,1.817,0.934l0.294-0.106l-1.158-3.197l-0.295,0.106c0.375,1.038,0.378,1.462-0.796,1.888l-1.093,0.396
		l-1.052-2.899c-0.143-0.395-0.148-0.494,0.426-0.701l1.558-0.566c1.846-0.669,2.408-0.124,3.215,1.489l0.305-0.111l-1.328-2.598
		l-6.806,2.469l0.137,0.374l0.296-0.106c0.93-0.339,0.998-0.209,1.153,0.22L32.674,144.684"/>
	<path fill="#C9B81C" d="M38.763,138.867c0.906,2.5,3.548,3.69,5.794,2.876c1.971-0.715,2.546-2.818,2.036-4.224
		c-0.042-0.119-0.075-0.208-0.228-0.152c-0.134,0.047-0.108,0.121-0.081,0.251c0.538,1.763-0.404,3.219-1.72,3.697
		c-0.734,0.267-3.248,0.711-4.554-2.888c-1.309-3.611,0.896-4.878,1.63-5.145c1.317-0.477,2.792,0.236,3.674,1.912
		c0.089,0.161,0.102,0.196,0.271,0.134c0.188-0.068,0.176-0.105,0.084-0.355l-1.039-2.865c-0.075-0.206-0.104-0.287-0.238-0.238
		c-0.044,0.016-0.089,0.033-0.137,0.211l-0.286,1.106c-0.605-0.267-1.432-0.645-2.595-0.222
		C39.118,133.784,37.869,136.406,38.763,138.867"/>
	<path fill="#C9B81C" d="M54.193,134.417l-0.306,0.111c0.314,1.284,0.702,2.857-1.43,3.629l-0.984,0.356
		c-0.573,0.21-0.633,0.129-0.774-0.266l-2.336-6.438c-0.149-0.412-0.213-0.582,0.943-1.001l0.394-0.144l-0.136-0.375
		c-0.418,0.191-1.52,0.589-2.02,0.771c-0.468,0.168-1.408,0.511-1.84,0.628l0.135,0.375l0.287-0.103
		c0.931-0.338,0.999-0.21,1.154,0.22l2.31,6.365c0.159,0.44,0.189,0.583-0.742,0.92l-0.286,0.103l0.134,0.368l6.287-2.28
		L54.193,134.417"/>
	<path fill="#C9B81C" d="M55.896,129.056c-0.156-0.429-0.17-0.577,0.78-0.922l0.313-0.113l-0.136-0.376
		c-0.409,0.188-1.358,0.533-1.824,0.701c-0.466,0.169-1.423,0.516-1.856,0.634l0.137,0.375l0.312-0.112
		c0.959-0.348,1.043-0.227,1.199,0.203l2.309,6.367c0.159,0.441,0.173,0.587-0.785,0.936l-0.312,0.113l0.133,0.367
		c0.407-0.188,1.365-0.536,1.822-0.702c0.475-0.172,1.424-0.515,1.859-0.634l-0.135-0.367l-0.313,0.113
		c-0.95,0.347-1.034,0.225-1.193-0.216L55.896,129.056"/>
	<path fill="#C9B81C" d="M61.409,130.655l-1.182-3.261c-0.146-0.403-0.157-0.49,0.415-0.699l1.075-0.389
		c1.916-0.695,2.381,0.586,2.596,1.176c0.204,0.564,0.679,1.873-1.237,2.567L61.409,130.655 M61.561,130.954l2.041-0.739
		c1.442-0.523,2.396-1.974,1.956-3.184c-0.428-1.18-2.006-1.814-3.662-1.213l-4.263,1.546l0.137,0.375l0.286-0.103
		c0.932-0.338,1.008-0.213,1.164,0.216l2.31,6.367c0.158,0.439,0.181,0.585-0.752,0.921l-0.287,0.105l0.134,0.367
		c0.409-0.189,1.305-0.513,1.76-0.679c0.457-0.167,1.362-0.493,1.804-0.614l-0.132-0.367l-0.296,0.107
		c-0.931,0.338-0.998,0.209-1.157-0.23L61.561,130.954z"/>
	<path fill="#C9B81C" d="M73.483,121.696l-7.38,2.675l0.755,2.808l0.305-0.111c-0.535-2.004-0.502-2.473,1.324-3.135
		c0.216-0.078,0.529-0.193,0.664-0.21c0.268-0.046,0.316,0.087,0.416,0.365l2.31,6.369c0.15,0.412,0.211,0.583-1.061,1.042
		l-0.484,0.177l0.134,0.367c0.488-0.218,1.716-0.663,2.271-0.864c0.556-0.201,1.8-0.652,2.315-0.798l-0.134-0.369l-0.483,0.176
		c-1.272,0.462-1.334,0.291-1.482-0.121l-2.311-6.369c-0.087-0.241-0.148-0.412,0.05-0.534c0.123-0.076,0.456-0.195,0.682-0.277
		c1.824-0.662,2.15-0.323,3.025,1.558l0.304-0.11L73.483,121.696"/>
	<path fill="#C9B81C" d="M77.183,121.337c-0.155-0.43-0.169-0.577,0.789-0.925l0.313-0.114l-0.136-0.376
		c-0.417,0.192-1.366,0.536-1.823,0.702c-0.475,0.172-1.433,0.52-1.867,0.638l0.137,0.375l0.313-0.114
		c0.96-0.348,1.043-0.226,1.198,0.205l2.31,6.366c0.159,0.439,0.174,0.586-0.785,0.934l-0.313,0.116l0.132,0.367
		c0.41-0.189,1.367-0.537,1.823-0.702c0.475-0.173,1.425-0.517,1.867-0.637l-0.134-0.368l-0.314,0.115
		c-0.957,0.347-1.041,0.226-1.201-0.214L77.183,121.337"/>
	<path fill="#C9B81C" d="M80.629,123.685c0.906,2.498,3.555,3.687,5.804,2.87c1.97-0.714,2.544-2.818,2.034-4.224
		c-0.043-0.117-0.075-0.207-0.235-0.148c-0.135,0.049-0.107,0.121-0.072,0.25c0.528,1.764-0.404,3.217-1.721,3.695
		c-0.734,0.267-3.257,0.715-4.562-2.886c-1.309-3.608,0.896-4.875,1.641-5.145c1.315-0.477,2.789,0.235,3.673,1.911
		c0.08,0.165,0.093,0.2,0.261,0.138c0.198-0.072,0.185-0.106,0.095-0.358l-1.039-2.864c-0.076-0.208-0.104-0.288-0.238-0.239
		c-0.046,0.016-0.101,0.036-0.146,0.215l-0.279,1.103c-0.603-0.267-1.438-0.642-2.593-0.224
		C80.991,118.598,79.735,121.221,80.629,123.685"/>
</g>
<g>
	<path fill="#1F00FF" d="M197.718,123.011c-0.609,0-0.628-0.095-0.628-0.514v-6.955c0-0.429,0.019-0.515,0.628-0.515h1.286
		c0.791,0,1.677,0.286,2.334,1.19c0.553,0.763,0.666,1.868,0.666,2.868c0,1.429-0.237,2.2-0.704,2.829
		c-0.258,0.343-0.99,1.096-2.286,1.096H197.718 M194.66,114.628v0.399h0.305c0.99,0,1.02,0.144,1.02,0.601v6.772
		c0,0.467-0.029,0.61-1.02,0.61h-0.305v0.391h4.696c2.162,0,3.935-1.896,3.935-4.315c0-2.438-1.733-4.458-3.935-4.458H194.66z"/>
	<path fill="#1F00FF" d="M205.758,122.401c0,0.467-0.028,0.61-1.02,0.61h-0.305v0.391h7.411l0.544-3.315h-0.324
		c-0.324,1.981-0.62,2.925-2.83,2.925h-1.704c-0.601,0-0.629-0.095-0.629-0.514v-3.43h1.152c1.248,0,1.391,0.409,1.391,1.495h0.324
		v-3.401h-0.324c0,1.106-0.143,1.506-1.391,1.506h-1.152v-3.086c0-0.42,0.028-0.515,0.629-0.515h1.657
		c1.962,0,2.314,0.705,2.515,2.495h0.324l-0.362-2.896h-7.23v0.4h0.305c0.991,0,1.02,0.142,1.02,0.6V122.401"/>
	<path fill="#1F00FF" d="M213.455,119.01c0,2.658,2.086,4.677,4.477,4.677c2.097,0,3.354-1.781,3.354-3.276
		c0-0.124,0-0.22-0.172-0.22c-0.143,0-0.143,0.077-0.152,0.21c-0.104,1.839-1.477,2.886-2.877,2.886
		c-0.781,0-3.305-0.438-3.305-4.267c0-3.84,2.505-4.277,3.296-4.277c1.4,0,2.544,1.171,2.801,3.048c0.019,0.182,0.019,0.22,0.2,0.22
		c0.209,0,0.209-0.038,0.209-0.305v-3.049c0-0.219,0-0.305-0.143-0.305c-0.048,0-0.105,0-0.209,0.152l-0.639,0.943
		c-0.477-0.457-1.134-1.096-2.363-1.096C215.532,114.352,213.455,116.391,213.455,119.01"/>
	<path fill="#1F00FF" d="M229.478,120.086h-0.314c-0.143,1.315-0.324,2.925-2.582,2.925h-1.057c-0.601,0-0.629-0.095-0.629-0.514
		v-6.851c0-0.438,0-0.619,1.22-0.619h0.429v-0.399c-0.467,0.038-1.639,0.038-2.163,0.038c-0.505,0-1.505,0-1.953-0.038v0.399h0.306
		c0.99,0,1.019,0.144,1.019,0.601v6.772c0,0.467-0.028,0.61-1.019,0.61h-0.306v0.391h6.697L229.478,120.086"/>
	<path fill="#1F00FF" d="M232.945,115.628c0-0.457,0.037-0.601,1.058-0.601h0.333v-0.399c-0.458,0.038-1.467,0.038-1.953,0.038
		c-0.504,0-1.523,0-1.972-0.038v0.399h0.333c1.021,0,1.058,0.144,1.058,0.601v6.772c0,0.467-0.037,0.61-1.058,0.61h-0.333v0.391
		c0.448-0.039,1.468-0.039,1.953-0.039c0.505,0,1.514,0,1.972,0.039v-0.391h-0.333c-1.021,0-1.058-0.144-1.058-0.61V115.628"/>
	<path fill="#1F00FF" d="M237.65,114.8c-0.114-0.152-0.133-0.172-0.371-0.172h-2.181v0.399h0.37c0.191,0,0.449,0.01,0.639,0.028
		c0.295,0.039,0.305,0.048,0.305,0.297v6.706c0,0.342,0,0.952-1.313,0.952v0.391c0.446-0.01,1.075-0.039,1.495-0.039
		c0.429,0,1.057,0.029,1.505,0.039v-0.391c-1.324,0-1.324-0.61-1.324-0.952v-6.688c0.066,0.065,0.076,0.076,0.134,0.162l5.239,7.706
		c0.114,0.152,0.124,0.162,0.219,0.162c0.182,0,0.182-0.086,0.182-0.333v-7.088c0-0.353,0-0.953,1.323-0.953v-0.399
		c-0.457,0.02-1.086,0.038-1.505,0.038c-0.429,0-1.058-0.019-1.505-0.038v0.399c1.323,0,1.323,0.601,1.323,0.953v5.486L237.65,114.8
		"/>
	<path fill="#1F00FF" d="M248.729,115.905l1.448,4.173h-2.896L248.729,115.905 M249.405,114.466
		c-0.065-0.172-0.085-0.257-0.294-0.257c-0.21,0-0.249,0.076-0.305,0.257l-2.668,7.678c-0.229,0.657-0.743,0.849-1.438,0.867v0.391
		c0.296-0.01,0.848-0.039,1.314-0.039c0.4,0,1.067,0.029,1.477,0.039v-0.391c-0.638,0-0.962-0.324-0.962-0.657
		c0-0.038,0.01-0.172,0.028-0.19l0.591-1.687h3.172l0.676,1.963c0.02,0.058,0.039,0.134,0.039,0.181
		c0,0.391-0.715,0.391-1.066,0.391v0.391c0.466-0.039,1.361-0.039,1.857-0.039c0.552,0,1.143,0.021,1.676,0.039v-0.391h-0.229
		c-0.771,0-0.952-0.095-1.096-0.514L249.405,114.466z"/>
	<path fill="#1F00FF" d="M261.399,114.705h-7.85l-0.247,2.896h0.323c0.181-2.066,0.372-2.496,2.315-2.496
		c0.229,0,0.562,0,0.694,0.028c0.268,0.048,0.268,0.191,0.268,0.486v6.773c0,0.438,0,0.619-1.354,0.619h-0.514v0.391
		c0.533-0.039,1.838-0.039,2.429-0.039s1.914,0,2.448,0.039v-0.391h-0.515c-1.353,0-1.353-0.182-1.353-0.619v-6.773
		c0-0.258,0-0.438,0.229-0.486c0.143-0.028,0.495-0.028,0.734-0.028c1.942,0,2.133,0.43,2.314,2.496h0.324L261.399,114.705"/>
	<path fill="#1F00FF" d="M265,115.628c0-0.457,0.038-0.601,1.048-0.601h0.343v-0.399c-0.457,0.038-1.467,0.038-1.953,0.038
		c-0.505,0-1.524,0-1.972-0.038v0.399h0.334c1.019,0,1.057,0.144,1.057,0.601v6.772c0,0.467-0.038,0.61-1.057,0.61h-0.334v0.391
		c0.447-0.039,1.467-0.039,1.953-0.039c0.505,0,1.515,0,1.972,0.039v-0.391h-0.343c-1.01,0-1.048-0.144-1.048-0.61V115.628"/>
	<path fill="#1F00FF" d="M271.754,123.354c-1.229,0-2.953-1.134-2.953-4.487c0-3.324,1.877-4.2,2.943-4.2
		c1.115,0,2.953,0.915,2.953,4.2C274.697,122.278,272.935,123.354,271.754,123.354 M276.021,119.048c0-2.62-1.942-4.696-4.277-4.696
		c-2.296,0-4.268,2.048-4.268,4.696c0,2.639,1.981,4.639,4.268,4.639C274.079,123.687,276.021,121.649,276.021,119.048z"/>
	<path fill="#1F00FF" d="M279.718,114.8c-0.114-0.152-0.124-0.172-0.371-0.172h-2.182v0.399h0.371c0.19,0,0.447,0.01,0.639,0.028
		c0.305,0.039,0.313,0.048,0.313,0.297v6.706c0,0.342,0,0.952-1.323,0.952v0.391c0.448-0.01,1.076-0.039,1.505-0.039
		c0.42,0,1.048,0.029,1.505,0.039v-0.391c-1.324,0-1.324-0.61-1.324-0.952v-6.688c0.057,0.065,0.076,0.076,0.124,0.162l5.239,7.706
		c0.124,0.152,0.134,0.162,0.22,0.162c0.18,0,0.18-0.086,0.18-0.333v-7.088c0-0.353,0-0.953,1.325-0.953v-0.399
		c-0.448,0.02-1.077,0.038-1.505,0.038c-0.42,0-1.049-0.019-1.496-0.038v0.399c1.314,0,1.314,0.601,1.314,0.953v5.486L279.718,114.8
		"/>
</g>
<g>
	<path fill="#FF0000" d="M96.338,180.897c1.248-0.313,2.249-1.096,2.249-2.095c0-1.239-1.468-2.315-3.354-2.315h-4.029v0.4h0.305
		c0.991,0,1.02,0.143,1.02,0.6v6.773c0,0.466-0.028,0.609-1.02,0.609h-0.305v0.391c0.457-0.038,1.372-0.038,1.877-0.038
		c0.495,0,1.409,0,1.876,0.038v-0.391h-0.314c-0.99,0-1.01-0.144-1.01-0.609v-3.249h1.477c0.2,0,0.743,0,1.191,0.438
		c0.485,0.457,0.485,0.857,0.485,1.725c0,0.828,0,1.343,0.534,1.829c0.522,0.467,1.229,0.543,1.618,0.543
		c1.001,0,1.22-1.058,1.22-1.41c0-0.076,0-0.219-0.171-0.219c-0.144,0-0.144,0.114-0.152,0.199
		c-0.077,0.915-0.524,1.144-0.849,1.144c-0.628,0-0.733-0.648-0.914-1.849l-0.162-1.028
		C97.672,181.564,97.043,181.136,96.338,180.897 M93.633,180.726v-3.324c0-0.295,0-0.447,0.276-0.485
		c0.134-0.028,0.505-0.028,0.762-0.028c1.153,0,2.592,0.047,2.592,1.915c0,0.885-0.305,1.923-2.21,1.923H93.633z"/>
	<path fill="#FF0000" d="M103.083,177.487c0-0.457,0.038-0.6,1.058-0.6h0.333v-0.4c-0.448,0.038-1.467,0.038-1.953,0.038
		c-0.504,0-1.515,0-1.962-0.038v0.4h0.333c1.01,0,1.049,0.143,1.049,0.6v6.773c0,0.466-0.039,0.609-1.049,0.609h-0.333v0.391
		c0.447-0.038,1.458-0.038,1.953-0.038s1.514,0,1.962,0.038v-0.391h-0.333c-1.02,0-1.058-0.144-1.058-0.609V177.487"/>
	<path fill="#FF0000" d="M112.467,184.451c0.161,0.286,0.675,0.8,0.818,0.8c0.114,0,0.114-0.104,0.114-0.295v-2.239
		c0-0.495,0.058-0.562,0.886-0.562v-0.4c-0.467,0.02-1.181,0.038-1.562,0.038c-0.515,0-1.609,0-2.067-0.038v0.4h0.41
		c1.153,0,1.191,0.143,1.191,0.619v0.819c0,1.438-1.629,1.553-1.991,1.553c-0.829,0-3.372-0.447-3.372-4.277
		c0-3.839,2.524-4.268,3.296-4.268c1.381,0,2.543,1.162,2.8,3.048c0.029,0.181,0.029,0.219,0.21,0.219c0.2,0,0.2-0.038,0.2-0.305
		v-3.048c0-0.219,0-0.305-0.134-0.305c-0.057,0-0.104,0-0.209,0.152l-0.639,0.943c-0.419-0.41-1.104-1.096-2.381-1.096
		c-2.392,0-4.468,2.029-4.468,4.658c0,2.639,2.048,4.678,4.496,4.678C110.999,185.547,112.027,185.213,112.467,184.451"/>
	<path fill="#FF0000" d="M122.773,177.487c0-0.457,0.028-0.6,1.019-0.6h0.305v-0.4c-0.447,0.038-1.399,0.038-1.886,0.038
		s-1.457,0-1.904-0.038v0.4h0.314c0.98,0,1.009,0.143,1.009,0.6v3.01h-3.839v-3.01c0-0.457,0.028-0.6,1.01-0.6h0.314v-0.4
		c-0.447,0.038-1.4,0.038-1.887,0.038c-0.495,0-1.457,0-1.905-0.038v0.4h0.306c0.99,0,1.019,0.143,1.019,0.6v6.773
		c0,0.466-0.028,0.609-1.019,0.609h-0.306v0.391c0.448-0.038,1.4-0.038,1.887-0.038c0.485,0,1.458,0,1.905,0.038v-0.391h-0.314
		c-0.981,0-1.01-0.144-1.01-0.609v-3.363h3.839v3.363c0,0.466-0.028,0.609-1.009,0.609h-0.314v0.391
		c0.447-0.038,1.399-0.038,1.895-0.038c0.486,0,1.448,0,1.896,0.038v-0.391h-0.305c-0.99,0-1.019-0.144-1.019-0.609V177.487"/>
	<path fill="#FF0000" d="M133.08,176.563h-7.85l-0.247,2.896h0.323c0.182-2.066,0.372-2.495,2.314-2.495
		c0.229,0,0.562,0,0.696,0.028c0.267,0.048,0.267,0.19,0.267,0.485v6.773c0,0.438,0,0.619-1.353,0.619h-0.515v0.391
		c0.533-0.038,1.839-0.038,2.43-0.038c0.59,0,1.914,0,2.448,0.038v-0.391h-0.515c-1.354,0-1.354-0.182-1.354-0.619v-6.773
		c0-0.257,0-0.438,0.229-0.485c0.145-0.028,0.486-0.028,0.734-0.028c1.943,0,2.134,0.429,2.314,2.495h0.324L133.08,176.563"/>
	<path fill="#FF0000" d="M142.511,177.764l1.458,4.172h-2.896L142.511,177.764 M143.197,176.325
		c-0.067-0.172-0.096-0.257-0.296-0.257c-0.21,0-0.247,0.076-0.314,0.257l-2.658,7.678c-0.229,0.658-0.742,0.849-1.438,0.867v0.391
		c0.295-0.01,0.848-0.038,1.314-0.038c0.4,0,1.067,0.028,1.477,0.038v-0.391c-0.647,0-0.962-0.323-0.962-0.657
		c0-0.038,0.01-0.172,0.019-0.19l0.591-1.687h3.182l0.677,1.963c0.009,0.058,0.038,0.134,0.038,0.181
		c0,0.391-0.715,0.391-1.067,0.391v0.391c0.467-0.038,1.362-0.038,1.849-0.038c0.552,0,1.143,0.02,1.687,0.038v-0.391h-0.229
		c-0.771,0-0.953-0.095-1.096-0.514L143.197,176.325z"/>
	<path fill="#FF0000" d="M152.189,180.279l-1.648-0.4c-0.79-0.191-1.295-0.887-1.295-1.629c0-0.896,0.695-1.687,1.695-1.687
		c2.144,0,2.429,2.114,2.506,2.687c0.009,0.076,0.009,0.152,0.152,0.152c0.171,0,0.171-0.058,0.171-0.305v-2.582
		c0-0.219,0-0.305-0.143-0.305c-0.086,0-0.105,0.01-0.19,0.162l-0.448,0.733c-0.391-0.371-0.914-0.896-2.058-0.896
		c-1.429,0-2.505,1.124-2.505,2.486c0,1.066,0.676,2.01,1.677,2.353c0.143,0.048,0.8,0.21,1.695,0.42
		c0.353,0.095,0.733,0.181,1.096,0.657c0.267,0.333,0.399,0.762,0.399,1.181c0,0.915-0.638,1.839-1.724,1.839
		c-0.372,0-1.343-0.058-2.029-0.695c-0.743-0.687-0.781-1.515-0.79-1.972c-0.02-0.134-0.124-0.134-0.162-0.134
		c-0.162,0-0.162,0.096-0.162,0.324v2.572c0,0.219,0,0.305,0.143,0.305c0.086,0,0.096-0.029,0.19-0.162
		c0-0.02,0.038-0.058,0.457-0.734c0.4,0.438,1.229,0.896,2.372,0.896c1.496,0,2.524-1.258,2.524-2.668
		C154.113,181.593,153.267,180.535,152.189,180.279"/>
	<path fill="#FF0000" d="M155.543,180.869c0,2.657,2.086,4.678,4.467,4.678c2.097,0,3.363-1.782,3.363-3.277
		c0-0.124,0-0.22-0.172-0.22c-0.143,0-0.143,0.077-0.152,0.21c-0.104,1.839-1.476,2.887-2.877,2.887
		c-0.791,0-3.305-0.438-3.305-4.268c0-3.839,2.505-4.277,3.286-4.277c1.4,0,2.543,1.172,2.801,3.048
		c0.028,0.181,0.028,0.219,0.21,0.219c0.209,0,0.209-0.038,0.209-0.305v-3.048c0-0.219,0-0.305-0.144-0.305
		c-0.057,0-0.104,0-0.209,0.152l-0.638,0.943c-0.477-0.457-1.135-1.096-2.373-1.096C157.609,176.211,155.543,178.25,155.543,180.869
		"/>
	<path fill="#FF0000" d="M165.84,184.261c0,0.466-0.028,0.609-1.02,0.609h-0.305v0.391h7.412l0.543-3.315h-0.324
		c-0.324,1.981-0.619,2.925-2.829,2.925h-1.706c-0.609,0-0.629-0.095-0.629-0.514v-3.43h1.153c1.248,0,1.391,0.409,1.391,1.495
		h0.324v-3.4h-0.324c0,1.105-0.143,1.505-1.391,1.505h-1.153v-3.087c0-0.419,0.02-0.514,0.629-0.514h1.658
		c1.962,0,2.315,0.704,2.515,2.495h0.324l-0.362-2.896h-7.23v0.4h0.305c0.991,0,1.02,0.143,1.02,0.6V184.261"/>
	<path fill="#FF0000" d="M175.805,176.659c-0.124-0.152-0.134-0.172-0.382-0.172h-2.181v0.4h0.371c0.2,0,0.447,0.009,0.648,0.028
		c0.295,0.038,0.305,0.048,0.305,0.295v6.707c0,0.343,0,0.952-1.324,0.952v0.391c0.447-0.01,1.076-0.038,1.505-0.038
		c0.419,0,1.058,0.028,1.505,0.038v-0.391c-1.324,0-1.324-0.609-1.324-0.952v-6.688c0.067,0.066,0.076,0.076,0.124,0.162
		l5.249,7.706c0.114,0.152,0.123,0.162,0.219,0.162c0.172,0,0.172-0.086,0.172-0.333v-7.088c0-0.353,0-0.952,1.324-0.952v-0.4
		c-0.448,0.02-1.077,0.038-1.496,0.038c-0.429,0-1.058-0.019-1.505-0.038v0.4c1.323,0,1.323,0.6,1.323,0.952v5.487L175.805,176.659"
		/>
	<path fill="#FF0000" d="M186.931,180.279l-1.648-0.4c-0.8-0.191-1.295-0.887-1.295-1.629c0-0.896,0.695-1.687,1.695-1.687
		c2.144,0,2.429,2.114,2.505,2.687c0.01,0.076,0.01,0.152,0.152,0.152c0.173,0,0.173-0.058,0.173-0.305v-2.582
		c0-0.219,0-0.305-0.144-0.305c-0.096,0-0.105,0.01-0.2,0.162l-0.447,0.733c-0.381-0.371-0.914-0.896-2.059-0.896
		c-1.419,0-2.505,1.124-2.505,2.486c0,1.066,0.686,2.01,1.687,2.353c0.143,0.048,0.8,0.21,1.695,0.42
		c0.353,0.095,0.733,0.181,1.095,0.657c0.268,0.333,0.4,0.762,0.4,1.181c0,0.915-0.647,1.839-1.724,1.839
		c-0.371,0-1.353-0.058-2.029-0.695c-0.743-0.687-0.79-1.515-0.801-1.972c-0.009-0.134-0.113-0.134-0.152-0.134
		c-0.171,0-0.171,0.096-0.171,0.324v2.572c0,0.219,0,0.305,0.144,0.305c0.095,0,0.104-0.029,0.19-0.162
		c0-0.02,0.047-0.058,0.467-0.734c0.4,0.438,1.219,0.896,2.361,0.896c1.506,0,2.535-1.258,2.535-2.668
		C188.855,181.593,188.008,180.535,186.931,180.279"/>
	<path fill="#FF0000" d="M192.456,177.487c0-0.457,0.038-0.6,1.048-0.6h0.333v-0.4c-0.447,0.038-1.457,0.038-1.952,0.038
		c-0.496,0-1.516,0-1.963-0.038v0.4h0.333c1.02,0,1.058,0.143,1.058,0.6v6.773c0,0.466-0.038,0.609-1.058,0.609h-0.333v0.391
		c0.447-0.038,1.467-0.038,1.953-0.038c0.505,0,1.515,0,1.962,0.038v-0.391h-0.333c-1.01,0-1.048-0.144-1.048-0.609V177.487"/>
	<path fill="#FF0000" d="M199.21,185.213c-1.229,0-2.953-1.134-2.953-4.487c0-3.324,1.876-4.2,2.943-4.2
		c1.114,0,2.953,0.914,2.953,4.2C202.153,184.137,200.391,185.213,199.21,185.213 M203.478,180.907c0-2.619-1.944-4.696-4.277-4.696
		c-2.305,0-4.268,2.048-4.268,4.696c0,2.639,1.981,4.64,4.268,4.64C201.533,185.547,203.478,183.508,203.478,180.907z"/>
	<path fill="#FF0000" d="M207.174,176.659c-0.114-0.152-0.124-0.172-0.372-0.172h-2.182v0.4h0.372c0.19,0,0.447,0.009,0.638,0.028
		c0.296,0.038,0.314,0.048,0.314,0.295v6.707c0,0.343,0,0.952-1.324,0.952v0.391c0.448-0.01,1.077-0.038,1.506-0.038
		c0.419,0,1.048,0.028,1.495,0.038v-0.391c-1.324,0-1.324-0.609-1.324-0.952v-6.688c0.066,0.066,0.076,0.076,0.134,0.162
		l5.239,7.706c0.114,0.152,0.133,0.162,0.219,0.162c0.181,0,0.181-0.086,0.181-0.333v-7.088c0-0.353,0-0.952,1.324-0.952v-0.4
		c-0.447,0.02-1.076,0.038-1.505,0.038c-0.419,0-1.048-0.019-1.505-0.038v0.4c1.324,0,1.324,0.6,1.324,0.952v5.487L207.174,176.659"
		/>
</g>
<g>
	<path d="M215.956,178.35c0.56,1.979,2.537,3.043,4.317,2.541c1.554-0.439,2.121-2.039,1.808-3.146
		c-0.027-0.1-0.046-0.163-0.173-0.127c-0.107,0.03-0.091,0.087-0.072,0.181c0.31,1.392-0.49,2.467-1.533,2.761
		c-0.582,0.164-2.554,0.37-3.358-2.482c-0.807-2.858,0.967-3.711,1.548-3.875c1.043-0.294,2.14,0.338,2.726,1.681
		c0.061,0.129,0.068,0.156,0.203,0.119c0.156-0.044,0.148-0.073,0.09-0.277l-0.639-2.263c-0.046-0.164-0.066-0.234-0.173-0.204
		c-0.042,0.012-0.078,0.021-0.124,0.157l-0.274,0.844c-0.451-0.241-1.076-0.585-1.992-0.326
		C216.515,174.439,215.405,176.398,215.956,178.35"/>
	<path d="M224.337,178.709c0.096,0.341,0.105,0.453-0.633,0.662l-0.227,0.063l0.084,0.297l5.519-1.558l-0.293-2.582l-0.241,0.068
		c0.176,1.543,0.152,2.301-1.493,2.765l-1.271,0.358c-0.446,0.127-0.485,0.068-0.576-0.25l-0.721-2.555l0.858-0.242
		c0.929-0.262,1.122,0.013,1.353,0.829l0.24-0.068l-0.715-2.532l-0.241,0.067c0.232,0.824,0.208,1.145-0.721,1.407l-0.858,0.242
		l-0.646-2.291c-0.091-0.319-0.088-0.39,0.359-0.516l1.234-0.349c1.461-0.412,1.871,0.038,2.396,1.322l0.24-0.067l-0.876-2.073
		l-5.383,1.52l0.084,0.298l0.226-0.063c0.738-0.208,0.79-0.108,0.886,0.233L224.337,178.709"/>
	<path d="M234.639,173.939l-0.234,0.066c0.171,1.008,0.372,2.238-1.309,2.713l-0.788,0.223c-0.446,0.126-0.485,0.068-0.576-0.251
		l-1.439-5.1c-0.09-0.319-0.128-0.454,0.779-0.71l0.318-0.091l-0.083-0.297c-0.34,0.126-1.212,0.372-1.603,0.482
		c-0.375,0.105-1.12,0.315-1.462,0.383l0.084,0.297l0.227-0.064c0.738-0.208,0.79-0.108,0.887,0.232l1.423,5.043
		c0.098,0.342,0.105,0.453-0.633,0.662l-0.227,0.063l0.084,0.298l4.986-1.408L234.639,173.939"/>
	<path d="M236.828,175.183c0.096,0.341,0.104,0.452-0.626,0.659l-0.234,0.066l0.084,0.298l5.519-1.559l-0.293-2.582l-0.24,0.067
		c0.183,1.542,0.159,2.299-1.487,2.764l-1.275,0.36c-0.447,0.126-0.486,0.068-0.577-0.251l-0.722-2.554l0.865-0.244
		c0.923-0.261,1.115,0.015,1.346,0.831l0.241-0.068l-0.716-2.532l-0.24,0.068c0.232,0.822,0.208,1.144-0.715,1.403l-0.864,0.245
		l-0.647-2.292c-0.09-0.318-0.087-0.389,0.36-0.516l1.233-0.348c1.468-0.414,1.872,0.038,2.402,1.32l0.234-0.066l-0.868-2.074
		l-5.392,1.522l0.084,0.297l0.234-0.066c0.73-0.206,0.782-0.105,0.878,0.235L236.828,175.183"/>
	<path d="M244.53,169.807l-1.311,0.049c-0.628,0.023-1.151-0.388-1.308-0.941c-0.19-0.673,0.164-1.401,0.909-1.611
		c1.595-0.45,2.251,1.057,2.429,1.474c0.023,0.054,0.04,0.111,0.146,0.081c0.127-0.036,0.114-0.086,0.063-0.264l-0.543-1.921
		c-0.046-0.163-0.065-0.234-0.173-0.204c-0.07,0.02-0.074,0.035-0.105,0.168l-0.187,0.642c-0.364-0.204-0.864-0.483-1.715-0.243
		c-1.063,0.3-1.628,1.371-1.341,2.385c0.224,0.795,0.924,1.347,1.743,1.4c0.117,0.005,0.638-0.021,1.351-0.045
		c0.282-0.003,0.584-0.019,0.954,0.259c0.269,0.193,0.457,0.483,0.546,0.796c0.192,0.681-0.096,1.505-0.897,1.731
		c-0.277,0.077-1.021,0.234-1.656-0.091c-0.7-0.363-0.9-0.964-1.014-1.308c-0.031-0.091-0.11-0.067-0.139-0.061
		c-0.121,0.034-0.103,0.098-0.053,0.276l0.538,1.907c0.046,0.164,0.066,0.233,0.166,0.206c0.071-0.021,0.072-0.043,0.113-0.169
		c-0.002-0.008,0.018-0.044,0.187-0.643c0.39,0.241,1.098,0.417,1.948,0.177c1.121-0.316,1.623-1.47,1.325-2.526
		C246.238,170.373,245.387,169.771,244.53,169.807"/>
	<path d="M252.084,164.688l-5.844,1.65l0.422,2.2l0.241-0.068c-0.3-1.576-0.246-1.929,1.193-2.335
		c0.178-0.051,0.426-0.12,0.521-0.132c0.218-0.017,0.248,0.09,0.311,0.311l1.423,5.043c0.091,0.319,0.129,0.454-0.878,0.738
		l-0.384,0.108l0.084,0.297c0.383-0.138,1.361-0.414,1.802-0.538c0.438-0.125,1.425-0.403,1.823-0.484l-0.084-0.298l-0.384,0.108
		c-0.999,0.282-1.037,0.147-1.128-0.173l-1.423-5.043c-0.055-0.191-0.093-0.326,0.065-0.416c0.102-0.044,0.357-0.116,0.543-0.169
		c1.446-0.408,1.676-0.136,2.245,1.365l0.234-0.066L252.084,164.688"/>
	<path d="M254.959,164.618c-0.096-0.341-0.098-0.455,0.654-0.667l0.248-0.07l-0.084-0.298c-0.324,0.122-1.084,0.337-1.446,0.439
		c-0.368,0.104-1.128,0.318-1.469,0.384l0.084,0.298l0.248-0.07c0.753-0.213,0.817-0.116,0.914,0.225l1.424,5.043
		c0.096,0.342,0.092,0.457-0.661,0.669l-0.248,0.07l0.084,0.298c0.325-0.122,1.084-0.337,1.446-0.438
		c0.368-0.104,1.128-0.319,1.469-0.385l-0.084-0.297l-0.248,0.069c-0.752,0.213-0.811,0.114-0.906-0.227L254.959,164.618"/>
	<path d="M259.626,163.515l1.957,2.81l-2.149,0.606L259.626,163.515 M259.827,162.302c-0.084-0.106-0.118-0.174-0.273-0.13
		c-0.149,0.042-0.17,0.109-0.174,0.256l-0.362,6.282c-0.04,0.541-0.382,0.79-0.897,0.943l0.084,0.298
		c0.218-0.069,0.623-0.206,0.971-0.305c0.298-0.085,0.8-0.202,1.106-0.282l-0.083-0.297c-0.476,0.134-0.782-0.032-0.855-0.287
		c-0.007-0.029-0.026-0.123-0.019-0.148l0.088-1.373l2.362-0.666l0.916,1.318c0.024,0.031,0.055,0.085,0.066,0.127
		c0.08,0.284-0.452,0.435-0.715,0.509l0.084,0.297c0.339-0.127,1.007-0.314,1.375-0.419c0.411-0.116,0.854-0.232,1.258-0.324
		l-0.084-0.298l-0.171,0.049c-0.575,0.162-0.729,0.137-0.925-0.153L259.827,162.302z"/>
	<path d="M269.94,163.973l-0.24,0.068c0.17,1.009,0.371,2.238-1.311,2.713l-0.786,0.223c-0.447,0.126-0.487,0.067-0.577-0.252
		l-1.439-5.1c-0.09-0.319-0.128-0.454,0.78-0.711l0.318-0.09l-0.084-0.297c-0.34,0.126-1.212,0.373-1.603,0.483
		c-0.376,0.105-1.12,0.316-1.461,0.382l0.084,0.297l0.227-0.064c0.737-0.207,0.789-0.107,0.886,0.233l1.423,5.043
		c0.098,0.341,0.104,0.453-0.632,0.661l-0.228,0.064l0.084,0.298l4.985-1.408L269.94,163.973"/>
</g>
<g>
	<path d="M223.791,188.891c0.097,0.341,0.105,0.454-0.625,0.66l-0.234,0.065l0.084,0.298l5.518-1.558l-0.292-2.583l-0.24,0.068
		c0.182,1.542,0.158,2.299-1.487,2.764l-1.276,0.36c-0.447,0.126-0.487,0.068-0.577-0.251l-0.722-2.554l0.866-0.245
		c0.923-0.26,1.114,0.016,1.345,0.831l0.242-0.067l-0.716-2.533l-0.241,0.068c0.232,0.822,0.209,1.144-0.714,1.404l-0.866,0.244
		l-0.646-2.291c-0.09-0.319-0.086-0.389,0.36-0.516l1.234-0.349c1.469-0.414,1.873,0.039,2.402,1.321l0.234-0.066l-0.869-2.074
		l-5.391,1.521l0.084,0.298l0.233-0.066c0.731-0.207,0.781-0.106,0.878,0.234L223.791,188.891"/>
	<path d="M234.142,186.704c0.983-0.829,1.447-2.277,1.038-3.724c-0.551-1.951-2.429-3.099-4.174-2.605
		c-1.709,0.482-2.737,2.428-2.181,4.399c0.545,1.929,2.415,3.047,4.159,2.555c0.298-0.084,0.616-0.235,0.868-0.398
		c0.399,0.868,0.781,1.709,1.668,1.459c0.979-0.276,0.803-1.605,0.667-2.087c-0.028-0.101-0.059-0.206-0.165-0.176
		c-0.085,0.024-0.077,0.105-0.057,0.207c0.088,0.526-0.234,0.932-0.646,1.048C234.873,187.508,234.54,187.25,234.142,186.704
		 M233.691,186.632c-0.274,0.276-0.569,0.398-0.775,0.456c-0.489,0.139-0.691-0.279-0.731-0.421
		c-0.078-0.277,0.031-0.652,0.406-0.758C233.109,185.762,233.437,186.106,233.691,186.632z M232.235,187.143
		c-0.57-0.038-1.84-0.438-2.46-2.636c-0.703-2.491,0.419-3.643,1.299-3.891c0.93-0.262,2.466,0.192,3.154,2.632
		c0.21,0.745,0.471,2.126-0.332,3.158c-0.356-0.475-0.797-0.87-1.365-0.71c-0.489,0.138-0.671,0.633-0.559,1.03
		C232.045,186.982,232.225,187.131,232.235,187.143z"/>
	<path d="M241.577,182.284c0.384,1.361-0.329,2.39-1.236,2.646c-0.453,0.128-1.649,0.206-2.162-1.609l-1.029-3.646
		c-0.097-0.341-0.105-0.454,0.633-0.661l0.227-0.064l-0.084-0.298c-0.325,0.123-1.034,0.322-1.396,0.426
		c-0.361,0.102-1.078,0.304-1.426,0.371l0.084,0.298l0.233-0.065c0.738-0.209,0.782-0.106,0.879,0.234l1.02,3.609
		c0.38,1.349,1.788,2.077,3.086,1.71c1.099-0.311,1.712-1.448,1.568-2.58c-0.024-0.198-0.052-0.292-0.159-0.674l-0.864-3.058
		c-0.09-0.318-0.21-0.744,0.776-1.023l-0.084-0.297c-0.346,0.104-0.8,0.256-1.126,0.349c-0.334,0.095-0.802,0.202-1.145,0.292
		l0.085,0.297c0.985-0.277,1.112,0.17,1.186,0.432L241.577,182.284"/>
	<path d="M245.519,177.525l1.965,2.808l-2.156,0.609L245.519,177.525 M245.728,176.311c-0.085-0.106-0.126-0.171-0.275-0.13
		c-0.155,0.045-0.169,0.108-0.179,0.259l-0.363,6.282c-0.032,0.537-0.375,0.787-0.891,0.94l0.084,0.298
		c0.218-0.068,0.623-0.207,0.971-0.305c0.298-0.084,0.8-0.202,1.107-0.282l-0.084-0.297c-0.482,0.136-0.782-0.032-0.854-0.287
		c-0.008-0.029-0.027-0.123-0.026-0.146l0.087-1.373l2.37-0.669l0.916,1.318c0.017,0.034,0.055,0.085,0.066,0.127
		c0.08,0.284-0.452,0.435-0.715,0.509l0.084,0.297c0.34-0.126,1.007-0.314,1.368-0.416c0.411-0.117,0.854-0.234,1.264-0.327
		l-0.084-0.298l-0.171,0.049c-0.574,0.162-0.727,0.136-0.924-0.152L245.728,176.311z"/>
	<path d="M254.709,173.975l-5.845,1.65l0.422,2.2l0.241-0.068c-0.3-1.576-0.246-1.929,1.202-2.338
		c0.17-0.048,0.418-0.118,0.521-0.131c0.21-0.014,0.24,0.092,0.303,0.312l1.424,5.043c0.09,0.319,0.129,0.454-0.879,0.738
		l-0.383,0.107l0.085,0.298c0.389-0.141,1.359-0.415,1.8-0.539s1.427-0.402,1.823-0.484l-0.083-0.298l-0.383,0.108
		c-1,0.282-1.039,0.148-1.129-0.171l-1.424-5.044c-0.054-0.191-0.093-0.326,0.067-0.416c0.102-0.045,0.356-0.116,0.541-0.169
		c1.447-0.408,1.677-0.136,2.247,1.365l0.24-0.069L254.709,173.975"/>
	<path d="M260.776,179.215c-0.923,0.261-2.438-0.224-3.143-2.721c-0.698-2.476,0.515-3.521,1.309-3.746
		c0.831-0.234,2.391,0.06,3.082,2.507C262.739,177.788,261.656,178.967,260.776,179.215 M263.049,175.111
		c-0.551-1.95-2.437-3.096-4.174-2.604c-1.718,0.484-2.746,2.43-2.189,4.401c0.554,1.957,2.451,3.037,4.153,2.557
		C262.577,178.974,263.594,177.041,263.049,175.111z"/>
	<path d="M267.74,173.772c0.865-0.49,1.446-1.282,1.235-2.027c-0.26-0.922-1.579-1.414-2.983-1.019l-3.007,0.85l0.084,0.298
		l0.233-0.066c0.738-0.209,0.781-0.105,0.878,0.234l1.424,5.043c0.097,0.342,0.112,0.451-0.625,0.66l-0.234,0.066l0.084,0.297
		c0.34-0.126,1.021-0.319,1.389-0.424c0.376-0.105,1.058-0.297,1.406-0.365l-0.084-0.298l-0.228,0.064
		c-0.737,0.208-0.789,0.108-0.885-0.232l-0.684-2.419l1.1-0.311c0.156-0.044,0.561-0.158,0.983,0.067
		c0.461,0.245,0.545,0.543,0.725,1.182c0.177,0.624,0.285,1.007,0.777,1.258c0.495,0.236,1.036,0.145,1.319,0.064
		c0.745-0.21,0.686-1.043,0.609-1.312c-0.016-0.059-0.046-0.164-0.166-0.13c-0.106,0.03-0.081,0.122-0.069,0.188
		c0.135,0.696-0.157,0.963-0.392,1.028c-0.468,0.133-0.684-0.334-1.069-1.183l-0.344-0.73
		C268.876,173.995,268.317,173.809,267.74,173.772 M265.684,174.222l-0.698-2.476c-0.062-0.22-0.097-0.34,0.109-0.429
		c0.088-0.04,0.372-0.12,0.556-0.173c0.865-0.244,1.946-0.511,2.34,0.88c0.186,0.659,0.178,1.496-1.241,1.896L265.684,174.222z"/>
</g>
<path fill="#FF0000" d="M149.894,167.846c-1.551,1.367-2.918,1.564-3.628,1.564c-1.064,0-1.604-0.802-1.604-1.933
	c0-0.867,0.46-2.786,1.038-3.694c0.829-1.287,1.788-1.629,2.406-1.629c1.762,0,1.762,2.326,1.762,3.707
	C149.868,166.518,149.868,167.544,149.894,167.846 M151.09,165.414c0-2.787-1.656-3.654-2.971-3.654
	c-2.419,0-4.771,2.537-4.771,5.034c0,1.657,1.064,2.997,2.879,2.997c1.117,0,2.393-0.407,3.746-1.484
	c0.224,0.933,0.815,1.484,1.604,1.484c0.946,0,1.499-0.973,1.499-1.248c0-0.132-0.105-0.185-0.224-0.185s-0.171,0.053-0.223,0.185
	c-0.316,0.867-0.96,0.867-1,0.867c-0.539,0-0.539-1.394-0.539-1.814c0-0.367,0-0.407,0.171-0.617c1.67-2.09,2.038-4.154,2.038-4.167
	c0-0.04-0.014-0.185-0.211-0.185c-0.184,0-0.184,0.053-0.263,0.382c-0.315,1.116-0.907,2.458-1.735,3.509V165.414z"/>
<path fill="#1F00FF" d="M187.72,118.186c0.447,0.814,0.985,1.774,0.985,3.05c0,1.17-0.683,4.127-2.326,4.127
	c-0.973,0-1.709-0.736-1.709-2.09C184.67,122.155,185.327,118.83,187.72,118.186 M187.51,117.804
	c-2.209,0.526-3.931,2.826-3.931,4.982c0,1.696,1.13,2.971,2.8,2.971c2.077,0,3.549-2.787,3.549-5.232
	c0-1.604-0.71-2.497-1.314-3.299c-0.645-0.789-1.683-2.117-1.683-2.905c0-0.381,0.354-0.815,0.973-0.815
	c0.525,0,0.881,0.236,1.263,0.486c0.354,0.21,0.709,0.434,0.973,0.434c0.446,0,0.71-0.421,0.71-0.71c0-0.381-0.29-0.434-0.921-0.578
	c-0.92-0.197-1.17-0.197-1.459-0.197c-1.38,0-2.023,0.762-2.023,1.827C186.445,115.727,186.957,116.713,187.51,117.804z"/>
<g>
	<g>
		<path fill="none" stroke="#FF0000" stroke-width="2" d="M158.217,150.864c-1.81,0.788-3.784,1.456-6.283,1.519
			c-5.532,0.14-11.414-0.169-16.84-3.312"/>
		<g>
			<path fill="#FF0000" d="M156.885,151.408l-0.548,3.328l0.115,0.024l3.661-3.489c1.384-0.946,2.769-1.893,4.152-2.839
				c-1.653,0.277-3.307,0.557-4.961,0.834l-5.057,0.026l-0.073,0.081L156.885,151.408z"/>
		</g>
	</g>
</g>
<line fill="none" stroke="#000000" stroke-width="0.776" x1="149.595" y1="142.457" x2="222.233" y2="169.791"/>
<g>
	<g>
		<path fill="none" stroke="#1F00FF" stroke-width="2" d="M171.007,117.435c7.349,6.001,12.021,15.009,12.021,25.08
			c0,4.244-0.83,8.3-2.34,12.021"/>
		<g>
			<path fill="#1F00FF" d="M172.114,118.357l3.085-1.367l-0.044-0.11l-4.925-1.148c-1.551-0.639-3.102-1.277-4.651-1.916
				c1.139,1.23,2.278,2.46,3.418,3.691l2.795,4.214l0.108,0.016L172.114,118.357z"/>
		</g>
	</g>
</g>
<g>
	<path d="M8.699,201.7c0.192-0.535,0.589-0.953,1.574-0.964v-0.449c-0.449,0.032-1.028,0.043-1.403,0.043
		c-0.439,0-1.274-0.033-1.649-0.043v0.449c0.75,0.011,1.05,0.387,1.05,0.719c0,0.117-0.043,0.203-0.064,0.289l-2.646,6.963
		l-2.765-7.295c-0.086-0.204-0.086-0.236-0.086-0.257c0-0.419,0.825-0.419,1.189-0.419v-0.449c-0.525,0.043-1.521,0.043-2.067,0.043
		c-0.696,0-1.318-0.033-1.832-0.043v0.449c0.932,0,1.21,0,1.413,0.547l3.354,8.87c0.096,0.278,0.171,0.321,0.354,0.321
		c0.246,0,0.278-0.075,0.353-0.278L8.699,201.7"/>
	<path d="M12.513,209.028c0,0.514-0.032,0.675-1.146,0.675h-0.344v0.45h8.335l0.61-3.729h-0.364
		c-0.364,2.229-0.696,3.278-3.182,3.278h-1.917c-0.687,0-0.707-0.096-0.707-0.578v-3.856h1.296c1.403,0,1.563,0.46,1.563,1.692
		h0.354v-3.825h-0.354c0,1.243-0.16,1.683-1.563,1.683h-1.296v-3.46c0-0.482,0.021-0.579,0.707-0.579h1.864
		c2.205,0,2.603,0.793,2.827,2.797h0.365l-0.408-3.246h-8.131v0.449h0.344c1.113,0,1.146,0.161,1.146,0.676V209.028"/>
	<path d="M26.643,205.236c1.403-0.343,2.528-1.221,2.528-2.346c0-1.394-1.639-2.604-3.771-2.604h-4.531v0.449h0.343
		c1.115,0,1.146,0.161,1.146,0.676v7.616c0,0.514-0.031,0.675-1.146,0.675h-0.343v0.45c0.515-0.043,1.543-0.043,2.111-0.043
		c0.556,0,1.585,0,2.11,0.043v-0.45h-0.354c-1.113,0-1.135-0.161-1.135-0.675v-3.653h1.66c0.226,0,0.836,0,1.339,0.482
		c0.558,0.524,0.558,0.975,0.558,1.939c0,0.942,0,1.521,0.589,2.067c0.59,0.524,1.382,0.61,1.821,0.61
		c1.125,0,1.371-1.189,1.371-1.597c0-0.085,0-0.246-0.192-0.246c-0.161,0-0.161,0.14-0.171,0.236
		c-0.087,1.028-0.59,1.285-0.954,1.285c-0.707,0-0.825-0.739-1.029-2.078l-0.182-1.157
		C28.154,205.996,27.437,205.515,26.643,205.236 M23.601,205.054v-3.739c0-0.332,0-0.514,0.311-0.557
		c0.149-0.021,0.567-0.021,0.857-0.021c1.295,0,2.914,0.054,2.914,2.154c0,0.996-0.344,2.163-2.486,2.163H23.601z"/>
	<path d="M34.335,200.469c-0.129-0.172-0.15-0.182-0.417-0.182h-2.454v0.449h0.417c0.215,0,0.505,0.011,0.718,0.021
		c0.332,0.043,0.344,0.064,0.344,0.332v7.542c0,0.396,0,1.071-1.479,1.071v0.45c0.503-0.011,1.211-0.043,1.682-0.043
		c0.482,0,1.189,0.032,1.692,0.043v-0.45c-1.489,0-1.489-0.675-1.489-1.071v-7.509c0.075,0.074,0.087,0.085,0.15,0.17l5.893,8.679
		c0.128,0.171,0.139,0.182,0.246,0.182c0.203,0,0.203-0.097,0.203-0.375v-7.971c0-0.396,0-1.071,1.489-1.071v-0.449
		c-0.503,0.01-1.221,0.043-1.692,0.043c-0.481,0-1.189-0.033-1.693-0.043v0.449c1.49,0,1.49,0.676,1.49,1.071v6.16L34.335,200.469"
		/>
	<path d="M46.795,201.712l1.627,4.703h-3.246L46.795,201.712 M47.555,200.094c-0.075-0.182-0.096-0.289-0.332-0.289
		c-0.225,0-0.278,0.085-0.343,0.289l-2.989,8.646c-0.268,0.739-0.847,0.953-1.628,0.964v0.45c0.331-0.011,0.953-0.043,1.478-0.043
		c0.45,0,1.2,0.032,1.661,0.043v-0.45c-0.718,0-1.083-0.354-1.083-0.739c0-0.042,0.011-0.182,0.033-0.215l0.663-1.885h3.568
		l0.761,2.207c0.021,0.054,0.042,0.139,0.042,0.204c0,0.428-0.803,0.428-1.2,0.428v0.45c0.525-0.043,1.532-0.043,2.09-0.043
		c0.621,0,1.285,0.011,1.886,0.043v-0.45h-0.258c-0.867,0-1.07-0.096-1.231-0.578L47.555,200.094z"/>
	<path d="M61.031,206.425h-0.354c-0.16,1.479-0.364,3.278-2.902,3.278h-1.19c-0.674,0-0.707-0.096-0.707-0.578v-7.703
		c0-0.481,0-0.686,1.372-0.686h0.481v-0.449c-0.525,0.043-1.843,0.043-2.432,0.043c-0.567,0-1.692,0-2.196-0.043v0.449h0.343
		c1.115,0,1.146,0.161,1.146,0.676v7.616c0,0.514-0.031,0.675-1.146,0.675h-0.343v0.45h7.531L61.031,206.425"/>
	<path d="M68.434,209.028c0,0.514-0.031,0.675-1.146,0.675h-0.342v0.45h8.334l0.61-3.729h-0.364
		c-0.364,2.229-0.696,3.278-3.182,3.278h-1.917c-0.676,0-0.707-0.096-0.707-0.578v-3.856h1.296c1.403,0,1.563,0.46,1.563,1.692
		h0.364v-3.825h-0.364c0,1.243-0.16,1.683-1.563,1.683H69.72v-3.46c0-0.482,0.031-0.579,0.707-0.579h1.864
		c2.206,0,2.604,0.793,2.828,2.797h0.364l-0.407-3.246h-8.131v0.449h0.342c1.115,0,1.146,0.161,1.146,0.676V209.028"/>
	<path d="M83.764,210.057c1.714-0.771,2.936-2.613,2.936-4.8c0-2.945-2.175-5.292-4.811-5.292c-2.582,0-4.799,2.314-4.799,5.292
		c0,2.915,2.185,5.218,4.811,5.218c0.449,0,0.952-0.086,1.382-0.215c0.214,1.372,0.417,2.7,1.757,2.7
		c1.478,0,1.745-1.928,1.745-2.657c0-0.149,0-0.311-0.16-0.311c-0.128,0-0.14,0.118-0.15,0.268
		c-0.085,0.772-0.695,1.211-1.317,1.211C84.481,211.471,84.117,210.978,83.764,210.057 M83.175,209.778
		c-0.493,0.278-0.953,0.332-1.274,0.332c-0.729,0-0.847-0.664-0.847-0.879c0-0.417,0.3-0.899,0.867-0.899
		C82.703,208.332,83.014,208.943,83.175,209.778z M80.936,209.917c-0.781-0.277-2.399-1.339-2.399-4.66
		c0-3.76,2.024-4.927,3.353-4.927c1.404,0,3.364,1.242,3.364,4.927c0,1.125-0.171,3.161-1.703,4.285
		c-0.312-0.803-0.782-1.531-1.629-1.531c-0.739,0-1.188,0.621-1.188,1.221C80.732,209.617,80.925,209.896,80.936,209.917z"/>
	<path d="M95.923,206.811c0,2.058-1.403,3.214-2.774,3.214c-0.686,0-2.389-0.364-2.389-3.106v-5.506
		c0-0.515,0.031-0.676,1.146-0.676h0.343v-0.449c-0.503,0.043-1.574,0.043-2.121,0.043c-0.558,0-1.639,0-2.143-0.043v0.449h0.344
		c1.113,0,1.146,0.161,1.146,0.676v5.452c0,2.035,1.671,3.61,3.643,3.61c1.66,0,2.957-1.35,3.203-2.988
		c0.043-0.29,0.043-0.429,0.043-1.008v-4.617c0-0.481,0-1.125,1.489-1.125v-0.449c-0.515,0.01-1.211,0.043-1.703,0.043
		c-0.504,0-1.2-0.033-1.714-0.043v0.449c1.488,0,1.488,0.676,1.488,1.071V206.811"/>
	<path d="M101.579,201.412c0-0.515,0.043-0.676,1.189-0.676h0.375v-0.449c-0.504,0.043-1.65,0.043-2.196,0.043
		c-0.568,0-1.703,0-2.207-0.043v0.449h0.375c1.136,0,1.179,0.161,1.179,0.676v7.616c0,0.514-0.043,0.675-1.179,0.675H98.74v0.45
		c0.504-0.043,1.639-0.043,2.196-0.043c0.557,0,1.703,0,2.207,0.043v-0.45h-0.375c-1.146,0-1.189-0.161-1.189-0.675V201.412"/>
	<path d="M106.871,200.469c-0.129-0.172-0.139-0.182-0.418-0.182H104v0.449h0.418c0.215,0,0.504,0.011,0.718,0.021
		c0.333,0.043,0.354,0.064,0.354,0.332v7.542c0,0.396,0,1.071-1.489,1.071v0.45c0.504-0.011,1.211-0.043,1.692-0.043
		c0.472,0,1.179,0.032,1.683,0.043v-0.45c-1.489,0-1.489-0.675-1.489-1.071v-7.509c0.075,0.074,0.097,0.085,0.15,0.17l5.892,8.679
		c0.129,0.171,0.15,0.182,0.246,0.182c0.203,0,0.203-0.097,0.203-0.375v-7.971c0-0.396,0-1.071,1.489-1.071v-0.449
		c-0.502,0.01-1.21,0.043-1.692,0.043c-0.471,0-1.178-0.033-1.692-0.043v0.449c1.489,0,1.489,0.676,1.489,1.071v6.16
		L106.871,200.469"/>
	<path d="M119.963,210.1c-1.382,0-3.321-1.275-3.321-5.046c0-3.739,2.11-4.724,3.311-4.724c1.253,0,3.321,1.028,3.321,4.724
		C123.273,208.878,121.291,210.1,119.963,210.1 M124.762,205.257c0-2.945-2.186-5.292-4.81-5.292c-2.593,0-4.8,2.314-4.8,5.292
		c0,2.957,2.229,5.218,4.8,5.218C122.576,210.475,124.762,208.172,124.762,205.257z"/>
	<path d="M130.976,204.572l1.982-2.903c0.31-0.461,0.803-0.922,2.088-0.933v-0.449c-0.557,0.01-1.242,0.043-1.596,0.043
		c-0.579,0-1.274,0-1.854-0.043v0.449c0.579,0.011,0.9,0.332,0.9,0.665c0,0.139-0.033,0.171-0.14,0.332l-1.64,2.442l-1.863-2.796
		c-0.032-0.043-0.107-0.15-0.107-0.215c0-0.171,0.321-0.418,0.942-0.429v-0.449c-0.503,0.043-1.563,0.043-2.11,0.043
		c-0.45,0-1.338-0.011-1.874-0.043v0.449h0.268c0.792,0,1.071,0.097,1.35,0.504l2.657,4.017l-2.368,3.492
		c-0.203,0.29-0.643,0.954-2.1,0.954v0.45c0.525-0.011,1.124-0.043,1.606-0.043c0.536,0,1.329,0,1.843,0.043v-0.45
		c-0.664-0.011-0.91-0.406-0.91-0.664c0-0.129,0.054-0.183,0.15-0.343l2.046-3.032l2.292,3.45c0.021,0.054,0.064,0.117,0.064,0.161
		c0,0.171-0.311,0.417-0.932,0.428v0.45c0.504-0.043,1.554-0.043,2.11-0.043c0.6,0,1.264,0.011,1.874,0.043v-0.45h-0.278
		c-0.75,0-1.05-0.063-1.349-0.515L130.976,204.572"/>
</g>
<path fill="none" stroke="#FFE53F" stroke-width="2.6073" d="M23.096,166.986c-2.828-10.991,52.438-34.479,119.76-51.796
	c67.325-17.317,124.194-22.445,127.021-11.452"/>
<g>
</g>
</svg>
