<?xml version="1.0" encoding="UTF-8" standalone="no"?>
<!-- Generator: Adobe Illustrator 16.0.0, SVG Export Plug-In . SVG Version: 6.00 Build 0)  -->

<svg
   xmlns:dc="http://purl.org/dc/elements/1.1/"
   xmlns:cc="http://creativecommons.org/ns#"
   xmlns:rdf="http://www.w3.org/1999/02/22-rdf-syntax-ns#"
   xmlns:svg="http://www.w3.org/2000/svg"
   xmlns="http://www.w3.org/2000/svg"
   xmlns:xlink="http://www.w3.org/1999/xlink"
   xmlns:sodipodi="http://sodipodi.sourceforge.net/DTD/sodipodi-0.dtd"
   xmlns:inkscape="http://www.inkscape.org/namespaces/inkscape"
   version="1.1"
   id="Calque_1"
   x="0px"
   y="0px"
   width="1018.208px"
   height="1088.54px"
   viewBox="0 0 1018.208 1088.54"
   enable-background="new 0 0 1018.208 1088.54"
   xml:space="preserve"
   sodipodi:docname="new-horizontal.svg"
   inkscape:version="0.92.5 (2060ec1f9f, 2020-04-08)"><metadata
   id="metadata173"><rdf:RDF><cc:Work
       rdf:about=""><dc:format>image/svg+xml</dc:format><dc:type
         rdf:resource="http://purl.org/dc/dcmitype/StillImage" /><dc:title></dc:title></cc:Work></rdf:RDF></metadata><defs
   id="defs171" /><sodipodi:namedview
   pagecolor="#ffffff"
   bordercolor="#666666"
   borderopacity="1"
   objecttolerance="10"
   gridtolerance="10"
   guidetolerance="10"
   inkscape:pageopacity="0"
   inkscape:pageshadow="2"
   inkscape:window-width="1920"
   inkscape:window-height="1043"
   id="namedview169"
   showgrid="false"
   inkscape:zoom="0.51"
   inkscape:cx="386.97182"
   inkscape:cy="544.27002"
   inkscape:window-x="0"
   inkscape:window-y="0"
   inkscape:window-maximized="1"
   inkscape:current-layer="Calque_1" />
<g
   id="g10">
	<g
   id="g8">
		<path
   fill="none"
   stroke="#000000"
   stroke-width="3.5491"
   d="M521.46,143.905c0.59,0,1.179,0.043,1.766,0.128"
   id="path2" />
		<path
   fill="none"
   stroke="#000000"
   stroke-width="3.5491"
   stroke-dasharray="3.5643,17.8216"
   d="M537.205,154.357    c32.544,43.93,56.886,221.179,56.886,433.155c0,224.888-27.395,410.684-62.915,439.686"
   id="path4" />
		<path
   fill="none"
   stroke="#000000"
   stroke-width="3.5491"
   d="M523.226,1031.003c-0.587,0.086-1.176,0.129-1.766,0.129"
   id="path6" />
	</g>
</g>
<g
   id="g20">
	<g
   id="g18">
		<path
   fill="none"
   stroke="#000000"
   stroke-width="3.5491"
   d="M66.036,572.11c0-0.591,0.017-1.181,0.05-1.77"
   id="path12" />
		<path
   fill="none"
   stroke="#000000"
   stroke-width="3.5491"
   stroke-dasharray="3.5454,17.7271"
   d="M71.548,553.661    c34.075-56.452,222.025-99.63,448.782-99.63c237.359,0,432.198,47.31,452.54,107.633"
   id="path14" />
		<path
   fill="none"
   stroke="#000000"
   stroke-width="3.5491"
   d="M974.573,570.341c0.033,0.589,0.05,1.179,0.05,1.77"
   id="path16" />
	</g>
</g>
<path
   fill="none"
   stroke="#000000"
   stroke-width="3.5491"
   d="M974.401,575.659c0,65.196-203.392,118.062-454.295,118.062  c-250.9,0-454.292-52.865-454.292-118.062"
   id="path22" />
<path
   fill="none"
   stroke="#000000"
   stroke-width="3.5491"
   d="M976.772,587.512c0,245.011-203.933,443.62-455.488,443.62  c-251.552,0-455.47-198.609-455.47-443.62c0-244.996,203.918-443.604,455.47-443.604  C772.84,143.908,976.772,342.516,976.772,587.512z"
   id="path24" />
<path
   fill="none"
   stroke="#000000"
   stroke-width="2.6618"
   d="M521.286,143.908c0,887.224,0,887.224,0,887.224"
   id="path26" />
<path
   fill="none"
   stroke="#000000"
   stroke-width="3.0811"
   d="M448.405,694.081C588.648,462.062,592.337,457.58,592.337,457.58"
   id="path28" />
<path
   fill="none"
   stroke="#000000"
   stroke-width="2.6618"
   d="M238.983,238.787c578.844,687.965,575.96,687.852,575.96,687.852"
   id="path30" />
<path
   fill="none"
   stroke="#0000FF"
   stroke-width="7.0981"
   d="M520.345,575.611c0,0,2.619-5.772,146.605-197.523"
   id="path32" />
<path
   d="m 243.16464,698.68243 v 5.126 c 0,5.123 0.189,10.322 0.454,15.438 0.069,1.779 0.457,8.408 0.853,13.015 h -16.154 c -1.455,0 -2.759,0 -5.071,1.442 6.184,-9.595 11.313,-18.792 11.902,-19.776 4.398,-7.882 6.762,-13.008 7.951,-15.244 h 0.065 m 1.771,38.44 c 0.461,5.583 1.511,9.652 1.969,11.368 0.991,4.011 1.448,5.913 5.184,5.913 4.014,0 10.85,-3.944 10.85,-5.722 0,-0.455 -0.326,-0.656 -0.787,-0.656 -1.189,0 -3.02,0.991 -3.289,1.187 -0.593,0.328 -0.784,0.328 -0.984,0.328 -2.495,0 -3.021,-2.37 -4.073,-7.69 -0.592,-2.956 -1.376,-6.502 -2.104,-18.591 -0.662,-9.07 -0.987,-18.138 -0.987,-27.134 0,-2.171 0.072,-4.472 0.072,-6.575 0,-1.444 0,-1.771 -0.99,-1.771 -1.18,0 -4.859,1.508 -6.441,3.875 l -0.649,0.984 c -6.968,14.979 -13.538,25.692 -18.135,32.923 -5.262,8.013 -14.459,22.465 -19.256,22.465 -3.278,0 -5.979,-2.1 -6.831,-5.32 -0.066,-0.131 -0.265,-0.654 -0.59,-0.654 -1.313,0 -3.293,4.205 -3.293,6.699 0,3.55 3.816,7.428 8.017,7.428 6.114,0 16.304,-15.905 18.203,-19.056 h 24.114 z"
   id="path34"
   inkscape:connector-curvature="0"
   style="fill:#ff0000;fill-opacity:1" />
<path
   d="M1018.208,550.199c0-0.171-0.126-0.554-0.64-0.554c-0.298,0-0.339,0.044-1.023,0.852l-2.771,3.286  c-1.492-2.731-4.477-4.138-8.231-4.138c-7.293,0-14.201,6.611-14.201,13.562c0,4.646,3.028,7.294,5.971,8.144l6.143,1.621  c2.133,0.514,5.329,1.411,5.329,6.1c0,5.201-4.733,10.575-10.362,10.575c-3.71,0-10.065-1.233-10.065-8.399  c0-1.362,0.298-2.729,0.343-3.072c0.041-0.254,0.126-0.296,0.126-0.425c0-0.554-0.425-0.644-0.726-0.644  c-0.257,0-0.384,0.09-0.555,0.261c-0.253,0.212-3.451,13.347-3.451,13.517c0,0.342,0.297,0.555,0.639,0.555  c0.298,0,0.342-0.041,1.022-0.854l2.817-3.28c2.474,3.327,6.396,4.135,9.721,4.135c7.85,0,14.63-7.631,14.63-14.798  c0-3.969-1.962-5.885-2.813-6.694c-1.325-1.327-2.222-1.58-7.338-2.9c-1.239-0.343-3.327-0.897-3.836-1.026  c-1.537-0.508-3.499-2.172-3.499-5.246c0-4.647,4.604-9.551,10.065-9.551c4.774,0,8.272,2.474,8.272,8.915  c0,1.875-0.214,2.898-0.214,3.236c0,0.045,0,0.559,0.683,0.559c0.555,0,0.639-0.171,0.854-1.153L1018.208,550.199"
   id="path36" />
<g
   id="g44">
	<path
   d="M823.459,969.116l-8.672-2.107c-4.207-1.002-6.813-4.661-6.813-8.566c0-4.715,3.653-8.873,8.922-8.873   c11.278,0,12.781,11.125,13.176,14.133c0.056,0.402,0.056,0.801,0.805,0.801c0.901,0,0.901-0.301,0.901-1.604v-13.583   c0-1.15,0-1.601-0.748-1.601c-0.506,0-0.556,0.048-1.054,0.849l-2.357,3.86c-2.003-1.953-4.81-4.709-10.828-4.709   c-7.464,0-13.184,5.912-13.184,13.08c0,5.614,3.611,10.574,8.873,12.381c0.755,0.249,4.215,1.104,8.921,2.255   c1.858,0.45,3.861,0.905,5.768,3.407c1.4,1.754,2.107,4.011,2.107,6.218c0,4.811-3.411,9.673-9.073,9.673   c-1.955,0-7.119-0.3-10.675-3.659c-3.91-3.608-4.111-7.969-4.215-10.374c-0.05-0.703-0.597-0.703-0.798-0.703   c-0.908,0-0.908,0.503-0.908,1.706v13.53c0,1.153,0,1.604,0.756,1.604c0.5,0,0.548-0.148,1.054-0.851   c0-0.099,0.201-0.3,2.405-3.858c2.1,2.306,6.412,4.709,12.429,4.709c7.924,0,13.337-6.612,13.337-14.032   C833.587,976.034,829.122,970.471,823.459,969.116"
   id="path38" />
	<path
   d="M841.101,972.225c0,13.981,10.931,24.607,23.505,24.607c11.029,0,17.649-9.371,17.649-17.242c0-0.647,0-1.15-0.853-1.15   c-0.756,0-0.756,0.398-0.854,1.103c-0.498,9.673-7.771,15.187-15.139,15.187c-4.11,0-17.343-2.305-17.343-22.454   c0-20.2,13.184-22.508,17.295-22.508c7.368,0,13.385,6.165,14.736,16.044c0.153,0.948,0.153,1.149,1.103,1.149   c1.054,0,1.054-0.201,1.054-1.604v-16.04c0-1.15,0-1.601-0.755-1.601c-0.251,0-0.5,0-1.047,0.801l-3.411,5.011   c-2.51-2.457-5.92-5.812-12.437-5.812C851.977,947.715,841.101,958.442,841.101,972.225"
   id="path40" />
	<path
   d="M901.198,972.225v-18.248c0-2.252,0.153-2.703,3.314-2.703h6.009c10.779,0,10.779,7.169,10.779,10.476   c0,3.205,0,10.476-10.779,10.476H901.198 M901.399,973.979h11.432c8.116,0,15.436-5.466,15.436-12.229   c0-6.618-6.716-12.582-15.991-12.582h-23.858v2.106h1.656c5.158,0,5.31,0.753,5.31,3.153v35.641c0,2.457-0.151,3.209-5.31,3.209   h-1.656v2.056c2.356-0.201,7.368-0.201,9.926-0.201c2.606,0,7.667,0,10.024,0.201v-2.056h-1.603c-5.212,0-5.365-0.752-5.365-3.209   V973.979z"
   id="path42" />
</g>
<g
   id="g52">
	<path
   d="M137.134,172.235c-0.604-0.8-0.652-0.901-1.958-0.901H123.7v2.107h1.955c1.005,0,2.354,0.048,3.359,0.149   c1.553,0.201,1.653,0.25,1.653,1.552v35.287c0,1.806,0,5.015-6.967,5.015v2.055c2.357-0.052,5.663-0.201,7.919-0.201   c2.204,0,5.515,0.149,7.871,0.201v-2.055c-6.921,0-6.921-3.209-6.921-5.015v-35.186c0.302,0.351,0.402,0.451,0.652,0.853   l27.57,40.547c0.601,0.804,0.704,0.856,1.151,0.856c0.953,0,0.953-0.454,0.953-1.757v-37.29c0-1.857,0-5.011,6.967-5.011v-2.107   c-2.354,0.101-5.664,0.201-7.92,0.201c-2.208,0-5.511-0.101-7.919-0.201v2.107c6.966,0,6.966,3.154,6.966,5.011v28.871   L137.134,172.235"
   id="path46" />
	<path
   d="M175.875,194.393c0,13.981,10.98,24.608,23.509,24.608c11.03,0,17.644-9.372,17.644-17.243c0-0.648,0-1.151-0.853-1.151   c-0.748,0-0.748,0.398-0.804,1.102c-0.548,9.673-7.764,15.187-15.134,15.187c-4.163,0-17.392-2.305-17.392-22.455   c0-20.2,13.181-22.508,17.291-22.508c7.366,0,13.383,6.166,14.734,16.044c0.153,0.95,0.153,1.151,1.103,1.151   c1.054,0,1.054-0.201,1.054-1.605v-16.04c0-1.15,0-1.601-0.7-1.601c-0.299,0-0.555,0-1.102,0.8l-3.362,5.012   c-2.503-2.457-5.962-5.812-12.479-5.812C186.755,169.882,175.875,180.609,175.875,194.393"
   id="path48" />
	<path
   d="M235.979,194.393v-18.248c0-2.253,0.146-2.704,3.307-2.704h6.017c10.771,0,10.771,7.167,10.771,10.474   c0,3.206,0,10.477-10.771,10.477H235.979 M236.172,196.147h11.432c8.117,0,15.438-5.466,15.438-12.231   c0-6.617-6.718-12.582-15.985-12.582h-23.858v2.107h1.648c5.214,0,5.317,0.752,5.317,3.154v35.639c0,2.457-0.104,3.209-5.317,3.209   h-1.648v2.055c2.398-0.201,7.36-0.201,9.968-0.201c2.563,0,7.617,0,9.975,0.201v-2.055h-1.601c-5.214,0-5.367-0.752-5.367-3.209   V196.147z"
   id="path50" />
</g>
<path
   d="M426.289,733.797c0.128-0.298,0.295-0.681,0.295-0.812c0-0.041,0-0.641-0.681-0.641c-0.556,0-0.641,0.384-0.768,0.727  c-3.753,8.487-5.886,12.368-15.694,12.368h-8.401c-0.811,0-0.938,0-1.279-0.086c-0.555-0.04-0.727-0.085-0.727-0.554  c0-0.171,0-0.298,0.257-1.321l3.923-15.694h5.714c4.863,0,4.863,1.193,4.863,2.645c0,0.381,0,1.064-0.384,2.813  c-0.126,0.257-0.171,0.428-0.171,0.595c0,0.302,0.214,0.641,0.726,0.641c0.47,0,0.638-0.253,0.895-1.149l3.285-13.436  c0-0.34-0.298-0.641-0.726-0.641c-0.513,0-0.596,0.343-0.812,1.026c-1.193,4.392-2.217,5.713-7.503,5.713h-5.419l3.456-13.857  c0.51-2.05,0.554-2.262,3.115-2.262h8.1c6.994,0,8.743,1.662,8.743,6.396c0,1.366,0,1.492-0.212,3.029  c0,0.342-0.083,0.768-0.083,1.064c0,0.257,0.169,0.684,0.682,0.684c0.638,0,0.723-0.341,0.811-1.45l1.15-9.938  c0.169-1.577-0.088-1.577-1.535-1.577h-29.042c-1.156,0-1.749,0-1.749,1.153c0,0.64,0.51,0.64,1.619,0.64c2.132,0,3.75,0,3.75,1.023  c0,0.255,0,0.341-0.297,1.407l-7.591,30.409c-0.597,2.259-0.682,2.728-5.247,2.728c-0.978,0-1.621,0-1.621,1.066  c0,0.683,0.555,0.683,1.621,0.683h29.856c1.321,0,1.407-0.042,1.79-0.979L426.289,733.797"
   id="path54" />
<path
   d="M578.804,408.868c1.448-2.56,2.812-4.605,6.438-4.904c0.514-0.044,1.111-0.044,1.111-1.153c0-0.212-0.257-0.64-0.684-0.64  c-1.406,0-3.031,0.171-4.436,0.171c-1.964,0-4.094-0.171-6.017-0.171c-0.338,0-1.062,0-1.062,1.108c0,0.641,0.508,0.685,0.85,0.685  c1.366,0.042,3.413,0.511,3.413,2.26c0,0.596-0.298,1.066-0.771,1.875l-15.521,27.083l-2.135-28.53  c-0.038-1.153-0.168-2.646,4.01-2.688c0.98,0,1.578,0,1.578-1.153c0-0.554-0.637-0.64-0.852-0.64c-2.305,0-4.736,0.171-7.036,0.171  c-1.325,0-4.734-0.171-6.058-0.171c-0.343,0-1.067,0-1.067,1.153c0,0.64,0.554,0.64,1.365,0.64c2.518,0,2.942,0.344,3.07,1.451  l0.341,4.433l-14.583,25.334l-2.178-29.127c0-0.728,0-2.049,4.394-2.091c0.557,0,1.194,0,1.194-1.153c0-0.64-0.682-0.64-0.811-0.64  c-2.302,0-4.689,0.171-7.078,0.171c-2.005,0-4.096-0.171-6.013-0.171c-0.301,0-1.068,0-1.068,1.108c0,0.685,0.514,0.685,1.452,0.685  c2.898,0,2.939,0.511,3.069,2.133l2.56,35.14c0.083,1.025,0.127,1.495,0.938,1.495c0.681,0,0.856-0.342,1.363-1.197l16.932-29.339  l2.135,29.041c0.083,1.194,0.214,1.495,0.896,1.495c0.766,0,1.108-0.558,1.409-1.108L578.804,408.868"
   id="path56" />
<g
   id="g70">
	<path
   d="M454.371,99.939c0.609-0.766,0.609-0.867,0.609-1.175c0-0.863-0.509-0.863-1.784-0.863h-21.978l-0.76,11.063h1.73   c0.408-7.036,1.684-9.587,9.278-9.587h7.805l-19.174,25.952c-0.609,0.766-0.609,0.871-0.609,1.228c0,0.97,0.458,0.97,1.782,0.97   h22.694l1.168-12.852h-1.73c-0.612,8.107-2.041,11.115-10.047,11.115h-8.109L454.371,99.939"
   id="path58" />
	<path
   d="M465.639,111.616h19.173c1.532,0,1.733,0,1.733-1.428c0-6.779-3.724-13.461-12.29-13.461   c-8.004,0-14.325,7.087-14.325,15.656c0,9.229,7.237,15.908,15.144,15.908c8.362,0,11.472-7.649,11.472-8.973   c0-0.666-0.562-0.818-0.867-0.818c-0.662,0-0.766,0.409-0.919,0.97c-2.394,7.088-8.616,7.088-9.277,7.088   c-3.418,0-6.169-2.038-7.753-4.592C465.639,118.651,465.639,114.114,465.639,111.616 M465.69,110.188   c0.457-10.248,6.222-11.981,8.564-11.981c7.087,0,7.753,9.281,7.753,11.981H465.69z"
   id="path60" />
	<path
   d="M496.235,103.866v18.403c0,3.113-0.77,3.113-5.41,3.113v2.145c2.446-0.052,5.916-0.205,7.804-0.205   c1.786,0,5.353,0.153,7.699,0.205v-2.145c-4.589,0-5.352,0-5.352-3.113v-12.643c0-7.137,4.842-11.012,9.278-11.012   c4.335,0,5.098,3.719,5.098,7.646v16.009c0,3.113-0.763,3.113-5.406,3.113v2.145c2.449-0.052,5.917-0.205,7.802-0.205   c1.789,0,5.354,0.153,7.7,0.205v-2.145c-3.568,0-5.302,0-5.354-2.038v-13.157c0-5.913,0-8.059-2.142-10.505   c-0.967-1.168-3.262-2.547-7.24-2.547c-4.994,0-8.259,2.957-10.148,7.188v-7.188l-9.738,0.766v2.09   C495.674,99.991,496.235,100.5,496.235,103.866"
   id="path62" />
	<path
   d="M539.212,85.154c0-2.194-1.729-3.622-3.666-3.622c-2.144,0-3.619,1.837-3.619,3.622c0,1.886,1.476,3.67,3.619,3.67   C537.483,88.824,539.212,87.348,539.212,85.154 M538.91,97.135l-9.635,0.766v2.09c4.484,0,5.098,0.457,5.098,3.822v18.456   c0,3.113-0.717,3.113-5.354,3.113v2.145c2.191-0.052,5.916-0.205,7.546-0.205c2.449,0,4.845,0.153,7.188,0.205v-2.145   c-4.54,0-4.842-0.357-4.842-3.008V97.135z"
   id="path64" />
	<path
   d="M557.622,99.991h9.841v-2.09h-9.841V85.206h-1.731c-0.053,5.66-2.142,13-8.873,13.309v1.477h5.86v19.017   c0,8.467,6.374,9.282,8.876,9.282c4.842,0,6.783-4.894,6.783-9.282v-3.927h-1.736v3.774c0,5.102-2.038,7.701-4.592,7.701   c-4.587,0-4.587-6.273-4.587-7.444V99.991"
   id="path66" />
	<path
   d="M580.11,122.27c0,3.113-0.768,3.113-5.407,3.113v2.145c2.45-0.052,5.916-0.205,7.801-0.205   c1.789,0,5.359,0.153,7.702,0.205v-2.145c-4.646,0-5.353,0-5.353-3.113v-12.643c0-7.137,4.842-11.012,9.278-11.012   c4.33,0,5.043,3.719,5.043,7.646v16.009c0,3.113-0.713,3.113-5.348,3.113v2.145c2.443-0.052,5.913-0.205,7.798-0.205   c1.786,0,5.355,0.153,7.702,0.205v-2.145c-3.57,0-5.304,0-5.354-2.038v-13.157c0-5.913,0-8.059-2.146-10.505   c-0.963-1.168-3.261-2.547-7.232-2.547c-5.767,0-8.824,4.131-9.944,6.731V79.799l-9.946,0.766v2.138   c4.844,0,5.407,0.461,5.407,3.827V122.27"
   id="path68" />
</g>
<path
   d="M43.162,560.75c0.578-2.411,1.695-4.24,6.518-4.417c0.265,0,0.981-0.091,0.981-1.206c0-0.092,0-0.669-0.761-0.669  c-2.005,0-4.104,0.177-6.069,0.177c-2.052,0-4.152-0.177-6.16-0.177c-0.357,0-1.07,0-1.07,1.206c0,0.669,0.581,0.669,1.07,0.669  c3.438,0.041,4.108,1.291,4.108,2.633c0,0.178-0.136,1.069-0.18,1.245l-6.738,26.784l-13.303-31.423  c-0.489-1.07-0.534-1.114-1.919-1.114H11.56c-1.2,0-1.739,0-1.739,1.206c0,0.669,0.539,0.669,1.655,0.669  c0.309,0,4.101,0,4.101,0.531l-8.077,32.318c-0.581,2.409-1.607,4.325-6.473,4.508c-0.357,0-1.026,0.042-1.026,1.203  c0,0.448,0.312,0.67,0.761,0.67c1.963,0,4.061-0.18,6.024-0.18c2.052,0,4.241,0.18,6.202,0.18c0.312,0,1.073,0,1.073-1.203  c0-0.628-0.534-0.67-1.206-0.67c-3.479-0.136-3.969-1.427-3.969-2.634c0-0.447,0.086-0.716,0.269-1.386l7.941-31.777  c0.224,0.359,0.224,0.445,0.537,1.072l14.996,35.439c0.401,1.024,0.582,1.158,1.118,1.158c0.669,0,0.669-0.18,0.979-1.251  L43.162,560.75"
   id="path72" />
<path
   d="m 729.79802,513.68629 c -20.317,10.914 -21.448,24.004 -21.448,26.49 0,7.673 7.523,12.56 17.162,12.56 16.917,0 30.539,-16.022 30.539,-18.137 0,-0.596 -0.524,-0.749 -1.044,-0.749 -1.216,0 -5.047,1.352 -7.38,4.513 -2.104,2.938 -6.393,8.813 -15.423,8.813 -7.219,0 -15.198,-3.767 -15.198,-11.368 0,-4.96 5.644,-20.015 21.667,-20.611 4.824,-0.236 8.354,-3.768 8.354,-4.887 0,-0.604 -0.521,-0.687 -1.05,-0.687 -14.303,-0.6 -17.154,-7.601 -17.154,-11.656 0,-2.338 1.577,-13.399 15.796,-13.399 1.888,0 9.628,0.312 9.628,5.566 0,1.582 -0.832,3.012 -1.275,3.612 -0.153,0.302 -0.443,0.828 -0.443,1.133 0,0.75 0.663,0.75 0.964,0.75 3.091,0 9.336,-3.983 9.336,-9.778 0,-5.94 -6.999,-6.849 -11.516,-6.849 -13.84,0 -31.07,10.907 -31.07,23.325 -0.002,5.945 4.513,9.637 9.555,11.359"
   id="path74"
   inkscape:connector-curvature="0"
   style="fill:#0000ff;fill-opacity:1"
   inkscape:export-xdpi="96"
   inkscape:export-ydpi="96" />
<g
   id="g86">
	<path
   d="M449.833,1064.092v18.425c0,3.112-0.763,3.112-5.359,3.112v2.148c2.398-0.056,5.92-0.208,7.757-0.208   c1.788,0,5.365,0.152,7.708,0.208v-2.148c-4.589,0-5.357,0-5.357-3.112v-12.658c0-7.146,4.899-11.021,9.288-11.021   c4.339,0,5.108,3.723,5.108,7.652v16.027c0,3.112-0.77,3.112-5.365,3.112v2.148c2.398-0.056,5.927-0.208,7.764-0.208   c1.781,0,5.359,0.152,7.702,0.208v-2.148c-3.57,0-5.304,0-5.353-2.038v-13.171c0-5.919,0-8.061-2.148-10.516   c-0.971-1.171-3.216-2.55-7.25-2.55c-4.998,0-8.216,2.96-10.156,7.194v-7.194l-9.697,0.763v2.094   C449.271,1060.211,449.833,1060.723,449.833,1064.092"
   id="path76" />
	<path
   d="M502.867,1071.238v6.89c0,6.529-5.005,8.88-8.062,8.88c-3.369,0-6.231-2.398-6.231-5.871   C488.574,1077.359,491.485,1071.647,502.867,1071.238 M503.325,1082.517c0.257,2.76,2.148,5.671,5.365,5.671   c1.477,0,5.662-0.972,5.662-6.537v-3.883h-1.739v3.883c0,3.979-1.733,4.388-2.446,4.388c-2.295,0-2.552-3.057-2.552-3.417v-13.781   c0-2.911,0-5.566-2.503-8.117c-2.703-2.703-6.12-3.777-9.441-3.777c-5.614,0-10.362,3.216-10.362,7.757   c0,2.094,1.379,3.216,3.168,3.216c1.885,0,3.161-1.323,3.161-3.16c0-0.818-0.354-3.064-3.521-3.168   c1.837-2.398,5.206-3.161,7.451-3.161c3.369,0,7.3,2.703,7.3,8.823v2.559c-3.522,0.201-8.374,0.408-12.707,2.446   c-5.156,2.351-6.84,5.921-6.84,8.983c0,5.566,6.633,7.3,10.972,7.3C498.833,1088.54,502,1085.782,503.325,1082.517z"
   id="path78" />
	<path
   d="M541.049,1065.521v14.14c0,1.228,0,1.379-0.714,2.552c-2.094,3.264-5.206,4.796-8.167,4.796   c-3.064,0-5.566-1.787-7.202-4.387c-1.781-2.808-1.99-6.738-1.99-9.595c0-2.557,0.105-6.641,2.149-9.753   c1.429-2.142,4.033-4.437,7.757-4.437c2.4,0,5.312,1.067,7.453,4.132C541.049,1064.141,541.049,1064.293,541.049,1065.521    M541.049,1084v4.54l10.156-0.763v-2.148c-4.847,0-5.407-0.458-5.407-3.827v-41.805l-9.906,0.77v2.142   c4.853,0,5.358,0.458,5.358,3.826v14.855c-1.989-2.448-4.949-4.235-8.674-4.235c-8.116,0-15.312,6.737-15.312,15.617   c0,8.727,6.738,15.568,14.6,15.568C536.253,1088.54,539.365,1086.19,541.049,1084z"
   id="path80" />
	<path
   d="M565.498,1045.354c0-2.189-1.686-3.618-3.619-3.618c-2.148,0-3.681,1.837-3.681,3.618c0,1.893,1.532,3.682,3.681,3.682   C563.812,1049.036,565.498,1047.554,565.498,1045.354 M565.241,1057.354l-9.643,0.763v2.094c4.484,0,5.102,0.463,5.102,3.832   v18.474c0,3.112-0.769,3.112-5.358,3.112v2.148c2.191-0.056,5.921-0.208,7.557-0.208c2.398,0,4.845,0.152,7.146,0.208v-2.148   c-4.547,0-4.804-0.353-4.804-3.008V1057.354z"
   id="path82" />
	<path
   d="M583.721,1064.909v-7.555l-9.544,0.763v2.094c4.796,0,5.357,0.512,5.357,3.881v18.425c0,3.112-0.763,3.112-5.357,3.112   v2.148c2.654-0.056,5.919-0.208,7.811-0.208c2.753,0,6.024,0,8.777,0.208v-2.148h-1.478c-5.108,0-5.206-0.763-5.206-3.209v-10.621   c0-6.784,2.856-12.962,8.117-12.962c0.451,0,0.609,0,0.763,0.098c-0.208,0.056-1.58,0.874-1.58,2.655   c0,1.94,1.427,2.959,2.96,2.959c1.22,0,2.959-0.817,2.959-3.009c0-2.197-2.148-4.186-5.102-4.186   C587.139,1057.354,584.69,1061.95,583.721,1064.909"
   id="path84" />
</g>
<path
   fill="none"
   stroke="#000000"
   stroke-width="3.5491"
   d="M519.635,1031.132c-40.114,0-72.63-198.609-72.63-443.62  c0-244.998,32.516-443.606,72.63-443.606"
   id="path88" />
<line
   fill="none"
   stroke="#000000"
   stroke-width="3.5491"
   x1="974.623"
   y1="572.11"
   x2="66.036"
   y2="572.11"
   id="line90" />
<g
   id="g142">
	<defs
   id="defs93">
		<rect
   id="SVGID_1_"
   x="130.211"
   y="9.263"
   width="780.321"
   height="48.306" />
	</defs>
	<clipPath
   id="SVGID_2_">
		<use
   xlink:href="#SVGID_1_"
   overflow="visible"
   id="use95" />
	</clipPath>
	<g
   clip-path="url(#SVGID_2_)"
   id="g140">
		<path
   d="M179.313,53.04h7.197v3.132c-2.532-0.2-9.062-0.2-11.928-0.2s-9.396,0-11.928,0.2V53.04h7.196V33.982h-21.39V53.04h7.196    v3.132c-2.532-0.2-9.062-0.2-11.928-0.2s-9.396,0-11.928,0.2V53.04h7.196V13.592h-7.196V10.46c2.532,0.2,9.062,0.2,11.928,0.2    s9.396,0,11.928-0.2v3.132h-7.196v17.259h21.39V13.592h-7.196V10.46c2.532,0.2,9.062,0.2,11.928,0.2s9.396,0,11.928-0.2v3.132    h-7.197V53.04z"
   id="path98" />
		<path
   d="M208.299,56.572c-11.128,0-16.991-6.664-16.991-14.926c0-8.863,6.063-15.659,16.991-15.659    c10.861,0,16.992,6.73,16.992,15.659C225.291,49.841,219.494,56.572,208.299,56.572z M216.762,40.913c0-3.199,0-6.864-1.399-9.129    c-1.466-2.332-4.265-3.398-7.063-3.398c-3.265,0-6.063,1.399-7.33,3.865c-1.132,2.266-1.132,5.664-1.132,8.663    c0,5.797,0,12.994,8.462,12.994C216.762,53.906,216.762,46.709,216.762,40.913z"
   id="path100" />
		<path
   d="M249.879,26.186c3.465,0,7.063,1.933,7.063,5.464c0,2.666-2.133,4.065-4.065,4.065s-4.064-1.333-4.064-4.065    c0-1.932,1.199-2.999,1.266-3.065c-6.663,0-8.329,8.129-8.329,12.794V53.04h5.798v3.132c-2.399-0.2-6.664-0.2-9.196-0.2    c-3.065,0-6.063,0.133-8.396,0.2V53.04h4.598V32.45c0-2.599-0.467-2.599-4.598-2.599v-3.132l11.062-0.533v7.53    C242.549,29.518,245.214,26.186,249.879,26.186z"
   id="path102" />
		<path
   d="M273.933,53.04h4.132v3.132c-2.398-0.066-5.797-0.2-7.796-0.2c-2.799,0-6.064,0.133-8.13,0.2V53.04h4.598V32.45    c0-2.599-0.466-2.599-4.397-2.599v-3.132l11.594-0.533V53.04z M269.402,20.255c-2.866,0-5.198-2.332-5.198-5.197    s2.332-5.198,5.198-5.198c2.798,0,5.197,2.266,5.197,5.198C274.6,17.99,272.2,20.255,269.402,20.255z"
   id="path104" />
		<path
   d="M291.724,53.506h5.73c8.796,0,9.862-4.064,10.462-10.795h3.132l-1.199,13.46h-25.321c-1.266,0-2.132,0-2.132-1.466    c0-0.6,0-0.733,0.6-1.466l18.591-24.255h-5.664c-6.863,0-8.929,2.399-9.329,9.262h-3.132l0.8-11.661h24.455    c1.199,0,2.133,0,2.133,1.399c0,0.6-0.134,0.733-0.667,1.466L291.724,53.506z"
   id="path106" />
		<path
   d="M333.436,56.572c-11.128,0-16.991-6.664-16.991-14.926c0-8.863,6.063-15.659,16.991-15.659    c10.861,0,16.992,6.73,16.992,15.659C350.428,49.841,344.631,56.572,333.436,56.572z M341.898,40.913c0-3.199,0-6.864-1.399-9.129    c-1.466-2.332-4.265-3.398-7.063-3.398c-3.265,0-6.063,1.399-7.33,3.865c-1.132,2.266-1.132,5.664-1.132,8.663    c0,5.797,0,12.994,8.462,12.994C341.898,53.906,341.898,46.709,341.898,40.913z"
   id="path108" />
		<path
   d="M355.625,29.851v-3.132l11.461-0.533v7.197c1.732-3.398,5.264-7.197,11.661-7.197c6.663,0,10.262,2.599,10.262,9.596    V53.04h4.598v3.132c-1.865-0.066-5.797-0.2-8.396-0.2c-2.532,0-6.53,0.133-8.396,0.2V53.04h4.598V35.048    c0-5.064-1.399-6.463-3.665-6.463c-4.197,0-9.929,3.265-9.929,10.528V53.04h4.599v3.132c-1.866-0.066-5.798-0.2-8.396-0.2    c-2.532,0-6.53,0.133-8.396,0.2V53.04h4.598V32.45C360.223,29.851,359.756,29.851,355.625,29.851z"
   id="path110" />
		<path
   d="M394.472,29.718v-2.399c6.597-0.2,9.862-6.797,9.929-13.46h3.132v12.728h9.729v3.132h-9.729v18.391    c0,1.533,0,5.797,3.864,5.797c1.866,0,3.999-1.599,3.999-6.13v-3.398h3.132v3.532c0,4.864-2.999,8.663-8.063,8.663    c-4.73,0-10.528-1.466-10.528-8.596V29.718H394.472z"
   id="path112" />
		<path
   d="M437.851,56.572c-4.598,0-12.861-1.2-12.861-7.597c0-9.662,16.926-10.262,21.657-10.461v-2.266    c0-5.064-2.333-7.863-7.33-7.863c-0.8,0-2.932,0.066-4.798,0.466c0.2,0.133,1.466,1.266,1.466,3.265    c0,2.798-2.132,4.198-4.198,4.198c-1.799,0-4.131-1.266-4.131-4.198c0-5.864,8.129-6.13,11.928-6.13    c9.929,0,14.659,4.331,14.659,10.262v14.327c0,1.532,0,2.398,4.065,2.465c0.866,0,1.732,0,1.732,1.533    c0,1.599-0.8,1.599-2.133,1.599h-3.198c-6.93,0-6.93-3.065-6.93-5.131C446.313,53.84,443.181,56.572,437.851,56.572z     M432.786,48.909c0,2.932,2.665,5.264,6.063,5.264c1.666,0,7.797-0.866,7.797-7.263v-6.331    C443.314,40.779,432.786,41.712,432.786,48.909z"
   id="path114" />
		<path
   d="M475.032,53.04h4.598v3.132c-2.266-0.066-5.331-0.2-8.196-0.2s-6.063,0.133-8.196,0.2V53.04h4.598V16.191    c0-2.599-0.466-2.599-4.598-2.599V10.46l11.795-0.533V53.04z"
   id="path116" />
		<path
   d="M557.991,25.919c0,1.732-0.067,1.866-1.8,1.866c-1.532,0-1.599-0.133-1.799-1.399    c-1.466-8.462-7.797-13.527-14.993-13.527c-3.465,0-9.262,0.733-13.594,5.131c-4.197,4.398-4.397,11.595-4.397,15.326    c0,5.997,0.8,10.995,3.932,14.793c3.465,4.065,9.062,5.664,14.26,5.664c6.73,0,14.793-4.064,15.26-12.994    c0.066-1.133,0.666-1.133,1.532-1.133c1.133,0,1.6,0.066,1.6,1.399c0,7.663-7.53,15.859-19.991,15.859    c-16.592,0-26.787-9.929-26.787-23.589S521.408,9.727,538,9.727c4.531,0,8.996,1.2,13.127,4.531l4.398-3.932    c0.533-0.466,0.666-0.6,1.266-0.6c1.2,0,1.2,0.6,1.2,1.866V25.919z"
   id="path118" />
		<path
   d="M581.379,56.572c-11.128,0-16.991-6.664-16.991-14.926c0-8.863,6.063-15.659,16.991-15.659    c10.861,0,16.992,6.73,16.992,15.659C598.371,49.841,592.574,56.572,581.379,56.572z M589.842,40.913c0-3.199,0-6.864-1.399-9.129    c-1.466-2.332-4.265-3.398-7.063-3.398c-3.265,0-6.063,1.399-7.33,3.865c-1.132,2.266-1.132,5.664-1.132,8.663    c0,5.797,0,12.994,8.462,12.994C589.842,53.906,589.842,46.709,589.842,40.913z"
   id="path120" />
		<path
   d="M621.692,56.572c-11.128,0-16.992-6.664-16.992-14.926c0-8.863,6.064-15.659,16.992-15.659    c10.861,0,16.992,6.73,16.992,15.659C638.685,49.841,632.888,56.572,621.692,56.572z M630.155,40.913c0-3.199,0-6.864-1.399-9.129    c-1.466-2.332-4.265-3.398-7.063-3.398c-3.265,0-6.063,1.399-7.33,3.865c-1.133,2.266-1.133,5.664-1.133,8.663    c0,5.797,0,12.994,8.463,12.994S630.155,46.709,630.155,40.913z"
   id="path122" />
		<path
   d="M663.272,26.186c3.465,0,7.063,1.933,7.063,5.464c0,2.666-2.133,4.065-4.065,4.065c-1.932,0-4.064-1.333-4.064-4.065    c0-1.932,1.199-2.999,1.266-3.065c-6.663,0-8.329,8.129-8.329,12.794V53.04h5.798v3.132c-2.399-0.2-6.664-0.2-9.196-0.2    c-3.065,0-6.063,0.133-8.396,0.2V53.04h4.598V32.45c0-2.599-0.467-2.599-4.598-2.599v-3.132l11.062-0.533v7.53    C655.942,29.518,658.607,26.186,663.272,26.186z"
   id="path124" />
		<path
   d="M690.925,56.572c-9.862,0-15.992-6.331-15.992-15.126c0-9.396,6.997-15.259,16.726-15.259c2.198,0,5.664,0.4,8.995,2.999    V16.191c0-2.599-0.466-2.599-4.598-2.599V10.46l11.795-0.533v40.514c0,2.599,0.466,2.599,4.598,2.599v3.132l-12.194,0.4v-3.265    C698.188,54.973,694.989,56.572,690.925,56.572z M692.324,28.585c-2.065,0-5.197,0.667-7.13,3.465    c-1.732,2.599-1.732,6.197-1.732,9.396c0,4.665,0,12.728,8.129,12.728c5.064,0,7.797-3.665,8.663-4.864V32.65    C698.788,30.717,696.122,28.585,692.324,28.585z"
   id="path126" />
		<path
   d="M729.839,53.04h4.131v3.132c-2.398-0.066-5.797-0.2-7.796-0.2c-2.799,0-6.064,0.133-8.13,0.2V53.04h4.598V32.45    c0-2.599-0.466-2.599-4.397-2.599v-3.132l11.595-0.533V53.04z M725.308,20.255c-2.866,0-5.198-2.332-5.198-5.197    s2.332-5.198,5.198-5.198c2.798,0,5.197,2.266,5.197,5.198C730.505,17.99,728.105,20.255,725.308,20.255z"
   id="path128" />
		<path
   d="M739.233,29.851v-3.132l11.461-0.533v7.197c1.732-3.398,5.264-7.197,11.661-7.197c6.663,0,10.262,2.599,10.262,9.596    V53.04h4.598v3.132c-1.865-0.066-5.797-0.2-8.396-0.2c-2.532,0-6.53,0.133-8.396,0.2V53.04h4.598V35.048    c0-5.064-1.399-6.463-3.665-6.463c-4.197,0-9.929,3.265-9.929,10.528V53.04h4.599v3.132c-1.866-0.066-5.798-0.2-8.396-0.2    c-2.532,0-6.53,0.133-8.396,0.2V53.04h4.598V32.45C743.831,29.851,743.364,29.851,739.233,29.851z"
   id="path130" />
		<path
   d="M793.739,56.572c-4.598,0-12.861-1.2-12.861-7.597c0-9.662,16.926-10.262,21.657-10.461v-2.266    c0-5.064-2.333-7.863-7.33-7.863c-0.8,0-2.932,0.066-4.798,0.466c0.2,0.133,1.466,1.266,1.466,3.265    c0,2.798-2.132,4.198-4.198,4.198c-1.799,0-4.131-1.266-4.131-4.198c0-5.864,8.129-6.13,11.928-6.13    c9.929,0,14.659,4.331,14.659,10.262v14.327c0,1.532,0,2.398,4.065,2.465c0.866,0,1.732,0,1.732,1.533    c0,1.599-0.8,1.599-2.133,1.599h-3.198c-6.93,0-6.93-3.065-6.93-5.131C802.202,53.84,799.069,56.572,793.739,56.572z     M788.675,48.909c0,2.932,2.665,5.264,6.063,5.264c1.666,0,7.797-0.866,7.797-7.263v-6.331    C799.203,40.779,788.675,41.712,788.675,48.909z"
   id="path132" />
		<path
   d="M817.46,29.718v-2.399c6.597-0.2,9.862-6.797,9.929-13.46h3.132v12.728h9.729v3.132h-9.729v18.391    c0,1.533,0,5.797,3.864,5.797c1.866,0,3.999-1.599,3.999-6.13v-3.398h3.132v3.532c0,4.864-2.999,8.663-8.063,8.663    c-4.73,0-10.528-1.466-10.528-8.596V29.718H817.46z"
   id="path134" />
		<path
   d="M856.507,41.646c0,3.398,0.067,12.261,9.463,12.261c4.331,0,8.129-2.132,9.528-5.331c0.4-1.066,0.533-1.399,1.666-1.399    c0.333,0,1.6,0,1.6,1.199c0,1.133-2.865,8.196-13.394,8.196c-10.729,0-17.393-6.464-17.393-15.393    c0-8.33,5.798-15.193,16.459-15.193c4.599,0,8.13,1.199,10.596,3.598c3.331,3.332,3.731,8.196,3.731,10.262    c0,1.799-0.667,1.799-2.133,1.799H856.507z M872.434,39.446c-0.067-2.332-0.2-11.061-7.997-11.061    c-1.932,0-4.598,0.799-6.33,3.465c-1.399,2.199-1.466,4.998-1.6,7.596H872.434z"
   id="path136" />
		<path
   d="M904.95,39.78c2.333,1.866,3.665,4.198,3.665,7.063c0,9.729-10.262,9.729-12.327,9.729c-1.333,0-4.798,0-7.863-2.132    c-0.199,0.133-1.666,1.133-1.732,1.133c-1.399,1-1.532,1-1.999,1c-1.199,0-1.199-0.6-1.199-1.866v-7.263    c0-1.533,0-1.933,1.6-1.933c0.933,0,1.266,0,1.599,0.933c0.8,2.865,2.532,7.729,9.596,7.729c1.466,0,7.597,0,7.597-4.998    c0-3.932-4.998-4.798-7.396-5.198c-5.131-0.933-7.663-1.333-10.329-3.665c-1.332-1.133-2.665-2.932-2.665-5.597    c0-8.729,10.262-8.729,12.261-8.729c2.665,0,4.998,0.399,6.73,1.266c2.599-1.266,2.731-1.266,2.998-1.266    c1.199,0,1.199,0.6,1.199,1.866v5.331c0,1.533,0,1.866-1.599,1.866c-1.399,0-1.466-0.333-1.533-1.333    c-0.333-3.665-2.865-5.597-7.862-5.597c-1.267,0-7.463,0-7.463,4.131c0,3.132,4.331,3.865,6.796,4.331    C900.22,37.447,902.352,37.847,904.95,39.78z"
   id="path138" />
	</g>
</g>
<path
   fill="none"
   stroke="#FF0000"
   stroke-width="7.0981"
   stroke-linejoin="round"
   d="M66.036,572.11  c-9.78,69.354,202.471,121.61,453.372,121.61c57.118,0,111.775-2.674,162.127-7.674l-160.65-112.946L66.036,572.11z"
   id="path144" />
<path
   d="M666.95,378.088c18.002,91.751,22.653,202.712,14.584,307.959"
   id="path146"
   stroke-width="7.0981"
   stroke="#0000FF"
   fill="none" />
<g
   id="g166">
	<defs
   id="defs149">
		<rect
   id="SVGID_3_"
   x="622.587"
   y="333.725"
   width="88.728"
   height="88.727" />
	</defs>
	<clipPath
   id="SVGID_4_">
		<use
   xlink:href="#SVGID_3_"
   overflow="visible"
   id="use151" />
	</clipPath>
	<g
   clip-path="url(#SVGID_4_)"
   id="g164">
		<defs
   id="defs155">
			<rect
   id="SVGID_5_"
   x="622.587"
   y="333.725"
   width="88.728"
   height="88.727" />
		</defs>
		<clipPath
   id="SVGID_6_">
			<use
   xlink:href="#SVGID_5_"
   overflow="visible"
   id="use157" />
		</clipPath>
		<polygon
   clip-path="url(#SVGID_6_)"
   fill="#FFFF00"
   points="701.582,395.362 681.646,395.848 679.413,415.658 664.981,401.906     649.4,414.341 648.914,394.407 629.104,392.174 642.855,377.739 630.42,362.146 650.356,361.674 652.588,341.85 667.02,355.616     682.604,343.166 683.087,363.101 702.898,365.331 689.146,379.781   "
   id="polygon160" />
		<polygon
   clip-path="url(#SVGID_6_)"
   fill="none"
   stroke="#0000FF"
   stroke-width="5.3236"
   points="701.582,395.362     681.646,395.848 679.413,415.658 664.981,401.906 649.4,414.341 648.914,394.407 629.104,392.174 642.855,377.739 630.42,362.146     650.356,361.674 652.588,341.85 667.02,355.616 682.604,343.166 683.087,363.101 702.898,365.331 689.146,379.781   "
   id="polygon162" />
	</g>
</g>
</svg>