<?xml version="1.0" encoding="utf-8"?>
<!-- Generator: Adobe Illustrator 16.0.0, SVG Export Plug-In . SVG Version: 6.00 Build 0)  -->
<!DOCTYPE svg PUBLIC "-//W3C//DTD SVG 1.1//EN" "http://www.w3.org/Graphics/SVG/1.1/DTD/svg11.dtd">
<svg version="1.1" id="Calque_1" xmlns="http://www.w3.org/2000/svg" xmlns:xlink="http://www.w3.org/1999/xlink" x="0px" y="0px"
	 width="289.594px" height="349.735px" viewBox="0 0 289.594 349.735" enable-background="new 0 0 289.594 349.735"
	 xml:space="preserve">
<g>
	<defs>
		<rect id="SVGID_1_" x="71.777" y="97.53" width="98" height="99"/>
	</defs>
	<clipPath id="SVGID_2_">
		<use xlink:href="#SVGID_1_"  overflow="visible"/>
	</clipPath>
	<g clip-path="url(#SVGID_2_)">
		<defs>
			<rect id="SVGID_3_" x="71.777" y="97.53" width="98" height="99"/>
		</defs>
		<clipPath id="SVGID_4_">
			<use xlink:href="#SVGID_3_"  overflow="visible"/>
		</clipPath>
		<path clip-path="url(#SVGID_4_)" fill="none" stroke="#000000" stroke-width="0.75" d="M168.411,98.838
			c-20.189,31.68-60.329,72.047-96.055,96.594"/>
		<polygon clip-path="url(#SVGID_4_)" fill-rule="evenodd" clip-rule="evenodd" points="164.394,105.139 165.352,109.241 
			168.41,98.838 160.227,106.08 		"/>
		<polygon clip-path="url(#SVGID_4_)" fill="none" stroke="#000000" stroke-width="0.8" points="164.394,105.139 165.352,109.241 
			168.41,98.838 160.227,106.08 		"/>
	</g>
</g>
<g opacity="0.5">
	<defs>
		<rect id="SVGID_5_" x="16.777" y="146.53" opacity="0.5" width="258" height="68"/>
	</defs>
	<clipPath id="SVGID_6_">
		<use xlink:href="#SVGID_5_"  overflow="visible"/>
	</clipPath>
	<g clip-path="url(#SVGID_6_)">
		<defs>
			<rect id="SVGID_7_" x="16.777" y="146.53" width="258" height="68"/>
		</defs>
		<clipPath id="SVGID_8_">
			<use xlink:href="#SVGID_7_"  overflow="visible"/>
		</clipPath>
		<path clip-path="url(#SVGID_8_)" fill="#0000FE" d="M273.906,180.698c0,18.37-57.309,33.266-128.004,33.266
			c-70.695,0-128.003-14.896-128.003-33.266c0-18.375,57.309-33.271,128.003-33.271
			C216.598,147.428,273.906,162.323,273.906,180.698z"/>
	</g>
</g>
<g opacity="0.5">
	<defs>
		<rect id="SVGID_9_" x="50.777" y="90.53" opacity="0.5" width="187" height="183"/>
	</defs>
	<clipPath id="SVGID_10_">
		<use xlink:href="#SVGID_9_"  overflow="visible"/>
	</clipPath>
	<g clip-path="url(#SVGID_10_)">
		<defs>
			<rect id="SVGID_11_" x="50.777" y="90.53" width="187" height="183"/>
		</defs>
		<clipPath id="SVGID_12_">
			<use xlink:href="#SVGID_11_"  overflow="visible"/>
		</clipPath>
		<path clip-path="url(#SVGID_12_)" fill="#FF0005" d="M234.621,93.776c11.992,12.281-18.755,61.754-68.677,110.496
			c-49.921,48.747-100.109,78.305-112.105,66.024c-11.992-12.285,18.755-61.754,68.677-110.5
			C172.438,111.049,222.626,81.491,234.621,93.776z"/>
	</g>
</g>
<path fill="none" stroke="#000000" stroke-width="0.75" d="M274.574,184.038c0,69.035-57.461,124.996-128.34,124.996
	c-70.878,0-128.335-55.961-128.335-124.996c0-69.031,57.457-124.992,128.335-124.992
	C217.113,59.046,274.574,115.007,274.574,184.038z"/>
<path fill="none" stroke="#000000" stroke-width="0.75" d="M146.234,59.046c0,249.988,0,249.988,0,249.988"/>
<path fill="none" stroke="#000000" stroke-width="0.75" d="M156.41,214.073c-20.254-65.336-20.867-66.652-20.867-66.652"/>
<path fill="none" stroke="#000000" stroke-width="0.75" d="M66.691,85.78c163.098,193.844,162.285,193.812,162.285,193.812"/>
<path fill="none" stroke="#000000" stroke-width="0.75" stroke-dasharray="0.75,1.5" d="M121.759,263.084
	c-37.853-39.267-66.13-90.464-69.396-128.621c-3.27-38.156,16.14-60.652,50.781-58.86c34.641,1.797,78.479,26.897,115.769,66.815"/>
<ellipse fill-rule="evenodd" clip-rule="evenodd" fill="#FF0000" cx="110.14" cy="250.55" rx="2.672" ry="2.339"/>
<ellipse fill="none" stroke="#000000" stroke-width="0.75" cx="110.14" cy="250.55" rx="2.672" ry="2.339"/>
<g>
	<defs>
		<rect id="SVGID_13_" x="167.777" y="62.53" width="14" height="39"/>
	</defs>
	<clipPath id="SVGID_14_">
		<use xlink:href="#SVGID_13_"  overflow="visible"/>
	</clipPath>
	<g clip-path="url(#SVGID_14_)">
		<defs>
			<rect id="SVGID_15_" x="167.777" y="62.53" width="14" height="39"/>
		</defs>
		<clipPath id="SVGID_16_">
			<use xlink:href="#SVGID_15_"  overflow="visible"/>
		</clipPath>
		<path clip-path="url(#SVGID_16_)" fill="none" stroke="#000000" stroke-width="0.75" d="M178.824,63.276
			c5.066,5.105,1.383,18.191-10.212,36.277"/>
		<polygon clip-path="url(#SVGID_16_)" fill-rule="evenodd" clip-rule="evenodd" points="172.649,93.26 171.703,89.158 
			168.613,99.554 176.82,92.331 		"/>
		<polygon clip-path="url(#SVGID_16_)" fill="none" stroke="#000000" stroke-width="0.8" points="172.649,93.26 171.703,89.158 
			168.613,99.554 176.82,92.331 		"/>
	</g>
</g>
<g>
	<path d="M34.932,65.805c-0.17-0.226-0.184-0.254-0.552-0.254h-3.233v0.594h0.551c0.283,0,0.663,0.014,0.946,0.042
		c0.438,0.057,0.466,0.07,0.466,0.438v9.942c0,0.509,0,1.413-1.963,1.413v0.579c0.664-0.015,1.596-0.057,2.231-0.057
		c0.621,0,1.554,0.042,2.218,0.057V77.98c-1.95,0-1.95-0.904-1.95-1.413v-9.914c0.085,0.099,0.113,0.127,0.184,0.24l7.769,11.425
		c0.169,0.227,0.198,0.241,0.324,0.241c0.269,0,0.269-0.128,0.269-0.495V67.557c0-0.523,0-1.412,1.963-1.412v-0.594
		c-0.663,0.028-1.596,0.057-2.231,0.057c-0.622,0-1.553-0.028-2.231-0.057v0.594c1.963,0,1.963,0.889,1.963,1.412v8.135
		L34.932,65.805"/>
	<path d="M45.848,72.048c0,3.939,3.094,6.934,6.624,6.934c3.108,0,4.972-2.641,4.972-4.858c0-0.183,0-0.324-0.24-0.324
		c-0.211,0-0.211,0.112-0.227,0.311c-0.154,2.726-2.188,4.279-4.265,4.279c-1.173,0-4.9-0.649-4.9-6.327
		c0-5.691,3.714-6.342,4.872-6.342c2.076,0,3.771,1.737,4.152,4.521c0.043,0.268,0.043,0.324,0.311,0.324
		c0.297,0,0.297-0.057,0.297-0.452v-4.52c0-0.324,0-0.451-0.197-0.451c-0.084,0-0.156,0-0.311,0.226l-0.947,1.412
		c-0.705-0.692-1.68-1.638-3.517-1.638C48.913,65.142,45.848,68.165,45.848,72.048"/>
	<path d="M62.783,72.048v-5.142c0-0.635,0.041-0.762,0.932-0.762h1.695c3.035,0,3.035,2.02,3.035,2.951c0,0.903,0,2.952-3.035,2.952
		H62.783 M62.838,72.542h3.221c2.287,0,4.35-1.54,4.35-3.446c0-1.864-1.893-3.545-4.504-3.545h-6.723v0.594h0.465
		c1.469,0,1.498,0.212,1.498,0.889v10.042c0,0.692-0.029,0.904-1.498,0.904h-0.465v0.579c0.676-0.057,2.074-0.057,2.809-0.057
		c0.723,0,2.146,0,2.811,0.057V77.98H64.35c-1.469,0-1.512-0.212-1.512-0.904V72.542z"/>
</g>
<path d="M132.981,136.854c0.043-0.1,0.098-0.227,0.098-0.27c0-0.014,0-0.211-0.225-0.211c-0.184,0-0.213,0.127-0.254,0.24
	c-1.244,2.811-1.949,4.096-5.197,4.096h-2.783c-0.268,0-0.311,0-0.424-0.029c-0.184-0.014-0.24-0.027-0.24-0.184
	c0-0.057,0-0.098,0.086-0.438l1.299-5.197h1.893c1.609,0,1.609,0.396,1.609,0.877c0,0.125,0,0.352-0.127,0.932
	c-0.041,0.084-0.057,0.141-0.057,0.197c0,0.1,0.07,0.211,0.24,0.211c0.156,0,0.211-0.084,0.297-0.381l1.088-4.449
	c0-0.111-0.1-0.211-0.24-0.211c-0.17,0-0.197,0.113-0.27,0.34c-0.395,1.453-0.734,1.891-2.484,1.891h-1.795l1.145-4.588
	c0.17-0.68,0.184-0.75,1.031-0.75h2.684c2.316,0,2.895,0.551,2.895,2.119c0,0.451,0,0.494-0.07,1.002
	c0,0.113-0.027,0.254-0.027,0.354c0,0.084,0.057,0.227,0.227,0.227c0.211,0,0.238-0.113,0.268-0.48l0.381-3.291
	c0.057-0.523-0.029-0.523-0.508-0.523h-9.617c-0.383,0-0.58,0-0.58,0.383c0,0.211,0.17,0.211,0.537,0.211
	c0.705,0,1.242,0,1.242,0.34c0,0.084,0,0.113-0.1,0.465l-2.514,10.07c-0.197,0.748-0.225,0.904-1.736,0.904
	c-0.324,0-0.537,0-0.537,0.354c0,0.225,0.184,0.225,0.537,0.225h9.887c0.438,0,0.465-0.014,0.592-0.324L132.981,136.854"/>
<path d="M166.512,220.673c0.479-0.848,0.93-1.525,2.131-1.623c0.17-0.016,0.369-0.016,0.369-0.383c0-0.07-0.086-0.211-0.227-0.211
	c-0.467,0-1.004,0.057-1.469,0.057c-0.65,0-1.355-0.057-1.992-0.057c-0.113,0-0.352,0-0.352,0.367c0,0.211,0.168,0.227,0.281,0.227
	c0.451,0.014,1.129,0.168,1.129,0.748c0,0.197-0.098,0.354-0.254,0.621l-5.141,8.969l-0.707-9.449
	c-0.012-0.381-0.055-0.875,1.328-0.889c0.324,0,0.523,0,0.523-0.383c0-0.184-0.211-0.211-0.283-0.211
	c-0.762,0-1.568,0.057-2.33,0.057c-0.438,0-1.566-0.057-2.006-0.057c-0.113,0-0.354,0-0.354,0.381c0,0.213,0.184,0.213,0.453,0.213
	c0.834,0,0.975,0.113,1.016,0.48l0.113,1.467l-4.828,8.391l-0.723-9.646c0-0.24,0-0.678,1.455-0.691c0.186,0,0.396,0,0.396-0.383
	c0-0.211-0.227-0.211-0.27-0.211c-0.762,0-1.553,0.057-2.344,0.057c-0.664,0-1.355-0.057-1.99-0.057c-0.1,0-0.354,0-0.354,0.367
	c0,0.227,0.17,0.227,0.48,0.227c0.959,0,0.973,0.168,1.016,0.705l0.848,11.637c0.027,0.34,0.043,0.496,0.311,0.496
	c0.227,0,0.283-0.113,0.451-0.396l5.607-9.717l0.707,9.617c0.027,0.396,0.07,0.496,0.297,0.496c0.254,0,0.367-0.186,0.467-0.367
	L166.512,220.673"/>
<g>
	<path d="M127.562,42.942c0.172-0.216,0.172-0.244,0.172-0.331c0-0.243-0.144-0.243-0.503-0.243h-6.192l-0.214,3.117h0.487
		c0.115-1.982,0.475-2.701,2.614-2.701h2.199l-5.402,7.312c-0.172,0.216-0.172,0.245-0.172,0.346c0,0.273,0.129,0.273,0.502,0.273
		h6.395l0.329-3.621h-0.487c-0.173,2.284-0.575,3.132-2.831,3.132h-2.285L127.562,42.942"/>
	<path d="M130.736,46.232h5.402c0.432,0,0.488,0,0.488-0.402c0-1.91-1.049-3.793-3.463-3.793c-2.255,0-4.036,1.997-4.036,4.411
		c0,2.601,2.039,4.482,4.267,4.482c2.356,0,3.232-2.155,3.232-2.528c0-0.188-0.158-0.23-0.244-0.23
		c-0.187,0-0.216,0.115-0.259,0.273c-0.675,1.997-2.428,1.997-2.614,1.997c-0.963,0-1.738-0.574-2.185-1.294
		C130.736,48.215,130.736,46.937,130.736,46.232 M130.751,45.83c0.129-2.888,1.753-3.376,2.413-3.376
		c1.997,0,2.185,2.615,2.185,3.376H130.751z"/>
	<path d="M139.357,44.049v5.186c0,0.877-0.217,0.877-1.524,0.877v0.604c0.689-0.015,1.667-0.058,2.199-0.058
		c0.503,0,1.508,0.043,2.169,0.058v-0.604c-1.293,0-1.508,0-1.508-0.877v-3.562c0-2.011,1.364-3.103,2.614-3.103
		c1.222,0,1.437,1.048,1.437,2.154v4.511c0,0.877-0.215,0.877-1.523,0.877v0.604c0.69-0.015,1.667-0.058,2.198-0.058
		c0.504,0,1.509,0.043,2.17,0.058v-0.604c-1.006,0-1.494,0-1.509-0.574V45.83c0-1.666,0-2.271-0.604-2.96
		c-0.272-0.329-0.919-0.718-2.04-0.718c-1.407,0-2.327,0.833-2.859,2.025v-2.025l-2.744,0.216v0.589
		C139.199,42.957,139.357,43.101,139.357,44.049"/>
	<path d="M151.467,38.776c0-0.618-0.487-1.021-1.033-1.021c-0.604,0-1.02,0.518-1.02,1.021c0,0.531,0.416,1.034,1.02,1.034
		C150.979,39.811,151.467,39.395,151.467,38.776 M151.382,42.152l-2.715,0.216v0.589c1.264,0,1.437,0.129,1.437,1.077v5.2
		c0,0.877-0.202,0.877-1.509,0.877v0.604c0.617-0.015,1.667-0.058,2.126-0.058c0.69,0,1.365,0.043,2.025,0.058v-0.604
		c-1.279,0-1.364-0.101-1.364-0.848V42.152z"/>
	<path d="M156.654,42.957h2.772v-0.589h-2.772v-3.577h-0.488c-0.015,1.595-0.604,3.663-2.5,3.75v0.416h1.651v5.358
		c0,2.386,1.796,2.615,2.501,2.615c1.364,0,1.911-1.379,1.911-2.615v-1.106h-0.489v1.063c0,1.438-0.574,2.17-1.294,2.17
		c-1.292,0-1.292-1.768-1.292-2.098V42.957"/>
	<path d="M162.99,49.234c0,0.877-0.216,0.877-1.523,0.877v0.604c0.69-0.015,1.667-0.058,2.198-0.058c0.504,0,1.51,0.043,2.17,0.058
		v-0.604c-1.309,0-1.508,0-1.508-0.877v-3.562c0-2.011,1.364-3.103,2.614-3.103c1.22,0,1.421,1.048,1.421,2.154v4.511
		c0,0.877-0.201,0.877-1.507,0.877v0.604c0.688-0.015,1.666-0.058,2.197-0.058c0.503,0,1.509,0.043,2.17,0.058v-0.604
		c-1.006,0-1.494,0-1.509-0.574V45.83c0-1.666,0-2.271-0.604-2.96c-0.271-0.329-0.919-0.718-2.038-0.718
		c-1.625,0-2.486,1.164-2.802,1.896v-6.781l-2.803,0.216v0.603c1.365,0,1.523,0.13,1.523,1.078V49.234"/>
</g>
<g>
	<path d="M124.257,318.235v5.191c0,0.877-0.215,0.877-1.51,0.877v0.605c0.676-0.016,1.668-0.059,2.186-0.059
		c0.504,0,1.512,0.043,2.172,0.059v-0.605c-1.293,0-1.51,0-1.51-0.877v-3.566c0-2.014,1.381-3.105,2.617-3.105
		c1.223,0,1.439,1.049,1.439,2.156v4.516c0,0.877-0.217,0.877-1.512,0.877v0.605c0.676-0.016,1.67-0.059,2.188-0.059
		c0.502,0,1.51,0.043,2.17,0.059v-0.605c-1.006,0-1.494,0-1.508-0.574v-3.711c0-1.668,0-2.271-0.605-2.963
		c-0.273-0.33-0.906-0.719-2.043-0.719c-1.408,0-2.314,0.834-2.861,2.027v-2.027l-2.732,0.215v0.59
		C124.099,317.142,124.257,317.286,124.257,318.235"/>
	<path d="M139.2,320.249v1.941c0,1.84-1.41,2.502-2.271,2.502c-0.949,0-1.756-0.676-1.756-1.654
		C135.173,321.974,135.993,320.364,139.2,320.249 M139.329,323.427c0.072,0.777,0.605,1.598,1.512,1.598
		c0.416,0,1.596-0.273,1.596-1.842v-1.094h-0.49v1.094c0,1.121-0.488,1.236-0.689,1.236c-0.646,0-0.719-0.861-0.719-0.963v-3.883
		c0-0.82,0-1.568-0.705-2.287c-0.762-0.762-1.725-1.064-2.66-1.064c-1.582,0-2.92,0.906-2.92,2.186c0,0.59,0.389,0.906,0.893,0.906
		c0.531,0,0.891-0.373,0.891-0.891c0-0.23-0.1-0.863-0.992-0.893c0.518-0.676,1.467-0.891,2.1-0.891
		c0.949,0,2.057,0.762,2.057,2.486v0.721c-0.992,0.057-2.359,0.115-3.58,0.689c-1.453,0.662-1.928,1.668-1.928,2.531
		c0,1.568,1.869,2.057,3.092,2.057C138.063,325.124,138.956,324.347,139.329,323.427z"/>
	<path d="M149.958,318.638v3.984c0,0.346,0,0.389-0.201,0.719c-0.59,0.92-1.467,1.352-2.301,1.352c-0.863,0-1.568-0.504-2.029-1.236
		c-0.502-0.791-0.561-1.898-0.561-2.703c0-0.721,0.029-1.871,0.605-2.748c0.402-0.604,1.137-1.25,2.186-1.25
		c0.676,0,1.496,0.301,2.1,1.164C149.958,318.249,149.958,318.292,149.958,318.638 M149.958,323.845v1.279l2.861-0.215v-0.605
		c-1.365,0-1.523-0.129-1.523-1.078v-11.779l-2.791,0.217v0.604c1.367,0,1.51,0.129,1.51,1.078v4.186
		c-0.561-0.689-1.395-1.193-2.443-1.193c-2.287,0-4.314,1.898-4.314,4.4c0,2.459,1.898,4.387,4.113,4.387
		C148.606,325.124,149.483,324.462,149.958,323.845z"/>
	<path d="M156.847,312.956c0-0.617-0.475-1.02-1.02-1.02c-0.605,0-1.037,0.518-1.037,1.02c0,0.533,0.432,1.037,1.037,1.037
		C156.372,313.993,156.847,313.575,156.847,312.956 M156.774,316.337l-2.717,0.215v0.59c1.264,0,1.438,0.131,1.438,1.08v5.205
		c0,0.877-0.217,0.877-1.51,0.877v0.605c0.617-0.016,1.668-0.059,2.129-0.059c0.676,0,1.365,0.043,2.014,0.059v-0.605
		c-1.281,0-1.354-0.1-1.354-0.848V316.337z"/>
	<path d="M161.981,318.466v-2.129l-2.689,0.215v0.59c1.352,0,1.51,0.145,1.51,1.094v5.191c0,0.877-0.215,0.877-1.51,0.877v0.605
		c0.748-0.016,1.668-0.059,2.201-0.059c0.775,0,1.697,0,2.473,0.059v-0.605h-0.416c-1.439,0-1.467-0.215-1.467-0.904v-2.992
		c0-1.912,0.805-3.652,2.287-3.652c0.127,0,0.172,0,0.215,0.027c-0.059,0.016-0.445,0.246-0.445,0.748
		c0,0.547,0.402,0.834,0.834,0.834c0.344,0,0.834-0.23,0.834-0.848c0-0.619-0.605-1.18-1.438-1.18
		C162.944,316.337,162.255,317.632,161.981,318.466"/>
</g>
<g>
	<path d="M238.356,289.296l-2.443-0.594c-1.186-0.281-1.92-1.312-1.92-2.414c0-1.328,1.03-2.5,2.514-2.5
		c3.178,0,3.602,3.135,3.714,3.982c0.015,0.113,0.015,0.227,0.226,0.227c0.255,0,0.255-0.086,0.255-0.453v-3.826
		c0-0.324,0-0.451-0.212-0.451c-0.142,0-0.155,0.014-0.297,0.238l-0.664,1.088c-0.564-0.551-1.355-1.326-3.05-1.326
		c-2.104,0-3.715,1.666-3.715,3.686c0,1.582,1.018,2.979,2.5,3.488c0.212,0.07,1.187,0.311,2.514,0.635
		c0.523,0.127,1.088,0.256,1.624,0.961c0.396,0.494,0.594,1.129,0.594,1.752c0,1.355-0.961,2.725-2.557,2.725
		c-0.551,0-2.005-0.084-3.008-1.031c-1.102-1.016-1.158-2.244-1.187-2.922c-0.014-0.199-0.169-0.199-0.226-0.199
		c-0.255,0-0.255,0.143-0.255,0.48v3.812c0,0.326,0,0.453,0.212,0.453c0.142,0,0.155-0.043,0.297-0.24
		c0-0.027,0.057-0.084,0.678-1.088c0.593,0.65,1.808,1.328,3.503,1.328c2.231,0,3.757-1.863,3.757-3.955
		C241.21,291.245,239.952,289.679,238.356,289.296"/>
	<path d="M243.328,290.173c0,3.939,3.079,6.934,6.623,6.934c3.107,0,4.973-2.641,4.973-4.859c0-0.182,0-0.324-0.24-0.324
		c-0.213,0-0.213,0.113-0.24,0.311c-0.141,2.727-2.19,4.279-4.266,4.279c-1.158,0-4.887-0.648-4.887-6.326
		c0-5.691,3.714-6.342,4.872-6.342c2.076,0,3.771,1.736,4.153,4.52c0.043,0.268,0.043,0.324,0.311,0.324
		c0.297,0,0.297-0.057,0.297-0.451v-4.52c0-0.324,0-0.451-0.213-0.451c-0.07,0-0.141,0-0.295,0.225l-0.962,1.412
		c-0.706-0.691-1.667-1.637-3.503-1.637C246.393,283.267,243.328,286.288,243.328,290.173"/>
	<path d="M260.262,290.173v-5.143c0-0.635,0.043-0.762,0.934-0.762h1.693c3.037,0,3.037,2.02,3.037,2.951
		c0,0.904,0,2.953-3.037,2.953H260.262 M260.318,290.667h3.221c2.287,0,4.35-1.541,4.35-3.447c0-1.863-1.893-3.545-4.506-3.545
		h-6.723v0.594h0.467c1.453,0,1.496,0.213,1.496,0.889V295.2c0,0.691-0.043,0.904-1.496,0.904h-0.467v0.578
		c0.664-0.057,2.076-0.057,2.797-0.057c0.734,0,2.16,0,2.824,0.057v-0.578h-0.451c-1.469,0-1.512-0.213-1.512-0.904V290.667z"/>
</g>
<g>
	<g>
		<path fill="none" stroke="#000000" stroke-width="0.9034" d="M245.671,105.724c6.103,6.149,1.666,21.911-12.3,43.695l-0.242,0.343
			c-23.183,36.378-64.277,79.52-105.347,109.084"/>
		<g>
			<path d="M129.089,257.887l3.497,1.509l-0.047,0.125l-5.549,1.35c-1.744,0.738-3.487,1.477-5.231,2.214
				c1.272-1.402,2.546-2.803,3.819-4.204l3.11-4.789l0.122-0.021L129.089,257.887z"/>
		</g>
	</g>
</g>
<g>
	<defs>
		<rect id="SVGID_17_" x="97.859" y="258.706" width="13.628" height="16.893"/>
	</defs>
	<clipPath id="SVGID_18_">
		<use xlink:href="#SVGID_17_"  overflow="visible"/>
	</clipPath>
	<path clip-path="url(#SVGID_18_)" d="M98.658,263.658c0.961-2.813,3.629-2.831,3.883-2.831c3.702,0,3.974,4.282,3.974,6.225
		c0,1.487-0.127,1.904-0.291,2.396c-0.544,1.778-1.27,4.628-1.27,5.262c0,0.272,0.109,0.436,0.309,0.436
		c0.327,0,0.526-0.544,0.78-1.47c0.562-2.05,0.817-3.447,0.908-4.21c0.054-0.309,0.108-0.635,0.199-0.943
		c0.78-2.433,2.359-6.079,3.321-8.021c0.182-0.29,0.472-0.815,0.472-0.925c0-0.236-0.235-0.236-0.29-0.236
		c-0.073,0-0.218,0-0.291,0.164c-1.271,2.322-2.25,4.772-3.23,7.24c-0.037-0.744-0.055-2.613-1.016-4.99
		c-0.581-1.488-1.561-2.686-3.248-2.686c-3.067,0-4.773,3.72-4.773,4.481c0,0.236,0.217,0.236,0.472,0.236L98.658,263.658"/>
</g>
<path d="M289.594,174.65c0-0.057-0.043-0.184-0.213-0.184c-0.098,0-0.111,0.016-0.338,0.283l-0.918,1.088
	c-0.494-0.904-1.482-1.371-2.727-1.371c-2.414,0-4.703,2.189-4.703,4.492c0,1.539,1.004,2.414,1.979,2.697l2.033,0.535
	c0.707,0.17,1.766,0.467,1.766,2.02c0,1.725-1.568,3.504-3.432,3.504c-1.229,0-3.334-0.41-3.334-2.783
	c0-0.451,0.1-0.902,0.113-1.016c0.014-0.086,0.043-0.1,0.043-0.143c0-0.184-0.141-0.211-0.24-0.211
	c-0.086,0-0.127,0.027-0.184,0.084c-0.084,0.07-1.145,4.422-1.145,4.477c0,0.113,0.1,0.186,0.213,0.186
	c0.098,0,0.113-0.016,0.338-0.283l0.934-1.088c0.818,1.102,2.117,1.371,3.219,1.371c2.6,0,4.844-2.529,4.844-4.902
	c0-1.312-0.648-1.947-0.932-2.217c-0.438-0.438-0.734-0.521-2.43-0.961c-0.41-0.111-1.102-0.295-1.27-0.338
	c-0.51-0.17-1.158-0.721-1.158-1.738c0-1.539,1.523-3.162,3.332-3.162c1.582,0,2.74,0.818,2.74,2.951c0,0.621-0.07,0.961-0.07,1.072
	c0,0.016,0,0.186,0.225,0.186c0.184,0,0.213-0.057,0.283-0.383L289.594,174.65"/>
<path d="M14.293,176.666c0.191-0.799,0.562-1.404,2.158-1.463c0.088,0,0.326-0.03,0.326-0.399c0-0.03,0-0.222-0.252-0.222
	c-0.664,0-1.359,0.059-2.01,0.059c-0.68,0-1.375-0.059-2.041-0.059c-0.117,0-0.354,0-0.354,0.399c0,0.222,0.191,0.222,0.354,0.222
	c1.139,0.014,1.361,0.428,1.361,0.872c0,0.059-0.045,0.354-0.061,0.412l-2.23,8.869l-4.406-10.405
	c-0.162-0.354-0.176-0.369-0.635-0.369H3.828c-0.396,0-0.576,0-0.576,0.399c0,0.222,0.18,0.222,0.549,0.222
	c0.102,0,1.357,0,1.357,0.176l-2.674,10.702c-0.193,0.798-0.533,1.433-2.145,1.493c-0.117,0-0.34,0.014-0.34,0.398
	c0,0.148,0.104,0.222,0.252,0.222c0.65,0,1.346-0.06,1.996-0.06c0.68,0,1.404,0.06,2.053,0.06c0.104,0,0.355,0,0.355-0.398
	c0-0.208-0.176-0.222-0.398-0.222c-1.152-0.045-1.314-0.473-1.314-0.872c0-0.148,0.027-0.237,0.088-0.459l2.631-10.523
	c0.074,0.119,0.074,0.147,0.178,0.355l4.965,11.735c0.133,0.34,0.193,0.384,0.371,0.384c0.221,0,0.221-0.06,0.324-0.414
	L14.293,176.666"/>
<g opacity="0.5">
	<defs>
		<rect id="SVGID_19_" x="155.777" y="87.53" opacity="0.5" width="25" height="25"/>
	</defs>
	<clipPath id="SVGID_20_">
		<use xlink:href="#SVGID_19_"  overflow="visible"/>
	</clipPath>
	<g clip-path="url(#SVGID_20_)">
		<defs>
			<rect id="SVGID_21_" x="155.777" y="87.53" width="25" height="25"/>
		</defs>
		<clipPath id="SVGID_22_">
			<use xlink:href="#SVGID_21_"  overflow="visible"/>
		</clipPath>
		<polygon clip-path="url(#SVGID_22_)" fill="#FFFF00" points="178.32,104.495 172.703,104.632 172.074,110.218 168.008,106.339 
			163.613,109.842 163.48,104.225 157.895,103.6 161.773,99.53 158.266,95.139 163.887,95.003 164.512,89.421 168.582,93.296 
			172.973,89.792 173.109,95.409 178.691,96.038 174.816,100.104 		"/>
		<polygon clip-path="url(#SVGID_22_)" fill="none" stroke="#0000FF" stroke-width="1.5" points="178.32,104.495 172.703,104.632 
			172.074,110.218 168.008,106.339 163.613,109.842 163.48,104.225 157.895,103.6 161.773,99.53 158.266,95.139 163.887,95.003 
			164.512,89.421 168.582,93.296 172.973,89.792 173.109,95.409 178.691,96.038 174.816,100.104 		"/>
	</g>
</g>
<g>
	<path d="M230.747,59.635l-2.247,0.174v0.486c1.089,0,1.216,0.105,1.216,0.869v8.119c0,0.706-0.173,0.706-1.216,0.706v0.487
		c0.51-0.012,1.344-0.046,1.726-0.046c0.394,0,1.158,0.034,1.737,0.046v-0.487c-1.042,0-1.216,0-1.216-0.706V59.635"/>
	<path d="M236.19,70.255c-0.672,0-1.355-0.325-1.784-1.042c-0.382-0.695-0.382-1.645-0.382-2.201c0-0.614,0-1.459,0.37-2.143
		c0.43-0.718,1.159-1.054,1.784-1.054c0.684,0,1.354,0.348,1.76,1.02s0.405,1.575,0.405,2.177c0,0.556,0,1.401-0.335,2.084
		C237.661,69.803,236.978,70.255,236.19,70.255 M239.642,67.128c0-1.992-1.562-3.648-3.451-3.648c-1.946,0-3.463,1.703-3.463,3.648
		c0,2.015,1.621,3.521,3.451,3.521C238.066,70.649,239.642,69.12,239.642,67.128z"/>
	<path d="M242.375,67.07c0-2.547,1.285-3.208,2.107-3.208c0.15,0,1.136,0.023,1.68,0.58c-0.649,0.046-0.741,0.521-0.741,0.718
		c0,0.405,0.289,0.718,0.718,0.718c0.405,0,0.718-0.255,0.718-0.73c0-1.065-1.182-1.667-2.386-1.667
		c-1.957,0-3.394,1.679-3.394,3.625c0,1.992,1.553,3.544,3.359,3.544c2.096,0,2.594-1.876,2.594-2.039c0-0.15-0.15-0.15-0.197-0.15
		c-0.139,0-0.173,0.058-0.208,0.15c-0.451,1.459-1.47,1.645-2.038,1.645C243.753,70.255,242.375,69.583,242.375,67.07"/>
	<path d="M252.555,66.723v1.563c0,1.482-1.123,2.015-1.817,2.015c-0.776,0-1.413-0.544-1.413-1.332
		C249.324,68.112,249.983,66.815,252.555,66.723 M252.671,69.282c0.059,0.625,0.486,1.286,1.216,1.286
		c0.324,0,1.285-0.22,1.285-1.483v-0.88h-0.394v0.88c0,0.903-0.395,0.996-0.567,0.996c-0.509,0-0.579-0.695-0.579-0.776v-3.126
		c0-0.66,0-1.262-0.556-1.842c-0.614-0.614-1.39-0.857-2.142-0.857c-1.275,0-2.363,0.729-2.363,1.76
		c0,0.475,0.312,0.729,0.718,0.729c0.44,0,0.729-0.301,0.729-0.718c0-0.185-0.081-0.695-0.8-0.717
		c0.418-0.545,1.182-0.719,1.681-0.719c0.764,0,1.655,0.614,1.655,2.004v0.579c-0.787,0.046-1.888,0.093-2.872,0.556
		c-1.17,0.533-1.563,1.343-1.563,2.038c0,1.263,1.518,1.656,2.501,1.656C251.651,70.649,252.369,70.023,252.671,69.282z"/>
	<path d="M258.021,59.635l-2.259,0.174v0.486c1.101,0,1.229,0.105,1.229,0.869v8.119c0,0.706-0.175,0.706-1.229,0.706v0.487
		c0.521-0.012,1.344-0.046,1.738-0.046c0.394,0,1.158,0.034,1.737,0.046v-0.487c-1.055,0-1.217,0-1.217-0.706V59.635"/>
</g>
<g>
	<path d="M229.717,78.245v4.181c0,0.707-0.174,0.707-1.217,0.707v0.487c0.545-0.012,1.344-0.046,1.761-0.046
		c0.406,0,1.217,0.034,1.749,0.046v-0.487c-1.042,0-1.216,0-1.216-0.707v-2.872c0-1.622,1.112-2.501,2.108-2.501
		c0.983,0,1.157,0.845,1.157,1.737v3.636c0,0.707-0.174,0.707-1.228,0.707v0.487c0.556-0.012,1.343-0.046,1.771-0.046
		c0.405,0,1.217,0.034,1.749,0.046v-0.487c-1.042,0-1.215,0-1.215-0.707v-2.872c0-1.622,1.111-2.501,2.106-2.501
		c0.985,0,1.159,0.845,1.159,1.737v3.636c0,0.707-0.174,0.707-1.229,0.707v0.487c0.557-0.012,1.344-0.046,1.772-0.046
		c0.405,0,1.216,0.034,1.749,0.046v-0.487c-0.811,0-1.204,0-1.216-0.463v-2.988c0-1.344,0-1.83-0.487-2.386
		c-0.22-0.267-0.74-0.579-1.645-0.579c-1.309,0-1.992,0.938-2.258,1.529c-0.22-1.355-1.378-1.529-2.085-1.529
		c-1.136,0-1.876,0.672-2.305,1.633v-1.633L228.5,76.89v0.475C229.59,77.365,229.717,77.48,229.717,78.245"/>
	<path d="M242.734,80.005h4.354c0.348,0,0.394,0,0.394-0.324c0-1.54-0.845-3.058-2.791-3.058c-1.818,0-3.254,1.61-3.254,3.556
		c0,2.096,1.645,3.613,3.439,3.613c1.899,0,2.605-1.737,2.605-2.038c0-0.151-0.127-0.186-0.208-0.186
		c-0.14,0-0.162,0.093-0.197,0.22c-0.544,1.61-1.957,1.61-2.107,1.61c-0.787,0-1.401-0.463-1.771-1.042
		C242.734,81.604,242.734,80.573,242.734,80.005 M242.746,79.681c0.093-2.328,1.413-2.722,1.945-2.722
		c1.609,0,1.761,2.108,1.761,2.722H242.746z"/>
	<path d="M250.563,78.43v-1.714l-2.165,0.174v0.475c1.088,0,1.215,0.116,1.215,0.88v4.181c0,0.707-0.174,0.707-1.215,0.707v0.487
		c0.613-0.012,1.344-0.046,1.783-0.046c0.625,0,1.355,0,1.98,0.046v-0.487h-0.325c-1.157,0-1.192-0.174-1.192-0.729v-2.409
		c0-1.54,0.66-2.941,1.842-2.941c0.115,0,0.138,0,0.173,0.023c-0.046,0.012-0.358,0.197-0.358,0.603
		c0,0.439,0.323,0.671,0.672,0.671c0.277,0,0.671-0.185,0.671-0.683s-0.485-0.95-1.157-0.95
		C251.352,76.716,250.784,77.759,250.563,78.43"/>
	<path d="M256.875,73.995c0-0.498-0.394-0.823-0.821-0.823c-0.487,0-0.835,0.417-0.835,0.823c0,0.429,0.348,0.834,0.835,0.834
		C256.481,74.829,256.875,74.493,256.875,73.995 M256.817,76.716l-2.188,0.174v0.475c1.007,0,1.157,0.104,1.157,0.869v4.192
		c0,0.707-0.173,0.707-1.227,0.707v0.487c0.509-0.012,1.343-0.046,1.725-0.046c0.545,0,1.089,0.034,1.622,0.046v-0.487
		c-1.031,0-1.089-0.081-1.089-0.683V76.716z"/>
	<path d="M264.334,78.569v3.208c0,0.278,0,0.312-0.174,0.579c-0.463,0.741-1.17,1.089-1.842,1.089c-0.706,0-1.262-0.406-1.644-0.996
		c-0.405-0.637-0.452-1.529-0.452-2.177c0-0.58,0.035-1.506,0.485-2.212c0.325-0.486,0.928-1.008,1.762-1.008
		c0.556,0,1.204,0.243,1.69,0.938C264.334,78.256,264.334,78.292,264.334,78.569 M264.334,82.762v1.031l2.294-0.173v-0.487
		c-1.09,0-1.217-0.104-1.217-0.869v-9.485l-2.247,0.174v0.486c1.089,0,1.216,0.104,1.216,0.869v3.371
		c-0.452-0.557-1.123-0.961-1.969-0.961c-1.841,0-3.486,1.529-3.486,3.544c0,1.98,1.541,3.532,3.313,3.532
		C263.245,83.792,263.94,83.26,264.334,82.762z"/>
	<path d="M269.882,73.995c0-0.498-0.395-0.823-0.835-0.823c-0.475,0-0.821,0.417-0.821,0.823c0,0.429,0.347,0.834,0.821,0.834
		C269.487,74.829,269.882,74.493,269.882,73.995 M269.823,76.716l-2.188,0.174v0.475c1.007,0,1.158,0.104,1.158,0.869v4.192
		c0,0.707-0.174,0.707-1.228,0.707v0.487c0.497-0.012,1.343-0.046,1.726-0.046c0.544,0,1.089,0.034,1.621,0.046v-0.487
		c-1.03,0-1.089-0.081-1.089-0.683V76.716z"/>
	<path d="M276.495,79.866v1.563c0,1.482-1.124,2.016-1.831,2.016c-0.764,0-1.4-0.544-1.4-1.332
		C273.264,81.256,273.924,79.959,276.495,79.866 M276.61,82.426c0.059,0.626,0.476,1.286,1.216,1.286
		c0.324,0,1.274-0.22,1.274-1.482v-0.881h-0.383v0.881c0,0.903-0.394,0.996-0.567,0.996c-0.51,0-0.579-0.695-0.579-0.776v-3.127
		c0-0.66,0-1.262-0.556-1.842c-0.614-0.614-1.39-0.857-2.143-0.857c-1.285,0-2.362,0.729-2.362,1.76
		c0,0.475,0.312,0.729,0.718,0.729c0.44,0,0.719-0.301,0.719-0.718c0-0.186-0.07-0.695-0.8-0.718
		c0.428-0.545,1.193-0.719,1.69-0.719c0.765,0,1.657,0.615,1.657,2.004v0.579c-0.799,0.047-1.889,0.093-2.873,0.556
		c-1.17,0.533-1.563,1.344-1.563,2.039c0,1.262,1.517,1.656,2.502,1.656C275.591,83.792,276.31,83.167,276.61,82.426z"/>
	<path d="M280.907,78.245v4.181c0,0.707-0.175,0.707-1.216,0.707v0.487c0.544-0.012,1.344-0.046,1.761-0.046
		c0.404,0,1.216,0.034,1.748,0.046v-0.487c-1.043,0-1.216,0-1.216-0.707v-2.872c0-1.622,1.111-2.501,2.107-2.501
		c0.984,0,1.158,0.845,1.158,1.737v3.636c0,0.707-0.174,0.707-1.215,0.707v0.487c0.543-0.012,1.343-0.046,1.76-0.046
		c0.405,0,1.216,0.034,1.748,0.046v-0.487c-0.811,0-1.204,0-1.216-0.463v-2.988c0-1.344,0-1.83-0.486-2.386
		c-0.22-0.267-0.729-0.579-1.633-0.579c-1.146,0-1.876,0.672-2.316,1.633v-1.633l-2.2,0.174v0.475
		C280.78,77.365,280.907,77.48,280.907,78.245"/>
</g>
<g>
	<path d="M190.171,78.455c0-0.515,0.021-0.676,1.136-0.676h0.344v-0.45c-0.504,0.043-1.576,0.043-2.122,0.043
		c-0.548,0-1.629,0-2.134-0.043v0.45h0.343c1.114,0,1.137,0.161,1.137,0.676v3.387h-4.32v-3.387c0-0.515,0.032-0.676,1.146-0.676
		h0.343v-0.45c-0.503,0.043-1.575,0.043-2.122,0.043c-0.546,0-1.64,0-2.144-0.043v0.45h0.354c1.104,0,1.137,0.161,1.137,0.676v7.622
		c0,0.524-0.032,0.686-1.137,0.686h-0.354v0.439c0.504-0.043,1.575-0.043,2.123-0.043c0.557,0,1.64,0,2.143,0.043v-0.439H185.7
		c-1.114,0-1.146-0.161-1.146-0.686v-3.784h4.32v3.784c0,0.524-0.022,0.686-1.137,0.686h-0.343v0.439
		c0.505-0.043,1.575-0.043,2.122-0.043c0.548,0,1.63,0,2.134,0.043v-0.439h-0.344c-1.114,0-1.136-0.161-1.136-0.686V78.455"/>
</g>
<g>
	<path d="M214.286,197.73h-0.364c-0.161,1.479-0.365,3.291-2.905,3.291h-1.189c-0.676,0-0.708-0.107-0.708-0.579v-7.707
		c0-0.493,0-0.697,1.372-0.697h0.482v-0.45c-0.525,0.043-1.844,0.043-2.433,0.043c-0.568,0-1.694,0-2.198-0.043v0.45h0.343
		c1.115,0,1.147,0.161,1.147,0.676v7.622c0,0.524-0.032,0.686-1.147,0.686h-0.343v0.439h7.535L214.286,197.73"/>
	<path d="M219.925,195.854l-1.845-0.45c-0.9-0.215-1.458-0.997-1.458-1.833c0-1.008,0.772-1.897,1.909-1.897
		c2.411,0,2.733,2.38,2.818,3.022c0.012,0.086,0.012,0.172,0.173,0.172c0.182,0,0.182-0.064,0.182-0.343v-2.905
		c0-0.247,0-0.343-0.15-0.343c-0.107,0-0.118,0.011-0.225,0.183l-0.504,0.824c-0.429-0.417-1.029-1.007-2.315-1.007
		c-1.598,0-2.82,1.265-2.82,2.798c0,1.2,0.772,2.262,1.897,2.647c0.161,0.055,0.901,0.236,1.909,0.472
		c0.385,0.108,0.825,0.204,1.232,0.74c0.3,0.375,0.45,0.857,0.45,1.329c0,1.028-0.729,2.068-1.94,2.068
		c-0.418,0-1.522-0.064-2.283-0.782c-0.847-0.771-0.89-1.704-0.9-2.219c-0.011-0.149-0.129-0.149-0.171-0.149
		c-0.194,0-0.194,0.106-0.194,0.363v2.895c0,0.247,0,0.343,0.161,0.343c0.107,0,0.118-0.032,0.215-0.182
		c0-0.022,0.043-0.064,0.524-0.825c0.451,0.492,1.372,1.007,2.659,1.007c1.693,0,2.852-1.414,2.852-3.001
		C222.101,197.335,221.146,196.144,219.925,195.854"/>
	<path d="M232.52,191.674h-8.833l-0.268,3.259h0.354c0.203-2.326,0.429-2.809,2.604-2.809c0.257,0,0.644,0,0.782,0.032
		c0.301,0.054,0.301,0.214,0.301,0.547v7.621c0,0.493,0,0.697-1.512,0.697h-0.578v0.439c0.589-0.043,2.068-0.043,2.732-0.043
		c0.666,0,2.155,0,2.745,0.043v-0.439h-0.579c-1.522,0-1.522-0.204-1.522-0.697v-7.621c0-0.29,0-0.493,0.269-0.547
		c0.161-0.032,0.546-0.032,0.825-0.032c2.176,0,2.39,0.482,2.594,2.809h0.364L232.52,191.674"/>
</g>
<line fill="none" stroke="#000000" stroke-width="0.75" x1="17.898" y1="180.698" x2="274.574" y2="180.698"/>
<g>
	<defs>
		<rect id="SVGID_23_" x="63.771" y="3.518" width="161.011" height="30.413"/>
	</defs>
	<clipPath id="SVGID_24_">
		<use xlink:href="#SVGID_23_"  overflow="visible"/>
	</clipPath>
	<g clip-path="url(#SVGID_24_)">
		<path d="M82.981,24.494c0,1.155,0.064,1.508,2.535,1.508h0.771v0.995c-1.124-0.096-3.53-0.096-4.75-0.096
			c-1.219,0-3.594,0-4.717,0.096v-0.995h0.77c2.471,0,2.535-0.353,2.535-1.508v-8.407h-9.595v8.407c0,1.155,0.064,1.508,2.535,1.508
			h0.771v0.995c-1.123-0.096-3.53-0.096-4.75-0.096c-1.219,0-3.594,0-4.717,0.096v-0.995h0.77c2.471,0,2.535-0.353,2.535-1.508
			V7.583c0-1.155-0.064-1.508-2.535-1.508h-0.77V5.08c1.123,0.096,3.53,0.096,4.749,0.096s3.594,0,4.717-0.096v0.995h-0.771
			c-2.471,0-2.535,0.353-2.535,1.508v7.509h9.595V7.583c0-1.155-0.064-1.508-2.535-1.508h-0.77V5.08
			c1.123,0.096,3.53,0.096,4.749,0.096s3.594,0,4.717-0.096v0.995h-0.771c-2.471,0-2.535,0.353-2.535,1.508V24.494z"/>
		<path d="M95.362,27.35c-3.754,0-7.092-3.081-7.092-7.22c0-4.011,3.113-7.509,7.124-7.509c3.883,0,7.092,3.401,7.092,7.509
			C102.486,24.205,99.245,27.35,95.362,27.35z M99.116,24.173c0.706-1.412,0.706-3.145,0.706-4.3c0-1.219,0-3.081-0.834-4.46
			c-0.834-1.38-2.214-2.086-3.626-2.086c-1.284,0-2.792,0.674-3.658,2.15c-0.77,1.412-0.77,3.145-0.77,4.396
			c0,1.155,0,3.113,0.802,4.525c0.866,1.476,2.278,2.15,3.658,2.15C96.999,26.547,98.41,25.617,99.116,24.173z"/>
		<path d="M111.82,27.35c-4.877,0-4.877-2.92-4.877-5.423v-4.813c0-2.856,0-2.952-2.503-2.952v-0.995l4.717-0.353v10.654
			c0,1.668,0.128,3.177,2.824,3.177c2.342,0,3.883-2.182,3.883-4.974v-5.712c0-1.572-0.257-1.797-2.503-1.797v-0.995l4.717-0.353
			v11.392c0,1.573,0.257,1.797,2.503,1.797v0.995l-4.621,0.353v-2.888C115.029,26.451,113.617,27.35,111.82,27.35z"/>
		<path d="M130.523,12.813c1.38,0,2.375,0.931,2.375,1.958s-0.802,1.412-1.38,1.412c-0.706,0-1.38-0.481-1.38-1.38
			c0-0.834,0.642-1.219,0.738-1.251c-0.064-0.032-0.128-0.032-0.353-0.032c-2.438,0-3.786,2.856-3.786,6.033v4.942
			c0,1.155,0.064,1.508,2.438,1.508h0.674v0.995c-1.283-0.096-2.792-0.096-4.075-0.096c-0.898,0-2.407,0.064-3.658,0.096v-0.995
			c2.15,0,2.503,0,2.503-1.444v-8.6c0-1.572-0.257-1.797-2.503-1.797v-0.995l4.46-0.353v3.53
			C127.026,14.963,128.181,12.813,130.523,12.813z"/>
		<path d="M164.147,24.718c0.353,1.059,0.802,1.284,2.728,1.284h0.577v0.995c-1.348-0.064-2.823-0.096-4.203-0.096
			c-1.22,0-3.466,0-4.621,0.096v-0.995c0.866,0,2.663,0,2.663-0.963c0-0.128-0.064-0.321-0.096-0.449l-1.701-4.91h-7.926
			l-1.477,4.204c-0.031,0.064-0.064,0.385-0.064,0.481c0,0.834,0.803,1.637,2.407,1.637v0.995c-1.026-0.032-2.695-0.096-3.69-0.096
			c-1.155,0-2.535,0.064-3.273,0.096v-0.995c1.733-0.032,3.017-0.514,3.594-2.15l6.642-19.189c0.161-0.449,0.258-0.642,0.771-0.642
			c0.513,0,0.576,0.225,0.737,0.642L164.147,24.718z M151.921,18.686h7.22l-3.625-10.429L151.921,18.686z"/>
		<path d="M169.533,14.161v-0.995l4.524-0.353v3.37c0.898-1.99,2.406-3.37,4.749-3.37c1.861,0,2.92,0.642,3.369,1.188
			c0.995,1.155,0.995,2.15,0.995,4.91v6.129c0.032,0.963,0.834,0.963,2.503,0.963v0.995c-1.091-0.032-2.76-0.096-3.594-0.096
			c-0.867,0-2.504,0.064-3.627,0.096v-0.995c2.15,0,2.503,0,2.503-1.444v-7.477c0-1.829-0.353-3.562-2.374-3.562
			c-2.054,0-4.332,1.797-4.332,5.134v5.904c0,1.444,0.353,1.444,2.503,1.444v0.995c-1.091-0.032-2.76-0.096-3.594-0.096
			c-0.867,0-2.503,0.064-3.626,0.096v-0.995c2.149,0,2.503,0,2.503-1.444v-8.6C172.036,14.386,171.779,14.161,169.533,14.161z"/>
		<path d="M191.413,24.879c0.225,0.032,1.604,0.032,2.406,0.032c1.958,0,3.818,0,5.52,0.898c1.637,0.899,2.086,2.535,2.086,3.658
			c0,2.503-3.338,4.14-7.124,4.14c-3.915,0-7.092-1.765-7.092-4.075c0-1.284,1.027-2.664,2.952-3.209
			c-0.995-0.642-1.412-1.861-1.412-2.856c0-1.123,0.578-2.182,0.995-2.664c-0.803-0.674-1.508-1.893-1.508-3.305
			c0-2.471,2.214-4.685,5.198-4.685c0.706,0,2.054,0.096,3.401,1.155c1.348-1.315,2.76-1.508,3.401-1.508
			c1.251,0,1.637,1.027,1.637,1.573c0,0.738-0.61,0.962-0.931,0.962c-0.514,0-0.931-0.385-0.931-0.931
			c0-0.385,0.16-0.738,0.514-0.866c-0.097-0.032-0.257-0.032-0.321-0.032c-0.577,0-1.732,0.161-2.888,1.251
			c0.802,0.738,1.315,1.925,1.315,3.113c0,2.471-2.214,4.685-5.198,4.685c-0.61,0-1.926-0.096-3.177-0.995
			c-0.546,0.642-0.546,1.38-0.546,1.508C189.712,23.755,190.386,24.75,191.413,24.879z M199.756,29.532
			c0-2.76-3.594-2.76-6.354-2.76h-1.894c-1.412,0.096-2.631,1.284-2.631,2.76c0,1.701,2.214,3.337,5.455,3.337
			C197.478,32.869,199.756,31.265,199.756,29.532z M195.713,20.194c0.481-0.802,0.514-1.829,0.514-2.696
			c0-0.738,0-3.947-2.792-3.947c-1.284,0-2.021,0.898-2.278,1.284c-0.481,0.802-0.514,1.829-0.514,2.695
			c0,0.738,0,3.947,2.792,3.947C194.718,21.477,195.456,20.579,195.713,20.194z"/>
		<path d="M208.031,24.558c0,1.444,0.354,1.444,2.503,1.444v0.995c-1.188-0.032-2.76-0.096-3.562-0.096
			c-0.803,0-2.503,0.064-3.562,0.096v-0.995c2.15,0,2.503,0,2.503-1.444V7.872c0-1.573-0.256-1.797-2.503-1.797V5.08l4.621-0.353
			V24.558z"/>
		<path d="M215.763,24.397c0.738,1.187,2.021,2.15,3.626,2.15c0.321,0,3.209,0,4.332-3.305c0.064-0.257,0.129-0.449,0.417-0.449
			c0.161,0,0.418,0.064,0.418,0.385c0,0.61-1.444,4.172-5.359,4.172c-3.69,0-7.06-3.113-7.06-7.413c0-4.011,2.952-7.316,6.675-7.316
			c4.011,0,5.744,3.113,5.744,6.29c0,0.674-0.097,0.674-0.803,0.674H214.8C214.8,20.739,214.8,22.857,215.763,24.397z
			 M222.438,18.91c0-1.251-0.321-5.583-3.626-5.583c-1.091,0-3.787,0.802-3.979,5.583H222.438z"/>
	</g>
</g>
<g>
	<defs>
		<rect id="SVGID_25_" x="84.277" y="157.931" width="16.223" height="12.536"/>
	</defs>
	<clipPath id="SVGID_26_">
		<use xlink:href="#SVGID_25_"  overflow="visible"/>
	</clipPath>
	<g clip-path="url(#SVGID_26_)">
		<path d="M96.491,165.459c1.243-1.56,2.115-3.57,2.591-5.236c0.132-0.476,0.132-0.555,0.396-0.555c0.291,0,0.317,0.211,0.317,0.264
			c0,0.026-0.555,3.094-3.041,6.214c-0.264,0.317-0.264,0.37-0.264,0.925c0,0.635,0,2.697,0.819,2.697c0.053,0,1.005,0,1.481-1.295
			c0.08-0.185,0.159-0.265,0.344-0.265c0.159,0,0.317,0.08,0.317,0.265c0,0.423-0.82,1.877-2.221,1.877
			c-1.19,0-2.062-0.82-2.406-2.221c-2.01,1.613-3.914,2.221-5.58,2.221c-2.697,0-4.284-2.01-4.284-4.469
			c0-3.729,3.491-7.51,7.113-7.51c1.957,0,4.417,1.296,4.417,5.447V165.459z M94.667,164.481c0-2.062,0-5.527-2.618-5.527
			c-0.925,0-2.354,0.502-3.596,2.433c-0.846,1.349-1.534,4.205-1.534,5.5c0,1.692,0.793,2.882,2.38,2.882
			c1.058,0,3.094-0.291,5.421-2.327C94.667,166.993,94.667,165.459,94.667,164.481z"/>
	</g>
</g>
<g>
	<path d="M104.794,332.529c0-0.64,0.027-0.839,1.411-0.839h0.426v-0.56c-0.625,0.054-1.957,0.054-2.636,0.054
		c-0.679,0-2.023,0-2.649-0.054v0.56h0.426c1.384,0,1.411,0.199,1.411,0.839v4.207h-5.366v-4.207c0-0.64,0.04-0.839,1.425-0.839
		h0.426v-0.56c-0.625,0.054-1.957,0.054-2.636,0.054s-2.037,0-2.663-0.054v0.56h0.439c1.372,0,1.411,0.199,1.411,0.839v9.467
		c0,0.652-0.04,0.852-1.411,0.852h-0.439v0.546c0.626-0.053,1.957-0.053,2.637-0.053c0.692,0,2.037,0,2.662,0.053v-0.546h-0.426
		c-1.385,0-1.425-0.199-1.425-0.852v-4.7h5.366v4.7c0,0.652-0.027,0.852-1.411,0.852h-0.426v0.546
		c0.626-0.053,1.957-0.053,2.636-0.053s2.024,0,2.649,0.053v-0.546h-0.426c-1.384,0-1.411-0.199-1.411-0.852V332.529"/>
	<path d="M125.593,339.366c0.253,0,0.6,0,0.6-0.359s-0.347-0.359-0.612-0.359h-10.732c-0.266,0-0.599,0-0.599,0.359
		s0.333,0.359,0.586,0.359H125.593 M125.58,335.878c0.266,0,0.612,0,0.612-0.359c0-0.36-0.347-0.36-0.6-0.36h-10.757
		c-0.253,0-0.586,0-0.586,0.36c0,0.359,0.333,0.359,0.599,0.359H125.58z"/>
	<path d="M143.646,338.761h-0.452c-0.2,1.837-0.453,4.087-3.608,4.087h-1.478c-0.839,0-0.879-0.133-0.879-0.719v-9.573
		c0-0.612,0-0.865,1.704-0.865h0.599v-0.56c-0.652,0.054-2.29,0.054-3.021,0.054c-0.706,0-2.104,0-2.729-0.054v0.56h0.426
		c1.385,0,1.425,0.199,1.425,0.839v9.467c0,0.652-0.04,0.852-1.425,0.852h-0.426v0.546h9.359L143.646,338.761"/>
	<path d="M150.65,336.423l-2.291-0.559c-1.118-0.267-1.811-1.238-1.811-2.277c0-1.251,0.959-2.356,2.371-2.356
		c2.995,0,3.395,2.956,3.501,3.755c0.014,0.106,0.014,0.213,0.214,0.213c0.226,0,0.226-0.08,0.226-0.426v-3.608
		c0-0.307,0-0.426-0.187-0.426c-0.133,0-0.146,0.013-0.279,0.227l-0.626,1.024c-0.532-0.519-1.278-1.251-2.876-1.251
		c-1.984,0-3.502,1.57-3.502,3.475c0,1.491,0.959,2.81,2.356,3.289c0.2,0.067,1.119,0.293,2.371,0.586
		c0.479,0.134,1.025,0.253,1.531,0.919c0.372,0.466,0.559,1.065,0.559,1.651c0,1.277-0.905,2.569-2.41,2.569
		c-0.519,0-1.891-0.08-2.836-0.972c-1.052-0.959-1.105-2.117-1.118-2.757c-0.014-0.186-0.16-0.186-0.213-0.186
		c-0.24,0-0.24,0.133-0.24,0.452v3.595c0,0.307,0,0.426,0.199,0.426c0.134,0,0.147-0.04,0.267-0.226c0-0.027,0.054-0.08,0.652-1.025
		c0.56,0.612,1.704,1.251,3.303,1.251c2.104,0,3.542-1.757,3.542-3.728C153.354,338.262,152.168,336.782,150.65,336.423"/>
	<path d="M166.294,331.185h-10.971l-0.332,4.048h0.438c0.253-2.89,0.533-3.488,3.235-3.488c0.319,0,0.799,0,0.972,0.04
		c0.373,0.066,0.373,0.266,0.373,0.679v9.467c0,0.612,0,0.865-1.877,0.865h-0.719v0.546c0.731-0.053,2.569-0.053,3.395-0.053
		c0.826,0,2.677,0,3.409,0.053v-0.546h-0.719c-1.892,0-1.892-0.253-1.892-0.865v-9.467c0-0.359,0-0.612,0.333-0.679
		c0.2-0.04,0.679-0.04,1.025-0.04c2.703,0,2.969,0.599,3.222,3.488h0.453L166.294,331.185"/>
	<rect x="173.483" y="336.743" width="4.768" height="1.039"/>
	<g>
		<defs>
			<rect id="SVGID_27_" x="183.539" y="330.994" width="16.223" height="12.536"/>
		</defs>
		<clipPath id="SVGID_28_">
			<use xlink:href="#SVGID_27_"  overflow="visible"/>
		</clipPath>
		<g clip-path="url(#SVGID_28_)">
			<path d="M195.753,338.522c1.243-1.56,2.115-3.569,2.591-5.235c0.133-0.476,0.133-0.556,0.396-0.556
				c0.291,0,0.318,0.212,0.318,0.265c0,0.026-0.556,3.094-3.041,6.214c-0.265,0.318-0.265,0.371-0.265,0.926
				c0,0.635,0,2.697,0.819,2.697c0.053,0,1.005,0,1.48-1.295c0.08-0.186,0.159-0.266,0.344-0.266c0.159,0,0.318,0.08,0.318,0.266
				c0,0.422-0.82,1.877-2.222,1.877c-1.19,0-2.062-0.82-2.406-2.221c-2.01,1.612-3.913,2.221-5.579,2.221
				c-2.697,0-4.285-2.01-4.285-4.469c0-3.729,3.491-7.51,7.113-7.51c1.957,0,4.417,1.295,4.417,5.447V338.522z M193.928,337.544
				c0-2.062,0-5.526-2.617-5.526c-0.926,0-2.354,0.503-3.597,2.433c-0.847,1.35-1.534,4.205-1.534,5.5
				c0,1.693,0.794,2.883,2.381,2.883c1.057,0,3.094-0.291,5.42-2.326C193.928,340.057,193.928,338.522,193.928,337.544z"/>
		</g>
	</g>
</g>
<g>
</g>
</svg>
