<?xml version="1.0" encoding="utf-8"?>
<!-- Generator: Adobe Illustrator 16.0.0, SVG Export Plug-In . SVG Version: 6.00 Build 0)  -->
<!DOCTYPE svg PUBLIC "-//W3C//DTD SVG 1.1//EN" "http://www.w3.org/Graphics/SVG/1.1/DTD/svg11.dtd">
<svg version="1.1" id="Calque_1" xmlns="http://www.w3.org/2000/svg" xmlns:xlink="http://www.w3.org/1999/xlink" x="0px" y="0px"
	 width="1674.336px" height="708.089px" viewBox="0 0 1674.336 708.089" enable-background="new 0 0 1674.336 708.089"
	 xml:space="preserve">
<circle fill="#FFFF00" stroke="#000000" stroke-width="4.2353" cx="977.31" cy="590.142" r="96"/>
<g>
	<linearGradient id="SVGID_1_" gradientUnits="userSpaceOnUse" x1="1492.3096" y1="589.0869" x2="1628.3096" y2="589.0869">
		<stop  offset="0" style="stop-color:#7ACFE1"/>
		<stop  offset="1" style="stop-color:#F8FDE6"/>
	</linearGradient>
	<circle fill="url(#SVGID_1_)" stroke="#000000" stroke-width="4" cx="1560.31" cy="589.087" r="68"/>
	<g>
		<g>
			<path fill="none" stroke="#000000" stroke-width="4.2353" d="M1653.138,549.233c6.519,13.516,10.172,28.674,10.172,44.686
				c0,56.885-46.114,103-103,103s-103-46.115-103-103c0-10.256,1.499-20.162,4.29-29.511"/>
			<g>
				<path d="M1656.492,556.153l17.844-0.731v-0.626l-22.019-15.232c-6.392-6.159-12.784-12.318-19.176-18.477
					c3.215,8.274,6.436,16.545,9.65,24.819l5.566,26.188l0.502,0.292L1656.492,556.153z"/>
			</g>
		</g>
	</g>
</g>
<g>
	<linearGradient id="SVGID_2_" gradientUnits="userSpaceOnUse" x1="1206.5898" y1="126.2549" x2="1342.5898" y2="126.2549">
		<stop  offset="0" style="stop-color:#7ACFE1"/>
		<stop  offset="1" style="stop-color:#F8FDE6"/>
	</linearGradient>
	<circle fill="url(#SVGID_2_)" stroke="#000000" stroke-width="4" cx="1274.59" cy="126.255" r="68"/>
	<g>
		<g>
			<path fill="none" stroke="#000000" stroke-width="4.2353" d="M1367.419,86.401c6.518,13.517,10.171,28.674,10.171,44.686
				c0,56.885-46.114,103-103,103s-103-46.115-103-103c0-10.256,1.499-20.162,4.29-29.511"/>
			<g>
				<path d="M1370.772,93.321l17.844-0.731l0.001-0.626l-22.02-15.232c-6.392-6.159-12.784-12.317-19.176-18.477
					c3.215,8.275,6.436,16.545,9.65,24.82l5.566,26.188l0.502,0.292L1370.772,93.321z"/>
			</g>
		</g>
	</g>
</g>
<line fill="none" stroke="#000000" stroke-width="4" x1="668.31" y1="589.614" x2="1630.218" y2="589.614"/>
<g>
	<g>
		<path fill="none" stroke="#000000" stroke-width="5" d="M1444.972,241.291c99.925,103.257,115.338,252.851,115.338,252.851"/>
		<g>
			<path d="M1451.2,247.772l20.3-5.693l-0.17-0.719l-29.438-11.511c-9.018-5.337-18.036-10.674-27.054-16.012
				c5.943,8.632,11.893,17.257,17.836,25.889l13.516,28.57l0.656,0.199L1451.2,247.772z"/>
		</g>
	</g>
</g>
<line fill="#0034FF" stroke="#0034FF" stroke-width="5" x1="451.358" y1="589.614" x2="998.359" y2="589.614"/>
<polygon fill="none" stroke="#0034FF" stroke-width="5" points="283.475,559.107 321.663,516.808 318.756,573.721 375.668,570.813 
	333.37,609.002 375.668,647.19 318.756,644.283 321.663,701.195 283.475,658.897 245.286,701.195 248.193,644.283 191.281,647.19 
	233.58,609.002 191.281,570.813 248.193,573.721 245.286,516.808 "/>
<polygon fill="none" stroke="#0034FF" stroke-width="5" points="262.737,49.193 300.925,6.894 298.018,63.806 354.931,60.899 
	312.632,99.087 354.931,137.276 298.018,134.369 300.925,191.281 262.737,148.983 224.548,191.281 227.456,134.369 170.543,137.276 
	212.842,99.087 170.543,60.899 227.456,63.806 224.548,6.894 "/>
<polygon fill="none" stroke="#0034FF" stroke-width="5" points="399.176,304.095 437.365,261.795 434.458,318.708 491.37,315.801 
	449.071,353.989 491.37,392.178 434.458,389.271 437.365,446.183 399.176,403.885 360.988,446.183 363.895,389.271 306.982,392.178 
	349.281,353.989 306.982,315.801 363.895,318.708 360.988,261.795 "/>
<polygon fill="none" stroke="#0034FF" stroke-width="5" points="99.087,332.279 137.276,289.98 134.369,346.893 191.281,343.985 
	148.982,382.174 191.281,420.362 134.369,417.456 137.276,474.368 99.087,432.069 60.899,474.368 63.806,417.456 6.894,420.362 
	49.192,382.174 6.894,343.985 63.806,346.893 60.899,289.98 "/>
<line fill="none" stroke="#000000" stroke-width="4" x1="1038.532" y1="500.4" x2="1310.74" y2="69.875"/>
<line fill="#0034FF" stroke="#0034FF" stroke-width="5" x1="451.358" y1="126.255" x2="1342.589" y2="126.255"/>
<g>
</g>
</svg>
