<?xml version="1.0" encoding="utf-8"?>
<!-- Generator: Adobe Illustrator 16.0.0, SVG Export Plug-In . SVG Version: 6.00 Build 0)  -->
<!DOCTYPE svg PUBLIC "-//W3C//DTD SVG 1.0//EN" "http://www.w3.org/TR/2001/REC-SVG-20010904/DTD/svg10.dtd">
<svg version="1.0" id="Calque_1" xmlns="http://www.w3.org/2000/svg" xmlns:xlink="http://www.w3.org/1999/xlink" x="0px" y="0px"
	 width="274.53px" height="307.453px" viewBox="0 0 274.53 307.453" enable-background="new 0 0 274.53 307.453"
	 xml:space="preserve">
<path fill="#8585FF" d="M273.487,158.685c0,18.37-57.309,33.266-128.004,33.266c-70.695,0-128.003-14.896-128.003-33.266
	c0-18.375,57.309-33.271,128.003-33.271C216.179,125.414,273.487,140.309,273.487,158.685z"/>
<path opacity="0.5" fill="#FF0005" d="M234.202,71.762c11.992,12.281-18.755,61.754-68.677,110.496
	c-49.921,48.747-100.109,78.305-112.105,66.024c-11.992-12.285,18.755-61.754,68.677-110.5
	C172.019,89.035,222.207,59.477,234.202,71.762z"/>
<path fill="none" stroke="#000000" stroke-width="0.75" d="M274.155,162.024c0,69.035-57.461,124.996-128.34,124.996
	c-70.878,0-128.335-55.961-128.335-124.996c0-69.031,57.457-124.992,128.335-124.992C216.694,37.032,274.155,92.993,274.155,162.024
	z"/>
<path fill="none" stroke="#000000" stroke-width="0.75" d="M145.815,37.032c0,249.988,0,249.988,0,249.988"/>
<path fill="none" stroke="#000000" stroke-width="0.75" d="M273.487,158.685c-255.883-1.441-255.883-1.441-255.883-1.441"/>
<path fill="none" stroke="#000000" stroke-width="0.75" d="M155.991,192.06c-20.254-65.336-20.867-66.652-20.867-66.652"/>
<path fill="none" stroke="#000000" stroke-width="0.75" d="M66.272,63.766C229.37,257.61,228.558,257.578,228.558,257.578"/>
<path fill="none" stroke="#000000" stroke-width="0.75" d="M234.202,71.762C53.42,248.282,53.42,248.282,53.42,248.282"/>
<path fill="none" stroke="#000000" stroke-width="0.75" d="M66.679,64.16c16.746-13.753,41.508-14.047,68.363-0.808
	s53.391,38.816,73.258,70.613"/>
<path fill="none" stroke="#000000" stroke-width="0.75" d="M146.401,37.829c13.727,0,26.715,17.332,35.348,47.152
	c8.629,29.824,12.094,67.303,9.219,104.807"/>
<path fill="none" stroke="#000000" stroke-width="0.75" d="M186.386,104.375c43.547-39.793,48.309-32.519,48.309-32.519"/>
<path fill="none" stroke="#000000" stroke-width="0.75" d="M208.3,133.965c-62.484,24.438-62.484,24.438-62.484,24.438"/>
<path fill="none" stroke="#000000" stroke-width="0.75" d="M203.886,127.399c6.016-7.352,6.016-7.352,6.016-7.352l4.68,6.016"/>
<path fill="none" stroke="#000000" stroke-width="0.75" d="M94.625,47.371c6.855,2.911-0.051,6.52-0.051,6.52"/>
<path fill="none" stroke="#000000" stroke-width="0.75" d="M132.952,37.649c6.101,9.387,27.551,6.691,27.82,6.656"/>
<path fill="none" stroke="#000000" stroke-width="0.75" d="M167.218,85.18c5.617-8.84,12.329-7.164,12.363-7.156"/>
<path fill="none" stroke="#000000" stroke-width="0.375" d="M183.612,34.262c-15.305,10.203-15.305,10.203-15.305,10.203"/>
<polygon fill-rule="evenodd" clip-rule="evenodd" points="171.429,42.387 171.843,40.305 168.307,44.465 173.507,42.801 "/>
<polygon fill="none" stroke="#000000" stroke-width="0.4" points="171.429,42.387 171.843,40.305 168.307,44.465 173.507,42.801 "/>
<path fill="none" stroke="#000000" stroke-width="0.75" d="M166.249,50.547c8.258-0.058,14.523-2.101,16.75-8.191"/>
<g>
	<defs>
		<rect id="SVGID_1_" x="109.023" y="43.616" width="9.755" height="10.104"/>
	</defs>
	<clipPath id="SVGID_2_">
		<use xlink:href="#SVGID_1_"  overflow="visible"/>
	</clipPath>
	<path clip-path="url(#SVGID_2_)" d="M115.972,45.389v0.723c0,0.724,0.027,1.457,0.064,2.18c0.009,0.251,0.064,1.187,0.121,1.837
		h-2.282c-0.205,0-0.389,0-0.715,0.204c0.873-1.354,1.597-2.653,1.68-2.792c0.622-1.113,0.955-1.836,1.123-2.152H115.972
		 M116.222,50.816c0.065,0.788,0.213,1.363,0.278,1.604c0.14,0.566,0.205,0.835,0.733,0.835c0.566,0,1.531-0.557,1.531-0.808
		c0-0.064-0.046-0.093-0.111-0.093c-0.167,0-0.427,0.14-0.464,0.167c-0.083,0.046-0.11,0.046-0.139,0.046
		c-0.353,0-0.426-0.334-0.575-1.086c-0.084-0.417-0.195-0.918-0.297-2.625c-0.093-1.281-0.139-2.561-0.139-3.831
		c0-0.307,0.01-0.632,0.01-0.929c0-0.204,0-0.25-0.14-0.25c-0.167,0-0.686,0.213-0.909,0.547l-0.092,0.139
		c-0.983,2.115-1.912,3.627-2.561,4.648c-0.742,1.132-2.041,3.172-2.718,3.172c-0.463,0-0.844-0.296-0.965-0.751
		c-0.009-0.019-0.037-0.093-0.083-0.093c-0.186,0-0.464,0.594-0.464,0.946c0,0.501,0.539,1.049,1.132,1.049
		c0.862,0,2.301-2.246,2.569-2.69H116.222z"/>
</g>
<g>
	<path d="M205.217,35.963c0.142-0.522,0.186-0.686,1.556-0.686c0.445,0,0.565,0,0.565-0.283c0-0.174-0.163-0.174-0.239-0.174
		c-0.479,0-1.687,0.043-2.176,0.043c-0.436,0-1.5-0.043-1.947-0.043c-0.098,0-0.282,0-0.282,0.294c0,0.163,0.142,0.163,0.413,0.163
		c0.032,0,0.316,0,0.555,0.033c0.272,0.021,0.402,0.043,0.402,0.229c0,0.065-0.01,0.109-0.054,0.283l-1.969,7.875
		c-0.153,0.577-0.174,0.697-1.339,0.697c-0.249,0-0.391,0-0.391,0.293c0,0.152,0.13,0.152,0.391,0.152h6.788
		c0.357,0,0.37,0,0.456-0.25l1.164-3.165c0.055-0.164,0.055-0.186,0.055-0.207c0-0.054-0.043-0.164-0.174-0.164
		c-0.13,0-0.142,0.077-0.25,0.315c-0.501,1.35-1.143,3.024-3.677,3.024h-1.382c-0.206,0-0.238,0-0.326-0.022
		c-0.142-0.011-0.185-0.021-0.185-0.141c0-0.044,0-0.076,0.065-0.337L205.217,35.963"/>
	<path d="M213.406,45.775c-0.076,0.283-0.293,0.489-0.521,0.684c-0.087,0.077-0.5,0.402-0.935,0.402
		c-0.381,0-0.751-0.261-0.751-0.99c0-0.543,0.293-1.664,0.533-2.078c0.467-0.815,0.989-0.978,1.272-0.978
		c0.718,0,0.913,0.783,0.913,0.892c0,0.043-0.021,0.12-0.032,0.152L213.406,45.775 M214.06,43.142
		c-0.206-0.337-0.555-0.608-1.055-0.608c-1.306,0-2.632,1.446-2.632,2.915c0,1,0.663,1.707,1.543,1.707
		c0.556,0,1.045-0.326,1.448-0.717c0.195,0.608,0.794,0.717,1.055,0.717c0.369,0,0.632-0.229,0.815-0.544
		c0.218-0.402,0.359-0.989,0.359-1.022c0-0.141-0.142-0.141-0.163-0.141c-0.153,0-0.163,0.043-0.229,0.327
		c-0.12,0.489-0.315,1.086-0.751,1.086c-0.261,0-0.337-0.217-0.337-0.5c0-0.174,0.087-0.544,0.152-0.805
		c0.076-0.283,0.174-0.696,0.229-0.924l0.206-0.772c0.055-0.272,0.186-0.751,0.186-0.805c0-0.229-0.186-0.327-0.348-0.327
		C214.364,42.729,214.125,42.848,214.06,43.142z"/>
</g>
<path d="M49.562,250.841c0-0.057-0.042-0.184-0.212-0.184c-0.099,0-0.112,0.015-0.339,0.282l-0.918,1.088
	c-0.494-0.904-1.482-1.37-2.726-1.37c-2.415,0-4.703,2.189-4.703,4.491c0,1.539,1.003,2.415,1.978,2.697l2.034,0.536
	c0.706,0.17,1.765,0.467,1.765,2.02c0,1.724-1.567,3.503-3.432,3.503c-1.229,0-3.333-0.409-3.333-2.782
	c0-0.451,0.099-0.903,0.113-1.017c0.014-0.085,0.042-0.099,0.042-0.142c0-0.184-0.141-0.212-0.24-0.212
	c-0.085,0-0.127,0.028-0.184,0.085c-0.084,0.07-1.144,4.421-1.144,4.477c0,0.113,0.099,0.185,0.212,0.185
	c0.099,0,0.113-0.015,0.339-0.283l0.933-1.087c0.819,1.102,2.118,1.37,3.219,1.37c2.6,0,4.845-2.528,4.845-4.901
	c0-1.313-0.649-1.948-0.932-2.217c-0.438-0.438-0.735-0.522-2.43-0.961c-0.41-0.112-1.102-0.296-1.271-0.339
	c-0.509-0.169-1.158-0.72-1.158-1.737c0-1.539,1.524-3.163,3.333-3.163c1.581,0,2.739,0.819,2.739,2.952
	c0,0.621-0.07,0.96-0.07,1.072c0,0.015,0,0.185,0.226,0.185c0.184,0,0.212-0.057,0.283-0.382L49.562,250.841"/>
<g>
	<path d="M133.514,299.644l-2.443-0.594c-1.186-0.282-1.92-1.313-1.92-2.414c0-1.328,1.03-2.5,2.514-2.5
		c3.178,0,3.602,3.135,3.714,3.982c0.015,0.113,0.015,0.226,0.226,0.226c0.255,0,0.255-0.085,0.255-0.452v-3.827
		c0-0.324,0-0.451-0.212-0.451c-0.142,0-0.155,0.014-0.297,0.239l-0.664,1.088c-0.564-0.551-1.355-1.327-3.05-1.327
		c-2.104,0-3.715,1.666-3.715,3.686c0,1.582,1.018,2.979,2.5,3.488c0.212,0.07,1.187,0.312,2.514,0.636
		c0.523,0.127,1.088,0.255,1.624,0.96c0.396,0.494,0.594,1.13,0.594,1.752c0,1.355-0.961,2.726-2.557,2.726
		c-0.551,0-2.005-0.085-3.008-1.031c-1.102-1.017-1.158-2.245-1.187-2.923c-0.014-0.198-0.169-0.198-0.226-0.198
		c-0.255,0-0.255,0.142-0.255,0.48v3.812c0,0.325,0,0.452,0.212,0.452c0.142,0,0.155-0.042,0.297-0.24
		c0-0.027,0.057-0.084,0.678-1.087c0.593,0.649,1.808,1.327,3.503,1.327c2.231,0,3.757-1.863,3.757-3.954
		C136.368,301.593,135.11,300.025,133.514,299.644"/>
	<path d="M138.486,300.52c0,3.939,3.079,6.934,6.623,6.934c3.107,0,4.972-2.641,4.972-4.858c0-0.183,0-0.324-0.24-0.324
		c-0.213,0-0.213,0.112-0.24,0.311c-0.141,2.726-2.19,4.279-4.265,4.279c-1.158,0-4.887-0.649-4.887-6.327
		c0-5.691,3.714-6.342,4.872-6.342c2.076,0,3.771,1.737,4.153,4.521c0.043,0.268,0.043,0.324,0.311,0.324
		c0.297,0,0.297-0.057,0.297-0.452v-4.52c0-0.324,0-0.451-0.213-0.451c-0.07,0-0.141,0-0.295,0.226l-0.961,1.412
		c-0.706-0.692-1.667-1.638-3.503-1.638C141.55,293.613,138.486,296.636,138.486,300.52"/>
	<path d="M155.419,300.52v-5.142c0-0.635,0.043-0.762,0.934-0.762h1.693c3.037,0,3.037,2.02,3.037,2.951
		c0,0.903,0,2.952-3.037,2.952H155.419 M155.476,301.014h3.221c2.287,0,4.35-1.54,4.35-3.446c0-1.864-1.893-3.545-4.506-3.545
		h-6.723v0.594h0.467c1.453,0,1.496,0.212,1.496,0.889v10.042c0,0.692-0.043,0.904-1.496,0.904h-0.467v0.579
		c0.664-0.057,2.076-0.057,2.797-0.057c0.734,0,2.16,0,2.824,0.057v-0.579h-0.451c-1.469,0-1.512-0.212-1.512-0.904V301.014z"/>
</g>
<g>
	<path d="M131.57,0.663c-0.17-0.226-0.184-0.254-0.552-0.254h-3.233v0.594h0.551c0.283,0,0.663,0.014,0.946,0.042
		c0.438,0.057,0.466,0.07,0.466,0.438v9.942c0,0.509,0,1.413-1.963,1.413v0.579c0.664-0.015,1.596-0.057,2.231-0.057
		c0.621,0,1.554,0.042,2.218,0.057v-0.579c-1.95,0-1.95-0.904-1.95-1.413V1.511c0.085,0.099,0.113,0.127,0.184,0.24l7.769,11.425
		c0.169,0.227,0.198,0.241,0.324,0.241c0.269,0,0.269-0.128,0.269-0.495V2.415c0-0.523,0-1.412,1.963-1.412V0.409
		c-0.663,0.028-1.596,0.057-2.231,0.057c-0.622,0-1.553-0.028-2.231-0.057v0.594c1.963,0,1.963,0.889,1.963,1.412v8.135
		L131.57,0.663"/>
	<path d="M142.486,6.906c0,3.939,3.094,6.934,6.624,6.934c3.108,0,4.971-2.641,4.971-4.858c0-0.183,0-0.324-0.24-0.324
		c-0.211,0-0.211,0.112-0.227,0.311c-0.154,2.726-2.188,4.279-4.264,4.279c-1.173,0-4.9-0.649-4.9-6.327
		c0-5.691,3.714-6.342,4.872-6.342c2.076,0,3.771,1.737,4.152,4.521c0.043,0.268,0.043,0.324,0.311,0.324
		c0.297,0,0.297-0.057,0.297-0.452v-4.52c0-0.324,0-0.451-0.197-0.451c-0.084,0-0.156,0-0.311,0.226l-0.947,1.412
		C151.921,0.945,150.946,0,149.11,0C145.551,0,142.486,3.022,142.486,6.906"/>
	<path d="M159.421,6.906V1.765c0-0.635,0.041-0.762,0.932-0.762h1.695c3.035,0,3.035,2.02,3.035,2.951c0,0.903,0,2.952-3.035,2.952
		H159.421 M159.476,7.4h3.221c2.287,0,4.35-1.54,4.35-3.446c0-1.864-1.893-3.545-4.504-3.545h-6.723v0.594h0.465
		c1.469,0,1.498,0.212,1.498,0.889v10.042c0,0.692-0.029,0.904-1.498,0.904h-0.465v0.579c0.676-0.057,2.074-0.057,2.809-0.057
		c0.723,0,2.146,0,2.811,0.057v-0.579h-0.451c-1.469,0-1.512-0.212-1.512-0.904V7.4z"/>
</g>
<path d="M135.985,110.13c0.479-0.848,0.931-1.525,2.132-1.624c0.17-0.015,0.368-0.015,0.368-0.382c0-0.07-0.085-0.212-0.227-0.212
	c-0.466,0-1.004,0.057-1.469,0.057c-0.65,0-1.355-0.057-1.992-0.057c-0.112,0-0.352,0-0.352,0.367c0,0.212,0.168,0.227,0.281,0.227
	c0.452,0.014,1.13,0.169,1.13,0.748c0,0.197-0.099,0.354-0.255,0.621l-5.14,8.969l-0.707-9.448c-0.013-0.382-0.056-0.876,1.328-0.89
	c0.324,0,0.522,0,0.522-0.382c0-0.184-0.211-0.212-0.282-0.212c-0.763,0-1.568,0.057-2.33,0.057c-0.438,0-1.567-0.057-2.006-0.057
	c-0.113,0-0.354,0-0.354,0.382c0,0.212,0.184,0.212,0.452,0.212c0.834,0,0.975,0.113,1.017,0.48l0.113,1.468l-4.829,8.39
	l-0.722-9.646c0-0.241,0-0.679,1.455-0.692c0.185,0,0.396,0,0.396-0.382c0-0.212-0.226-0.212-0.269-0.212
	c-0.762,0-1.553,0.057-2.344,0.057c-0.664,0-1.356-0.057-1.991-0.057c-0.1,0-0.354,0-0.354,0.367c0,0.227,0.17,0.227,0.48,0.227
	c0.96,0,0.974,0.169,1.017,0.706l0.848,11.637c0.027,0.34,0.042,0.495,0.311,0.495c0.226,0,0.283-0.113,0.451-0.396l5.607-9.716
	l0.707,9.617c0.027,0.396,0.07,0.495,0.296,0.495c0.254,0,0.367-0.185,0.467-0.367L135.985,110.13"/>
<path d="M123.659,172.646c-1.893,0-3.219-1.54-3.219-4.054c0-0.847,0.267-3.63,1.723-5.847c1.313-1.991,3.191-2.98,4.688-2.98
	c1.567,0,3.276,1.074,3.276,3.912c0,1.37-0.509,4.336-2.401,6.681C126.808,171.516,125.254,172.646,123.659,172.646
	 M131.822,164.412c0-3.065-2.02-5.112-4.858-5.112c-4.109,0-8.304,4.321-8.304,8.756c0,3.164,2.133,5.084,4.872,5.084
	C127.571,173.14,131.822,168.974,131.822,164.412z"/>
<g>
	<path d="M142.488,46.276c0.083-0.332,0.104-0.428,0.779-0.428c0.241,0,0.317,0,0.317-0.187c0-0.104-0.103-0.104-0.131-0.104
		c-0.262,0-0.931,0.028-1.186,0.028c-0.276,0-0.932-0.028-1.2-0.028c-0.076,0-0.18,0-0.18,0.187c0,0.104,0.083,0.104,0.262,0.104
		c0.014,0,0.193,0,0.352,0.021c0.166,0.014,0.248,0.027,0.248,0.145c0,0.042-0.006,0.055-0.034,0.179l-0.559,2.269h-2.834
		l0.544-2.185c0.083-0.332,0.111-0.428,0.787-0.428c0.241,0,0.31,0,0.31-0.187c0-0.104-0.097-0.104-0.125-0.104
		c-0.261,0-0.931,0.028-1.192,0.028c-0.27,0-0.931-0.028-1.2-0.028c-0.076,0-0.179,0-0.179,0.187c0,0.104,0.083,0.104,0.262,0.104
		c0.021,0,0.193,0,0.351,0.021c0.173,0.014,0.255,0.027,0.255,0.145c0,0.042-0.014,0.069-0.042,0.179l-1.241,4.993
		c-0.096,0.366-0.117,0.441-0.848,0.441c-0.166,0-0.255,0-0.255,0.186c0,0.097,0.117,0.097,0.131,0.097
		c0.263,0,0.924-0.028,1.187-0.028c0.192,0,0.399,0.014,0.592,0.014c0.207,0,0.408,0.014,0.607,0.014c0.068,0,0.186,0,0.186-0.186
		c0-0.097-0.09-0.097-0.262-0.097c-0.344,0-0.607,0-0.607-0.172c0-0.055,0.021-0.097,0.028-0.159l0.634-2.544h2.834
		c-0.386,1.544-0.6,2.427-0.642,2.565c-0.09,0.296-0.269,0.311-0.848,0.311c-0.138,0-0.22,0-0.22,0.186
		c0,0.097,0.11,0.097,0.131,0.097c0.262,0,0.924-0.028,1.179-0.028c0.2,0,0.4,0.014,0.601,0.014c0.199,0,0.407,0.014,0.6,0.014
		c0.076,0,0.187,0,0.187-0.186c0-0.097-0.083-0.097-0.255-0.097c-0.346,0-0.607,0-0.607-0.172c0-0.055,0.021-0.097,0.027-0.159
		L142.488,46.276"/>
	<path d="M133.667,49.823c0.098,0,0.2,0,0.2-0.186s-0.102-0.186-0.2-0.186h-3.106c-0.094,0-0.2,0-0.2,0.186s0.106,0.186,0.2,0.186
		H133.667"/>
</g>
<g>
	<path d="M23.885,38.207c0.172-0.216,0.172-0.244,0.172-0.331c0-0.243-0.144-0.243-0.503-0.243h-6.192l-0.214,3.117h0.487
		c0.115-1.982,0.475-2.701,2.614-2.701h2.199l-5.402,7.312c-0.172,0.216-0.172,0.245-0.172,0.346c0,0.273,0.129,0.273,0.502,0.273
		h6.395l0.329-3.621h-0.487c-0.173,2.284-0.575,3.132-2.831,3.132h-2.285L23.885,38.207"/>
	<path d="M27.06,41.497h5.402c0.432,0,0.488,0,0.488-0.402c0-1.91-1.049-3.793-3.463-3.793c-2.255,0-4.036,1.997-4.036,4.411
		c0,2.601,2.039,4.482,4.267,4.482c2.356,0,3.232-2.155,3.232-2.528c0-0.188-0.158-0.23-0.244-0.23
		c-0.187,0-0.216,0.115-0.259,0.273c-0.675,1.997-2.428,1.997-2.614,1.997c-0.963,0-1.738-0.574-2.185-1.294
		C27.06,43.479,27.06,42.201,27.06,41.497 M27.075,41.095c0.129-2.888,1.753-3.376,2.413-3.376c1.997,0,2.185,2.615,2.185,3.376
		H27.075z"/>
	<path d="M35.681,39.313v5.186c0,0.877-0.217,0.877-1.524,0.877v0.604c0.689-0.015,1.667-0.058,2.199-0.058
		c0.503,0,1.508,0.043,2.169,0.058v-0.604c-1.293,0-1.508,0-1.508-0.877v-3.562c0-2.011,1.364-3.103,2.614-3.103
		c1.222,0,1.437,1.048,1.437,2.154v4.511c0,0.877-0.215,0.877-1.523,0.877v0.604c0.69-0.015,1.667-0.058,2.198-0.058
		c0.504,0,1.509,0.043,2.17,0.058v-0.604c-1.006,0-1.494,0-1.509-0.574v-3.707c0-1.666,0-2.271-0.604-2.96
		c-0.272-0.329-0.919-0.718-2.04-0.718c-1.407,0-2.327,0.833-2.859,2.025v-2.025l-2.744,0.216v0.589
		C35.523,38.222,35.681,38.365,35.681,39.313"/>
	<path d="M47.791,34.041c0-0.618-0.487-1.021-1.033-1.021c-0.604,0-1.02,0.518-1.02,1.021c0,0.531,0.416,1.034,1.02,1.034
		C47.303,35.075,47.791,34.659,47.791,34.041 M47.706,37.417l-2.715,0.216v0.589c1.264,0,1.437,0.129,1.437,1.077v5.2
		c0,0.877-0.202,0.877-1.509,0.877v0.604c0.617-0.015,1.667-0.058,2.126-0.058c0.69,0,1.365,0.043,2.025,0.058v-0.604
		c-1.279,0-1.364-0.101-1.364-0.848V37.417z"/>
	<path d="M52.978,38.222h2.772v-0.589h-2.772v-3.577H52.49c-0.015,1.595-0.604,3.663-2.5,3.75v0.416h1.651v5.358
		c0,2.386,1.796,2.615,2.501,2.615c1.364,0,1.911-1.379,1.911-2.615v-1.106h-0.489v1.063c0,1.438-0.574,2.17-1.294,2.17
		c-1.292,0-1.292-1.768-1.292-2.098V38.222"/>
	<path d="M59.314,44.499c0,0.877-0.216,0.877-1.523,0.877v0.604c0.69-0.015,1.667-0.058,2.198-0.058c0.504,0,1.51,0.043,2.17,0.058
		v-0.604c-1.309,0-1.508,0-1.508-0.877v-3.562c0-2.011,1.364-3.103,2.614-3.103c1.22,0,1.421,1.048,1.421,2.154v4.511
		c0,0.877-0.201,0.877-1.507,0.877v0.604c0.688-0.015,1.666-0.058,2.197-0.058c0.503,0,1.509,0.043,2.17,0.058v-0.604
		c-1.006,0-1.494,0-1.509-0.574v-3.707c0-1.666,0-2.271-0.604-2.96c-0.271-0.329-0.919-0.718-2.038-0.718
		c-1.625,0-2.486,1.164-2.802,1.896v-6.781l-2.803,0.216v0.603c1.365,0,1.523,0.13,1.523,1.078V44.499"/>
</g>
<g>
	<path d="M224.225,269.479v5.192c0,0.877-0.216,0.877-1.51,0.877v0.604c0.676-0.015,1.668-0.058,2.186-0.058
		c0.504,0,1.511,0.043,2.172,0.058v-0.604c-1.294,0-1.511,0-1.511-0.877v-3.566c0-2.014,1.381-3.106,2.618-3.106
		c1.223,0,1.438,1.05,1.438,2.157v4.516c0,0.877-0.216,0.877-1.511,0.877v0.604c0.676-0.015,1.669-0.058,2.187-0.058
		c0.503,0,1.51,0.043,2.171,0.058v-0.604c-1.006,0-1.495,0-1.509-0.575v-3.71c0-1.669,0-2.272-0.604-2.963
		c-0.273-0.331-0.906-0.719-2.043-0.719c-1.409,0-2.314,0.834-2.861,2.027v-2.027l-2.732,0.215v0.59
		C224.066,268.386,224.225,268.529,224.225,269.479"/>
	<path d="M239.167,271.492v1.941c0,1.841-1.409,2.503-2.271,2.503c-0.949,0-1.755-0.676-1.755-1.654
		C235.141,273.218,235.96,271.607,239.167,271.492 M239.297,274.671c0.071,0.776,0.604,1.597,1.511,1.597
		c0.417,0,1.596-0.273,1.596-1.841v-1.094h-0.489v1.094c0,1.121-0.488,1.236-0.689,1.236c-0.647,0-0.72-0.862-0.72-0.963v-3.884
		c0-0.819,0-1.567-0.705-2.287c-0.762-0.762-1.725-1.063-2.66-1.063c-1.582,0-2.919,0.905-2.919,2.186
		c0,0.59,0.388,0.906,0.892,0.906c0.531,0,0.892-0.374,0.892-0.892c0-0.23-0.101-0.863-0.993-0.892
		c0.519-0.677,1.468-0.892,2.101-0.892c0.949,0,2.056,0.763,2.056,2.487v0.72c-0.991,0.058-2.358,0.115-3.58,0.69
		c-1.453,0.661-1.928,1.668-1.928,2.531c0,1.567,1.87,2.057,3.092,2.057C238.031,276.368,238.923,275.591,239.297,274.671z"/>
	<path d="M249.925,269.882v3.983c0,0.346,0,0.389-0.201,0.72c-0.589,0.92-1.466,1.352-2.301,1.352c-0.863,0-1.567-0.504-2.028-1.236
		c-0.503-0.792-0.561-1.898-0.561-2.704c0-0.72,0.028-1.87,0.604-2.747c0.402-0.604,1.137-1.251,2.186-1.251
		c0.676,0,1.496,0.302,2.1,1.164C249.925,269.493,249.925,269.536,249.925,269.882 M249.925,275.088v1.28l2.862-0.216v-0.604
		c-1.366,0-1.524-0.129-1.524-1.078V262.69l-2.79,0.216v0.604c1.366,0,1.51,0.13,1.51,1.079v4.186
		c-0.561-0.69-1.395-1.193-2.444-1.193c-2.287,0-4.314,1.897-4.314,4.4c0,2.459,1.898,4.387,4.113,4.387
		C248.573,276.368,249.45,275.706,249.925,275.088z"/>
	<path d="M256.814,264.2c0-0.618-0.475-1.021-1.021-1.021c-0.604,0-1.036,0.518-1.036,1.021c0,0.532,0.432,1.036,1.036,1.036
		C256.34,265.236,256.814,264.819,256.814,264.2 M256.742,267.581l-2.718,0.215v0.59c1.265,0,1.438,0.13,1.438,1.079v5.206
		c0,0.877-0.217,0.877-1.511,0.877v0.604c0.618-0.015,1.669-0.058,2.129-0.058c0.676,0,1.366,0.043,2.014,0.058v-0.604
		c-1.28,0-1.353-0.101-1.353-0.848V267.581z"/>
	<path d="M261.949,269.709v-2.128l-2.69,0.215v0.59c1.353,0,1.511,0.144,1.511,1.093v5.192c0,0.877-0.216,0.877-1.511,0.877v0.604
		c0.748-0.015,1.669-0.058,2.201-0.058c0.776,0,1.697,0,2.474,0.058v-0.604h-0.417c-1.438,0-1.467-0.216-1.467-0.905v-2.992
		c0-1.912,0.805-3.652,2.287-3.652c0.128,0,0.172,0,0.215,0.028c-0.058,0.015-0.445,0.245-0.445,0.748
		c0,0.546,0.402,0.834,0.834,0.834c0.345,0,0.834-0.23,0.834-0.849s-0.604-1.179-1.438-1.179
		C262.912,267.581,262.223,268.875,261.949,269.709"/>
</g>
<path d="M264,39.743c0.191-0.799,0.562-1.404,2.158-1.463c0.088,0,0.325-0.03,0.325-0.399c0-0.03,0-0.222-0.252-0.222
	c-0.664,0-1.359,0.059-2.01,0.059c-0.68,0-1.375-0.059-2.04-0.059c-0.118,0-0.354,0-0.354,0.399c0,0.222,0.192,0.222,0.354,0.222
	c1.139,0.014,1.36,0.428,1.36,0.872c0,0.059-0.045,0.354-0.06,0.412l-2.231,8.869l-4.405-10.405
	c-0.162-0.354-0.177-0.369-0.636-0.369h-2.675c-0.397,0-0.576,0-0.576,0.399c0,0.222,0.179,0.222,0.548,0.222
	c0.103,0,1.358,0,1.358,0.176l-2.675,10.702c-0.192,0.798-0.532,1.433-2.144,1.493c-0.118,0-0.34,0.014-0.34,0.398
	c0,0.148,0.104,0.222,0.252,0.222c0.65,0,1.345-0.06,1.995-0.06c0.68,0,1.404,0.06,2.054,0.06c0.104,0,0.355,0,0.355-0.398
	c0-0.208-0.177-0.222-0.399-0.222c-1.152-0.045-1.314-0.473-1.314-0.872c0-0.148,0.028-0.237,0.089-0.459l2.63-10.523
	c0.074,0.119,0.074,0.147,0.178,0.355l4.966,11.735c0.133,0.34,0.192,0.384,0.37,0.384c0.222,0,0.222-0.06,0.324-0.414L264,39.743"
	/>
<g>
	<g>
		<defs>
			<rect id="SVGID_3_" x="178.162" y="58.148" width="14.958" height="8.724"/>
		</defs>
		<clipPath id="SVGID_4_">
			<use xlink:href="#SVGID_3_"  overflow="visible"/>
		</clipPath>
		<path clip-path="url(#SVGID_4_)" d="M180.636,63.923c-0.184,0-0.697,0-1.046-0.706c-0.199-0.415-0.199-0.971-0.199-1.518
			c0-0.606,0-1.129,0.232-1.544c0.307-0.564,0.73-0.705,1.119-0.705c0.516,0,0.889,0.381,1.08,0.879
			c0.133,0.365,0.174,1.071,0.174,1.585C181.996,62.844,181.614,63.923,180.636,63.923 M182.021,63.068v0.357
			c0,2.614-1.162,3.128-1.816,3.128c-0.184,0-0.789-0.017-1.096-0.399c0.498,0,0.581-0.323,0.581-0.514
			c0-0.348-0.266-0.514-0.515-0.514c-0.175,0-0.515,0.1-0.515,0.531c0,0.756,0.606,1.212,1.561,1.212
			c1.444,0,2.805-1.519,2.805-3.925c0-3.012-1.287-3.775-2.283-3.775c-0.613,0-1.16,0.2-1.643,0.706
			c-0.456,0.506-0.714,0.971-0.714,1.817c0,1.394,0.979,2.489,2.233,2.489C181.307,64.18,181.763,63.715,182.021,63.068z"/>
		<path clip-path="url(#SVGID_4_)" d="M186.311,66.62c-0.44,0-1.096-0.274-1.303-1.353c-0.124-0.672-0.124-1.701-0.124-2.357
			c0-0.721,0-1.46,0.091-2.065c0.216-1.328,1.054-1.428,1.336-1.428c0.365,0,1.104,0.2,1.319,1.312
			c0.107,0.622,0.107,1.477,0.107,2.182c0,0.839,0,1.593-0.115,2.316C187.447,66.288,186.816,66.62,186.311,66.62 M188.667,63.043
			c0-0.896-0.05-1.792-0.448-2.622c-0.514-1.071-1.427-1.253-1.899-1.253c-0.673,0-1.486,0.291-1.95,1.336
			c-0.357,0.771-0.406,1.643-0.406,2.539c0,0.838,0.041,1.842,0.497,2.696c0.481,0.905,1.303,1.129,1.851,1.129
			c0.606,0,1.451-0.232,1.942-1.295C188.617,64.803,188.667,63.923,188.667,63.043z"/>
		<path clip-path="url(#SVGID_4_)" d="M191.38,61.351c-0.729,0-1.294-0.597-1.294-1.294c0-0.722,0.572-1.294,1.294-1.294
			c0.738,0,1.295,0.598,1.295,1.286C192.675,60.778,192.102,61.351,191.38,61.351 M193.057,60.056c0-0.946-0.756-1.675-1.677-1.675
			c-0.938,0-1.676,0.754-1.676,1.667c0,0.946,0.755,1.685,1.676,1.685C192.318,61.733,193.057,60.969,193.057,60.056z"/>
	</g>
	<path d="M197.577,64.01c0.104,0,0.212,0,0.212-0.198c0-0.198-0.108-0.198-0.212-0.198h-3.31c-0.101,0-0.213,0-0.213,0.198
		c0,0.198,0.112,0.198,0.213,0.198H197.577"/>
	<g>
		<defs>
			<rect id="SVGID_5_" x="200.873" y="58.794" width="4.675" height="8.414"/>
		</defs>
		<clipPath id="SVGID_6_">
			<use xlink:href="#SVGID_5_"  overflow="visible"/>
		</clipPath>
		<path clip-path="url(#SVGID_6_)" d="M203.553,62.312c0.283,0.514,0.623,1.12,0.623,1.925c0,0.739-0.431,2.605-1.469,2.605
			c-0.613,0-1.079-0.464-1.079-1.319C201.628,64.818,202.043,62.719,203.553,62.312 M203.421,62.071
			c-1.394,0.332-2.481,1.784-2.481,3.145c0,1.07,0.714,1.875,1.768,1.875c1.312,0,2.24-1.758,2.24-3.302
			c0-1.012-0.448-1.576-0.83-2.082c-0.406-0.498-1.062-1.336-1.062-1.834c0-0.24,0.224-0.514,0.614-0.514
			c0.331,0,0.555,0.149,0.796,0.307c0.225,0.133,0.448,0.274,0.615,0.274c0.281,0,0.446-0.266,0.446-0.449
			c0-0.24-0.182-0.273-0.58-0.364c-0.581-0.125-0.739-0.125-0.921-0.125c-0.871,0-1.277,0.481-1.277,1.154
			C202.749,60.761,203.072,61.383,203.421,62.071z"/>
	</g>
</g>
<g>
	<defs>
		<rect id="SVGID_7_" x="164.262" y="21.826" width="44.248" height="9.66"/>
	</defs>
	<clipPath id="SVGID_8_">
		<use xlink:href="#SVGID_7_"  overflow="visible"/>
	</clipPath>
	<path clip-path="url(#SVGID_8_)" d="M172.426,23.521c0.101-0.406,0.125-0.515,0.938-0.515c0.291,0,0.382,0,0.382-0.224
		c0-0.125-0.124-0.125-0.157-0.125c-0.308,0-1.12,0.033-1.427,0.033c-0.324,0-1.121-0.033-1.444-0.033c-0.091,0-0.216,0-0.216,0.224
		c0,0.125,0.1,0.125,0.315,0.125c0.025,0,0.232,0,0.424,0.025c0.198,0.017,0.298,0.034,0.298,0.174c0,0.05-0.008,0.067-0.041,0.216
		l-0.672,2.729h-3.411l0.656-2.63c0.1-0.406,0.141-0.515,0.945-0.515c0.291,0,0.382,0,0.382-0.224c0-0.125-0.124-0.125-0.157-0.125
		c-0.315,0-1.12,0.033-1.436,0.033c-0.323,0-1.121-0.033-1.444-0.033c-0.091,0-0.215,0-0.215,0.224c0,0.125,0.107,0.125,0.315,0.125
		c0.025,0,0.231,0,0.423,0.025c0.207,0.017,0.307,0.034,0.307,0.174c0,0.05-0.017,0.083-0.049,0.216l-1.494,6.007
		c-0.116,0.439-0.133,0.522-1.021,0.522c-0.199,0-0.3,0-0.3,0.224c0,0.125,0.134,0.125,0.15,0.125c0.315,0,1.111-0.033,1.427-0.033
		c0.232,0,0.481,0.016,0.714,0.016c0.249,0,0.489,0.017,0.729,0.017c0.083,0,0.225,0,0.225-0.224c0-0.125-0.1-0.125-0.315-0.125
		c-0.415,0-0.729,0-0.729-0.199c0-0.066,0.024-0.125,0.032-0.191l0.764-3.062h3.41c-0.465,1.859-0.722,2.921-0.771,3.087
		c-0.107,0.356-0.324,0.365-1.013,0.365c-0.174,0-0.273,0-0.273,0.224c0,0.125,0.133,0.125,0.158,0.125
		c0.314,0,1.111-0.033,1.418-0.033c0.241,0,0.481,0.016,0.722,0.016c0.241,0,0.49,0.017,0.722,0.017c0.092,0,0.225,0,0.225-0.224
		c0-0.125-0.1-0.125-0.307-0.125c-0.415,0-0.73,0-0.73-0.199c0-0.066,0.024-0.125,0.033-0.191L172.426,23.521"/>
	<path clip-path="url(#SVGID_8_)" d="M181.147,27.727h3.119c0.157,0,0.373,0,0.373-0.224c0-0.224-0.216-0.224-0.373-0.224h-3.119
		v-3.136c0-0.15,0-0.366-0.225-0.366s-0.225,0.216-0.225,0.366v3.136h-3.137c-0.149,0-0.364,0-0.364,0.224
		c0,0.224,0.215,0.224,0.364,0.224h3.137v3.136c0,0.158,0,0.366,0.225,0.366s0.225-0.208,0.225-0.366V27.727"/>
	<path clip-path="url(#SVGID_8_)" d="M191.013,23.139c0-0.266,0-0.291-0.258-0.291c-0.689,0.713-1.677,0.713-2.033,0.713v0.349
		c0.225,0,0.88,0,1.47-0.291v5.8c0,0.397-0.034,0.531-1.046,0.531h-0.357V30.3c0.391-0.033,1.369-0.033,1.817-0.033
		s1.419,0,1.809,0.033v-0.349h-0.357c-1.003,0-1.044-0.116-1.044-0.531V23.139"/>
	<path clip-path="url(#SVGID_8_)" d="M195.676,26.723l1.377,0.872c0.307,0.208,0.839,0.548,0.839,1.228
		c0,0.83-0.839,1.411-1.76,1.411c-0.963,0-1.768-0.688-1.768-1.618C194.364,27.96,194.721,27.246,195.676,26.723 M196.795,26.25
		c0.806-0.415,1.353-0.996,1.353-1.734c0-1.029-0.995-1.667-2.016-1.667c-1.12,0-2.024,0.83-2.024,1.867
		c0,0.208,0.024,0.706,0.489,1.236c0.124,0.133,0.539,0.415,0.821,0.597c-0.647,0.332-1.609,0.955-1.609,2.066
		c0,1.187,1.137,1.933,2.314,1.933c1.261,0,2.323-0.929,2.323-2.124c0-0.406-0.124-0.913-0.547-1.377
		C197.691,26.807,197.509,26.698,196.795,26.25z M195.161,25.188c-0.515-0.34-0.564-0.713-0.564-0.904
		c0-0.689,0.73-1.153,1.526-1.153c0.813,0,1.535,0.581,1.535,1.385c0,0.639-0.439,1.178-1.111,1.569L195.161,25.188z"/>
	<path clip-path="url(#SVGID_8_)" d="M201.698,30.3c-0.438,0-1.094-0.274-1.293-1.353c-0.125-0.671-0.125-1.701-0.125-2.356
		c0-0.722,0-1.46,0.082-2.066c0.217-1.327,1.055-1.427,1.336-1.427c0.365,0,1.112,0.199,1.32,1.302
		c0.115,0.631,0.115,1.485,0.115,2.191c0,0.838,0,1.593-0.124,2.315C202.845,29.968,202.206,30.3,201.698,30.3 M204.063,26.723
		c0-0.896-0.058-1.792-0.447-2.622c-0.516-1.071-1.436-1.253-1.909-1.253c-0.672,0-1.484,0.291-1.941,1.335
		c-0.365,0.772-0.414,1.643-0.414,2.539c0,0.838,0.04,1.842,0.497,2.697c0.481,0.904,1.303,1.128,1.85,1.128
		c0.607,0,1.453-0.232,1.951-1.302C204.006,28.474,204.063,27.603,204.063,26.723z"/>
	<path clip-path="url(#SVGID_8_)" d="M206.769,25.022c-0.729,0-1.295-0.588-1.295-1.286c0-0.722,0.581-1.294,1.295-1.294
		c0.738,0,1.303,0.588,1.303,1.286C208.071,24.458,207.49,25.022,206.769,25.022 M208.453,23.736c0-0.946-0.764-1.676-1.685-1.676
		c-0.938,0-1.676,0.755-1.676,1.668c0,0.946,0.755,1.685,1.676,1.685C207.707,25.413,208.453,24.649,208.453,23.736z"/>
</g>
<g>
	<g>
		<defs>
			<rect id="SVGID_9_" x="109" y="28.247" width="12.152" height="9.66"/>
		</defs>
		<clipPath id="SVGID_10_">
			<use xlink:href="#SVGID_9_"  overflow="visible"/>
		</clipPath>
		<path clip-path="url(#SVGID_10_)" d="M112.966,29.145c0.1-0.407,0.132-0.531,1.187-0.531c0.341,0,0.423,0,0.423-0.207
			c0-0.142-0.116-0.142-0.174-0.142c-0.374,0-1.286,0.034-1.659,0.034c-0.332,0-1.154-0.034-1.486-0.034
			c-0.083,0-0.215,0-0.215,0.225c0,0.124,0.1,0.124,0.314,0.124c0.025,0,0.232,0,0.424,0.025c0.199,0.025,0.307,0.033,0.307,0.183
			c0,0.041-0.016,0.074-0.05,0.207l-1.502,6.008c-0.107,0.439-0.133,0.531-1.013,0.531c-0.189,0-0.307,0-0.307,0.224
			c0,0.125,0.1,0.125,0.307,0.125h5.179c0.273,0,0.282,0,0.349-0.191l0.888-2.423c0.042-0.116,0.042-0.141,0.042-0.149
			c0-0.05-0.034-0.125-0.134-0.125s-0.115,0.05-0.19,0.232c-0.382,1.029-0.871,2.307-2.812,2.307h-1.046
			c-0.157,0-0.183,0-0.249-0.017c-0.116-0.008-0.149-0.017-0.149-0.107c0-0.033,0-0.059,0.058-0.257L112.966,29.145"/>
		<path clip-path="url(#SVGID_10_)" d="M119.181,36.621c-0.059,0.216-0.224,0.374-0.398,0.523c-0.066,0.058-0.381,0.307-0.722,0.307
			c-0.282,0-0.564-0.199-0.564-0.754c0-0.416,0.225-1.27,0.406-1.585c0.356-0.622,0.756-0.739,0.971-0.739
			c0.548,0,0.697,0.589,0.697,0.681c0,0.025-0.017,0.083-0.025,0.107L119.181,36.621 M119.679,34.613
			c-0.167-0.257-0.424-0.464-0.806-0.464c-0.995,0-2.017,1.103-2.017,2.232c0,0.755,0.516,1.294,1.188,1.294
			c0.414,0,0.796-0.241,1.104-0.548c0.149,0.464,0.605,0.548,0.805,0.548c0.282,0,0.48-0.174,0.622-0.415
			c0.166-0.307,0.273-0.747,0.273-0.78c0-0.1-0.107-0.1-0.132-0.1c-0.108,0-0.116,0.024-0.166,0.24
			c-0.1,0.374-0.241,0.83-0.572,0.83c-0.2,0-0.258-0.166-0.258-0.381c0-0.133,0.066-0.415,0.116-0.614
			c0.058-0.208,0.133-0.531,0.175-0.705l0.157-0.589c0.041-0.207,0.141-0.572,0.141-0.614c0-0.166-0.141-0.249-0.265-0.249
			C119.911,34.297,119.728,34.397,119.679,34.613z"/>
	</g>
	<g>
		<defs>
			<rect id="SVGID_11_" x="87.946" y="27.157" width="14.956" height="8.724"/>
		</defs>
		<clipPath id="SVGID_12_">
			<use xlink:href="#SVGID_11_"  overflow="visible"/>
		</clipPath>
		<path clip-path="url(#SVGID_12_)" d="M90.417,32.932c-0.183,0-0.696,0-1.045-0.706c-0.199-0.415-0.199-0.971-0.199-1.519
			c0-0.605,0-1.128,0.232-1.543c0.307-0.564,0.729-0.705,1.12-0.705c0.514,0,0.887,0.381,1.079,0.879
			c0.132,0.365,0.173,1.071,0.173,1.585C91.778,31.853,91.397,32.932,90.417,32.932 M91.803,32.077v0.357
			c0,2.614-1.161,3.128-1.817,3.128c-0.183,0-0.788-0.017-1.095-0.399c0.497,0,0.581-0.323,0.581-0.514
			c0-0.348-0.266-0.514-0.515-0.514c-0.175,0-0.515,0.099-0.515,0.531c0,0.755,0.605,1.211,1.561,1.211
			c1.443,0,2.804-1.519,2.804-3.924c0-3.012-1.286-3.776-2.281-3.776c-0.614,0-1.162,0.199-1.643,0.706
			c-0.457,0.506-0.714,0.971-0.714,1.817c0,1.394,0.979,2.489,2.231,2.489C91.09,33.189,91.546,32.724,91.803,32.077z"/>
		<path clip-path="url(#SVGID_12_)" d="M96.093,35.629c-0.439,0-1.095-0.274-1.303-1.353c-0.125-0.672-0.125-1.701-0.125-2.356
			c0-0.722,0-1.46,0.091-2.066c0.217-1.328,1.055-1.427,1.337-1.427c0.365,0,1.104,0.199,1.318,1.311
			c0.108,0.623,0.108,1.477,0.108,2.183c0,0.838,0,1.593-0.116,2.314C97.23,35.297,96.599,35.629,96.093,35.629 M98.45,32.052
			c0-0.896-0.051-1.792-0.448-2.622c-0.515-1.071-1.427-1.253-1.9-1.253c-0.672,0-1.485,0.291-1.95,1.336
			c-0.356,0.772-0.406,1.643-0.406,2.539c0,0.838,0.042,1.842,0.498,2.697c0.481,0.905,1.303,1.128,1.851,1.128
			c0.605,0,1.452-0.232,1.941-1.294C98.399,33.812,98.45,32.932,98.45,32.052z"/>
		<path clip-path="url(#SVGID_12_)" d="M101.163,30.36c-0.73,0-1.294-0.598-1.294-1.294c0-0.722,0.572-1.294,1.294-1.294
			c0.739,0,1.295,0.597,1.295,1.286C102.458,29.788,101.884,30.36,101.163,30.36 M102.838,29.065c0-0.946-0.755-1.676-1.676-1.676
			c-0.938,0-1.677,0.755-1.677,1.668c0,0.946,0.756,1.685,1.677,1.685C102.1,30.742,102.838,29.978,102.838,29.065z"/>
	</g>
	<path d="M107.359,33.019c0.104,0,0.214,0,0.214-0.198c0-0.198-0.109-0.198-0.214-0.198h-3.309c-0.1,0-0.213,0-0.213,0.198
		c0,0.198,0.113,0.198,0.213,0.198H107.359"/>
</g>
<g>
	<path d="M113.113,75.349c-0.173,0-0.688,0-1.037-0.706c-0.207-0.415-0.207-0.97-0.207-1.519c0-0.605,0-1.128,0.241-1.543
		c0.299-0.564,0.721-0.706,1.12-0.706c0.515,0,0.879,0.382,1.07,0.879c0.133,0.366,0.182,1.071,0.182,1.585
		C114.482,74.27,114.101,75.349,113.113,75.349 M114.499,74.493v0.358c0,2.613-1.16,3.127-1.808,3.127
		c-0.191,0-0.797-0.017-1.096-0.398c0.489,0,0.58-0.324,0.58-0.514c0-0.349-0.265-0.515-0.514-0.515c-0.183,0-0.516,0.1-0.516,0.531
		c0,0.756,0.607,1.212,1.553,1.212c1.443,0,2.812-1.519,2.812-3.925c0-3.012-1.286-3.775-2.281-3.775
		c-0.622,0-1.17,0.199-1.651,0.706c-0.457,0.506-0.714,0.971-0.714,1.817c0,1.394,0.987,2.489,2.24,2.489
		C113.786,75.605,114.242,75.142,114.499,74.493z"/>
	<path d="M118.789,78.045c-0.431,0-1.095-0.274-1.294-1.353c-0.125-0.672-0.125-1.701-0.125-2.356c0-0.722,0-1.46,0.092-2.066
		c0.207-1.328,1.054-1.427,1.327-1.427c0.373,0,1.112,0.199,1.319,1.311c0.116,0.622,0.116,1.477,0.116,2.182
		c0,0.837,0,1.593-0.125,2.315C119.934,77.713,119.295,78.045,118.789,78.045 M121.153,74.469c0-0.896-0.058-1.792-0.446-2.622
		c-0.516-1.07-1.436-1.252-1.901-1.252c-0.672,0-1.493,0.291-1.95,1.336c-0.356,0.771-0.414,1.643-0.414,2.539
		c0,0.838,0.041,1.843,0.507,2.696c0.48,0.905,1.294,1.129,1.841,1.129c0.606,0,1.461-0.232,1.95-1.294
		C121.095,76.229,121.153,75.349,121.153,74.469z"/>
	<path d="M123.867,72.311c-0.738,0-1.303-0.598-1.303-1.295c0-0.722,0.581-1.294,1.303-1.294c0.73,0,1.294,0.597,1.294,1.286
		C125.161,71.739,124.581,72.311,123.867,72.311 M125.542,71.016c0-0.945-0.755-1.675-1.676-1.675c-0.938,0-1.685,0.754-1.685,1.667
		c0,0.946,0.756,1.685,1.685,1.685C124.796,72.692,125.542,71.929,125.542,71.016z"/>
	<path d="M135.974,74.203c-2.24,1.204-2.365,2.647-2.365,2.921c0,0.846,0.83,1.385,1.893,1.385c1.866,0,3.368-1.767,3.368-2
		c0-0.066-0.058-0.083-0.115-0.083c-0.134,0-0.557,0.149-0.813,0.498c-0.232,0.324-0.705,0.972-1.701,0.972
		c-0.796,0-1.676-0.415-1.676-1.253c0-0.547,0.622-2.208,2.39-2.273c0.531-0.025,0.921-0.415,0.921-0.539
		c0-0.066-0.058-0.075-0.116-0.075c-1.577-0.066-1.892-0.838-1.892-1.286c0-0.258,0.174-1.478,1.742-1.478
		c0.208,0,1.062,0.034,1.062,0.614c0,0.174-0.092,0.332-0.141,0.398c-0.017,0.033-0.049,0.091-0.049,0.125
		c0,0.083,0.073,0.083,0.106,0.083c0.341,0,1.029-0.439,1.029-1.078c0-0.655-0.771-0.755-1.27-0.755
		c-1.526,0-3.427,1.203-3.427,2.572C134.92,73.606,135.418,74.013,135.974,74.203"/>
	<path d="M130.903,74.642c0.104,0,0.213,0,0.213-0.198c0-0.198-0.108-0.198-0.213-0.198h-3.31c-0.1,0-0.214,0-0.214,0.198
		c0,0.198,0.114,0.198,0.214,0.198H130.903"/>
</g>
<path d="M60.404,50.027c0.122-0.202,0.122-0.215,0.122-0.351c0-0.282-0.107-0.282-0.472-0.282h-8.136l-0.202,4.082h0.458
	c0.121-2.048,0.674-3.516,3.65-3.516h2.855l-7.071,11.167c-0.136,0.202-0.136,0.216-0.136,0.364c0,0.31,0.095,0.31,0.485,0.31h8.364
	l0.311-4.849h-0.444c-0.148,2.519-0.499,4.23-3.853,4.23h-2.991L60.404,50.027"/>
<path d="M143.363,26.15v-4.903c0-0.606,0.041-0.727,0.89-0.727h1.616c2.896,0,2.896,1.926,2.896,2.815c0,0.849,0,2.815-2.896,2.815
	H143.363 M143.418,26.622h3.07c2.183,0,4.149-1.468,4.149-3.287c0-1.778-1.806-3.381-4.297-3.381h-6.412v0.565h0.445
	c1.387,0,1.428,0.202,1.428,0.849v9.577c0,0.646-0.041,0.849-1.428,0.849h-0.445v0.565c0.634-0.054,1.98-0.054,2.681-0.054
	c0.688,0,2.048,0,2.681,0.054v-0.565h-0.431c-1.401,0-1.441-0.202-1.441-0.849V26.622z"/>
<path d="M170.428,107.07l-2.33-0.565c-1.118-0.27-1.832-1.253-1.832-2.304c0-1.28,0.983-2.384,2.397-2.384
	c3.031,0,3.435,2.977,3.543,3.798c0.013,0.108,0.013,0.216,0.216,0.216c0.242,0,0.242-0.095,0.242-0.431v-3.65
	c0-0.311,0-0.445-0.202-0.445c-0.135,0-0.148,0.027-0.27,0.243l-0.646,1.037c-0.539-0.525-1.28-1.279-2.896-1.279
	c-2.021,0-3.542,1.603-3.542,3.529c0,1.509,0.956,2.829,2.37,3.327c0.202,0.068,1.132,0.283,2.398,0.593
	c0.497,0.135,1.037,0.256,1.549,0.93c0.377,0.471,0.565,1.078,0.565,1.67c0,1.293-0.916,2.6-2.438,2.6
	c-0.525,0-1.913-0.095-2.869-0.983c-1.052-0.983-1.104-2.142-1.132-2.802c-0.014-0.175-0.162-0.175-0.216-0.175
	c-0.229,0-0.229,0.121-0.229,0.458v3.623c0,0.311,0,0.445,0.188,0.445c0.135,0,0.148-0.041,0.283-0.242
	c0-0.014,0.053-0.067,0.646-1.037c0.566,0.619,1.725,1.279,3.341,1.279c2.129,0,3.583-1.778,3.583-3.785
	C173.148,108.916,171.95,107.434,170.428,107.07"/>
<path d="M219.097,140.201c1.765-0.445,3.18-1.549,3.18-2.963c0-1.751-2.074-3.273-4.741-3.273h-5.712v0.565h0.444
	c1.388,0,1.428,0.202,1.428,0.849v9.577c0,0.646-0.04,0.849-1.428,0.849h-0.444v0.565c0.66-0.054,1.953-0.054,2.654-0.054
	c0.714,0,2.006,0,2.653,0.054v-0.565H216.7c-1.402,0-1.442-0.202-1.442-0.849v-4.593h2.089c0.296,0,1.063,0,1.697,0.606
	c0.687,0.66,0.687,1.226,0.687,2.438c0,1.185,0,1.912,0.74,2.6c0.755,0.66,1.752,0.768,2.29,0.768c1.415,0,1.725-1.495,1.725-2.007
	c0-0.108,0-0.31-0.229-0.31c-0.203,0-0.203,0.175-0.216,0.296c-0.108,1.293-0.755,1.616-1.199,1.616
	c-0.89,0-1.037-0.929-1.293-2.613l-0.242-1.455C220.983,141.144,220.094,140.538,219.097,140.201 M215.258,139.958v-4.701
	c0-0.417,0-0.646,0.404-0.7c0.176-0.027,0.7-0.027,1.064-0.027c1.644,0,3.677,0.067,3.677,2.708c0,1.252-0.431,2.721-3.125,2.721
	H215.258z"/>
<path d="M240.328,68.286c2.142-0.97,3.689-3.287,3.689-6.035c0-3.705-2.747-6.654-6.047-6.654c-3.26,0-6.035,2.909-6.035,6.654
	c0,3.664,2.747,6.56,6.048,6.56c0.565,0,1.198-0.108,1.725-0.269c0.283,1.724,0.524,3.394,2.223,3.394
	c1.846,0,2.195-2.424,2.195-3.34c0-0.189,0-0.391-0.202-0.391c-0.162,0-0.175,0.148-0.202,0.337
	c-0.107,0.97-0.862,1.522-1.644,1.522C241.217,70.063,240.759,69.444,240.328,68.286 M239.587,67.935
	c-0.62,0.351-1.199,0.417-1.604,0.417c-0.93,0-1.063-0.835-1.063-1.104c0-0.525,0.377-1.131,1.077-1.131
	C238.98,66.117,239.384,66.884,239.587,67.935z M236.771,68.11c-0.982-0.35-3.017-1.684-3.017-5.859
	c0-4.728,2.546-6.196,4.217-6.196c1.765,0,4.229,1.562,4.229,6.196c0,1.414-0.216,3.974-2.142,5.388
	c-0.403-1.01-0.982-1.926-2.061-1.926c-0.916,0-1.482,0.781-1.482,1.536C236.515,67.733,236.744,68.083,236.771,68.11z"/>
<g>
	<defs>
		<rect id="SVGID_13_" x="165.107" y="68.516" width="5.46" height="8.736"/>
	</defs>
	<clipPath id="SVGID_14_">
		<use xlink:href="#SVGID_13_"  overflow="visible"/>
	</clipPath>
	<g clip-path="url(#SVGID_14_)">
		<text transform="matrix(1 0 0 1 164.6504 74.5044)" font-family="'CMMI10'" font-size="13.0549">q</text>
	</g>
</g>
<g>
	<defs>
		<rect id="SVGID_15_" x="103.467" y="194.741" width="41.43" height="12.889"/>
	</defs>
	<clipPath id="SVGID_16_">
		<use xlink:href="#SVGID_15_"  overflow="visible"/>
	</clipPath>
	<g clip-path="url(#SVGID_16_)">
		<text transform="matrix(1 0 0 1 102.4668 204.8223)" font-family="'CMR10'" font-size="11.0066">(</text>
	</g>
	<g clip-path="url(#SVGID_16_)">
		<text transform="matrix(1 0 0 1 106.7461 204.8223)" font-family="'CMSY10'" font-size="11.0066">−</text>
	</g>
	<g clip-path="url(#SVGID_16_)">
		<text transform="matrix(1 0 0 1 115.3076 204.8223)" font-family="'CMR10'" font-size="11.0066">6</text>
	</g>
	<g clip-path="url(#SVGID_16_)">
		<text transform="matrix(1 0 0 1 120.8096 200.2773)" font-family="'CMR7'" font-size="7.7046">h</text>
	</g>
	<g clip-path="url(#SVGID_16_)">
		<text transform="matrix(1 0 0 1 126.2236 204.8223)" font-family="'CMMI10'" font-size="11.0066">,</text>
	</g>
	<g clip-path="url(#SVGID_16_)">
		<text transform="matrix(1 0 0 1 131.1143 204.8223)" font-family="'CMR10'" font-size="11.0066">0</text>
	</g>
	<g clip-path="url(#SVGID_16_)">
		<text transform="matrix(1 0 0 1 136.6172 200.2773)" font-family="'CMSY7'" font-size="7.7046">◦</text>
	</g>
	<g clip-path="url(#SVGID_16_)">
		<text transform="matrix(1 0 0 1 141.6768 204.8223)" font-family="'CMR10'" font-size="11.0066">)</text>
	</g>
</g>
<g>
	<defs>
		<rect id="SVGID_17_" x="20.584" y="144.438" width="33.145" height="12.889"/>
	</defs>
	<clipPath id="SVGID_18_">
		<use xlink:href="#SVGID_17_"  overflow="visible"/>
	</clipPath>
	<g clip-path="url(#SVGID_18_)">
		<text transform="matrix(1 0 0 1 19.751 154.5195)" font-family="'CMR10'" font-size="11.0066">(0</text>
	</g>
	<g clip-path="url(#SVGID_18_)">
		<text transform="matrix(1 0 0 1 29.5361 149.9756)" font-family="'CMR7'" font-size="7.7046">h</text>
	</g>
	<g clip-path="url(#SVGID_18_)">
		<text transform="matrix(1 0 0 1 34.9473 154.5195)" font-family="'CMMI10'" font-size="11.0066">,</text>
	</g>
	<g clip-path="url(#SVGID_18_)">
		<text transform="matrix(1 0 0 1 39.8389 154.5195)" font-family="'CMR10'" font-size="11.0066">0</text>
	</g>
	<g clip-path="url(#SVGID_18_)">
		<text transform="matrix(1 0 0 1 45.3418 149.9756)" font-family="'CMSY7'" font-size="7.7046">◦</text>
	</g>
	<g clip-path="url(#SVGID_18_)">
		<text transform="matrix(1 0 0 1 50.4014 154.5195)" font-family="'CMR10'" font-size="11.0066">)</text>
	</g>
</g>


<line fill="none" stroke="#EE0000" stroke-width="2" x1="145.815" y1="158.403" x2="186.386" y2="104.375"/>
<g>
	<defs>
		<rect id="SVGID_19_" x="157.29" y="127.399" width="4.962" height="5.623"/>
	</defs>
	<clipPath id="SVGID_20_">
		<use xlink:href="#SVGID_19_"  overflow="visible"/>
	</clipPath>
	<g clip-path="url(#SVGID_20_)">
		<text transform="matrix(1 0 0 1 157.0458 132.8389)" fill="#FF0000" font-family="'CMBX10'" font-size="11.8617">s</text>
	</g>
</g>
<g>
	<defs>
		<rect id="SVGID_21_" x="0.358" y="148.004" width="16.133" height="13.444"/>
	</defs>
	<clipPath id="SVGID_22_">
		<use xlink:href="#SVGID_21_"  overflow="visible"/>
	</clipPath>
	<g clip-path="url(#SVGID_22_)">
		<text transform="matrix(1 0 0 1 -6.103516e-05 161.2588)" font-family="'CMMI10'" font-size="19.2865">X</text>
	</g>
</g>
<g>
	<defs>
		<rect id="SVGID_23_" x="149.016" y="199.186" width="37.642" height="19.896"/>
	</defs>
	<clipPath id="SVGID_24_">
		<use xlink:href="#SVGID_23_"  overflow="visible"/>
	</clipPath>
	<g clip-path="url(#SVGID_24_)">
		<text transform="matrix(1 0 0 1 148.7763 214.0537)"><tspan x="0" y="0" font-family="'CMMI10'" font-size="19.2865" letter-spacing="2">Y</tspan><tspan x="13.326" y="0" font-family="'CMMI10'" font-size="19.2865">/E</tspan></text>
	</g>
</g>
</svg>
