<?xml version="1.0" encoding="utf-8"?>
<!-- Generator: Adobe Illustrator 16.0.0, SVG Export Plug-In . SVG Version: 6.00 Build 0)  -->
<!DOCTYPE svg PUBLIC "-//W3C//DTD SVG 1.1//EN" "http://www.w3.org/Graphics/SVG/1.1/DTD/svg11.dtd">
<svg version="1.1" id="Calque_1" xmlns="http://www.w3.org/2000/svg" xmlns:xlink="http://www.w3.org/1999/xlink" x="0px" y="0px"
	 width="424px" height="378px" viewBox="0 0 424 378" enable-background="new 0 0 424 378" xml:space="preserve">
<g>
	<g>
		<path fill="#00AA00" d="M287.137,292.881"/>
	</g>
	<g>
		<g>
			<path fill="none" stroke="#00AA00" stroke-width="1.9518" d="M285.618,291.134c-8.628-10.099-13.394-16.464-43.465-50.596"/>
			<g>
				<path fill="#00AA00" d="M284.266,289.381l-5.12,0.821l0.021,0.181l6.869,3.639c2.054,1.557,4.107,3.114,6.161,4.671
					c-1.21-2.275-2.421-4.55-3.631-6.826l-2.5-7.359l-0.155-0.067L284.266,289.381z"/>
			</g>
		</g>
	</g>
</g>
<path fill-rule="evenodd" clip-rule="evenodd" d="M73.156,240.537l3-3l-10.5,3l10.5,3L73.156,240.537z M73.156,240.537"/>
<path fill="none" stroke="#000000" stroke-width="0.8" d="M73.156,240.538l3-3l-10.5,3l10.5,3L73.156,240.538z M73.156,240.538"/>
<path fill="none" stroke="#000000" stroke-width="0.75" d="M240.168,240.538"/>
<path fill="none" stroke="#000000" stroke-width="0.75" d="M240.168,65.366"/>
<path fill="none" stroke="#000000" stroke-width="0.9" d="M65.656,240.538c0-96.747,79.02-175.172,176.496-175.172
	c97.473,0,176.496,78.425,176.496,175.172"/>
<path fill="none" stroke="#000000" stroke-width="1.3504" stroke-dasharray="2.7,2.7" d="M65.656,240.538
	c0-33.954,79.02-61.477,176.496-61.477c49.254,0,93.797,7.027,125.814,18.36c31.344,11.096,50.682,26.319,50.682,43.116"/>
<path fill="none" stroke="#000000" stroke-width="1.3504" d="M418.648,240.538c0,33.953-79.023,61.477-176.496,61.477
	c-97.477,0-176.496-27.523-176.496-61.477"/>
<path fill="none" stroke="#000000" stroke-width="0.75" d="M65.656,240.538c352.992,0,352.992,0,352.992,0"/>
<rect x="52.707" y="20.527" fill="none" width="366.92" height="294.96"/>
<g>
	<g>
		<path fill="none" stroke="#000000" stroke-width="0.75" d="M242.152,65.961c0,175.172,0,174.577,0,174.577"/>
		<path stroke="#000000" stroke-width="0.8" d="M242.152,72.866l3,3l-3-9.5l-3,10.5L242.152,72.866z M242.152,72.866"/>
	</g>
</g>
<path fill="none" stroke="#000000" stroke-width="0.75" d="M242.152,240.538c-27.136,60.753-27.136,60.753-27.136,60.753"/>
<path fill-rule="evenodd" clip-rule="evenodd" d="M218.074,294.443l-1.515-3.96l-1.543,10.809l7.023-8.363L218.074,294.443z
	 M218.074,294.443"/>
<path fill="none" stroke="#000000" stroke-width="0.8" d="M218.074,294.443l-1.515-3.961l-1.543,10.81l7.023-8.364L218.074,294.443z
	 M218.074,294.443"/>
<polyline fill="none" stroke="#000000" stroke-width="0.525" stroke-dasharray="1.575,1.575" points="121.754,285.467 
	242.152,240.942 367.516,197.265 "/>
<path fill="none" stroke="#000000" stroke-width="0.8068" stroke-dasharray="3,3" d="M121.754,285.467
	c4.872-107.094,47.68-195.183,104.816-215.69c57.137-20.504,114.7,31.562,140.946,127.488"/>
<path d="M147.227,172.201c0,2.188-1.778,3.966-3.965,3.966c-2.192,0-3.969-1.777-3.969-3.966c0-2.19,1.777-3.968,3.969-3.968
	C145.449,168.233,147.227,170.011,147.227,172.201L147.227,172.201z M147.227,172.201"/>
<path fill="none" stroke="#000000" stroke-width="0.75" d="M107.75,61.362c28.262,39.207,28.262,39.207,28.262,39.207"/>
<g>
	<g>
		<g>
			<path fill="none" stroke="#00AA00" stroke-width="1.5" d="M232.124,263.315c2.958,0.161,5.99,0.472,9.079,0.472
				c32.137,0,58.192-9.074,58.192-20.269c0-3.978-4.198-8.213-10.405-11.646"/>
			<g>
				<path fill="#00AA00" d="M290.746,232.878l0.528,4.715l-0.165,0.025l-4.888-5.166c-1.875-1.43-3.75-2.859-5.625-4.289
					c2.302,0.51,4.604,1.021,6.906,1.532l7.1,0.404l0.097,0.12L290.746,232.878z"/>
			</g>
		</g>
	</g>
	<g opacity="0.9">
		<g>
			<path fill="none" stroke="#00AA00" stroke-width="1.5" d="M247.343,258.706c-0.506,0.01-1.015,0.015-1.526,0.015
				c-20.638,0-37.369-7.828-37.369-17.486"/>
			<g>
				<path fill="#00AA00" d="M245.323,258.747l-2.188,4.209l0.144,0.083l6.419-3.062c2.264-0.659,4.527-1.319,6.791-1.979
					c-2.332-0.353-4.663-0.702-6.995-1.055l-6.77-2.176l-0.134,0.077L245.323,258.747z"/>
			</g>
		</g>
	</g>
	<g>
		<g>
			<g>
				<path fill="none" stroke="#00AA00" stroke-width="1.5" d="M226.503,118.822c-7.375-2.874-11.11-7.735-9.15-12.565
					c2.387-5.879,12.535-10.067,24.223-9.996c11.688,0.065,21.648,4.371,23.773,10.272c2.125,5.902-4.18,11.754-15.047,13.961"/>
				<g>
					<path fill="#00AA00" d="M225.389,118.337l-2.151,1.863l0.062,0.078l4.257-0.288c1.408,0.133,2.817,0.266,4.225,0.398
						c-1.223-0.712-2.445-1.423-3.668-2.135l-3.295-2.712l-0.091,0.014L225.389,118.337z"/>
				</g>
			</g>
		</g>
	</g>
	<g>
		<path fill="#00AA00" d="M242.59,240.611c126.369-43.273,124.925-43.347,124.925-43.347"/>
		<g>
			<path fill="none" stroke="#00AA00" stroke-width="1.5" d="M242.59,240.611c76.109-26.062,105.855-36.455,117.478-40.599"/>
			<g>
				<polygon fill="#00AA00" points="367.516,197.265 358.566,205.396 359.495,200.189 355.434,196.803 				"/>
			</g>
		</g>
	</g>
	<g>
		<g>
			<g>
				<path fill="#00AA00" d="M243.297,65.367c0,175.241,0,0.069,0,175.172"/>
				<g>
					<path fill="none" stroke="#00AA00" stroke-width="1.5" d="M243.297,77.599c0,154.656,0-7.883,0,162.94"/>
					<g>
						<path fill="#00AA00" d="M243.297,80.288l5.404,3.287l0.123-0.185l-3.501-8.812c-0.675-3.07-1.351-6.141-2.026-9.211
							c-0.677,3.07-1.351,6.141-2.027,9.211l-3.5,8.812l0.091,0.185L243.297,80.288z"/>
					</g>
				</g>
			</g>
		</g>
	</g>
	<polyline fill="none" stroke="#00AA00" points="243.297,231.134 251.637,228.214 251.637,237.479 	"/>
	<polyline fill="none" stroke="#00AA00" stroke-width="0.8958" points="247.63,246.234 257.284,242.624 251.637,237.479 	"/>
</g>
<g>
	<defs>
		<rect id="SVGID_1_" x="11.216" y="249.839" width="55.963" height="21.764"/>
	</defs>
	<clipPath id="SVGID_2_">
		<use xlink:href="#SVGID_1_"  overflow="visible"/>
	</clipPath>
	<path clip-path="url(#SVGID_2_)" d="M15.976,271.299c0-0.055,0-0.096-0.317-0.399c-2.318-2.346-2.925-5.864-2.925-8.721
		c0-3.229,0.718-6.471,2.994-8.803c0.249-0.222,0.249-0.263,0.249-0.318c0-0.123-0.069-0.178-0.179-0.178
		c-0.193,0-1.863,1.269-2.967,3.628c-0.952,2.042-1.173,4.111-1.173,5.671c0,1.463,0.208,3.712,1.228,5.81
		c1.118,2.29,2.718,3.504,2.912,3.504C15.907,271.492,15.976,271.438,15.976,271.299"/>
	<path clip-path="url(#SVGID_2_)" d="M21.647,266.828c-0.717,0-1.821-0.455-2.152-2.249c-0.207-1.117-0.207-2.828-0.207-3.918
		c0-1.201,0-2.429,0.152-3.422c0.358-2.222,1.752-2.387,2.208-2.387c0.621,0,1.849,0.331,2.208,2.18
		c0.179,1.035,0.179,2.456,0.179,3.629c0,1.394,0,2.663-0.207,3.85C23.551,266.277,22.489,266.828,21.647,266.828 M25.579,260.882
		c0-1.49-0.097-2.98-0.745-4.36c-0.855-1.779-2.387-2.083-3.16-2.083c-1.117,0-2.483,0.482-3.242,2.222
		c-0.593,1.282-0.69,2.731-0.69,4.222c0,1.394,0.083,3.062,0.842,4.484c0.8,1.504,2.152,1.876,3.063,1.876
		c1.007,0,2.429-0.386,3.242-2.151C25.482,263.807,25.579,262.344,25.579,260.882z"/>
	<path clip-path="url(#SVGID_2_)" d="M33.03,255.225c0-1.117-0.552-1.78-1.945-1.78c-1.159,0-1.794,0.677-2.07,1.173h-0.014v-4.47
		l-1.959,0.151v0.469c0.883,0,0.98,0.083,0.98,0.718v6.65c0,0.566-0.125,0.566-0.98,0.566v0.468c0.028,0,0.938-0.055,1.49-0.055
		c0.483,0,1.38,0.042,1.49,0.055v-0.468c-0.841,0-0.979,0-0.979-0.566v-2.332c0-1.365,1.09-2,1.946-2c0.91,0,1.021,0.717,1.021,1.38
		v2.952c0,0.566-0.125,0.566-0.98,0.566v0.468c0.028,0,0.938-0.055,1.49-0.055c0.482,0,1.38,0.042,1.49,0.055v-0.468
		c-0.842,0-0.98,0-0.98-0.566V255.225"/>
	<path clip-path="url(#SVGID_2_)" d="M39.239,266.814c0-1.228-0.456-1.945-1.187-1.945c-0.607,0-0.98,0.455-0.98,0.979
		c0,0.497,0.373,0.979,0.98,0.979c0.22,0,0.469-0.068,0.648-0.234c0.055-0.041,0.083-0.055,0.096-0.055s0.042,0.014,0.042,0.275
		c0,1.38-0.648,2.497-1.27,3.105c-0.207,0.207-0.207,0.248-0.207,0.304c0,0.123,0.097,0.206,0.193,0.206
		C37.749,270.43,39.239,268.995,39.239,266.814"/>
	<path clip-path="url(#SVGID_2_)" d="M48.346,266.828c-0.731,0-1.835-0.455-2.166-2.249c-0.208-1.117-0.208-2.828-0.208-3.918
		c0-1.201,0-2.429,0.152-3.422c0.358-2.222,1.752-2.387,2.222-2.387c0.607,0,1.835,0.331,2.194,2.18
		c0.179,1.035,0.179,2.456,0.179,3.629c0,1.394,0,2.663-0.207,3.85C50.236,266.277,49.173,266.828,48.346,266.828 M52.264,260.882
		c0-1.49-0.096-2.98-0.745-4.36c-0.855-1.779-2.374-2.083-3.16-2.083c-1.117,0-2.469,0.482-3.242,2.222
		c-0.593,1.282-0.69,2.731-0.69,4.222c0,1.394,0.083,3.062,0.842,4.484c0.8,1.504,2.152,1.876,3.077,1.876
		c0.993,0,2.415-0.386,3.229-2.151C52.168,263.807,52.264,262.344,52.264,260.882z"/>
	<path clip-path="url(#SVGID_2_)" d="M56.832,258.067c-1.229,0-2.167-0.994-2.167-2.153c0-1.2,0.965-2.151,2.167-2.151
		c1.214,0,2.152,0.993,2.152,2.138C58.983,257.115,58.018,258.067,56.832,258.067 M59.618,255.914c0-1.572-1.255-2.787-2.787-2.787
		c-1.56,0-2.801,1.256-2.801,2.773c0,1.573,1.256,2.802,2.801,2.802C58.391,258.702,59.618,257.446,59.618,255.914z"/>
	<path clip-path="url(#SVGID_2_)" d="M66.959,262.179c0-1.449-0.207-3.698-1.228-5.809c-1.118-2.277-2.718-3.49-2.898-3.49
		c-0.11,0-0.193,0.068-0.193,0.178c0,0.056,0,0.097,0.359,0.428c1.821,1.85,2.884,4.802,2.884,8.693c0,3.188-0.69,6.457-2.995,8.803
		c-0.248,0.222-0.248,0.263-0.248,0.317c0,0.11,0.083,0.193,0.193,0.193c0.18,0,1.862-1.269,2.953-3.629
		C66.738,265.807,66.959,263.752,66.959,262.179"/>
</g>
<g>
	<defs>
		<rect id="SVGID_3_" x="174.514" y="326.402" width="69.954" height="21.764"/>
	</defs>
	<clipPath id="SVGID_4_">
		<use xlink:href="#SVGID_3_"  overflow="visible"/>
	</clipPath>
	<path clip-path="url(#SVGID_4_)" d="M178.971,347.862c0-0.055,0-0.096-0.317-0.399c-2.332-2.346-2.925-5.864-2.925-8.721
		c0-3.229,0.703-6.471,2.994-8.803c0.249-0.222,0.249-0.263,0.249-0.318c0-0.123-0.083-0.178-0.193-0.178
		c-0.179,0-1.862,1.269-2.952,3.628c-0.952,2.042-1.173,4.111-1.173,5.671c0,1.463,0.193,3.712,1.229,5.809
		c1.118,2.291,2.718,3.505,2.897,3.505C178.888,348.056,178.971,348.001,178.971,347.862"/>
	<path clip-path="url(#SVGID_4_)" d="M192.327,339.115c0.317,0,0.649,0,0.649-0.373s-0.332-0.373-0.649-0.373h-10.072
		c-0.317,0-0.649,0-0.649,0.373s0.332,0.373,0.649,0.373H192.327"/>
	<path clip-path="url(#SVGID_4_)" d="M199.185,343.281c-1.173,0-1.725-1.117-1.835-1.394c-0.345-0.869-0.345-2.359-0.345-2.69
		c0-1.463,0.607-3.311,2.277-3.311c0.29,0,1.159,0,1.725,1.145c0.345,0.689,0.345,1.643,0.345,2.553c0,0.897,0,1.821-0.318,2.497
		C200.468,343.198,199.612,343.281,199.185,343.281 M196.977,337.293v-0.441c0-4.718,2.304-5.381,3.256-5.381
		c0.441,0,1.228,0.11,1.628,0.744c-0.276,0-1.021,0-1.021,0.843c0,0.565,0.455,0.855,0.855,0.855c0.304,0,0.855-0.18,0.855-0.896
		c0-1.118-0.814-2.015-2.359-2.015c-2.387,0-4.898,2.4-4.898,6.513c0,4.968,2.166,6.291,3.891,6.291c2.07,0,3.835-1.752,3.835-4.208
		c0-2.36-1.655-4.139-3.725-4.139C198.039,335.459,197.35,336.396,196.977,337.293z"/>
	<path clip-path="url(#SVGID_4_)" d="M210.485,331.788c0-1.117-0.566-1.78-1.959-1.78c-1.145,0-1.78,0.677-2.07,1.173h-0.014v-4.47
		l-1.945,0.151v0.469c0.869,0,0.966,0.083,0.966,0.718v6.65c0,0.566-0.124,0.566-0.966,0.566v0.469c0.028,0,0.925-0.056,1.476-0.056
		c0.483,0,1.38,0.042,1.491,0.056v-0.469c-0.842,0-0.966,0-0.966-0.566v-2.331c0-1.366,1.076-2.001,1.932-2.001
		c0.911,0,1.021,0.717,1.021,1.38v2.952c0,0.566-0.124,0.566-0.966,0.566v0.469c0.027,0,0.924-0.056,1.477-0.056
		c0.482,0,1.379,0.042,1.49,0.056v-0.469c-0.841,0-0.966,0-0.966-0.566V331.788"/>
	<path clip-path="url(#SVGID_4_)" d="M216.694,343.378c0-1.228-0.469-1.945-1.2-1.945c-0.607,0-0.98,0.455-0.98,0.979
		c0,0.497,0.373,0.979,0.98,0.979c0.234,0,0.469-0.068,0.662-0.234c0.056-0.041,0.069-0.055,0.083-0.055
		c0.028,0,0.041,0.014,0.041,0.275c0,1.38-0.648,2.497-1.27,3.105c-0.207,0.206-0.207,0.248-0.207,0.304
		c0,0.123,0.097,0.206,0.193,0.206C215.204,346.993,216.694,345.559,216.694,343.378"/>
	<path clip-path="url(#SVGID_4_)" d="M225.842,343.392c-0.731,0-1.835-0.455-2.166-2.249c-0.208-1.117-0.208-2.828-0.208-3.918
		c0-1.201,0-2.429,0.152-3.422c0.359-2.222,1.752-2.387,2.222-2.387c0.607,0,1.835,0.331,2.194,2.18
		c0.179,1.035,0.179,2.456,0.179,3.629c0,1.394,0,2.663-0.207,3.85C227.732,342.841,226.669,343.392,225.842,343.392
		 M229.76,337.445c0-1.49-0.096-2.98-0.745-4.36c-0.856-1.779-2.373-2.083-3.16-2.083c-1.117,0-2.471,0.482-3.243,2.221
		c-0.593,1.283-0.69,2.732-0.69,4.223c0,1.394,0.083,3.062,0.842,4.483c0.801,1.505,2.152,1.877,3.077,1.877
		c0.994,0,2.415-0.386,3.228-2.151C229.664,340.37,229.76,338.907,229.76,337.445z"/>
	<path clip-path="url(#SVGID_4_)" d="M234.272,334.631c-1.228,0-2.152-0.994-2.152-2.153c0-1.2,0.952-2.151,2.152-2.151
		c1.215,0,2.153,0.993,2.153,2.139C236.425,333.679,235.459,334.631,234.272,334.631 M237.059,332.478
		c0-1.572-1.255-2.787-2.787-2.787c-1.559,0-2.8,1.256-2.8,2.774c0,1.572,1.269,2.801,2.8,2.801
		C235.832,335.266,237.059,334.01,237.059,332.478z"/>
	<path clip-path="url(#SVGID_4_)" d="M244.4,338.742c0-1.449-0.193-3.698-1.228-5.809c-1.104-2.277-2.704-3.49-2.897-3.49
		c-0.11,0-0.193,0.068-0.193,0.178c0,0.056,0,0.097,0.358,0.428c1.821,1.85,2.884,4.802,2.884,8.693
		c0,3.187-0.689,6.457-2.995,8.803c-0.248,0.222-0.248,0.263-0.248,0.317c0,0.11,0.083,0.193,0.193,0.193
		c0.193,0,1.862-1.269,2.953-3.629C244.179,342.37,244.4,340.315,244.4,338.742"/>
</g>
<g>
	<defs>
		<rect id="SVGID_5_" x="266.962" y="31.181" width="47.154" height="33.682"/>
	</defs>
	<clipPath id="SVGID_6_">
		<use xlink:href="#SVGID_5_"  overflow="visible"/>
	</clipPath>
	<path clip-path="url(#SVGID_6_)" d="M271.736,44.179c0.469,0.856,1.021,1.863,1.021,3.202c0,1.228-0.704,4.346-2.442,4.346
		c-1.021,0-1.78-0.786-1.78-2.208C268.535,48.36,269.225,44.855,271.736,44.179 M271.515,43.779
		c-2.332,0.552-4.139,2.98-4.139,5.229c0,1.779,1.201,3.118,2.939,3.118c2.18,0,3.726-2.911,3.726-5.492
		c0-1.683-0.746-2.621-1.38-3.448c-0.662-0.842-1.766-2.235-1.766-3.063c0-0.4,0.373-0.856,1.021-0.856
		c0.565,0,0.938,0.249,1.325,0.511c0.372,0.221,0.745,0.455,1.021,0.455c0.468,0,0.745-0.441,0.745-0.744
		c0-0.4-0.29-0.455-0.965-0.606c-0.967-0.208-1.229-0.208-1.518-0.208c-1.462,0-2.125,0.801-2.125,1.919
		C270.397,41.599,270.936,42.634,271.515,43.779z"/>
	<path clip-path="url(#SVGID_6_)" d="M293.495,49.437c0.262,0,0.621,0,0.621-0.373s-0.358-0.373-0.634-0.373h-11.107
		c-0.29,0-0.635,0-0.635,0.373s0.345,0.373,0.607,0.373H293.495 M293.481,45.821c0.276,0,0.634,0,0.634-0.372
		c0-0.373-0.358-0.373-0.621-0.373h-11.148c-0.262,0-0.607,0-0.607,0.373c0,0.372,0.345,0.372,0.635,0.372H293.481z"/>
	<path clip-path="url(#SVGID_6_)" d="M307.486,32.423h2.111c-0.621,2.761-0.786,3.561-0.786,4.803c0,0.275,0,0.786,0.151,1.421
		c0.192,0.813,0.386,0.925,0.676,0.925c0.372,0,0.759-0.331,0.759-0.704c0-0.11,0-0.151-0.11-0.414
		c-0.538-1.339-0.538-2.552-0.538-3.063c0-0.993,0.124-2,0.331-2.967h2.125c0.234,0,0.91,0,0.91-0.634
		c0-0.442-0.399-0.442-0.744-0.442h-6.237c-0.413,0-1.118,0-1.932,0.87c-0.648,0.73-1.146,1.587-1.146,1.684
		c0,0.014,0,0.179,0.234,0.179c0.139,0,0.18-0.068,0.291-0.221c0.91-1.436,2-1.436,2.359-1.436h1.062
		c-0.594,2.25-1.602,4.513-2.374,6.196c-0.151,0.289-0.151,0.317-0.151,0.455c0,0.345,0.303,0.497,0.537,0.497
		c0.566,0,0.705-0.524,0.926-1.215c0.262-0.855,0.262-0.883,0.51-1.82L307.486,32.423"/>
	
		<line clip-path="url(#SVGID_6_)" fill="none" stroke="#000000" stroke-width="0.7424" stroke-miterlimit="10" x1="302.561" y1="47.284" x2="313.818" y2="47.284"/>
	<path clip-path="url(#SVGID_6_)" d="M305.912,63.275l1.975-1.918c2.896-2.566,4.015-3.573,4.015-5.437
		c0-2.125-1.669-3.615-3.946-3.615c-2.098,0-3.477,1.726-3.477,3.382c0,1.034,0.924,1.034,0.979,1.034
		c0.318,0,0.967-0.222,0.967-0.979c0-0.483-0.331-0.979-0.98-0.979c-0.15,0-0.179,0-0.248,0.026
		c0.428-1.214,1.436-1.904,2.525-1.904c1.684,0,2.483,1.519,2.483,3.036c0,1.49-0.925,2.967-1.946,4.112l-3.572,3.987
		c-0.207,0.208-0.207,0.234-0.207,0.689h6.898l0.524-3.242h-0.47c-0.082,0.566-0.221,1.38-0.399,1.655
		c-0.138,0.152-1.366,0.152-1.78,0.152H305.912"/>
</g>
<g>
	<defs>
		<rect id="SVGID_7_" x="225.661" y="36.587" width="13.272" height="17.463"/>
	</defs>
	<clipPath id="SVGID_8_">
		<use xlink:href="#SVGID_7_"  overflow="visible"/>
	</clipPath>
	<path clip-path="url(#SVGID_8_)" d="M238.271,37.515c0.168-0.279,0.168-0.297,0.168-0.483c0-0.39-0.149-0.39-0.651-0.39h-11.235
		l-0.278,5.636h0.632c0.167-2.828,0.93-4.855,5.041-4.855h3.943l-9.765,15.419c-0.186,0.279-0.186,0.298-0.186,0.502
		c0,0.428,0.131,0.428,0.67,0.428h11.55l0.428-6.696h-0.614c-0.205,3.479-0.688,5.841-5.32,5.841h-4.129L238.271,37.515"/>
</g>
<g>
	<defs>
		<rect id="SVGID_9_" x="39.198" y="230.806" width="18.162" height="17.464"/>
	</defs>
	<clipPath id="SVGID_10_">
		<use xlink:href="#SVGID_9_"  overflow="visible"/>
	</clipPath>
	<path clip-path="url(#SVGID_10_)" d="M48.925,238.3l3.441-5.041c0.558-0.8,1.414-1.6,3.646-1.618v-0.781
		c-0.985,0.019-2.157,0.074-2.79,0.074c-1.005,0-2.213,0-3.218-0.074v0.781c1.005,0.019,1.562,0.576,1.562,1.153
		c0,0.241-0.056,0.298-0.223,0.577l-2.865,4.24l-3.235-4.854c-0.057-0.075-0.168-0.279-0.168-0.372c0-0.298,0.539-0.726,1.618-0.744
		v-0.781c-0.874,0.074-2.697,0.074-3.664,0.074c-0.763,0-2.325-0.037-3.256-0.074v0.781h0.484c1.376,0,1.859,0.168,2.324,0.875
		l4.613,6.975l-4.111,6.062c-0.353,0.504-1.097,1.656-3.626,1.656v0.781c0.893-0.019,1.952-0.074,2.771-0.074
		c0.931,0,2.308,0,3.219,0.074v-0.781c-1.153-0.019-1.581-0.707-1.581-1.152c0-0.225,0.074-0.317,0.241-0.596l3.572-5.264
		l3.961,5.989c0.056,0.093,0.131,0.204,0.131,0.278c0,0.298-0.559,0.726-1.638,0.744v0.781c0.875-0.074,2.717-0.074,3.665-0.074
		c1.06,0,2.213,0.019,3.255,0.074v-0.781h-0.465c-1.302,0-1.842-0.131-2.362-0.893L48.925,238.3"/>
</g>
<g>
	<defs>
		<rect id="SVGID_11_" x="200.061" y="306.756" width="18.86" height="17.464"/>
	</defs>
	<clipPath id="SVGID_12_">
		<use xlink:href="#SVGID_11_"  overflow="visible"/>
	</clipPath>
	<path clip-path="url(#SVGID_12_)" d="M215.444,309.209c0.911-1.525,2.399-1.617,3.199-1.617v-0.781
		c-0.78,0.037-1.785,0.074-2.455,0.074c-0.781,0-2.231-0.057-2.883-0.074v0.781c1.022,0,1.432,0.465,1.432,0.967
		c0,0.279-0.148,0.614-0.26,0.763l-4.129,6.714l-4.539-7.402c-0.186-0.241-0.186-0.297-0.186-0.428c0-0.521,0.632-0.613,1.767-0.613
		v-0.781c-0.911,0.074-2.734,0.074-3.72,0.074c-1.062,0-2.214-0.037-3.255-0.074v0.781h0.446c1.711,0,1.896,0.26,2.306,0.911
		l5.264,8.593v4.893c0,0.893-0.055,1.172-1.971,1.172h-0.614v0.781c0.911-0.075,2.697-0.075,3.664-0.075
		c0.986,0,2.772,0,3.664,0.075v-0.781h-0.576c-1.935,0-2.009-0.242-2.009-1.228v-4.837L215.444,309.209"/>
</g>
<g>
	<defs>
		<rect id="SVGID_13_" x="186.732" y="353.355" width="45.519" height="16.727"/>
	</defs>
	<clipPath id="SVGID_14_">
		<use xlink:href="#SVGID_13_"  overflow="visible"/>
	</clipPath>
	<path clip-path="url(#SVGID_14_)" d="M189.602,367.936c0,0.873-0.054,1.141-1.908,1.141h-0.569v0.73h13.866l1.017-6.203h-0.606
		c-0.605,3.708-1.158,5.473-5.294,5.473h-3.189c-1.123,0-1.177-0.178-1.177-0.962v-6.417h2.156c2.335,0,2.603,0.766,2.603,2.798
		h0.606v-6.362H196.5c0,2.067-0.268,2.815-2.603,2.815h-2.156v-5.775c0-0.783,0.054-0.962,1.177-0.962h3.101
		c3.672,0,4.332,1.319,4.706,4.67h0.605l-0.677-5.418h-13.528v0.748h0.569c1.854,0,1.908,0.268,1.908,1.123V367.936"/>
	<path clip-path="url(#SVGID_14_)" d="M210.509,364.05v2.406c0,2.281-1.746,3.102-2.815,3.102c-1.177,0-2.175-0.855-2.175-2.05
		C205.519,366.188,206.535,364.192,210.509,364.05 M210.669,367.989c0.089,0.962,0.749,1.979,1.872,1.979
		c0.517,0,1.978-0.339,1.978-2.3v-1.337h-0.604v1.337c0,1.408-0.607,1.551-0.856,1.551c-0.802,0-0.892-1.087-0.892-1.212v-4.795
		c0-1.016,0-1.961-0.873-2.852c-0.944-0.927-2.139-1.319-3.297-1.319c-1.961,0-3.618,1.141-3.618,2.728
		c0,0.713,0.48,1.123,1.104,1.123c0.659,0,1.105-0.481,1.105-1.105c0-0.285-0.125-1.087-1.229-1.104
		c0.641-0.839,1.816-1.105,2.602-1.105c1.177,0,2.549,0.927,2.549,3.065v0.891c-1.229,0.071-2.923,0.144-4.438,0.874
		c-1.8,0.82-2.406,2.067-2.406,3.119c0,1.961,2.335,2.549,3.85,2.549C209.101,370.074,210.207,369.112,210.669,367.989z"/>
	<path clip-path="url(#SVGID_14_)" d="M219.653,365.155c0.518,0.089,2.495,0.481,2.495,2.21c0,1.229-0.837,2.192-2.727,2.192
		c-2.014,0-2.869-1.372-3.333-3.423c-0.071-0.32-0.089-0.409-0.339-0.409c-0.303,0-0.303,0.178-0.303,0.605v3.173
		c0,0.41,0,0.57,0.249,0.57c0.125,0,0.143-0.018,0.606-0.481c0.054-0.035,0.054-0.089,0.481-0.552
		c1.052,1.016,2.139,1.033,2.638,1.033c2.78,0,3.886-1.604,3.886-3.333c0-1.283-0.73-1.996-1.017-2.281
		c-0.802-0.784-1.729-0.963-2.744-1.158c-1.338-0.268-2.959-0.571-2.959-1.979c0-0.837,0.624-1.817,2.691-1.817
		c2.656,0,2.763,2.156,2.815,2.905c0.019,0.214,0.25,0.214,0.286,0.214c0.32,0,0.32-0.125,0.32-0.57v-2.424
		c0-0.41,0-0.589-0.267-0.589c-0.125,0-0.16,0-0.482,0.286c-0.07,0.106-0.303,0.32-0.409,0.392c-0.909-0.678-1.89-0.678-2.264-0.678
		c-2.923,0-3.832,1.623-3.832,2.959c0,0.838,0.374,1.515,1.034,2.05C217.247,364.674,217.906,364.816,219.653,365.155"/>
	<path clip-path="url(#SVGID_14_)" d="M228.315,360.2h3.44v-0.749h-3.44v-4.421h-0.605c-0.018,1.979-0.749,4.546-3.101,4.635v0.535
		h2.049v6.631c0,2.958,2.229,3.243,3.103,3.243c1.692,0,2.37-1.693,2.37-3.243v-1.373h-0.606v1.319c0,1.782-0.713,2.709-1.604,2.709
		c-1.604,0-1.604-2.192-1.604-2.603V360.2"/>
</g>
<g>
	<defs>
		<rect id="SVGID_15_" x="218.195" y="7.283" width="50.204" height="18.073"/>
	</defs>
	<clipPath id="SVGID_16_">
		<use xlink:href="#SVGID_15_"  overflow="visible"/>
	</clipPath>
	<path clip-path="url(#SVGID_16_)" d="M223.506,8.719c-0.213-0.286-0.249-0.321-0.694-0.321h-4.082v0.748h0.695
		c0.356,0,0.838,0.019,1.194,0.054c0.552,0.071,0.57,0.089,0.57,0.553v12.549c0,0.641,0,1.781-2.46,1.781v0.731
		c0.837-0.018,2.014-0.071,2.799-0.071c0.802,0,1.978,0.054,2.815,0.071v-0.731c-2.478,0-2.478-1.141-2.478-1.781V9.789
		c0.125,0.124,0.143,0.143,0.25,0.303l9.803,14.42c0.215,0.285,0.232,0.303,0.411,0.303c0.338,0,0.338-0.16,0.338-0.624V10.929
		c0-0.66,0-1.783,2.478-1.783V8.398c-0.856,0.035-2.032,0.071-2.815,0.071c-0.803,0-1.979-0.036-2.816-0.071v0.748
		c2.478,0,2.478,1.123,2.478,1.783v10.267L223.506,8.719"/>
	<path clip-path="url(#SVGID_16_)" d="M237.286,16.596c0,4.974,3.885,8.752,8.358,8.752c3.922,0,6.274-3.333,6.274-6.131
		c0-0.232,0-0.41-0.303-0.41c-0.268,0-0.268,0.143-0.303,0.392c-0.179,3.44-2.764,5.401-5.383,5.401
		c-1.462,0-6.167-0.82-6.167-7.985c0-7.184,4.688-8.003,6.149-8.003c2.619,0,4.759,2.192,5.239,5.703
		c0.054,0.339,0.054,0.41,0.393,0.41c0.374,0,0.374-0.071,0.374-0.57V8.452c0-0.411,0-0.571-0.267-0.571
		c-0.09,0-0.196,0-0.375,0.285l-1.212,1.766c-0.891-0.856-2.104-2.051-4.421-2.051C241.153,7.88,237.286,11.695,237.286,16.596"/>
	<path clip-path="url(#SVGID_16_)" d="M258.656,16.596v-6.487c0-0.803,0.054-0.963,1.177-0.963h2.139
		c3.832,0,3.832,2.549,3.832,3.726c0,1.123,0,3.725-3.832,3.725H258.656 M258.727,17.221h4.064c2.887,0,5.49-1.943,5.49-4.35
		c0-2.354-2.39-4.474-5.687-4.474h-8.484v0.748h0.57c1.854,0,1.907,0.268,1.907,1.123v12.673c0,0.874-0.054,1.141-1.907,1.141h-0.57
		v0.731c0.838-0.071,2.62-0.071,3.529-0.071c0.927,0,2.727,0,3.564,0.071v-0.731h-0.569c-1.854,0-1.908-0.267-1.908-1.141V17.221z"
		/>
</g>
<rect x="249.333" y="126.409" fill="none" width="13.633" height="19.4"/>
<rect x="292.566" y="261.215" fill="none" width="14.156" height="19.4"/>
<path fill="#FA0006" d="M309.775,322.635c0.264,0.965,1.088,1.58,2.106,1.58c0.843,0,1.387-0.545,1.756-1.299
	c0.403-0.844,0.719-2.3,0.719-2.335c0-0.246-0.228-0.246-0.299-0.246c-0.228,0-0.244,0.089-0.333,0.421
	c-0.315,1.334-0.771,2.949-1.772,2.949c-0.491,0-0.719-0.316-0.719-1.088c0-0.527,0.28-1.633,0.474-2.475l0.648-2.545
	c0.071-0.369,0.316-1.264,0.405-1.615c0.121-0.543,0.35-1.439,0.35-1.58c0-0.438-0.315-0.648-0.684-0.648
	c-0.105,0-0.72,0.018-0.913,0.824c-0.457,1.738-1.492,5.88-1.772,7.126c-0.035,0.106-0.983,2.001-2.704,2.001
	c-1.228,0-1.474-1.07-1.474-1.947c0-1.334,0.667-3.195,1.28-4.827c0.281-0.72,0.405-1.036,0.405-1.491
	c0-1.071-0.755-1.949-1.949-1.949c-2.246,0-3.123,3.44-3.123,3.65c0,0.246,0.246,0.246,0.28,0.246c0.246,0,0.264-0.053,0.386-0.439
	c0.597-2.053,1.492-2.931,2.388-2.931c0.211,0,0.597,0.019,0.597,0.79c0,0.562-0.264,1.246-0.404,1.598
	c-0.878,2.352-1.368,3.809-1.368,4.967c0,2.264,1.632,2.844,2.913,2.844C308.529,324.215,309.372,323.16,309.775,322.635"/>
<path fill="#FA0006" d="M361.157,137.99c0-1.281-0.613-1.668-1.035-1.668c-0.597,0-1.158,0.615-1.158,1.142
	c0,0.316,0.123,0.456,0.387,0.702c0.491,0.475,0.789,1.105,0.789,1.948c0,1.001-1.439,6.424-4.213,6.424
	c-1.193,0-1.737-0.843-1.737-2.071c0-1.316,0.632-3.054,1.37-5.02c0.157-0.403,0.28-0.72,0.28-1.176c0-1.07-0.754-1.949-1.948-1.949
	c-2.211,0-3.124,3.441-3.124,3.651c0,0.246,0.245,0.246,0.28,0.246c0.246,0,0.264-0.053,0.387-0.438
	c0.685-2.387,1.702-2.932,2.387-2.932c0.193,0,0.597,0,0.597,0.755c0,0.597-0.229,1.228-0.403,1.667
	c-1.036,2.738-1.352,3.826-1.352,4.845c0,2.562,2.089,2.931,3.177,2.931C359.824,147.047,361.157,139.219,361.157,137.99"/>
<path fill="#FA0006" d="M161.045,163.086c0.122-0.51,0.351-1.387,0.351-1.527c0-0.438-0.334-0.65-0.684-0.65
	c-0.281,0-0.703,0.193-0.878,0.668c-0.071,0.158-1.176,4.687-1.353,5.301c-0.157,0.702-0.209,1.141-0.209,1.562
	c0,0.263,0,0.315,0.017,0.42c-0.544,1.264-1.247,2.002-2.176,2.002c-1.896,0-1.896-1.756-1.896-2.159
	c0-0.755,0.123-1.685,1.246-4.599c0.246-0.702,0.387-1.035,0.387-1.51c0-1.07-0.772-1.947-1.931-1.947
	c-2.247,0-3.125,3.439-3.125,3.65c0,0.246,0.229,0.246,0.281,0.246c0.246,0,0.264-0.053,0.387-0.439
	c0.632-2.193,1.562-2.932,2.387-2.932c0.211,0,0.598,0.019,0.598,0.79c0,0.579-0.265,1.246-0.439,1.649
	c-1.036,2.792-1.317,3.88-1.317,4.775c0,2.158,1.58,2.982,3.353,2.982c0.404,0,1.527,0,2.475-1.649
	c0.615,1.51,2.247,1.649,2.949,1.649c1.772,0,2.826-1.491,3.44-2.912c0.807-1.844,1.562-5.021,1.562-6.143
	c0-1.3-0.649-1.668-1.054-1.668c-0.579,0-1.176,0.614-1.176,1.141c0,0.316,0.141,0.457,0.353,0.632
	c0.262,0.263,0.859,0.878,0.859,2.019c0,0.807-0.685,3.123-1.299,4.335c-0.614,1.246-1.458,2.089-2.615,2.089
	c-1.105,0-1.756-0.72-1.756-2.071c0-0.649,0.176-1.387,0.264-1.72L161.045,163.086"/>
<g>
	<defs>
		<rect id="SVGID_17_" x="116.979" y="153.945" width="21.648" height="16.062"/>
	</defs>
	<clipPath id="SVGID_18_">
		<use xlink:href="#SVGID_17_"  overflow="visible"/>
	</clipPath>
	<path clip-path="url(#SVGID_18_)" d="M121.852,158.031c-0.93-0.186-2.566-0.465-2.566-1.636c0-1.562,2.343-1.562,2.827-1.562
		c1.878,0,2.826,0.726,2.957,2.12c0.019,0.372,0.037,0.502,0.577,0.502c0.595,0,0.595-0.13,0.595-0.706v-2.009
		c0-0.483,0-0.706-0.446-0.706c-0.111,0-0.148,0-1.134,0.483c-0.65-0.335-1.524-0.483-2.529-0.483c-0.762,0-4.611,0-4.611,3.291
		c0,1.004,0.502,1.673,1.004,2.101c1.004,0.875,1.952,1.023,3.886,1.377c0.893,0.148,2.771,0.483,2.771,1.971
		c0,1.878-2.306,1.878-2.845,1.878c-2.659,0-3.31-1.841-3.626-2.919c-0.111-0.354-0.242-0.354-0.595-0.354
		c-0.595,0-0.595,0.148-0.595,0.725v2.734c0,0.483,0,0.707,0.446,0.707c0.167,0,0.224,0,0.744-0.373
		c0.037,0,0.576-0.371,0.669-0.428c1.153,0.801,2.454,0.801,2.957,0.801c0.763,0,4.63,0,4.63-3.664c0-1.078-0.502-1.953-1.376-2.659
		C124.604,158.496,123.804,158.348,121.852,158.031"/>
	<path clip-path="url(#SVGID_18_)" d="M133.604,168.574c-0.558,0-1.097-0.185-1.506-0.557c-0.483-0.41-0.781-0.67-0.781-4.648
		c0-1.209,0-2.585,0.205-3.422c0.279-1.135,1.357-1.451,2.083-1.451c0.65,0,1.804,0.279,2.083,1.488
		c0.186,0.818,0.186,2.269,0.186,3.385c0,1.227,0,2.51-0.167,3.496C135.444,168.277,134.236,168.574,133.604,168.574
		 M138.308,163.61c0-2.157-0.223-5.933-4.705-5.933s-4.723,3.794-4.723,5.933c0,2.194,0.297,5.765,4.723,5.765
		S138.308,165.823,138.308,163.61z"/>
</g>
<g>
	<defs>
		<rect id="SVGID_19_" x="19.968" y="33.295" width="166.848" height="19.629"/>
	</defs>
	<clipPath id="SVGID_20_">
		<use xlink:href="#SVGID_19_"  overflow="visible"/>
	</clipPath>
	<path clip-path="url(#SVGID_20_)" d="M24.089,33.505l-3.9,0.301v0.844c1.89,0,2.111,0.182,2.111,1.508V50.25
		c0,1.226-0.302,1.226-2.111,1.226v0.845c0.884-0.021,2.332-0.08,2.995-0.08c0.684,0,2.011,0.06,3.016,0.08v-0.845
		c-1.81,0-2.111,0-2.111-1.226V33.505"/>
	<path clip-path="url(#SVGID_20_)" d="M33.538,51.939c-1.166,0-2.352-0.563-3.096-1.809c-0.664-1.206-0.664-2.855-0.664-3.82
		c0-1.065,0-2.533,0.644-3.719c0.744-1.247,2.01-1.83,3.096-1.83c1.186,0,2.352,0.603,3.056,1.77
		c0.704,1.166,0.704,2.734,0.704,3.779c0,0.965,0,2.432-0.583,3.619C36.091,51.155,34.905,51.939,33.538,51.939 M39.528,46.512
		c0-3.458-2.714-6.333-5.991-6.333c-3.377,0-6.01,2.955-6.01,6.333c0,3.498,2.814,6.111,5.99,6.111
		C36.794,52.623,39.528,49.969,39.528,46.512z"/>
	<path clip-path="url(#SVGID_20_)" d="M44.273,46.411c0-4.422,2.231-5.568,3.659-5.568c0.261,0,1.97,0.041,2.915,1.005
		c-1.125,0.081-1.287,0.905-1.287,1.246c0,0.704,0.502,1.247,1.247,1.247c0.703,0,1.247-0.442,1.247-1.267
		c0-1.85-2.051-2.895-4.142-2.895c-3.397,0-5.89,2.915-5.89,6.292c0,3.458,2.694,6.152,5.83,6.152c3.639,0,4.503-3.257,4.503-3.538
		c0-0.262-0.261-0.262-0.342-0.262c-0.241,0-0.301,0.101-0.362,0.262c-0.784,2.532-2.553,2.854-3.538,2.854
		C46.665,51.939,44.273,50.773,44.273,46.411"/>
	<path clip-path="url(#SVGID_20_)" d="M61.943,45.808v2.714c0,2.573-1.95,3.499-3.156,3.499c-1.347,0-2.453-0.945-2.453-2.312
		C56.334,48.22,57.48,45.968,61.943,45.808 M62.144,50.25c0.101,1.086,0.844,2.232,2.111,2.232c0.563,0,2.231-0.382,2.231-2.573
		v-1.528h-0.684v1.528c0,1.567-0.684,1.729-0.985,1.729c-0.885,0-1.005-1.207-1.005-1.347v-5.428c0-1.146,0-2.191-0.965-3.197
		c-1.065-1.065-2.413-1.487-3.719-1.487c-2.211,0-4.101,1.266-4.101,3.055c0,0.824,0.542,1.267,1.246,1.267
		c0.764,0,1.267-0.522,1.267-1.247c0-0.321-0.141-1.206-1.387-1.246c0.724-0.945,2.05-1.247,2.915-1.247
		c1.327,0,2.875,1.066,2.875,3.478v1.006c-1.367,0.081-3.277,0.161-4.985,0.965c-2.03,0.925-2.714,2.332-2.714,3.539
		c0,2.191,2.634,2.875,4.342,2.875C60.375,52.623,61.622,51.537,62.144,50.25z"/>
	<path clip-path="url(#SVGID_20_)" d="M71.432,33.505l-3.92,0.301v0.844c1.91,0,2.131,0.182,2.131,1.508V50.25
		c0,1.226-0.302,1.226-2.131,1.226v0.845c0.905-0.021,2.332-0.08,3.015-0.08c0.684,0,2.01,0.06,3.016,0.08v-0.845
		c-1.83,0-2.111,0-2.111-1.226V33.505"/>
	<path clip-path="url(#SVGID_20_)" d="M86.147,42.994v7.257c0,1.226-0.302,1.226-2.112,1.226v0.845
		c0.945-0.021,2.332-0.08,3.056-0.08c0.704,0,2.111,0.06,3.035,0.08v-0.845c-1.809,0-2.11,0-2.11-1.226v-4.985
		c0-2.814,1.929-4.342,3.658-4.342c1.708,0,2.01,1.467,2.01,3.015v6.312c0,1.226-0.301,1.226-2.13,1.226v0.845
		c0.965-0.021,2.332-0.08,3.076-0.08c0.703,0,2.111,0.06,3.036,0.08v-0.845c-1.81,0-2.112,0-2.112-1.226v-4.985
		c0-2.814,1.93-4.342,3.659-4.342c1.709,0,2.011,1.467,2.011,3.015v6.312c0,1.226-0.302,1.226-2.131,1.226v0.845
		c0.965-0.021,2.332-0.08,3.076-0.08c0.704,0,2.111,0.06,3.035,0.08v-0.845c-1.407,0-2.091,0-2.111-0.804v-5.187
		c0-2.332,0-3.176-0.844-4.142c-0.382-0.462-1.287-1.005-2.855-1.005c-2.271,0-3.458,1.628-3.919,2.654
		c-0.382-2.352-2.393-2.654-3.618-2.654c-1.972,0-3.257,1.166-4.001,2.834V40.34l-3.82,0.302v0.824
		C85.926,41.466,86.147,41.667,86.147,42.994"/>
	<path clip-path="url(#SVGID_20_)" d="M108.743,46.049h7.559c0.603,0,0.683,0,0.683-0.562c0-2.673-1.467-5.307-4.844-5.307
		c-3.157,0-5.65,2.794-5.65,6.172c0,3.638,2.855,6.272,5.971,6.272c3.296,0,4.522-3.016,4.522-3.538
		c0-0.262-0.221-0.322-0.361-0.322c-0.242,0-0.282,0.162-0.342,0.383c-0.945,2.794-3.397,2.794-3.659,2.794
		c-1.367,0-2.433-0.804-3.076-1.809C108.743,48.823,108.743,47.035,108.743,46.049 M108.762,45.486
		c0.161-4.041,2.453-4.725,3.378-4.725c2.793,0,3.055,3.659,3.055,4.725H108.762z"/>
	<path clip-path="url(#SVGID_20_)" d="M122.332,43.315V40.34l-3.759,0.302v0.824c1.889,0,2.11,0.201,2.11,1.528v7.257
		c0,1.226-0.301,1.226-2.11,1.226v0.845c1.066-0.021,2.333-0.08,3.096-0.08c1.086,0,2.353,0,3.438,0.08v-0.845h-0.563
		c-2.01,0-2.07-0.302-2.07-1.266v-4.182c0-2.673,1.146-5.105,3.197-5.105c0.201,0,0.24,0,0.301,0.04
		c-0.08,0.02-0.622,0.342-0.622,1.045c0,0.764,0.562,1.166,1.165,1.166c0.483,0,1.166-0.322,1.166-1.186
		c0-0.865-0.845-1.649-2.01-1.649C123.7,40.34,122.714,42.149,122.332,43.315"/>
	<path clip-path="url(#SVGID_20_)" d="M133.288,35.616c0-0.864-0.683-1.427-1.426-1.427c-0.845,0-1.448,0.724-1.448,1.427
		c0,0.744,0.603,1.447,1.448,1.447C132.604,37.063,133.288,36.48,133.288,35.616 M133.188,40.34l-3.799,0.302v0.824
		c1.749,0,2.01,0.181,2.01,1.508v7.277c0,1.226-0.301,1.226-2.13,1.226v0.845c0.885-0.021,2.332-0.08,2.995-0.08
		c0.945,0,1.89,0.06,2.815,0.08v-0.845c-1.79,0-1.89-0.14-1.89-1.186V40.34z"/>
	<path clip-path="url(#SVGID_20_)" d="M146.235,43.556v5.568c0,0.483,0,0.543-0.302,1.006c-0.804,1.287-2.03,1.89-3.196,1.89
		c-1.226,0-2.192-0.704-2.855-1.729c-0.703-1.106-0.784-2.653-0.784-3.779c0-1.006,0.061-2.614,0.844-3.84
		c0.563-0.844,1.609-1.749,3.057-1.749c0.964,0,2.09,0.421,2.934,1.628C146.235,43.013,146.235,43.074,146.235,43.556
		 M146.235,50.833v1.79l3.98-0.302v-0.845c-1.891,0-2.112-0.181-2.112-1.508V33.505l-3.899,0.301v0.844
		c1.89,0,2.111,0.182,2.111,1.508v5.85c-0.784-0.965-1.949-1.668-3.418-1.668c-3.195,0-6.05,2.654-6.05,6.151
		c0,3.438,2.673,6.132,5.749,6.132C144.345,52.623,145.551,51.698,146.235,50.833z"/>
	<path clip-path="url(#SVGID_20_)" d="M155.864,35.616c0-0.864-0.684-1.427-1.448-1.427c-0.824,0-1.426,0.724-1.426,1.427
		c0,0.744,0.602,1.447,1.426,1.447C155.18,37.063,155.864,36.48,155.864,35.616 M155.764,40.34l-3.8,0.302v0.824
		c1.749,0,2.011,0.181,2.011,1.508v7.277c0,1.226-0.302,1.226-2.131,1.226v0.845c0.865-0.021,2.332-0.08,2.996-0.08
		c0.944,0,1.89,0.06,2.814,0.08v-0.845c-1.789,0-1.889-0.14-1.889-1.186V40.34z"/>
	<path clip-path="url(#SVGID_20_)" d="M167.342,45.808v2.714c0,2.573-1.95,3.499-3.177,3.499c-1.327,0-2.432-0.945-2.432-2.312
		C161.734,48.22,162.88,45.968,167.342,45.808 M167.543,50.25c0.101,1.086,0.824,2.232,2.11,2.232c0.563,0,2.212-0.382,2.212-2.573
		v-1.528h-0.664v1.528c0,1.567-0.684,1.729-0.985,1.729c-0.885,0-1.005-1.207-1.005-1.347v-5.428c0-1.146,0-2.191-0.964-3.197
		c-1.065-1.065-2.413-1.487-3.719-1.487c-2.231,0-4.101,1.266-4.101,3.055c0,0.824,0.542,1.267,1.246,1.267
		c0.764,0,1.246-0.522,1.246-1.247c0-0.321-0.121-1.206-1.387-1.246c0.744-0.945,2.071-1.247,2.935-1.247
		c1.326,0,2.875,1.066,2.875,3.478v1.006c-1.387,0.081-3.277,0.161-4.985,0.965c-2.031,0.925-2.714,2.332-2.714,3.539
		c0,2.191,2.633,2.875,4.342,2.875C165.774,52.623,167.02,51.537,167.543,50.25z"/>
	<path clip-path="url(#SVGID_20_)" d="M175.002,42.994v7.257c0,1.226-0.302,1.226-2.112,1.226v0.845
		c0.945-0.021,2.333-0.08,3.056-0.08c0.704,0,2.111,0.06,3.035,0.08v-0.845c-1.809,0-2.11,0-2.11-1.226v-4.985
		c0-2.814,1.93-4.342,3.658-4.342c1.709,0,2.01,1.467,2.01,3.015v6.312c0,1.226-0.301,1.226-2.11,1.226v0.845
		c0.944-0.021,2.331-0.08,3.055-0.08c0.704,0,2.111,0.06,3.036,0.08v-0.845c-1.408,0-2.091,0-2.111-0.804v-5.187
		c0-2.332,0-3.176-0.844-4.142c-0.383-0.462-1.266-1.005-2.835-1.005c-1.99,0-3.256,1.166-4.021,2.834V40.34l-3.82,0.302v0.824
		C174.781,41.466,175.002,41.667,175.002,42.994"/>
</g>
<g>
	<path fill="#FA0006" d="M195.729,137.019h1.434c-0.416,1.886-0.529,2.433-0.529,3.281c0,0.189,0,0.537,0.095,0.972
		c0.132,0.557,0.273,0.632,0.461,0.632c0.254,0,0.519-0.227,0.519-0.481c0-0.075,0-0.104-0.075-0.282
		c-0.368-0.914-0.368-1.745-0.368-2.094c0-0.68,0.095-1.367,0.227-2.027h1.451c0.17,0,0.623,0,0.623-0.435
		c0-0.301-0.264-0.301-0.509-0.301h-4.262c-0.273,0-0.754,0-1.32,0.594c-0.442,0.5-0.773,1.085-0.773,1.15
		c0,0.01,0,0.123,0.15,0.123c0.104,0,0.132-0.048,0.208-0.15c0.623-0.981,1.358-0.981,1.613-0.981h0.726
		c-0.406,1.537-1.093,3.083-1.631,4.234c-0.104,0.197-0.104,0.216-0.104,0.312c0,0.234,0.208,0.339,0.377,0.339
		c0.377,0,0.481-0.359,0.632-0.83c0.179-0.584,0.179-0.604,0.34-1.244L195.729,137.019"/>
	
		<line fill="none" stroke="#FA0006" stroke-width="0.5074" stroke-miterlimit="10" x1="192.353" y1="147.174" x2="200.047" y2="147.174"/>
	<path fill="#FA0006" d="M194.644,158.103l1.348-1.311c1.989-1.754,2.744-2.442,2.744-3.715c0-1.452-1.141-2.471-2.696-2.471
		c-1.434,0-2.377,1.179-2.377,2.31c0,0.708,0.642,0.708,0.68,0.708c0.216,0,0.66-0.151,0.66-0.67c0-0.33-0.227-0.67-0.68-0.67
		c-0.094,0-0.122,0-0.16,0.02c0.293-0.829,0.981-1.302,1.716-1.302c1.159,0,1.707,1.037,1.707,2.075c0,1.019-0.641,2.026-1.339,2.81
		l-2.443,2.726c-0.141,0.141-0.141,0.159-0.141,0.471h4.725l0.348-2.217h-0.311c-0.066,0.388-0.15,0.943-0.282,1.132
		c-0.084,0.104-0.925,0.104-1.207,0.104H194.644"/>
	<path fill="#FA0006" d="M212.776,147.41c0.216,0,0.443,0,0.443-0.255c0-0.254-0.227-0.254-0.443-0.254h-6.874
		c-0.217,0-0.452,0-0.452,0.254c0,0.255,0.235,0.255,0.452,0.255H212.776"/>
	<path fill="#FA0006" d="M220.622,145.053c0.319,0.585,0.697,1.272,0.697,2.188c0,0.839-0.48,2.971-1.669,2.971
		c-0.698,0-1.216-0.538-1.216-1.51C218.434,147.909,218.905,145.515,220.622,145.053 M220.471,144.778
		c-1.594,0.378-2.83,2.037-2.83,3.574c0,1.217,0.822,2.131,2.009,2.131c1.489,0,2.546-1.989,2.546-3.753
		c0-1.149-0.509-1.791-0.943-2.356c-0.453-0.575-1.207-1.528-1.207-2.094c0-0.273,0.254-0.584,0.698-0.584
		c0.388,0,0.642,0.168,0.906,0.348c0.253,0.152,0.509,0.312,0.696,0.312c0.322,0,0.511-0.302,0.511-0.509
		c0-0.273-0.199-0.312-0.661-0.415c-0.66-0.142-0.839-0.142-1.037-0.142c-1,0-1.453,0.547-1.453,1.311
		C219.707,143.289,220.075,143.996,220.471,144.778z"/>
	<path fill="#FA0006" d="M225.26,152.172c-0.405,0-0.953-0.236-1.122-0.963c-0.132-0.527-0.132-1.253-0.132-1.914
		c0-0.641,0-1.319,0.132-1.81c0.189-0.698,0.753-0.887,1.122-0.887c0.481,0,0.943,0.293,1.104,0.812
		c0.141,0.48,0.15,1.121,0.15,1.885c0,0.661,0,1.32-0.114,1.877C226.223,151.982,225.619,152.172,225.26,152.172 M227.316,149.418
		c0-0.98-0.113-1.678-0.52-2.301c-0.273-0.405-0.83-0.764-1.537-0.764c-2.055,0-2.055,2.423-2.055,3.064
		c0,0.632,0,3.009,2.055,3.009C227.316,152.427,227.316,150.05,227.316,149.418z"/>
	<rect x="192.286" y="136.169" fill="none" width="35.058" height="23.018"/>
</g>
<line fill="none" stroke="#FF0000" stroke-width="1.2344" stroke-miterlimit="10" x1="224.181" y1="194.364" x2="211.632" y2="160.646"/>
<g>
	<g>
		<g>
			<g>
				<path fill="none" stroke="#FF0000" stroke-width="1.5" d="M216.69,211.909c1.433-2.465,2.995-4.929,4.309-6.471
					c3.385-3.972,7.374-7.082,11.536-9.253c3.056-1.594,9.617-2.645,9.617-2.645"/>
				<g>
					<path fill="#FF0000" d="M217.734,210.175l-2.365-4.113l-0.147,0.077l-0.882,7.057c-0.665,2.262-1.331,4.524-1.996,6.786
						c1.554-1.773,3.106-3.548,4.66-5.321l5.484-4.528l0.007-0.154L217.734,210.175z"/>
				</g>
			</g>
		</g>
		<g>
			<g>
				<path fill="none" stroke="#FF0000" stroke-width="1.5" d="M327.665,177.92c0.94,1.216,1.817,2.465,2.482,3.631
					c2.559,4.492,4.302,9.575,5.251,14.732c0.696,3.787,0.269,11.597,0.269,11.597"/>
				<g>
					<path fill="#FF0000" d="M328.888,179.532l4.68-0.778l-0.021-0.165l-6.304-3.293c-1.887-1.414-3.773-2.828-5.66-4.242
						c1.118,2.076,2.238,4.15,3.357,6.227l2.325,6.72l0.143,0.061L328.888,179.532z"/>
				</g>
			</g>
		</g>
		<g>
			<g>
				<g>
					<path fill="none" stroke="#FF0000" stroke-width="1.5" d="M264.609,287.303c-3.608-1.775-5.801-5.25-5.618-9.479
						c0.264-6.051,5.314-11.951,12.057-14.083c6.74-2.137,13.286,0.092,15.625,5.313c1.542,3.445,0.969,7.561-1.276,11.153"/>
					<g>
						<path fill="#FF0000" d="M263.505,286.75l-2.083,1.938l0.065,0.076l4.244-0.439c1.412,0.083,2.825,0.165,4.237,0.248
							c-1.247-0.668-2.495-1.335-3.742-2.004l-3.389-2.592l-0.091,0.017L263.505,286.75z"/>
					</g>
				</g>
			</g>
		</g>
		<g>
			<path fill="none" stroke="#FF0000" d="M242.152,240.538c104.93-92.565-2.066,1.822,104.844-92.491"/>
			<path fill-rule="evenodd" clip-rule="evenodd" d="M343.078,151.507l-0.266,4.233l5.287-8.693l-9.256,4.197L343.078,151.507z
				 M343.078,151.507"/>
			<path fill="#FF0000" stroke="#FF0000" stroke-width="0.75" d="M343.078,151.507l-0.266,4.233l4.656-8.062l-8.625,3.566
				L343.078,151.507z M343.078,151.507"/>
			<g>
				<g>
					<path fill="none" stroke="#FF0000" d="M242.262,240.441c26.932,31.296,39.381,45.827,45.136,52.574"/>
					<g>
						<path fill="#FF0000" d="M286.3,291.729l1.252-3.761l0.134,0.038l1.896,5.632c0.921,1.741,1.842,3.483,2.763,5.225
							c-1.567-1.194-3.133-2.389-4.701-3.583l-5.243-2.796l-0.031-0.125L286.3,291.729z"/>
					</g>
				</g>
			</g>
			<g>
				<g>
					<line fill="none" stroke="#FF0000" x1="242.262" y1="240.441" x2="151.058" y2="177.079"/>
					<g>
						<path fill="#FF0000" d="M152.532,178.104l-0.256,4.209l-0.148-0.003l-3.493-5.27c-1.424-1.537-2.848-3.075-4.272-4.612
							c1.938,0.797,3.876,1.597,5.814,2.394l6.156,1.436l0.066,0.12L152.532,178.104z"/>
					</g>
				</g>
			</g>
		</g>
	</g>
	<polyline fill="none" stroke="#FF0000" stroke-miterlimit="10" points="236.167,236.207 242.914,229.62 248.708,234.755 
		253.365,240.611 247.163,246.234 	"/>
</g>
<g>
	<path fill="#008000" d="M214.615,285.442c-0.409,0-0.939-0.233-1.116-0.949c-0.122-0.521-0.122-1.236-0.122-1.888
		c0-0.632,0-1.302,0.13-1.784c0.186-0.689,0.744-0.875,1.107-0.875c0.466,0,0.921,0.288,1.079,0.8
		c0.139,0.475,0.149,1.106,0.149,1.859c0,0.651,0,1.302-0.112,1.851C215.554,285.256,214.959,285.442,214.615,285.442
		 M216.642,282.727c0-0.967-0.112-1.655-0.521-2.269c-0.271-0.4-0.809-0.753-1.506-0.753c-2.037,0-2.037,2.39-2.037,3.021
		c0,0.623,0,2.967,2.037,2.967C216.642,285.693,216.642,283.35,216.642,282.727z"/>
	<path fill="#008000" d="M181.22,267.286h1.443c-0.423,1.886-0.537,2.433-0.537,3.281c0,0.188,0,0.537,0.103,0.971
		c0.123,0.557,0.265,0.632,0.453,0.632c0.254,0,0.529-0.226,0.529-0.48c0-0.076,0-0.104-0.075-0.283
		c-0.377-0.914-0.377-1.744-0.377-2.093c0-0.68,0.094-1.367,0.235-2.027h1.443c0.17,0,0.632,0,0.632-0.435
		c0-0.301-0.273-0.301-0.509-0.301h-4.262c-0.283,0-0.764,0-1.33,0.594c-0.443,0.499-0.773,1.084-0.773,1.15
		c0,0.009,0,0.122,0.15,0.122c0.104,0,0.132-0.047,0.208-0.15c0.622-0.98,1.357-0.98,1.612-0.98h0.726
		c-0.405,1.537-1.093,3.083-1.632,4.233c-0.093,0.198-0.093,0.217-0.093,0.312c0,0.235,0.198,0.339,0.368,0.339
		c0.377,0,0.481-0.358,0.632-0.829c0.18-0.585,0.18-0.604,0.349-1.245L181.22,267.286"/>
	
		<line fill="none" stroke="#008000" stroke-width="0.5074" stroke-miterlimit="10" x1="177.835" y1="277.441" x2="185.529" y2="277.441"/>
	<path fill="#008000" d="M180.135,288.37l1.35-1.312c1.989-1.753,2.753-2.441,2.753-3.714c0-1.453-1.15-2.471-2.696-2.471
		c-1.443,0-2.377,1.178-2.377,2.31c0,0.707,0.632,0.707,0.67,0.707c0.216,0,0.66-0.15,0.66-0.669c0-0.33-0.227-0.67-0.67-0.67
		c-0.103,0-0.13,0-0.168,0.019c0.292-0.829,0.98-1.301,1.716-1.301c1.16,0,1.707,1.037,1.707,2.075c0,1.018-0.632,2.026-1.339,2.81
		l-2.443,2.725c-0.132,0.142-0.132,0.16-0.132,0.471h4.714l0.359-2.216h-0.321c-0.066,0.387-0.15,0.943-0.284,1.132
		c-0.084,0.104-0.923,0.104-1.207,0.104H180.135"/>
	<path fill="#008000" d="M198.269,277.677c0.216,0,0.453,0,0.453-0.255c0-0.254-0.236-0.254-0.453-0.254h-6.875
		c-0.216,0-0.442,0-0.442,0.254c0,0.255,0.226,0.255,0.442,0.255H198.269"/>
	<path fill="#008000" d="M212.271,272.896c0.113-0.462,0.141-0.585,1.075-0.585c0.33,0,0.423,0,0.423-0.255
		c0-0.141-0.132-0.141-0.168-0.141c-0.359,0-1.273,0.037-1.632,0.037c-0.368,0-1.273-0.037-1.641-0.037
		c-0.103,0-0.244,0-0.244,0.254c0,0.142,0.112,0.142,0.357,0.142c0.028,0,0.264,0,0.482,0.02c0.236,0.027,0.348,0.037,0.348,0.207
		c0,0.047-0.019,0.075-0.057,0.245l-0.764,3.102h-3.875l0.755-2.988c0.113-0.462,0.151-0.585,1.065-0.585
		c0.33,0,0.434,0,0.434-0.255c0-0.141-0.141-0.141-0.179-0.141c-0.359,0-1.273,0.037-1.63,0.037c-0.368,0-1.274-0.037-1.641-0.037
		c-0.104,0-0.236,0-0.236,0.254c0,0.142,0.112,0.142,0.348,0.142c0.029,0,0.273,0,0.491,0.02c0.226,0.027,0.339,0.037,0.339,0.207
		c0,0.047-0.009,0.085-0.046,0.245l-1.707,6.827c-0.132,0.499-0.152,0.593-1.161,0.593c-0.226,0-0.339,0-0.339,0.256
		c0,0.141,0.15,0.141,0.18,0.141c0.349,0,1.254-0.037,1.612-0.037c0.264,0,0.547,0.009,0.811,0.009c0.284,0,0.566,0.028,0.83,0.028
		c0.104,0,0.255,0,0.255-0.254c0-0.143-0.113-0.143-0.357-0.143c-0.472,0-0.831,0-0.831-0.226c0-0.075,0.029-0.142,0.038-0.217
		l0.868-3.479h3.885c-0.537,2.104-0.83,3.319-0.877,3.508c-0.132,0.405-0.377,0.414-1.16,0.414c-0.188,0-0.311,0-0.311,0.256
		c0,0.141,0.16,0.141,0.179,0.141c0.357,0,1.264-0.037,1.621-0.037c0.264,0,0.548,0.009,0.812,0.009c0.282,0,0.557,0.028,0.83,0.028
		c0.095,0,0.255,0,0.255-0.254c0-0.143-0.123-0.143-0.359-0.143c-0.471,0-0.829,0-0.829-0.226c0-0.075,0.028-0.142,0.037-0.217
		L212.271,272.896"/>
	<rect x="177.675" y="266.437" fill="none" width="40.369" height="23.018"/>
</g>
<line opacity="0.9" fill="none" stroke="#00AA00" stroke-width="0.8628" x1="202.91" y1="269.418" x2="216.72" y2="255.546"/>
<g>
	<defs>
		<rect id="SVGID_21_" x="367.516" y="176.407" width="22.226" height="19.051"/>
	</defs>
	<clipPath id="SVGID_22_">
		<use xlink:href="#SVGID_21_"  overflow="visible"/>
	</clipPath>
	<path clip-path="url(#SVGID_22_)" fill="#139201" d="M381.229,181.948c0.847-1.387,2.198-1.489,2.926-1.489v-0.71
		c-0.71,0.051-1.623,0.067-2.232,0.067c-0.71,0-2.029-0.033-2.62-0.067v0.71c0.931,0,1.302,0.439,1.302,0.896
		c0,0.253-0.136,0.541-0.237,0.677l-3.754,6.12l-4.126-6.729c-0.169-0.237-0.169-0.271-0.169-0.391c0-0.472,0.575-0.574,1.607-0.574
		v-0.71c-0.829,0.067-2.504,0.067-3.382,0.067c-0.965,0-2.013-0.017-2.96-0.067v0.71h0.405c1.556,0,1.726,0.254,2.098,0.846
		l4.785,7.795v4.447c0,0.829-0.052,1.082-1.792,1.082h-0.559v0.693c0.829-0.067,2.452-0.067,3.331-0.067c0.896,0,2.52,0,3.331,0.067
		v-0.693h-0.523c-1.76,0-1.827-0.235-1.827-1.115V189.1L381.229,181.948"/>
	<path clip-path="url(#SVGID_22_)" fill="#139201" d="M389.024,177.906c0.117-0.271,0.135-0.39,0.135-0.507
		c0-0.491-0.439-0.88-0.93-0.88c-0.61,0-0.795,0.507-0.88,0.762l-2.096,6.88c-0.018,0.036-0.086,0.238-0.086,0.255
		c0,0.203,0.49,0.355,0.626,0.355c0.102,0,0.119-0.034,0.237-0.271L389.024,177.906"/>
</g>
<g>
	<defs>
		<rect id="SVGID_23_" x="280.718" y="305.163" width="22.225" height="19.052"/>
	</defs>
	<clipPath id="SVGID_24_">
		<use xlink:href="#SVGID_23_"  overflow="visible"/>
	</clipPath>
	<path clip-path="url(#SVGID_24_)" fill="#139201" d="M289.696,315.285l3.129-4.582c0.491-0.727,1.269-1.471,3.298-1.488v-0.709
		c-0.88,0.033-1.962,0.066-2.52,0.066c-0.914,0-2.013,0-2.926-0.066v0.709c0.913,0.018,1.421,0.524,1.421,1.049
		c0,0.236-0.051,0.271-0.221,0.523l-2.587,3.856l-2.942-4.397c-0.051-0.066-0.168-0.254-0.168-0.338
		c0-0.287,0.507-0.676,1.486-0.693v-0.709c-0.793,0.066-2.468,0.066-3.33,0.066c-0.71,0-2.114-0.016-2.959-0.066v0.709h0.423
		c1.251,0,1.691,0.17,2.13,0.795l4.194,6.342l-3.738,5.529c-0.32,0.456-1.014,1.504-3.313,1.504v0.693
		c0.829-0.018,1.775-0.066,2.536-0.066c0.846,0,2.098,0,2.908,0.066v-0.693c-1.047-0.033-1.438-0.643-1.438-1.048
		c0-0.22,0.085-0.305,0.237-0.558l3.247-4.785l3.602,5.444c0.034,0.101,0.102,0.186,0.102,0.254c0,0.271-0.491,0.659-1.472,0.692
		v0.693c0.795-0.066,2.452-0.066,3.331-0.066c0.948,0,1.996,0.033,2.96,0.066v-0.693h-0.44c-1.184,0-1.656-0.117-2.13-0.828
		L289.696,315.285"/>
	<path clip-path="url(#SVGID_24_)" fill="#139201" d="M302.227,306.662c0.119-0.271,0.135-0.389,0.135-0.508
		c0-0.49-0.439-0.879-0.93-0.879c-0.609,0-0.795,0.508-0.879,0.761l-2.098,6.882c-0.016,0.034-0.084,0.236-0.084,0.254
		c0,0.203,0.49,0.355,0.625,0.355c0.102,0,0.119-0.033,0.236-0.271L302.227,306.662"/>
</g>
<g>
	<defs>
		<rect id="SVGID_25_" x="241.596" y="32.69" width="19.539" height="21.257"/>
	</defs>
	<clipPath id="SVGID_26_">
		<use xlink:href="#SVGID_25_"  overflow="visible"/>
	</clipPath>
	<path clip-path="url(#SVGID_26_)" fill="#139201" d="M254.323,37.325c0.187-0.283,0.187-0.321,0.187-0.49
		c0-0.415-0.149-0.415-0.65-0.415h-11.242l-0.279,5.736h0.632c0.186-2.887,0.928-4.943,5.035-4.943h3.94l-9.756,15.66
		c-0.167,0.264-0.167,0.302-0.167,0.51c0,0.414,0.131,0.414,0.65,0.414h11.558l0.429-6.792h-0.633
		c-0.204,3.548-0.668,5.943-5.315,5.943h-4.105L254.323,37.325"/>
	<path clip-path="url(#SVGID_26_)" fill="#139201" d="M260.976,34.362c0.131-0.301,0.148-0.434,0.148-0.565
		c0-0.547-0.483-0.981-1.021-0.981c-0.668,0-0.874,0.566-0.967,0.849l-2.304,7.679c-0.017,0.038-0.091,0.264-0.091,0.283
		c0,0.226,0.538,0.396,0.687,0.396c0.111,0,0.131-0.038,0.26-0.302L260.976,34.362"/>
</g>
<g>
	<path fill="#FA0006" d="M292.27,274.234l1.997-1.941c2.946-2.596,4.077-3.615,4.077-5.5c0-2.136-1.703-3.645-3.993-3.645
		c-2.136,0-3.518,1.732-3.518,3.407c0,1.048,0.936,1.048,0.991,1.048c0.321,0,0.978-0.225,0.978-0.992
		c0-0.488-0.335-0.978-0.992-0.978c-0.153,0-0.195,0-0.251,0.015c0.433-1.229,1.452-1.927,2.541-1.927
		c1.717,0,2.526,1.536,2.526,3.071c0,1.508-0.935,3.002-1.982,4.16l-3.616,4.035c-0.195,0.209-0.195,0.252-0.195,0.698h6.981
		l0.53-3.281h-0.475c-0.098,0.572-0.224,1.396-0.419,1.675c-0.125,0.154-1.368,0.154-1.787,0.154H292.27"/>
	<path fill="#FA0006" d="M304.709,270.981c0-1.466-0.209-3.755-1.242-5.878c-1.131-2.317-2.75-3.547-2.932-3.547
		c-0.111,0-0.195,0.084-0.195,0.196c0,0.056,0,0.098,0.363,0.433c1.842,1.857,2.917,4.858,2.917,8.796
		c0,3.212-0.698,6.534-3.029,8.907c-0.251,0.224-0.251,0.266-0.251,0.321c0,0.112,0.084,0.182,0.195,0.182
		c0.182,0,1.885-1.284,2.988-3.672C304.486,274.653,304.709,272.559,304.709,270.981"/>
	<g>
		<defs>
			<rect id="SVGID_27_" x="305.67" y="258.938" width="75.604" height="25.33"/>
		</defs>
		<clipPath id="SVGID_28_">
			<use xlink:href="#SVGID_27_"  overflow="visible"/>
		</clipPath>
		<path clip-path="url(#SVGID_28_)" fill="#FF0000" d="M312.624,269.771c1.411-0.312,3.081-1.297,3.081-2.709
			c0-1.203-1.266-2.096-3.091-2.096h-3.996c-0.28,0-0.404,0-0.404,0.28c0,0.155,0.124,0.155,0.395,0.155c0.029,0,0.29,0,0.529,0.021
			c0.248,0.031,0.383,0.041,0.383,0.229c0,0.051-0.02,0.093-0.062,0.27l-1.877,7.513c-0.135,0.55-0.166,0.653-1.268,0.653
			c-0.259,0-0.383,0-0.383,0.281c0,0.154,0.165,0.154,0.196,0.154c0.395,0,1.37-0.041,1.765-0.041s1.39,0.041,1.774,0.041
			c0.114,0,0.28,0,0.28-0.28c0-0.155-0.125-0.155-0.384-0.155c-0.519,0-0.913,0-0.913-0.249c0-0.083,0.031-0.155,0.041-0.238
			l0.925-3.705h1.67c1.266,0,1.516,0.779,1.516,1.267c0,0.217-0.104,0.643-0.187,0.975c-0.104,0.385-0.229,0.903-0.229,1.184
			c0,1.516,1.682,1.516,1.856,1.516c1.195,0,1.683-1.412,1.683-1.609c0-0.166-0.155-0.166-0.166-0.166
			c-0.125,0-0.156,0.094-0.177,0.188c-0.353,1.037-0.955,1.275-1.276,1.275c-0.468,0-0.561-0.311-0.561-0.851
			c0-0.436,0.083-1.151,0.136-1.598c0.03-0.197,0.062-0.456,0.062-0.653C313.941,270.342,312.997,269.906,312.624,269.771
			 M310.61,265.932c0.084-0.332,0.124-0.477,0.395-0.52c0.124-0.01,0.571-0.01,0.852-0.01c0.995,0,2.542,0,2.542,1.381
			c0,0.477-0.218,1.441-0.768,1.992c-0.363,0.363-1.101,0.809-2.367,0.809h-1.566L310.61,265.932z"/>
		<path clip-path="url(#SVGID_28_)" fill="#FF0000" d="M321.433,272.895l0.925-0.924c1.244-1.234,1.629-1.607,2.512-1.66
			c0.124-0.01,0.238-0.01,0.238-0.207c0-0.115-0.104-0.146-0.136-0.146c-0.28,0-0.622,0.042-0.913,0.042
			c-0.259,0-0.881-0.042-1.131-0.042c-0.083,0-0.197,0.03-0.197,0.218c0,0.01,0,0.125,0.146,0.135
			c0.082,0.011,0.333,0.031,0.333,0.238c0,0.156-0.146,0.312-0.251,0.406c-0.071,0.072-1.317,1.275-1.681,1.648l-0.985-1.909
			c-0.021-0.031-0.041-0.104-0.041-0.146c0-0.062,0.187-0.217,0.519-0.238c0.062,0,0.196-0.01,0.196-0.218
			c0-0.011-0.01-0.135-0.165-0.135c-0.196,0-0.447,0.03-0.653,0.03c-0.208,0-0.426,0.012-0.634,0.012c-0.166,0-0.404,0-0.571-0.012
			c-0.165-0.01-0.373-0.03-0.528-0.03c-0.052,0-0.208,0-0.208,0.218c0,0.135,0.125,0.135,0.28,0.135
			c0.571,0,0.623,0.094,0.717,0.291l1.37,2.697l-0.552,0.551c-0.187,0.176-0.642,0.612-0.818,0.799
			c-1.193,1.183-1.588,1.587-2.471,1.629c-0.134,0.011-0.248,0.011-0.248,0.219c0,0.041,0.03,0.135,0.134,0.135
			c0.291,0,0.622-0.041,0.914-0.041c0.165,0,0.415,0,0.581,0.01c0.165,0.01,0.384,0.031,0.55,0.031c0.052,0,0.208,0,0.208-0.208
			c0-0.135-0.114-0.146-0.177-0.146c-0.094-0.01-0.302-0.042-0.302-0.238c0-0.166,0.125-0.291,0.343-0.508l1.982-1.941l1.183,2.314
			c0.041,0.104,0.053,0.124,0.053,0.135c0,0.052-0.177,0.208-0.509,0.238c-0.094,0.011-0.218,0.011-0.218,0.219
			c0,0.01,0.01,0.135,0.165,0.135c0.208,0,0.447-0.031,0.653-0.031c0.208,0,0.426-0.01,0.634-0.01c0.166,0,0.404,0,0.581,0.01
			c0.167,0.01,0.363,0.031,0.519,0.031c0.053,0,0.208,0,0.208-0.219c0-0.135-0.125-0.135-0.28-0.135
			c-0.571,0-0.612-0.104-0.705-0.27L321.433,272.895"/>
		<path clip-path="url(#SVGID_28_)" fill="#FF0000" d="M328.448,270.622c0-0.011,0.062-0.135,0.062-0.239
			c0-0.259-0.218-0.414-0.426-0.414c-0.291,0-0.363,0.217-0.404,0.321l-1.068,3.02c-0.031,0.083-0.031,0.104-0.031,0.104
			c0,0.113,0.301,0.187,0.301,0.187c0.061,0,0.083-0.042,0.124-0.125L328.448,270.622"/>
		<path clip-path="url(#SVGID_28_)" fill="#FF0000" d="M335.007,277.886c0-0.041,0-0.072-0.239-0.312
			c-1.743-1.764-2.189-4.41-2.189-6.547c0-2.439,0.529-4.867,2.252-6.621c0.177-0.166,0.177-0.197,0.177-0.238
			c0-0.094-0.053-0.135-0.135-0.135c-0.146,0-1.401,0.943-2.221,2.729c-0.716,1.536-0.883,3.093-0.883,4.266
			c0,1.089,0.146,2.78,0.925,4.368c0.83,1.723,2.033,2.625,2.179,2.625C334.954,278.021,335.007,277.979,335.007,277.886"/>
		<path clip-path="url(#SVGID_28_)" fill="#FF0000" d="M341.223,259.871h1.577c-0.457,2.076-0.592,2.678-0.592,3.612
			c0,0.207,0,0.591,0.114,1.067c0.146,0.613,0.301,0.696,0.509,0.696c0.28,0,0.57-0.249,0.57-0.529c0-0.083,0-0.114-0.082-0.312
			c-0.406-1.006-0.406-1.92-0.406-2.304c0-0.747,0.095-1.505,0.249-2.231h1.599c0.176,0,0.685,0,0.685-0.477
			c0-0.332-0.29-0.332-0.56-0.332h-4.69c-0.301,0-0.841,0-1.453,0.653c-0.488,0.55-0.852,1.193-0.852,1.267
			c0,0.01,0,0.135,0.167,0.135c0.113,0,0.135-0.053,0.218-0.166c0.695-1.08,1.505-1.08,1.784-1.08h0.799
			c-0.456,1.692-1.203,3.394-1.794,4.66c-0.114,0.217-0.114,0.238-0.114,0.342c0,0.26,0.228,0.374,0.404,0.374
			c0.426,0,0.54-0.395,0.705-0.913c0.198-0.644,0.198-0.664,0.374-1.37L341.223,259.871"/>
		
			<line clip-path="url(#SVGID_28_)" fill="none" stroke="#FF0000" stroke-width="0.5584" stroke-miterlimit="10" x1="337.508" y1="271.048" x2="345.975" y2="271.048"/>
		<path clip-path="url(#SVGID_28_)" fill="#FF0000" d="M340.029,283.074l1.484-1.442c2.179-1.93,3.019-2.688,3.019-4.089
			c0-1.598-1.256-2.718-2.968-2.718c-1.577,0-2.614,1.297-2.614,2.542c0,0.779,0.705,0.779,0.747,0.779
			c0.229,0,0.726-0.167,0.726-0.738c0-0.363-0.26-0.736-0.746-0.736c-0.115,0-0.136,0-0.177,0.021
			c0.321-0.913,1.079-1.432,1.889-1.432c1.266,0,1.868,1.142,1.868,2.282c0,1.121-0.696,2.231-1.463,3.093l-2.688,2.999
			c-0.155,0.156-0.155,0.177-0.155,0.52h5.188l0.395-2.439h-0.342c-0.072,0.426-0.177,1.038-0.312,1.246
			c-0.104,0.113-1.028,0.113-1.329,0.113H340.029"/>
		<path clip-path="url(#SVGID_28_)" fill="#FF0000" d="M359.983,271.307c0.239,0,0.488,0,0.488-0.279c0-0.28-0.249-0.28-0.488-0.28
			h-7.574c-0.239,0-0.487,0-0.487,0.28c0,0.279,0.248,0.279,0.487,0.279H359.983"/>
		<path clip-path="url(#SVGID_28_)" fill="#FF0000" d="M368.617,268.713c0.342,0.643,0.768,1.4,0.768,2.407
			c0,0.924-0.529,3.269-1.837,3.269c-0.768,0-1.337-0.592-1.337-1.66C366.211,271.857,366.729,269.221,368.617,268.713
			 M368.44,268.412c-1.743,0.415-3.103,2.241-3.103,3.933c0,1.339,0.893,2.345,2.21,2.345c1.641,0,2.803-2.189,2.803-4.129
			c0-1.267-0.562-1.973-1.038-2.595c-0.498-0.633-1.329-1.681-1.329-2.304c0-0.301,0.281-0.644,0.77-0.644
			c0.424,0,0.705,0.187,0.995,0.384c0.28,0.166,0.562,0.343,0.768,0.343c0.354,0,0.562-0.333,0.562-0.56
			c0-0.302-0.229-0.344-0.727-0.457c-0.727-0.156-0.924-0.156-1.152-0.156c-1.089,0-1.588,0.602-1.588,1.443
			C367.61,266.771,368.015,267.551,368.44,268.412z"/>
		<path clip-path="url(#SVGID_28_)" fill="#FF0000" d="M373.723,276.547c-0.445,0-1.048-0.259-1.245-1.059
			c-0.135-0.58-0.135-1.379-0.135-2.105c0-0.706,0-1.453,0.146-1.992c0.208-0.769,0.83-0.977,1.234-0.977
			c0.529,0,1.038,0.322,1.213,0.893c0.157,0.529,0.167,1.235,0.167,2.076c0,0.727,0,1.453-0.135,2.064
			C374.771,276.34,374.107,276.547,373.723,276.547 M375.984,273.518c0-1.079-0.124-1.848-0.57-2.531
			c-0.312-0.447-0.912-0.842-1.691-0.842c-2.272,0-2.272,2.668-2.272,3.373c0,0.695,0,3.311,2.272,3.311
			C375.984,276.828,375.984,274.213,375.984,273.518z"/>
		<path clip-path="url(#SVGID_28_)" fill="#FF0000" d="M381.268,271.027c0-1.09-0.157-2.781-0.925-4.369
			c-0.84-1.723-2.045-2.625-2.188-2.625c-0.084,0-0.136,0.052-0.136,0.135c0,0.041,0,0.072,0.27,0.321
			c1.37,1.391,2.169,3.611,2.169,6.538c0,2.396-0.519,4.855-2.252,6.62c-0.187,0.166-0.187,0.197-0.187,0.238
			c0,0.083,0.052,0.135,0.136,0.135c0.144,0,1.4-0.944,2.23-2.729C381.101,273.756,381.268,272.199,381.268,271.027"/>
	</g>
</g>
<g>
	<path fill="#0F6F02" d="M253.353,128.832c0-0.461,0-0.488-0.433-0.488c-1.173,1.201-2.834,1.201-3.435,1.201v0.586
		c0.377,0,1.494,0,2.471-0.488v9.745c0,0.684-0.055,0.907-1.758,0.907h-0.602v0.586c0.656-0.056,2.305-0.056,3.059-0.056
		s2.387,0,3.043,0.056v-0.586h-0.6c-1.689,0-1.746-0.209-1.746-0.907V128.832"/>
	<path fill="#0F6F02" d="M262.638,136.176c0-1.466-0.209-3.755-1.243-5.877c-1.131-2.318-2.751-3.547-2.932-3.547
		c-0.112,0-0.195,0.084-0.195,0.195c0,0.057,0,0.098,0.362,0.433c1.844,1.857,2.918,4.858,2.918,8.796
		c0,3.212-0.697,6.534-3.029,8.908c-0.251,0.223-0.251,0.265-0.251,0.32c0,0.112,0.083,0.182,0.195,0.182
		c0.181,0,1.885-1.284,2.987-3.672C262.415,139.848,262.638,137.754,262.638,136.176"/>
	<g>
		<defs>
			<rect id="SVGID_29_" x="263.251" y="124.947" width="75.604" height="25.33"/>
		</defs>
		<clipPath id="SVGID_30_">
			<use xlink:href="#SVGID_29_"  overflow="visible"/>
		</clipPath>
		<path clip-path="url(#SVGID_30_)" fill="#118500" d="M270.205,135.781c1.412-0.311,3.082-1.297,3.082-2.708
			c0-1.204-1.266-2.097-3.093-2.097h-3.995c-0.28,0-0.404,0-0.404,0.28c0,0.155,0.124,0.155,0.395,0.155c0.03,0,0.291,0,0.528,0.021
			c0.249,0.031,0.385,0.041,0.385,0.229c0,0.051-0.021,0.093-0.062,0.27l-1.879,7.513c-0.134,0.55-0.165,0.653-1.266,0.653
			c-0.259,0-0.383,0-0.383,0.281c0,0.154,0.165,0.154,0.196,0.154c0.395,0,1.37-0.041,1.765-0.041s1.39,0.041,1.774,0.041
			c0.113,0,0.28,0,0.28-0.279c0-0.156-0.125-0.156-0.385-0.156c-0.519,0-0.913,0-0.913-0.248c0-0.084,0.032-0.156,0.042-0.239
			l0.924-3.704h1.671c1.266,0,1.514,0.777,1.514,1.266c0,0.218-0.103,0.643-0.187,0.975c-0.103,0.385-0.229,0.902-0.229,1.184
			c0,1.516,1.683,1.516,1.857,1.516c1.193,0,1.682-1.412,1.682-1.609c0-0.166-0.156-0.166-0.165-0.166
			c-0.125,0-0.156,0.094-0.178,0.188c-0.352,1.037-0.954,1.275-1.276,1.275c-0.467,0-0.56-0.311-0.56-0.85
			c0-0.437,0.083-1.152,0.134-1.598c0.031-0.197,0.062-0.457,0.062-0.654C271.522,136.352,270.578,135.916,270.205,135.781
			 M268.192,131.941c0.083-0.332,0.123-0.477,0.394-0.519c0.124-0.011,0.571-0.011,0.851-0.011c0.997,0,2.543,0,2.543,1.381
			c0,0.477-0.218,1.442-0.768,1.992c-0.363,0.363-1.101,0.81-2.366,0.81h-1.566L268.192,131.941z"/>
		<path clip-path="url(#SVGID_30_)" fill="#118500" d="M281.224,136.352c0.084-0.082,0.136-0.145,0.136-0.279
			c0-0.104-0.073-0.104-0.26-0.104h-4.565c-0.249,0-0.259,0.011-0.321,0.197l-0.54,1.753c-0.041,0.125-0.041,0.136-0.041,0.156
			c0,0.053,0.041,0.146,0.165,0.146c0.125,0,0.146-0.062,0.177-0.166c0.467-1.37,1.225-1.733,2.49-1.733h1.755l-5.688,5.885
			c-0.073,0.072-0.176,0.176-0.176,0.331c0,0.104,0.093,0.104,0.27,0.104h4.721c0.259,0,0.271-0.011,0.333-0.197l0.695-2.18
			c0.041-0.124,0.041-0.145,0.041-0.156c0-0.01,0-0.134-0.155-0.134c-0.125,0-0.146,0.041-0.218,0.249
			c-0.447,1.339-0.945,2.023-2.647,2.023h-1.867L281.224,136.352"/>
		<path clip-path="url(#SVGID_30_)" fill="#118500" d="M287.212,143.896c0-0.04,0-0.072-0.239-0.312
			c-1.743-1.763-2.188-4.409-2.188-6.547c0-2.438,0.528-4.867,2.251-6.621c0.177-0.166,0.177-0.197,0.177-0.238
			c0-0.094-0.053-0.135-0.135-0.135c-0.146,0-1.4,0.943-2.231,2.729c-0.716,1.535-0.882,3.093-0.882,4.266
			c0,1.09,0.156,2.781,0.924,4.368c0.841,1.723,2.044,2.626,2.189,2.626C287.16,144.031,287.212,143.989,287.212,143.896"/>
		<path clip-path="url(#SVGID_30_)" fill="#118500" d="M293.386,125.882h1.577c-0.455,2.075-0.59,2.677-0.59,3.61
			c0,0.209,0,0.592,0.113,1.069c0.145,0.612,0.301,0.695,0.508,0.695c0.281,0,0.572-0.249,0.572-0.528c0-0.084,0-0.115-0.084-0.312
			c-0.404-1.007-0.404-1.92-0.404-2.303c0-0.748,0.094-1.506,0.248-2.231h1.598c0.178,0,0.686,0,0.686-0.478
			c0-0.332-0.291-0.332-0.561-0.332h-4.69c-0.301,0-0.84,0-1.452,0.654c-0.487,0.55-0.851,1.193-0.851,1.266
			c0,0.01,0,0.135,0.165,0.135c0.114,0,0.136-0.052,0.218-0.166c0.686-1.079,1.506-1.079,1.786-1.079h0.799
			c-0.457,1.69-1.205,3.394-1.796,4.659c-0.113,0.217-0.113,0.238-0.113,0.342c0,0.26,0.228,0.374,0.404,0.374
			c0.426,0,0.539-0.395,0.706-0.913c0.196-0.643,0.196-0.664,0.373-1.369L293.386,125.882"/>
		
			<line clip-path="url(#SVGID_30_)" fill="none" stroke="#118500" stroke-width="0.5584" stroke-miterlimit="10" x1="289.682" y1="137.058" x2="298.148" y2="137.058"/>
		<path clip-path="url(#SVGID_30_)" fill="#118500" d="M292.193,149.084l1.484-1.441c2.178-1.931,3.02-2.688,3.02-4.09
			c0-1.598-1.256-2.719-2.968-2.719c-1.576,0-2.614,1.299-2.614,2.543c0,0.778,0.704,0.778,0.736,0.778
			c0.238,0,0.737-0.166,0.737-0.737c0-0.363-0.261-0.736-0.748-0.736c-0.113,0-0.135,0-0.177,0.021
			c0.322-0.912,1.08-1.431,1.889-1.431c1.266,0,1.868,1.141,1.868,2.281c0,1.121-0.693,2.231-1.463,3.094l-2.687,2.998
			c-0.155,0.156-0.155,0.177-0.155,0.52h5.188l0.395-2.439h-0.354c-0.062,0.426-0.166,1.038-0.301,1.246
			c-0.104,0.113-1.027,0.113-1.328,0.113H292.193"/>
		<path clip-path="url(#SVGID_30_)" fill="#118500" d="M312.148,137.316c0.238,0,0.488,0,0.488-0.279s-0.25-0.279-0.488-0.279
			h-7.576c-0.238,0-0.488,0-0.488,0.279s0.25,0.279,0.488,0.279H312.148"/>
		<path clip-path="url(#SVGID_30_)" fill="#118500" d="M327.588,132.056c0.137-0.509,0.156-0.644,1.184-0.644
			c0.363,0,0.477,0,0.477-0.279c0-0.156-0.154-0.156-0.195-0.156c-0.395,0-1.402,0.041-1.797,0.041c-0.404,0-1.4-0.041-1.805-0.041
			c-0.113,0-0.27,0-0.27,0.28c0,0.155,0.135,0.155,0.393,0.155c0.031,0,0.303,0,0.531,0.021c0.26,0.031,0.383,0.041,0.383,0.229
			c0,0.051-0.01,0.082-0.051,0.27l-0.842,3.413h-4.275l0.832-3.289c0.123-0.509,0.166-0.644,1.172-0.644
			c0.363,0,0.477,0,0.477-0.279c0-0.156-0.156-0.156-0.197-0.156c-0.395,0-1.4,0.041-1.793,0.041c-0.406,0-1.393-0.041-1.809-0.041
			c-0.104,0-0.258,0-0.258,0.28c0,0.155,0.125,0.155,0.395,0.155c0.021,0,0.289,0,0.529,0.021c0.248,0.031,0.373,0.041,0.373,0.229
			c0,0.051-0.01,0.093-0.051,0.27l-1.879,7.513c-0.135,0.55-0.166,0.653-1.277,0.653c-0.248,0-0.373,0-0.373,0.281
			c0,0.154,0.166,0.154,0.197,0.154c0.395,0,1.381-0.041,1.775-0.041c0.289,0,0.6,0.01,0.891,0.01c0.312,0,0.623,0.031,0.914,0.031
			c0.115,0,0.279,0,0.279-0.279c0-0.156-0.123-0.156-0.395-0.156c-0.518,0-0.9,0-0.9-0.248c0-0.084,0.02-0.156,0.039-0.239
			l0.945-3.829h4.275c-0.592,2.314-0.912,3.652-0.965,3.86c-0.146,0.446-0.404,0.456-1.277,0.456c-0.207,0-0.332,0-0.332,0.281
			c0,0.154,0.166,0.154,0.188,0.154c0.395,0,1.391-0.041,1.785-0.041c0.289,0,0.602,0.01,0.893,0.01
			c0.311,0,0.611,0.031,0.912,0.031c0.113,0,0.281,0,0.281-0.279c0-0.156-0.125-0.156-0.395-0.156c-0.52,0-0.914,0-0.914-0.248
			c0-0.084,0.031-0.156,0.043-0.239L327.588,132.056"/>
		<path clip-path="url(#SVGID_30_)" fill="#118500" d="M331.305,142.558c-0.447,0-1.049-0.259-1.246-1.06
			c-0.135-0.581-0.135-1.379-0.135-2.105c0-0.707,0-1.453,0.145-1.992c0.209-0.769,0.83-0.977,1.236-0.977
			c0.529,0,1.037,0.322,1.213,0.893c0.156,0.529,0.166,1.235,0.166,2.076c0,0.727,0,1.453-0.135,2.064
			C332.352,142.35,331.688,142.558,331.305,142.558 M333.564,139.527c0-1.079-0.123-1.848-0.57-2.532
			c-0.311-0.446-0.912-0.841-1.689-0.841c-2.273,0-2.273,2.668-2.273,3.373c0,0.695,0,3.311,2.273,3.311
			C333.564,142.838,333.564,140.223,333.564,139.527z"/>
		<path clip-path="url(#SVGID_30_)" fill="#118500" d="M338.848,137.037c0-1.09-0.156-2.781-0.924-4.369
			c-0.84-1.723-2.045-2.625-2.188-2.625c-0.084,0-0.137,0.052-0.137,0.135c0,0.041,0,0.072,0.27,0.322
			c1.371,1.389,2.17,3.611,2.17,6.537c0,2.396-0.521,4.855-2.252,6.621c-0.188,0.165-0.188,0.197-0.188,0.237
			c0,0.083,0.053,0.136,0.137,0.136c0.143,0,1.398-0.945,2.229-2.73C338.682,139.766,338.848,138.209,338.848,137.037"/>
	</g>
</g>
</svg>
