<?xml version="1.0" encoding="utf-8"?>
<!-- Generator: Adobe Illustrator 16.0.0, SVG Export Plug-In . SVG Version: 6.00 Build 0)  -->
<!DOCTYPE svg PUBLIC "-//W3C//DTD SVG 1.1//EN" "http://www.w3.org/Graphics/SVG/1.1/DTD/svg11.dtd">
<svg version="1.1"
	 id="svg15042" xmlns:cc="http://creativecommons.org/ns#" xmlns:svg="http://www.w3.org/2000/svg" xmlns:dc="http://purl.org/dc/elements/1.1/" xmlns:sodipodi="http://sodipodi.sourceforge.net/DTD/sodipodi-0.dtd" xmlns:rdf="http://www.w3.org/1999/02/22-rdf-syntax-ns#" xmlns:inkscape="http://www.inkscape.org/namespaces/inkscape" sodipodi:docname="enu_alt_az.svg" inkscape:version="0.48.3.1 r9886"
	 xmlns="http://www.w3.org/2000/svg" xmlns:xlink="http://www.w3.org/1999/xlink" x="0px" y="0px" width="562.874px"
	 height="524.932px" viewBox="0 3 562.874 524.932" enable-background="new 0 3 562.874 524.932" xml:space="preserve">
<g id="path15050" inkscape:connector-curvature="0">
	<g>
		<path fill="none" stroke="#000000" stroke-width="3" d="M275.971,27.601c0,324.567,0,324.567,0,324.567L43.324,486.264"/>
		<g>
			<path d="M275.971,32.985l10.808,6.574l0.246-0.369l-7.002-17.625c-1.351-6.141-2.701-12.281-4.052-18.422
				c-1.354,6.141-2.701,12.281-4.055,18.422l-6.999,17.625l0.182,0.369L275.971,32.985z"/>
		</g>
		<g>
			<path d="M47.99,483.575l11.093,6.081l-0.197,0.397l-18.767,2.734c-5.995,1.896-11.989,3.793-17.984,5.689
				c4.644-4.239,9.292-8.474,13.936-12.712l11.775-14.866l0.411-0.026L47.99,483.575z"/>
		</g>
	</g>
</g>
<g id="path15052" inkscape:connector-curvature="0">
	<g>
		<line fill="none" stroke="#000000" stroke-width="3" x1="275.971" y1="350.405" x2="514.165" y2="350.405"/>
		<g>
			<path d="M508.78,350.405l-6.574-10.808l0.369-0.246l17.625,7.002c6.141,1.351,12.281,2.701,18.422,4.052
				c-6.141,1.354-12.281,2.701-18.422,4.055l-17.625,6.999l-0.369-0.182L508.78,350.405z"/>
		</g>
	</g>
</g>
<path id="path15182_1_" inkscape:connector-curvature="0" fill="none" stroke="#000000" stroke-dasharray="1,3" d="M369.134,171.336
	c-95.529-94.672-95.529-94.672-95.529-94.672"/>
<g id="path15694" sodipodi:nodetypes="cc" inkscape:connector-curvature="0">
	<g>
		<path fill="none" stroke="#0000FF" stroke-width="2" d="M355.296,350.405c-5.37,11.624-7.822,23.247-23.87,34.87"/>
		<g>
			<path fill="#0000FF" d="M334.324,383.138l7.515,3.827l-0.123,0.27l-12.45,2.202c-3.956,1.385-7.912,2.771-11.868,4.155
				c3.009-2.919,6.02-5.834,9.028-8.753l7.546-10.145l0.272-0.026L334.324,383.138z"/>
		</g>
	</g>
</g>
<sodipodi:namedview  fit-margin-left="0" fit-margin-top="0" showgrid="false" inkscape:cy="115.96017" inkscape:cx="-11.249652" inkscape:zoom="0.56729519" borderopacity="1.0" bordercolor="#666666" pagecolor="#ffffff" id="base" inkscape:window-maximized="1" inkscape:window-y="24" inkscape:window-x="65" inkscape:window-height="744" inkscape:window-width="1301" fit-margin-bottom="0" fit-margin-right="0" inkscape:current-layer="layer1" inkscape:snap-nodes="false" inkscape:pageshadow="2" inkscape:document-units="px" inkscape:pageopacity="0.0" inkscape:object-paths="false" inkscape:object-nodes="false">
	</sodipodi:namedview>
<g id="g4128-0-2-8-6" transform="matrix(1.8372679,0,0,1.8529479,275.42668,-248.2911)">
	
		<path id="path4091-7-6-0-7" sodipodi:type="star" sodipodi:r2="10.56545" sodipodi:arg1="0.51914611" sodipodi:arg2="1.5663437" sodipodi:sides="3" sodipodi:r1="21.130899" sodipodi:cy="54.385036" sodipodi:cx="-56.350758" inkscape:flatsided="true" inkscape:rounded="0" inkscape:randomized="0" inkscape:transform-center-x="-0.029910261" inkscape:transform-center-y="-2.6830143" fill="#FFFF00" stroke="#0000FF" stroke-width="2" enable-background="new    " d="
		M12.277,323.513l-23.269,0.083l11.545-16.264L12.277,323.513z"/>
	
		<path id="path4093-5-4-2-1" sodipodi:rx="22.605827" sodipodi:ry="16.708654" sodipodi:start="0.3996804" sodipodi:open="true" sodipodi:end="3.6004593" sodipodi:type="arc" sodipodi:cy="175.27707" sodipodi:cx="-63.886036" opacity="0.4444" fill="none" stroke="#0000FF" stroke-width="2" enable-background="new    " d="
		M12.909,294.005c-0.129,6.886-5.666,12.542-12.365,12.633c-6.7,0.091-12.026-5.417-11.897-12.304
		c0.005-0.246,0.016-0.492,0.035-0.738"/>
	<path id="path4097-8-5-5-5" inkscape:connector-curvature="0" fill="none" stroke="#000000" stroke-width="2" d="M0.381,305.996
		c0-5.826,0-5.826,0-5.826"/>
	
		<path id="path4099-8-3-5-8" sodipodi:rx="2.2933447" sodipodi:ry="2.6209655" sodipodi:type="arc" sodipodi:cy="127.77207" sodipodi:cx="-109.09769" fill="#FF0000" stroke="#000000" stroke-width="2" d="
		M2.211,299.198c0,1.073-0.717,1.943-1.602,1.943c-0.884,0-1.602-0.87-1.602-1.943c0-1.073,0.717-1.942,1.602-1.942
		C1.494,297.256,2.211,298.126,2.211,299.198z"/>
</g>
<g id="path15126-2" inkscape:connector-curvature="0">
	<g>
		<path fill="none" stroke="#FF0000" stroke-width="2" d="M276.127,351.242c54.693-105.26,77.014-149.336,86.119-167.79"/>
		<g>
			<path fill="#FF0000" d="M360.638,186.669l-8.352,1.172l-0.054-0.291l8.939-8.941c2.448-3.402,4.896-6.805,7.344-10.208
				c-0.793,4.117-1.589,8.231-2.381,12.348l-0.368,12.637l-0.209,0.178L360.638,186.669z"/>
		</g>
	</g>
</g>
<path id="path15176" inkscape:connector-curvature="0" fill="none" stroke="#000000" stroke-dasharray="1,3" d="M368.516,170.164
	c0.882,273.667,0.882,273.667,0.882,273.667"/>
<path id="path15180" inkscape:connector-curvature="0" fill="none" stroke="#000000" stroke-dasharray="1,3" d="M490.46,350.405
	c-123.615,93.426-121.284,91.664-121.284,91.664"/>
<path id="path15182" inkscape:connector-curvature="0" fill="none" stroke="#000000" stroke-dasharray="1,3" d="M367.635,443.831
	c-252.074,0-252.074,0-252.074,0"/>
<g id="path15692" inkscape:connector-curvature="0">
	<g>
		<path fill="none" stroke="#0000FF" stroke-width="2" d="M276.127,351.242c46,45.999,68.877,69.147,80.254,80.796"/>
		<g>
			<path fill="#0000FF" d="M353.858,429.478l2.163-8.151l0.289,0.064l4.769,11.709c2.186,3.577,4.371,7.153,6.557,10.73
				c-3.486-2.328-6.969-4.659-10.455-6.988l-11.503-5.245l-0.083-0.262L353.858,429.478z"/>
		</g>
	</g>
</g>
<g id="path15698" sodipodi:nodetypes="cc" inkscape:connector-curvature="0">
	<g>
		<path fill="none" stroke="#FF0000" stroke-width="2" d="M306.114,381.274c15.84-28.469,22.332-57.96,10.389-77.539"/>
		<g>
			<path fill="#FF0000" d="M318.416,306.847l-2.495,8.056l-0.286-0.076l-4.284-11.896c-2.037-3.663-4.073-7.327-6.11-10.99
				c3.388,2.47,6.771,4.941,10.159,7.411l11.277,5.714l0.072,0.265L318.416,306.847z"/>
		</g>
	</g>
</g>
<g>
	<defs>
		<rect id="SVGID_1_" x="531.874" y="314.99" width="31" height="25"/>
	</defs>
	<clipPath id="SVGID_2_">
		<use xlink:href="#SVGID_1_"  overflow="visible"/>
	</clipPath>
	<path clip-path="url(#SVGID_2_)" d="M558.234,318.821c0.347-1.438,0.985-2.529,3.861-2.636c0.187,0,0.612-0.053,0.612-0.719
		c0-0.054,0-0.399-0.453-0.399c-1.197,0-2.449,0.106-3.647,0.106s-2.477-0.106-3.647-0.106c-0.214,0-0.64,0-0.64,0.719
		c0,0.399,0.347,0.399,0.64,0.399c2.05,0.026,2.449,0.772,2.449,1.571c0,0.106-0.08,0.639-0.106,0.745l-4.021,15.977l-7.962-18.745
		c-0.267-0.64-0.319-0.666-1.146-0.666h-4.793c-0.719,0-1.064,0-1.064,0.719c0,0.399,0.346,0.399,1.012,0.399
		c0.186,0,2.449,0,2.449,0.319l-4.819,19.278c-0.347,1.438-0.958,2.583-3.888,2.689c-0.213,0-0.586,0.026-0.586,0.719
		c0,0.267,0.16,0.399,0.453,0.399c1.145,0,2.396-0.106,3.595-0.106c1.225,0,2.503,0.106,3.701,0.106c0.187,0,0.64,0,0.64-0.719
		c0-0.373-0.32-0.399-0.72-0.399c-2.077-0.08-2.37-0.852-2.37-1.571c0-0.266,0.054-0.426,0.16-0.825l4.74-18.959
		c0.133,0.214,0.133,0.267,0.318,0.64l8.947,21.142c0.24,0.613,0.346,0.692,0.666,0.692c0.399,0,0.399-0.106,0.586-0.745
		L558.234,318.821"/>
</g>
<g>
	<defs>
		<rect id="SVGID_3_" x="0" y="502.932" width="27" height="25"/>
	</defs>
	<clipPath id="SVGID_4_">
		<use xlink:href="#SVGID_3_"  overflow="visible"/>
	</clipPath>
	<path clip-path="url(#SVGID_4_)" d="M24.337,519.373c0.054-0.187,0.16-0.426,0.16-0.506c0-0.053,0-0.399-0.426-0.399
		c-0.319,0-0.399,0.213-0.453,0.426c-2.343,5.326-3.674,7.723-9.826,7.723H8.574c-0.506,0-0.586,0-0.799-0.027
		c-0.373-0.053-0.479-0.079-0.479-0.372c0-0.106,0-0.16,0.187-0.826l2.45-9.799h3.542c3.062,0,3.062,0.746,3.062,1.651
		c0,0.267,0,0.692-0.239,1.758c-0.08,0.186-0.133,0.292-0.133,0.398c0,0.187,0.16,0.4,0.479,0.4c0.293,0,0.399-0.187,0.533-0.72
		l2.05-8.414c0-0.213-0.187-0.399-0.426-0.399c-0.32,0-0.399,0.239-0.506,0.666c-0.745,2.716-1.411,3.541-4.713,3.541h-3.355
		l2.13-8.653c0.346-1.252,0.373-1.385,1.944-1.385h5.059c4.394,0,5.458,1.038,5.458,3.967c0,0.879,0,0.933-0.133,1.918
		c0,0.213-0.026,0.452-0.026,0.639s0.106,0.426,0.426,0.426c0.399,0,0.426-0.213,0.506-0.879l0.719-6.23
		c0.106-0.958-0.08-0.958-0.985-0.958H7.189c-0.719,0-1.065,0-1.065,0.719c0,0.399,0.319,0.399,1.012,0.399
		c1.305,0,2.317,0,2.317,0.639c0,0.133,0,0.213-0.16,0.853l-4.766,19.012c-0.346,1.385-0.426,1.678-3.249,1.678
		c-0.612,0-1.012,0-1.012,0.692c0,0.426,0.319,0.426,1.012,0.426h18.639c0.826,0,0.852-0.026,1.118-0.612L24.337,519.373"/>
</g>
<g>
	<defs>
		<rect id="SVGID_5_" x="286.134" y="3" width="25.508" height="25.813"/>
	</defs>
	<clipPath id="SVGID_6_">
		<use xlink:href="#SVGID_5_"  overflow="visible"/>
	</clipPath>
	<path clip-path="url(#SVGID_6_)" d="M306.848,6.952c0.347-1.491,0.986-2.556,3.861-2.662c0.187,0,0.613-0.054,0.613-0.72
		c0-0.053,0-0.399-0.453-0.399c-1.198,0-2.449,0.106-3.675,0.106c-1.225,0-2.556-0.106-3.728-0.106c-0.213,0-0.639,0-0.639,0.72
		c0,0.399,0.346,0.399,0.639,0.399c2.051,0.026,2.449,0.771,2.449,1.57c0,0.106-0.08,0.64-0.133,0.746l-3.222,12.834
		c-1.226,4.819-5.353,7.936-8.947,7.936c-2.423,0-4.366-1.571-4.366-4.66c0-0.08,0-1.225,0.398-2.822l3.462-13.953
		c0.347-1.305,0.399-1.65,3.036-1.65c0.932,0,1.197,0,1.197-0.72c0-0.399-0.372-0.399-0.479-0.399c-1.012,0-3.595,0.106-4.607,0.106
		c-1.038,0-3.594-0.106-4.633-0.106c-0.293,0-0.691,0-0.691,0.72c0,0.399,0.346,0.399,1.012,0.399c0.08,0,0.745,0,1.357,0.053
		c0.666,0.08,0.985,0.133,0.985,0.586c0,0.213-0.399,1.73-0.612,2.557l-0.799,3.168c-0.32,1.385-2.051,8.175-2.184,8.867
		c-0.24,0.985-0.24,1.544-0.24,2.077c0,4.366,3.249,6.896,7.03,6.896c4.526,0,8.974-4.074,10.171-8.813L306.848,6.952"/>
</g>
<g id="g4128-0-2-9" transform="matrix(1.8372679,0,0,1.8529479,368.85247,-430.73578)">
	
		<path id="path4091-7-6-3" sodipodi:type="star" sodipodi:r2="10.56545" sodipodi:arg1="0.51914611" sodipodi:arg2="1.5663437" sodipodi:sides="3" sodipodi:r1="21.130899" sodipodi:cy="54.385036" sodipodi:cx="-56.350758" inkscape:flatsided="true" inkscape:rounded="0" inkscape:randomized="0" inkscape:transform-center-x="-0.029910261" inkscape:transform-center-y="-2.6830143" opacity="0.5226" fill="#FFFF00" stroke="#0000FF" stroke-width="2" enable-background="new    " d="
		M12.277,323.514l-23.269,0.084l11.545-16.265L12.277,323.514z"/>
	
		<path id="path4093-5-4-0" sodipodi:rx="22.605827" sodipodi:ry="16.708654" sodipodi:start="0.3996804" sodipodi:open="true" sodipodi:end="3.6004593" sodipodi:type="arc" sodipodi:cy="175.27707" sodipodi:cx="-63.886036" opacity="0.4444" fill="none" stroke="#0000FF" stroke-width="2" enable-background="new    " d="
		M12.909,294.005c-0.129,6.886-5.665,12.543-12.365,12.634c-6.7,0.091-12.026-5.417-11.897-12.303
		c0.004-0.246,0.016-0.492,0.035-0.738"/>
	<path id="path4097-8-5-6" inkscape:connector-curvature="0" fill="none" stroke="#000000" stroke-width="2" d="M0.381,305.996
		c0-5.827,0-5.827,0-5.827"/>
	
		<path id="path4099-8-3-3" sodipodi:rx="2.2933447" sodipodi:ry="2.6209655" sodipodi:type="arc" sodipodi:cy="127.77207" sodipodi:cx="-109.09769" fill="#FF0000" stroke="#000000" stroke-width="2" d="
		M2.211,299.199c0,1.073-0.717,1.942-1.601,1.942s-1.602-0.87-1.602-1.942c0-1.073,0.717-1.942,1.602-1.942
		S2.211,298.126,2.211,299.199z"/>
</g>
<g>
	<defs>
		<rect id="SVGID_7_" x="183.573" y="312.322" width="70.989" height="31.193"/>
	</defs>
	<clipPath id="SVGID_8_">
		<use xlink:href="#SVGID_7_"  overflow="visible"/>
	</clipPath>
	<path clip-path="url(#SVGID_8_)" d="M194.863,317.248l4.047,11.663h-8.068L194.863,317.248 M196.754,313.228
		c-0.16-0.479-0.24-0.72-0.825-0.72c-0.56,0-0.666,0.213-0.853,0.72l-7.429,21.461c-0.639,1.838-2.077,2.37-4.021,2.424v1.092
		c0.826-0.027,2.37-0.107,3.648-0.107c1.119,0,2.982,0.08,4.154,0.107v-1.092c-1.811,0-2.716-0.905-2.716-1.838
		c0-0.106,0.053-0.479,0.08-0.532l1.651-4.713h8.867l1.917,5.485c0.026,0.159,0.106,0.372,0.106,0.506
		c0,1.092-2.024,1.092-2.982,1.092v1.092c1.278-0.107,3.808-0.107,5.166-0.107c1.544,0,3.195,0.054,4.713,0.107v-1.092h-0.639
		c-2.157,0-2.663-0.267-3.062-1.438L196.754,313.228z"/>
	<path clip-path="url(#SVGID_8_)" d="M213.317,325.849v9.639c0,1.625-0.399,1.625-2.796,1.625v1.092
		c1.251-0.027,3.088-0.107,4.074-0.107c0.932,0,2.796,0.08,4.021,0.107v-1.092c-2.423,0-2.823,0-2.823-1.625v-6.604
		c0-3.754,2.556-5.751,4.846-5.751c2.264,0,2.663,1.943,2.663,3.994v8.36c0,1.625-0.399,1.625-2.796,1.625v1.092
		c1.251-0.027,3.088-0.107,4.047-0.107c0.958,0,2.822,0.08,4.047,0.107v-1.092c-1.891,0-2.77,0-2.823-1.092v-6.844
		c0-3.089,0-4.207-1.092-5.512c-0.506-0.612-1.704-1.331-3.781-1.331c-2.636,0-4.314,1.544-5.326,3.781v-3.781l-5.059,0.399v1.118
		C213.024,323.852,213.317,324.091,213.317,325.849"/>
	<path clip-path="url(#SVGID_8_)" d="M234.485,323.852h5.139v-1.118h-5.139v-6.604h-0.905c-0.026,2.955-1.092,6.79-4.633,6.923
		v0.799h3.062v9.905c0,4.42,3.328,4.847,4.633,4.847c2.556,0,3.568-2.557,3.568-4.847v-2.051h-0.905v1.971
		c0,2.663-1.092,4.048-2.423,4.048c-2.396,0-2.396-3.275-2.396-3.888V323.852"/>
	<path clip-path="url(#SVGID_8_)" d="M250.674,327.58c0-0.692-0.053-0.719-0.745-0.719c-1.625,1.598-3.888,1.624-4.926,1.624v0.905
		c0.612,0,2.263,0,3.648-0.719v12.781c0,0.825,0,1.172-2.53,1.172h-0.932v0.879c0.453,0,3.515-0.08,4.447-0.08
		c0.772,0,3.94,0.08,4.5,0.08v-0.879h-0.959c-2.503,0-2.503-0.347-2.503-1.172V327.58"/>
</g>
<g>
	<defs>
		<rect id="SVGID_9_" x="383.562" y="70.884" width="71.948" height="31.193"/>
	</defs>
	<clipPath id="SVGID_10_">
		<use xlink:href="#SVGID_9_"  overflow="visible"/>
	</clipPath>
	<path clip-path="url(#SVGID_10_)" d="M394.852,75.811l4.047,11.663h-8.067L394.852,75.811 M396.743,71.79
		c-0.16-0.479-0.24-0.72-0.825-0.72c-0.56,0-0.666,0.213-0.853,0.72l-7.429,21.461c-0.64,1.838-2.077,2.37-4.021,2.424v1.092
		c0.825-0.027,2.369-0.107,3.647-0.107c1.118,0,2.982,0.08,4.153,0.107v-1.092c-1.811,0-2.715-0.905-2.715-1.838
		c0-0.106,0.053-0.479,0.08-0.532l1.65-4.713h8.867l1.917,5.485c0.026,0.159,0.106,0.372,0.106,0.506
		c0,1.092-2.023,1.092-2.982,1.092v1.092c1.278-0.107,3.808-0.107,5.166-0.107c1.544,0,3.195,0.054,4.713,0.107v-1.092h-0.639
		c-2.157,0-2.663-0.267-3.062-1.438L396.743,71.79z"/>
	<path clip-path="url(#SVGID_10_)" d="M413.305,84.412v9.639c0,1.625-0.399,1.625-2.796,1.625v1.092
		c1.251-0.027,3.089-0.107,4.073-0.107c0.933,0,2.797,0.08,4.021,0.107v-1.092c-2.424,0-2.822,0-2.822-1.625v-6.604
		c0-3.754,2.556-5.751,4.846-5.751c2.264,0,2.663,1.943,2.663,3.994v8.36c0,1.625-0.399,1.625-2.796,1.625v1.092
		c1.252-0.027,3.088-0.107,4.047-0.107s2.822,0.08,4.048,0.107v-1.092c-1.891,0-2.77,0-2.823-1.092V87.74
		c0-3.089,0-4.207-1.092-5.512c-0.506-0.612-1.703-1.331-3.78-1.331c-2.636,0-4.313,1.544-5.325,3.781v-3.781l-5.06,0.399v1.118
		C413.012,82.414,413.305,82.654,413.305,84.412"/>
	<path clip-path="url(#SVGID_10_)" d="M434.473,82.414h5.14v-1.118h-5.14v-6.604h-0.904c-0.027,2.955-1.092,6.79-4.633,6.923v0.799
		h3.062v9.905c0,4.42,3.328,4.847,4.634,4.847c2.556,0,3.567-2.557,3.567-4.847v-2.051h-0.905v1.971
		c0,2.663-1.092,4.048-2.424,4.048c-2.396,0-2.396-3.275-2.396-3.888V82.414"/>
	<path clip-path="url(#SVGID_10_)" d="M454.924,97.512h-0.853c-0.08,0.56-0.319,2.023-0.666,2.29
		c-0.187,0.133-2.13,0.133-2.476,0.133h-4.607c2.637-2.316,3.516-3.009,5.006-4.207c1.864-1.465,3.596-3.035,3.596-5.405
		c0-3.035-2.664-4.899-5.858-4.899c-3.116,0-5.22,2.184-5.22,4.5c0,1.278,1.065,1.411,1.332,1.411c0.586,0,1.331-0.426,1.331-1.331
		c0-0.453-0.187-1.332-1.491-1.332c0.772-1.783,2.477-2.343,3.648-2.343c2.529,0,3.834,1.971,3.834,3.994
		c0,2.184-1.57,3.914-2.369,4.819l-6.045,5.965c-0.24,0.213-0.24,0.267-0.24,0.959h10.332L454.924,97.512"/>
</g>
<g>
	<defs>
		<rect id="SVGID_11_" x="289.18" y="210.134" width="34.988" height="36.813"/>
	</defs>
	<clipPath id="SVGID_12_">
		<use xlink:href="#SVGID_11_"  overflow="visible"/>
	</clipPath>
	<path clip-path="url(#SVGID_12_)" d="M290.778,211.799c0-0.665,0-1.305-0.693-1.305c-0.719,0-0.719,0.64-0.719,1.305v33.312
		c0,0.665,0,1.305,0.719,1.305c0.693,0,0.693-0.64,0.693-1.305V211.799"/>
	<path clip-path="url(#SVGID_12_)" d="M302.973,233.873v-9c0.984-1.278,2.689-2.316,4.686-2.316c4.367,0,4.367,4.367,4.367,6.87
		c0,1.677,0,3.674-0.932,5.059c-1.039,1.465-2.689,1.864-3.834,1.864C304.73,236.35,303.345,234.406,302.973,233.873
		 M302.76,223.037v-10.519l-6.365,0.267v1.704c2.237,0,2.504,0,2.504,1.385v21.568h1.678l1.757-2.023
		c0.293,0.293,2.05,2.236,5.245,2.236c5.353,0,9.054-3.249,9.054-8.228c0-4.767-3.382-8.148-8.573-8.148
		C305.423,221.279,303.638,222.317,302.76,223.037z"/>
	<path clip-path="url(#SVGID_12_)" d="M323.688,211.799c0-0.665,0-1.305-0.719-1.305s-0.719,0.64-0.719,1.305v33.312
		c0,0.665,0,1.305,0.719,1.305s0.719-0.64,0.719-1.305V211.799"/>
</g>
<g>
	<polyline fill="#008C00" points="88.191,28.813 81.907,33.853 83.034,35.394 88.191,32.075 93.349,35.364 94.445,33.882 
		88.191,28.813 	"/>
	<path fill="#008C00" d="M84.012,46.509c0.06-1.572,0.119-3.23,0.949-4.564c1.038-1.601,2.638-2.075,3.794-2.075
		c4.683,0,4.771,5.246,4.801,6.64H84.012 M96.075,47.843c0.889,0,1.275,0,1.275-1.097c0-1.245-0.237-4.15-2.252-6.166
		c-1.453-1.423-3.587-2.134-6.343-2.134c-6.403,0-9.871,4.12-9.871,9.1c0,5.364,4.001,9.247,10.434,9.247
		c6.313,0,8.032-4.238,8.032-4.92c0-0.712-0.771-0.712-0.949-0.712c-0.682,0-0.771,0.179-1.008,0.831
		c-0.83,1.926-3.112,3.202-5.72,3.202c-5.631,0-5.662-5.335-5.662-7.351H96.075z"/>
	<path fill="#008C00" d="M118.364,46.539c0.267-1.097,0.711-1.986,2.964-2.046c0.119,0,0.563,0,0.563-0.592
		c0-0.178-0.148-0.385-0.445-0.385c-0.889,0-1.926,0.088-2.845,0.088c-0.949,0-2.104-0.088-2.934-0.088
		c-0.148,0-0.563,0-0.563,0.592c0,0.385,0.356,0.385,0.623,0.385c1.304,0.031,1.778,0.445,1.778,1.157
		c0,0.148-0.03,0.266-0.059,0.385c-0.415,1.809-2.46,10.226-2.816,11.085c-1.571,3.557-4.832,4.98-7.114,4.98
		c-1.867,0-3.853-0.949-3.853-3.706c0-0.651,0.088-1.334,0.237-1.985l2.727-10.73c0.237-0.948,0.296-1.186,2.46-1.186
		c0.475,0,0.83,0,0.83-0.592c0-0.119-0.089-0.385-0.444-0.385c-0.83,0-2.846,0.088-3.675,0.088c-0.475,0-1.453,0-1.927-0.029
		c-0.533-0.029-1.215-0.059-1.749-0.059c-0.148,0-0.593,0-0.593,0.592c0,0.385,0.356,0.385,0.919,0.385c0,0,0.533,0,1.037,0.06
		c0.593,0.06,0.652,0.119,0.652,0.385c0,0.178-0.267,1.275-0.444,1.898l-0.623,2.43l-1.571,6.402
		c-0.297,1.156-0.297,1.363-0.297,1.926c0,3.468,2.846,5.514,6.195,5.514c3.853,0,7.587-3.112,8.506-6.758L118.364,46.539"/>
</g>
<g>
	<polyline fill="#008C00" points="28.29,168.401 22.006,173.441 23.133,174.98 28.29,171.662 33.447,174.952 34.573,173.469 
		28.29,168.401 	"/>
	<path fill="#008C00" d="M24.111,186.096c0.06-1.572,0.119-3.23,0.949-4.565c1.038-1.6,2.638-2.074,3.793-2.074
		c4.683,0,4.772,5.246,4.802,6.639H24.111 M36.174,187.429c0.889,0,1.274,0,1.274-1.096c0-1.246-0.237-4.15-2.223-6.166
		c-1.482-1.422-3.616-2.133-6.373-2.133c-6.402,0-9.87,4.12-9.87,9.098c0,5.366,4.001,9.249,10.433,9.249
		c6.313,0,8.033-4.239,8.033-4.92c0-0.713-0.741-0.713-0.948-0.713c-0.682,0-0.771,0.178-1.008,0.831
		c-0.83,1.926-3.112,3.2-5.721,3.2c-5.632,0-5.661-5.335-5.661-7.351H36.174z"/>
	<path fill="#008C00" d="M60.834,195.699c0.179-0.354,0.179-0.474,0.179-0.504c0-0.176-0.119-0.385-0.475-0.385
		c-0.06,0-0.208,0-0.296,0.12c-0.059,0.059-0.089,0.089-0.444,0.8c-1.809,4.031-3.231,5.424-7.766,5.424h-4.742
		c-0.86,0-0.889-0.03-0.889-0.298c0-0.028,0-0.147,0.089-0.591l1.867-7.47h3.142c2.194,0,2.549,0.356,2.549,1.274
		c0,0.326-0.089,0.8-0.207,1.276c-0.089,0.237-0.089,0.266-0.089,0.324c0,0.061,0.03,0.387,0.474,0.387
		c0.385,0,0.415-0.12,0.534-0.593l1.542-6.135c0.088-0.326,0.088-0.385,0.088-0.416c0-0.267-0.237-0.385-0.474-0.385
		c-0.385,0-0.415,0.148-0.563,0.742c-0.593,2.163-1.423,2.52-3.793,2.52h-2.935l1.66-6.64c0.237-0.861,0.267-0.95,1.422-0.95h4.564
		c3.646,0,4.564,0.772,4.564,3.231c0,0.741-0.118,1.572-0.118,1.72c0,0.208,0.089,0.474,0.475,0.474
		c0.444,0,0.474-0.265,0.503-0.741l0.504-4.831c0.089-0.859-0.089-0.859-0.8-0.859H46.044c-0.533,0-0.889,0-0.889,0.622
		c0,0.385,0.326,0.385,0.919,0.385c0.445,0,0.563,0,1.067,0.061c0.563,0.059,0.623,0.118,0.623,0.385
		c0,0.207-0.088,0.474-0.119,0.622l-3.645,14.584c-0.297,1.096-0.326,1.304-2.49,1.304c-0.503,0-0.83,0-0.83,0.591
		c0,0.387,0.326,0.387,0.83,0.387h15.768c0.682,0,0.711,0,0.949-0.504L60.834,195.699"/>
</g>
<g>
	<polyline fill="#008C00" points="173.914,123.375 167.63,128.414 168.757,129.954 173.914,126.636 179.072,129.925 
		180.198,128.442 173.914,123.375 	"/>
	<path fill="#008C00" d="M169.735,141.069c0.06-1.572,0.12-3.23,0.949-4.565c1.038-1.6,2.638-2.074,3.794-2.074
		c4.684,0,4.772,5.246,4.801,6.639H169.735 M181.799,142.402c0.889,0,1.274,0,1.274-1.096c0-1.246-0.237-4.15-2.252-6.166
		c-1.452-1.421-3.586-2.132-6.343-2.132c-6.402,0-9.869,4.12-9.869,9.098c0,5.366,4,9.249,10.433,9.249
		c6.312,0,8.031-4.239,8.031-4.92c0-0.713-0.77-0.713-0.948-0.713c-0.681,0-0.771,0.178-1.007,0.831
		c-0.83,1.926-3.112,3.2-5.721,3.2c-5.631,0-5.661-5.335-5.661-7.351H181.799z"/>
	<path fill="#008C00" d="M207.644,141.1c0.267-1.067,0.712-1.987,2.935-2.046c0.147,0,0.563,0,0.563-0.593
		c0-0.179-0.148-0.385-0.416-0.385c-0.918,0-1.957,0.089-2.904,0.089c-0.652,0-2.283-0.089-2.963-0.089c-0.12,0-0.535,0-0.535,0.594
		c0,0.385,0.356,0.385,0.593,0.385c1.305,0.028,1.808,0.443,1.808,1.157c0,0.237-0.03,0.354-0.119,0.68l-3.052,12.153l-7.084-14.495
		c-0.237-0.474-0.266-0.474-0.949-0.474h-3.823c-0.534,0-0.889,0-0.889,0.594c0,0.385,0.326,0.385,0.918,0.385
		c0.594,0,1.186,0.028,1.778,0.148l-3.735,14.938c-0.237,1.037-0.711,1.898-2.905,1.987c-0.177,0-0.591,0.028-0.591,0.563
		c0,0.326,0.237,0.415,0.444,0.415c0.919,0,1.926-0.089,2.904-0.089c0.652,0,2.283,0.089,2.935,0.089
		c0.295,0,0.563-0.12,0.563-0.565c0-0.385-0.326-0.413-0.652-0.413c-1.748-0.061-1.748-0.8-1.748-1.187c0-0.117,0-0.237,0.117-0.68
		l3.557-14.288l8.151,16.658c0.237,0.476,0.356,0.476,0.623,0.476c0.445,0,0.445-0.061,0.593-0.565L207.644,141.1"/>
</g>
<g>
	<g>
		
			<line fill="none" stroke="#008C00" stroke-width="2.1168" stroke-miterlimit="10" x1="95.245" y1="130.407" x2="95.245" y2="84.158"/>
		<g>
			<path fill="#008C00" d="M95.245,87.958l-7.626,4.639l-0.173-0.261l4.94-12.436c0.953-4.333,1.906-8.666,2.859-12.999
				c0.955,4.333,1.906,8.666,2.861,12.999l4.938,12.436l-0.128,0.261L95.245,87.958z"/>
		</g>
	</g>
</g>
<g>
	<g>
		
			<line fill="none" stroke="#008C00" stroke-width="2.1168" stroke-miterlimit="10" x1="95.244" y1="130.407" x2="141.492" y2="130.407"/>
		<g>
			<path fill="#008C00" d="M137.693,130.407l-4.639-7.626l0.261-0.173l12.436,4.94c4.333,0.953,8.666,1.906,12.999,2.859
				c-4.333,0.955-8.666,1.906-12.999,2.861l-12.436,4.938l-0.261-0.128L137.693,130.407z"/>
		</g>
	</g>
</g>
<g>
	<g>
		
			<line fill="none" stroke="#008C00" stroke-width="2.1168" stroke-miterlimit="10" x1="95.544" y1="130.237" x2="56.279" y2="154.67"/>
		<g>
			<path fill="#008C00" d="M59.505,152.663l7.967,4.023l-0.129,0.285l-13.169,2.375c-4.182,1.48-8.365,2.96-12.547,4.44
				c3.174-3.1,6.351-6.196,9.525-9.297l7.95-10.763l0.289-0.029L59.505,152.663z"/>
		</g>
	</g>
</g>
<g>
	<path fill="#FF0000" d="M338.347,285.061c0-5.406,7.533-10.191,13.56-10.191c1.994,0,5.052,0.398,5.052,3.013
		c0,2.526-2.747,4.254-4.077,4.254c-0.133,0-0.442,0-0.442-0.31c0-0.133,0.133-0.355,0.222-0.488
		c0.177-0.266,0.531-0.886,0.531-1.595c0-2.304-3.367-2.438-4.21-2.438c-6.203,0-6.868,4.83-6.868,5.85
		c0,1.772,1.241,4.829,7.489,5.096c0.222,0,0.442,0.044,0.442,0.31c0,0.488-1.551,2.039-3.633,2.127
		c-7.002,0.267-9.483,6.824-9.483,8.996c0,3.323,3.501,4.963,6.647,4.963c3.943,0,5.805-2.57,6.735-3.855
		c1.019-1.373,2.702-1.949,3.234-1.949c0.222,0,0.443,0.044,0.443,0.31c0,0.931-5.938,7.932-13.338,7.932
		c-4.21,0-7.489-2.127-7.489-5.494c0-1.063,0.488-6.78,9.351-11.565C340.341,289.27,338.347,287.675,338.347,285.061z"/>
</g>
<g>
	<path fill="#0000FF" d="M362.302,388.926c-0.975,1.551-6.07,9.527-9.128,9.527c-2.083,0-3.988-1.95-3.988-3.723
		c0-1.24,0.975-3.367,1.64-3.367c0.177,0,0.266,0.266,0.311,0.354c0.398,1.595,1.772,2.658,3.411,2.658
		c2.394,0,7.002-7.223,9.616-11.255c2.304-3.589,5.583-8.951,9.084-16.439l0.31-0.487c0.798-1.196,2.615-1.95,3.235-1.95
		c0.487,0,0.487,0.178,0.487,0.887c0,1.063-0.045,2.215-0.045,3.279c0,4.52,0.178,9.039,0.488,13.559
		c0.354,6.071,0.753,7.844,1.063,9.306c0.531,2.659,0.797,3.855,2.038,3.855c0.089,0,0.177,0,0.487-0.178
		c0.133-0.089,1.063-0.576,1.64-0.576c0.222,0,0.398,0.089,0.398,0.311c0,0.886-3.412,2.88-5.406,2.88
		c-1.905,0-2.127-0.975-2.614-2.969c-0.222-0.842-0.753-2.88-0.975-5.672H362.302z M373.424,369.695
		c-0.576,1.108-1.772,3.679-3.988,7.622c-0.266,0.487-2.836,5.096-5.938,9.881c1.152-0.709,1.817-0.709,2.526-0.709h8.108
		c-0.222-2.304-0.398-5.627-0.443-6.514c-0.133-2.569-0.221-5.14-0.221-7.71v-2.57H373.424z"/>
</g>
<g>
</g>
</svg>
