<?xml version="1.0" encoding="utf-8"?>
<!-- Generator: Adobe Illustrator 16.0.0, SVG Export Plug-In . SVG Version: 6.00 Build 0)  -->
<!DOCTYPE svg PUBLIC "-//W3C//DTD SVG 1.1//EN" "http://www.w3.org/Graphics/SVG/1.1/DTD/svg11.dtd">
<svg version="1.1" id="Calque_1" xmlns="http://www.w3.org/2000/svg" xmlns:xlink="http://www.w3.org/1999/xlink" x="0px" y="0px"
	 width="415.75px" height="377.16px" viewBox="0 0 415.75 377.16" enable-background="new 0 0 415.75 377.16" xml:space="preserve">
<g>
	<defs>
		<rect id="SVGID_1_" x="56.127" y="67.471" width="307.668" height="223.2"/>
	</defs>
	<clipPath id="SVGID_2_">
		<use xlink:href="#SVGID_1_"  overflow="visible"/>
	</clipPath>
	
		<polyline clip-path="url(#SVGID_2_)" fill="none" stroke="#0000FF" stroke-linecap="square" stroke-linejoin="round" stroke-miterlimit="10" points="
		56.127,179.071 59.135,178.961 62.143,178.634 65.753,178.001 70.265,177.197 72.07,177.092 73.574,177.22 74.777,177.516 
		75.981,178.026 77.184,178.781 78.387,179.798 79.591,181.078 81.095,183.003 85.607,189.171 86.509,189.956 87.111,190.287 
		87.713,190.431 88.314,190.36 88.916,190.052 89.518,189.482 90.119,188.638 91.021,186.831 91.924,184.379 92.827,181.325 
		94.03,176.491 97.339,162.393 98.241,159.657 98.843,158.412 99.444,157.734 99.746,157.632 100.046,157.7 100.347,157.943 
		100.949,158.978 101.55,160.765 102.152,163.303 103.054,168.439 103.957,174.937 105.762,190.17 106.965,199.882 107.867,205.644 
		108.469,208.335 109.071,209.876 109.372,210.165 109.672,210.111 109.973,209.703 110.274,208.934 110.875,206.301 
		111.477,202.241 112.379,193.724 113.583,179.007 115.688,151.948 116.591,143.608 117.193,140.173 117.494,139.217 
		117.794,138.809 118.095,138.972 118.396,139.72 118.697,141.059 119.298,145.489 119.9,152.125 120.803,165.547 124.111,220.837 
		124.713,225.908 125.014,227.329 125.315,227.944 125.616,227.723 125.917,226.646 126.217,224.715 126.819,218.353 
		127.42,208.936 128.323,190.343 130.729,136.522 131.331,127.851 131.933,122.967 132.233,122.133 132.534,122.434 
		132.835,123.886 133.136,126.484 133.738,134.981 134.339,147.401 135.242,171.352 137.046,221.79 137.648,233.88 138.25,241.406 
		138.551,243.172 138.852,243.509 139.152,242.381 139.453,239.788 140.055,230.369 140.656,215.925 141.559,187.542 
		143.364,128.77 143.965,115.707 144.266,111.342 144.567,108.615 144.868,107.619 145.168,108.409 145.469,110.994 
		145.771,115.339 146.372,128.928 147.274,159.022 149.38,237.114 149.982,250.642 150.283,254.683 150.583,256.707 
		150.884,256.632 151.185,254.427 151.486,250.123 152.087,235.635 152.689,214.56 155.396,106.901 155.998,96.892 156.299,95.371 
		156.6,96.297 156.9,99.672 157.201,105.428 157.803,123.443 158.706,162.637 160.209,234.081 160.811,254.622 161.413,266.188 
		161.713,268.044 162.014,267.139 162.315,263.469 162.616,257.12 163.218,237.152 164.12,193.9 165.624,117.155 166.226,96.417 
		166.527,89.833 166.828,86.122 167.128,85.433 167.429,87.819 167.73,93.229 168.332,112.425 168.933,140.689 171.039,253.237 
		171.641,271.261 171.941,275.76 172.242,276.977 172.543,274.842 172.844,269.401 173.445,249.358 174.047,219.414 
		176.153,100.631 176.754,82.461 177.055,78.308 177.356,77.711 177.657,80.716 177.958,87.24 178.559,109.888 179.462,161.347 
		180.966,252.014 181.567,274.647 181.868,280.985 182.169,283.628 182.47,282.456 182.771,277.492 183.072,268.896 
		183.673,242.123 184.576,185.876 185.779,109.917 186.38,84.239 186.681,76.436 186.982,72.442 187.283,72.427 187.584,76.407 
		187.885,84.251 188.486,110.282 189.389,167.246 190.592,246.432 191.194,273.948 191.495,282.58 191.795,287.295 192.096,287.899 
		192.397,284.357 192.698,276.789 193.299,250.827 194.202,192.954 195.405,111.738 196.007,83.374 196.308,74.441 196.608,69.526 
		196.909,68.828 197.21,72.382 197.511,80.06 198.112,106.487 199.015,165.375 200.218,247.614 200.82,276.045 201.121,284.877 
		201.421,289.607 201.722,290.049 202.023,286.178 202.324,278.141 202.925,250.956 203.828,191.149 205.031,108.767 
		205.633,80.818 205.934,72.339 206.234,68.016 206.535,68.016 206.836,72.339 207.137,80.818 207.738,108.767 208.641,169.156 
		209.844,250.956 210.446,278.141 210.747,286.178 211.047,290.049 211.348,289.607 211.649,284.877 211.95,276.045 
		212.552,247.614 213.454,187.194 214.657,106.487 215.259,80.06 215.56,72.382 215.86,68.828 216.162,69.526 216.462,74.441 
		216.763,83.374 217.365,111.738 218.267,171.468 219.471,250.827 220.072,276.789 220.373,284.357 220.674,287.899 
		220.975,287.295 221.275,282.58 221.576,273.948 222.178,246.432 223.08,188.253 224.283,110.282 224.885,84.251 225.186,76.407 
		225.486,72.427 225.787,72.442 226.088,76.436 226.389,84.239 226.99,109.917 227.893,165.507 229.096,242.123 229.697,268.896 
		229.998,277.492 230.299,282.456 230.6,283.628 230.902,280.985 231.203,274.647 231.805,252.014 232.707,200.315 234.211,109.888 
		234.812,87.24 235.113,80.716 235.414,77.711 235.715,78.308 236.016,82.461 236.316,89.998 236.918,113.962 237.82,164.935 
		239.023,235.402 239.625,260.815 240.227,274.842 240.527,276.977 240.828,275.76 241.129,271.261 241.43,263.658 242.031,240.373 
		242.934,191.973 244.137,125.624 244.738,101.515 245.34,87.819 245.641,85.433 245.941,86.122 246.242,89.833 246.543,96.417 
		247.145,117.155 248.049,161.348 249.553,237.152 250.154,257.12 250.455,263.469 250.756,267.139 251.057,268.044 
		251.357,266.188 251.658,261.657 252.26,245.326 252.861,221.252 255.268,113.422 255.869,99.672 256.17,96.297 256.471,95.371 
		256.771,96.892 257.072,100.782 257.674,115.042 258.275,136.303 260.682,235.635 261.283,250.123 261.584,254.427 
		261.885,256.632 262.186,256.707 262.486,254.683 262.787,250.642 263.389,237.114 264.291,206.587 266.098,137.875 
		266.699,121.359 267.301,110.994 267.602,108.409 267.902,107.619 268.203,108.615 268.504,111.342 269.105,121.572 
		269.707,137.101 270.91,177.117 272.113,215.925 272.715,230.369 273.316,239.788 273.617,242.381 273.918,243.509 
		274.219,243.172 274.52,241.406 274.82,238.276 275.422,228.336 276.324,206.357 278.73,140.749 279.332,130.201 279.934,123.886 
		280.234,122.434 280.535,122.133 280.838,122.967 281.139,124.893 281.74,131.759 282.342,142.027 283.244,161.735 
		285.049,203.243 285.951,218.353 286.553,224.715 286.854,226.646 287.154,227.723 287.455,227.944 287.756,227.329 
		288.057,225.908 288.658,220.837 289.26,213.216 290.162,198.396 292.568,156.187 293.471,145.489 294.072,141.059 294.373,139.72 
		294.674,138.972 294.975,138.809 295.275,139.217 295.576,140.173 296.178,143.608 296.779,148.806 297.684,159.055 
		300.691,196.857 301.594,204.444 302.195,207.8 302.797,209.703 303.098,210.111 303.398,210.165 303.699,209.876 304,209.261 
		304.602,207.122 305.203,203.926 306.105,197.613 307.91,182.375 309.414,170.471 310.316,164.845 311.219,160.765 311.82,158.978 
		312.422,157.943 312.723,157.7 313.023,157.632 313.324,157.734 313.625,157.998 314.229,158.969 314.83,160.464 315.732,163.489 
		316.936,168.471 319.943,181.325 321.146,185.267 322.049,187.506 322.951,189.095 323.553,189.801 324.154,190.237 
		324.756,190.424 325.357,190.384 325.959,190.143 326.861,189.467 327.764,188.496 329.268,186.479 332.879,181.437 
		334.383,179.798 335.586,178.781 336.789,178.026 337.992,177.516 339.195,177.22 340.699,177.092 342.504,177.197 344.91,177.583 
		351.529,178.754 354.537,179.017 356.643,179.071 356.643,179.071 	"/>
</g>
<path fill="none" stroke="#000000" stroke-linecap="square" stroke-miterlimit="10" d="M56.127,67.471h307.668 M363.795,290.671
	v-223.2 M56.127,290.671h307.668 M56.127,290.671v-223.2"/>
<line stroke="#000000" stroke-linejoin="round" stroke-miterlimit="10" x1="56.127" y1="290.671" x2="56.127" y2="286.671"/>
<line stroke="#000000" stroke-linejoin="round" stroke-miterlimit="10" x1="56.127" y1="67.471" x2="56.127" y2="71.471"/>
<line stroke="#000000" stroke-linejoin="round" stroke-miterlimit="10" x1="103.956" y1="290.671" x2="103.956" y2="286.671"/>
<line stroke="#000000" stroke-linejoin="round" stroke-miterlimit="10" x1="103.956" y1="67.471" x2="103.956" y2="71.471"/>
<line stroke="#000000" stroke-linejoin="round" stroke-miterlimit="10" x1="151.784" y1="290.671" x2="151.784" y2="286.671"/>
<line stroke="#000000" stroke-linejoin="round" stroke-miterlimit="10" x1="151.784" y1="67.471" x2="151.784" y2="71.471"/>
<line stroke="#000000" stroke-linejoin="round" stroke-miterlimit="10" x1="199.613" y1="290.671" x2="199.613" y2="286.671"/>
<line stroke="#000000" stroke-linejoin="round" stroke-miterlimit="10" x1="199.613" y1="67.471" x2="199.613" y2="71.471"/>
<line stroke="#000000" stroke-linejoin="round" stroke-miterlimit="10" x1="247.441" y1="290.671" x2="247.441" y2="286.671"/>
<line stroke="#000000" stroke-linejoin="round" stroke-miterlimit="10" x1="247.441" y1="67.471" x2="247.441" y2="71.471"/>
<line stroke="#000000" stroke-linejoin="round" stroke-miterlimit="10" x1="295.27" y1="290.671" x2="295.27" y2="286.671"/>
<line stroke="#000000" stroke-linejoin="round" stroke-miterlimit="10" x1="295.27" y1="67.471" x2="295.27" y2="71.471"/>
<line stroke="#000000" stroke-linejoin="round" stroke-miterlimit="10" x1="343.098" y1="290.671" x2="343.098" y2="286.671"/>
<line stroke="#000000" stroke-linejoin="round" stroke-miterlimit="10" x1="343.098" y1="67.471" x2="343.098" y2="71.471"/>
<line stroke="#000000" stroke-linejoin="round" stroke-miterlimit="10" x1="363.795" y1="290.671" x2="363.795" y2="286.671"/>
<line stroke="#000000" stroke-linejoin="round" stroke-miterlimit="10" x1="363.795" y1="67.471" x2="363.795" y2="71.471"/>
<line stroke="#000000" stroke-linejoin="round" stroke-miterlimit="10" x1="56.127" y1="290.671" x2="60.127" y2="290.671"/>
<line stroke="#000000" stroke-linejoin="round" stroke-miterlimit="10" x1="363.795" y1="290.671" x2="359.795" y2="290.671"/>
<line stroke="#000000" stroke-linejoin="round" stroke-miterlimit="10" x1="56.127" y1="234.871" x2="60.127" y2="234.871"/>
<line stroke="#000000" stroke-linejoin="round" stroke-miterlimit="10" x1="363.795" y1="234.871" x2="359.795" y2="234.871"/>
<line stroke="#000000" stroke-linejoin="round" stroke-miterlimit="10" x1="56.127" y1="179.071" x2="60.127" y2="179.071"/>
<line stroke="#000000" stroke-linejoin="round" stroke-miterlimit="10" x1="363.795" y1="179.071" x2="359.795" y2="179.071"/>
<line stroke="#000000" stroke-linejoin="round" stroke-miterlimit="10" x1="56.127" y1="123.271" x2="60.127" y2="123.271"/>
<line stroke="#000000" stroke-linejoin="round" stroke-miterlimit="10" x1="363.795" y1="123.271" x2="359.795" y2="123.271"/>
<line stroke="#000000" stroke-linejoin="round" stroke-miterlimit="10" x1="56.127" y1="67.471" x2="60.127" y2="67.471"/>
<line stroke="#000000" stroke-linejoin="round" stroke-miterlimit="10" x1="363.795" y1="67.471" x2="359.795" y2="67.471"/>
<g>
	<rect x="60.127" y="310.088" fill="none" width="38.332" height="17.333"/>
	<path d="M60.329,322.048c0.662-0.07,1.091-0.188,1.288-0.354c0.196-0.166,0.294-0.587,0.294-1.263v-8.007
		c0-0.639-0.097-1.056-0.29-1.253c-0.193-0.195-0.624-0.317-1.292-0.364v-0.334h5.08v0.334c-0.662,0.035-1.106,0.144-1.332,0.325
		s-0.338,0.571-0.338,1.169v8.648c0,0.199,0.034,0.356,0.101,0.47c0.067,0.115,0.216,0.187,0.444,0.216
		c0.135,0.018,0.277,0.029,0.427,0.035c0.149,0.006,0.43,0.009,0.84,0.009c1.602,0,2.684-0.132,3.248-0.396
		c0.563-0.264,1.108-0.938,1.637-2.021h0.458l-0.88,3.12h-9.685V322.048z"/>
	<path d="M72.282,318.761c0.304,0.809,0.661,1.453,1.071,1.934c0.714,0.838,1.6,1.257,2.659,1.257c0.574,0,1.069-0.182,1.488-0.545
		s0.627-0.87,0.627-1.521c0-0.586-0.21-1.096-0.631-1.529c-0.275-0.275-0.854-0.688-1.737-1.239l-1.536-0.958
		c-0.462-0.293-0.831-0.589-1.106-0.888c-0.51-0.568-0.765-1.195-0.765-1.881c0-0.908,0.302-1.664,0.905-2.268
		s1.403-0.905,2.399-0.905c0.41,0,0.904,0.102,1.481,0.303c0.577,0.203,0.907,0.304,0.989,0.304c0.223,0,0.376-0.053,0.461-0.158
		s0.151-0.255,0.198-0.448h0.369l0.396,3.832H79.12c-0.293-1.154-0.763-1.96-1.411-2.417s-1.288-0.686-1.92-0.686
		c-0.492,0-0.921,0.146-1.288,0.435c-0.366,0.291-0.549,0.693-0.549,1.209c0,0.463,0.14,0.858,0.421,1.187
		c0.281,0.334,0.717,0.683,1.308,1.046l1.581,0.976c0.99,0.609,1.688,1.169,2.093,1.679c0.4,0.516,0.6,1.125,0.6,1.828
		c0,0.943-0.356,1.731-1.068,2.364s-1.622,0.949-2.729,0.949c-0.557,0-1.138-0.105-1.745-0.316s-0.954-0.316-1.042-0.316
		c-0.211,0-0.353,0.064-0.426,0.193s-0.122,0.267-0.145,0.413h-0.396l-0.536-3.832H72.282z"/>
	<path d="M81.484,310.473h10.178l0.097,3.059h-0.431c-0.211-0.961-0.479-1.587-0.804-1.876c-0.325-0.291-1.009-0.436-2.052-0.436
		H87.47v9.211c0,0.693,0.108,1.123,0.325,1.289s0.691,0.275,1.424,0.328v0.334h-5.247v-0.334c0.762-0.059,1.236-0.184,1.424-0.376
		s0.281-0.677,0.281-1.452v-9h-1.011c-0.996,0-1.674,0.144-2.035,0.431s-0.631,0.914-0.813,1.881h-0.439L81.484,310.473z"/>
</g>
<g>
	<rect x="180.697" y="297.338" fill="none" width="28" height="16.667"/>
	<path d="M189.83,297.558c0.002,0.012,0.003,0.038,0.003,0.079v8.23c0,0.351,0.094,0.574,0.282,0.67
		c0.188,0.096,0.538,0.152,1.051,0.171v0.191h-3.862v-0.205c0.551-0.027,0.912-0.103,1.08-0.226s0.253-0.39,0.253-0.8v-6.33
		c0-0.219-0.027-0.385-0.082-0.499s-0.173-0.171-0.355-0.171c-0.119,0-0.272,0.033-0.461,0.1c-0.189,0.065-0.366,0.135-0.53,0.208
		v-0.191l2.509-1.278h0.082C189.817,297.529,189.828,297.547,189.83,297.558z"/>
	<path d="M194.738,306.103c0.413,0.263,0.762,0.394,1.049,0.394c0.638,0,1.112-0.216,1.422-0.646
		c0.31-0.432,0.465-0.901,0.465-1.407c0-0.488-0.125-0.918-0.376-1.287c-0.424-0.626-1.139-0.938-2.146-0.938
		c-0.059,0-0.116,0.001-0.171,0.003c-0.055,0.003-0.119,0.009-0.191,0.018l-0.014-0.178c0.729-0.265,1.303-0.567,1.723-0.909
		s0.629-0.793,0.629-1.354c0-0.497-0.165-0.875-0.496-1.135s-0.708-0.39-1.131-0.39c-0.501,0-0.943,0.185-1.326,0.554
		c-0.209,0.2-0.435,0.511-0.677,0.93l-0.212-0.048c0.182-0.692,0.522-1.246,1.019-1.661s1.071-0.622,1.723-0.622
		c0.697,0,1.236,0.191,1.617,0.574s0.571,0.825,0.571,1.326c0,0.442-0.157,0.848-0.472,1.217c-0.178,0.21-0.454,0.444-0.827,0.704
		c0.438,0.187,0.789,0.405,1.053,0.656c0.497,0.479,0.745,1.085,0.745,1.818c0,0.866-0.341,1.629-1.022,2.29
		s-1.651,0.991-2.909,0.991c-0.561,0-0.954-0.083-1.179-0.249c-0.226-0.167-0.338-0.346-0.338-0.537
		c0-0.118,0.038-0.232,0.113-0.342s0.197-0.164,0.366-0.164C193.994,305.71,194.326,305.841,194.738,306.103z"/>
	<path d="M199.729,302.127c0.218-0.029,0.361-0.083,0.428-0.162c0.068-0.078,0.102-0.264,0.102-0.556v-3.826
		c0-0.148-0.019-0.258-0.058-0.328s-0.132-0.105-0.281-0.105c-0.029,0-0.058,0.002-0.086,0.006s-0.059,0.009-0.094,0.014v-0.144
		c0.117-0.034,0.261-0.076,0.433-0.125c0.171-0.05,0.29-0.085,0.356-0.106l0.383-0.119l0.008,0.027v2.447
		c0.167-0.191,0.316-0.332,0.446-0.422c0.234-0.16,0.486-0.239,0.757-0.239c0.431,0,0.724,0.181,0.881,0.542
		c0.085,0.191,0.127,0.442,0.127,0.753v1.626c0,0.282,0.033,0.465,0.098,0.55c0.065,0.085,0.199,0.142,0.401,0.168v0.111h-1.726
		v-0.111c0.231-0.032,0.38-0.087,0.447-0.164c0.066-0.076,0.1-0.262,0.1-0.554v-1.614c0-0.258-0.043-0.466-0.13-0.625
		c-0.086-0.16-0.249-0.239-0.488-0.239c-0.207,0-0.408,0.074-0.602,0.223c-0.194,0.149-0.291,0.246-0.291,0.291v1.965
		c0,0.298,0.035,0.483,0.104,0.558c0.069,0.075,0.217,0.128,0.442,0.16v0.111h-1.757V302.127z"/>
</g>
<g>
	<rect x="233.497" y="297.338" fill="none" width="28" height="16.667"/>
	<path d="M242.63,297.558c0.003,0.012,0.003,0.038,0.003,0.079v8.23c0,0.351,0.094,0.574,0.282,0.67
		c0.188,0.096,0.538,0.152,1.052,0.171v0.191h-3.863v-0.205c0.552-0.027,0.912-0.103,1.08-0.226c0.169-0.123,0.254-0.39,0.254-0.8
		v-6.33c0-0.219-0.027-0.385-0.082-0.499s-0.174-0.171-0.355-0.171c-0.119,0-0.273,0.033-0.462,0.1
		c-0.188,0.065-0.366,0.135-0.53,0.208v-0.191l2.51-1.278h0.082C242.617,297.529,242.627,297.547,242.63,297.558z"/>
	<path d="M249.988,297.507h0.65v6.152h1.428v0.909h-1.428v2.331h-1.088v-2.331h-3.938v-0.909L249.988,297.507z M249.537,298.918
		l-3.354,4.741h3.354V298.918z"/>
	<path d="M252.528,302.127c0.218-0.029,0.36-0.083,0.429-0.162c0.067-0.078,0.102-0.264,0.102-0.556v-3.826
		c0-0.148-0.02-0.258-0.059-0.328c-0.038-0.07-0.132-0.105-0.28-0.105c-0.029,0-0.058,0.002-0.086,0.006s-0.06,0.009-0.094,0.014
		v-0.144c0.117-0.034,0.261-0.076,0.433-0.125c0.172-0.05,0.29-0.085,0.356-0.106l0.383-0.119l0.008,0.027v2.447
		c0.167-0.191,0.316-0.332,0.446-0.422c0.234-0.16,0.486-0.239,0.758-0.239c0.43,0,0.724,0.181,0.881,0.542
		c0.084,0.191,0.127,0.442,0.127,0.753v1.626c0,0.282,0.033,0.465,0.098,0.55c0.065,0.085,0.199,0.142,0.4,0.168v0.111h-1.726
		v-0.111c0.231-0.032,0.38-0.087,0.446-0.164c0.066-0.076,0.1-0.262,0.1-0.554v-1.614c0-0.258-0.043-0.466-0.129-0.625
		c-0.087-0.16-0.25-0.239-0.488-0.239c-0.207,0-0.408,0.074-0.602,0.223c-0.194,0.149-0.291,0.246-0.291,0.291v1.965
		c0,0.298,0.034,0.483,0.104,0.558c0.068,0.075,0.217,0.128,0.441,0.16v0.111h-1.757V302.127z"/>
</g>
<g>
	<rect x="281.297" y="297.338" fill="none" width="28" height="16.667"/>
	<path d="M290.43,297.558c0.002,0.012,0.004,0.038,0.004,0.079v8.23c0,0.351,0.094,0.574,0.281,0.67s0.538,0.152,1.051,0.171v0.191
		h-3.861v-0.205c0.551-0.027,0.911-0.103,1.08-0.226c0.168-0.123,0.252-0.39,0.252-0.8v-6.33c0-0.219-0.027-0.385-0.082-0.499
		s-0.173-0.171-0.355-0.171c-0.118,0-0.271,0.033-0.461,0.1c-0.189,0.065-0.365,0.135-0.529,0.208v-0.191l2.508-1.278h0.082
		C290.417,297.529,290.428,297.547,290.43,297.558z"/>
	<path d="M295.326,306.089c0.423,0.295,0.748,0.441,0.977,0.441c0.524,0,0.982-0.231,1.375-0.693c0.393-0.463,0.59-1.031,0.59-1.706
		c0-1.181-0.631-2.03-1.89-2.55c-0.698-0.287-1.349-0.431-1.951-0.431c-0.101,0-0.163-0.003-0.188-0.011
		c-0.025-0.006-0.056-0.03-0.092-0.071c0.009-0.036,0.017-0.067,0.023-0.092c0.007-0.025,0.016-0.049,0.023-0.072l1.492-3.268h2.931
		c0.146,0,0.259-0.025,0.338-0.075s0.184-0.144,0.312-0.28l0.109,0.096l-0.527,1.265c-0.018,0.041-0.068,0.067-0.15,0.078
		c-0.082,0.012-0.171,0.018-0.267,0.018h-2.649l-0.581,1.196c0.748,0.128,1.296,0.248,1.642,0.362
		c0.57,0.191,1.048,0.474,1.432,0.848c0.328,0.323,0.576,0.688,0.745,1.09c0.169,0.404,0.253,0.831,0.253,1.282
		c0,1.007-0.359,1.848-1.078,2.522s-1.627,1.012-2.727,1.012c-0.447,0-0.809-0.043-1.082-0.13c-0.456-0.142-0.684-0.395-0.684-0.759
		c0-0.137,0.049-0.256,0.146-0.359c0.098-0.102,0.25-0.153,0.455-0.153C294.563,305.648,294.904,305.796,295.326,306.089z"/>
	<path d="M300.328,302.127c0.218-0.029,0.361-0.083,0.428-0.162c0.068-0.078,0.102-0.264,0.102-0.556v-3.826
		c0-0.148-0.019-0.258-0.057-0.328c-0.039-0.07-0.133-0.105-0.281-0.105c-0.029,0-0.059,0.002-0.086,0.006s-0.059,0.009-0.094,0.014
		v-0.144c0.117-0.034,0.262-0.076,0.433-0.125c0.171-0.05,0.29-0.085,0.356-0.106l0.383-0.119l0.008,0.027v2.447
		c0.168-0.191,0.316-0.332,0.446-0.422c0.233-0.16,0.486-0.239,0.757-0.239c0.432,0,0.725,0.181,0.881,0.542
		c0.086,0.191,0.128,0.442,0.128,0.753v1.626c0,0.282,0.032,0.465,0.098,0.55s0.198,0.142,0.401,0.168v0.111h-1.727v-0.111
		c0.231-0.032,0.38-0.087,0.447-0.164c0.065-0.076,0.1-0.262,0.1-0.554v-1.614c0-0.258-0.044-0.466-0.131-0.625
		c-0.086-0.16-0.248-0.239-0.488-0.239c-0.207,0-0.407,0.074-0.602,0.223c-0.193,0.149-0.291,0.246-0.291,0.291v1.965
		c0,0.298,0.035,0.483,0.104,0.558c0.07,0.075,0.217,0.128,0.443,0.16v0.111h-1.758V302.127z"/>
</g>
<g>
	<rect x="329.098" y="297.338" fill="none" width="28" height="16.667"/>
	<path d="M338.23,297.558c0.002,0.012,0.004,0.038,0.004,0.079v8.23c0,0.351,0.094,0.574,0.281,0.67s0.538,0.152,1.051,0.171v0.191
		h-3.861v-0.205c0.551-0.027,0.911-0.103,1.08-0.226c0.168-0.123,0.252-0.39,0.252-0.8v-6.33c0-0.219-0.027-0.385-0.082-0.499
		s-0.173-0.171-0.355-0.171c-0.118,0-0.271,0.033-0.461,0.1c-0.189,0.065-0.365,0.135-0.529,0.208v-0.191l2.508-1.278h0.082
		C338.218,297.529,338.229,297.547,338.23,297.558z"/>
	<path d="M346.803,306.045c-0.535,0.67-1.231,1.005-2.088,1.005c-0.803,0-1.533-0.376-2.191-1.128s-0.988-1.752-0.988-3.001
		c0-1.608,0.639-2.989,1.914-4.143c1.14-0.966,2.42-1.449,3.842-1.449l0.035,0.226c-0.57,0.104-1.061,0.247-1.474,0.427
		c-0.413,0.181-0.78,0.433-1.104,0.756c-0.332,0.328-0.645,0.745-0.936,1.251c-0.292,0.506-0.492,1.007-0.602,1.504
		c0.282-0.173,0.525-0.301,0.73-0.383c0.365-0.146,0.732-0.219,1.102-0.219c0.725,0,1.332,0.251,1.824,0.752
		s0.738,1.217,0.738,2.146C347.605,304.623,347.338,305.375,346.803,306.045z M346.068,302.702
		c-0.319-0.784-0.861-1.176-1.627-1.176c-0.707,0-1.176,0.21-1.408,0.629c-0.137,0.246-0.205,0.656-0.205,1.23
		c0,0.743,0.158,1.47,0.475,2.181s0.816,1.066,1.5,1.066c0.543,0,0.938-0.231,1.184-0.694c0.246-0.462,0.369-1.003,0.369-1.623
		C346.355,303.709,346.26,303.172,346.068,302.702z"/>
	<path d="M348.129,302.127c0.218-0.029,0.361-0.083,0.428-0.162c0.068-0.078,0.102-0.264,0.102-0.556v-3.826
		c0-0.148-0.019-0.258-0.057-0.328c-0.039-0.07-0.133-0.105-0.281-0.105c-0.029,0-0.059,0.002-0.086,0.006s-0.059,0.009-0.094,0.014
		v-0.144c0.117-0.034,0.262-0.076,0.433-0.125c0.171-0.05,0.29-0.085,0.356-0.106l0.383-0.119l0.008,0.027v2.447
		c0.168-0.191,0.316-0.332,0.446-0.422c0.233-0.16,0.486-0.239,0.757-0.239c0.432,0,0.725,0.181,0.881,0.542
		c0.086,0.191,0.128,0.442,0.128,0.753v1.626c0,0.282,0.032,0.465,0.098,0.55s0.198,0.142,0.401,0.168v0.111h-1.727v-0.111
		c0.231-0.032,0.38-0.087,0.447-0.164c0.065-0.076,0.1-0.262,0.1-0.554v-1.614c0-0.258-0.044-0.466-0.131-0.625
		c-0.086-0.16-0.248-0.239-0.488-0.239c-0.207,0-0.407,0.074-0.602,0.223c-0.193,0.149-0.291,0.246-0.291,0.291v1.965
		c0,0.298,0.035,0.483,0.104,0.558c0.07,0.075,0.217,0.128,0.443,0.16v0.111h-1.758V302.127z"/>
</g>
<g>
	<rect x="90.097" y="297.338" fill="none" width="28" height="16.667"/>
	<path d="M99.486,297.558c0.002,0.012,0.003,0.038,0.003,0.079v8.23c0,0.351,0.094,0.574,0.282,0.67
		c0.188,0.096,0.538,0.152,1.051,0.171v0.191H96.96v-0.205c0.551-0.027,0.912-0.103,1.08-0.226s0.253-0.39,0.253-0.8v-6.33
		c0-0.219-0.027-0.385-0.082-0.499s-0.173-0.171-0.355-0.171c-0.119,0-0.272,0.033-0.461,0.1c-0.189,0.065-0.366,0.135-0.53,0.208
		v-0.191l2.509-1.278h0.082C99.473,297.529,99.483,297.547,99.486,297.558z"/>
	<path d="M105.973,297.558c0.002,0.012,0.003,0.038,0.003,0.079v8.23c0,0.351,0.094,0.574,0.282,0.67
		c0.188,0.096,0.538,0.152,1.051,0.171v0.191h-3.862v-0.205c0.551-0.027,0.912-0.103,1.08-0.226s0.253-0.39,0.253-0.8v-6.33
		c0-0.219-0.027-0.385-0.082-0.499s-0.173-0.171-0.355-0.171c-0.119,0-0.272,0.033-0.461,0.1c-0.189,0.065-0.366,0.135-0.53,0.208
		v-0.191l2.509-1.278h0.082C105.96,297.529,105.971,297.547,105.973,297.558z"/>
	<path d="M108.872,302.127c0.218-0.029,0.361-0.083,0.428-0.162c0.068-0.078,0.102-0.264,0.102-0.556v-3.826
		c0-0.148-0.019-0.258-0.058-0.328s-0.132-0.105-0.281-0.105c-0.029,0-0.058,0.002-0.086,0.006s-0.059,0.009-0.094,0.014v-0.144
		c0.117-0.034,0.261-0.076,0.433-0.125c0.171-0.05,0.29-0.085,0.356-0.106l0.383-0.119l0.008,0.027v2.447
		c0.167-0.191,0.316-0.332,0.446-0.422c0.234-0.16,0.486-0.239,0.757-0.239c0.431,0,0.724,0.181,0.881,0.542
		c0.085,0.191,0.127,0.442,0.127,0.753v1.626c0,0.282,0.033,0.465,0.098,0.55c0.065,0.085,0.199,0.142,0.401,0.168v0.111h-1.726
		v-0.111c0.231-0.032,0.38-0.087,0.447-0.164c0.066-0.076,0.1-0.262,0.1-0.554v-1.614c0-0.258-0.043-0.466-0.13-0.625
		c-0.086-0.16-0.249-0.239-0.488-0.239c-0.207,0-0.408,0.074-0.602,0.223c-0.194,0.149-0.291,0.246-0.291,0.291v1.965
		c0,0.298,0.035,0.483,0.104,0.558c0.069,0.075,0.217,0.128,0.442,0.16v0.111h-1.757V302.127z"/>
</g>
<g>
	<rect x="137.897" y="297.338" fill="none" width="28" height="16.667"/>
	<path d="M147.03,297.558c0.002,0.012,0.003,0.038,0.003,0.079v8.23c0,0.351,0.094,0.574,0.282,0.67
		c0.188,0.096,0.538,0.152,1.051,0.171v0.191h-3.862v-0.205c0.551-0.027,0.912-0.103,1.08-0.226s0.253-0.39,0.253-0.8v-6.33
		c0-0.219-0.027-0.385-0.082-0.499s-0.173-0.171-0.355-0.171c-0.119,0-0.272,0.033-0.461,0.1c-0.189,0.065-0.366,0.135-0.53,0.208
		v-0.191l2.509-1.278h0.082C147.017,297.529,147.027,297.547,147.03,297.558z"/>
	<path d="M150.273,306.742c1.668-1.73,2.8-3.001,3.397-3.812s0.896-1.601,0.896-2.37c0-0.674-0.182-1.188-0.547-1.54
		s-0.8-0.529-1.306-0.529c-0.625,0-1.13,0.228-1.518,0.683c-0.214,0.251-0.419,0.636-0.615,1.154l-0.294-0.062
		c0.228-1.047,0.614-1.774,1.159-2.183c0.544-0.407,1.129-0.611,1.753-0.611c0.77,0,1.394,0.242,1.87,0.728s0.714,1.078,0.714,1.779
		c0,0.747-0.258,1.466-0.773,2.158s-1.634,1.924-3.357,3.695h3.139c0.438,0,0.745-0.053,0.923-0.157
		c0.178-0.104,0.378-0.359,0.602-0.765l0.178,0.082l-0.759,1.906h-5.462V306.742z"/>
	<path d="M156.928,302.127c0.218-0.029,0.361-0.083,0.428-0.162c0.068-0.078,0.102-0.264,0.102-0.556v-3.826
		c0-0.148-0.019-0.258-0.058-0.328s-0.132-0.105-0.281-0.105c-0.029,0-0.058,0.002-0.086,0.006s-0.059,0.009-0.094,0.014v-0.144
		c0.117-0.034,0.261-0.076,0.433-0.125c0.171-0.05,0.29-0.085,0.356-0.106l0.383-0.119l0.008,0.027v2.447
		c0.167-0.191,0.316-0.332,0.446-0.422c0.234-0.16,0.486-0.239,0.757-0.239c0.431,0,0.724,0.181,0.881,0.542
		c0.085,0.191,0.127,0.442,0.127,0.753v1.626c0,0.282,0.033,0.465,0.098,0.55c0.065,0.085,0.199,0.142,0.401,0.168v0.111h-1.726
		v-0.111c0.231-0.032,0.38-0.087,0.447-0.164c0.066-0.076,0.1-0.262,0.1-0.554v-1.614c0-0.258-0.043-0.466-0.13-0.625
		c-0.086-0.16-0.249-0.239-0.488-0.239c-0.207,0-0.408,0.074-0.602,0.223c-0.194,0.149-0.291,0.246-0.291,0.291v1.965
		c0,0.298,0.035,0.483,0.104,0.558c0.069,0.075,0.217,0.128,0.442,0.16v0.111h-1.757V302.127z"/>
</g>
<g>
	<rect x="2.664" y="131.094" fill="none" width="17.333" height="84.597"/>
	<path d="M14.958,215.425h-0.334c-0.052-0.463-0.227-0.81-0.522-1.041s-1.106-0.629-2.431-1.19l-8.833-3.75v-0.358l10.204-4.484
		c0.676-0.299,1.094-0.537,1.254-0.717c0.161-0.178,0.27-0.479,0.328-0.9h0.334v4.577h-0.334c-0.047-0.526-0.104-0.865-0.171-1.018
		c-0.066-0.151-0.231-0.228-0.494-0.228c-0.087,0-0.241,0.029-0.463,0.088s-0.455,0.141-0.7,0.246l-1.731,0.72v4.744
		c1.178,0.468,1.896,0.747,2.156,0.837c0.259,0.092,0.465,0.137,0.616,0.137c0.303,0,0.513-0.123,0.63-0.369
		c0.07-0.152,0.122-0.438,0.157-0.859h0.334V215.425z M10.335,207.673l-4.957,2.062l4.957,2.072V207.673z"/>
	<path d="M14.729,202.401c-0.041-0.457-0.117-0.762-0.229-0.914c-0.17-0.234-0.51-0.352-1.02-0.352H8.938
		c-0.434,0-0.718,0.057-0.853,0.172c-0.135,0.113-0.202,0.303-0.202,0.566c0,0.123,0.006,0.215,0.018,0.277
		c0.012,0.061,0.032,0.133,0.062,0.215H7.654l-0.211-0.633c-0.076-0.229-0.214-0.604-0.413-1.125s-0.299-0.797-0.299-0.826
		s0.015-0.047,0.044-0.053s0.085-0.009,0.167-0.009h1.187c-0.527-0.58-0.892-1.081-1.095-1.503
		c-0.201-0.422-0.303-0.855-0.303-1.301c0-0.604,0.205-1.084,0.615-1.441c0.223-0.188,0.524-0.343,0.905-0.466
		c-0.439-0.434-0.765-0.812-0.976-1.134c-0.363-0.557-0.545-1.125-0.545-1.705c0-0.943,0.384-1.573,1.151-1.89
		c0.434-0.182,1.119-0.272,2.057-0.272h3.647c0.416,0,0.699-0.092,0.848-0.277c0.15-0.184,0.248-0.517,0.295-0.997h0.229v3.964
		h-0.246c-0.047-0.51-0.149-0.846-0.308-1.006c-0.158-0.162-0.48-0.242-0.967-0.242H9.649c-0.568,0-0.987,0.062-1.257,0.185
		c-0.48,0.217-0.721,0.642-0.721,1.274c0,0.381,0.126,0.759,0.378,1.134c0.146,0.217,0.381,0.483,0.703,0.8h4.5
		c0.475,0,0.835-0.084,1.081-0.25c0.246-0.168,0.378-0.521,0.396-1.06h0.229v4.034h-0.229c-0.07-0.557-0.205-0.911-0.404-1.063
		s-0.691-0.229-1.477-0.229h-2.456c-0.9,0-1.521,0.059-1.859,0.176c-0.574,0.193-0.861,0.604-0.861,1.23
		c0,0.357,0.099,0.709,0.294,1.055c0.197,0.346,0.453,0.65,0.77,0.914h4.808c0.445,0,0.753-0.077,0.923-0.233
		c0.17-0.154,0.258-0.493,0.264-1.015h0.229v3.999H14.729z"/>
	<path d="M18.588,188.603c-0.035-0.547-0.152-0.895-0.352-1.043s-0.513-0.223-0.94-0.223H8.858c-0.445,0-0.73,0.055-0.857,0.162
		c-0.125,0.109-0.188,0.312-0.188,0.611c0,0.064,0.003,0.125,0.009,0.18c0.006,0.057,0.018,0.137,0.035,0.242h-0.29l-0.272-0.835
		c-0.006-0.029-0.208-0.618-0.606-1.767c0-0.029,0.013-0.051,0.04-0.066c0.025-0.014,0.057-0.021,0.092-0.021h1.187
		c-0.387-0.387-0.674-0.727-0.861-1.02c-0.328-0.527-0.492-1.069-0.492-1.626c0-0.809,0.344-1.504,1.031-2.087
		c0.688-0.583,1.629-0.875,2.823-0.875c1.171,0,2.233,0.35,3.188,1.05s1.431,1.581,1.431,2.641c0,0.328-0.041,0.612-0.123,0.853
		c-0.123,0.375-0.349,0.721-0.677,1.037h2.883c0.592,0,0.955-0.097,1.09-0.29s0.226-0.615,0.272-1.266h0.308v4.342H18.588z
		 M14.225,185.136c0.196-0.303,0.294-0.658,0.294-1.068c0-0.633-0.314-1.174-0.943-1.622c-0.629-0.448-1.506-0.672-2.629-0.672
		c-1.077,0-1.882,0.233-2.414,0.699c-0.532,0.466-0.799,1.006-0.799,1.622c0,0.434,0.133,0.829,0.399,1.187s0.528,0.536,0.785,0.536
		h4.416C13.731,185.664,14.028,185.437,14.225,185.136z"/>
	<path d="M14.712,179.321c-0.053-0.545-0.162-0.914-0.33-1.107c-0.166-0.193-0.493-0.29-0.979-0.29H4.815
		c-0.387,0-0.653,0.032-0.8,0.097c-0.246,0.117-0.369,0.354-0.369,0.712c0,0.082,0.009,0.171,0.026,0.268s0.044,0.218,0.079,0.365
		h-0.29c-0.211-0.791-0.492-1.743-0.844-2.856c0-0.041,0.018-0.066,0.053-0.075s0.111-0.013,0.229-0.013h10.538
		c0.51,0,0.839-0.087,0.989-0.263c0.148-0.176,0.244-0.539,0.285-1.09h0.246v4.253H14.712z"/>
	<path d="M2.96,172.94c-0.181-0.176-0.271-0.393-0.271-0.65c0-0.252,0.089-0.467,0.267-0.646s0.396-0.269,0.651-0.269
		c0.251,0,0.466,0.09,0.644,0.269s0.267,0.394,0.267,0.646c0,0.258-0.089,0.475-0.267,0.65s-0.393,0.264-0.644,0.264
		C3.356,173.204,3.141,173.116,2.96,172.94z M14.712,174.338c-0.059-0.627-0.165-1.022-0.32-1.187s-0.576-0.246-1.262-0.246H8.938
		c-0.381,0-0.645,0.026-0.791,0.079c-0.24,0.088-0.36,0.272-0.36,0.554c0,0.064,0.006,0.128,0.018,0.188
		c0.012,0.062,0.059,0.239,0.141,0.532H7.672l-0.123-0.378c-0.334-1.025-0.586-1.74-0.756-2.145c-0.07-0.164-0.105-0.27-0.105-0.316
		c0.041-0.012,0.085-0.018,0.132-0.018h6.311c0.668,0,1.087-0.08,1.257-0.242c0.17-0.16,0.278-0.525,0.325-1.094h0.246v4.271H14.712
		z"/>
	<path d="M6.854,165.109h0.633v1.793l5.062,0.018c0.445,0,0.782-0.038,1.011-0.114c0.404-0.141,0.606-0.416,0.606-0.826
		c0-0.211-0.05-0.394-0.149-0.549s-0.258-0.333-0.475-0.532l0.193-0.229L14,164.863c0.41,0.305,0.7,0.627,0.87,0.967
		s0.255,0.668,0.255,0.984c0,0.691-0.308,1.16-0.923,1.406c-0.334,0.135-0.797,0.202-1.389,0.202H7.487v0.958
		c-0.018,0.029-0.035,0.052-0.053,0.065c-0.018,0.016-0.041,0.022-0.07,0.022c-0.059,0-0.104-0.013-0.137-0.04
		c-0.031-0.025-0.106-0.109-0.224-0.25c-0.334-0.404-0.604-0.695-0.813-0.875c-0.207-0.178-0.757-0.599-1.647-1.261
		c0-0.076,0.006-0.121,0.018-0.136s0.056-0.022,0.132-0.022h2.162V165.109z"/>
	<path d="M6.819,161.901h5.625c0.398,0,0.718-0.056,0.958-0.167c0.445-0.217,0.668-0.615,0.668-1.195
		c0-0.398-0.132-0.788-0.396-1.169c-0.146-0.217-0.349-0.437-0.606-0.659H8.252c-0.451,0-0.747,0.088-0.888,0.264
		s-0.226,0.527-0.255,1.055h-0.29v-2.839h6.188c0.398,0,0.672-0.071,0.822-0.216c0.148-0.143,0.215-0.446,0.197-0.909h0.246
		c0.088,0.322,0.154,0.56,0.197,0.712c0.045,0.152,0.125,0.407,0.242,0.765c0.053,0.152,0.179,0.486,0.378,1.002
		c0,0.029-0.013,0.047-0.04,0.053c-0.025,0.006-0.057,0.009-0.092,0.009h-1.415c0.475,0.398,0.826,0.762,1.055,1.09
		c0.352,0.498,0.527,1.025,0.527,1.582c0,0.51-0.182,0.99-0.546,1.441c-0.357,0.457-0.959,0.686-1.804,0.686H8.208
		c-0.465,0-0.776,0.1-0.934,0.299c-0.099,0.129-0.168,0.404-0.209,0.826H6.819V161.901z"/>
	<path d="M6.934,150.247c0.123-0.234,0.293-0.46,0.51-0.677H4.648c-0.357,0-0.604,0.039-0.738,0.119
		c-0.135,0.078-0.202,0.268-0.202,0.566c0,0.07,0.003,0.132,0.009,0.185s0.018,0.17,0.035,0.352h-0.29l-0.185-0.721
		c-0.07-0.264-0.144-0.527-0.22-0.791s-0.149-0.495-0.22-0.694c-0.029-0.094-0.085-0.249-0.167-0.466l0.018-0.053l0.923,0.018
		c0.334,0.006,0.679,0.012,1.032,0.018c0.355,0.006,0.705,0.009,1.051,0.009l7.181,0.018c0.381,0,0.647-0.047,0.8-0.141
		s0.229-0.343,0.229-0.747c0-0.064-0.001-0.129-0.004-0.193s-0.011-0.129-0.022-0.193h0.29c0.012,0.035,0.158,0.46,0.439,1.274
		l0.519,1.38l-0.079,0.062h-1.081c0.357,0.328,0.612,0.612,0.765,0.853c0.264,0.428,0.396,0.923,0.396,1.485
		c0,0.996-0.385,1.804-1.155,2.422s-1.663,0.927-2.677,0.927c-1.271,0-2.362-0.37-3.274-1.112c-0.91-0.74-1.366-1.647-1.366-2.72
		C6.652,150.997,6.746,150.604,6.934,150.247z M13.771,149.992c-0.27-0.281-0.524-0.422-0.765-0.422H9.236
		c-0.762,0-1.299,0.204-1.612,0.611s-0.471,0.804-0.471,1.19c0,0.738,0.327,1.312,0.98,1.723s1.457,0.615,2.412,0.615
		c0.943,0,1.784-0.218,2.522-0.655c0.738-0.436,1.107-1.088,1.107-1.955C14.176,150.643,14.041,150.273,13.771,149.992z"/>
	<path d="M7.571,140.395c0.57-0.621,1.381-0.932,2.43-0.932v5.581c1.356-0.059,2.345-0.366,2.964-0.923
		c0.62-0.557,0.93-1.216,0.93-1.978c0-0.615-0.161-1.134-0.482-1.556s-0.777-0.812-1.368-1.169l0.105-0.308
		c0.745,0.24,1.435,0.689,2.068,1.35c0.635,0.658,0.951,1.466,0.951,2.421c0,1.102-0.416,1.953-1.248,2.554s-1.79,0.9-2.874,0.9
		c-1.178,0-2.194-0.349-3.05-1.046s-1.283-1.605-1.283-2.725C6.714,141.739,6.999,141.016,7.571,140.395z M8.243,144.604
		c0.316,0.188,0.715,0.322,1.195,0.404V141.3c-0.586,0.064-1.022,0.176-1.31,0.334c-0.516,0.287-0.773,0.768-0.773,1.441
		C7.355,143.743,7.651,144.253,8.243,144.604z"/>
</g>
<g>
	<rect x="18.794" y="282.337" fill="none" width="33.333" height="16.667"/>
	<path d="M27.012,288.303h3.459v0.875h-3.459V288.303z"/>
	<path d="M38.8,282.557c0.002,0.012,0.003,0.038,0.003,0.079v8.23c0,0.351,0.094,0.574,0.282,0.67
		c0.188,0.096,0.538,0.152,1.051,0.171v0.191h-3.862v-0.205c0.551-0.027,0.912-0.103,1.08-0.226s0.253-0.39,0.253-0.8v-6.33
		c0-0.219-0.027-0.385-0.082-0.499s-0.173-0.171-0.355-0.171c-0.119,0-0.272,0.033-0.461,0.1c-0.189,0.065-0.366,0.135-0.53,0.208
		v-0.191l2.509-1.278h0.082C38.788,282.528,38.798,282.546,38.8,282.557z"/>
	<path d="M43.356,291.834c-0.15-0.153-0.226-0.337-0.226-0.551s0.076-0.396,0.229-0.547s0.336-0.226,0.55-0.226
		s0.396,0.075,0.547,0.226s0.226,0.333,0.226,0.547s-0.074,0.397-0.222,0.551c-0.148,0.152-0.332,0.229-0.55,0.229
		S43.507,291.986,43.356,291.834z"/>
	<path d="M50.896,284.14c0.46,0.889,0.69,1.909,0.69,3.062c0,0.907-0.141,1.762-0.424,2.563c-0.533,1.509-1.456,2.263-2.769,2.263
		c-0.898,0-1.636-0.408-2.215-1.224c-0.62-0.87-0.93-2.053-0.93-3.548c0-1.176,0.208-2.188,0.622-3.035
		c0.561-1.153,1.422-1.729,2.584-1.729C49.504,282.492,50.318,283.041,50.896,284.14z M49.857,290.539
		c0.25-0.733,0.376-1.794,0.376-3.184c0-1.106-0.075-1.989-0.226-2.649c-0.283-1.229-0.811-1.845-1.586-1.845
		s-1.306,0.633-1.593,1.898c-0.15,0.675-0.226,1.562-0.226,2.664c0,1.034,0.078,1.86,0.232,2.479
		c0.292,1.157,0.838,1.735,1.641,1.735C49.146,291.639,49.607,291.272,49.857,290.539z"/>
</g>
<g>
	<rect x="5.662" y="61.704" fill="none" width="46.465" height="19.534"/>
	<path d="M26.704,64.197h0.957v3.056h3.056v0.957h-3.056v3.056h-0.957V68.21h-3.056v-0.957h3.056V64.197z"/>
	<path d="M38.8,61.924c0.002,0.012,0.003,0.038,0.003,0.079v8.23c0,0.351,0.094,0.574,0.282,0.67
		c0.188,0.096,0.538,0.152,1.051,0.171v0.191h-3.862v-0.205c0.551-0.027,0.912-0.103,1.08-0.226s0.253-0.39,0.253-0.8v-6.33
		c0-0.219-0.027-0.385-0.082-0.499s-0.173-0.171-0.355-0.171c-0.119,0-0.272,0.033-0.461,0.1c-0.189,0.065-0.366,0.135-0.53,0.208
		v-0.191l2.509-1.278h0.082C38.788,61.896,38.798,61.913,38.8,61.924z"/>
	<path d="M43.356,71.201c-0.15-0.153-0.226-0.337-0.226-0.551s0.076-0.396,0.229-0.547s0.336-0.226,0.55-0.226
		s0.396,0.075,0.547,0.226s0.226,0.333,0.226,0.547s-0.074,0.397-0.222,0.551c-0.148,0.152-0.332,0.229-0.55,0.229
		S43.507,71.354,43.356,71.201z"/>
	<path d="M50.896,63.507c0.46,0.889,0.69,1.909,0.69,3.062c0,0.907-0.141,1.762-0.424,2.563c-0.533,1.509-1.456,2.263-2.769,2.263
		c-0.898,0-1.636-0.408-2.215-1.224c-0.62-0.87-0.93-2.053-0.93-3.548c0-1.176,0.208-2.188,0.622-3.035
		c0.561-1.153,1.422-1.729,2.584-1.729C49.504,61.859,50.318,62.408,50.896,63.507z M49.857,69.906
		c0.25-0.733,0.376-1.794,0.376-3.184c0-1.106-0.075-1.989-0.226-2.649c-0.283-1.229-0.811-1.845-1.586-1.845
		s-1.306,0.633-1.593,1.898c-0.15,0.675-0.226,1.562-0.226,2.664c0,1.034,0.078,1.86,0.232,2.479
		c0.292,1.157,0.838,1.735,1.641,1.735C49.146,71.006,49.607,70.64,49.857,69.906z"/>
</g>
<g>
	<rect x="11.33" y="114.938" fill="none" width="40.797" height="16.667"/>
	<path d="M26.704,117.431h0.957v3.056h3.056v0.957h-3.056v3.056h-0.957v-3.056h-3.056v-0.957h3.056V117.431z"/>
	<path d="M40.396,116.74c0.46,0.889,0.69,1.909,0.69,3.062c0,0.907-0.141,1.762-0.424,2.563c-0.533,1.509-1.456,2.263-2.769,2.263
		c-0.898,0-1.636-0.408-2.215-1.224c-0.62-0.87-0.93-2.053-0.93-3.548c0-1.176,0.208-2.188,0.622-3.035
		c0.561-1.153,1.422-1.729,2.584-1.729C39.004,115.093,39.818,115.642,40.396,116.74z M39.357,123.14
		c0.25-0.733,0.376-1.794,0.376-3.184c0-1.106-0.075-1.989-0.226-2.649c-0.283-1.229-0.811-1.845-1.586-1.845
		s-1.306,0.633-1.593,1.898c-0.15,0.675-0.226,1.562-0.226,2.664c0,1.034,0.078,1.86,0.232,2.479
		c0.292,1.157,0.838,1.735,1.641,1.735C38.646,124.239,39.107,123.873,39.357,123.14z"/>
	<path d="M43.356,124.435c-0.15-0.153-0.226-0.337-0.226-0.551s0.076-0.396,0.229-0.547s0.336-0.226,0.55-0.226
		s0.396,0.075,0.547,0.226s0.226,0.333,0.226,0.547s-0.074,0.397-0.222,0.551c-0.148,0.152-0.332,0.229-0.55,0.229
		S43.507,124.587,43.356,124.435z"/>
	<path d="M47.197,123.688c0.422,0.295,0.748,0.441,0.976,0.441c0.525,0,0.983-0.231,1.376-0.693
		c0.393-0.463,0.589-1.031,0.589-1.706c0-1.181-0.63-2.03-1.889-2.55c-0.698-0.287-1.349-0.431-1.951-0.431
		c-0.101,0-0.163-0.003-0.188-0.011c-0.025-0.006-0.056-0.03-0.092-0.071c0.009-0.036,0.017-0.067,0.024-0.092
		c0.007-0.025,0.015-0.049,0.024-0.072l1.491-3.268h2.931c0.146,0,0.258-0.025,0.338-0.075s0.184-0.144,0.311-0.28l0.109,0.096
		l-0.527,1.265c-0.018,0.041-0.068,0.067-0.15,0.078c-0.083,0.012-0.171,0.018-0.267,0.018h-2.649l-0.582,1.196
		c0.748,0.128,1.295,0.248,1.642,0.362c0.57,0.191,1.047,0.474,1.431,0.848c0.328,0.323,0.577,0.688,0.746,1.09
		c0.169,0.404,0.253,0.831,0.253,1.282c0,1.007-0.359,1.848-1.078,2.522s-1.628,1.012-2.728,1.012c-0.447,0-0.808-0.043-1.081-0.13
		c-0.457-0.142-0.685-0.395-0.685-0.759c0-0.137,0.049-0.256,0.147-0.359c0.098-0.102,0.25-0.153,0.456-0.153
		C46.434,123.248,46.775,123.396,47.197,123.688z"/>
</g>
<g>
	<rect x="18.794" y="227.537" fill="none" width="33.333" height="16.667"/>
	<path d="M27.012,233.503h3.459v0.875h-3.459V233.503z"/>
	<path d="M40.396,229.34c0.46,0.889,0.69,1.909,0.69,3.062c0,0.907-0.141,1.762-0.424,2.563c-0.533,1.509-1.456,2.263-2.769,2.263
		c-0.898,0-1.636-0.408-2.215-1.224c-0.62-0.87-0.93-2.053-0.93-3.548c0-1.176,0.208-2.188,0.622-3.035
		c0.561-1.153,1.422-1.729,2.584-1.729C39.004,227.692,39.818,228.241,40.396,229.34z M39.357,235.739
		c0.25-0.733,0.376-1.794,0.376-3.184c0-1.106-0.075-1.989-0.226-2.649c-0.283-1.229-0.811-1.845-1.586-1.845
		s-1.306,0.633-1.593,1.898c-0.15,0.675-0.226,1.562-0.226,2.664c0,1.034,0.078,1.86,0.232,2.479
		c0.292,1.157,0.838,1.735,1.641,1.735C38.646,236.839,39.107,236.473,39.357,235.739z"/>
	<path d="M43.356,237.034c-0.15-0.153-0.226-0.337-0.226-0.551s0.076-0.396,0.229-0.547s0.336-0.226,0.55-0.226
		s0.396,0.075,0.547,0.226s0.226,0.333,0.226,0.547s-0.074,0.397-0.222,0.551c-0.148,0.152-0.332,0.229-0.55,0.229
		S43.507,237.187,43.356,237.034z"/>
	<path d="M47.197,236.288c0.422,0.295,0.748,0.441,0.976,0.441c0.525,0,0.983-0.231,1.376-0.693
		c0.393-0.463,0.589-1.031,0.589-1.706c0-1.181-0.63-2.03-1.889-2.55c-0.698-0.287-1.349-0.431-1.951-0.431
		c-0.101,0-0.163-0.003-0.188-0.011c-0.025-0.006-0.056-0.03-0.092-0.071c0.009-0.036,0.017-0.067,0.024-0.092
		c0.007-0.025,0.015-0.049,0.024-0.072l1.491-3.268h2.931c0.146,0,0.258-0.025,0.338-0.075s0.184-0.144,0.311-0.28l0.109,0.096
		l-0.527,1.265c-0.018,0.041-0.068,0.067-0.15,0.078c-0.083,0.012-0.171,0.018-0.267,0.018h-2.649l-0.582,1.196
		c0.748,0.128,1.295,0.248,1.642,0.362c0.57,0.191,1.047,0.474,1.431,0.848c0.328,0.323,0.577,0.688,0.746,1.09
		c0.169,0.404,0.253,0.831,0.253,1.282c0,1.007-0.359,1.848-1.078,2.522s-1.628,1.012-2.728,1.012c-0.447,0-0.808-0.043-1.081-0.13
		c-0.457-0.142-0.685-0.395-0.685-0.759c0-0.137,0.049-0.256,0.147-0.359c0.098-0.102,0.25-0.153,0.456-0.153
		C46.434,235.848,46.775,235.995,47.197,236.288z"/>
</g>
<g>
	<rect x="18.794" y="173.393" fill="none" width="33.333" height="16.667"/>
	<path d="M27.012,179.358h3.459v0.875h-3.459V179.358z"/>
	<path d="M40.396,175.195c0.46,0.889,0.69,1.909,0.69,3.062c0,0.907-0.141,1.762-0.424,2.563c-0.533,1.509-1.456,2.263-2.769,2.263
		c-0.898,0-1.636-0.408-2.215-1.224c-0.62-0.87-0.93-2.053-0.93-3.548c0-1.176,0.208-2.188,0.622-3.035
		c0.561-1.153,1.422-1.729,2.584-1.729C39.004,173.548,39.818,174.097,40.396,175.195z M39.357,181.595
		c0.25-0.733,0.376-1.794,0.376-3.184c0-1.106-0.075-1.989-0.226-2.649c-0.283-1.229-0.811-1.845-1.586-1.845
		s-1.306,0.633-1.593,1.898c-0.15,0.675-0.226,1.562-0.226,2.664c0,1.034,0.078,1.86,0.232,2.479
		c0.292,1.157,0.838,1.735,1.641,1.735C38.646,182.694,39.107,182.328,39.357,181.595z"/>
	<path d="M43.356,182.89c-0.15-0.153-0.226-0.337-0.226-0.551s0.076-0.396,0.229-0.547s0.336-0.226,0.55-0.226
		s0.396,0.075,0.547,0.226s0.226,0.333,0.226,0.547s-0.074,0.397-0.222,0.551c-0.148,0.152-0.332,0.229-0.55,0.229
		S43.507,183.042,43.356,182.89z"/>
	<path d="M47.197,182.144c0.422,0.295,0.748,0.441,0.976,0.441c0.525,0,0.983-0.231,1.376-0.693
		c0.393-0.463,0.589-1.031,0.589-1.706c0-1.181-0.63-2.03-1.889-2.55c-0.698-0.287-1.349-0.431-1.951-0.431
		c-0.101,0-0.163-0.003-0.188-0.011c-0.025-0.006-0.056-0.03-0.092-0.071c0.009-0.036,0.017-0.067,0.024-0.092
		c0.007-0.025,0.015-0.049,0.024-0.072l1.491-3.268h2.931c0.146,0,0.258-0.025,0.338-0.075s0.184-0.144,0.311-0.28l0.109,0.096
		l-0.527,1.265c-0.018,0.041-0.068,0.067-0.15,0.078c-0.083,0.012-0.171,0.018-0.267,0.018h-2.649l-0.582,1.196
		c0.748,0.128,1.295,0.248,1.642,0.362c0.57,0.191,1.047,0.474,1.431,0.848c0.328,0.323,0.577,0.688,0.746,1.09
		c0.169,0.404,0.253,0.831,0.253,1.282c0,1.007-0.359,1.848-1.078,2.522s-1.628,1.012-2.728,1.012c-0.447,0-0.808-0.043-1.081-0.13
		c-0.457-0.142-0.685-0.395-0.685-0.759c0-0.137,0.049-0.256,0.147-0.359c0.098-0.102,0.25-0.153,0.456-0.153
		C46.434,181.703,46.775,181.851,47.197,182.144z"/>
</g>
<line fill="none" stroke="#000000" stroke-width="0.9707" stroke-miterlimit="10" x1="56.127" y1="179.071" x2="364.25" y2="179.071"/>
<line fill="none" stroke="#FF0000" stroke-miterlimit="10" x1="200.004" y1="179.071" x2="200.004" y2="35.338"/>
<line fill="none" stroke="#FF0000" stroke-miterlimit="10" x1="247.497" y1="179.071" x2="247.497" y2="35.338"/>
<g>
	<g>
		<line fill="none" stroke="#FF0000" stroke-miterlimit="10" x1="207.765" y1="49.338" x2="239.289" y2="49.338"/>
		<g>
			<path fill="#FF0000" d="M209.56,49.338l2.191-3.603l-0.123-0.082l-5.875,2.334c-2.047,0.45-4.094,0.9-6.141,1.351
				c2.047,0.451,4.094,0.9,6.141,1.352l5.875,2.333l0.123-0.061L209.56,49.338z"/>
		</g>
		<g>
			<path fill="#FF0000" d="M237.494,49.338l-2.191-3.603l0.123-0.082l5.875,2.334c2.047,0.45,4.094,0.9,6.141,1.351
				c-2.047,0.451-4.094,0.9-6.141,1.352l-5.875,2.333l-0.123-0.061L237.494,49.338z"/>
		</g>
	</g>
</g>
<g>
	<defs>
		<rect id="SVGID_3_" x="210.277" y="26.004" width="26.5" height="12.9"/>
	</defs>
	<clipPath id="SVGID_4_">
		<use xlink:href="#SVGID_3_"  overflow="visible"/>
	</clipPath>
	<g clip-path="url(#SVGID_4_)">
		<path fill="#FF0000" d="M219.46,35.944c-1.219,0-2.151-0.825-3.066-1.649c-0.878-0.771-1.739-1.542-2.869-1.542
			c-1.094,0-2.438,0.789-2.51,2.761c0,0.054-0.054,0.413-0.251,0.413c-0.018,0-0.251,0-0.251-0.574c0-1.632,1.058-3.604,3.012-3.604
			c1.219,0,2.152,0.825,3.066,1.649c0.878,0.771,1.739,1.542,2.869,1.542c1.255,0,2.438-0.986,2.511-2.707
			c0.018-0.341,0.16-0.466,0.25-0.466c0.145,0,0.252,0.179,0.252,0.574C222.473,33.972,221.414,35.944,219.46,35.944z"/>
	</g>
	<g clip-path="url(#SVGID_4_)">
		<path fill="#FF0000" d="M232.597,38.723c-2.008,0-3.245-1.739-3.245-3.281c0-0.825,0.627-0.95,0.879-0.95
			c0.592,0,0.896,0.448,0.896,0.878c0,0.431-0.305,0.879-0.896,0.879c-0.197,0-0.252-0.018-0.305-0.036
			c0.305,1.058,1.326,2.008,2.635,2.008c0.825,0,1.488-0.466,1.919-1.166c0.43-0.753,0.43-1.829,0.43-2.457
			c0-0.896-0.035-1.595-0.322-2.259c-0.144-0.323-0.592-1.147-1.524-1.147c-1.452,0-2.115,0.968-2.312,1.255
			c-0.072,0.108-0.107,0.162-0.232,0.162c-0.252,0-0.252-0.144-0.252-0.466v-5.307c0-0.287,0-0.43,0.18-0.43
			c0.035,0,0.072,0,0.215,0.054c0.843,0.376,1.668,0.502,2.385,0.502c1.201,0,2.08-0.358,2.438-0.52
			c0.09-0.054,0.125-0.054,0.144-0.054c0.125,0,0.179,0.09,0.179,0.197c0,0.233-1.255,1.865-3.46,1.865
			c-0.574,0-1.166-0.125-1.523-0.233v3.496c0.645-0.627,1.416-0.915,2.276-0.915c1.937,0,3.406,1.793,3.406,3.927
			C236.505,37.002,234.677,38.723,232.597,38.723z"/>
	</g>
</g>
<line fill="none" stroke="#28B245" stroke-width="1.7718" stroke-miterlimit="10" x1="206.362" y1="314.005" x2="206.362" y2="59.338"/>
<g>
	<g>
		<path fill="#008000" d="M187.217,319.097h9.047l0.086,2.719h-0.383c-0.188-0.854-0.426-1.41-0.715-1.668s-0.897-0.387-1.824-0.387
			h-0.891v8.188c0,0.616,0.096,0.998,0.289,1.146c0.192,0.147,0.614,0.244,1.266,0.291v0.297h-4.664v-0.297
			c0.677-0.052,1.099-0.163,1.266-0.334c0.167-0.172,0.25-0.602,0.25-1.291v-8h-0.898c-0.886,0-1.488,0.128-1.809,0.383
			s-0.562,0.812-0.723,1.672h-0.391L187.217,319.097z"/>
		<path fill="#008000" d="M196.749,329.425c0.479-0.042,0.797-0.126,0.953-0.254s0.234-0.399,0.234-0.816v-3.523
			c0-0.516-0.048-0.884-0.145-1.105c-0.097-0.222-0.272-0.332-0.527-0.332c-0.052,0-0.121,0.007-0.207,0.02s-0.176,0.03-0.27,0.051
			v-0.258c0.296-0.104,0.6-0.211,0.911-0.32s0.527-0.188,0.646-0.234c0.259-0.099,0.527-0.211,0.802-0.336
			c0.037,0,0.059,0.013,0.066,0.039s0.012,0.081,0.012,0.164v1.281c0.334-0.464,0.657-0.825,0.967-1.086
			c0.311-0.261,0.633-0.391,0.968-0.391c0.266,0,0.483,0.079,0.65,0.238c0.167,0.159,0.251,0.358,0.251,0.598
			c0,0.214-0.064,0.394-0.191,0.539c-0.128,0.146-0.288,0.219-0.48,0.219c-0.198,0-0.397-0.091-0.598-0.273
			c-0.201-0.183-0.358-0.273-0.473-0.273c-0.183,0-0.406,0.147-0.672,0.441s-0.398,0.598-0.398,0.91v3.523
			c0,0.448,0.104,0.759,0.312,0.934c0.208,0.175,0.555,0.257,1.039,0.246v0.258h-3.852V329.425z"/>
		<path fill="#008000" d="M203.725,326.237c0.479-0.312,1.435-0.737,2.867-1.273V324.3c0-0.531-0.052-0.901-0.156-1.109
			c-0.177-0.349-0.544-0.523-1.102-0.523c-0.266,0-0.519,0.067-0.758,0.203c-0.24,0.141-0.359,0.333-0.359,0.578
			c0,0.062,0.013,0.168,0.039,0.316c0.026,0.148,0.039,0.243,0.039,0.285c0,0.292-0.097,0.495-0.289,0.609
			c-0.109,0.067-0.24,0.102-0.391,0.102c-0.234,0-0.414-0.077-0.539-0.23s-0.188-0.324-0.188-0.512c0-0.364,0.225-0.746,0.676-1.145
			c0.45-0.398,1.11-0.598,1.98-0.598c1.01,0,1.695,0.328,2.055,0.984c0.192,0.359,0.289,0.883,0.289,1.57v3.133
			c0,0.302,0.021,0.511,0.062,0.625c0.067,0.203,0.208,0.305,0.422,0.305c0.12,0,0.219-0.019,0.297-0.055s0.213-0.125,0.406-0.266
			v0.406c-0.167,0.203-0.347,0.37-0.539,0.5c-0.292,0.198-0.589,0.297-0.891,0.297c-0.354,0-0.611-0.114-0.77-0.344
			c-0.159-0.229-0.246-0.503-0.262-0.82c-0.396,0.344-0.734,0.599-1.016,0.766c-0.474,0.281-0.925,0.422-1.352,0.422
			c-0.448,0-0.836-0.157-1.164-0.473s-0.492-0.715-0.492-1.199C202.592,327.373,202.97,326.742,203.725,326.237z M206.592,325.354
			c-0.599,0.198-1.094,0.417-1.484,0.656c-0.75,0.464-1.125,0.989-1.125,1.578c0,0.474,0.156,0.823,0.469,1.047
			c0.203,0.146,0.43,0.219,0.68,0.219c0.344,0,0.673-0.097,0.988-0.289c0.315-0.192,0.473-0.438,0.473-0.734V325.354z"/>
		<path fill="#008000" d="M209.397,329.464c0.37-0.047,0.629-0.14,0.777-0.277s0.223-0.446,0.223-0.926v-3.969
			c0-0.33-0.031-0.563-0.094-0.697c-0.099-0.196-0.302-0.295-0.609-0.295c-0.047,0-0.095,0.003-0.145,0.008
			c-0.05,0.005-0.111,0.013-0.184,0.023v-0.273c0.213-0.062,0.719-0.224,1.516-0.484l0.734-0.242c0.036,0,0.059,0.013,0.066,0.039
			s0.012,0.062,0.012,0.109v1.148c0.479-0.448,0.853-0.755,1.123-0.922c0.405-0.255,0.826-0.383,1.263-0.383
			c0.354,0,0.676,0.102,0.967,0.305c0.562,0.396,0.842,1.102,0.842,2.117v3.648c0,0.375,0.075,0.646,0.225,0.812
			s0.4,0.253,0.752,0.258v0.219h-3.336v-0.219c0.38-0.052,0.646-0.157,0.797-0.316c0.151-0.159,0.227-0.504,0.227-1.035v-3.336
			c0-0.448-0.083-0.819-0.249-1.113c-0.166-0.294-0.471-0.441-0.917-0.441c-0.306,0-0.617,0.104-0.933,0.312
			c-0.176,0.12-0.404,0.317-0.684,0.594v4.375c0,0.375,0.083,0.626,0.25,0.754c0.167,0.128,0.43,0.196,0.789,0.207v0.219h-3.414
			V329.464z"/>
		<path fill="#008000" d="M217.944,327.222h0.258c0.12,0.594,0.281,1.05,0.483,1.367c0.363,0.583,0.896,0.875,1.598,0.875
			c0.389,0,0.697-0.108,0.924-0.324c0.225-0.216,0.338-0.496,0.338-0.84c0-0.219-0.064-0.43-0.195-0.633
			c-0.13-0.203-0.359-0.401-0.688-0.594l-0.874-0.5c-0.641-0.344-1.112-0.69-1.415-1.039c-0.302-0.349-0.453-0.761-0.453-1.234
			c0-0.583,0.208-1.062,0.625-1.438c0.417-0.375,0.94-0.562,1.57-0.562c0.276,0,0.58,0.052,0.91,0.156
			c0.331,0.104,0.518,0.156,0.559,0.156c0.094,0,0.162-0.013,0.203-0.039c0.042-0.026,0.078-0.067,0.109-0.125h0.188l0.055,2.18
			h-0.242c-0.104-0.505-0.244-0.898-0.422-1.18c-0.322-0.521-0.789-0.781-1.398-0.781c-0.364,0-0.65,0.112-0.859,0.336
			c-0.208,0.224-0.312,0.487-0.312,0.789c0,0.479,0.359,0.906,1.078,1.281l1.031,0.555c1.109,0.604,1.664,1.308,1.664,2.109
			c0,0.614-0.229,1.117-0.689,1.508c-0.461,0.391-1.062,0.586-1.806,0.586c-0.312,0-0.665-0.052-1.061-0.156
			c-0.395-0.104-0.629-0.156-0.702-0.156c-0.062,0-0.117,0.022-0.164,0.066c-0.047,0.044-0.083,0.098-0.109,0.16h-0.203V327.222z"/>
		<path fill="#008000" d="M223.646,329.464c0.558-0.052,0.909-0.147,1.055-0.285c0.146-0.138,0.219-0.512,0.219-1.121v-3.727
			c0-0.339-0.023-0.573-0.07-0.703c-0.078-0.214-0.242-0.32-0.492-0.32c-0.057,0-0.113,0.005-0.168,0.016s-0.212,0.052-0.473,0.125
			v-0.242l0.336-0.109c0.912-0.297,1.547-0.521,1.906-0.672c0.146-0.062,0.24-0.094,0.281-0.094
			c0.011,0.036,0.016,0.075,0.016,0.117v5.609c0,0.594,0.072,0.966,0.215,1.117c0.144,0.151,0.468,0.247,0.973,0.289v0.219h-3.797
			V329.464z M224.889,319.018c0.156-0.161,0.35-0.241,0.578-0.241c0.225,0,0.416,0.079,0.574,0.237
			c0.159,0.158,0.238,0.351,0.238,0.579c0,0.223-0.079,0.413-0.238,0.571c-0.158,0.158-0.35,0.237-0.574,0.237
			c-0.229,0-0.422-0.079-0.578-0.237s-0.234-0.349-0.234-0.571S224.732,319.178,224.889,319.018z"/>
		<path fill="#008000" d="M231.85,322.479v0.562h-1.594l-0.016,4.5c0,0.396,0.034,0.695,0.102,0.898
			c0.125,0.359,0.37,0.539,0.734,0.539c0.188,0,0.351-0.044,0.488-0.133c0.139-0.089,0.296-0.229,0.473-0.422l0.203,0.172
			l-0.172,0.234c-0.271,0.364-0.557,0.622-0.859,0.773c-0.302,0.151-0.594,0.227-0.875,0.227c-0.614,0-1.031-0.273-1.25-0.82
			c-0.119-0.297-0.18-0.708-0.18-1.234v-4.734h-0.852c-0.025-0.016-0.045-0.031-0.059-0.047c-0.013-0.016-0.02-0.036-0.02-0.062
			c0-0.052,0.012-0.093,0.035-0.121s0.098-0.095,0.223-0.199c0.359-0.297,0.619-0.538,0.777-0.723
			c0.159-0.185,0.533-0.673,1.121-1.465c0.068,0,0.108,0.005,0.121,0.016c0.014,0.011,0.02,0.05,0.02,0.117v1.922H231.85z"/>
	</g>
</g>
<g>
	<defs>
		<rect id="SVGID_5_" x="180.261" y="335.671" width="55.155" height="15.168"/>
	</defs>
	<clipPath id="SVGID_6_">
		<use xlink:href="#SVGID_5_"  overflow="visible"/>
	</clipPath>
	<g clip-path="url(#SVGID_6_)">
		<path fill="#008000" d="M192.481,348.817c-0.021,0.123-0.062,0.227-0.062,0.35c0,0.371,0.577,0.371,1.339,0.371
			c0.392,0,0.577,0,0.577,0.227c0,0.412-0.248,0.412-0.412,0.412c-0.433,0-0.886-0.041-1.339-0.041
			c-0.433,0-0.886-0.021-1.318-0.021c-0.577,0-2.04,0.062-2.616,0.062c-0.041,0-0.289,0-0.289-0.227
			c0-0.412,0.186-0.412,0.495-0.412c1.277,0,1.668-0.021,1.875-0.68c0.083-0.309,0.556-2.266,1.421-5.686h-6.283l-1.401,5.645
			c-0.021,0.123-0.062,0.227-0.062,0.35c0,0.371,0.577,0.371,1.339,0.371c0.392,0,0.577,0,0.577,0.227
			c0,0.412-0.248,0.412-0.412,0.412c-0.433,0-0.886-0.041-1.339-0.041c-0.433,0-0.886-0.021-1.318-0.021
			c-0.577,0-2.04,0.062-2.616,0.062c-0.041,0-0.289,0-0.289-0.227c0-0.412,0.186-0.412,0.556-0.412c1.627,0,1.669-0.165,1.875-0.968
			l2.761-11.062c0.062-0.247,0.082-0.309,0.082-0.391c0-0.269-0.185-0.289-0.556-0.33c-0.35-0.041-0.742-0.041-0.783-0.041
			c-0.391,0-0.577,0-0.577-0.227c0-0.412,0.227-0.412,0.391-0.412c0.598,0,2.06,0.062,2.658,0.062c0.577,0,2.06-0.062,2.637-0.062
			c0.062,0,0.288,0,0.288,0.227c0,0.412-0.165,0.412-0.7,0.412c-1.483,0-1.545,0.206-1.73,0.947l-1.215,4.841h6.283l1.236-5.026
			c0.062-0.268,0.083-0.309,0.083-0.391c0-0.269-0.185-0.289-0.556-0.33c-0.35-0.041-0.742-0.041-0.783-0.041
			c-0.391,0-0.577,0-0.577-0.227c0-0.412,0.227-0.412,0.391-0.412c0.598,0,2.06,0.062,2.658,0.062c0.577,0,2.06-0.062,2.637-0.062
			c0.062,0,0.288,0,0.288,0.227c0,0.412-0.165,0.412-0.7,0.412c-1.504,0-1.545,0.206-1.73,0.947L192.481,348.817z"/>
	</g>
	<g clip-path="url(#SVGID_6_)">
		<path fill="#008000" d="M205.924,343.44c-0.309,0-0.7,0-0.7-0.412c0-0.411,0.391-0.411,0.68-0.411h12.339
			c0.289,0,0.68,0,0.68,0.411c0,0.412-0.391,0.412-0.7,0.412H205.924z M205.903,347.438c-0.289,0-0.68,0-0.68-0.412
			s0.391-0.412,0.7-0.412h12.298c0.309,0,0.7,0,0.7,0.412s-0.391,0.412-0.68,0.412H205.903z"/>
		<path fill="#008000" d="M234.521,348.24c-0.906,1.957-2.471,2.39-3.584,2.39c-1.009,0-2.513-0.412-3.398-2.08
			c-0.845-1.566-0.928-3.42-0.928-4.965c0-1.648,0.104-3.255,0.763-4.676c0.845-1.916,2.349-2.451,3.585-2.451
			c0.865,0,2.554,0.329,3.502,2.307c0.721,1.524,0.823,3.172,0.823,4.82C235.284,345.212,235.182,346.819,234.521,348.24z
			 M233.348,347.602c0.227-1.318,0.227-2.719,0.227-4.264c0-1.298,0-2.863-0.205-4.017c-0.393-2.04-1.752-2.41-2.432-2.41
			c-0.515,0-2.06,0.185-2.451,2.637c-0.164,1.112-0.164,2.472-0.164,3.79c0,1.215,0,3.11,0.227,4.347
			c0.37,1.978,1.586,2.492,2.389,2.492C231.865,350.177,233.039,349.559,233.348,347.602z"/>
	</g>
</g>
<g>
	<defs>
		<rect id="SVGID_7_" x="168.437" y="356.929" width="96.521" height="15.742"/>
	</defs>
	<clipPath id="SVGID_8_">
		<use xlink:href="#SVGID_7_"  overflow="visible"/>
	</clipPath>
	<g clip-path="url(#SVGID_8_)">
		<path fill="#008000" d="M179.516,367.395l0.268,1.647c0.289,1.916,0.453,2.967,1.463,2.967c0.515,0,1.235-0.371,1.359-1.833
			c0.021-0.145,0.021-0.33,0.247-0.33c0.268,0,0.268,0.227,0.268,0.351c0,0.576-0.35,2.266-1.957,2.266
			c-0.617,0-1.75-0.123-2.595-0.865c-0.845-0.782-0.845-1.606-0.845-2.945c0-1.381,0-2.019-0.783-2.761
			c-0.721-0.7-1.586-0.7-1.915-0.7h-2.369v5.212c0,0.741,0.041,0.968,1.627,0.968h0.494v0.639c-0.741-0.062-2.204-0.062-3.007-0.062
			c-0.804,0-2.267,0-3.008,0.062v-0.639h0.494c1.587,0,1.628-0.227,1.628-0.968v-10.856c0-0.741-0.041-0.968-1.628-0.968h-0.494
			v-0.639h6.468c3.028,0,5.377,1.73,5.377,3.708c0,1.606-1.606,2.863-3.604,3.357C178.136,365.396,179.145,366.076,179.516,367.395z
			 M174.942,364.737c3.049,0,3.543-1.669,3.543-3.09c0-2.987-2.307-3.069-4.161-3.069c-0.412,0-1.009,0-1.215,0.041
			c-0.453,0.062-0.453,0.309-0.453,0.783v5.335H174.942z"/>
		<path fill="#008000" d="M195.855,370.546c0.227,0.68,0.515,0.824,1.751,0.824h0.37v0.639c-0.864-0.041-1.812-0.062-2.698-0.062
			c-0.782,0-2.225,0-2.966,0.062v-0.639c0.556,0,1.709,0,1.709-0.618c0-0.082-0.041-0.206-0.062-0.288l-1.092-3.151h-5.088
			l-0.947,2.698c-0.021,0.041-0.041,0.247-0.041,0.309c0,0.536,0.515,1.051,1.545,1.051v0.639c-0.659-0.021-1.73-0.062-2.369-0.062
			c-0.742,0-1.628,0.041-2.102,0.062v-0.639c1.112-0.021,1.937-0.329,2.308-1.38l4.264-12.318c0.104-0.289,0.165-0.412,0.494-0.412
			c0.33,0,0.371,0.145,0.475,0.412L195.855,370.546z M188.007,366.674h4.635l-2.327-6.695L188.007,366.674z"/>
		<path fill="#008000" d="M206.224,365.272c-0.31,0-0.7,0-0.7-0.412c0-0.411,0.391-0.411,0.68-0.411h12.339
			c0.288,0,0.68,0,0.68,0.411c0,0.412-0.392,0.412-0.7,0.412H206.224z M206.203,369.27c-0.289,0-0.68,0-0.68-0.412
			s0.391-0.412,0.7-0.412h12.298c0.309,0,0.7,0,0.7,0.412s-0.392,0.412-0.68,0.412H206.203z"/>
		<path fill="#008000" d="M237.521,372.009h-10.732v-0.639h0.495c1.586,0,1.627-0.227,1.627-0.968v-10.856
			c0-0.741-0.041-0.968-1.627-0.968h-0.495v-0.639c0.722,0.062,2.328,0.062,3.132,0.062c0.844,0,2.719,0,3.46-0.062v0.639h-0.68
			c-1.957,0-1.957,0.288-1.957,0.988v10.979c0,0.68,0.042,0.824,1.01,0.824h1.689c3.625,0,3.913-2.575,4.14-4.676h0.516
			L237.521,372.009z"/>
		<path fill="#008000" d="M249.267,368.178c0,2.266-1.648,4.284-4.059,4.284c-1.833,0-3.151-0.741-3.79-1.441
			c-0.68,1.091-0.742,1.153-0.742,1.174c-0.144,0.227-0.164,0.268-0.309,0.268c-0.227,0-0.227-0.145-0.227-0.494v-4.12
			c0-0.371,0-0.515,0.268-0.515c0.062,0,0.227,0,0.247,0.206c0.021,0.741,0.083,2.06,1.277,3.172
			c1.092,1.01,2.657,1.112,3.255,1.112c1.73,0,2.761-1.483,2.761-2.945c0-0.68-0.206-1.359-0.639-1.896
			c-0.577-0.762-1.195-0.906-1.751-1.051c-1.442-0.35-2.493-0.597-2.72-0.68c-1.606-0.556-2.698-2.06-2.698-3.77
			c0-2.184,1.73-3.996,4.017-3.996c1.834,0,2.678,0.845,3.296,1.441l0.722-1.174c0.144-0.247,0.164-0.268,0.309-0.268
			c0.227,0,0.227,0.145,0.227,0.494v4.141c0,0.392,0,0.494-0.268,0.494c-0.227,0-0.227-0.123-0.247-0.247
			c-0.124-0.927-0.577-4.305-4.018-4.305c-1.606,0-2.719,1.256-2.719,2.698c0,1.194,0.804,2.307,2.08,2.616l2.637,0.639
			C247.906,364.429,249.267,366.117,249.267,368.178z"/>
		<path fill="#008000" d="M264.534,362.698h-0.516c-0.288-3.316-0.597-3.997-3.707-3.997c-0.392,0-0.948,0-1.175,0.042
			c-0.371,0.082-0.371,0.37-0.371,0.782v10.856c0,0.7,0,0.988,2.163,0.988h0.824v0.639c-0.845-0.062-2.966-0.062-3.914-0.062
			c-0.947,0-3.049,0-3.894,0.062v-0.639h0.824c2.163,0,2.163-0.288,2.163-0.988v-10.856c0-0.474,0-0.7-0.433-0.782
			c-0.206-0.042-0.741-0.042-1.112-0.042c-3.11,0-3.42,0.681-3.708,3.997h-0.515l0.391-4.635h12.587L264.534,362.698z"/>
	</g>
</g>
<g>
	<defs>
		<rect id="SVGID_9_" x="213.207" y="2.673" width="20.641" height="15.333"/>
	</defs>
	<clipPath id="SVGID_10_">
		<use xlink:href="#SVGID_9_"  overflow="visible"/>
	</clipPath>
	<g clip-path="url(#SVGID_10_)">
		<path fill="#FF0000" d="M218.048,16.127c0,0.783,0.063,1.016,1.967,1.016h0.676v0.655c-0.74-0.063-2.58-0.063-3.426-0.063
			c-0.846,0-2.686,0-3.426,0.063v-0.655h0.677c1.903,0,1.967-0.254,1.967-1.016V5.172c-1.1,0.551-2.348,0.551-2.771,0.551V5.066
			c0.677,0,2.538,0,3.849-1.354c0.486,0,0.486,0.043,0.486,0.55V16.127z"/>
		<path fill="#FF0000" d="M224.732,5.193c0-1.036-0.17-1.185-1.65-1.185V3.354l3.046-0.232v7.402
			c0.359-0.804,1.29-2.073,3.066-2.073c1.227,0,1.925,0.423,2.221,0.782c0.655,0.762,0.655,1.417,0.655,3.236v4.039
			c0.021,0.635,0.55,0.635,1.65,0.635v0.655c-0.72-0.021-1.819-0.063-2.369-0.063c-0.57,0-1.649,0.043-2.39,0.063v-0.655
			c1.417,0,1.649,0,1.649-0.952v-4.928c0-1.205-0.232-2.347-1.564-2.347c-1.354,0-2.855,1.184-2.855,3.384v3.891
			c0,0.952,0.232,0.952,1.649,0.952v0.655c-0.719-0.021-1.819-0.063-2.368-0.063c-0.571,0-1.65,0.043-2.391,0.063v-0.655
			c1.418,0,1.65,0,1.65-0.952V5.193z"/>
	</g>
</g>
<g>
	<g>
		<path fill="#FF0000" d="M258.58,51.074c0.002,0.013,0.003,0.041,0.003,0.084v8.818c0,0.376,0.102,0.615,0.303,0.718
			s0.576,0.164,1.126,0.183v0.205h-4.138v-0.22c0.59-0.029,0.976-0.11,1.156-0.242s0.271-0.417,0.271-0.857v-6.782
			c0-0.234-0.029-0.413-0.088-0.535s-0.186-0.183-0.381-0.183c-0.127,0-0.292,0.036-0.494,0.106
			c-0.203,0.071-0.393,0.145-0.568,0.223v-0.205l2.688-1.37h0.088C258.566,51.044,258.577,51.062,258.58,51.074z"/>
		<path fill="#FF0000" d="M265.651,60.878c0.518-0.024,0.858-0.121,1.021-0.289c0.164-0.169,0.246-0.524,0.246-1.066v-4.702h-1.253
			V54.33h1.253c0-0.771,0.104-1.423,0.315-1.956c0.4-1.021,1.137-1.531,2.208-1.531c0.431,0,0.815,0.085,1.155,0.256
			s0.511,0.4,0.511,0.688c0,0.161-0.059,0.305-0.176,0.432c-0.116,0.127-0.257,0.19-0.422,0.19c-0.142,0-0.263-0.042-0.365-0.128
			c-0.102-0.085-0.223-0.236-0.364-0.451l-0.124-0.19c-0.067-0.103-0.147-0.189-0.24-0.26c-0.092-0.07-0.221-0.106-0.386-0.106
			c-0.37,0-0.62,0.183-0.751,0.549c-0.073,0.195-0.109,0.452-0.109,0.769v1.736h1.824v0.491h-1.824v4.702
			c0,0.552,0.074,0.905,0.224,1.058c0.148,0.154,0.538,0.253,1.168,0.297v0.205h-3.911V60.878z"/>
		<path fill="#FF0000" d="M270.42,60.841c0.448-0.039,0.746-0.118,0.893-0.238s0.221-0.375,0.221-0.766v-3.303
			c0-0.483-0.046-0.829-0.136-1.037c-0.091-0.207-0.256-0.311-0.495-0.311c-0.049,0-0.113,0.006-0.193,0.018
			c-0.081,0.013-0.165,0.028-0.253,0.048v-0.242c0.277-0.098,0.562-0.198,0.854-0.3s0.494-0.176,0.605-0.22
			c0.243-0.093,0.494-0.198,0.752-0.315c0.034,0,0.055,0.012,0.062,0.037c0.007,0.024,0.011,0.076,0.011,0.154v1.201
			c0.313-0.435,0.615-0.774,0.907-1.018c0.291-0.244,0.594-0.366,0.907-0.366c0.249,0,0.452,0.075,0.609,0.224
			c0.156,0.149,0.235,0.335,0.235,0.56c0,0.2-0.061,0.369-0.18,0.505c-0.12,0.137-0.271,0.205-0.451,0.205
			c-0.186,0-0.372-0.085-0.56-0.256c-0.188-0.171-0.336-0.256-0.443-0.256c-0.171,0-0.381,0.138-0.63,0.414s-0.373,0.56-0.373,0.853
			v3.303c0,0.42,0.097,0.712,0.293,0.875c0.194,0.164,0.52,0.241,0.974,0.231v0.242h-3.61V60.841z"/>
		<path fill="#FF0000" d="M275.642,60.878c0.522-0.049,0.852-0.138,0.988-0.268c0.137-0.129,0.205-0.479,0.205-1.051v-3.494
			c0-0.317-0.021-0.537-0.065-0.659c-0.073-0.2-0.228-0.3-0.462-0.3c-0.054,0-0.105,0.005-0.157,0.015
			c-0.051,0.01-0.199,0.049-0.442,0.117v-0.227l0.314-0.103c0.854-0.278,1.45-0.488,1.787-0.63c0.137-0.059,0.225-0.088,0.264-0.088
			c0.01,0.034,0.015,0.071,0.015,0.11v5.259c0,0.557,0.067,0.906,0.201,1.047c0.135,0.142,0.438,0.232,0.912,0.271v0.205h-3.56
			V60.878z M276.806,51.084c0.146-0.151,0.327-0.226,0.543-0.226c0.209,0,0.389,0.074,0.538,0.222
			c0.148,0.148,0.224,0.33,0.224,0.543c0,0.208-0.075,0.387-0.224,0.536c-0.149,0.148-0.329,0.222-0.538,0.222
			c-0.216,0-0.396-0.074-0.543-0.222c-0.146-0.148-0.219-0.327-0.219-0.536C276.587,51.415,276.659,51.235,276.806,51.084z"/>
		<path fill="#FF0000" d="M279.787,60.878c0.346-0.044,0.589-0.13,0.729-0.26c0.139-0.129,0.209-0.419,0.209-0.868v-3.721
			c0-0.31-0.029-0.528-0.088-0.654c-0.094-0.184-0.284-0.276-0.572-0.276c-0.043,0-0.089,0.002-0.135,0.007
			c-0.047,0.005-0.104,0.012-0.172,0.022v-0.256c0.199-0.059,0.674-0.21,1.42-0.454l0.689-0.227c0.033,0,0.055,0.012,0.062,0.037
			c0.008,0.024,0.011,0.059,0.011,0.103v1.077c0.449-0.42,0.8-0.708,1.054-0.864c0.38-0.239,0.774-0.359,1.184-0.359
			c0.332,0,0.634,0.095,0.907,0.286c0.525,0.371,0.789,1.033,0.789,1.985v3.42c0,0.352,0.07,0.605,0.211,0.762
			s0.375,0.237,0.705,0.242v0.205h-3.128v-0.205c0.356-0.049,0.605-0.147,0.747-0.297c0.142-0.148,0.213-0.472,0.213-0.97v-3.127
			c0-0.42-0.078-0.768-0.233-1.044c-0.155-0.275-0.442-0.414-0.859-0.414c-0.287,0-0.578,0.098-0.874,0.293
			c-0.165,0.112-0.379,0.298-0.641,0.557v4.102c0,0.352,0.077,0.587,0.234,0.707c0.155,0.12,0.402,0.185,0.739,0.194v0.205h-3.2
			V60.878z"/>
		<path fill="#FF0000" d="M288.403,57.838c-0.246-0.376-0.37-0.798-0.37-1.267c0-0.571,0.228-1.113,0.682-1.626
			s1.096-0.769,1.926-0.769c0.356,0,0.75,0.084,1.18,0.252c0.43,0.169,0.842,0.253,1.238,0.253c0.102,0,0.257-0.004,0.465-0.011
			c0.207-0.008,0.357-0.011,0.45-0.011h0.088v0.593h-1.267c0.088,0.205,0.155,0.383,0.205,0.535
			c0.082,0.283,0.124,0.552,0.124,0.806c0,0.557-0.23,1.068-0.692,1.535c-0.461,0.466-1.083,0.699-1.863,0.699
			c-0.123,0-0.343-0.022-0.66-0.066c-0.142,0-0.329,0.12-0.563,0.359s-0.352,0.435-0.352,0.586c0,0.156,0.171,0.271,0.514,0.344
			c0.225,0.049,0.474,0.073,0.748,0.073c1.257,0,2.11,0.071,2.56,0.212c0.738,0.229,1.107,0.723,1.107,1.479
			c0,0.771-0.431,1.387-1.292,1.846c-0.862,0.459-1.732,0.688-2.611,0.688c-0.801,0-1.436-0.163-1.904-0.487
			s-0.703-0.665-0.703-1.021c0-0.176,0.062-0.348,0.186-0.517c0.124-0.168,0.369-0.418,0.733-0.75l0.481-0.432l0.088-0.088
			c-0.223-0.088-0.391-0.173-0.502-0.256c-0.193-0.151-0.29-0.325-0.29-0.52c0-0.181,0.084-0.379,0.252-0.597
			c0.169-0.217,0.528-0.57,1.08-1.059C288.995,58.476,288.65,58.214,288.403,57.838z M289.18,63.288
			c0.462,0.156,0.99,0.234,1.586,0.234c0.811,0,1.47-0.141,1.978-0.421s0.762-0.626,0.762-1.036c0-0.327-0.205-0.544-0.616-0.652
			c-0.255-0.063-0.736-0.1-1.446-0.11c-0.181-0.005-0.372-0.011-0.572-0.019c-0.2-0.007-0.384-0.016-0.551-0.025
			c-0.107-0.005-0.281-0.024-0.521-0.059c-0.24-0.034-0.418-0.063-0.536-0.088c-0.059,0-0.201,0.154-0.428,0.461
			c-0.231,0.312-0.347,0.601-0.347,0.864C288.488,62.848,288.719,63.131,289.18,63.288z M291.506,58.256
			c0.293-0.234,0.439-0.642,0.439-1.223c0-0.464-0.119-0.986-0.355-1.567c-0.237-0.581-0.632-0.872-1.184-0.872
			c-0.479,0-0.808,0.227-0.988,0.681c-0.093,0.239-0.139,0.535-0.139,0.886c0,0.596,0.144,1.13,0.432,1.604s0.661,0.71,1.121,0.71
			C291.1,58.476,291.324,58.402,291.506,58.256z"/>
		<path fill="#FF0000" d="M299.76,54.927c0.518,0.477,0.776,1.151,0.776,2.025h-4.651c0.049,1.13,0.306,1.954,0.77,2.47
			c0.464,0.516,1.013,0.774,1.648,0.774c0.512,0,0.944-0.134,1.296-0.402s0.676-0.648,0.974-1.14l0.257,0.088
			c-0.2,0.621-0.575,1.196-1.124,1.724c-0.55,0.528-1.223,0.792-2.018,0.792c-0.919,0-1.628-0.347-2.128-1.04
			c-0.501-0.693-0.751-1.492-0.751-2.395c0-0.981,0.29-1.829,0.871-2.542s1.338-1.069,2.271-1.069
			C298.639,54.213,299.242,54.451,299.76,54.927z M296.252,55.487c-0.157,0.264-0.27,0.596-0.338,0.996h3.092
			c-0.055-0.488-0.146-0.852-0.279-1.091c-0.239-0.43-0.64-0.645-1.201-0.645C296.969,54.748,296.545,54.994,296.252,55.487z"/>
		<path fill="#FF0000" d="M305.707,58.776h0.242c0.112,0.557,0.263,0.984,0.453,1.282c0.341,0.547,0.84,0.82,1.498,0.82
			c0.365,0,0.653-0.101,0.865-0.304s0.318-0.465,0.318-0.788c0-0.205-0.062-0.403-0.184-0.593s-0.336-0.376-0.644-0.557l-0.82-0.469
			c-0.601-0.322-1.043-0.647-1.326-0.974s-0.425-0.713-0.425-1.157c0-0.547,0.195-0.996,0.586-1.348s0.881-0.527,1.473-0.527
			c0.258,0,0.543,0.049,0.853,0.146c0.311,0.098,0.484,0.146,0.524,0.146c0.088,0,0.15-0.012,0.189-0.037s0.074-0.063,0.104-0.117
			h0.176l0.051,2.043h-0.227c-0.099-0.474-0.23-0.842-0.396-1.106c-0.303-0.488-0.739-0.732-1.311-0.732
			c-0.342,0-0.61,0.105-0.806,0.315s-0.293,0.457-0.293,0.74c0,0.449,0.337,0.85,1.011,1.201l0.967,0.52
			c1.04,0.566,1.561,1.226,1.561,1.978c0,0.576-0.216,1.047-0.647,1.414s-0.996,0.549-1.692,0.549c-0.293,0-0.624-0.049-0.995-0.146
			c-0.37-0.098-0.59-0.146-0.657-0.146c-0.059,0-0.11,0.021-0.154,0.062c-0.044,0.042-0.078,0.092-0.102,0.15h-0.191V58.776z"/>
		<path fill="#FF0000" d="M310.835,64.108c0.456-0.029,0.745-0.127,0.869-0.293s0.186-0.427,0.186-0.784V56
			c0-0.371-0.045-0.609-0.136-0.714c-0.09-0.105-0.26-0.158-0.509-0.158c-0.054,0-0.104,0.002-0.15,0.007
			c-0.046,0.005-0.113,0.015-0.201,0.029v-0.242l0.696-0.227c0.023-0.005,0.515-0.173,1.472-0.505c0.024,0,0.043,0.011,0.055,0.033
			c0.013,0.022,0.019,0.048,0.019,0.077v0.988c0.322-0.322,0.605-0.561,0.85-0.717c0.439-0.273,0.891-0.41,1.355-0.41
			c0.674,0,1.253,0.287,1.739,0.86c0.485,0.573,0.729,1.357,0.729,2.352c0,0.976-0.292,1.861-0.875,2.656
			c-0.584,0.795-1.317,1.192-2.201,1.192c-0.273,0-0.511-0.034-0.71-0.103c-0.313-0.103-0.602-0.291-0.865-0.564v2.402
			c0,0.493,0.081,0.796,0.242,0.908s0.513,0.188,1.055,0.227v0.256h-3.618V64.108z M313.725,60.472
			c0.251,0.164,0.548,0.245,0.89,0.245c0.527,0,0.978-0.262,1.352-0.786c0.373-0.524,0.56-1.254,0.56-2.191
			c0-0.897-0.193-1.568-0.582-2.012c-0.388-0.444-0.838-0.666-1.352-0.666c-0.361,0-0.69,0.111-0.988,0.333
			c-0.298,0.222-0.447,0.44-0.447,0.654v3.68C313.283,60.061,313.473,60.309,313.725,60.472z"/>
		<path fill="#FF0000" d="M319.873,57.853c0.449-0.293,1.345-0.691,2.688-1.194v-0.623c0-0.498-0.049-0.845-0.146-1.04
			c-0.166-0.327-0.51-0.491-1.032-0.491c-0.249,0-0.486,0.063-0.71,0.19c-0.226,0.132-0.338,0.312-0.338,0.542
			c0,0.059,0.013,0.157,0.037,0.297c0.024,0.139,0.037,0.228,0.037,0.267c0,0.273-0.091,0.464-0.271,0.571
			c-0.103,0.063-0.225,0.095-0.366,0.095c-0.22,0-0.388-0.072-0.505-0.216s-0.176-0.304-0.176-0.48c0-0.342,0.211-0.7,0.633-1.073
			c0.423-0.374,1.041-0.561,1.857-0.561c0.946,0,1.589,0.308,1.926,0.923c0.181,0.337,0.271,0.828,0.271,1.472v2.937
			c0,0.283,0.019,0.479,0.059,0.586c0.062,0.19,0.194,0.286,0.395,0.286c0.112,0,0.205-0.017,0.279-0.051
			c0.072-0.034,0.199-0.117,0.381-0.249v0.381c-0.157,0.19-0.325,0.347-0.506,0.469c-0.273,0.186-0.552,0.278-0.835,0.278
			c-0.332,0-0.572-0.107-0.722-0.322c-0.148-0.215-0.23-0.471-0.245-0.769c-0.371,0.322-0.688,0.562-0.952,0.718
			c-0.444,0.264-0.867,0.396-1.268,0.396c-0.42,0-0.783-0.147-1.091-0.443s-0.462-0.67-0.462-1.125
			C318.811,58.917,319.165,58.327,319.873,57.853z M322.561,57.025c-0.562,0.186-1.025,0.391-1.391,0.615
			c-0.703,0.435-1.055,0.928-1.055,1.479c0,0.444,0.146,0.771,0.439,0.981c0.189,0.137,0.402,0.205,0.637,0.205
			c0.322,0,0.631-0.09,0.927-0.271c0.295-0.181,0.442-0.41,0.442-0.688V57.025z"/>
		<path fill="#FF0000" d="M330.227,54.647c0.441,0.314,0.662,0.658,0.662,1.033c0,0.161-0.056,0.311-0.168,0.449
			s-0.285,0.208-0.52,0.208c-0.172,0-0.321-0.059-0.451-0.176c-0.129-0.117-0.223-0.288-0.281-0.513l-0.088-0.352
			c-0.064-0.259-0.174-0.442-0.33-0.549c-0.161-0.103-0.373-0.154-0.637-0.154c-0.557,0-1.027,0.243-1.41,0.73
			c-0.384,0.486-0.575,1.133-0.575,1.939c0,0.738,0.211,1.401,0.634,1.988c0.422,0.586,0.992,0.88,1.71,0.88
			c0.508,0,0.96-0.167,1.354-0.499c0.225-0.191,0.479-0.494,0.762-0.91l0.205,0.125c-0.277,0.586-0.57,1.051-0.879,1.393
			c-0.591,0.655-1.273,0.982-2.051,0.982c-0.762,0-1.436-0.3-2.021-0.901s-0.879-1.416-0.879-2.446c0-1.011,0.32-1.88,0.96-2.607
			s1.447-1.091,2.425-1.091C329.258,54.176,329.784,54.333,330.227,54.647z"/>
		<path fill="#FF0000" d="M331.871,60.878c0.522-0.049,0.852-0.138,0.988-0.268c0.137-0.129,0.205-0.479,0.205-1.051v-3.494
			c0-0.317-0.021-0.537-0.065-0.659c-0.073-0.2-0.228-0.3-0.462-0.3c-0.054,0-0.105,0.005-0.157,0.015
			c-0.051,0.01-0.199,0.049-0.442,0.117v-0.227l0.314-0.103c0.854-0.278,1.45-0.488,1.787-0.63c0.137-0.059,0.225-0.088,0.264-0.088
			c0.01,0.034,0.015,0.071,0.015,0.11v5.259c0,0.557,0.067,0.906,0.201,1.047c0.135,0.142,0.438,0.232,0.912,0.271v0.205h-3.56
			V60.878z M333.035,51.084c0.146-0.151,0.327-0.226,0.543-0.226c0.209,0,0.389,0.074,0.538,0.222
			c0.148,0.148,0.224,0.33,0.224,0.543c0,0.208-0.075,0.387-0.224,0.536c-0.149,0.148-0.329,0.222-0.538,0.222
			c-0.216,0-0.396-0.074-0.543-0.222c-0.146-0.148-0.219-0.327-0.219-0.536C332.816,51.415,332.889,51.235,333.035,51.084z"/>
		<path fill="#FF0000" d="M336.018,60.878c0.346-0.044,0.589-0.13,0.729-0.26c0.139-0.129,0.209-0.419,0.209-0.868v-3.721
			c0-0.31-0.029-0.528-0.088-0.654c-0.094-0.184-0.284-0.276-0.572-0.276c-0.043,0-0.089,0.002-0.135,0.007
			c-0.047,0.005-0.104,0.012-0.172,0.022v-0.256c0.199-0.059,0.674-0.21,1.42-0.454l0.689-0.227c0.033,0,0.055,0.012,0.062,0.037
			c0.008,0.024,0.011,0.059,0.011,0.103v1.077c0.449-0.42,0.8-0.708,1.054-0.864c0.38-0.239,0.774-0.359,1.184-0.359
			c0.332,0,0.634,0.095,0.907,0.286c0.525,0.371,0.789,1.033,0.789,1.985v3.42c0,0.352,0.07,0.605,0.211,0.762
			s0.375,0.237,0.705,0.242v0.205h-3.128v-0.205c0.356-0.049,0.605-0.147,0.747-0.297c0.142-0.148,0.213-0.472,0.213-0.97v-3.127
			c0-0.42-0.078-0.768-0.233-1.044c-0.155-0.275-0.442-0.414-0.859-0.414c-0.287,0-0.578,0.098-0.874,0.293
			c-0.165,0.112-0.379,0.298-0.641,0.557v4.102c0,0.352,0.077,0.587,0.234,0.707c0.155,0.12,0.402,0.185,0.739,0.194v0.205h-3.2
			V60.878z"/>
		<path fill="#FF0000" d="M344.634,57.838c-0.246-0.376-0.37-0.798-0.37-1.267c0-0.571,0.228-1.113,0.682-1.626
			s1.096-0.769,1.926-0.769c0.356,0,0.75,0.084,1.18,0.252c0.43,0.169,0.842,0.253,1.238,0.253c0.102,0,0.257-0.004,0.465-0.011
			c0.207-0.008,0.357-0.011,0.45-0.011h0.088v0.593h-1.267c0.088,0.205,0.155,0.383,0.205,0.535
			c0.082,0.283,0.124,0.552,0.124,0.806c0,0.557-0.23,1.068-0.692,1.535c-0.461,0.466-1.083,0.699-1.863,0.699
			c-0.123,0-0.343-0.022-0.66-0.066c-0.142,0-0.329,0.12-0.563,0.359s-0.352,0.435-0.352,0.586c0,0.156,0.171,0.271,0.514,0.344
			c0.225,0.049,0.474,0.073,0.748,0.073c1.257,0,2.11,0.071,2.56,0.212c0.738,0.229,1.107,0.723,1.107,1.479
			c0,0.771-0.431,1.387-1.292,1.846c-0.862,0.459-1.732,0.688-2.611,0.688c-0.801,0-1.436-0.163-1.904-0.487
			s-0.703-0.665-0.703-1.021c0-0.176,0.062-0.348,0.186-0.517c0.124-0.168,0.369-0.418,0.733-0.75l0.481-0.432l0.088-0.088
			c-0.223-0.088-0.391-0.173-0.502-0.256c-0.193-0.151-0.29-0.325-0.29-0.52c0-0.181,0.084-0.379,0.252-0.597
			c0.169-0.217,0.528-0.57,1.08-1.059C345.226,58.476,344.881,58.214,344.634,57.838z M345.41,63.288
			c0.462,0.156,0.99,0.234,1.586,0.234c0.811,0,1.47-0.141,1.978-0.421s0.762-0.626,0.762-1.036c0-0.327-0.205-0.544-0.616-0.652
			c-0.255-0.063-0.736-0.1-1.446-0.11c-0.181-0.005-0.372-0.011-0.572-0.019c-0.2-0.007-0.384-0.016-0.551-0.025
			c-0.107-0.005-0.281-0.024-0.521-0.059c-0.24-0.034-0.418-0.063-0.536-0.088c-0.059,0-0.201,0.154-0.428,0.461
			c-0.231,0.312-0.347,0.601-0.347,0.864C344.719,62.848,344.949,63.131,345.41,63.288z M347.736,58.256
			c0.293-0.234,0.439-0.642,0.439-1.223c0-0.464-0.119-0.986-0.355-1.567c-0.237-0.581-0.632-0.872-1.184-0.872
			c-0.479,0-0.808,0.227-0.988,0.681c-0.093,0.239-0.139,0.535-0.139,0.886c0,0.596,0.144,1.13,0.432,1.604s0.661,0.71,1.121,0.71
			C347.33,58.476,347.555,58.402,347.736,58.256z"/>
		<path fill="#FF0000" d="M354.789,60.878c0.522-0.049,0.852-0.138,0.988-0.268c0.137-0.129,0.205-0.479,0.205-1.051v-3.494
			c0-0.317-0.021-0.537-0.065-0.659c-0.073-0.2-0.228-0.3-0.462-0.3c-0.054,0-0.105,0.005-0.157,0.015
			c-0.051,0.01-0.199,0.049-0.442,0.117v-0.227l0.314-0.103c0.854-0.278,1.45-0.488,1.787-0.63c0.137-0.059,0.225-0.088,0.264-0.088
			c0.01,0.034,0.015,0.071,0.015,0.11v5.259c0,0.557,0.067,0.906,0.201,1.047c0.135,0.142,0.438,0.232,0.912,0.271v0.205h-3.56
			V60.878z M355.953,51.084c0.146-0.151,0.327-0.226,0.543-0.226c0.209,0,0.389,0.074,0.538,0.222
			c0.148,0.148,0.224,0.33,0.224,0.543c0,0.208-0.075,0.387-0.224,0.536c-0.149,0.148-0.329,0.222-0.538,0.222
			c-0.216,0-0.396-0.074-0.543-0.222c-0.146-0.148-0.219-0.327-0.219-0.536C355.734,51.415,355.807,51.235,355.953,51.084z"/>
		<path fill="#FF0000" d="M358.936,60.878c0.346-0.044,0.589-0.13,0.729-0.26c0.139-0.129,0.209-0.419,0.209-0.868v-3.721
			c0-0.31-0.029-0.528-0.088-0.654c-0.094-0.184-0.284-0.276-0.572-0.276c-0.043,0-0.089,0.002-0.135,0.007
			c-0.047,0.005-0.104,0.012-0.172,0.022v-0.256c0.199-0.059,0.674-0.21,1.42-0.454l0.689-0.227c0.033,0,0.055,0.012,0.062,0.037
			c0.008,0.024,0.011,0.059,0.011,0.103v1.077c0.449-0.42,0.8-0.708,1.054-0.864c0.38-0.239,0.774-0.359,1.184-0.359
			c0.332,0,0.634,0.095,0.907,0.286c0.525,0.371,0.789,1.033,0.789,1.985v3.42c0,0.352,0.07,0.605,0.211,0.762
			s0.375,0.237,0.705,0.242v0.205h-3.128v-0.205c0.356-0.049,0.605-0.147,0.747-0.297c0.142-0.148,0.213-0.472,0.213-0.97v-3.127
			c0-0.42-0.078-0.768-0.233-1.044c-0.155-0.275-0.442-0.414-0.859-0.414c-0.287,0-0.578,0.098-0.874,0.293
			c-0.165,0.112-0.379,0.298-0.641,0.557v4.102c0,0.352,0.077,0.587,0.234,0.707c0.155,0.12,0.402,0.185,0.739,0.194v0.205h-3.2
			V60.878z"/>
		<path fill="#FF0000" d="M374.386,51.074c0.002,0.013,0.003,0.041,0.003,0.084v8.818c0,0.376,0.102,0.615,0.303,0.718
			s0.576,0.164,1.126,0.183v0.205h-4.138v-0.22c0.59-0.029,0.976-0.11,1.156-0.242s0.271-0.417,0.271-0.857v-6.782
			c0-0.234-0.029-0.413-0.088-0.535s-0.186-0.183-0.381-0.183c-0.127,0-0.292,0.036-0.494,0.106
			c-0.203,0.071-0.393,0.145-0.568,0.223v-0.205l2.688-1.37h0.088C374.372,51.044,374.383,51.062,374.386,51.074z"/>
		<path fill="#FF0000" d="M377.861,60.915c1.787-1.854,3-3.215,3.64-4.084c0.64-0.868,0.96-1.715,0.96-2.539
			c0-0.722-0.196-1.272-0.586-1.65c-0.392-0.378-0.857-0.567-1.399-0.567c-0.669,0-1.211,0.244-1.626,0.732
			c-0.229,0.268-0.449,0.68-0.659,1.236l-0.315-0.066c0.244-1.122,0.658-1.902,1.242-2.338c0.583-0.437,1.209-0.655,1.879-0.655
			c0.824,0,1.492,0.26,2.003,0.779c0.51,0.52,0.765,1.155,0.765,1.907c0,0.8-0.275,1.571-0.827,2.312
			c-0.553,0.741-1.751,2.061-3.598,3.959h3.362c0.47,0,0.799-0.056,0.989-0.168c0.19-0.112,0.405-0.385,0.646-0.819l0.189,0.088
			l-0.812,2.042h-5.852V60.915z"/>
		<path fill="#FF0000" d="M388.906,60.893c0.381-0.034,0.634-0.098,0.762-0.19c0.194-0.142,0.293-0.425,0.293-0.85v-3.787
			c0-0.361-0.048-0.598-0.144-0.71c-0.095-0.112-0.253-0.168-0.472-0.168c-0.104,0-0.18,0.005-0.231,0.015
			c-0.051,0.01-0.111,0.027-0.179,0.051v-0.256l0.527-0.176c0.189-0.063,0.502-0.178,0.938-0.344
			c0.434-0.166,0.663-0.249,0.688-0.249s0.039,0.012,0.045,0.037c0.004,0.024,0.007,0.071,0.007,0.139v0.989
			c0.483-0.439,0.901-0.744,1.253-0.912c0.352-0.169,0.712-0.253,1.084-0.253c0.502,0,0.902,0.171,1.201,0.513
			c0.155,0.186,0.285,0.437,0.388,0.754c0.361-0.366,0.676-0.637,0.944-0.813c0.464-0.303,0.938-0.454,1.422-0.454
			c0.785,0,1.311,0.32,1.574,0.959c0.151,0.361,0.227,0.933,0.227,1.714v3.04c0,0.347,0.077,0.582,0.231,0.707
			c0.153,0.124,0.431,0.206,0.831,0.245v0.19h-3.303v-0.205c0.424-0.039,0.704-0.125,0.838-0.256c0.135-0.132,0.201-0.4,0.201-0.806
			v-3.157c0-0.474-0.051-0.823-0.153-1.047c-0.181-0.4-0.534-0.601-1.062-0.601c-0.318,0-0.633,0.105-0.945,0.315
			c-0.181,0.122-0.402,0.317-0.666,0.586v3.75c0,0.396,0.069,0.696,0.208,0.901c0.14,0.205,0.434,0.315,0.883,0.33v0.19h-3.362
			v-0.19c0.464-0.059,0.76-0.171,0.887-0.337s0.19-0.576,0.19-1.23v-2.047c0-0.75-0.049-1.267-0.146-1.549
			c-0.161-0.479-0.503-0.718-1.025-0.718c-0.298,0-0.591,0.082-0.879,0.246s-0.542,0.377-0.762,0.641v4.006
			c0,0.371,0.064,0.627,0.194,0.769c0.129,0.142,0.411,0.215,0.846,0.22v0.19h-3.332V60.893z"/>
		<path fill="#FF0000" d="M400.625,60.878c0.522-0.049,0.852-0.138,0.988-0.268c0.137-0.129,0.205-0.479,0.205-1.051v-3.494
			c0-0.317-0.021-0.537-0.065-0.659c-0.073-0.2-0.228-0.3-0.462-0.3c-0.054,0-0.105,0.005-0.157,0.015
			c-0.051,0.01-0.199,0.049-0.442,0.117v-0.227l0.314-0.103c0.854-0.278,1.45-0.488,1.787-0.63c0.137-0.059,0.225-0.088,0.264-0.088
			c0.01,0.034,0.015,0.071,0.015,0.11v5.259c0,0.557,0.067,0.906,0.201,1.047c0.135,0.142,0.438,0.232,0.912,0.271v0.205h-3.56
			V60.878z M401.789,51.084c0.146-0.151,0.327-0.226,0.543-0.226c0.209,0,0.389,0.074,0.538,0.222
			c0.148,0.148,0.224,0.33,0.224,0.543c0,0.208-0.075,0.387-0.224,0.536c-0.149,0.148-0.329,0.222-0.538,0.222
			c-0.216,0-0.396-0.074-0.543-0.222c-0.146-0.148-0.219-0.327-0.219-0.536C401.57,51.415,401.643,51.235,401.789,51.084z"/>
		<path fill="#FF0000" d="M404.771,60.878c0.346-0.044,0.589-0.13,0.729-0.26c0.139-0.129,0.209-0.419,0.209-0.868v-3.721
			c0-0.31-0.029-0.528-0.088-0.654c-0.094-0.184-0.284-0.276-0.572-0.276c-0.043,0-0.089,0.002-0.135,0.007
			c-0.047,0.005-0.104,0.012-0.172,0.022v-0.256c0.199-0.059,0.674-0.21,1.42-0.454l0.689-0.227c0.033,0,0.055,0.012,0.062,0.037
			c0.008,0.024,0.011,0.059,0.011,0.103v1.077c0.449-0.42,0.8-0.708,1.054-0.864c0.38-0.239,0.774-0.359,1.184-0.359
			c0.332,0,0.634,0.095,0.907,0.286c0.525,0.371,0.789,1.033,0.789,1.985v3.42c0,0.352,0.07,0.605,0.211,0.762
			s0.375,0.237,0.705,0.242v0.205h-3.128v-0.205c0.356-0.049,0.605-0.147,0.747-0.297c0.142-0.148,0.213-0.472,0.213-0.97v-3.127
			c0-0.42-0.078-0.768-0.233-1.044c-0.155-0.275-0.442-0.414-0.859-0.414c-0.287,0-0.578,0.098-0.874,0.293
			c-0.165,0.112-0.379,0.298-0.641,0.557v4.102c0,0.352,0.077,0.587,0.234,0.707c0.155,0.12,0.402,0.185,0.739,0.194v0.205h-3.2
			V60.878z"/>
	</g>
</g>
<g>
</g>
</svg>
