<?xml version="1.0" encoding="utf-8"?>
<!-- Generator: Adobe Illustrator 16.0.0, SVG Export Plug-In . SVG Version: 6.00 Build 0)  -->
<!DOCTYPE svg PUBLIC "-//W3C//DTD SVG 1.1//EN" "http://www.w3.org/Graphics/SVG/1.1/DTD/svg11.dtd">
<svg version="1.1" id="Calque_1" xmlns="http://www.w3.org/2000/svg" xmlns:xlink="http://www.w3.org/1999/xlink" x="0px" y="0px"
	 width="366.52px" height="274.139px" viewBox="0 0 366.52 274.139" enable-background="new 0 0 366.52 274.139"
	 xml:space="preserve">
<line fill="none" stroke="#000000" stroke-width="4" stroke-miterlimit="10" x1="15.137" y1="244.732" x2="167.44" y2="244.723"/>
<g>
	<defs>
		<rect id="SVGID_1_" y="250.851" width="30.274" height="23.288"/>
	</defs>
	<clipPath id="SVGID_2_">
		<use xlink:href="#SVGID_1_"  overflow="visible"/>
	</clipPath>
	<path clip-path="url(#SVGID_2_)" d="M13.766,260.466c2.811-0.62,6.139-2.563,6.139-5.374c0-2.397-2.501-4.196-6.16-4.196H5.788
		c-0.559,0-0.806,0-0.806,0.558c0,0.31,0.248,0.31,0.785,0.31c0.062,0,0.579,0,1.054,0.062c0.517,0.062,0.765,0.083,0.765,0.455
		c0,0.103-0.042,0.186-0.124,0.516l-3.721,14.965c-0.289,1.096-0.352,1.323-2.542,1.323c-0.496,0-0.765,0-0.765,0.558
		c0,0.31,0.351,0.31,0.393,0.31c0.786,0,2.749-0.083,3.514-0.083c0.786,0,2.77,0.083,3.556,0.083c0.207,0,0.558,0,0.558-0.558
		c0-0.31-0.269-0.31-0.786-0.31c-1.033,0-1.819,0-1.819-0.496c0-0.186,0.062-0.31,0.083-0.476l1.84-7.399H11.1
		c2.522,0,3.039,1.571,3.039,2.542c0,0.414-0.228,1.282-0.393,1.923c-0.207,0.785-0.455,1.819-0.455,2.377
		c0,2.997,3.349,2.997,3.721,2.997c2.356,0,3.349-2.811,3.349-3.204c0-0.331-0.311-0.331-0.352-0.331
		c-0.249,0-0.31,0.186-0.352,0.393c-0.703,2.067-1.902,2.542-2.542,2.542c-0.91,0-1.116-0.62-1.116-1.715
		c0-0.848,0.165-2.274,0.29-3.163c0.042-0.393,0.103-0.93,0.103-1.323C16.391,261.604,14.531,260.756,13.766,260.466 M9.756,252.819
		c0.166-0.662,0.249-0.93,0.786-1.013c0.248-0.042,1.137-0.042,1.695-0.042c1.984,0,5.064,0,5.064,2.77
		c0,0.951-0.434,2.873-1.53,3.948c-0.723,0.724-2.191,1.633-4.712,1.633H7.937L9.756,252.819z"/>
	<path clip-path="url(#SVGID_2_)" d="M27.016,261.769c0-0.538-0.042-0.558-0.579-0.558c-1.261,1.24-3.018,1.261-3.824,1.261v0.703
		c0.475,0,1.757,0,2.832-0.558v9.921c0,0.641,0,0.91-1.964,0.91h-0.724v0.683c0.352,0,2.729-0.062,3.453-0.062
		c0.599,0,3.059,0.062,3.493,0.062v-0.683h-0.745c-1.943,0-1.943-0.269-1.943-0.91V261.769"/>
</g>
<g>
	<defs>
		<rect id="SVGID_3_" x="151.402" y="250.851" width="31.051" height="23.288"/>
	</defs>
	<clipPath id="SVGID_4_">
		<use xlink:href="#SVGID_3_"  overflow="visible"/>
	</clipPath>
	<path clip-path="url(#SVGID_4_)" d="M165.167,260.466c2.811-0.62,6.139-2.563,6.139-5.374c0-2.397-2.501-4.196-6.159-4.196h-7.958
		c-0.559,0-0.807,0-0.807,0.558c0,0.31,0.248,0.31,0.785,0.31c0.062,0,0.579,0,1.055,0.062c0.517,0.062,0.765,0.083,0.765,0.455
		c0,0.104-0.041,0.186-0.124,0.517l-3.721,14.965c-0.289,1.096-0.352,1.323-2.543,1.323c-0.496,0-0.764,0-0.764,0.558
		c0,0.31,0.352,0.31,0.393,0.31c0.785,0,2.749-0.083,3.514-0.083c0.786,0,2.77,0.083,3.556,0.083c0.206,0,0.559,0,0.559-0.558
		c0-0.31-0.27-0.31-0.786-0.31c-1.033,0-1.819,0-1.819-0.497c0-0.186,0.062-0.31,0.082-0.475l1.841-7.399h3.328
		c2.521,0,3.038,1.57,3.038,2.542c0,0.414-0.228,1.282-0.393,1.922c-0.207,0.786-0.455,1.82-0.455,2.377
		c0,2.997,3.349,2.997,3.721,2.997c2.356,0,3.349-2.811,3.349-3.204c0-0.331-0.31-0.331-0.351-0.331
		c-0.249,0-0.312,0.186-0.353,0.393c-0.703,2.067-1.901,2.542-2.542,2.542c-0.91,0-1.116-0.62-1.116-1.715
		c0-0.848,0.165-2.274,0.29-3.163c0.041-0.393,0.103-0.93,0.103-1.323C167.792,261.604,165.932,260.756,165.167,260.466
		 M161.157,252.819c0.166-0.662,0.248-0.93,0.786-1.013c0.248-0.042,1.137-0.042,1.694-0.042c1.984,0,5.065,0,5.065,2.77
		c0,0.95-0.435,2.873-1.53,3.948c-0.723,0.723-2.19,1.633-4.713,1.633h-3.121L161.157,252.819z"/>
	<path clip-path="url(#SVGID_4_)" d="M181.725,270.595h-0.663c-0.062,0.434-0.247,1.571-0.517,1.778
		c-0.145,0.103-1.653,0.103-1.921,0.103h-3.577c2.047-1.798,2.729-2.336,3.886-3.266c1.447-1.137,2.792-2.356,2.792-4.196
		c0-2.356-2.068-3.803-4.549-3.803c-2.418,0-4.051,1.695-4.051,3.493c0,0.992,0.826,1.095,1.033,1.095
		c0.455,0,1.033-0.33,1.033-1.033c0-0.352-0.145-1.034-1.157-1.034c0.6-1.384,1.923-1.819,2.832-1.819
		c1.964,0,2.977,1.53,2.977,3.101c0,1.695-1.219,3.039-1.839,3.741l-4.693,4.63c-0.186,0.165-0.186,0.207-0.186,0.744h8.02
		L181.725,270.595"/>
</g>
<line fill="none" stroke="#000000" stroke-width="2" stroke-miterlimit="10" x1="166.927" y1="244.728" x2="362.354" y2="74.5"/>
<g>
	<g>
		
			<line fill="none" stroke="#FF0000" stroke-width="2" stroke-miterlimit="10" x1="247.236" y1="81.705" x2="227.847" y2="101.093"/>
		<g>
			<path fill="#FF0000" d="M228.863,100.078l3.278,0.798l-0.023,0.116l-4.644,2.003c-1.413,0.903-2.825,1.807-4.238,2.709
				c0.903-1.413,1.807-2.825,2.709-4.238l2.004-4.644l0.104-0.035L228.863,100.078z"/>
		</g>
	</g>
</g>
<g>
	
		<line fill="#FF0000" stroke="#FF0000" stroke-width="2" stroke-miterlimit="10" x1="333.809" y1="160.484" x2="207.471" y2="15.444"/>
	
		<line fill="#FF0000" stroke="#FF0000" stroke-width="2" stroke-miterlimit="10" x1="345.385" y1="151.02" x2="219.047" y2="5.979"/>
	
		<line fill="#FF0000" stroke="#FF0000" stroke-width="2" stroke-miterlimit="10" x1="323.405" y1="170.949" x2="197.067" y2="25.909"/>
</g>
<line fill="#FF0000" stroke="#FF0000" stroke-width="2" stroke-miterlimit="10" x1="311.405" y1="181.414" x2="185.067" y2="36.373"/>
<path fill="none" stroke="#000000" stroke-width="1.2442" stroke-miterlimit="10" d="M47.133,220.055
	c0,0,15.901,4.047,12.998,24.677"/>
<g>
	<defs>
		<rect id="SVGID_5_" x="63.8" y="210.407" width="11.657" height="20.982"/>
	</defs>
	<clipPath id="SVGID_6_">
		<use xlink:href="#SVGID_5_"  overflow="visible"/>
	</clipPath>
	<path clip-path="url(#SVGID_6_)" d="M72.356,221.54c-0.311,1.283-0.91,3.642-1.965,5.649c-0.974,1.903-2.029,3.27-3.229,3.27
		c-0.933,0-1.511-0.808-1.511-3.394c0-1.179,0.166-2.793,0.89-5.525H72.356 M66.769,220.629c0.476-1.779,1.034-4.015,2.152-6
		c0.744-1.366,1.779-2.918,3.042-2.918c1.365,0,1.53,1.779,1.53,3.373c0,1.365-0.227,2.794-0.89,5.545H66.769z M75.335,216.822
		c0-1.842-0.496-5.732-3.352-5.732c-3.87,0-8.175,7.863-8.175,14.258c0,2.628,0.808,5.732,3.354,5.732
		C71.093,231.079,75.335,223.071,75.335,216.822z"/>
</g>
<line fill="none" stroke="#000000" stroke-width="2" stroke-miterlimit="10" x1="15.137" y1="244.598" x2="279.361" y2="14.444"/>
<g>
	<defs>
		<rect id="SVGID_7_" x="86.92" y="253.703" width="14.88" height="17.585"/>
	</defs>
	<clipPath id="SVGID_8_">
		<use xlink:href="#SVGID_7_"  overflow="visible"/>
	</clipPath>
	<path clip-path="url(#SVGID_8_)" d="M91.927,268.604v-6.087c0.648-0.847,1.818-1.549,3.151-1.549c2.972,0,2.972,2.935,2.972,4.628
		c0,1.153,0,2.485-0.631,3.422c-0.702,1.009-1.819,1.261-2.61,1.261C93.116,270.279,92.162,268.982,91.927,268.604 M91.783,261.274
		v-7.114l-4.304,0.198v1.135c1.513,0,1.675,0,1.675,0.955v14.57h1.152l1.188-1.369c0.18,0.198,1.388,1.513,3.549,1.513
		c3.619,0,6.104-2.179,6.104-5.565c0-3.223-2.27-5.511-5.799-5.511C93.584,260.085,92.359,260.788,91.783,261.274z"/>
</g>
<line fill="#FF0000" stroke="#FF0000" stroke-width="2" stroke-miterlimit="10" x1="187.012" y1="266.419" x2="80.18" y2="143.771"/>
<g>
	<defs>
		
			<rect id="SVGID_9_" x="121.493" y="188.664" transform="matrix(-0.6348 -0.7727 0.7727 -0.6348 87.0009 434.803)" width="49.518" height="16.356"/>
	</defs>
	<clipPath id="SVGID_10_">
		<use xlink:href="#SVGID_9_"  overflow="visible"/>
	</clipPath>
	<path clip-path="url(#SVGID_10_)" d="M136.634,173.615c0.218-0.18,0.446-0.367,0.252-0.603c-0.202-0.246-0.43-0.059-0.647,0.12
		l-11.389,9.356c-0.219,0.18-0.437,0.359-0.234,0.605c0.193,0.236,0.411,0.057,0.63-0.123L136.634,173.615"/>
	<path clip-path="url(#SVGID_10_)" d="M132.494,183.949l3.074-2.526c0.696-0.024,1.538,0.276,2.091,0.949
		c1.225,1.492-0.257,2.71-1.112,3.413c-0.581,0.478-1.255,1.031-1.989,1.102c-0.801,0.063-1.392-0.396-1.714-0.787
		C132.141,185.245,132.401,184.224,132.494,183.949 M136.129,180.825l3.592-2.952l-1.878-2.083l-0.574,0.471
		c0.62,0.754,0.696,0.846,0.215,1.242l-7.359,6.045l0.472,0.574l1.183,0.032c-0.018,0.183-0.188,1.329,0.709,2.42
		c1.502,1.829,3.642,2.188,5.352,0.784c1.628-1.338,1.834-3.442,0.377-5.216C137.476,181.242,136.622,180.924,136.129,180.825z"/>
	<path clip-path="url(#SVGID_10_)" d="M145.84,184.822c0.219-0.18,0.447-0.366,0.244-0.612c-0.201-0.246-0.429-0.059-0.646,0.121
		l-11.389,9.356c-0.219,0.18-0.438,0.359-0.233,0.604c0.2,0.246,0.418,0.067,0.638-0.113L145.84,184.822"/>
	<path clip-path="url(#SVGID_10_)" d="M144.45,196.128c0.169,0.317,0.808,1.484-0.075,2.209c-0.626,0.515-1.477,0.482-2.261-0.473
		c-0.845-1.027-0.51-2.048,0.339-3.127c0.134-0.171,0.165-0.227,0.067-0.346c-0.134-0.164-0.217-0.096-0.435,0.083l-1.619,1.33
		c-0.209,0.172-0.3,0.247-0.188,0.383c0.053,0.063,0.077,0.059,0.499,0.108c0.043-0.004,0.069-0.026,0.483,0.014
		c-0.067,0.956,0.37,1.525,0.578,1.779c1.159,1.41,2.45,1.294,3.333,0.569c0.646-0.531,0.72-1.201,0.745-1.467
		c0.056-0.73-0.241-1.294-0.56-1.885c-0.439-0.796-0.949-1.75-0.239-2.333c0.427-0.352,1.198-0.452,2.065,0.604
		c1.105,1.346,0.048,2.321-0.312,2.663c-0.102,0.099-0.012,0.208,0.011,0.235c0.135,0.165,0.198,0.112,0.436-0.082l1.236-1.016
		c0.209-0.172,0.292-0.239,0.178-0.376c-0.052-0.064-0.073-0.091-0.346-0.125c-0.075,0.001-0.289-0.037-0.363-0.052
		c-0.044-0.74-0.463-1.25-0.612-1.432c-1.232-1.5-2.434-1.292-3.125-0.724c-0.428,0.351-0.608,0.835-0.604,1.379
		C143.686,194.698,143.897,195.104,144.45,196.128"/>
	<path clip-path="url(#SVGID_10_)" d="M153.31,196.36c0.391-0.322,0.399-0.831,0.115-1.177c-0.313-0.382-0.866-0.386-1.185-0.125
		c-0.337,0.276-0.431,0.811-0.116,1.193C152.408,196.598,152.918,196.681,153.31,196.36 M151.135,198.07l-1.55-1.607l-0.373,0.307
		c0.658,0.801,0.666,0.977,0.066,1.47l-3.294,2.706c-0.555,0.456-0.667,0.319-1.339-0.499l-0.381,0.314
		c0.329,0.383,0.901,1.025,1.141,1.316c0.351,0.428,0.684,0.887,1.011,1.303l0.381-0.314c-0.664-0.809-0.639-0.906-0.165-1.295
		L151.135,198.07z"/>
	<path clip-path="url(#SVGID_10_)" d="M152.064,201.65l-3.284,2.698c-0.555,0.456-0.667,0.319-1.34-0.5l-0.381,0.314
		c0.36,0.419,0.902,1.024,1.172,1.352c0.261,0.318,0.765,0.987,1.093,1.404l0.381-0.313c-0.672-0.818-0.784-0.956-0.229-1.411
		l2.255-1.854c1.273-1.046,2.683-0.741,3.325,0.042c0.635,0.773,0.083,1.455-0.618,2.031l-2.854,2.346
		c-0.555,0.456-0.668,0.32-1.341-0.499l-0.381,0.313c0.359,0.42,0.902,1.025,1.173,1.353c0.261,0.318,0.764,0.986,1.091,1.403
		l0.382-0.314c-0.523-0.636-0.77-0.937-0.421-1.253l2.348-1.929c1.054-0.866,1.436-1.18,1.56-1.921
		c0.067-0.344-0.018-0.946-0.599-1.656c-0.74-0.9-1.739-1.041-2.778-0.766l1.283-1.054l-1.557-1.616l-0.373,0.306
		C152.672,200.981,152.665,201.156,152.064,201.65"/>
	<path clip-path="url(#SVGID_10_)" d="M161.57,213.555c-0.675,0.327-1.921,0.924-3.192,1.176c-1.189,0.26-2.17,0.29-2.603-0.238
		c-0.338-0.41-0.19-0.956,0.946-1.889c0.518-0.427,1.287-0.937,2.749-1.604L161.57,213.555 M159.954,210.77
		c0.954-0.433,2.138-0.995,3.414-1.221c0.87-0.166,1.925-0.271,2.382,0.284c0.492,0.6-0.229,1.316-0.93,1.891
		c-0.6,0.494-1.311,0.909-2.76,1.611L159.954,210.77z M164.721,213.161c0.809-0.666,2.34-2.289,1.309-3.544
		c-1.398-1.7-6.407-0.753-9.22,1.557c-1.155,0.949-2.229,2.424-1.309,3.543C156.921,216.444,161.974,215.417,164.721,213.161z"/>
</g>
<g>
	<defs>
		<rect id="SVGID_11_" x="320.682" y="22.848" width="26.254" height="13.525"/>
	</defs>
	<clipPath id="SVGID_12_">
		<use xlink:href="#SVGID_11_"  overflow="visible"/>
	</clipPath>
	<path clip-path="url(#SVGID_12_)" fill="#FF1A0F" d="M332.926,30.357c-1.165,2.055-3.283,4.936-6.504,4.936
		c-3.029,0-4.575-2.966-4.575-5.55c0-2.796,1.907-5.105,4.427-5.105c1.653,0,2.945,1.208,3.539,1.8
		C330.533,27.201,331.189,28.09,332.926,30.357 M334.897,29.128c1.186-2.055,3.305-4.957,6.524-4.957
		c3.029,0,4.576,2.986,4.576,5.55c0,2.796-1.929,5.126-4.429,5.126c-1.674,0-2.944-1.207-3.559-1.8
		C337.311,32.264,336.655,31.374,334.897,29.128z M334.156,28.154c-1.526-1.949-1.887-2.373-2.755-3.093
		c-1.61-1.271-3.22-1.801-4.66-1.801c-3.348,0-5.528,3.157-5.528,6.483c0,3.305,2.117,6.461,5.4,6.461
		c3.284,0,5.656-2.584,7.055-4.872c1.546,1.927,1.886,2.373,2.775,3.072c1.609,1.292,3.199,1.8,4.661,1.8
		c3.347,0,5.507-3.135,5.507-6.482c0-3.284-2.098-6.462-5.381-6.462C337.926,23.26,335.553,25.866,334.156,28.154z"/>
</g>
<g>
	<defs>
		
			<rect id="SVGID_13_" x="341.387" y="6.058" transform="matrix(-0.7353 0.6777 -0.6777 -0.7353 621.6643 -216.4604)" width="23.422" height="14.195"/>
	</defs>
	<clipPath id="SVGID_14_">
		<use xlink:href="#SVGID_13_"  overflow="visible"/>
	</clipPath>
	<path clip-path="url(#SVGID_14_)" fill="#FF1A0F" d="M359.792,7.694c-0.297,1.739-0.107,2.978-0.016,3.356
		c0.343,2.074,1.278,3.396,1.291,3.41c0.205,0.223,0.428,0.018,0.581-0.123c0.319-0.294,0.308-0.336,0.07-0.759
		c-1.259-2.233-1.608-4.815-0.275-7.636c0.145-0.289,0.176-0.367,0.047-0.506c-0.115-0.125-0.279-0.078-0.345-0.067
		c-1.114,0.437-4.238,1.593-7.868-0.896c-0.261-0.171-0.326-0.213-0.646,0.082c-0.152,0.141-0.375,0.346-0.171,0.568
		c0.038,0.042,1.295,1.069,3.239,1.59c0.899,0.225,2.043,0.377,3.401,0.233l-13.926,12.833c-0.334,0.308-0.681,0.628-0.335,1.002
		c0.346,0.375,0.691,0.056,1.025-0.252L359.792,7.694"/>
</g>
<g>
	<g>
		<line fill="none" stroke="#009B00" stroke-width="2" stroke-miterlimit="10" x1="15.137" y1="244.598" x2="46.432" y2="217.338"/>
		<g>
			<path fill="#009B00" d="M44.808,218.753l-4.823-1.533l0.047-0.17l7.155-2.52c2.207-1.206,4.414-2.412,6.621-3.617
				c-1.497,2.021-2.995,4.042-4.492,6.062l-3.477,6.742l-0.16,0.041L44.808,218.753z"/>
		</g>
	</g>
</g>
<g>
	<defs>
		<rect id="SVGID_15_" x="1" y="225.643" width="18.188" height="13.494"/>
	</defs>
	<clipPath id="SVGID_16_">
		<use xlink:href="#SVGID_15_"  overflow="visible"/>
	</clipPath>
	<path clip-path="url(#SVGID_16_)" fill="#068F00" d="M5.093,229.076c-0.781-0.156-2.156-0.391-2.156-1.375
		c0-1.312,1.969-1.312,2.375-1.312c1.578,0,2.375,0.609,2.484,1.781c0.016,0.312,0.031,0.422,0.484,0.422c0.5,0,0.5-0.11,0.5-0.594
		v-1.688c0-0.406,0-0.593-0.375-0.593c-0.094,0-0.125,0-0.953,0.406c-0.547-0.281-1.281-0.406-2.125-0.406
		c-0.641,0-3.875,0-3.875,2.765c0,0.844,0.422,1.406,0.843,1.766c0.844,0.734,1.641,0.859,3.266,1.156
		c0.75,0.125,2.328,0.406,2.328,1.656c0,1.578-1.938,1.578-2.39,1.578c-2.234,0-2.781-1.546-3.046-2.453
		c-0.094-0.297-0.203-0.297-0.5-0.297c-0.5,0-0.5,0.125-0.5,0.609v2.297c0,0.406,0,0.593,0.375,0.593c0.141,0,0.188,0,0.625-0.312
		c0.031,0,0.484-0.312,0.562-0.359c0.969,0.672,2.062,0.672,2.484,0.672c0.641,0,3.89,0,3.89-3.078c0-0.906-0.422-1.641-1.156-2.234
		C7.405,229.466,6.733,229.341,5.093,229.076"/>
	<path clip-path="url(#SVGID_16_)" fill="#068F00" d="M14.966,237.934c-0.468,0-0.922-0.156-1.265-0.469
		c-0.406-0.344-0.656-0.562-0.656-3.905c0-1.016,0-2.171,0.172-2.875c0.234-0.953,1.141-1.219,1.75-1.219
		c0.547,0,1.516,0.234,1.75,1.25c0.157,0.688,0.157,1.906,0.157,2.844c0,1.031,0,2.109-0.141,2.937
		C16.513,237.684,15.498,237.934,14.966,237.934 M18.919,233.762c0-1.812-0.188-4.983-3.953-4.983c-3.765,0-3.968,3.187-3.968,4.983
		c0,1.844,0.25,4.843,3.968,4.843C18.685,238.605,18.919,235.622,18.919,233.762z"/>
</g>
<g>
	<defs>
		
			<rect id="SVGID_17_" x="11.777" y="186.149" transform="matrix(-0.7481 0.6635 -0.6635 -0.7481 222.2514 302.0118)" width="84.064" height="14.074"/>
	</defs>
	<clipPath id="SVGID_18_">
		<use xlink:href="#SVGID_17_"  overflow="visible"/>
	</clipPath>
	<g clip-path="url(#SVGID_18_)">
		<path d="M32.113,216.715c0.133,0.047,0.15,0.068,0.159,0.078c0.073,0.082,0.011,0.136-0.152,0.281l-7.083,6.281
			c-0.162,0.145-0.225,0.199-0.297,0.118c-0.009-0.01-0.027-0.03-0.057-0.168l-2.688-9.978c-0.047-0.197-0.071-0.266,0.102-0.419
			c0.174-0.154,0.239-0.121,0.429-0.051L32.113,216.715z M24.808,222.172l5.501-4.878l-7.634-3.077L24.808,222.172z"/>
	</g>
	<g clip-path="url(#SVGID_18_)">
		<path d="M34.69,213.609c0.112,0.229,0.13,0.25,0.157,0.28c0.072,0.082,0.111,0.064,0.223-0.016
			c0.07-0.044,0.091-0.062,0.234-0.189l0.959-0.851c1.766-1.566,1.183-3.127,0.697-4.374c-0.074-0.227-0.109-0.287-0.017-0.368
			c0.091-0.082,0.186-0.038,0.222,0.003c0.009,0.01,0.027,0.031,0.086,0.18l1.148,2.919c0.094,0.228,0.083,0.237-0.162,0.454
			l-4.725,4.191c-0.184,0.163-0.275,0.244-0.375,0.132c-0.182-0.205-0.08-0.295,0.094-0.449c0.807-0.715,0.754-0.815,0.504-1.303
			l-3.494-6.693c-0.077-0.15-0.094-0.19-0.131-0.23c-0.117-0.133-0.219-0.062-0.42,0.082c-0.192,0.133-0.387,0.306-0.406,0.323
			c-0.193,0.172-0.286,0.254-0.386,0.141c-0.181-0.204-0.058-0.312,0.014-0.376c0.306-0.271,1.078-0.902,1.384-1.173
			c0.337-0.299,1.146-1.071,1.484-1.37c0.051-0.045,0.163-0.145,0.271-0.022c0.172,0.194,0.09,0.267-0.217,0.538
			c-0.959,0.851-0.89,0.99-0.655,1.439L34.69,213.609z"/>
	</g>
	<g clip-path="url(#SVGID_18_)">
		<path d="M40.578,203.609c-0.152,0.136-0.346,0.307-0.527,0.104c-0.181-0.204,0.014-0.375,0.156-0.502l6.113-5.422
			c0.143-0.127,0.336-0.299,0.518-0.095c0.181,0.204-0.014,0.375-0.166,0.511L40.578,203.609z M42.324,205.598
			c-0.143,0.127-0.336,0.298-0.518,0.095c-0.181-0.204,0.014-0.375,0.166-0.511l6.093-5.404c0.153-0.136,0.347-0.308,0.528-0.104
			c0.181,0.204-0.014,0.375-0.156,0.502L42.324,205.598z"/>
	</g>
	<g clip-path="url(#SVGID_18_)">
		<path d="M56.953,198.952c0.163,0.184,0.326,0.367,0.121,0.548c-0.203,0.181-0.366-0.002-0.529-0.186l-8.4-9.471
			c-0.162-0.184-0.325-0.368-0.121-0.548c0.204-0.181,0.367,0.003,0.529,0.187L56.953,198.952z"/>
	</g>
	<g clip-path="url(#SVGID_18_)">
		<path d="M55.84,187.831c1.479-1.312,3.29-1.205,4.494,0.153c1.258,1.418,1.021,3.27-0.499,4.619
			c-0.908,0.806-1.896,0.698-2.051,0.689l0.006,1.015l-0.479,0.425l-5.431-6.123c-0.354-0.398-0.424-0.335-1.057,0.226l-0.426-0.479
			l1.733-1.684l2.652,2.99C54.847,189.24,55.095,188.491,55.84,187.831z M59.417,192.316c0.327-0.29,0.697-0.818,0.621-1.5
			c-0.087-0.633-0.585-1.194-1.01-1.674c-0.635-0.714-1.729-1.949-2.975-0.845c-0.562,0.498-0.789,1.228-0.748,1.83l2.271,2.562
			C57.816,192.751,58.704,192.949,59.417,192.316z"/>
	</g>
	<g clip-path="url(#SVGID_18_)">
		<path d="M66.309,190.653c0.163,0.184,0.325,0.367,0.121,0.548s-0.366-0.002-0.529-0.186l-8.399-9.471
			c-0.164-0.184-0.326-0.368-0.123-0.549c0.205-0.181,0.367,0.003,0.531,0.187L66.309,190.653z"/>
	</g>
	<g clip-path="url(#SVGID_18_)">
		<path d="M69.792,183.407c0.378-0.335,0.933-1.046,0.388-2.257c-0.034-0.079-0.051-0.138,0.041-0.22
			c0.031-0.027,0.133-0.118,0.224-0.016s0.85,1.616-0.519,2.829c-1.184,1.05-3.089,0.936-4.248-0.37
			c-1.122-1.266-1.161-3.201,0.115-4.332c0.785-0.697,1.914-0.987,2.529-0.293c0.271,0.306,0.222,0.661-0.043,0.896
			c-0.287,0.254-0.651,0.213-0.887-0.052c-0.117-0.133-0.328-0.494,0.063-0.896c-0.683-0.05-1.335,0.51-1.427,0.591
			c-0.541,0.479-0.998,1.65,0.478,3.314C67.963,184.244,69.25,183.887,69.792,183.407z"/>
		<path d="M74.458,179.724c-1.194,1.059-3.124,1.021-4.292-0.296c-1.131-1.275-1.128-3.266,0.148-4.397
			c1.234-1.096,3.215-0.919,4.373,0.387C75.836,176.714,75.693,178.629,74.458,179.724z M74.755,177.655
			c-0.174-0.648-0.662-1.199-0.988-1.567c-0.344-0.388-0.869-0.979-1.523-1.183c-0.654-0.204-1.292-0.039-1.741,0.359
			c-0.408,0.362-0.698,1.001-0.557,1.715c0.153,0.667,0.642,1.218,0.995,1.616c0.326,0.368,0.878,0.99,1.531,1.213
			c0.691,0.225,1.33,0.042,1.77-0.348C74.751,179.008,74.939,178.313,74.755,177.655z"/>
		<path d="M75.523,174.203c-0.475,0.02-0.891-0.121-1.207-0.479c-0.508-0.571-0.727-1.599,0.52-2.703
			c0.152-0.136,0.57-0.507,1.213-0.565c0.014-0.067,0.033-0.249,0.027-0.317c0.025-0.24,0.045-0.258,0.096-0.303
			c0.113-0.1,0.176-0.028,0.33,0.145l0.914,1.031c0.172,0.194,0.217,0.245,0.084,0.363c-0.02,0.018-0.111,0.1-0.203,0.017
			c-0.301-0.298-1.167-1.171-2.289-0.175c-0.879,0.778-0.772,1.432-0.455,1.789c0.524,0.592,1.326,0.118,1.997-0.276
			c0.501-0.299,0.972-0.57,1.599-0.542c0.23,0.014,0.808,0.049,1.287,0.59c0.652,0.735,0.789,1.835-0.385,2.875
			c-0.214,0.19-0.682,0.587-1.512,0.558c-0.012,0.356,0.007,0.377,0.005,0.416c-0.022,0.365-0.024,0.385-0.075,0.43
			c-0.111,0.1-0.175,0.028-0.328-0.145l-1.195-1.347c-0.163-0.184-0.227-0.255-0.094-0.373c0.103-0.091,0.148-0.059,0.297,0.047
			c0.963,0.695,1.847,0.951,2.704,0.191c0.796-0.706,0.791-1.432,0.329-1.952c-0.651-0.734-1.633-0.156-1.895,0.002
			C76.425,173.986,76.085,174.178,75.523,174.203z"/>
	</g>
	<g clip-path="url(#SVGID_18_)">
		<path d="M84.406,170.901c-0.929,0.824-2.229-0.046-3.08-1.006c-2.073-2.337-3.053-6.609-1.635-7.867
			c1.041-0.923,2.482,0.333,3.08,1.006C84.798,165.32,85.845,169.625,84.406,170.901z M83.011,165.319
			c-0.651-1.227-1.031-1.82-1.475-2.32c-0.516-0.582-1.156-1.18-1.656-0.737c-0.46,0.407-0.33,1.313-0.162,2.058
			c0.233,1.087,0.754,2.085,1.16,2.892L83.011,165.319z M81.085,167.61c0.623,1.236,1.086,1.882,1.466,2.311
			c0.842,0.949,1.319,1.055,1.655,0.756c0.439-0.389,0.384-1.233,0.125-2.244c-0.264-1.079-0.818-2.136-1.123-2.705L81.085,167.61z"
			/>
	</g>
</g>
<g>
</g>
<g>
</g>
<g>
</g>
<g>
</g>
<g>
</g>
<g>
</g>
<g>
</g>
</svg>
