<?xml version="1.0" encoding="utf-8"?>
<!-- Generator: Adobe Illustrator 16.0.0, SVG Export Plug-In . SVG Version: 6.00 Build 0)  -->
<!DOCTYPE svg PUBLIC "-//W3C//DTD SVG 1.1//EN" "http://www.w3.org/Graphics/SVG/1.1/DTD/svg11.dtd">
<svg version="1.1" id="Calque_1" xmlns="http://www.w3.org/2000/svg" xmlns:xlink="http://www.w3.org/1999/xlink" x="0px" y="0px"
	 width="1356.51px" height="918.433px" viewBox="0 0 1356.51 918.433" enable-background="new 0 0 1356.51 918.433"
	 xml:space="preserve">
<polygon fill="none" stroke="#121212" stroke-width="2" stroke-miterlimit="10" points="210.198,707.815 89.672,914.729 
	89.672,382.35 210.198,175.437 "/>
<g>
	<defs>
		<rect id="SVGID_1_" x="384.275" y="525.711" width="24.15" height="23.396"/>
	</defs>
	<clipPath id="SVGID_2_">
		<use xlink:href="#SVGID_1_"  overflow="visible"/>
	</clipPath>
	<path clip-path="url(#SVGID_2_)" d="M400.392,526.189c0-0.08-0.041-0.261-0.282-0.261c-0.141,0-0.181,0.02-0.502,0.402
		l-1.286,1.547c-0.723-1.286-2.13-1.949-3.879-1.949c-3.456,0-6.711,3.115-6.711,6.39c0,2.191,1.446,3.437,2.833,3.858l2.894,0.744
		c1.005,0.241,2.493,0.664,2.493,2.874c0,2.452-2.211,4.983-4.884,4.983c-1.728,0-4.743-0.582-4.743-3.938
		c0-0.663,0.141-1.306,0.161-1.466c0.041-0.121,0.06-0.141,0.06-0.201c0-0.262-0.18-0.302-0.322-0.302
		c-0.14,0-0.201,0.04-0.281,0.12c-0.101,0.101-1.608,6.291-1.608,6.371c0,0.161,0.121,0.261,0.282,0.261
		c0.14,0,0.16-0.02,0.501-0.402l1.326-1.547c1.166,1.567,2.995,1.949,4.583,1.949c3.676,0,6.871-3.597,6.871-6.953
		c0-1.869-0.924-2.793-1.326-3.175c-0.623-0.623-1.025-0.744-3.437-1.367c-0.603-0.161-1.567-0.422-1.829-0.482
		c-0.723-0.242-1.647-1.025-1.647-2.472c0-2.19,2.169-4.482,4.742-4.482c2.251,0,3.919,1.166,3.919,4.2
		c0,0.865-0.12,1.347-0.12,1.507c0,0.02,0,0.281,0.321,0.281c0.281,0,0.301-0.08,0.421-0.542L400.392,526.189"/>
	<path clip-path="url(#SVGID_2_)" d="M405.777,537.081c0-0.522-0.041-0.542-0.562-0.542c-1.206,1.206-2.935,1.226-3.718,1.226v0.684
		c0.462,0,1.708,0,2.752-0.542v9.646c0,0.623,0,0.884-1.888,0.884h-0.724v0.663c0.342,0,2.672-0.06,3.377-0.06
		c0.583,0,2.954,0.06,3.376,0.06v-0.663h-0.724c-1.889,0-1.889-0.261-1.889-0.884V537.081"/>
</g>
<g>
	<defs>
		<rect id="SVGID_3_" x="708.871" y="525.711" width="24.905" height="23.396"/>
	</defs>
	<clipPath id="SVGID_4_">
		<use xlink:href="#SVGID_3_"  overflow="visible"/>
	</clipPath>
	<path clip-path="url(#SVGID_4_)" d="M724.988,526.188c0-0.081-0.041-0.262-0.281-0.262c-0.141,0-0.182,0.02-0.503,0.402
		l-1.286,1.547c-0.723-1.286-2.13-1.95-3.879-1.95c-3.456,0-6.711,3.115-6.711,6.391c0,2.19,1.447,3.437,2.833,3.858l2.894,0.744
		c1.006,0.241,2.493,0.664,2.493,2.874c0,2.453-2.21,4.984-4.883,4.984c-1.729,0-4.743-0.582-4.743-3.939
		c0-0.663,0.141-1.306,0.161-1.466c0.041-0.121,0.061-0.141,0.061-0.201c0-0.262-0.181-0.302-0.322-0.302
		c-0.14,0-0.2,0.04-0.281,0.12c-0.101,0.101-1.607,6.291-1.607,6.371c0,0.161,0.12,0.261,0.282,0.261c0.14,0,0.161-0.02,0.502-0.401
		l1.326-1.547c1.166,1.567,2.995,1.948,4.583,1.948c3.677,0,6.872-3.596,6.872-6.953c0-1.869-0.924-2.793-1.326-3.175
		c-0.623-0.623-1.025-0.744-3.437-1.367c-0.603-0.16-1.567-0.422-1.828-0.481c-0.723-0.242-1.647-1.025-1.647-2.472
		c0-2.19,2.17-4.482,4.742-4.482c2.25,0,3.918,1.166,3.918,4.2c0,0.865-0.12,1.347-0.12,1.507c0,0.02,0,0.282,0.321,0.282
		c0.281,0,0.301-0.081,0.421-0.543L724.988,526.188"/>
	<path clip-path="url(#SVGID_4_)" d="M733.589,545.661h-0.644c-0.06,0.422-0.241,1.527-0.483,1.729c-0.16,0.1-1.606,0.1-1.868,0.1
		h-3.497c1.99-1.748,2.653-2.271,3.798-3.175c1.387-1.106,2.693-2.291,2.693-4.08c0-2.291-2.01-3.697-4.421-3.697
		c-2.351,0-3.938,1.647-3.938,3.396c0,0.965,0.823,1.065,1.004,1.065c0.462,0,1.005-0.321,1.005-1.005
		c0-0.342-0.142-1.005-1.126-1.005c0.603-1.346,1.89-1.768,2.774-1.768c1.888,0,2.873,1.488,2.873,3.015
		c0,1.648-1.166,2.954-1.788,3.637l-4.542,4.501c-0.201,0.161-0.201,0.201-0.201,0.724h7.797L733.589,545.661"/>
</g>
<g>
	<g>
		<g>
			
				<line fill="none" stroke="#121212" stroke-width="2.3108" stroke-miterlimit="10" x1="1095.605" y1="553.067" x2="1092.718" y2="553.067"/>
			
				<line fill="none" stroke="#121212" stroke-width="2.3108" stroke-miterlimit="10" stroke-dasharray="5.7663,5.7663" x1="1086.951" y1="553.067" x2="5.771" y2="553.067"/>
			<line fill="none" stroke="#121212" stroke-width="2.3108" stroke-miterlimit="10" x1="2.889" y1="553.067" x2="0" y2="553.067"/>
			<g>
				<path fill="#121212" d="M1091.458,553.067l-5.063,8.326l0.284,0.188l13.576-5.392c4.729-1.041,9.46-2.081,14.189-3.122
					c-4.729-1.041-9.46-2.081-14.189-3.122l-13.576-5.392l-0.284,0.142L1091.458,553.067z"/>
			</g>
		</g>
	</g>
	<circle cx="696.184" cy="553.068" r="3.885"/>
	<circle cx="419.098" cy="552.899" r="3.885"/>
</g>
<g>
	<path fill="none" stroke="#121212" stroke-miterlimit="10" d="M964.277,648.363c0,0-285.526-47.64-285.526-95.28
		s285.526-95.281,285.526-95.281"/>
	<g>
		<ellipse fill="none" stroke="#121212" stroke-miterlimit="10" cx="964.552" cy="552.897" rx="12.267" ry="58.394"/>
		<ellipse fill="none" stroke="#121212" stroke-miterlimit="10" cx="964.552" cy="552.897" rx="20.03" ry="95.355"/>
		<ellipse fill="none" stroke="#121212" stroke-miterlimit="10" cx="964.552" cy="552.897" rx="27.794" ry="132.317"/>
		<ellipse fill="none" stroke="#121212" stroke-miterlimit="10" cx="964.553" cy="552.897" rx="35.559" ry="169.279"/>
		<ellipse fill="none" stroke="#121212" stroke-miterlimit="10" cx="964.553" cy="552.897" rx="43.322" ry="206.241"/>
	</g>
	<path fill="none" stroke="#121212" stroke-miterlimit="10" d="M963.126,722.31c0,0-306.375-85.348-306.375-169.412
		c0-84.064,306.375-169.248,306.375-169.248"/>
	<path fill="none" stroke="#121212" stroke-miterlimit="10" d="M965.286,685.56c0,0-296.959-66.866-296.959-132.728
		c0-65.86,296.226-132.432,296.226-132.432"/>
	<path fill="none" stroke="#121212" stroke-miterlimit="10" d="M794.049,833.731c0,0-172.355-141.464-172.355-280.8
		s172.355-280.528,172.355-280.528"/>
	<path fill="none" stroke="#121212" stroke-miterlimit="10" d="M681.252,833.731c0,0-73.36-141.464-73.36-280.8
		s73.36-280.528,73.36-280.528"/>
	<path fill="none" stroke="#121212" stroke-miterlimit="10" d="M964.236,759.997c0,0-319.375-104.291-319.375-207.014
		c0-102.723,319.375-206.814,319.375-206.814"/>
	<path fill="none" stroke="#121212" stroke-miterlimit="10" d="M934.543,833.731c0,0-301.35-141.464-301.35-280.8
		s300.35-280.528,300.35-280.528"/>
	<path fill="none" stroke="#121212" stroke-miterlimit="10" d="M614.438,833.73c0,0-18.925-141.463-18.925-280.799
		s18.925-280.528,18.925-280.528"/>
	<path fill="none" stroke="#121212" stroke-miterlimit="10" d="M581.822,833.729c0,0-5.233-141.462-5.233-280.798
		s5.233-280.528,5.233-280.528"/>
</g>
<g>
	<path fill="none" stroke="#121212" stroke-miterlimit="10" d="M150.944,648.363c0,0,285.526-47.64,285.526-95.28
		s-285.526-95.281-285.526-95.281"/>
	<g>
		<ellipse fill="none" stroke="#121212" stroke-miterlimit="10" cx="150.669" cy="552.897" rx="12.267" ry="58.394"/>
		<ellipse fill="none" stroke="#121212" stroke-miterlimit="10" cx="150.669" cy="552.897" rx="20.031" ry="95.355"/>
		<ellipse fill="none" stroke="#121212" stroke-miterlimit="10" cx="150.669" cy="552.897" rx="27.794" ry="132.317"/>
		<ellipse fill="none" stroke="#121212" stroke-miterlimit="10" cx="150.669" cy="552.897" rx="35.558" ry="169.279"/>
		<ellipse fill="none" stroke="#121212" stroke-miterlimit="10" cx="150.668" cy="552.897" rx="43.322" ry="206.241"/>
	</g>
	<path fill="none" stroke="#121212" stroke-miterlimit="10" d="M152.095,722.31c0,0,306.375-85.348,306.375-169.412
		c0-84.064-306.375-169.248-306.375-169.248"/>
	<path fill="none" stroke="#121212" stroke-miterlimit="10" d="M149.935,685.56c0,0,296.959-66.866,296.959-132.728
		c0-65.86-296.226-132.432-296.226-132.432"/>
	<path fill="none" stroke="#121212" stroke-miterlimit="10" d="M321.172,833.732c0,0,172.355-141.465,172.355-280.801
		S321.172,272.404,321.172,272.404"/>
	<path fill="none" stroke="#121212" stroke-miterlimit="10" d="M433.969,833.732c0,0,73.36-141.465,73.36-280.801
		s-73.36-280.528-73.36-280.528"/>
	<path fill="none" stroke="#121212" stroke-miterlimit="10" d="M150.985,759.997c0,0,319.375-104.291,319.375-207.014
		c0-102.723-319.375-206.814-319.375-206.814"/>
	<path fill="none" stroke="#121212" stroke-miterlimit="10" d="M180.678,833.732c0,0,301.35-141.465,301.35-280.801
		s-301.35-280.528-301.35-280.528"/>
	<path fill="none" stroke="#121212" stroke-miterlimit="10" d="M500.783,833.73c0,0,18.926-141.463,18.926-280.799
		s-18.926-280.528-18.926-280.528"/>
	<path fill="none" stroke="#121212" stroke-miterlimit="10" d="M533.399,833.73c0,0,5.233-141.463,5.233-280.799
		s-5.233-280.528-5.233-280.528"/>
</g>
<line fill="none" stroke="#121212" stroke-miterlimit="10" x1="557.222" y1="272.404" x2="557.222" y2="833.732"/>
<g id="vnnnQ6_1_">
	
		<image overflow="visible" width="222" height="222" id="vnnnQ6" xlink:href="A359CF9B69A0AC79.png"  transform="matrix(1.0904 0 0 1.0904 1114.4443 431.8872)">
	</image>
</g>
<g id="aRPhcM_1_">
	
		<image overflow="visible" width="400" height="132" id="aRPhcM" xlink:href="A359CF9B69A0AC7B.png"  transform="matrix(1 0 0 1.2416 402.9756 0)">
	</image>
</g>
<polygon fill="none" stroke="#121212" stroke-width="2" stroke-miterlimit="10" points="1023.5,707.815 902.974,914.729 
	902.974,382.35 1023.5,175.437 "/>
<line fill="none" stroke="#121212" stroke-width="2" stroke-miterlimit="10" x1="89.672" y1="382.35" x2="902.974" y2="382.35"/>
<line fill="none" stroke="#121212" stroke-width="2" stroke-linecap="square" stroke-miterlimit="10" x1="212.198" y1="172.437" x2="1023.5" y2="172.437"/>
<line fill="none" stroke="#121212" stroke-width="2" stroke-miterlimit="10" x1="88.672" y1="916.729" x2="901.974" y2="916.729"/>
<line fill="none" stroke="#121212" stroke-width="2" stroke-miterlimit="10" x1="210.198" y1="707.815" x2="1023.5" y2="707.815"/>
<g>
	<g>
		<g enable-background="new    ">
			<defs>
				<polygon id="SVGID_5_" enable-background="new    " points="889.936,350.655 974.391,198.494 1009.781,198.494 925.326,350.655 
									"/>
			</defs>
			<clipPath id="SVGID_6_">
				<use xlink:href="#SVGID_5_"  overflow="visible"/>
			</clipPath>
			<g clip-path="url(#SVGID_6_)">
				<g>
					<g>
						<g>
							<path fill="#101010" d="M1008.903,198.494c-30.406,18.759-62.684,50.754-76.739,76.079
								c-15.513,27.949-19.902,58.522-10.924,76.083l0.978-0.179c-8.954-17.511-4.569-48.012,10.911-75.904
								c14.026-25.271,46.218-57.19,76.553-75.9L1008.903,198.494"/>
						</g>
					</g>
				</g>
			</g>
		</g>
	</g>
</g>
<g>
	<g>
		<g enable-background="new    ">
			<defs>
				<polygon id="SVGID_7_" enable-background="new    " points="748.053,353.333 833.054,200.19 862.106,200.19 777.106,353.333 
									"/>
			</defs>
			<clipPath id="SVGID_8_">
				<use xlink:href="#SVGID_7_"  overflow="visible"/>
			</clipPath>
			<g clip-path="url(#SVGID_8_)">
				<g>
					<g>
						<g>
							<path fill="#101010" d="M861.237,200.19c-26.474,16.325-57.298,52.455-70.683,76.569
								c-13.385,24.115-22.667,60.245-14.318,76.573l0.969-0.179c-8.318-16.275,0.955-52.326,14.314-76.395
								s44.104-60.119,70.488-76.391L861.237,200.19"/>
						</g>
					</g>
				</g>
			</g>
		</g>
	</g>
</g>
<g>
	<g>
		<g enable-background="new    ">
			<defs>
				<polygon id="SVGID_9_" enable-background="new    " points="636.401,352.676 722.491,197.57 745.293,197.57 659.204,352.676 
									"/>
			</defs>
			<clipPath id="SVGID_10_">
				<use xlink:href="#SVGID_9_"  overflow="visible"/>
			</clipPath>
			<g clip-path="url(#SVGID_10_)">
				<g>
					<g>
						<g>
							<path fill="#101010" d="M744.416,197.57c-20.359,12.56-54.109,57.985-64.969,77.551c-10.862,19.57-27.541,65-21.121,77.555
								l0.977-0.179c-6.394-12.506,10.266-57.841,21.109-77.376c10.841-19.531,44.505-64.866,64.782-77.372L744.416,197.57"/>
						</g>
					</g>
				</g>
			</g>
		</g>
	</g>
</g>
<g>
	<g>
		<g enable-background="new    ">
			<defs>
				<polygon id="SVGID_11_" enable-background="new    " points="569.922,351.693 657.642,193.651 671.064,193.651 583.344,351.693 
									"/>
			</defs>
			<clipPath id="SVGID_12_">
				<use xlink:href="#SVGID_11_"  overflow="visible"/>
			</clipPath>
			<g clip-path="url(#SVGID_12_)">
				<g>
					<g>
						<g>
							<path fill="#101010" d="M670.195,193.651c-11.972,7.379-50.771,68.856-56.412,79.019
								c-5.643,10.167-35.088,71.644-31.308,79.023l0.968-0.179c-3.74-7.326,25.67-68.692,31.304-78.844
								c5.633-10.148,44.344-71.515,56.217-78.84L670.195,193.651"/>
						</g>
					</g>
				</g>
			</g>
		</g>
	</g>
</g>
<g>
	<g>
		<g enable-background="new    ">
			<defs>
				<polygon id="SVGID_13_" enable-background="new    " points="537.271,352.041 626.082,192.033 633.254,192.033 544.443,352.041 
									"/>
			</defs>
			<clipPath id="SVGID_14_">
				<use xlink:href="#SVGID_13_"  overflow="visible"/>
			</clipPath>
			<g clip-path="url(#SVGID_14_)">
				<g>
					<g>
						<g>
							<path fill="#101010" d="M632.376,192.033c-6.096,3.762-48.662,76.333-50.7,80.004c-2.037,3.67-40.031,76.243-38.111,80.004
								l0.978-0.179c-1.792-3.507,34.637-73.587,38.099-79.826c3.462-6.238,44.829-76.318,50.513-79.825L632.376,192.033"/>
						</g>
					</g>
				</g>
			</g>
		</g>
	</g>
</g>
<g>
	<g>
		<g enable-background="new    ">
			<defs>
				<polygon id="SVGID_15_" enable-background="new    " points="502.707,368.219 601.294,190.596 603.39,190.596 504.802,368.219 
									"/>
			</defs>
			<clipPath id="SVGID_16_">
				<use xlink:href="#SVGID_15_"  overflow="visible"/>
			</clipPath>
			<g clip-path="url(#SVGID_16_)">
				<g>
					<g>
						<g>
							<polyline fill="#121212" points="603.39,190.596 601.294,190.596 502.707,368.219 504.802,368.219 603.39,190.596 							"/>
						</g>
					</g>
				</g>
			</g>
		</g>
	</g>
</g>
<g>
	<g>
		<g enable-background="new    ">
			<defs>
				<polygon id="SVGID_17_" enable-background="new    " points="109.919,348.479 194.352,196.359 223.24,196.359 138.808,348.479 
									"/>
			</defs>
			<clipPath id="SVGID_18_">
				<use xlink:href="#SVGID_17_"  overflow="visible"/>
			</clipPath>
			<g clip-path="url(#SVGID_18_)">
				<g>
					<g>
						<g>
							<g>
								<defs>
									<path id="SVGID_19_" d="M190.107,252.842c7.763-20.22,11.324-41.546,8.921-56.483
										C201.431,211.295,197.87,232.622,190.107,252.842"/>
								</defs>
								<clipPath id="SVGID_20_">
									<use xlink:href="#SVGID_19_"  overflow="visible"/>
								</clipPath>
							</g>
							<g>
								<defs>
									<path id="SVGID_21_" d="M156.465,306.453c-13.663,15.705-29.922,30.854-45.642,42.025
										C126.543,337.308,142.802,322.158,156.465,306.453"/>
								</defs>
								<clipPath id="SVGID_22_">
									<use xlink:href="#SVGID_21_"  overflow="visible"/>
								</clipPath>
							</g>
							<path fill="#101010" d="M199.028,196.359l-0.991,0.125c3.196,19.881-4.198,51.105-17.975,75.927
								c-14.094,25.393-42.906,56.612-70.062,75.919l0.822,0.148c27.222-19.349,56.085-50.629,70.205-76.067
								C194.826,247.551,202.232,216.274,199.028,196.359"/>
						</g>
					</g>
				</g>
			</g>
		</g>
	</g>
</g>
<g>
	<g>
		<g enable-background="new    ">
			<defs>
				<polygon id="SVGID_23_" enable-background="new    " points="248.826,349.717 333.807,196.608 362.886,196.608 277.905,349.717 
									"/>
			</defs>
			<clipPath id="SVGID_24_">
				<use xlink:href="#SVGID_23_"  overflow="visible"/>
			</clipPath>
			<g clip-path="url(#SVGID_24_)">
				<g>
					<g>
						<g>
							<g>
								<defs>
									<path id="SVGID_25_" d="M320.404,273.147c-13.382,24.111-44.209,60.245-70.683,76.57
										C276.194,333.392,307.021,297.258,320.404,273.147"/>
								</defs>
								<clipPath id="SVGID_26_">
									<use xlink:href="#SVGID_25_"  overflow="visible"/>
								</clipPath>
							</g>
							<path fill="#101010" d="M334.728,196.608l-0.985,0.114c1.7,17.972-1.616,53.565-14.305,76.425
								c-13.357,24.065-44.104,60.119-70.488,76.391l0.77,0.179c26.474-16.325,57.301-52.459,70.683-76.57
								C333.828,248.961,336.321,213.363,334.728,196.608"/>
						</g>
					</g>
				</g>
			</g>
		</g>
	</g>
</g>
<g>
	<g>
		<g enable-background="new    ">
			<defs>
				<polygon id="SVGID_27_" enable-background="new    " points="368.63,349.068 454.695,194.008 477.532,194.008 391.468,349.068 
									"/>
			</defs>
			<clipPath id="SVGID_28_">
				<use xlink:href="#SVGID_27_"  overflow="visible"/>
			</clipPath>
			<g clip-path="url(#SVGID_28_)">
				<g>
					<g>
						<g>
							<g>
								<defs>
									<path id="SVGID_29_" d="M455.643,194.008c-0.419,13.412-10.691,58.701-21.131,77.509
										C444.951,252.709,455.223,207.42,455.643,194.008"/>
								</defs>
								<clipPath id="SVGID_30_">
									<use xlink:href="#SVGID_29_"  overflow="visible"/>
								</clipPath>
							</g>
							<g>
								<defs>
									<path id="SVGID_31_" d="M434.512,271.518c-10.86,19.565-44.612,64.995-64.968,77.551
										C389.9,336.513,423.652,291.083,434.512,271.518"/>
								</defs>
								<clipPath id="SVGID_32_">
									<use xlink:href="#SVGID_31_"  overflow="visible"/>
								</clipPath>
							</g>
							<path fill="#101010" d="M455.643,194.008l-1,0.095c-0.42,13.396-10.671,58.632-21.095,77.414
								c-10.843,19.535-44.507,64.87-64.782,77.372l0.779,0.179c20.356-12.556,54.108-57.985,64.968-77.551
								C444.951,252.709,455.223,207.42,455.643,194.008"/>
						</g>
					</g>
				</g>
			</g>
		</g>
	</g>
</g>
<g>
	<g>
		<g enable-background="new    ">
			<defs>
				<polygon id="SVGID_33_" enable-background="new    " points="444.859,348.094 532.556,190.094 546.013,190.094 458.316,348.094 
									"/>
			</defs>
			<clipPath id="SVGID_34_">
				<use xlink:href="#SVGID_33_"  overflow="visible"/>
			</clipPath>
			<g clip-path="url(#SVGID_34_)">
				<g>
					<g>
						<g>
							<path fill="#101010" d="M533.494,190.094l-0.987,0.087c-0.328,4.005-7.288,22.449-13.693,38.375
								c-7.433,18.497-14.837,35.533-17.602,40.515c-5.633,10.148-44.345,71.515-56.219,78.844l0.77,0.179
								c11.974-7.383,50.773-68.859,56.414-79.023C507.888,258.782,532.839,198.119,533.494,190.094"/>
						</g>
					</g>
				</g>
			</g>
		</g>
	</g>
</g>
<g>
	<g>
		<g enable-background="new    ">
			<defs>
				<polygon id="SVGID_35_" enable-background="new    " points="482.696,350.41 571.507,190.401 578.679,190.401 489.868,350.41 
									"/>
			</defs>
			<clipPath id="SVGID_36_">
				<use xlink:href="#SVGID_35_"  overflow="visible"/>
			</clipPath>
			<g clip-path="url(#SVGID_36_)">
				<g>
					<g>
						<g>
							<path fill="#101010" d="M572.385,190.401l-0.977,0.179c1.792,3.507-34.635,73.583-38.099,79.825
								c-3.462,6.238-44.829,76.318-50.513,79.825l0.778,0.179c6.096-3.762,48.663-76.334,50.7-80.004
								S574.305,194.164,572.385,190.401"/>
						</g>
					</g>
				</g>
			</g>
		</g>
	</g>
</g>
<g>
</g>
<g>
</g>
<g>
</g>
<g>
</g>
<g>
</g>
<g>
</g>
<g>
</g>
</svg>
