<?xml version="1.0" encoding="utf-8"?>
<!-- Generator: Adobe Illustrator 16.0.0, SVG Export Plug-In . SVG Version: 6.00 Build 0)  -->
<!DOCTYPE svg PUBLIC "-//W3C//DTD SVG 1.1//EN" "http://www.w3.org/Graphics/SVG/1.1/DTD/svg11.dtd">
<svg version="1.1" id="Calque_1" xmlns="http://www.w3.org/2000/svg" xmlns:xlink="http://www.w3.org/1999/xlink" x="0px" y="0px"
	 width="575.978px" height="280.895px" viewBox="0 0 575.978 280.895" enable-background="new 0 0 575.978 280.895"
	 xml:space="preserve">
<g>
	<defs>
		<rect id="SVGID_1_" x="196.766" y="249.895" width="32" height="31"/>
	</defs>
	<clipPath id="SVGID_2_">
		<use xlink:href="#SVGID_1_"  overflow="visible"/>
	</clipPath>
	<path clip-path="url(#SVGID_2_)" d="M218.121,250.527c0-0.106-0.054-0.347-0.373-0.347c-0.187,0-0.24,0.026-0.666,0.533
		l-1.704,2.05c-0.958-1.704-2.822-2.583-5.14-2.583c-4.579,0-8.893,4.128-8.893,8.468c0,2.902,1.917,4.554,3.754,5.112l3.834,0.985
		c1.332,0.319,3.303,0.879,3.303,3.808c0,3.249-2.93,6.604-6.471,6.604c-2.29,0-6.284-0.771-6.284-5.219
		c0-0.879,0.187-1.73,0.213-1.943c0.054-0.16,0.08-0.187,0.08-0.267c0-0.347-0.239-0.399-0.427-0.399
		c-0.186,0-0.266,0.053-0.372,0.159c-0.134,0.134-2.13,8.335-2.13,8.441c0,0.213,0.159,0.346,0.373,0.346
		c0.186,0,0.213-0.026,0.665-0.532l1.757-2.05c1.545,2.076,3.969,2.582,6.072,2.582c4.872,0,9.105-4.766,9.105-9.213
		c0-2.477-1.225-3.701-1.757-4.207c-0.825-0.825-1.358-0.985-4.554-1.811c-0.799-0.213-2.076-0.56-2.423-0.639
		c-0.958-0.32-2.183-1.358-2.183-3.275c0-2.902,2.875-5.938,6.283-5.938c2.982,0,5.192,1.545,5.192,5.565
		c0,1.146-0.159,1.784-0.159,1.997c0,0.026,0,0.373,0.426,0.373c0.373,0,0.399-0.106,0.559-0.719L218.121,250.527"/>
	<path clip-path="url(#SVGID_2_)" d="M225.257,264.959c0-0.692-0.054-0.719-0.745-0.719c-1.598,1.598-3.889,1.624-4.927,1.624v0.905
		c0.612,0,2.264,0,3.647-0.719v12.781c0,0.825,0,1.172-2.502,1.172h-0.959v0.879c0.453,0,3.541-0.08,4.474-0.08
		c0.772,0,3.914,0.08,4.474,0.08v-0.879h-0.959c-2.503,0-2.503-0.347-2.503-1.172V264.959"/>
</g>
<g>
	<defs>
		<rect id="SVGID_3_" x="346.711" y="249.895" width="33" height="31"/>
	</defs>
	<clipPath id="SVGID_4_">
		<use xlink:href="#SVGID_3_"  overflow="visible"/>
	</clipPath>
	<path clip-path="url(#SVGID_4_)" d="M368.066,250.527c0-0.106-0.054-0.347-0.373-0.347c-0.187,0-0.24,0.026-0.666,0.533
		l-1.704,2.05c-0.958-1.704-2.822-2.583-5.14-2.583c-4.579,0-8.893,4.128-8.893,8.468c0,2.902,1.917,4.554,3.754,5.112l3.834,0.985
		c1.332,0.319,3.303,0.879,3.303,3.808c0,3.249-2.93,6.604-6.471,6.604c-2.29,0-6.284-0.771-6.284-5.219
		c0-0.879,0.187-1.73,0.213-1.943c0.054-0.16,0.08-0.187,0.08-0.267c0-0.347-0.239-0.399-0.427-0.399
		c-0.186,0-0.266,0.053-0.372,0.159c-0.134,0.134-2.13,8.335-2.13,8.441c0,0.213,0.159,0.346,0.373,0.346
		c0.186,0,0.213-0.026,0.665-0.532l1.757-2.05c1.545,2.076,3.969,2.582,6.072,2.582c4.872,0,9.105-4.766,9.105-9.213
		c0-2.477-1.225-3.701-1.757-4.207c-0.825-0.825-1.358-0.985-4.554-1.811c-0.799-0.213-2.076-0.56-2.423-0.639
		c-0.958-0.32-2.183-1.358-2.183-3.275c0-2.902,2.875-5.938,6.283-5.938c2.982,0,5.192,1.545,5.192,5.565
		c0,1.146-0.159,1.784-0.159,1.997c0,0.026,0,0.373,0.426,0.373c0.373,0,0.399-0.106,0.559-0.719L368.066,250.527"/>
	<path clip-path="url(#SVGID_4_)" d="M379.463,276.329h-0.853c-0.079,0.56-0.319,2.023-0.64,2.29
		c-0.213,0.133-2.129,0.133-2.476,0.133h-4.634c2.637-2.316,3.516-3.009,5.033-4.207c1.838-1.465,3.568-3.035,3.568-5.405
		c0-3.035-2.663-4.899-5.858-4.899c-3.115,0-5.219,2.184-5.219,4.5c0,1.278,1.091,1.411,1.331,1.411
		c0.612,0,1.332-0.426,1.332-1.331c0-0.453-0.188-1.332-1.492-1.332c0.799-1.783,2.504-2.343,3.676-2.343
		c2.502,0,3.807,1.971,3.807,3.994c0,2.184-1.544,3.914-2.369,4.819l-6.018,5.965c-0.267,0.213-0.267,0.267-0.267,0.959h10.331
		L379.463,276.329"/>
</g>
<g>
	<path opacity="0.3" fill="#FFF82E" d="M150.945,244.732c0-90.651,56.819-168.028,136.786-198.459
		c79.961,30.435,136.773,107.81,136.773,198.458"/>
	<g>
		<g>
			<path fill="none" stroke="#D5232E" stroke-miterlimit="10" d="M194.462,244.732c0-10.109,8.195-18.304,18.304-18.304
				s18.304,8.194,18.304,18.304"/>
			<path fill="none" stroke="#D5232E" stroke-miterlimit="10" d="M172.911,244.732c0-22.012,17.844-39.856,39.855-39.856
				c22.011,0,39.854,17.844,39.854,39.856"/>
			<path fill="none" stroke="#D5232E" stroke-miterlimit="10" d="M151.36,244.732c0-33.916,27.492-61.409,61.407-61.409
				s61.406,27.493,61.406,61.409"/>
			<path fill="none" stroke="#D5232E" stroke-miterlimit="10" d="M129.809,244.731c0-45.818,37.141-82.96,82.958-82.96
				c45.817,0,82.957,37.142,82.957,82.96"/>
			<path fill="none" stroke="#D5232E" stroke-miterlimit="10" d="M108.257,244.731c0-57.722,46.79-104.512,104.51-104.512
				s104.508,46.79,104.508,104.512"/>
			<path fill="none" stroke="#D5232E" stroke-miterlimit="10" d="M86.705,244.731c0-69.625,56.439-126.064,126.062-126.064
				c69.622,0,126.059,56.439,126.059,126.064"/>
			<path fill="none" stroke="#D5232E" stroke-miterlimit="10" d="M65.154,244.731c0-81.528,66.088-147.616,147.613-147.616
				s147.609,66.088,147.609,147.616"/>
			<path fill="none" stroke="#D5232E" stroke-miterlimit="10" d="M43.603,244.732c0-93.432,75.738-169.169,169.165-169.169
				c93.428,0,169.161,75.737,169.161,169.169"/>
			<path fill="none" stroke="#D5232E" stroke-miterlimit="10" d="M22.051,244.732c0-105.335,85.386-190.722,190.717-190.722
				S403.48,139.396,403.48,244.732"/>
			<path fill="none" stroke="#D5232E" stroke-miterlimit="10" d="M0.5,244.732c0-117.239,95.035-212.274,212.269-212.274
				s212.263,95.035,212.263,212.274"/>
		</g>
		<circle fill="#121212" cx="212.766" cy="244.732" r="2.538"/>
	</g>
	<g>
		<g>
			<path fill="none" stroke="#1D387F" stroke-miterlimit="10" d="M344.908,244.732c0-10.109,8.195-18.303,18.304-18.303
				c10.109,0,18.304,8.193,18.304,18.303"/>
			<path fill="none" stroke="#1D387F" stroke-miterlimit="10" d="M323.356,244.732c0-22.012,17.845-39.855,39.855-39.855
				c22.013,0,39.855,17.843,39.855,39.855"/>
			<path fill="none" stroke="#1D387F" stroke-miterlimit="10" d="M301.805,244.732c0-33.916,27.493-61.407,61.408-61.407
				c33.914,0,61.405,27.491,61.405,61.407"/>
			<path fill="none" stroke="#1D387F" stroke-miterlimit="10" d="M280.254,244.731c0-45.818,37.143-82.959,82.959-82.959
				c45.817,0,82.957,37.141,82.957,82.959"/>
			<path fill="none" stroke="#1D387F" stroke-miterlimit="10" d="M258.702,244.731c0-57.722,46.791-104.512,104.511-104.512
				c57.721,0,104.508,46.79,104.508,104.512"/>
			<path fill="none" stroke="#1D387F" stroke-miterlimit="10" d="M237.151,244.731c0-69.625,56.439-126.064,126.062-126.064
				c69.623,0,126.06,56.439,126.06,126.064"/>
			<path fill="none" stroke="#1D387F" stroke-miterlimit="10" d="M215.6,244.731c0-81.528,66.089-147.616,147.614-147.616
				s147.609,66.088,147.609,147.616"/>
			<path fill="none" stroke="#1D387F" stroke-miterlimit="10" d="M194.048,244.732c0-93.432,75.737-169.169,169.167-169.169
				c93.428,0,169.16,75.737,169.16,169.169"/>
			<path fill="none" stroke="#1D387F" stroke-miterlimit="10" d="M172.497,244.732c0-105.335,85.387-190.721,190.718-190.721
				c105.33,0,190.712,85.386,190.712,190.721"/>
			<path fill="none" stroke="#1D387F" stroke-miterlimit="10" d="M150.945,244.732c0-117.238,95.035-212.273,212.27-212.273
				c117.233,0,212.263,95.035,212.263,212.273"/>
		</g>
		<circle fill="#121212" cx="363.211" cy="244.732" r="2.538"/>
	</g>
	<polyline fill="none" stroke="#000000" stroke-width="2" stroke-miterlimit="10" points="323.197,148.94 212.766,244.732 
		363.211,244.732 323.197,148.94 	"/>
</g>
<g>
	<defs>
		<rect id="SVGID_5_" x="321.148" y="119.257" width="25.046" height="23.19"/>
	</defs>
	<clipPath id="SVGID_6_">
		<use xlink:href="#SVGID_5_"  overflow="visible"/>
	</clipPath>
	<path clip-path="url(#SVGID_6_)" d="M332.708,121.626c0.297-1.162,0.371-1.26,1.803-1.26h3.211c2.741,0,4.521,0.889,4.521,3.186
		c0,1.31-0.668,4.175-1.978,5.36c-1.654,1.508-3.656,1.779-5.113,1.779h-4.717L332.708,121.626 M330.312,131.555h5.656
		c4.742,0,9.361-3.483,9.361-7.213c0-2.543-2.198-5.014-6.546-5.014h-10.795c-0.641,0-1.013,0-1.013,0.618
		c0,0.42,0.297,0.42,0.964,0.42c0.445,0,1.037,0.024,1.433,0.05c0.545,0.073,0.742,0.173,0.742,0.542
		c0,0.125-0.025,0.223-0.125,0.618l-4.471,17.908c-0.346,1.285-0.395,1.556-3.038,1.556c-0.567,0-0.938,0-0.938,0.643
		c0,0.395,0.42,0.395,0.518,0.395c0.915,0,3.286-0.099,4.225-0.099c0.691,0,1.433,0.026,2.124,0.026
		c0.742,0,1.482,0.073,2.175,0.073c0.223,0,0.666,0,0.666-0.666c0-0.371-0.297-0.371-0.938-0.371c-1.235,0-2.175,0-2.175-0.592
		c0-0.197,0.074-0.37,0.1-0.568L330.312,131.555z"/>
</g>
<line fill="none" stroke="#000000" stroke-width="2" stroke-miterlimit="10" x1="287.988" y1="76.786" x2="249.864" y2="23.452"/>
<g>
	<defs>
		<rect id="SVGID_7_" x="121.414" width="162.031" height="16.509"/>
	</defs>
	<clipPath id="SVGID_8_">
		<use xlink:href="#SVGID_7_"  overflow="visible"/>
	</clipPath>
	<path clip-path="url(#SVGID_8_)" d="M125.923,2.735c0-0.798,0.065-1.026,1.807-1.026h0.57V1.025
		c-0.766,0.065-2.507,0.065-3.338,0.065c-0.863,0-2.588,0-3.354-0.065v0.684h0.57c1.726,0,1.791,0.228,1.791,1.026v11.576
		c0,0.781-0.065,1.025-1.791,1.025h-0.57v0.685c0.765-0.065,2.491-0.065,3.321-0.065c0.863,0,2.604,0,3.37,0.065v-0.685h-0.57
		c-1.742,0-1.807-0.244-1.807-1.025V2.735"/>
	<path clip-path="url(#SVGID_8_)" d="M131.296,8.466v5.877c0,0.993-0.244,0.993-1.726,0.993v0.685
		c0.781-0.017,1.888-0.065,2.491-0.065c0.57,0,1.709,0.048,2.458,0.065v-0.685c-1.482,0-1.709,0-1.709-0.993v-4.038
		c0-2.279,1.546-3.517,2.963-3.517c1.384,0,1.612,1.188,1.612,2.442v5.112c0,0.993-0.228,0.993-1.709,0.993v0.685
		c0.782-0.017,1.889-0.065,2.491-0.065c0.57,0,1.709,0.048,2.458,0.065v-0.685c-1.14,0-1.693,0-1.709-0.651v-4.201
		c0-1.888,0-2.572-0.684-3.354c-0.309-0.375-1.042-0.814-2.312-0.814c-1.595,0-2.637,0.944-3.256,2.295V6.317l-3.093,0.244v0.667
		C131.117,7.229,131.296,7.391,131.296,8.466"/>
	<path clip-path="url(#SVGID_8_)" d="M144.289,7.229h3.142V6.561h-3.142V2.507h-0.554c-0.016,1.807-0.667,4.151-2.833,4.25v0.472
		h1.872v6.073c0,2.702,2.035,2.963,2.833,2.963c1.563,0,2.182-1.563,2.182-2.963v-1.253h-0.554v1.204
		c0,1.628-0.667,2.459-1.481,2.459c-1.465,0-1.465-2.002-1.465-2.377V7.229"/>
	<path clip-path="url(#SVGID_8_)" d="M151.419,10.94h6.138c0.472,0,0.537,0,0.537-0.456c0-2.165-1.172-4.298-3.924-4.298
		c-2.54,0-4.559,2.263-4.559,4.999c0,2.947,2.296,5.08,4.819,5.08c2.686,0,3.663-2.442,3.663-2.866c0-0.212-0.163-0.261-0.277-0.261
		c-0.195,0-0.244,0.131-0.293,0.31c-0.765,2.263-2.735,2.263-2.963,2.263c-1.091,0-1.97-0.651-2.475-1.465
		C151.419,13.187,151.419,11.739,151.419,10.94 M151.452,10.484c0.13-3.272,1.97-3.826,2.719-3.826c2.263,0,2.475,2.963,2.475,3.826
		H151.452z"/>
	<path clip-path="url(#SVGID_8_)" d="M162.442,8.726V6.317l-3.061,0.244v0.667c1.546,0,1.726,0.163,1.726,1.237v5.877
		c0,0.993-0.244,0.993-1.726,0.993v0.685c0.863-0.017,1.888-0.065,2.507-0.065c0.879,0,1.921,0,2.784,0.065v-0.685h-0.456
		c-1.628,0-1.661-0.244-1.661-1.025v-3.387c0-2.166,0.912-4.135,2.589-4.135c0.146,0,0.195,0,0.244,0.032
		c-0.065,0.016-0.504,0.277-0.504,0.847c0,0.619,0.456,0.944,0.944,0.944c0.39,0,0.944-0.26,0.944-0.96
		c0-0.7-0.684-1.335-1.628-1.335C163.533,6.317,162.751,7.782,162.442,8.726"/>
	<path clip-path="url(#SVGID_8_)" d="M171.168,6.561V4.005c0-1.938,1.058-2.979,2.035-2.979c0.065,0,0.391,0,0.716,0.147
		c-0.26,0.097-0.651,0.374-0.651,0.928c0,0.504,0.342,0.944,0.945,0.944c0.635,0,0.96-0.439,0.96-0.977
		c0-0.798-0.814-1.531-1.97-1.531c-1.546,0-3.419,1.172-3.419,3.5v2.524h-1.726v0.667h1.726v7.115c0,0.993-0.228,0.993-1.709,0.993
		v0.685c0.863-0.017,1.888-0.065,2.507-0.065c0.879,0,1.905,0,2.784,0.065v-0.685h-0.456c-1.628,0-1.677-0.244-1.677-1.025V7.229
		h2.508V6.561H171.168"/>
	<path clip-path="url(#SVGID_8_)" d="M176.492,10.94h6.138c0.472,0,0.537,0,0.537-0.456c0-2.165-1.188-4.298-3.923-4.298
		c-2.557,0-4.576,2.263-4.576,4.999c0,2.947,2.312,5.08,4.836,5.08c2.686,0,3.663-2.442,3.663-2.866
		c0-0.212-0.179-0.261-0.277-0.261c-0.195,0-0.244,0.131-0.293,0.31c-0.765,2.263-2.735,2.263-2.963,2.263
		c-1.091,0-1.97-0.651-2.475-1.465C176.492,13.187,176.492,11.739,176.492,10.94 M176.525,10.484c0.13-3.272,1.97-3.826,2.719-3.826
		c2.263,0,2.475,2.963,2.475,3.826H176.525z"/>
	<path clip-path="url(#SVGID_8_)" d="M187.45,8.726V6.317l-3.061,0.244v0.667c1.547,0,1.726,0.163,1.726,1.237v5.877
		c0,0.993-0.244,0.993-1.726,0.993v0.685c0.863-0.017,1.889-0.065,2.507-0.065c0.879,0,1.921,0,2.784,0.065v-0.685h-0.456
		c-1.628,0-1.661-0.244-1.661-1.025v-3.387c0-2.166,0.911-4.135,2.589-4.135c0.146,0,0.195,0,0.244,0.032
		c-0.065,0.016-0.505,0.277-0.505,0.847c0,0.619,0.456,0.944,0.944,0.944c0.391,0,0.944-0.26,0.944-0.96
		c0-0.7-0.684-1.335-1.628-1.335C188.541,6.317,187.759,7.782,187.45,8.726"/>
	<path clip-path="url(#SVGID_8_)" d="M194.776,10.94h6.122c0.489,0,0.554,0,0.554-0.456c0-2.165-1.188-4.298-3.924-4.298
		c-2.556,0-4.575,2.263-4.575,4.999c0,2.947,2.312,5.08,4.835,5.08c2.67,0,3.663-2.442,3.663-2.866c0-0.212-0.179-0.261-0.277-0.261
		c-0.212,0-0.245,0.131-0.293,0.31c-0.765,2.263-2.751,2.263-2.963,2.263c-1.091,0-1.971-0.651-2.475-1.465
		C194.776,13.187,194.776,11.739,194.776,10.94 M194.792,10.484c0.146-3.272,1.986-3.826,2.735-3.826
		c2.263,0,2.475,2.963,2.475,3.826H194.792z"/>
	<path clip-path="url(#SVGID_8_)" d="M204.544,8.466v5.877c0,0.993-0.244,0.993-1.726,0.993v0.685
		c0.782-0.017,1.889-0.065,2.491-0.065c0.57,0,1.71,0.048,2.458,0.065v-0.685c-1.465,0-1.709,0-1.709-0.993v-4.038
		c0-2.279,1.547-3.517,2.963-3.517c1.384,0,1.629,1.188,1.629,2.442v5.112c0,0.993-0.245,0.993-1.726,0.993v0.685
		c0.781-0.017,1.888-0.065,2.491-0.065c0.569,0,1.709,0.048,2.458,0.065v-0.685c-1.14,0-1.693,0-1.709-0.651v-4.201
		c0-1.888,0-2.572-0.684-3.354c-0.309-0.375-1.042-0.814-2.312-0.814c-1.596,0-2.638,0.944-3.24,2.295V6.317l-3.109,0.244v0.667
		C204.365,7.229,204.544,7.391,204.544,8.466"/>
	<path clip-path="url(#SVGID_8_)" d="M216.853,11.233c0-3.582,1.807-4.51,2.979-4.51c0.196,0,1.579,0.033,2.345,0.814
		c-0.896,0.065-1.042,0.732-1.042,1.009c0,0.57,0.407,1.01,1.026,1.01c0.57,0,1.01-0.358,1.01-1.026c0-1.498-1.677-2.344-3.37-2.344
		c-2.736,0-4.771,2.36-4.771,5.096c0,2.8,2.182,4.982,4.722,4.982c2.946,0,3.646-2.638,3.646-2.866c0-0.212-0.211-0.212-0.277-0.212
		c-0.194,0-0.244,0.082-0.292,0.212c-0.635,2.051-2.052,2.312-2.865,2.312C218.791,15.711,216.853,14.767,216.853,11.233"/>
	<path clip-path="url(#SVGID_8_)" d="M226.442,10.94h6.138c0.473,0,0.554,0,0.554-0.456c0-2.165-1.189-4.298-3.94-4.298
		c-2.54,0-4.56,2.263-4.56,4.999c0,2.947,2.296,5.08,4.82,5.08c2.686,0,3.679-2.442,3.679-2.866c0-0.212-0.179-0.261-0.293-0.261
		c-0.195,0-0.244,0.131-0.293,0.31c-0.766,2.263-2.735,2.263-2.963,2.263c-1.091,0-1.97-0.651-2.475-1.465
		C226.442,13.187,226.442,11.739,226.442,10.94 M226.475,10.484c0.13-3.272,1.97-3.826,2.719-3.826c2.263,0,2.475,2.963,2.475,3.826
		H226.475z"/>
	<path clip-path="url(#SVGID_8_)" d="M249.692,7.212c0.195-0.244,0.195-0.276,0.195-0.375c0-0.276-0.163-0.276-0.57-0.276H242.3
		l-0.244,3.533h0.553c0.131-2.247,0.538-3.062,2.964-3.062h2.49l-6.121,8.287c-0.195,0.244-0.195,0.277-0.195,0.391
		c0,0.31,0.146,0.31,0.569,0.31h7.245l0.374-4.104h-0.553c-0.195,2.589-0.651,3.55-3.191,3.55h-2.606L249.692,7.212"/>
	<path clip-path="url(#SVGID_8_)" d="M256.351,15.711c-0.945,0-1.922-0.456-2.508-1.465c-0.553-0.977-0.553-2.312-0.553-3.093
		c0-0.863,0-2.052,0.537-3.012c0.586-1.009,1.612-1.482,2.491-1.482c0.978,0,1.921,0.489,2.491,1.433
		c0.571,0.944,0.571,2.214,0.571,3.061c0,0.781,0,1.97-0.488,2.93C258.402,15.076,257.441,15.711,256.351,15.711 M261.203,11.315
		c0-2.8-2.199-5.128-4.852-5.128c-2.751,0-4.884,2.393-4.884,5.128c0,2.833,2.279,4.95,4.851,4.95
		C258.972,16.265,261.203,14.115,261.203,11.315z"/>
	<path clip-path="url(#SVGID_8_)" d="M264.214,8.466v5.877c0,0.993-0.245,0.993-1.709,0.993v0.685
		c0.765-0.017,1.889-0.065,2.475-0.065c0.57,0,1.709,0.048,2.459,0.065v-0.685c-1.466,0-1.71,0-1.71-0.993v-4.038
		c0-2.279,1.562-3.517,2.964-3.517c1.384,0,1.627,1.188,1.627,2.442v5.112c0,0.993-0.243,0.993-1.709,0.993v0.685
		c0.766-0.017,1.889-0.065,2.475-0.065c0.57,0,1.709,0.048,2.459,0.065v-0.685c-1.141,0-1.693,0-1.71-0.651v-4.201
		c0-1.888,0-2.572-0.684-3.354c-0.31-0.375-1.026-0.814-2.296-0.814c-1.611,0-2.638,0.944-3.256,2.295V6.317l-3.094,0.244v0.667
		C264.036,7.229,264.214,7.391,264.214,8.466"/>
	<path clip-path="url(#SVGID_8_)" d="M276.458,10.94h6.138c0.472,0,0.554,0,0.554-0.456c0-2.165-1.188-4.298-3.939-4.298
		c-2.541,0-4.56,2.263-4.56,4.999c0,2.947,2.296,5.08,4.819,5.08c2.687,0,3.68-2.442,3.68-2.866c0-0.212-0.18-0.261-0.293-0.261
		c-0.196,0-0.245,0.131-0.293,0.31c-0.766,2.263-2.735,2.263-2.964,2.263c-1.091,0-1.97-0.651-2.474-1.465
		C276.458,13.187,276.458,11.739,276.458,10.94 M276.49,10.484c0.13-3.272,1.97-3.826,2.72-3.826c2.262,0,2.474,2.963,2.474,3.826
		H276.49z"/>
</g>
<g>
	<defs>
		<rect id="SVGID_9_" x="263.736" y="165.225" width="19.708" height="16.189"/>
	</defs>
	<clipPath id="SVGID_10_">
		<use xlink:href="#SVGID_9_"  overflow="visible"/>
	</clipPath>
	<path clip-path="url(#SVGID_10_)" d="M265.609,175.566c-0.075,0.375-0.225,0.957-0.225,1.087c0,0.45,0.356,0.674,0.731,0.674
		c0.299,0,0.75-0.206,0.938-0.712c0.056-0.093,0.899-3.542,1.012-3.992c0.206-0.824,0.656-2.605,0.806-3.279
		c0.094-0.338,0.807-1.519,1.406-2.081c0.207-0.168,0.938-0.825,2.024-0.825c0.657,0,1.05,0.3,1.068,0.3
		c-0.749,0.131-1.312,0.731-1.312,1.387c0,0.412,0.282,0.881,0.956,0.881c0.694,0,1.387-0.581,1.387-1.48s-0.806-1.649-2.099-1.649
		c-1.63,0-2.755,1.237-3.224,1.949c-0.206-1.143-1.125-1.949-2.305-1.949c-1.163,0-1.649,0.994-1.875,1.443
		c-0.45,0.862-0.787,2.38-0.787,2.455c0,0.244,0.262,0.244,0.3,0.244c0.263,0,0.281-0.019,0.431-0.581
		c0.432-1.799,0.938-2.999,1.856-2.999c0.431,0,0.787,0.188,0.787,1.163c0,0.524-0.075,0.805-0.412,2.118L265.609,175.566"/>
	<path clip-path="url(#SVGID_10_)" d="M280.621,169.625c0-0.469-0.037-0.487-0.523-0.487c-1.125,1.106-2.737,1.125-3.467,1.125
		v0.637c0.43,0,1.592,0,2.566-0.487v8.997c0,0.581,0,0.806-1.761,0.806h-0.675v0.637c0.319-0.019,2.493-0.075,3.148-0.075
		c0.544,0,2.757,0.056,3.149,0.075v-0.637h-0.675c-1.763,0-1.763-0.225-1.763-0.806V169.625"/>
</g>
<g>
	<defs>
		<rect id="SVGID_11_" x="352.543" y="185.775" width="20.412" height="16.189"/>
	</defs>
	<clipPath id="SVGID_12_">
		<use xlink:href="#SVGID_11_"  overflow="visible"/>
	</clipPath>
	<path clip-path="url(#SVGID_12_)" d="M354.416,196.117c-0.074,0.375-0.225,0.956-0.225,1.087c0,0.449,0.356,0.674,0.73,0.674
		c0.301,0,0.75-0.207,0.938-0.712c0.057-0.093,0.9-3.542,1.012-3.992c0.207-0.824,0.656-2.605,0.807-3.279
		c0.094-0.338,0.807-1.519,1.406-2.081c0.206-0.168,0.937-0.825,2.023-0.825c0.656,0,1.051,0.3,1.068,0.3
		c-0.75,0.131-1.312,0.731-1.312,1.387c0,0.412,0.28,0.881,0.955,0.881c0.694,0,1.388-0.581,1.388-1.48s-0.807-1.649-2.1-1.649
		c-1.631,0-2.755,1.237-3.224,1.949c-0.206-1.143-1.124-1.949-2.305-1.949c-1.163,0-1.649,0.994-1.874,1.443
		c-0.45,0.862-0.787,2.38-0.787,2.455c0,0.244,0.262,0.244,0.299,0.244c0.263,0,0.281-0.019,0.432-0.581
		c0.432-1.799,0.938-2.999,1.855-2.999c0.432,0,0.787,0.188,0.787,1.163c0,0.524-0.075,0.805-0.412,2.118L354.416,196.117"/>
	<path clip-path="url(#SVGID_12_)" d="M372.428,198.197h-0.6c-0.057,0.375-0.225,1.424-0.45,1.593
		c-0.149,0.112-1.499,0.112-1.743,0.112h-3.261c1.856-1.649,2.475-2.136,3.543-2.961c1.293-1.05,2.511-2.136,2.511-3.805
		c0-2.137-1.874-3.449-4.123-3.449c-2.193,0-3.674,1.537-3.674,3.149c0,0.899,0.769,0.993,0.938,0.993
		c0.432,0,0.938-0.299,0.938-0.938c0-0.318-0.132-0.937-1.051-0.937c0.562-1.236,1.764-1.63,2.588-1.63
		c1.762,0,2.68,1.368,2.68,2.812c0,1.518-1.088,2.736-1.668,3.374l-4.236,4.199c-0.188,0.168-0.188,0.206-0.188,0.693h7.272
		L372.428,198.197"/>
</g>
<g>
</g>
<g>
</g>
<g>
</g>
<g>
</g>
<g>
</g>
<g>
</g>
</svg>
