<?xml version="1.0" encoding="utf-8"?>
<!-- Generator: Adobe Illustrator 16.0.0, SVG Export Plug-In . SVG Version: 6.00 Build 0)  -->
<!DOCTYPE svg PUBLIC "-//W3C//DTD SVG 1.1//EN" "http://www.w3.org/Graphics/SVG/1.1/DTD/svg11.dtd">
<svg version="1.1" id="Calque_1" xmlns="http://www.w3.org/2000/svg" xmlns:xlink="http://www.w3.org/1999/xlink" x="0px" y="0px"
	 width="366.52px" height="274.139px" viewBox="0 0 366.52 274.139" enable-background="new 0 0 366.52 274.139"
	 xml:space="preserve">
<line fill="none" stroke="#000000" stroke-width="4" stroke-miterlimit="10" x1="15.137" y1="244.732" x2="167.44" y2="244.723"/>
<g>
	<defs>
		<rect id="SVGID_1_" y="250.851" width="30.274" height="23.288"/>
	</defs>
	<clipPath id="SVGID_2_">
		<use xlink:href="#SVGID_1_"  overflow="visible"/>
	</clipPath>
	<path clip-path="url(#SVGID_2_)" d="M13.766,260.466c2.811-0.62,6.139-2.563,6.139-5.374c0-2.397-2.501-4.196-6.16-4.196H5.788
		c-0.559,0-0.806,0-0.806,0.558c0,0.31,0.248,0.31,0.785,0.31c0.062,0,0.579,0,1.054,0.062c0.517,0.062,0.765,0.083,0.765,0.455
		c0,0.103-0.042,0.186-0.124,0.516l-3.721,14.965c-0.289,1.096-0.352,1.323-2.542,1.323c-0.496,0-0.765,0-0.765,0.558
		c0,0.31,0.351,0.31,0.393,0.31c0.786,0,2.749-0.083,3.514-0.083c0.786,0,2.77,0.083,3.556,0.083c0.207,0,0.558,0,0.558-0.558
		c0-0.31-0.269-0.31-0.786-0.31c-1.033,0-1.819,0-1.819-0.496c0-0.186,0.062-0.31,0.083-0.476l1.84-7.399H11.1
		c2.522,0,3.039,1.571,3.039,2.542c0,0.414-0.228,1.282-0.393,1.923c-0.207,0.785-0.455,1.819-0.455,2.377
		c0,2.997,3.349,2.997,3.721,2.997c2.356,0,3.349-2.811,3.349-3.204c0-0.331-0.311-0.331-0.352-0.331
		c-0.249,0-0.31,0.186-0.352,0.393c-0.703,2.067-1.902,2.542-2.542,2.542c-0.91,0-1.116-0.62-1.116-1.715
		c0-0.848,0.165-2.274,0.29-3.163c0.042-0.393,0.103-0.93,0.103-1.323C16.391,261.604,14.531,260.756,13.766,260.466 M9.756,252.819
		c0.166-0.662,0.249-0.93,0.786-1.013c0.248-0.042,1.137-0.042,1.695-0.042c1.984,0,5.064,0,5.064,2.77
		c0,0.951-0.434,2.873-1.53,3.948c-0.723,0.724-2.191,1.633-4.712,1.633H7.937L9.756,252.819z"/>
	<path clip-path="url(#SVGID_2_)" d="M27.016,261.769c0-0.538-0.042-0.558-0.579-0.558c-1.261,1.24-3.018,1.261-3.824,1.261v0.703
		c0.475,0,1.757,0,2.832-0.558v9.921c0,0.641,0,0.91-1.964,0.91h-0.724v0.683c0.352,0,2.729-0.062,3.453-0.062
		c0.599,0,3.059,0.062,3.493,0.062v-0.683h-0.745c-1.943,0-1.943-0.269-1.943-0.91V261.769"/>
</g>
<g>
	<defs>
		<rect id="SVGID_3_" x="151.402" y="250.851" width="31.051" height="23.288"/>
	</defs>
	<clipPath id="SVGID_4_">
		<use xlink:href="#SVGID_3_"  overflow="visible"/>
	</clipPath>
	<path clip-path="url(#SVGID_4_)" d="M165.167,260.466c2.811-0.62,6.139-2.563,6.139-5.374c0-2.397-2.501-4.196-6.159-4.196h-7.958
		c-0.559,0-0.807,0-0.807,0.558c0,0.31,0.248,0.31,0.785,0.31c0.062,0,0.579,0,1.055,0.062c0.517,0.062,0.765,0.083,0.765,0.455
		c0,0.104-0.041,0.186-0.124,0.517l-3.721,14.965c-0.289,1.096-0.352,1.323-2.543,1.323c-0.496,0-0.764,0-0.764,0.558
		c0,0.31,0.352,0.31,0.393,0.31c0.785,0,2.749-0.083,3.514-0.083c0.786,0,2.77,0.083,3.556,0.083c0.206,0,0.559,0,0.559-0.558
		c0-0.31-0.27-0.31-0.786-0.31c-1.033,0-1.819,0-1.819-0.497c0-0.186,0.062-0.31,0.082-0.475l1.841-7.399h3.328
		c2.521,0,3.038,1.57,3.038,2.542c0,0.414-0.228,1.282-0.393,1.922c-0.207,0.786-0.455,1.82-0.455,2.377
		c0,2.997,3.349,2.997,3.721,2.997c2.356,0,3.349-2.811,3.349-3.204c0-0.331-0.31-0.331-0.351-0.331
		c-0.249,0-0.312,0.186-0.353,0.393c-0.703,2.067-1.901,2.542-2.542,2.542c-0.91,0-1.116-0.62-1.116-1.715
		c0-0.848,0.165-2.274,0.29-3.163c0.041-0.393,0.103-0.93,0.103-1.323C167.792,261.604,165.932,260.756,165.167,260.466
		 M161.157,252.819c0.166-0.662,0.248-0.93,0.786-1.013c0.248-0.042,1.137-0.042,1.694-0.042c1.984,0,5.065,0,5.065,2.77
		c0,0.95-0.435,2.873-1.53,3.948c-0.723,0.723-2.19,1.633-4.713,1.633h-3.121L161.157,252.819z"/>
	<path clip-path="url(#SVGID_4_)" d="M181.725,270.595h-0.663c-0.062,0.434-0.247,1.571-0.517,1.778
		c-0.145,0.103-1.653,0.103-1.921,0.103h-3.577c2.047-1.798,2.729-2.336,3.886-3.266c1.447-1.137,2.792-2.356,2.792-4.196
		c0-2.356-2.068-3.803-4.549-3.803c-2.418,0-4.051,1.695-4.051,3.493c0,0.992,0.826,1.095,1.033,1.095
		c0.455,0,1.033-0.33,1.033-1.033c0-0.352-0.145-1.034-1.157-1.034c0.6-1.384,1.923-1.819,2.832-1.819
		c1.964,0,2.977,1.53,2.977,3.101c0,1.695-1.219,3.039-1.839,3.741l-4.693,4.63c-0.186,0.165-0.186,0.207-0.186,0.744h8.02
		L181.725,270.595"/>
</g>
<line fill="none" stroke="#000000" stroke-width="2" stroke-miterlimit="10" x1="166.927" y1="244.728" x2="362.354" y2="74.5"/>
<g>
	<g>
		
			<line fill="none" stroke="#FF0000" stroke-width="2" stroke-miterlimit="10" x1="247.236" y1="81.705" x2="227.847" y2="101.093"/>
		<g>
			<path fill="#FF0000" d="M228.863,100.078l3.278,0.798l-0.023,0.116l-4.644,2.003c-1.413,0.903-2.825,1.807-4.238,2.709
				c0.903-1.413,1.807-2.825,2.709-4.238l2.004-4.644l0.104-0.035L228.863,100.078z"/>
		</g>
	</g>
</g>
<g>
	
		<line fill="#FF0000" stroke="#FF0000" stroke-width="2" stroke-miterlimit="10" x1="333.809" y1="160.484" x2="207.471" y2="15.444"/>
	
		<line fill="#FF0000" stroke="#FF0000" stroke-width="2" stroke-miterlimit="10" x1="345.385" y1="151.02" x2="219.047" y2="5.979"/>
	
		<line fill="#FF0000" stroke="#FF0000" stroke-width="2" stroke-miterlimit="10" x1="323.405" y1="170.949" x2="197.067" y2="25.909"/>
</g>
<line fill="#FF0000" stroke="#FF0000" stroke-width="2" stroke-miterlimit="10" x1="311.405" y1="181.414" x2="185.067" y2="36.373"/>
<path fill="none" stroke="#000000" stroke-width="1.2442" stroke-miterlimit="10" d="M47.133,220.055
	c0,0,15.901,4.047,12.998,24.677"/>
<g>
	<defs>
		<rect id="SVGID_5_" x="63.8" y="210.407" width="11.657" height="20.982"/>
	</defs>
	<clipPath id="SVGID_6_">
		<use xlink:href="#SVGID_5_"  overflow="visible"/>
	</clipPath>
	<path clip-path="url(#SVGID_6_)" d="M72.356,221.54c-0.311,1.283-0.91,3.642-1.965,5.649c-0.974,1.903-2.029,3.27-3.229,3.27
		c-0.933,0-1.511-0.808-1.511-3.394c0-1.179,0.166-2.793,0.89-5.525H72.356 M66.769,220.629c0.476-1.779,1.034-4.015,2.152-6
		c0.744-1.366,1.779-2.918,3.042-2.918c1.365,0,1.53,1.779,1.53,3.373c0,1.365-0.227,2.794-0.89,5.545H66.769z M75.335,216.822
		c0-1.842-0.496-5.732-3.352-5.732c-3.87,0-8.175,7.863-8.175,14.258c0,2.628,0.808,5.732,3.354,5.732
		C71.093,231.079,75.335,223.071,75.335,216.822z"/>
</g>
<line fill="none" stroke="#000000" stroke-width="2" stroke-miterlimit="10" x1="15.137" y1="244.598" x2="279.361" y2="14.444"/>
<g>
	<defs>
		<rect id="SVGID_7_" x="86.92" y="253.703" width="14.88" height="17.585"/>
	</defs>
	<clipPath id="SVGID_8_">
		<use xlink:href="#SVGID_7_"  overflow="visible"/>
	</clipPath>
	<path clip-path="url(#SVGID_8_)" d="M91.927,268.604v-6.087c0.648-0.847,1.818-1.549,3.151-1.549c2.972,0,2.972,2.935,2.972,4.628
		c0,1.153,0,2.485-0.631,3.422c-0.702,1.009-1.819,1.261-2.61,1.261C93.116,270.279,92.162,268.982,91.927,268.604 M91.783,261.274
		v-7.114l-4.304,0.198v1.135c1.513,0,1.675,0,1.675,0.955v14.57h1.152l1.188-1.369c0.18,0.198,1.388,1.513,3.549,1.513
		c3.619,0,6.104-2.179,6.104-5.565c0-3.223-2.27-5.511-5.799-5.511C93.584,260.085,92.359,260.788,91.783,261.274z"/>
</g>
<line fill="#FF0000" stroke="#FF0000" stroke-width="2" stroke-miterlimit="10" x1="187.012" y1="266.419" x2="80.18" y2="143.771"/>
<g>
	<defs>
		
			<rect id="SVGID_9_" x="121.492" y="188.663" transform="matrix(-0.6557 -0.755 0.755 -0.6557 93.5263 436.3334)" width="49.518" height="16.357"/>
	</defs>
	<clipPath id="SVGID_10_">
		<use xlink:href="#SVGID_9_"  overflow="visible"/>
	</clipPath>
	<path clip-path="url(#SVGID_10_)" d="M136.003,173.887c0.213-0.186,0.436-0.379,0.235-0.609c-0.209-0.24-0.432-0.047-0.645,0.138
		l-11.128,9.664c-0.214,0.186-0.427,0.371-0.218,0.611c0.199,0.23,0.412,0.045,0.626-0.14L136.003,173.887"/>
	<path clip-path="url(#SVGID_10_)" d="M132.147,184.33l3.004-2.609c0.695-0.043,1.545,0.233,2.115,0.891
		c1.266,1.458-0.183,2.716-1.019,3.442c-0.567,0.494-1.226,1.065-1.958,1.155c-0.799,0.085-1.402-0.357-1.734-0.739
		C131.83,185.635,132.061,184.607,132.147,184.33 M135.696,181.108l3.51-3.049l-1.935-2.03l-0.561,0.486
		c0.641,0.737,0.719,0.827,0.248,1.235l-7.191,6.245l0.487,0.561l1.184,0c-0.013,0.183-0.152,1.333,0.774,2.399
		c1.552,1.787,3.7,2.088,5.371,0.637c1.591-1.382,1.739-3.491,0.234-5.224C137.053,181.488,136.19,181.193,135.696,181.108z"/>
	<path clip-path="url(#SVGID_10_)" d="M145.512,184.837c0.214-0.186,0.437-0.378,0.228-0.619c-0.208-0.24-0.431-0.047-0.644,0.138
		l-11.129,9.664c-0.214,0.186-0.427,0.371-0.217,0.611c0.207,0.24,0.42,0.055,0.635-0.131L145.512,184.837"/>
	<path clip-path="url(#SVGID_10_)" d="M144.431,196.177c0.178,0.312,0.848,1.461-0.015,2.21c-0.612,0.532-1.463,0.522-2.273-0.411
		c-0.872-1.004-0.565-2.034,0.254-3.136c0.129-0.175,0.158-0.231,0.058-0.347c-0.139-0.16-0.22-0.09-0.433,0.095l-1.582,1.374
		c-0.204,0.177-0.293,0.255-0.177,0.388c0.055,0.062,0.079,0.056,0.502,0.094c0.043-0.005,0.068-0.028,0.483,0
		c-0.041,0.957,0.411,1.514,0.627,1.763c1.197,1.378,2.484,1.227,3.347,0.478c0.631-0.548,0.687-1.22,0.705-1.486
		c0.035-0.731-0.276-1.287-0.611-1.87c-0.461-0.784-0.996-1.723-0.303-2.325c0.417-0.363,1.186-0.484,2.081,0.547
		c1.143,1.315,0.111,2.319-0.238,2.67c-0.099,0.102-0.006,0.208,0.017,0.234c0.14,0.161,0.202,0.106,0.434-0.094l1.208-1.05
		c0.204-0.178,0.285-0.247,0.168-0.381c-0.054-0.062-0.076-0.089-0.35-0.116c-0.075,0.003-0.29-0.029-0.364-0.042
		c-0.064-0.739-0.497-1.237-0.651-1.415c-1.273-1.466-2.468-1.226-3.144-0.639c-0.418,0.362-0.586,0.852-0.565,1.396
		C143.628,194.769,143.85,195.168,144.431,196.177"/>
	<path clip-path="url(#SVGID_10_)" d="M153.294,196.167c0.382-0.332,0.376-0.841,0.083-1.179c-0.324-0.373-0.877-0.362-1.188-0.092
		c-0.329,0.286-0.408,0.823-0.084,1.196C152.399,196.43,152.912,196.499,153.294,196.167 M151.167,197.937l-1.593-1.564
		l-0.364,0.316c0.68,0.783,0.692,0.958,0.106,1.468l-3.219,2.794c-0.542,0.471-0.658,0.337-1.353-0.462l-0.372,0.324
		c0.34,0.374,0.93,1,1.177,1.284c0.362,0.418,0.707,0.868,1.046,1.275l0.372-0.324c-0.687-0.791-0.663-0.889-0.2-1.291
		L151.167,197.937z"/>
	<path clip-path="url(#SVGID_10_)" d="M152.193,201.489l-3.209,2.787c-0.542,0.471-0.658,0.337-1.353-0.463l-0.373,0.324
		c0.372,0.41,0.931,1,1.209,1.32c0.27,0.311,0.791,0.965,1.131,1.373l0.372-0.324c-0.694-0.799-0.811-0.934-0.268-1.404l2.204-1.915
		c1.244-1.081,2.661-0.813,3.325-0.049c0.655,0.755,0.122,1.452-0.562,2.047l-2.79,2.423c-0.542,0.471-0.658,0.338-1.354-0.462
		l-0.372,0.324c0.37,0.41,0.93,1,1.209,1.32c0.27,0.311,0.791,0.965,1.129,1.373l0.373-0.324c-0.54-0.621-0.795-0.915-0.455-1.241
		l2.294-1.992c1.03-0.895,1.403-1.219,1.507-1.963c0.058-0.346-0.043-0.946-0.644-1.639c-0.765-0.88-1.768-0.993-2.798-0.689
		l1.254-1.088l-1.601-1.573l-0.364,0.316C152.783,200.804,152.78,200.979,152.193,201.489"/>
	<path clip-path="url(#SVGID_10_)" d="M162.021,213.13c-0.666,0.345-1.896,0.976-3.159,1.263c-1.182,0.292-2.161,0.349-2.608-0.167
		c-0.349-0.4-0.217-0.95,0.895-1.915c0.506-0.44,1.261-0.971,2.704-1.679L162.021,213.13 M160.329,210.39
		c0.942-0.459,2.11-1.053,3.38-1.314c0.865-0.189,1.917-0.324,2.389,0.218c0.509,0.586-0.193,1.322-0.878,1.916
		c-0.586,0.51-1.285,0.944-2.715,1.686L160.329,210.39z M165.16,212.65c0.791-0.688,2.277-2.352,1.212-3.579
		c-1.444-1.662-6.426-0.578-9.174,1.808c-1.129,0.98-2.161,2.484-1.211,3.578C157.453,216.146,162.476,214.98,165.16,212.65z"/>
</g>
<g>
	<defs>
		
			<rect id="SVGID_11_" x="-2.718" y="164.239" transform="matrix(-0.7637 0.6455 -0.6455 -0.7637 178.2437 279.6004)" width="81.349" height="16.358"/>
	</defs>
	<clipPath id="SVGID_12_">
		<use xlink:href="#SVGID_11_"  overflow="visible"/>
	</clipPath>
	<path clip-path="url(#SVGID_12_)" d="M8.344,194.083c0.777,0.299,1.691,0.651,2.429,1.523c0.676,0.8,1.927,3.211,0.794,4.169
		c-0.666,0.562-1.585,0.477-2.368-0.45C8.553,198.562,7.08,195.907,8.344,194.083 M7.979,193.944
		c-1.215,1.644-1.063,4.213,0.183,5.688c0.98,1.16,2.5,1.371,3.633,0.414c1.42-1.201,0.816-3.958-0.597-5.63
		c-0.927-1.097-1.93-1.298-2.807-1.497c-0.887-0.174-2.374-0.475-2.83-1.015c-0.22-0.26-0.229-0.762,0.194-1.12
		c0.368-0.312,0.748-0.355,1.144-0.397c0.364-0.062,0.736-0.113,0.916-0.265c0.306-0.258,0.243-0.698,0.075-0.896
		c-0.22-0.261-0.44-0.137-0.964,0.136c-0.743,0.397-0.914,0.542-1.103,0.701c-0.953,0.806-0.944,1.692-0.328,2.421
		C6.05,193.139,6.971,193.517,7.979,193.944z"/>
	<path clip-path="url(#SVGID_12_)" d="M25.454,185.494c0.171-0.144,0.396-0.334,0.19-0.577s-0.43-0.053-0.61,0.1l-7.247,6.125
		c-0.18,0.152-0.413,0.35-0.208,0.592c0.205,0.243,0.438,0.045,0.61-0.099L25.454,185.494 M23.454,183.146
		c0.18-0.152,0.405-0.342,0.2-0.584c-0.206-0.244-0.43-0.053-0.601,0.091l-7.265,6.14c-0.17,0.145-0.404,0.343-0.199,0.585
		c0.206,0.243,0.439,0.045,0.619-0.106L23.454,183.146z"/>
	<path clip-path="url(#SVGID_12_)" d="M25.844,173.08c-0.183-0.216-0.373-0.44-0.615-0.235c-0.243,0.205-0.053,0.43,0.129,0.646
		l9.514,11.257c0.183,0.216,0.365,0.431,0.607,0.227c0.243-0.205,0.061-0.421-0.122-0.637L25.844,173.08"/>
	<path clip-path="url(#SVGID_12_)" d="M36.262,177.053l-2.568-3.039c-0.033-0.696,0.254-1.541,0.919-2.104
		c1.483-1.253,2.723,0.212,3.437,1.057c0.486,0.576,1.048,1.241,1.129,1.975c0.075,0.799-0.385,1.404-0.771,1.731
		C37.562,177.388,36.538,177.143,36.262,177.053 M33.097,173.454l-3.001-3.551l-2.065,1.915l0.479,0.567
		c0.755-0.639,0.836-0.707,1.239-0.23l6.148,7.273l0.566-0.479l0.025-1.192c0.173,0.024,1.321,0.179,2.4-0.733
		c1.807-1.527,2.137-3.672,0.708-5.362c-1.36-1.61-3.458-1.794-5.22-0.305C33.495,172.102,33.179,172.968,33.097,173.454z"/>
	<path clip-path="url(#SVGID_12_)" d="M36.957,163.688c-0.183-0.216-0.373-0.44-0.615-0.235s-0.053,0.43,0.13,0.646l9.514,11.256
		c0.182,0.216,0.364,0.432,0.607,0.226c0.243-0.205,0.061-0.42-0.122-0.636L36.957,163.688"/>
	<path clip-path="url(#SVGID_12_)" d="M46.896,165.599c-1.671-1.978-1.107-3.334-0.469-3.874c0.108-0.092,0.888-0.719,1.676-0.645
		c-0.464,0.454-0.225,0.883-0.095,1.036c0.266,0.314,0.687,0.375,1.028,0.086c0.315-0.265,0.391-0.669,0.079-1.038
		c-0.699-0.827-2.012-0.52-2.946,0.271c-1.52,1.284-1.533,3.529-0.256,5.041c1.307,1.546,3.53,1.733,4.933,0.547
		c1.627-1.375,0.783-3.159,0.677-3.285c-0.099-0.117-0.225-0.01-0.261,0.021c-0.108,0.091-0.088,0.151-0.054,0.246
		c0.606,1.429-0.063,2.241-0.513,2.622C50.056,167.167,48.545,167.55,46.896,165.599"/>
	<path clip-path="url(#SVGID_12_)" d="M55.999,162.144c-0.521,0.44-1.265,0.637-2.06,0.353c-0.761-0.281-1.385-1.019-1.749-1.45
		c-0.404-0.477-0.958-1.133-1.119-1.906c-0.138-0.839,0.208-1.579,0.693-1.989c0.531-0.448,1.28-0.62,2.036-0.364
		s1.349,0.957,1.743,1.425c0.365,0.431,0.919,1.087,1.107,1.838C56.845,160.828,56.61,161.626,55.999,162.144 M56.626,157.452
		c-1.307-1.546-3.607-1.807-5.073-0.568c-1.51,1.277-1.571,3.594-0.294,5.104c1.322,1.565,3.569,1.669,4.989,0.469
		C57.714,161.218,57.934,158.998,56.626,157.452z"/>
	<path clip-path="url(#SVGID_12_)" d="M59.691,155.278c0.315-0.174,1.464-0.821,2.201,0.051c0.523,0.621,0.512,1.463-0.432,2.261
		c-1.025,0.867-2.042,0.539-3.142-0.289c-0.173-0.131-0.22-0.168-0.345-0.062c-0.154,0.129-0.085,0.21,0.098,0.426l1.353,1.6
		c0.175,0.207,0.251,0.296,0.385,0.183c0.055-0.045,0.058-0.079,0.092-0.493c0.004-0.05-0.019-0.077,0.007-0.484
		c0.965,0.048,1.52-0.39,1.781-0.611c1.394-1.178,1.259-2.467,0.522-3.338c-0.54-0.639-1.22-0.696-1.485-0.718
		c-0.723-0.052-1.283,0.252-1.869,0.579c-0.791,0.451-1.736,0.974-2.329,0.272c-0.357-0.423-0.468-1.192,0.575-2.074
		c1.331-1.124,2.32-0.081,2.658,0.282c0.109,0.093,0.217,0.002,0.244-0.021c0.153-0.13,0.1-0.192-0.098-0.426l-1.034-1.223
		c-0.174-0.207-0.244-0.288-0.378-0.173c-0.054,0.045-0.081,0.068-0.121,0.349c0.001,0.075-0.024,0.282-0.048,0.364
		c-0.739,0.054-1.233,0.472-1.413,0.624c-1.484,1.254-1.258,2.451-0.681,3.134c0.357,0.422,0.835,0.604,1.388,0.584
		C58.272,156.061,58.675,155.844,59.691,155.278"/>
	<path clip-path="url(#SVGID_12_)" d="M66.78,146.45c0.337,0.671,0.942,1.917,1.222,3.176c0.276,1.185,0.318,2.166-0.203,2.607
		c-0.404,0.341-0.952,0.204-1.902-0.92c-0.433-0.512-0.953-1.274-1.643-2.728L66.78,146.45 M64.019,148.105
		c-0.447-0.947-1.024-2.125-1.269-3.397c-0.177-0.867-0.298-1.922,0.25-2.385c0.594-0.502,1.319,0.211,1.905,0.903
		c0.502,0.594,0.927,1.297,1.65,2.736L64.019,148.105z M66.343,143.305c-0.678-0.8-2.322-2.308-3.562-1.26
		c-1.682,1.422-0.665,6.418,1.684,9.197c0.965,1.142,2.455,2.194,3.562,1.259C69.734,151.058,68.638,146.021,66.343,143.305z"/>
</g>
<g>
	<defs>
		<rect id="SVGID_13_" x="320.682" y="22.848" width="26.254" height="13.525"/>
	</defs>
	<clipPath id="SVGID_14_">
		<use xlink:href="#SVGID_13_"  overflow="visible"/>
	</clipPath>
	<path clip-path="url(#SVGID_14_)" fill="#FF1A0F" d="M332.926,30.357c-1.165,2.055-3.283,4.936-6.504,4.936
		c-3.029,0-4.575-2.966-4.575-5.55c0-2.796,1.907-5.105,4.427-5.105c1.653,0,2.945,1.208,3.539,1.8
		C330.533,27.201,331.189,28.09,332.926,30.357 M334.897,29.128c1.186-2.055,3.305-4.957,6.524-4.957
		c3.029,0,4.576,2.986,4.576,5.55c0,2.796-1.929,5.126-4.429,5.126c-1.674,0-2.944-1.207-3.559-1.8
		C337.311,32.264,336.655,31.374,334.897,29.128z M334.156,28.154c-1.526-1.949-1.887-2.373-2.755-3.093
		c-1.61-1.271-3.22-1.801-4.66-1.801c-3.348,0-5.528,3.157-5.528,6.483c0,3.305,2.117,6.461,5.4,6.461
		c3.284,0,5.656-2.584,7.055-4.872c1.546,1.927,1.886,2.373,2.775,3.072c1.609,1.292,3.199,1.8,4.661,1.8
		c3.347,0,5.507-3.135,5.507-6.482c0-3.284-2.098-6.462-5.381-6.462C337.926,23.26,335.553,25.866,334.156,28.154z"/>
</g>
<g>
	<defs>
		
			<rect id="SVGID_15_" x="341.387" y="6.058" transform="matrix(-0.7353 0.6777 -0.6777 -0.7353 621.6643 -216.4604)" width="23.422" height="14.195"/>
	</defs>
	<clipPath id="SVGID_16_">
		<use xlink:href="#SVGID_15_"  overflow="visible"/>
	</clipPath>
	<path clip-path="url(#SVGID_16_)" fill="#FF1A0F" d="M359.792,7.694c-0.297,1.739-0.107,2.978-0.016,3.356
		c0.343,2.074,1.278,3.396,1.291,3.41c0.205,0.223,0.428,0.018,0.581-0.123c0.319-0.294,0.308-0.336,0.07-0.759
		c-1.259-2.233-1.608-4.815-0.275-7.636c0.145-0.289,0.176-0.367,0.047-0.506c-0.115-0.125-0.279-0.078-0.345-0.067
		c-1.114,0.437-4.238,1.593-7.868-0.896c-0.261-0.171-0.326-0.213-0.646,0.082c-0.152,0.141-0.375,0.346-0.171,0.568
		c0.038,0.042,1.295,1.069,3.239,1.59c0.899,0.225,2.043,0.377,3.401,0.233l-13.926,12.833c-0.334,0.308-0.681,0.628-0.335,1.002
		c0.346,0.375,0.691,0.056,1.025-0.252L359.792,7.694"/>
</g>
<g>
	<g>
		<line fill="none" stroke="#009B00" stroke-width="2" stroke-miterlimit="10" x1="15.137" y1="244.598" x2="46.432" y2="217.338"/>
		<g>
			<path fill="#009B00" d="M44.808,218.753l-4.823-1.533l0.047-0.17l7.155-2.52c2.207-1.206,4.414-2.412,6.621-3.617
				c-1.497,2.021-2.995,4.042-4.492,6.062l-3.477,6.742l-0.16,0.041L44.808,218.753z"/>
		</g>
	</g>
</g>
<g>
	<defs>
		<rect id="SVGID_17_" x="13.137" y="213.151" width="18.188" height="13.494"/>
	</defs>
	<clipPath id="SVGID_18_">
		<use xlink:href="#SVGID_17_"  overflow="visible"/>
	</clipPath>
	<path clip-path="url(#SVGID_18_)" fill="#068F00" d="M17.23,216.584c-0.781-0.156-2.156-0.391-2.156-1.375
		c0-1.312,1.969-1.312,2.375-1.312c1.578,0,2.375,0.609,2.484,1.781c0.016,0.312,0.031,0.422,0.484,0.422c0.5,0,0.5-0.11,0.5-0.594
		v-1.688c0-0.406,0-0.593-0.375-0.593c-0.094,0-0.125,0-0.953,0.406c-0.547-0.281-1.281-0.406-2.125-0.406
		c-0.641,0-3.875,0-3.875,2.765c0,0.844,0.422,1.406,0.843,1.766c0.844,0.734,1.641,0.859,3.266,1.156
		c0.75,0.125,2.328,0.406,2.328,1.656c0,1.578-1.938,1.578-2.39,1.578c-2.234,0-2.781-1.546-3.046-2.453
		c-0.094-0.297-0.203-0.297-0.5-0.297c-0.5,0-0.5,0.125-0.5,0.609v2.297c0,0.406,0,0.593,0.375,0.593c0.141,0,0.188,0,0.625-0.312
		c0.031,0,0.484-0.312,0.562-0.359c0.969,0.672,2.062,0.672,2.484,0.672c0.641,0,3.89,0,3.89-3.078c0-0.906-0.422-1.641-1.156-2.234
		C19.542,216.975,18.871,216.85,17.23,216.584"/>
	<path clip-path="url(#SVGID_18_)" fill="#068F00" d="M27.104,225.442c-0.468,0-0.922-0.156-1.265-0.469
		c-0.406-0.344-0.656-0.562-0.656-3.905c0-1.016,0-2.171,0.172-2.875c0.234-0.953,1.141-1.219,1.75-1.219
		c0.547,0,1.516,0.234,1.75,1.25c0.157,0.688,0.157,1.906,0.157,2.844c0,1.031,0,2.109-0.141,2.937
		C28.65,225.192,27.635,225.442,27.104,225.442 M31.057,221.271c0-1.812-0.188-4.983-3.953-4.983c-3.765,0-3.968,3.187-3.968,4.983
		c0,1.844,0.25,4.843,3.968,4.843C30.822,226.114,31.057,223.13,31.057,221.271z"/>
</g>
</svg>
