<?xml version="1.0" encoding="utf-8"?>
<!-- Generator: Adobe Illustrator 16.0.0, SVG Export Plug-In . SVG Version: 6.00 Build 0)  -->
<!DOCTYPE svg PUBLIC "-//W3C//DTD SVG 1.1//EN" "http://www.w3.org/Graphics/SVG/1.1/DTD/svg11.dtd">
<svg version="1.1" id="Calque_1" xmlns="http://www.w3.org/2000/svg" xmlns:xlink="http://www.w3.org/1999/xlink" x="0px" y="0px"
	 width="412.391px" height="352.998px" viewBox="0 0 412.391 352.998" enable-background="new 0 0 412.391 352.998"
	 xml:space="preserve">
<path fill="none" stroke="#8100B9" stroke-width="2" stroke-miterlimit="10" d="M44.133,298.914c0,0,15.901,4.047,12.998,24.677"/>
<path fill="none" stroke="#FF5C5C" stroke-width="2" stroke-miterlimit="10" d="M43.187,258.57c0,0,50.751,12.084,52.771,65.67"/>
<line fill="none" stroke="#000000" stroke-width="4" stroke-miterlimit="10" x1="15.137" y1="323.591" x2="167.44" y2="323.582"/>
<g>
	<defs>
		<rect id="SVGID_1_" y="329.71" width="30.274" height="23.288"/>
	</defs>
	<clipPath id="SVGID_2_">
		<use xlink:href="#SVGID_1_"  overflow="visible"/>
	</clipPath>
	<path clip-path="url(#SVGID_2_)" d="M13.766,339.325c2.811-0.62,6.139-2.563,6.139-5.374c0-2.397-2.501-4.196-6.16-4.196H5.788
		c-0.559,0-0.806,0-0.806,0.558c0,0.31,0.248,0.31,0.785,0.31c0.062,0,0.579,0,1.054,0.062c0.517,0.062,0.765,0.083,0.765,0.455
		c0,0.103-0.042,0.186-0.124,0.516l-3.721,14.965c-0.289,1.096-0.352,1.323-2.542,1.323c-0.496,0-0.765,0-0.765,0.558
		c0,0.31,0.351,0.31,0.393,0.31c0.786,0,2.749-0.083,3.514-0.083c0.786,0,2.77,0.083,3.556,0.083c0.207,0,0.558,0,0.558-0.558
		c0-0.31-0.269-0.31-0.786-0.31c-1.033,0-1.819,0-1.819-0.496c0-0.186,0.062-0.31,0.083-0.476l1.84-7.399H11.1
		c2.522,0,3.039,1.571,3.039,2.542c0,0.414-0.228,1.282-0.393,1.923c-0.207,0.785-0.455,1.819-0.455,2.377
		c0,2.997,3.349,2.997,3.721,2.997c2.356,0,3.349-2.811,3.349-3.204c0-0.331-0.311-0.331-0.352-0.331
		c-0.249,0-0.31,0.186-0.352,0.393c-0.703,2.067-1.902,2.542-2.542,2.542c-0.91,0-1.116-0.62-1.116-1.715
		c0-0.848,0.165-2.274,0.29-3.163c0.042-0.393,0.103-0.93,0.103-1.323C16.391,340.462,14.531,339.615,13.766,339.325 M9.756,331.678
		c0.166-0.662,0.249-0.93,0.786-1.013c0.248-0.042,1.137-0.042,1.695-0.042c1.984,0,5.064,0,5.064,2.77
		c0,0.951-0.434,2.873-1.53,3.948c-0.723,0.724-2.191,1.633-4.712,1.633H7.937L9.756,331.678z"/>
	<path clip-path="url(#SVGID_2_)" d="M27.016,340.628c0-0.538-0.042-0.558-0.579-0.558c-1.261,1.24-3.018,1.261-3.824,1.261v0.703
		c0.475,0,1.757,0,2.832-0.558v9.921c0,0.641,0,0.91-1.964,0.91h-0.724v0.683c0.352,0,2.729-0.062,3.453-0.062
		c0.599,0,3.059,0.062,3.493,0.062v-0.683h-0.745c-1.943,0-1.943-0.269-1.943-0.91V340.628"/>
</g>
<g>
	<defs>
		<rect id="SVGID_3_" x="151.402" y="329.71" width="31.051" height="23.288"/>
	</defs>
	<clipPath id="SVGID_4_">
		<use xlink:href="#SVGID_3_"  overflow="visible"/>
	</clipPath>
	<path clip-path="url(#SVGID_4_)" d="M165.167,339.325c2.811-0.62,6.139-2.563,6.139-5.374c0-2.397-2.501-4.196-6.159-4.196h-7.958
		c-0.559,0-0.807,0-0.807,0.558c0,0.31,0.248,0.31,0.785,0.31c0.062,0,0.579,0,1.055,0.062c0.517,0.062,0.765,0.083,0.765,0.455
		c0,0.104-0.041,0.186-0.124,0.517l-3.721,14.965c-0.289,1.096-0.352,1.323-2.543,1.323c-0.496,0-0.764,0-0.764,0.558
		c0,0.31,0.352,0.31,0.393,0.31c0.785,0,2.749-0.083,3.514-0.083c0.786,0,2.77,0.083,3.556,0.083c0.206,0,0.559,0,0.559-0.558
		c0-0.31-0.27-0.31-0.786-0.31c-1.033,0-1.819,0-1.819-0.497c0-0.186,0.062-0.31,0.082-0.475l1.841-7.399h3.328
		c2.521,0,3.038,1.57,3.038,2.542c0,0.414-0.228,1.282-0.393,1.922c-0.207,0.786-0.455,1.82-0.455,2.377
		c0,2.997,3.349,2.997,3.721,2.997c2.356,0,3.349-2.811,3.349-3.204c0-0.331-0.31-0.331-0.351-0.331
		c-0.249,0-0.312,0.186-0.353,0.393c-0.703,2.067-1.901,2.542-2.542,2.542c-0.91,0-1.116-0.62-1.116-1.715
		c0-0.848,0.165-2.274,0.29-3.163c0.041-0.393,0.103-0.93,0.103-1.323C167.792,340.462,165.932,339.615,165.167,339.325
		 M161.157,331.678c0.166-0.662,0.248-0.93,0.786-1.013c0.248-0.042,1.137-0.042,1.694-0.042c1.984,0,5.065,0,5.065,2.77
		c0,0.95-0.435,2.873-1.53,3.948c-0.723,0.723-2.19,1.633-4.713,1.633h-3.121L161.157,331.678z"/>
	<path clip-path="url(#SVGID_4_)" d="M181.725,349.454h-0.663c-0.062,0.434-0.247,1.571-0.517,1.778
		c-0.145,0.103-1.653,0.103-1.921,0.103h-3.577c2.047-1.798,2.729-2.336,3.886-3.266c1.447-1.137,2.792-2.356,2.792-4.196
		c0-2.356-2.068-3.803-4.549-3.803c-2.418,0-4.051,1.695-4.051,3.493c0,0.992,0.826,1.095,1.033,1.095
		c0.455,0,1.033-0.33,1.033-1.033c0-0.352-0.145-1.034-1.157-1.034c0.6-1.384,1.923-1.819,2.832-1.819
		c1.964,0,2.977,1.53,2.977,3.101c0,1.695-1.219,3.039-1.839,3.741l-4.693,4.63c-0.186,0.165-0.186,0.207-0.186,0.744h8.02
		L181.725,349.454"/>
</g>
<line fill="none" stroke="#8100B9" stroke-width="2" stroke-miterlimit="10" x1="166.927" y1="323.586" x2="411.569" y2="110.489"/>
<path fill="#8100B9" d="M72.202,303.123c-0.311,1.283-0.91,3.642-1.965,5.649c-0.974,1.903-2.029,3.27-3.229,3.27
	c-0.933,0-1.511-0.808-1.511-3.394c0-1.179,0.166-2.793,0.89-5.525H72.202 M66.615,302.212c0.476-1.779,1.034-4.015,2.152-6
	c0.744-1.366,1.779-2.918,3.042-2.918c1.365,0,1.53,1.779,1.53,3.373c0,1.365-0.227,2.794-0.89,5.545H66.615z M75.182,298.405
	c0-1.842-0.496-5.732-3.352-5.732c-3.87,0-8.175,7.863-8.175,14.258c0,2.628,0.808,5.732,3.354,5.732
	C70.939,312.663,75.182,304.655,75.182,298.405z"/>
<g>
	<defs>
		<rect id="SVGID_5_" x="86.92" y="332.562" width="14.88" height="17.585"/>
	</defs>
	<clipPath id="SVGID_6_">
		<use xlink:href="#SVGID_5_"  overflow="visible"/>
	</clipPath>
	<path clip-path="url(#SVGID_6_)" d="M91.927,347.463v-6.087c0.648-0.847,1.818-1.549,3.151-1.549c2.972,0,2.972,2.935,2.972,4.628
		c0,1.153,0,2.485-0.631,3.422c-0.702,1.009-1.819,1.261-2.61,1.261C93.116,349.138,92.162,347.841,91.927,347.463 M91.783,340.133
		v-7.114l-4.304,0.198v1.135c1.513,0,1.675,0,1.675,0.955v14.57h1.152l1.188-1.369c0.18,0.198,1.388,1.513,3.549,1.513
		c3.619,0,6.104-2.179,6.104-5.565c0-3.223-2.27-5.511-5.799-5.511C93.584,338.944,92.359,339.646,91.783,340.133z"/>
</g>
<g>
	<path fill="#8100B9" d="M192.265,314.798c-0.888-0.178-2.451-0.444-2.451-1.563c0-1.492,2.238-1.492,2.7-1.492
		c1.793,0,2.699,0.693,2.823,2.025c0.018,0.354,0.035,0.479,0.551,0.479c0.568,0,0.568-0.125,0.568-0.675v-1.919
		c0-0.462,0-0.674-0.427-0.674c-0.106,0-0.142,0-1.083,0.461c-0.622-0.32-1.456-0.461-2.415-0.461c-0.729,0-4.404,0-4.404,3.143
		c0,0.959,0.479,1.599,0.958,2.008c0.959,0.835,1.865,0.977,3.713,1.314c0.853,0.142,2.646,0.462,2.646,1.882
		c0,1.794-2.203,1.794-2.717,1.794c-2.54,0-3.161-1.758-3.463-2.789c-0.106-0.337-0.231-0.337-0.568-0.337
		c-0.568,0-0.568,0.142-0.568,0.692v2.612c0,0.462,0,0.674,0.426,0.674c0.16,0,0.213,0,0.711-0.355c0.035,0,0.55-0.355,0.639-0.409
		c1.102,0.764,2.345,0.764,2.824,0.764c0.729,0,4.423,0,4.423-3.499c0-1.03-0.48-1.865-1.315-2.54
		C194.893,315.243,194.129,315.1,192.265,314.798"/>
	<path fill="#8100B9" d="M203.491,324.87c-0.532,0-1.049-0.177-1.438-0.533c-0.462-0.391-0.746-0.639-0.746-4.44
		c0-1.155,0-2.469,0.195-3.269c0.267-1.083,1.297-1.385,1.989-1.385c0.621,0,1.723,0.266,1.988,1.42
		c0.179,0.782,0.179,2.167,0.179,3.233c0,1.172,0,2.397-0.16,3.339C205.25,324.585,204.094,324.87,203.491,324.87 M207.985,320.126
		c0-2.06-0.214-5.666-4.494-5.666s-4.512,3.624-4.512,5.666c0,2.097,0.284,5.507,4.512,5.507
		C207.717,325.633,207.985,322.241,207.985,320.126z"/>
</g>
<g>
	<g>
		
			<line fill="none" stroke="#8100B9" stroke-width="3" stroke-miterlimit="10" x1="164.924" y1="325.091" x2="196.219" y2="297.832"/>
		<g>
			<path fill="#8100B9" d="M194.595,299.246l-4.822-1.533l0.047-0.17l7.155-2.52c2.207-1.206,4.414-2.412,6.621-3.617
				c-1.497,2.021-2.994,4.042-4.491,6.062l-3.478,6.742l-0.159,0.041L194.595,299.246z"/>
		</g>
	</g>
</g>
<path fill="#FF5C5C" d="M14.782,289.8c-0.845-0.168-2.313-0.405-2.313-1.486c0-1.402,2.111-1.402,2.551-1.402
	c1.705,0,2.567,0.659,2.686,1.909c0.017,0.337,0.051,0.456,0.523,0.456c0.54,0,0.54-0.118,0.54-0.642v-1.824
	c0-0.422,0-0.642-0.405-0.642c-0.084,0-0.135,0-1.03,0.439c-0.591-0.288-1.385-0.439-2.298-0.439c-0.675,0-4.188,0-4.188,2.989
	c0,0.913,0.456,1.537,0.913,1.909c0.912,0.811,1.773,0.946,3.529,1.267c0.828,0.136,2.534,0.423,2.534,1.774
	c0,1.706-2.095,1.706-2.601,1.706c-2.416,0-3.008-1.655-3.277-2.635c-0.119-0.321-0.236-0.321-0.558-0.321
	c-0.541,0-0.541,0.135-0.541,0.659V296c0,0.423,0,0.642,0.405,0.642c0.17,0,0.203,0,0.693-0.354c0.017,0,0.523-0.338,0.59-0.389
	c1.048,0.744,2.23,0.744,2.688,0.744c0.709,0,4.205,0,4.205-3.328c0-0.98-0.456-1.791-1.25-2.416
	C17.299,290.24,16.573,290.088,14.782,289.8"/>
<g>
	<path d="M319.958,268.126c0.247,0,0.571,0,0.571-0.35c0-0.351-0.324-0.351-0.584-0.351h-10.46c-0.26,0-0.598,0-0.598,0.351
		c0,0.35,0.338,0.35,0.584,0.35H319.958 M319.945,264.726c0.26,0,0.584,0,0.584-0.35c0-0.351-0.324-0.351-0.571-0.351h-10.486
		c-0.246,0-0.584,0-0.584,0.351c0,0.35,0.338,0.35,0.598,0.35H319.945z"/>
	<path fill="#FF5C5C" d="M330.081,265.31c-0.648-0.13-1.79-0.324-1.79-1.142c0-1.091,1.635-1.091,1.96-1.091
		c1.323,0,1.985,0.507,2.062,1.48c0.026,0.259,0.039,0.351,0.416,0.351c0.415,0,0.415-0.091,0.415-0.493v-1.402
		c0-0.337,0-0.493-0.312-0.493c-0.078,0-0.104,0-0.792,0.337c-0.454-0.233-1.064-0.337-1.765-0.337c-0.532,0-3.231,0-3.231,2.297
		c0,0.701,0.351,1.168,0.7,1.467c0.701,0.61,1.377,0.714,2.726,0.96c0.623,0.104,1.935,0.337,1.935,1.375
		c0,1.311-1.609,1.311-1.986,1.311c-1.855,0-2.322-1.285-2.53-2.038c-0.078-0.247-0.169-0.247-0.416-0.247
		c-0.428,0-0.428,0.104-0.428,0.506v1.908c0,0.337,0,0.493,0.324,0.493c0.117,0,0.156,0,0.52-0.26c0.025,0,0.402-0.259,0.454-0.298
		c0.805,0.558,1.726,0.558,2.076,0.558c0.532,0,3.232,0,3.232-2.557c0-0.752-0.351-1.363-0.961-1.856
		C332.001,265.634,331.444,265.531,330.081,265.31"/>
	<path d="M349.718,266.426c0.298,0,0.609,0,0.609-0.35c0-0.351-0.312-0.351-0.609-0.351h-9.476c-0.298,0-0.609,0-0.609,0.351
		c0,0.35,0.312,0.35,0.609,0.35H349.718"/>
	<path fill="#8100B9" d="M359.374,265.31c-0.648-0.13-1.791-0.324-1.791-1.142c0-1.091,1.636-1.091,1.96-1.091
		c1.324,0,1.985,0.507,2.076,1.48c0.014,0.259,0.026,0.351,0.402,0.351c0.415,0,0.415-0.091,0.415-0.493v-1.402
		c0-0.337,0-0.493-0.311-0.493c-0.078,0-0.104,0-0.792,0.337c-0.454-0.233-1.064-0.337-1.766-0.337c-0.532,0-3.219,0-3.219,2.297
		c0,0.701,0.352,1.168,0.701,1.467c0.688,0.61,1.363,0.714,2.713,0.96c0.623,0.104,1.934,0.337,1.934,1.375
		c0,1.311-1.608,1.311-1.986,1.311c-1.855,0-2.31-1.285-2.53-2.038c-0.077-0.247-0.169-0.247-0.415-0.247
		c-0.416,0-0.416,0.104-0.416,0.506v1.908c0,0.337,0,0.493,0.312,0.493c0.117,0,0.156,0,0.52-0.26c0.026,0,0.402-0.259,0.454-0.298
		c0.805,0.558,1.727,0.558,2.076,0.558c0.532,0,3.232,0,3.232-2.557c0-0.752-0.351-1.363-0.961-1.856
		C361.294,265.634,360.736,265.531,359.374,265.31"/>
	<path fill="#8100B9" d="M367.524,272.668c-0.389,0-0.766-0.129-1.051-0.389c-0.337-0.286-0.545-0.467-0.545-3.245
		c0-0.844,0-1.804,0.143-2.388c0.194-0.792,0.947-1.013,1.453-1.013c0.468,0,1.26,0.195,1.454,1.038
		c0.129,0.571,0.129,1.584,0.129,2.362c0,0.856,0,1.752-0.116,2.44C368.823,272.461,367.979,272.668,367.524,272.668
		 M370.808,269.203c0-1.505-0.156-4.14-3.284-4.14c-3.127,0-3.283,2.647-3.283,4.14c0,1.532,0.195,4.024,3.283,4.024
		C370.613,273.227,370.808,270.748,370.808,269.203z"/>
	<g>
		<defs>
			<rect id="SVGID_7_" x="289.44" y="262.394" width="11.698" height="8.286"/>
		</defs>
		<clipPath id="SVGID_8_">
			<use xlink:href="#SVGID_7_"  overflow="visible"/>
		</clipPath>
		<path clip-path="url(#SVGID_8_)" fill="#C55500" d="M293.009,269.901c-1.519,0-1.519-1.233-1.519-1.506
			c0-0.675,0.389-2.336,0.791-2.985c0.351-0.584,0.922-1.116,2.259-1.116c1.428,0,1.609,0.597,1.609,1.233
			c0,0.52-0.351,2.271-0.909,3.128C294.514,269.745,293.502,269.901,293.009,269.901 M294.891,262.62
			c-3.608,0-5.205,3.31-5.205,5.126c0,1.881,1.415,2.777,3.297,2.777c3.192,0,5.049-2.414,5.049-4.893
			c0-0.441-0.065-0.922-0.234-1.337h1.675c0.338,0,0.61,0,0.87-0.259c0.13-0.13,0.35-0.337,0.35-0.74
			c0-0.674-0.609-0.674-0.921-0.674H294.891z"/>
	</g>
</g>
<line fill="none" stroke="#FF5C5C" stroke-width="2" stroke-miterlimit="10" x1="285.465" y1="75.341" x2="123.987" y2="10"/>
<g>
	<line fill="none" stroke="#8100B9" stroke-width="2" stroke-miterlimit="10" x1="15.137" y1="323.457" x2="343.515" y2="37.421"/>
	<line fill="none" stroke="#8100B9" stroke-width="2" stroke-miterlimit="10" x1="400.034" y1="167.19" x2="286.997" y2="37.421"/>
	<line fill="none" stroke="#8100B9" stroke-width="2" stroke-miterlimit="10" x1="389.978" y1="175.374" x2="276.941" y2="45.604"/>
	<line fill="none" stroke="#8100B9" stroke-width="2" stroke-miterlimit="10" x1="380.474" y1="184.19" x2="267.437" y2="54.421"/>
</g>
<line fill="none" stroke="#FF5C5C" stroke-width="2" stroke-miterlimit="10" x1="279.817" y1="86.091" x2="118.338" y2="20.75"/>
<line fill="none" stroke="#FF5C5C" stroke-width="2" stroke-miterlimit="10" x1="274.691" y1="97.906" x2="113.212" y2="32.565"/>
<g>
	<path fill="#FF5C5C" d="M97.16,280.269c-0.294,1.236-0.844,3.473-1.863,5.376c-0.922,1.805-1.923,3.1-3.062,3.1
		c-0.882,0-1.432-0.765-1.432-3.218c0-1.118,0.156-2.649,0.843-5.258H97.16 M91.862,279.425c0.452-1.687,0.981-3.806,2.041-5.69
		c0.707-1.294,1.688-2.766,2.884-2.766c1.296,0,1.452,1.688,1.452,3.198c0,1.295-0.216,2.648-0.843,5.258H91.862z M99.986,275.815
		c0-1.747-0.472-5.435-3.179-5.435c-3.669,0-7.75,7.456-7.75,13.518c0,2.492,0.765,5.435,3.178,5.435
		C95.963,289.333,99.986,281.74,99.986,275.815z"/>
	<path fill="#FF5C5C" d="M106.5,269.419c0.137-0.314,0.157-0.471,0.157-0.588c0-0.569-0.511-1.021-1.079-1.021
		c-0.707,0-0.923,0.569-1.021,0.863l-2.433,8.005c-0.02,0.04-0.099,0.275-0.099,0.294c0,0.216,0.569,0.412,0.727,0.412
		c0.117,0,0.137-0.04,0.274-0.314L106.5,269.419"/>
</g>
<g>
	<line fill="none" stroke="#FF5C5C" stroke-width="2" stroke-miterlimit="10" x1="16.602" y1="325.198" x2="148.038" y2="0.375"/>
	<line fill="none" stroke="#FF5C5C" stroke-width="2" stroke-miterlimit="10" x1="165.924" y1="325.198" x2="297.361" y2="0.375"/>
	<g>
		<g>
			
				<line fill="none" stroke="#FF5C5C" stroke-width="3" stroke-miterlimit="10" x1="16.137" y1="325.091" x2="29.763" y2="291.419"/>
			<g>
				<path fill="#FF5C5C" d="M28.955,293.416l-4.994,0.816l-0.036-0.173l5.24-5.485c1.422-2.074,2.844-4.148,4.267-6.223
					c-0.42,2.479-0.841,4.959-1.261,7.439l-0.049,7.585l-0.124,0.109L28.955,293.416z"/>
			</g>
		</g>
	</g>
</g>
<g>
	
		<rect x="282.62" y="251.327" fill="none" stroke="#000000" stroke-width="0.9489" stroke-miterlimit="10" width="95.009" height="87.294"/>
	<g>
		<g>
			<g>
				<line fill="#D06A00" x1="351.23" y1="296.704" x2="328.796" y2="284.974"/>
				<g>
					
						<line fill="none" stroke="#D06A00" stroke-width="2.2993" stroke-miterlimit="10" x1="351.23" y1="296.704" x2="335.441" y2="288.448"/>
					<g>
						<path fill="#D06A00" d="M336.904,289.213l0.25,3.87l-0.135,0.014l-3.794-4.405c-1.477-1.239-2.952-2.479-4.429-3.718
							c1.86,0.505,3.72,1.011,5.58,1.516l5.783,0.602l0.074,0.103L336.904,289.213z"/>
					</g>
				</g>
			</g>
			<g>
				<defs>
					<rect id="SVGID_9_" x="341.558" y="278.815" width="11.698" height="8.286"/>
				</defs>
				<clipPath id="SVGID_10_">
					<use xlink:href="#SVGID_9_"  overflow="visible"/>
				</clipPath>
				<path clip-path="url(#SVGID_10_)" fill="#C55500" d="M345.127,286.322c-1.519,0-1.519-1.233-1.519-1.506
					c0-0.675,0.389-2.336,0.791-2.985c0.351-0.584,0.922-1.116,2.259-1.116c1.428,0,1.609,0.597,1.609,1.233
					c0,0.52-0.351,2.271-0.909,3.128C346.632,286.167,345.621,286.322,345.127,286.322 M347.009,279.042
					c-3.608,0-5.205,3.31-5.205,5.126c0,1.881,1.415,2.777,3.297,2.777c3.192,0,5.049-2.414,5.049-4.893
					c0-0.441-0.065-0.922-0.234-1.337h1.675c0.338,0,0.61,0,0.87-0.259c0.13-0.13,0.35-0.337,0.35-0.74
					c0-0.674-0.609-0.674-0.921-0.674H347.009z"/>
			</g>
			<g>
				<g>
					
						<line fill="none" stroke="#FF5C5C" stroke-width="3.2412" stroke-miterlimit="10" x1="312.558" y1="330.39" x2="325.238" y2="294.926"/>
					<g>
						<path fill="#FF5C5C" d="M324.455,297.117l-5.355,1.103l-0.046-0.186l5.413-6.153c1.443-2.302,2.887-4.604,4.33-6.907
							c-0.344,2.695-0.688,5.391-1.031,8.086l0.285,8.191l-0.129,0.123L324.455,297.117z"/>
					</g>
				</g>
			</g>
			<g>
				<g>
					
						<line fill="none" stroke="#8100B9" stroke-width="3" stroke-miterlimit="10" x1="312.558" y1="330.39" x2="343.853" y2="303.13"/>
					<g>
						<path fill="#8100B9" d="M342.229,304.544l-4.822-1.533l0.047-0.17l7.155-2.52c2.207-1.206,4.414-2.412,6.621-3.617
							c-1.497,2.021-2.994,4.042-4.491,6.062l-3.478,6.742l-0.159,0.041L342.229,304.544z"/>
					</g>
				</g>
			</g>
		</g>
		<g>
			<path fill="#8100B9" d="M343.203,315.672c-0.648-0.13-1.791-0.324-1.791-1.142c0-1.091,1.636-1.091,1.96-1.091
				c1.324,0,1.985,0.507,2.076,1.48c0.014,0.259,0.026,0.351,0.402,0.351c0.415,0,0.415-0.091,0.415-0.493v-1.402
				c0-0.337,0-0.493-0.311-0.493c-0.078,0-0.104,0-0.792,0.337c-0.454-0.233-1.064-0.337-1.766-0.337c-0.532,0-3.219,0-3.219,2.297
				c0,0.701,0.352,1.168,0.701,1.467c0.688,0.61,1.363,0.714,2.713,0.96c0.623,0.104,1.934,0.337,1.934,1.375
				c0,1.311-1.608,1.311-1.986,1.311c-1.855,0-2.31-1.285-2.53-2.038c-0.077-0.247-0.169-0.247-0.415-0.247
				c-0.416,0-0.416,0.104-0.416,0.506v1.908c0,0.337,0,0.493,0.312,0.493c0.117,0,0.156,0,0.52-0.26
				c0.026,0,0.402-0.259,0.454-0.298c0.805,0.558,1.727,0.558,2.076,0.558c0.532,0,3.232,0,3.232-2.557
				c0-0.752-0.351-1.363-0.961-1.856C345.124,315.997,344.565,315.894,343.203,315.672"/>
			<path fill="#8100B9" d="M351.353,323.031c-0.389,0-0.766-0.129-1.051-0.389c-0.337-0.286-0.545-0.467-0.545-3.245
				c0-0.844,0-1.804,0.143-2.388c0.194-0.792,0.947-1.013,1.453-1.013c0.468,0,1.26,0.195,1.454,1.038
				c0.129,0.571,0.129,1.584,0.129,2.362c0,0.856,0,1.752-0.116,2.44C352.652,322.824,351.808,323.031,351.353,323.031
				 M354.637,319.566c0-1.505-0.156-4.14-3.284-4.14c-3.127,0-3.283,2.647-3.283,4.14c0,1.532,0.195,4.024,3.283,4.024
				C354.442,323.59,354.637,321.111,354.637,319.566z"/>
		</g>
		<path fill="#FF5C5C" d="M308.646,303.26c-0.648-0.13-1.79-0.324-1.79-1.142c0-1.091,1.635-1.091,1.96-1.091
			c1.323,0,1.985,0.507,2.062,1.48c0.026,0.259,0.039,0.351,0.416,0.351c0.415,0,0.415-0.091,0.415-0.493v-1.402
			c0-0.337,0-0.493-0.312-0.493c-0.078,0-0.104,0-0.792,0.337c-0.454-0.233-1.064-0.337-1.765-0.337c-0.532,0-3.231,0-3.231,2.297
			c0,0.701,0.351,1.168,0.7,1.467c0.701,0.61,1.377,0.714,2.726,0.96c0.623,0.104,1.935,0.337,1.935,1.375
			c0,1.311-1.609,1.311-1.986,1.311c-1.855,0-2.322-1.285-2.53-2.038c-0.078-0.247-0.169-0.247-0.416-0.247
			c-0.428,0-0.428,0.104-0.428,0.506v1.908c0,0.337,0,0.493,0.324,0.493c0.117,0,0.156,0,0.52-0.26c0.025,0,0.402-0.259,0.454-0.298
			c0.805,0.558,1.726,0.558,2.076,0.558c0.532,0,3.232,0,3.232-2.557c0-0.752-0.351-1.363-0.961-1.856
			C310.567,303.585,310.009,303.481,308.646,303.26"/>
	</g>
</g>
<g>
	<g>
		<line fill="none" stroke="#FF5C5C" stroke-miterlimit="10" x1="162.766" y1="74.785" x2="175.171" y2="44.129"/>
		<g>
			<path fill="#FF5C5C" d="M163.44,73.121l-2.519-3.383l-0.121,0.083l-0.041,6.321c-0.351,2.066-0.701,4.133-1.051,6.199
				c1.186-1.729,2.37-3.457,3.556-5.186l4.367-4.571l-0.011-0.137L163.44,73.121z"/>
		</g>
	</g>
</g>
<g>
	<g>
		<line fill="none" stroke="#8100B9" stroke-miterlimit="10" x1="291.101" y1="116.957" x2="318.757" y2="92.866"/>
		<g>
			<path fill="#8100B9" d="M292.455,115.777l-0.715-4.156l-0.146,0.02l-2.897,5.618c-1.248,1.684-2.496,3.368-3.743,5.052
				c1.839-1.005,3.679-2.01,5.518-3.015l5.963-2.099l0.053-0.127L292.455,115.777z"/>
		</g>
	</g>
</g>
</svg>
