<?xml version="1.0" encoding="utf-8"?>
<!-- Generator: Adobe Illustrator 16.0.0, SVG Export Plug-In . SVG Version: 6.00 Build 0)  -->
<!DOCTYPE svg PUBLIC "-//W3C//DTD SVG 1.1//EN" "http://www.w3.org/Graphics/SVG/1.1/DTD/svg11.dtd">
<svg version="1.1" id="Calque_1" xmlns="http://www.w3.org/2000/svg" xmlns:xlink="http://www.w3.org/1999/xlink" x="0px" y="0px"
	 width="179.565px" height="171.958px" viewBox="0 0 179.565 171.958" enable-background="new 0 0 179.565 171.958"
	 xml:space="preserve">
<g>
	<g>
		<line fill="none" stroke="#FF0000" stroke-linejoin="round" x1="136.116" y1="117.406" x2="135.616" y2="117.406"/>
		
			<line fill="none" stroke="#FF0000" stroke-linejoin="round" stroke-dasharray="1.0065,1.0065" x1="134.61" y1="117.406" x2="54.593" y2="117.406"/>
		<line fill="none" stroke="#FF0000" stroke-linejoin="round" x1="54.089" y1="117.406" x2="53.589" y2="117.406"/>
	</g>
</g>
<g>
	<g>
		<line fill="none" stroke="#000000" stroke-linejoin="round" x1="64.245" y1="105.021" x2="13.711" y2="155.638"/>
		<g>
			<path d="M14.979,154.368l4.098,0.995l-0.029,0.145l-5.802,2.509c-1.765,1.13-3.529,2.261-5.294,3.391
				c1.127-1.767,2.255-3.533,3.382-5.3l2.5-5.806l0.13-0.044L14.979,154.368z"/>
		</g>
	</g>
</g>
<g>
	<g>
		<line fill="none" stroke="#000000" stroke-linejoin="round" x1="64.245" y1="105.021" x2="171.413" y2="105.021"/>
		<g>
			<path d="M169.618,105.021l-2.191-3.603l0.123-0.082l5.875,2.333c2.047,0.45,4.094,0.9,6.141,1.351
				c-2.047,0.45-4.094,0.9-6.141,1.351l-5.875,2.333l-0.123-0.062L169.618,105.021z"/>
		</g>
	</g>
</g>
<g>
	<defs>
		<rect id="SVGID_1_" x="2.292" y="162.678" width="10.372" height="9.28"/>
	</defs>
	<clipPath id="SVGID_2_">
		<use xlink:href="#SVGID_1_"  overflow="visible"/>
	</clipPath>
	<path clip-path="url(#SVGID_2_)" d="M8.354,165.708c0.116-0.51,0.567-2.312,1.933-2.312c0.102,0,0.567,0,0.988,0.261
		c-0.552,0.087-0.944,0.582-0.944,1.047c0,0.32,0.218,0.697,0.741,0.697c0.436,0,1.061-0.363,1.061-1.148
		c0-1.018-1.163-1.293-1.817-1.293c-1.148,0-1.832,1.047-2.064,1.497c-0.494-1.293-1.555-1.497-2.122-1.497
		c-2.035,0-3.154,2.529-3.154,3.023c0,0.204,0.203,0.204,0.232,0.204c0.16,0,0.218-0.043,0.262-0.218
		c0.668-2.079,1.962-2.573,2.631-2.573c0.363,0,1.046,0.175,1.046,1.308c0,0.611-0.334,1.933-1.046,4.666
		c-0.32,1.221-1.003,2.05-1.875,2.05c-0.117,0-0.567,0-0.974-0.262c0.494-0.101,0.916-0.508,0.916-1.061
		c0-0.524-0.421-0.684-0.712-0.684c-0.596,0-1.09,0.508-1.09,1.134c0,0.901,0.989,1.293,1.846,1.293
		c1.293,0,2.006-1.367,2.064-1.483c0.232,0.727,0.93,1.483,2.107,1.483c2.021,0,3.14-2.529,3.14-3.009
		c0-0.204-0.174-0.204-0.232-0.204c-0.174,0-0.218,0.072-0.262,0.217c-0.639,2.094-1.977,2.574-2.602,2.574
		c-0.756,0-1.076-0.64-1.076-1.294c0-0.436,0.116-0.872,0.334-1.729L8.354,165.708"/>
</g>
<g>
	<defs>
		<rect id="SVGID_3_" x="169.563" y="110.057" width="9.28" height="13.101"/>
	</defs>
	<clipPath id="SVGID_4_">
		<use xlink:href="#SVGID_3_"  overflow="visible"/>
	</clipPath>
	<path clip-path="url(#SVGID_4_)" d="M178.552,111.544c0.073-0.276,0.073-0.32,0.073-0.451c0-0.363-0.276-0.537-0.567-0.537
		c-0.203,0-0.508,0.116-0.683,0.421c-0.043,0.087-0.203,0.697-0.276,1.047c-0.146,0.508-0.276,1.046-0.393,1.569l-0.887,3.532
		c-0.073,0.29-0.916,1.672-2.209,1.672c-1.003,0-1.221-0.872-1.221-1.6c0-0.901,0.334-2.107,1.003-3.837
		c0.305-0.8,0.393-1.018,0.393-1.411c0-0.886-0.625-1.613-1.613-1.613c-1.861,0-2.587,2.849-2.587,3.024
		c0,0.204,0.204,0.204,0.232,0.204c0.204,0,0.218-0.044,0.32-0.364c0.523-1.832,1.309-2.428,1.977-2.428c0.16,0,0.494,0,0.494,0.625
		c0,0.495-0.204,1.003-0.334,1.381c-0.785,2.079-1.134,3.198-1.134,4.114c0,1.744,1.236,2.325,2.384,2.325
		c0.771,0,1.439-0.334,1.977-0.872c-0.247,1.017-0.479,1.977-1.265,3.009c-0.509,0.668-1.265,1.236-2.166,1.236
		c-0.262,0-1.149-0.059-1.483-0.814c0.32,0,0.567,0,0.843-0.232c0.189-0.189,0.392-0.436,0.392-0.813
		c0-0.611-0.538-0.684-0.727-0.684c-0.451,0-1.105,0.32-1.105,1.279c0,0.974,0.873,1.701,2.079,1.701
		c2.021,0,4.041-1.788,4.593-3.997L178.552,111.544"/>
</g>
<g>
	<defs>
		<rect id="SVGID_5_" x="52.049" width="9.28" height="9.28"/>
	</defs>
	<clipPath id="SVGID_6_">
		<use xlink:href="#SVGID_5_"  overflow="visible"/>
	</clipPath>
	<path clip-path="url(#SVGID_6_)" d="M54.273,7.333c1.061-1.148,1.628-1.628,2.34-2.238c0-0.03,1.206-1.062,1.918-1.774
		c1.86-1.817,2.297-2.761,2.297-2.834c0-0.204-0.189-0.204-0.218-0.204c-0.146,0-0.204,0.043-0.305,0.217
		c-0.582,0.946-0.988,1.251-1.468,1.251c-0.465,0-0.698-0.291-0.988-0.625c-0.378-0.451-0.712-0.843-1.366-0.843
		c-1.468,0-2.37,1.832-2.37,2.238c0,0.103,0.058,0.219,0.233,0.219c0.189,0,0.218-0.102,0.261-0.219
		c0.378-0.901,1.512-0.915,1.672-0.915c0.407,0,0.785,0.13,1.235,0.29c0.785,0.291,0.989,0.291,1.498,0.291
		c-0.698,0.843-2.34,2.253-2.718,2.573l-1.759,1.643c-1.337,1.308-2.021,2.426-2.021,2.572c0,0.189,0.189,0.189,0.232,0.189
		c0.16,0,0.189-0.029,0.305-0.248c0.465-0.683,1.047-1.221,1.672-1.221c0.45,0,0.654,0.175,1.134,0.741
		c0.334,0.422,0.698,0.727,1.264,0.727c1.934,0,3.067-2.485,3.067-3.009c0-0.103-0.073-0.204-0.233-0.204
		c-0.174,0-0.218,0.116-0.276,0.261c-0.451,1.265-1.701,1.643-2.34,1.643c-0.393,0-0.756-0.116-1.163-0.262
		c-0.669-0.247-0.959-0.334-1.367-0.334C54.767,7.26,54.447,7.26,54.273,7.333"/>
</g>
<line fill="none" stroke="#008C00" stroke-miterlimit="10" x1="64.246" y1="105.021" x2="64.246" y2="85.233"/>
<g>
	<g>
		<line fill="none" stroke="#000000" stroke-miterlimit="10" x1="64.246" y1="105.021" x2="64.246" y2="12.792"/>
		<g>
			<path d="M64.246,14.587l-3.603,2.191l-0.082-0.123l2.333-5.875c0.45-2.047,0.9-4.094,1.351-6.141
				c0.45,2.047,0.9,4.094,1.351,6.141l2.333,5.875l-0.062,0.123L64.246,14.587z"/>
		</g>
	</g>
</g>
<g>
	<g>
		<polyline fill="#008C00" points="4.117,53.644 1.944,55.387 2.334,55.919 4.117,54.772 5.9,55.909 6.29,55.397 4.117,53.644 		"/>
		<path fill="#008C00" d="M2.713,59.762c0.021-0.542,0.041-1.117,0.328-1.578c0.358-0.553,0.912-0.717,1.312-0.717
			c1.619,0,1.65,1.814,1.66,2.295H2.713 M6.884,60.224c0.308,0,0.441,0,0.441-0.38c0-0.43-0.082-1.434-0.779-2.131
			c-0.502-0.492-1.24-0.738-2.193-0.738c-2.213,0-3.413,1.425-3.413,3.146c0,1.855,1.383,3.197,3.607,3.197
			c2.183,0,2.777-1.465,2.777-1.701c0-0.246-0.267-0.246-0.328-0.246c-0.235,0-0.266,0.062-0.348,0.288
			c-0.288,0.666-1.077,1.106-1.978,1.106c-1.947,0-1.958-1.845-1.958-2.542H6.884z"/>
		<path fill="#008C00" d="M11.578,62.98l1.333-1.342c0.236-0.071,0.481-0.071,0.902-0.071v-0.533
			c-0.307,0.021-0.625,0.031-0.943,0.031c-0.328,0-0.994-0.031-1.066-0.031v0.533c0.123,0,0.195,0.02,0.256,0.062l-0.902,0.912
			l-0.933-0.973h0.257v-0.533c-0.062,0-0.82,0.031-1.23,0.031c-0.359,0-0.718-0.01-1.086-0.031v0.533h0.728l1.579,1.65l-1.384,1.404
			c-0.133,0.112-0.143,0.123-0.441,0.143c-0.154,0.01-0.492,0.01-0.543,0.01v0.533c0.318-0.021,0.635-0.031,0.943-0.031
			c0.256,0,0.943,0.031,1.066,0.031v-0.533c-0.154,0-0.195-0.021-0.256-0.071l1.035-1.046l1.076,1.117h-0.246v0.533
			c0,0,0.779-0.031,1.22-0.031c0.358,0,0.728,0.01,1.076,0.031v-0.533H13.31L11.578,62.98"/>
	</g>
	<g>
		<polyline fill="#008C00" points="33.352,41.602 31.179,43.344 31.568,43.877 33.352,42.729 35.125,43.867 35.514,43.354 
			33.352,41.602 		"/>
		<path fill="#008C00" d="M31.937,47.721c0.031-0.533,0.041-1.117,0.328-1.568c0.358-0.553,0.912-0.728,1.322-0.728
			c1.609,0,1.64,1.814,1.65,2.296H31.937 M36.108,48.182c0.308,0,0.452,0,0.452-0.379c0-0.42-0.092-1.435-0.779-2.121
			c-0.513-0.502-1.24-0.748-2.193-0.748c-2.214,0-3.423,1.425-3.423,3.146c0,1.855,1.383,3.198,3.607,3.198
			c2.183,0,2.788-1.466,2.788-1.702c0-0.246-0.267-0.246-0.339-0.246c-0.235,0-0.266,0.072-0.348,0.287
			c-0.287,0.667-1.076,1.107-1.978,1.107c-1.947,0-1.958-1.834-1.958-2.542H36.108z"/>
		<path fill="#008C00" d="M42.503,49.709c0.082-0.134,0.092-0.144,0.297-0.174c0.112-0.011,0.389-0.011,0.43-0.011v-0.533
			c-0.267,0.021-0.543,0.042-0.81,0.042c-0.287,0-0.667-0.011-0.953-0.042v0.533c0.226,0,0.267,0.011,0.41,0.062l-1.24,2.429
			l-1.333-2.491h0.44v-0.533c-0.03,0-0.809,0.042-1.26,0.042c-0.431,0-1.107-0.042-1.137-0.042v0.533h0.635l1.999,3.751
			c-0.062,0.123-0.348,0.686-0.379,0.728c-0.318,0.584-0.84,0.759-1.178,0.759c-0.083,0-0.103,0-0.144-0.011
			c0.164-0.123,0.256-0.297,0.256-0.512c0-0.42-0.307-0.625-0.635-0.625c-0.318,0-0.625,0.205-0.625,0.625
			c0,0.533,0.502,0.963,1.138,0.963c0.717,0,1.465-0.41,1.906-1.24L42.503,49.709"/>
	</g>
	<g>
		<polyline fill="#008C00" points="12.153,6.501 9.98,8.244 10.37,8.777 12.153,7.629 13.926,8.767 14.315,8.254 12.153,6.501 		"/>
		<path fill="#008C00" d="M10.697,12.62c0.031-0.542,0.041-1.117,0.339-1.578c0.358-0.554,0.912-0.717,1.312-0.717
			c1.619,0,1.64,1.814,1.66,2.295H10.697 M14.879,13.082c0.297,0,0.441,0,0.441-0.38c0-0.43-0.082-1.434-0.779-2.131
			c-0.512-0.492-1.24-0.738-2.193-0.738c-2.214,0-3.413,1.425-3.413,3.147c0,1.854,1.373,3.197,3.607,3.197
			c2.183,0,2.778-1.465,2.778-1.701c0-0.246-0.267-0.246-0.338-0.246c-0.236,0-0.256,0.062-0.338,0.287
			c-0.297,0.666-1.086,1.106-1.978,1.106c-1.948,0-1.968-1.845-1.968-2.542H14.879z"/>
		<path fill="#008C00" d="M20.628,14.382c0.092-0.112,0.092-0.164,0.092-0.246c0-0.246-0.164-0.246-0.338-0.246h-3.936l-0.133,1.691
			h0.605c0.082-1.035,0.522-1.25,1.425-1.25h0.799l-2.879,3.311c-0.113,0.123-0.113,0.144-0.113,0.256
			c0,0.266,0.154,0.266,0.338,0.266h4.079l0.195-1.958h-0.615c-0.092,1.045-0.399,1.466-1.537,1.466h-0.871L20.628,14.382"/>
	</g>
	<g>
		<g>
			
				<line fill="none" stroke="#008C00" stroke-width="0.7051" stroke-miterlimit="10" x1="14.849" y1="39.349" x2="14.849" y2="23.945"/>
			<g>
				<path fill="#008C00" d="M14.849,25.211l-2.541,1.545l-0.057-0.087l1.645-4.142c0.317-1.443,0.635-2.886,0.953-4.33
					c0.317,1.443,0.635,2.886,0.953,4.33l1.645,4.142l-0.043,0.087L14.849,25.211z"/>
			</g>
		</g>
	</g>
	<g>
		<g>
			
				<line fill="none" stroke="#008C00" stroke-width="0.7051" stroke-miterlimit="10" x1="14.848" y1="39.349" x2="30.252" y2="39.349"/>
			<g>
				<path fill="#008C00" d="M28.986,39.349l-1.545-2.541l0.087-0.057l4.142,1.645c1.443,0.317,2.886,0.635,4.33,0.953
					c-1.443,0.317-2.886,0.635-4.33,0.953l-4.142,1.645l-0.087-0.043L28.986,39.349z"/>
			</g>
		</g>
	</g>
	<g>
		<g>
			
				<line fill="none" stroke="#008C00" stroke-width="0.7051" stroke-miterlimit="10" x1="14.957" y1="39.349" x2="4.064" y2="50.241"/>
			<g>
				<path fill="#008C00" d="M4.959,49.346l2.889,0.704l-0.021,0.102l-4.093,1.766C2.49,52.713,1.245,53.509,0,54.305
					c0.796-1.245,1.592-2.49,2.388-3.735l1.766-4.093l0.092-0.03L4.959,49.346z"/>
			</g>
		</g>
	</g>
</g>
<g>
	<g>
		<line fill="none" stroke="#0000FF" stroke-miterlimit="10" x1="84.383" y1="134.118" x2="83.883" y2="134.118"/>
		
			<line fill="none" stroke="#0000FF" stroke-miterlimit="10" stroke-dasharray="1.0061,1.0061" x1="82.877" y1="134.118" x2="37.101" y2="134.118"/>
		<line fill="none" stroke="#0000FF" stroke-miterlimit="10" x1="36.598" y1="134.118" x2="36.098" y2="134.118"/>
	</g>
</g>
<g>
	<g>
		<line fill="none" stroke="#0000FF" stroke-miterlimit="10" x1="84.383" y1="134.118" x2="84.737" y2="133.765"/>
		
			<line fill="none" stroke="#0000FF" stroke-miterlimit="10" stroke-dasharray="1.0055,1.0055" x1="85.449" y1="133.055" x2="112.163" y2="106.442"/>
		<line fill="none" stroke="#0000FF" stroke-miterlimit="10" x1="112.519" y1="106.087" x2="112.873" y2="105.734"/>
	</g>
</g>
<path d="M55.399,107.671c-1.518,0-2.603-1.244-2.603-3.276c0-0.685,0.217-2.933,1.404-4.725c1.061-1.61,2.568-2.408,3.789-2.408
	c1.267,0,2.648,0.867,2.648,3.162c0,1.107-0.411,3.503-1.94,5.398C57.956,106.758,56.7,107.671,55.399,107.671 M62.007,101.017
	c0-2.477-1.632-4.132-3.926-4.132c-3.321,0-6.711,3.493-6.711,7.076c0,2.557,1.724,4.109,3.938,4.109
	C58.572,108.07,62.007,104.704,62.007,101.017z"/>
<line fill="none" stroke="#0000FF" stroke-miterlimit="10" stroke-dasharray="1,1" x1="64.3" y1="82.625" x2="84.695" y2="111.146"/>
<g>
	<path fill="#FF1A0F" d="M39.067,111.905c0.082-0.358,0.399-1.627,1.361-1.627c0.071,0,0.399,0,0.695,0.174
		c-0.389,0.072-0.665,0.419-0.665,0.747c0,0.225,0.153,0.481,0.521,0.481c0.307,0,0.747-0.245,0.747-0.798
		c0-0.716-0.819-0.911-1.279-0.911c-0.808,0-1.289,0.737-1.453,1.044c-0.348-0.911-1.095-1.044-1.494-1.044
		c-1.433,0-2.221,1.78-2.221,2.128c0,0.133,0.144,0.133,0.164,0.133c0.112,0,0.153-0.031,0.184-0.154
		c0.471-1.463,1.381-1.801,1.852-1.801c0.256,0,0.736,0.123,0.736,0.921c0,0.43-0.225,1.351-0.736,3.285
		c-0.225,0.859-0.706,1.432-1.32,1.432c-0.082,0-0.399,0-0.686-0.174c0.348-0.071,0.645-0.358,0.645-0.747
		c0-0.368-0.297-0.48-0.501-0.48c-0.419,0-0.767,0.358-0.767,0.798c0,0.634,0.695,0.911,1.299,0.911
		c0.911,0,1.412-0.962,1.453-1.054c0.164,0.511,0.665,1.054,1.483,1.054c1.422,0,2.21-1.78,2.21-2.128
		c0-0.133-0.123-0.133-0.164-0.133c-0.123,0-0.153,0.051-0.174,0.153c-0.46,1.474-1.401,1.801-1.842,1.801
		c-0.532,0-0.757-0.439-0.757-0.91c0-0.297,0.082-0.604,0.235-1.208L39.067,111.905"/>
	<path fill="#FF1A0F" d="M45.554,112.018c0-0.256-0.01-0.266-0.287-0.266c-0.614,0.604-1.494,0.614-1.883,0.614v0.348
		c0.225,0,0.86,0,1.392-0.266v4.911c0,0.317,0,0.44-0.962,0.44h-0.368v0.348c0.174-0.01,1.361-0.041,1.719-0.041
		c0.296,0,1.514,0.031,1.719,0.041v-0.348h-0.358c-0.972,0-0.972-0.123-0.972-0.44V112.018"/>
</g>
<g>
	<path fill="#FF1A0F" d="M52.801,33.725c0.747-0.797,1.146-1.146,1.647-1.575c0-0.01,0.849-0.737,1.351-1.238
		c1.31-1.279,1.617-1.944,1.617-2.005c0-0.133-0.123-0.133-0.154-0.133c-0.092,0-0.143,0.031-0.205,0.154
		c-0.419,0.665-0.706,0.88-1.033,0.88c-0.337,0-0.501-0.205-0.706-0.44c-0.266-0.317-0.501-0.594-0.952-0.594
		c-1.033,0-1.667,1.279-1.667,1.576c0,0.071,0.041,0.153,0.164,0.153s0.153-0.071,0.174-0.153c0.266-0.634,1.064-0.655,1.177-0.655
		c0.287,0,0.553,0.103,0.87,0.215c0.553,0.205,0.706,0.205,1.064,0.205c-0.501,0.593-1.657,1.586-1.923,1.811l-1.238,1.156
		c-0.941,0.921-1.422,1.708-1.422,1.811c0,0.133,0.133,0.133,0.164,0.133c0.113,0,0.143-0.03,0.225-0.184
		c0.317-0.481,0.727-0.85,1.167-0.85c0.317,0,0.46,0.123,0.808,0.522c0.236,0.287,0.481,0.512,0.88,0.512
		c1.361,0,2.169-1.75,2.169-2.128c0-0.062-0.062-0.133-0.164-0.133c-0.133,0-0.154,0.082-0.194,0.174
		c-0.317,0.9-1.208,1.167-1.658,1.167c-0.276,0-0.532-0.082-0.818-0.184c-0.471-0.174-0.676-0.235-0.962-0.235
		C53.149,33.685,52.924,33.685,52.801,33.725"/>
	<path fill="#FF1A0F" d="M60.608,30.82c0-0.256-0.01-0.266-0.286-0.266c-0.614,0.604-1.494,0.614-1.883,0.614v0.348
		c0.225,0,0.859,0,1.392-0.266v4.911c0,0.317,0,0.44-0.962,0.44H58.5v0.348c0.174-0.01,1.361-0.041,1.719-0.041
		c0.297,0,1.515,0.031,1.719,0.041v-0.348H61.58c-0.972,0-0.972-0.123-0.972-0.44V30.82"/>
</g>
<line fill="none" stroke="#FF0000" stroke-linejoin="round" stroke-miterlimit="10" stroke-dasharray="1,1" x1="136.116" y1="117.756" x2="148.031" y2="105.388"/>
<line fill="none" stroke="#0000FF" stroke-miterlimit="10" stroke-dasharray="1,1" x1="84.75" y1="111.045" x2="84.75" y2="134.091"/>
<line fill="none" stroke="#FF0000" stroke-linejoin="round" stroke-miterlimit="10" stroke-dasharray="1,1" x1="136.116" y1="48.42" x2="136.116" y2="117.406"/>
<g>
	<g>
		<line fill="none" stroke="#0000FF" stroke-miterlimit="10" x1="64.246" y1="105.021" x2="80.867" y2="110.332"/>
		<g>
			<path fill="#0000FF" d="M80.012,110.058l-0.496-2.049l0.071-0.02l2.443,2.005c0.907,0.526,1.813,1.052,2.719,1.578
				c-1.043-0.097-2.087-0.194-3.13-0.291l-3.153,0.218l-0.049-0.048L80.012,110.058z"/>
		</g>
	</g>
</g>
<circle fill="#0000FF" cx="84.75" cy="111.572" r="2.552"/>
<circle fill="#FF1A0F" cx="136.116" cy="48.42" r="2.621"/>
<g>
	<path fill="#0000FF" d="M20.955,130.854c-0.149,0.598-0.231,0.897-0.231,1.196c0,0.462,0.217,0.897,0.748,0.897
		c0.435,0,1.36-0.327,1.808-1.781c0.027-0.095,0.055-0.149,0.177-0.149c0.041,0,0.163,0,0.163,0.136c0,0.34-0.775,2.094-2.175,2.094
		c-0.816,0-1.306-0.53-1.469-1.033c-0.041,0.082-0.53,1.033-1.427,1.033c-0.598,0-1.278-0.272-1.278-0.897
		c0-0.435,0.34-0.789,0.748-0.789c0.204,0,0.503,0.108,0.503,0.476c0,0.381-0.299,0.667-0.639,0.734
		c0.286,0.177,0.599,0.177,0.68,0.177c0.598,0,1.074-0.571,1.292-1.414c0.503-1.903,0.734-2.814,0.734-3.236
		c0-0.789-0.476-0.911-0.734-0.911c-0.462,0-1.36,0.34-1.822,1.781c-0.027,0.123-0.068,0.149-0.177,0.149
		c-0.027,0-0.163,0-0.163-0.136c0-0.34,0.775-2.094,2.188-2.094c0.395,0,1.128,0.136,1.469,1.033
		c0.163-0.312,0.639-1.033,1.427-1.033c0.462,0,1.265,0.19,1.265,0.897c0,0.544-0.435,0.789-0.734,0.789
		c-0.367,0-0.517-0.258-0.517-0.476c0-0.326,0.272-0.666,0.653-0.734c-0.286-0.177-0.612-0.177-0.68-0.177
		c-0.952,0-1.264,1.25-1.346,1.604L20.955,130.854z"/>
</g>
<g>
	<path fill="#0000FF" d="M29.17,135.138h-3.923c0-0.267,0-0.286,0.096-0.372l2.294-2.266c0.305-0.343,0.895-1,0.895-1.828
		c0-0.771-0.495-1.514-1.447-1.514c-0.447,0-1.095,0.209-1.39,0.885c0.495,0,0.562,0.333,0.562,0.505
		c0,0.343-0.276,0.505-0.505,0.505c-0.095,0-0.505-0.048-0.505-0.533c0-0.876,0.8-1.705,1.98-1.705c1.219,0,2.229,0.705,2.229,1.857
		c0,0.904-0.657,1.495-1.362,2.057c-0.571,0.447-0.905,0.714-1.904,1.6h1.752c0.133,0,0.867,0,0.943-0.058
		c0.124-0.095,0.219-0.657,0.247-0.866h0.324L29.17,135.138z"/>
</g>
<g>
	<path fill="#0000FF" d="M112.403,100.715c-0.381,1.536-1.781,2.773-3.181,2.773c-0.843,0-1.441-0.503-1.441-1.183
		c0-0.667,0.449-0.884,0.761-0.884c0.136,0,0.503,0.054,0.503,0.476c0,0.258-0.136,0.435-0.272,0.558
		c-0.19,0.163-0.367,0.163-0.584,0.163c0.231,0.53,0.843,0.571,1.033,0.571c0.625,0,1.142-0.394,1.495-0.856
		c0.544-0.72,0.707-1.387,0.884-2.094c-0.38,0.381-0.843,0.612-1.373,0.612c-0.802,0-1.659-0.408-1.659-1.618
		c0-0.639,0.245-1.414,0.789-2.855c0.095-0.258,0.231-0.612,0.231-0.952c0-0.435-0.231-0.435-0.34-0.435
		c-0.462,0-1.006,0.408-1.373,1.686c-0.068,0.218-0.082,0.245-0.217,0.245c-0.027,0-0.164,0-0.164-0.136
		c0-0.123,0.503-2.094,1.795-2.094c0.68,0,1.115,0.503,1.115,1.115c0,0.272-0.054,0.421-0.272,0.979
		c-0.462,1.196-0.693,2.04-0.693,2.665c0,0.503,0.149,1.102,0.843,1.102c0.897,0,1.482-0.952,1.537-1.156l0.612-2.447
		c0.082-0.367,0.177-0.734,0.272-1.087c0.054-0.245,0.163-0.667,0.19-0.734c0.123-0.204,0.34-0.286,0.476-0.286
		c0.204,0,0.394,0.123,0.394,0.367c0,0.095,0,0.123-0.054,0.313L112.403,100.715z"/>
</g>
<g>
	<path fill="#0000FF" d="M118.288,102.741h-3.923c0-0.267,0-0.286,0.096-0.372l2.294-2.266c0.305-0.343,0.895-1,0.895-1.828
		c0-0.771-0.495-1.514-1.447-1.514c-0.447,0-1.095,0.209-1.39,0.885c0.495,0,0.562,0.333,0.562,0.505
		c0,0.343-0.276,0.505-0.505,0.505c-0.095,0-0.505-0.048-0.505-0.533c0-0.876,0.8-1.705,1.98-1.705c1.219,0,2.229,0.705,2.229,1.857
		c0,0.904-0.657,1.495-1.362,2.057c-0.571,0.447-0.905,0.714-1.904,1.6h1.752c0.133,0,0.867,0,0.943-0.058
		c0.124-0.095,0.219-0.657,0.247-0.866h0.324L118.288,102.741z"/>
</g>
<g>
	<path fill="#0000FF" d="M52.603,78.563c0.286,0,0.489,0.055,0.952,0.231c0.286,0.095,0.53,0.177,0.802,0.177
		c0.449,0,1.319-0.258,1.631-1.142c0.041-0.095,0.068-0.177,0.19-0.177c0.109,0,0.163,0.068,0.163,0.136
		c0,0.367-0.789,2.094-2.134,2.094c-0.395,0-0.639-0.217-0.87-0.503c-0.34-0.394-0.476-0.517-0.789-0.517
		c-0.435,0-0.843,0.367-1.156,0.843c-0.082,0.15-0.109,0.177-0.218,0.177c-0.027,0-0.163,0-0.163-0.136
		c0-0.095,0.476-0.87,1.4-1.781l1.224-1.142c0.258-0.217,1.4-1.196,1.89-1.781c-0.354,0-0.503,0-1.047-0.204
		c-0.312-0.109-0.571-0.204-0.856-0.204c-0.108,0-0.897,0.013-1.155,0.639c-0.027,0.082-0.055,0.15-0.177,0.15
		c-0.123,0-0.164-0.082-0.164-0.15c0-0.285,0.625-1.55,1.646-1.55c0.448,0,0.68,0.272,0.938,0.584
		c0.204,0.231,0.367,0.435,0.693,0.435s0.612-0.217,1.02-0.87c0.068-0.122,0.109-0.149,0.204-0.149c0.027,0,0.149,0,0.149,0.136
		c0,0.055-0.299,0.707-1.591,1.972c-0.489,0.489-1.332,1.21-1.332,1.224c-0.49,0.421-0.884,0.761-1.618,1.55
		C52.358,78.563,52.576,78.563,52.603,78.563z"/>
</g>
<g>
	<path fill="#0000FF" d="M61.273,81.772h-3.923c0-0.267,0-0.286,0.096-0.372l2.294-2.266c0.305-0.343,0.895-1,0.895-1.828
		c0-0.771-0.495-1.514-1.447-1.514c-0.447,0-1.095,0.209-1.39,0.885c0.495,0,0.562,0.333,0.562,0.505
		c0,0.343-0.276,0.505-0.505,0.505c-0.095,0-0.505-0.048-0.505-0.533c0-0.876,0.8-1.705,1.98-1.705c1.219,0,2.229,0.705,2.229,1.857
		c0,0.904-0.657,1.495-1.362,2.057c-0.571,0.447-0.905,0.714-1.904,1.6h1.752c0.133,0,0.867,0,0.943-0.058
		c0.124-0.095,0.219-0.657,0.247-0.866h0.324L61.273,81.772z"/>
</g>
<line fill="none" stroke="#FF0000" stroke-linejoin="round" stroke-miterlimit="10" stroke-dasharray="1,1" x1="64.246" y1="34.974" x2="136.116" y2="47.79"/>
<g>
	<defs>
		<rect id="SVGID_7_" x="141.522" y="60.474" width="16.439" height="19.429"/>
	</defs>
	<clipPath id="SVGID_8_">
		<use xlink:href="#SVGID_7_"  overflow="visible"/>
	</clipPath>
	<g clip-path="url(#SVGID_8_)">
		<path d="M150.849,67.582c3.885,0,6.404,2.519,6.404,6.083c0,3.724-2.76,6.136-6.752,6.136c-2.384,0-3.697-1.447-3.912-1.661
			l-1.313,1.5h-1.259V63.563c0-1.045-0.188-1.045-1.849-1.045v-1.259l4.743-0.214v7.851
			C147.553,68.359,148.893,67.582,150.849,67.582z M150.259,78.836c0.857,0,2.09-0.295,2.867-1.394
			c0.697-1.045,0.697-2.519,0.697-3.778c0-1.875,0-5.118-3.269-5.118c-1.474,0-2.76,0.777-3.483,1.715v6.725
			C147.338,77.389,148.383,78.836,150.259,78.836z"/>
	</g>
</g>
<g>
	<path fill="#FF1A0F" d="M152.868,94.396c0.051-0.195,0.051-0.226,0.051-0.318c0-0.255-0.184-0.378-0.399-0.378
		c-0.133,0-0.358,0.082-0.48,0.296c-0.031,0.062-0.133,0.491-0.194,0.737c-0.092,0.358-0.195,0.737-0.276,1.105l-0.614,2.486
		c-0.062,0.205-0.655,1.177-1.566,1.177c-0.706,0-0.859-0.614-0.859-1.126c0-0.634,0.235-1.483,0.706-2.701
		c0.225-0.563,0.276-0.716,0.276-0.993c0-0.624-0.44-1.136-1.125-1.136c-1.31,0-1.821,2.005-1.821,2.128
		c0,0.143,0.133,0.143,0.164,0.143c0.133,0,0.154-0.031,0.215-0.256c0.379-1.289,0.931-1.708,1.402-1.708
		c0.103,0,0.337,0,0.337,0.44c0,0.348-0.133,0.706-0.235,0.972c-0.553,1.463-0.798,2.251-0.798,2.896
		c0,1.228,0.87,1.637,1.688,1.637c0.532,0,1.002-0.235,1.392-0.614c-0.185,0.716-0.348,1.392-0.901,2.118
		c-0.358,0.471-0.88,0.87-1.514,0.87c-0.194,0-0.818-0.041-1.054-0.573c0.225,0,0.399,0,0.593-0.164
		c0.144-0.133,0.276-0.307,0.276-0.573c0-0.429-0.368-0.48-0.512-0.48c-0.317,0-0.767,0.225-0.767,0.9
		c0,0.686,0.604,1.197,1.463,1.197c1.422,0,2.845-1.258,3.223-2.813L152.868,94.396"/>
	<path fill="#FF1A0F" d="M156.111,95.603c0-0.266-0.02-0.276-0.286-0.276c-0.614,0.614-1.494,0.624-1.893,0.624v0.348
		c0.235,0,0.87,0,1.402-0.276v4.911c0,0.317,0,0.45-0.962,0.45h-0.368v0.338c0.174-0.01,1.361-0.031,1.708-0.031
		c0.307,0,1.515,0.021,1.729,0.031v-0.338h-0.368c-0.962,0-0.962-0.133-0.962-0.45V95.603"/>
</g>
<g>
	<g>
		
			<line fill="none" stroke="#000000" stroke-width="2" stroke-linecap="round" stroke-linejoin="round" x1="136.116" y1="48.42" x2="87.852" y2="107.263"/>
		<g>
			<path d="M88.535,106.43l2.505,0.354l-0.009,0.088l-3.318,1.838c-0.988,0.778-1.976,1.557-2.963,2.334
				c0.57-1.121,1.14-2.242,1.71-3.363l1.153-3.613l0.075-0.034L88.535,106.43z"/>
		</g>
	</g>
</g>
<g>
	<g>
		<line fill="none" stroke="#FF0000" stroke-linejoin="round" x1="64.246" y1="104.525" x2="132.903" y2="50.928"/>
		<g>
			<path fill="#FF0000" d="M132.196,51.48l-1.972-0.746l0.023-0.07l3.033-0.888c0.945-0.453,1.891-0.905,2.836-1.357
				c-0.668,0.807-1.336,1.614-2.004,2.422l-1.598,2.727l-0.067,0.014L132.196,51.48z"/>
		</g>
	</g>
</g>
<g>
	<path fill="#FF0000" d="M88.307,70.283c-1.091,0-3.051-0.284-3.051-1.802c0-2.292,4.015-2.435,5.138-2.482v-0.538
		c0-1.202-0.553-1.865-1.739-1.865c-0.19,0-0.696,0.016-1.138,0.11c0.047,0.032,0.348,0.3,0.348,0.775
		c0,0.664-0.506,0.996-0.996,0.996c-0.427,0-0.98-0.3-0.98-0.996c0-1.391,1.929-1.455,2.83-1.455c2.355,0,3.478,1.027,3.478,2.435
		v3.398c0,0.364,0,0.569,0.964,0.585c0.205,0,0.411,0,0.411,0.364c0,0.379-0.189,0.379-0.506,0.379h-0.759
		c-1.644,0-1.644-0.727-1.644-1.217C90.314,69.635,89.571,70.283,88.307,70.283z M87.105,68.465c0,0.696,0.632,1.249,1.438,1.249
		c0.395,0,1.85-0.206,1.85-1.723v-1.502C89.603,66.536,87.105,66.758,87.105,68.465z"/>
</g>
<g>
	<path fill="#FF0000" d="M97.295,71.653c0,0.365,0,0.509,1.106,0.509h0.42v0.398c-0.243-0.011-1.637-0.044-1.98-0.044
		c-0.409,0-1.77,0.033-1.969,0.044v-0.398h0.42c1.106,0,1.106-0.144,1.106-0.509v-5.642c-0.608,0.31-1.339,0.31-1.604,0.31v-0.398
		c0.453,0,1.46-0.011,2.168-0.708c0.31,0,0.332,0.011,0.332,0.31V71.653z"/>
</g>
<g>
	<path fill="#0000FF" d="M65.564,117.055c-1.091,0-3.051-0.284-3.051-1.802c0-2.292,4.015-2.435,5.138-2.482v-0.538
		c0-1.202-0.553-1.865-1.739-1.865c-0.19,0-0.696,0.016-1.138,0.11c0.047,0.032,0.348,0.3,0.348,0.775
		c0,0.664-0.506,0.996-0.996,0.996c-0.427,0-0.98-0.3-0.98-0.996c0-1.391,1.929-1.455,2.83-1.455c2.355,0,3.478,1.027,3.478,2.435
		v3.398c0,0.364,0,0.569,0.964,0.585c0.205,0,0.411,0,0.411,0.364c0,0.379-0.189,0.379-0.506,0.379h-0.759
		c-1.644,0-1.644-0.727-1.644-1.217C67.572,116.407,66.829,117.055,65.564,117.055z M64.363,115.237
		c0,0.696,0.632,1.249,1.438,1.249c0.395,0,1.85-0.206,1.85-1.723v-1.502C66.86,113.309,64.363,113.53,64.363,115.237z"/>
</g>
<g>
	<path fill="#0000FF" d="M76.101,119.333h-4.558c0-0.31,0-0.332,0.111-0.432l2.666-2.633c0.354-0.398,1.04-1.162,1.04-2.124
		c0-0.896-0.575-1.759-1.682-1.759c-0.52,0-1.272,0.243-1.615,1.029c0.575,0,0.653,0.387,0.653,0.586
		c0,0.398-0.321,0.586-0.586,0.586c-0.11,0-0.586-0.055-0.586-0.619c0-1.018,0.929-1.98,2.301-1.98c1.416,0,2.588,0.819,2.588,2.157
		c0,1.051-0.763,1.737-1.582,2.39c-0.664,0.52-1.051,0.83-2.213,1.858h2.036c0.155,0,1.007,0,1.095-0.066
		c0.144-0.11,0.254-0.763,0.288-1.006h0.376L76.101,119.333z"/>
</g>
<g>
</g>
<g>
</g>
<g>
</g>
<g>
</g>
<g>
</g>
<g>
</g>
<g>
</g>
</svg>
