<?xml version="1.0" encoding="UTF-8" standalone="no"?>
<!-- Created with Inkscape (http://www.inkscape.org/) -->

<svg
   xmlns:dc="http://purl.org/dc/elements/1.1/"
   xmlns:cc="http://creativecommons.org/ns#"
   xmlns:rdf="http://www.w3.org/1999/02/22-rdf-syntax-ns#"
   xmlns:svg="http://www.w3.org/2000/svg"
   xmlns="http://www.w3.org/2000/svg"
   xmlns:sodipodi="http://sodipodi.sourceforge.net/DTD/sodipodi-0.dtd"
   xmlns:inkscape="http://www.inkscape.org/namespaces/inkscape"
   width="788.78601"
   height="709.55566"
   id="svg2"
   version="1.1"
   inkscape:version="0.48.3.1 r9886"
   sodipodi:docname="dir_dep.pdf">
  <defs
     id="defs4">
    <marker
       inkscape:stockid="Arrow1Lstart"
       orient="auto"
       refY="0"
       refX="0"
       id="Arrow1Lstart"
       style="overflow:visible">
      <path
         id="path3964"
         d="M 0,0 5,-5 -12.5,0 5,5 0,0 z"
         style="fill-rule:evenodd;stroke:#000000;stroke-width:1pt"
         transform="matrix(0.8,0,0,0.8,10,0)"
         inkscape:connector-curvature="0" />
    </marker>
    <marker
       inkscape:stockid="Arrow1Lend"
       orient="auto"
       refY="0"
       refX="0"
       id="Arrow1Lend"
       style="overflow:visible">
      <path
         id="path3967"
         d="M 0,0 5,-5 -12.5,0 5,5 0,0 z"
         style="fill-rule:evenodd;stroke:#000000;stroke-width:1pt"
         transform="matrix(-0.8,0,0,-0.8,-10,0)"
         inkscape:connector-curvature="0" />
    </marker>
  </defs>
  <sodipodi:namedview
     id="base"
     pagecolor="#ffffff"
     bordercolor="#666666"
     borderopacity="1.0"
     inkscape:pageopacity="0.0"
     inkscape:pageshadow="2"
     inkscape:zoom="0.56729519"
     inkscape:cx="136.25673"
     inkscape:cy="242.84793"
     inkscape:document-units="px"
     inkscape:current-layer="layer1"
     showgrid="false"
     fit-margin-top="0"
     fit-margin-left="0"
     fit-margin-right="0"
     fit-margin-bottom="0"
     inkscape:window-width="1301"
     inkscape:window-height="744"
     inkscape:window-x="65"
     inkscape:window-y="24"
     inkscape:window-maximized="1" />
  <metadata
     id="metadata7">
    <rdf:RDF>
      <cc:Work
         rdf:about="">
        <dc:format>image/svg+xml</dc:format>
        <dc:type
           rdf:resource="http://purl.org/dc/dcmitype/StillImage" />
        <dc:title></dc:title>
      </cc:Work>
    </rdf:RDF>
  </metadata>
  <g
     inkscape:label="Layer 1"
     inkscape:groupmode="layer"
     id="layer1"
     transform="translate(74.453612,-59.473341)">
    <path
       style="fill:none;stroke:#000000;stroke-width:1px;stroke-linecap:butt;stroke-linejoin:miter;stroke-opacity:1;marker-start:url(#Arrow1Lstart);marker-end:url(#Arrow1Lend)"
       d="m 326.10888,59.973341 c 0,708.555679 0,708.555679 0,708.555679"
       id="path2985"
       inkscape:connector-curvature="0" />
    <path
       style="fill:none;stroke:#000000;stroke-width:1px;stroke-linecap:butt;stroke-linejoin:miter;stroke-opacity:1;marker-start:url(#Arrow1Lstart);marker-end:url(#Arrow1Lstart)"
       d="m -73.953612,408.95817 c 799.722182,0 787.786032,0 787.786032,0"
       id="path2987"
       inkscape:connector-curvature="0" />
    <path
       sodipodi:type="star"
       style="fill:#ffff00;fill-opacity:1;stroke:#c54646;stroke-width:3;stroke-linecap:butt;stroke-miterlimit:4;stroke-opacity:1;stroke-dasharray:none;stroke-dashoffset:0"
       id="path2989"
       sodipodi:sides="8"
       sodipodi:cx="370.17764"
       sodipodi:cy="294.37936"
       sodipodi:r1="30.173431"
       sodipodi:r2="17.802326"
       sodipodi:arg1="0.11710874"
       sodipodi:arg2="0.50980783"
       inkscape:flatsided="false"
       inkscape:rounded="0"
       inkscape:randomized="0"
       d="m 400.1444,297.90487 -14.4282,5.1622 3.15824,14.9949 -13.85252,-6.55206 -8.36978,12.83622 -5.1622,-14.42821 -14.9949,3.15824 6.55205,-13.85252 -12.83621,-8.36978 14.42821,-5.1622 -3.15824,-14.9949 13.85251,6.55205 8.36978,-12.83621 5.16221,14.42821 14.9949,-3.15824 -6.55206,13.85251 z" />
    <path
       transform="translate(-114.57879,47.594277)"
       sodipodi:type="star"
       style="fill:#ffff00;fill-opacity:1;stroke:#c54646;stroke-width:3;stroke-linecap:butt;stroke-miterlimit:4;stroke-opacity:1;stroke-dasharray:none;stroke-dashoffset:0"
       id="path2989-7"
       sodipodi:sides="8"
       sodipodi:cx="370.17764"
       sodipodi:cy="294.37936"
       sodipodi:r1="30.173431"
       sodipodi:r2="17.802326"
       sodipodi:arg1="0.11710874"
       sodipodi:arg2="0.50980783"
       inkscape:flatsided="false"
       inkscape:rounded="0"
       inkscape:randomized="0"
       d="m 400.1444,297.90487 -14.4282,5.1622 3.15824,14.9949 -13.85252,-6.55206 -8.36978,12.83622 -5.1622,-14.42821 -14.9949,3.15824 6.55205,-13.85252 -12.83621,-8.36978 14.42821,-5.1622 -3.15824,-14.9949 13.85251,6.55205 8.36978,-12.83621 5.16221,14.42821 14.9949,-3.15824 -6.55206,13.85251 z" />
    <path
       transform="translate(-102.23953,176.27508)"
       sodipodi:type="star"
       style="fill:#ffff00;fill-opacity:1;stroke:#c54646;stroke-width:3;stroke-linecap:butt;stroke-miterlimit:4;stroke-opacity:1;stroke-dasharray:none;stroke-dashoffset:0"
       id="path2989-2"
       sodipodi:sides="8"
       sodipodi:cx="370.17764"
       sodipodi:cy="294.37936"
       sodipodi:r1="30.173431"
       sodipodi:r2="17.802326"
       sodipodi:arg1="0.11710874"
       sodipodi:arg2="0.50980783"
       inkscape:flatsided="false"
       inkscape:rounded="0"
       inkscape:randomized="0"
       d="m 400.1444,297.90487 -14.4282,5.1622 3.15824,14.9949 -13.85252,-6.55206 -8.36978,12.83622 -5.1622,-14.42821 -14.9949,3.15824 6.55205,-13.85252 -12.83621,-8.36978 14.42821,-5.1622 -3.15824,-14.9949 13.85251,6.55205 8.36978,-12.83621 5.16221,14.42821 14.9949,-3.15824 -6.55206,13.85251 z" />
    <path
       transform="translate(8.813763,185.08883)"
       sodipodi:type="star"
       style="fill:#ffff00;fill-opacity:1;stroke:#c54646;stroke-width:3;stroke-linecap:butt;stroke-miterlimit:4;stroke-opacity:1;stroke-dasharray:none;stroke-dashoffset:0"
       id="path2989-26"
       sodipodi:sides="8"
       sodipodi:cx="370.17764"
       sodipodi:cy="294.37936"
       sodipodi:r1="30.173431"
       sodipodi:r2="17.802326"
       sodipodi:arg1="0.11710874"
       sodipodi:arg2="0.50980783"
       inkscape:flatsided="false"
       inkscape:rounded="0"
       inkscape:randomized="0"
       d="m 400.1444,297.90487 -14.4282,5.1622 3.15824,14.9949 -13.85252,-6.55206 -8.36978,12.83622 -5.1622,-14.42821 -14.9949,3.15824 6.55205,-13.85252 -12.83621,-8.36978 14.42821,-5.1622 -3.15824,-14.9949 13.85251,6.55205 8.36978,-12.83621 5.16221,14.42821 14.9949,-3.15824 -6.55206,13.85251 z" />
    <path
       transform="translate(104.0023,56.40803)"
       sodipodi:type="star"
       style="fill:#ffff00;fill-opacity:1;stroke:#c54646;stroke-width:3;stroke-linecap:butt;stroke-miterlimit:4;stroke-opacity:1;stroke-dasharray:none;stroke-dashoffset:0"
       id="path2989-5"
       sodipodi:sides="8"
       sodipodi:cx="370.17764"
       sodipodi:cy="294.37936"
       sodipodi:r1="30.173431"
       sodipodi:r2="17.802326"
       sodipodi:arg1="0.11710874"
       sodipodi:arg2="0.50980783"
       inkscape:flatsided="false"
       inkscape:rounded="0"
       inkscape:randomized="0"
       d="m 400.1444,297.90487 -14.4282,5.1622 3.15824,14.9949 -13.85252,-6.55206 -8.36978,12.83622 -5.1622,-14.42821 -14.9949,3.15824 6.55205,-13.85252 -12.83621,-8.36978 14.42821,-5.1622 -3.15824,-14.9949 13.85251,6.55205 8.36978,-12.83621 5.16221,14.42821 14.9949,-3.15824 -6.55206,13.85251 z" />
    <path
       transform="translate(59.933535,-125.15529)"
       sodipodi:type="star"
       style="fill:#000000;fill-opacity:1;stroke:#c54646;stroke-width:3;stroke-linecap:butt;stroke-miterlimit:4;stroke-opacity:1;stroke-dasharray:none;stroke-dashoffset:0"
       id="path2989-5-4"
       sodipodi:sides="8"
       sodipodi:cx="370.17764"
       sodipodi:cy="294.37936"
       sodipodi:r1="30.173431"
       sodipodi:r2="17.802326"
       sodipodi:arg1="0.11710874"
       sodipodi:arg2="0.50980783"
       inkscape:flatsided="false"
       inkscape:rounded="0"
       inkscape:randomized="0"
       d="m 400.1444,297.90487 -14.4282,5.1622 3.15824,14.9949 -13.85252,-6.55206 -8.36978,12.83622 -5.1622,-14.42821 -14.9949,3.15824 6.55205,-13.85252 -12.83621,-8.36978 14.42821,-5.1622 -3.15824,-14.9949 13.85251,6.55205 8.36978,-12.83621 5.16221,14.42821 14.9949,-3.15824 -6.55206,13.85251 z" />
    <path
       transform="translate(96.9513,319.05789)"
       sodipodi:type="star"
       style="fill:#000000;fill-opacity:1;stroke:#c54646;stroke-width:3;stroke-linecap:butt;stroke-miterlimit:4;stroke-opacity:1;stroke-dasharray:none;stroke-dashoffset:0"
       id="path2989-5-45"
       sodipodi:sides="8"
       sodipodi:cx="370.17764"
       sodipodi:cy="294.37936"
       sodipodi:r1="30.173431"
       sodipodi:r2="17.802326"
       sodipodi:arg1="0.11710874"
       sodipodi:arg2="0.50980783"
       inkscape:flatsided="false"
       inkscape:rounded="0"
       inkscape:randomized="0"
       d="m 400.1444,297.90487 -14.4282,5.1622 3.15824,14.9949 -13.85252,-6.55206 -8.36978,12.83622 -5.1622,-14.42821 -14.9949,3.15824 6.55205,-13.85252 -12.83621,-8.36978 14.42821,-5.1622 -3.15824,-14.9949 13.85251,6.55205 8.36978,-12.83621 5.16221,14.42821 14.9949,-3.15824 -6.55206,13.85251 z" />
    <path
       transform="translate(-248.54785,303.19314)"
       sodipodi:type="star"
       style="fill:#000000;fill-opacity:1;stroke:#c54646;stroke-width:3;stroke-linecap:butt;stroke-miterlimit:4;stroke-opacity:1;stroke-dasharray:none;stroke-dashoffset:0"
       id="path2989-5-8"
       sodipodi:sides="8"
       sodipodi:cx="370.17764"
       sodipodi:cy="294.37936"
       sodipodi:r1="30.173431"
       sodipodi:r2="17.802326"
       sodipodi:arg1="0.11710874"
       sodipodi:arg2="0.50980783"
       inkscape:flatsided="false"
       inkscape:rounded="0"
       inkscape:randomized="0"
       d="m 400.1444,297.90487 -14.4282,5.1622 3.15824,14.9949 -13.85252,-6.55206 -8.36978,12.83622 -5.1622,-14.42821 -14.9949,3.15824 6.55205,-13.85252 -12.83621,-8.36978 14.42821,-5.1622 -3.15824,-14.9949 13.85251,6.55205 8.36978,-12.83621 5.16221,14.42821 14.9949,-3.15824 -6.55206,13.85251 z" />
    <path
       sodipodi:type="arc"
       style="opacity:0.28395063;fill:#000080;fill-rule:evenodd;stroke:#000000;stroke-width:0.79593301px;stroke-linecap:butt;stroke-linejoin:miter;stroke-opacity:1"
       id="path3062-4"
       sodipodi:cx="71.391403"
       sodipodi:cy="287.32837"
       sodipodi:rx="50.238396"
       sodipodi:ry="35.255016"
       d="m 121.6298,287.32837 c 0,19.47081 -22.492497,35.25502 -50.238397,35.25502 -27.7459,0 -50.238395,-15.78421 -50.238395,-35.25502 0,-19.47081 22.492495,-35.25502 50.238395,-35.25502 27.7459,0 50.238397,15.78421 50.238397,35.25502 z"
       transform="matrix(1.0701754,0,0,1.475,355.4726,-254.58527)" />
    <path
       sodipodi:type="arc"
       style="opacity:0.28395063;fill:#000080;fill-rule:evenodd;stroke:#000000;stroke-width:0.79593301px;stroke-linecap:butt;stroke-linejoin:miter;stroke-opacity:1"
       id="path3062-3"
       sodipodi:cx="71.391403"
       sodipodi:cy="287.32837"
       sodipodi:rx="50.238396"
       sodipodi:ry="35.255016"
       d="m 121.6298,287.32837 c 0,19.47081 -22.492497,35.25502 -50.238397,35.25502 -27.7459,0 -50.238395,-15.78421 -50.238395,-35.25502 0,-19.47081 22.492495,-35.25502 50.238395,-35.25502 27.7459,0 50.238397,15.78421 50.238397,35.25502 z"
       transform="matrix(1.0701754,0,0,1.475,45.228476,175.52591)" />
    <path
       sodipodi:type="arc"
       style="opacity:0.28395063;fill:#000080;fill-rule:evenodd;stroke:#000000;stroke-width:0.79593301px;stroke-linecap:butt;stroke-linejoin:miter;stroke-opacity:1"
       id="path3062-2"
       sodipodi:cx="71.391403"
       sodipodi:cy="287.32837"
       sodipodi:rx="50.238396"
       sodipodi:ry="35.255016"
       d="m 121.6298,287.32837 c 0,19.47081 -22.492497,35.25502 -50.238397,35.25502 -27.7459,0 -50.238395,-15.78421 -50.238395,-35.25502 0,-19.47081 22.492495,-35.25502 50.238395,-35.25502 27.7459,0 50.238397,15.78421 50.238397,35.25502 z"
       transform="matrix(1.0701754,0,0,1.475,390.72762,189.62791)" />
    <text
       xml:space="preserve"
       style="font-size:40px;font-style:italic;font-variant:normal;font-weight:normal;font-stretch:normal;line-height:125%;letter-spacing:0px;word-spacing:0px;fill:#000000;fill-opacity:1;stroke:none;font-family:LMRoman10;-inkscape-font-specification:Sans Italic"
       x="84.61203"
       y="692.76105"
       id="text3886"
       sodipodi:linespacing="125%"><tspan
         sodipodi:role="line"
         id="tspan3888"
         x="84.61203"
         y="692.76105"
         style="font-style:normal;-inkscape-font-specification:LMRoman10">Δ<tspan
   style="font-weight:bold;-inkscape-font-specification:LMRoman10 Bold"
   id="tspan3890">E</tspan><tspan
   style="font-size:65.00091553%;baseline-shift:sub"
   id="tspan3892">1</tspan></tspan></text>
    <text
       xml:space="preserve"
       style="font-size:40px;font-style:italic;font-variant:normal;font-weight:normal;font-stretch:normal;line-height:125%;letter-spacing:0px;word-spacing:0px;fill:#000000;fill-opacity:1;stroke:none;font-family:LMRoman10;-inkscape-font-specification:Sans Italic"
       x="437.75876"
       y="708.36926"
       id="text3886-6"
       sodipodi:linespacing="125%"><tspan
         sodipodi:role="line"
         id="tspan3888-1"
         x="437.75876"
         y="708.36926"
         style="font-style:normal;-inkscape-font-specification:LMRoman10">Δ<tspan
   style="font-weight:bold;-inkscape-font-specification:LMRoman10 Bold"
   id="tspan3890-8">E</tspan><tspan
   style="font-size:65.00091553%;baseline-shift:sub"
   id="tspan3892-5">2</tspan></tspan></text>
    <text
       xml:space="preserve"
       style="font-size:40px;font-style:italic;font-variant:normal;font-weight:normal;font-stretch:normal;line-height:125%;letter-spacing:0px;word-spacing:0px;fill:#000000;fill-opacity:1;stroke:none;font-family:LMRoman10;-inkscape-font-specification:Sans Italic"
       x="501.21777"
       y="174.2558"
       id="text3886-6-1"
       sodipodi:linespacing="125%"><tspan
         sodipodi:role="line"
         id="tspan3888-1-9"
         x="501.21777"
         y="174.2558"
         style="font-style:normal;-inkscape-font-specification:LMRoman10">Δ<tspan
   style="font-weight:bold;-inkscape-font-specification:LMRoman10 Bold"
   id="tspan3890-8-7">E</tspan><tspan
   style="font-size:65.00091553%;baseline-shift:sub"
   id="tspan3950">3</tspan></tspan></text>
    <text
       xml:space="preserve"
       style="font-size:40px;font-style:italic;font-variant:normal;font-weight:normal;font-stretch:normal;line-height:125%;letter-spacing:0px;word-spacing:0px;fill:#000000;fill-opacity:1;stroke:none;font-family:LMRoman10;-inkscape-font-specification:Sans Italic"
       x="682.18457"
       y="444.2132"
       id="text3952"
       sodipodi:linespacing="125%"><tspan
         sodipodi:role="line"
         id="tspan3954"
         x="682.18457"
         y="444.2132">l</tspan></text>
    <text
       xml:space="preserve"
       style="font-size:40px;font-style:italic;font-variant:normal;font-weight:normal;font-stretch:normal;line-height:125%;letter-spacing:0px;word-spacing:0px;fill:#000000;fill-opacity:1;stroke:none;font-family:LMRoman10;-inkscape-font-specification:Sans Italic"
       x="285.56558"
       y="98.714043"
       id="text3956"
       sodipodi:linespacing="125%"><tspan
         sodipodi:role="line"
         id="tspan3958"
         x="285.56558"
         y="98.714043">m</tspan></text>
  </g>
</svg>
