<?xml version="1.0" encoding="UTF-8" standalone="no"?>
<!-- Created with Inkscape (http://www.inkscape.org/) -->

<svg
   xmlns:dc="http://purl.org/dc/elements/1.1/"
   xmlns:cc="http://creativecommons.org/ns#"
   xmlns:rdf="http://www.w3.org/1999/02/22-rdf-syntax-ns#"
   xmlns:svg="http://www.w3.org/2000/svg"
   xmlns="http://www.w3.org/2000/svg"
   xmlns:sodipodi="http://sodipodi.sourceforge.net/DTD/sodipodi-0.dtd"
   xmlns:inkscape="http://www.inkscape.org/namespaces/inkscape"
   id="svg2"
   version="1.1"
   inkscape:version="0.48.4 r9939"
   width="420"
   height="200"
   xml:space="preserve"
   sodipodi:docname="fx_xf_equiv-crop.pdf"><metadata
     id="metadata8"><rdf:RDF><cc:Work
         rdf:about=""><dc:format>image/svg+xml</dc:format><dc:type
           rdf:resource="http://purl.org/dc/dcmitype/StillImage" /><dc:title></dc:title></cc:Work></rdf:RDF></metadata><defs
     id="defs6"><clipPath
       clipPathUnits="userSpaceOnUse"
       id="clipPath16"><path
         d="M 0,0 720,0 720,540 0,540 0,0 z"
         id="path18" /></clipPath><clipPath
       clipPathUnits="userSpaceOnUse"
       id="clipPath20"><path
         d="m 0,1.2207e-4 720,0 0,539.99999793 -720,0 L 0,1.2207e-4 z"
         clip-rule="evenodd"
         id="path22" /></clipPath><clipPath
       clipPathUnits="userSpaceOnUse"
       id="clipPath24"><path
         d="M 1.56e-6,540 720,540 720,1.2207e-4 3.73e-7,6.104e-6"
         clip-rule="evenodd"
         id="path26" /></clipPath></defs><sodipodi:namedview
     pagecolor="#ffffff"
     bordercolor="#666666"
     borderopacity="1"
     objecttolerance="10"
     gridtolerance="10"
     guidetolerance="10"
     inkscape:pageopacity="0"
     inkscape:pageshadow="2"
     inkscape:window-width="640"
     inkscape:window-height="480"
     id="namedview4"
     showgrid="false"
     inkscape:zoom="0.85714286"
     inkscape:cx="210"
     inkscape:cy="100"
     inkscape:window-x="0"
     inkscape:window-y="25"
     inkscape:window-maximized="0"
     inkscape:current-layer="g10" /><g
     id="g10"
     inkscape:groupmode="layer"
     inkscape:label="fx_xf_equiv-crop"
     transform="matrix(1.25,0,0,-1.25,0,200)"><g
       id="g12"
       transform="translate(-182,-194)"><g
         id="g14" /><g
         id="g28"><g
           clip-path="url(#clipPath16)"
           id="g30"><g
             id="g32"><g
               clip-path="url(#clipPath20)"
               id="g34"><path
                 d="m 0,6.104e-6 720,0 L 720,540.00001 l -720,0 L 0,6.104e-6 z"
                 style="fill:#ffffff;fill-opacity:1;fill-rule:evenodd;stroke:none"
                 id="path36" /></g></g><path
             d="m 260.41,344.21 195.18,-0.12 0,-1 -195.18,0.12 0,1 z m 195.18,-0.62 -1.99,3 5.99,-3.01 -6,-2.99 2,3 z"
             style="fill:#000000;fill-opacity:1;fill-rule:nonzero;stroke:none"
             id="path38" /><path
             d="m 260.41,208.13 195.18,-0.12 0,-1 -195.18,0.12 0,1 z m 195.18,-0.62 -1.99,3 5.99,-3 -6,-3 2,3 z"
             style="fill:#000000;fill-opacity:1;fill-rule:nonzero;stroke:none"
             id="path40" /><path
             d="m 252.83,332.31 -0.12,-109.4 -1,0 0.12,109.4 1,0 z m -0.62,-109.4 3.01,2 -3.01,-6 -2.99,6 2.99,-2 z"
             style="fill:#000000;fill-opacity:1;fill-rule:nonzero;stroke:none"
             id="path42" /><path
             d="m 468.35,332.31 -0.12,-109.4 -1,0 0.12,109.4 1,0 z m -0.62,-109.4 3,2 -3,-6 -3,6 3,-2 z"
             style="fill:#000000;fill-opacity:1;fill-rule:nonzero;stroke:none"
             id="path44" /><path
             d="m 191.86,290.49 -0.11,-24.35 -1,0.01 0.11,24.35 1,-0.01 z m -0.61,-24.35 3.01,1.99 -3.03,-5.99 -2.97,6.02 2.99,-2.02 z"
             style="fill:#000000;fill-opacity:1;fill-rule:nonzero;stroke:none"
             id="path46" /><path
             d="m 186.35,285.39 23.57,-0.11 -0.01,-1 -23.56,0.11 0,1 z m 23.56,-0.61 -1.98,3.01 5.98,-3.03 -6.01,-2.97 2.01,2.99 z"
             style="fill:#000000;fill-opacity:1;fill-rule:nonzero;stroke:none"
             id="path48" /><text
             transform="matrix(1,0,0,-1,199.06,288.46)"
             id="text50"><tspan
               style="fill:#000000;fill-opacity:1;fill-rule:nonzero;stroke:none;font-family:Calibri;font-variant:normal;font-weight:normal;font-size:9.96;writing-mode:lr;-inkscape-font-specification:Calibri"
               x="0"
               y="0"
               id="tspan52">F</tspan></text>
<text
             transform="matrix(1,0,0,-1,182.23,272.42)"
             id="text54"><tspan
               style="fill:#000000;fill-opacity:1;fill-rule:nonzero;stroke:none;font-family:Calibri;font-variant:normal;font-weight:normal;font-size:9.96;writing-mode:lr;-inkscape-font-specification:Calibri"
               x="0"
               y="0"
               id="tspan56">X</tspan></text>
<text
             transform="matrix(1,0,0,-1,352.85,347.33)"
             id="text58"><tspan
               style="fill:#000000;fill-opacity:1;fill-rule:nonzero;stroke:none;font-family:Calibri;font-variant:normal;font-weight:normal;font-size:9.96;writing-mode:lr;-inkscape-font-specification:Calibri"
               x="0 4.56004 9.12008"
               y="0"
               sodipodi:role="line"
               id="tspan60">FFT</tspan></text>
<text
             transform="matrix(1,0,0,-1,352.85,194.16)"
             id="text62"><tspan
               style="fill:#000000;fill-opacity:1;fill-rule:nonzero;stroke:none;font-family:Calibri;font-variant:normal;font-weight:normal;font-size:9.96;writing-mode:lr;-inkscape-font-specification:Calibri"
               x="0 4.56004 9.12008"
               y="0"
               sodipodi:role="line"
               id="tspan64">FFT</tspan></text>
<text
             transform="matrix(0,-1,-1,0,239.47,282.62)"
             id="text66"><tspan
               style="fill:#000000;fill-opacity:1;fill-rule:nonzero;stroke:none;font-family:Calibri;font-variant:normal;font-weight:normal;font-size:9.96;writing-mode:lr;-inkscape-font-specification:Calibri"
               x="0 5.30868 13.82448 19.56144"
               y="0"
               sodipodi:role="line"
               id="tspan68">CMAC</tspan></text>
<text
             transform="matrix(0,-1,-1,0,474.43,282.62)"
             id="text70"><tspan
               style="fill:#000000;fill-opacity:1;fill-rule:nonzero;stroke:none;font-family:Calibri;font-variant:normal;font-weight:normal;font-size:9.96;writing-mode:lr;-inkscape-font-specification:Calibri"
               x="0 5.30868 13.82448 19.56144"
               y="0"
               sodipodi:role="line"
               id="tspan72">CMAC</tspan></text>
<path
             d="m 259.24,334.1 3.45,-2.01 -0.5,-0.87 -3.46,2.02 0.51,0.86 z m 6.04,-3.53 3.45,-2.02 -0.5,-0.86 -3.45,2.02 0.5,0.86 z m 6.04,-3.53 3.46,-2.02 -0.51,-0.86 -3.45,2.02 0.5,0.86 z m 6.05,-3.53 3.45,-2.02 -0.5,-0.86 -3.46,2.01 0.51,0.87 z m 6.04,-3.54 3.45,-2.01 -0.5,-0.87 -3.45,2.02 0.5,0.86 z m 6.04,-3.53 3.46,-2.02 -0.51,-0.86 -3.45,2.02 0.5,0.86 z m 6.05,-3.53 3.45,-2.02 -0.5,-0.86 -3.46,2.02 0.51,0.86 z m 6.04,-3.53 3.46,-2.02 -0.51,-0.86 -3.45,2.02 0.5,0.86 z m 6.05,-3.53 3.45,-2.02 -0.51,-0.87 -3.45,2.02 0.51,0.87 z m 6.04,-3.54 3.45,-2.01 -0.5,-0.87 -3.46,2.02 0.51,0.86 z m 6.04,-3.53 3.46,-2.02 -0.51,-0.86 -3.45,2.02 0.5,0.86 z m 6.05,-3.53 3.45,-2.02 -0.51,-0.86 -3.45,2.02 0.51,0.86 z m 6.04,-3.53 3.45,-2.02 -0.5,-0.86 -3.46,2.01 0.51,0.87 z m 6.04,-3.53 3.46,-2.02 -0.51,-0.87 -3.45,2.02 0.5,0.87 z m 6.05,-3.54 3.45,-2.01 -0.51,-0.87 -3.45,2.02 0.51,0.86 z m 6.04,-3.53 3.45,-2.02 -0.5,-0.86 -3.45,2.02 0.5,0.86 z m 6.04,-3.53 3.46,-2.02 -0.51,-0.86 -3.45,2.02 0.5,0.86 z m 6.05,-3.53 3.45,-2.02 -0.5,-0.86 -3.46,2.01 0.51,0.87 z m 6.04,-3.53 3.45,-2.02 -0.5,-0.87 -3.45,2.02 0.5,0.87 z m 6.04,-3.54 3.46,-2.02 -0.51,-0.86 -3.45,2.02 0.5,0.86 z m 6.05,-3.53 3.45,-2.02 -0.5,-0.86 -3.46,2.02 0.51,0.86 z m 6.04,-3.53 3.45,-2.02 -0.5,-0.86 -3.45,2.02 0.5,0.86 z m 6.04,-3.53 3.46,-2.02 -0.51,-0.87 -3.45,2.02 0.5,0.87 z m 6.05,-3.54 3.45,-2.01 -0.5,-0.87 -3.46,2.02 0.51,0.86 z m 6.04,-3.53 3.45,-2.02 -0.5,-0.86 -3.45,2.02 0.5,0.86 z m 6.04,-3.53 3.46,-2.02 -0.51,-0.86 -3.45,2.02 0.5,0.86 z m 6.05,-3.53 3.45,-2.02 -0.5,-0.86 -3.46,2.01 0.51,0.87 z m 6.04,-3.53 3.46,-2.02 -0.51,-0.87 -3.45,2.02 0.5,0.87 z m 6.05,-3.54 3.45,-2.01 -0.51,-0.87 -3.45,2.02 0.51,0.86 z m 6.04,-3.53 3.45,-2.02 -0.5,-0.86 -3.46,2.02 0.51,0.86 z m 6.04,-3.53 3.46,-2.02 -0.51,-0.86 -3.45,2.02 0.5,0.86 z m 6.05,-3.53 3.45,-2.02 -0.51,-0.86 -3.45,2.01 0.51,0.87 z m 6.04,-3.53 3.45,-2.02 -0.5,-0.87 -3.46,2.02 0.51,0.87 z m 3.32,-2.52 -0.21,3.6 3.66,-5.62 -6.69,0.43 3.24,1.59 z"
             style="fill:#000000;fill-opacity:1;fill-rule:nonzero;stroke:none"
             id="path74" /><g
             id="g76"><g
               clip-path="url(#clipPath24)"
               id="g78"><path
                 d="m 316.27,304.95 c -0.02,-0.04 -0.04,-0.08 -0.07,-0.1 -0.02,-0.03 -0.04,-0.05 -0.06,-0.07 -0.03,-0.01 -0.05,-0.02 -0.07,-0.02 -0.02,0 -0.04,0.01 -0.06,0.02 L 313.9,306 c -0.05,0.03 -0.09,0.07 -0.11,0.13 -0.03,0.07 -0.02,0.14 0.03,0.23 l 2.27,3.92 c 0.05,0.09 0.11,0.14 0.17,0.15 0.07,0.01 0.13,-0.01 0.18,-0.04 l 2.09,-1.2 c 0.02,-0.01 0.03,-0.03 0.04,-0.04 0.01,-0.02 0.01,-0.04 0.01,-0.07 0,-0.02 -0.01,-0.05 -0.02,-0.09 -0.01,-0.03 -0.03,-0.07 -0.06,-0.12 -0.02,-0.04 -0.04,-0.07 -0.07,-0.1 -0.02,-0.02 -0.04,-0.05 -0.06,-0.06 -0.02,-0.01 -0.04,-0.02 -0.06,-0.02 -0.02,0 -0.04,0 -0.06,0.01 l -1.72,1 -0.8,-1.38 1.48,-0.86 c 0.02,-0.01 0.03,-0.02 0.04,-0.04 0.01,-0.02 0.01,-0.04 0.01,-0.06 0,-0.03 -0.01,-0.06 -0.02,-0.09 -0.01,-0.04 -0.03,-0.07 -0.06,-0.12 -0.02,-0.04 -0.04,-0.07 -0.07,-0.1 -0.02,-0.03 -0.04,-0.05 -0.06,-0.06 -0.02,-0.01 -0.04,-0.02 -0.06,-0.01 -0.02,0 -0.04,0 -0.05,0.01 l -1.48,0.85 -0.91,-1.57 1.74,-1.01 c 0.02,-0.01 0.04,-0.02 0.05,-0.04 0.01,-0.02 0.01,-0.04 0.01,-0.06 0,-0.03 -0.01,-0.06 -0.02,-0.09 -0.01,-0.04 -0.03,-0.08 -0.06,-0.12 z m 2.75,-3.41 c -0.01,-0.02 -0.02,-0.03 -0.04,-0.04 -0.02,-0.01 -0.04,-0.01 -0.07,-0.01 -0.02,0 -0.06,0.01 -0.1,0.03 -0.03,0.01 -0.08,0.04 -0.14,0.07 -0.05,0.03 -0.1,0.06 -0.13,0.09 -0.03,0.02 -0.06,0.04 -0.07,0.07 -0.02,0.02 -0.03,0.04 -0.03,0.06 0,0.02 0,0.03 0.02,0.05 l 0.9,1.57 c -0.15,-0.04 -0.28,-0.07 -0.4,-0.08 -0.12,-0.02 -0.24,-0.02 -0.34,-0.02 -0.1,0.01 -0.2,0.03 -0.3,0.06 -0.09,0.03 -0.18,0.07 -0.27,0.12 -0.22,0.13 -0.38,0.28 -0.49,0.46 -0.1,0.18 -0.16,0.37 -0.18,0.58 -0.01,0.2 0.02,0.42 0.09,0.64 0.07,0.23 0.17,0.46 0.3,0.68 0.15,0.26 0.31,0.48 0.49,0.66 0.18,0.18 0.37,0.31 0.57,0.4 0.2,0.08 0.4,0.12 0.61,0.1 0.21,-0.01 0.43,-0.08 0.64,-0.21 0.09,-0.05 0.17,-0.11 0.24,-0.17 0.07,-0.07 0.13,-0.14 0.18,-0.23 0.06,-0.09 0.11,-0.19 0.15,-0.3 0.04,-0.11 0.08,-0.24 0.12,-0.39 l 0.22,0.37 c 0.01,0.02 0.02,0.03 0.04,0.04 0.02,0.01 0.04,0.01 0.06,0.01 0.03,-0.01 0.06,-0.02 0.09,-0.03 0.03,-0.01 0.08,-0.04 0.12,-0.06 0.05,-0.03 0.09,-0.05 0.12,-0.08 0.03,-0.02 0.05,-0.04 0.06,-0.06 0.02,-0.02 0.02,-0.04 0.02,-0.05 0,-0.02 0,-0.04 -0.01,-0.06 l -2.47,-4.27 z m 1.38,3.69 c -0.04,0.27 -0.11,0.5 -0.19,0.68 -0.09,0.18 -0.21,0.32 -0.36,0.41 -0.14,0.08 -0.29,0.11 -0.42,0.1 -0.14,-0.01 -0.28,-0.05 -0.4,-0.12 -0.13,-0.08 -0.25,-0.18 -0.36,-0.3 -0.11,-0.13 -0.2,-0.26 -0.29,-0.41 -0.09,-0.15 -0.16,-0.31 -0.22,-0.47 -0.06,-0.16 -0.1,-0.32 -0.11,-0.47 0,-0.14 0.02,-0.28 0.08,-0.4 0.06,-0.13 0.16,-0.24 0.31,-0.32 0.07,-0.04 0.15,-0.08 0.23,-0.09 0.08,-0.02 0.17,-0.03 0.27,-0.03 0.1,0.01 0.22,0.03 0.34,0.06 0.12,0.03 0.26,0.07 0.41,0.13 l 0.71,1.23 z m 2.96,-4.58 c -0.01,-0.02 -0.03,-0.03 -0.04,-0.04 -0.02,-0.01 -0.04,-0.01 -0.06,-0.01 -0.03,0.01 -0.06,0.01 -0.09,0.03 -0.04,0.01 -0.08,0.03 -0.13,0.06 -0.05,0.03 -0.09,0.06 -0.12,0.08 -0.03,0.03 -0.05,0.05 -0.07,0.07 -0.01,0.02 -0.02,0.04 -0.02,0.05 0,0.02 0.01,0.04 0.02,0.05 l 0.23,0.41 c -0.28,-0.09 -0.54,-0.13 -0.76,-0.12 -0.22,0.01 -0.42,0.06 -0.59,0.16 -0.21,0.12 -0.36,0.25 -0.46,0.4 -0.1,0.15 -0.16,0.31 -0.18,0.47 -0.02,0.17 0,0.34 0.05,0.52 0.06,0.17 0.15,0.37 0.27,0.6 l 1.08,1.85 c 0.01,0.02 0.02,0.03 0.03,0.04 0.02,0.01 0.04,0.01 0.07,0.01 0.03,0 0.06,-0.01 0.1,-0.03 0.04,-0.02 0.08,-0.04 0.14,-0.07 0.05,-0.04 0.1,-0.06 0.13,-0.09 0.04,-0.02 0.06,-0.05 0.08,-0.07 0.01,-0.02 0.02,-0.04 0.02,-0.06 0.01,-0.02 0,-0.03 -0.01,-0.05 l -1.03,-1.78 c -0.1,-0.18 -0.17,-0.33 -0.21,-0.46 -0.03,-0.12 -0.05,-0.23 -0.04,-0.34 0.01,-0.11 0.05,-0.21 0.1,-0.29 0.06,-0.09 0.14,-0.17 0.25,-0.23 0.14,-0.08 0.31,-0.11 0.51,-0.1 0.2,0.02 0.43,0.08 0.7,0.19 l 1.23,2.14 c 0.01,0.01 0.02,0.03 0.04,0.03 0.01,0.01 0.04,0.01 0.06,0.01 0.03,0 0.07,-0.01 0.1,-0.03 0.04,-0.01 0.09,-0.04 0.14,-0.07 0.06,-0.03 0.1,-0.06 0.14,-0.09 0.03,-0.02 0.05,-0.04 0.07,-0.07 0.01,-0.02 0.02,-0.04 0.03,-0.06 0,-0.01 -0.01,-0.03 -0.02,-0.05 l -1.76,-3.06 z m 1.57,-0.91 c -0.01,-0.02 -0.02,-0.03 -0.04,-0.04 -0.01,-0.01 -0.03,-0.01 -0.06,-0.01 -0.02,0.01 -0.06,0.02 -0.09,0.03 -0.04,0.02 -0.09,0.04 -0.15,0.08 -0.05,0.03 -0.1,0.06 -0.13,0.08 -0.03,0.03 -0.06,0.05 -0.08,0.07 -0.01,0.02 -0.02,0.04 -0.02,0.06 0,0.02 0,0.04 0.01,0.05 l 1.77,3.06 c 0.01,0.02 0.02,0.03 0.04,0.04 0.01,0.01 0.03,0.01 0.06,0.01 0.03,0 0.06,-0.01 0.1,-0.03 0.04,-0.02 0.09,-0.04 0.14,-0.07 0.06,-0.04 0.1,-0.06 0.14,-0.09 0.03,-0.03 0.05,-0.05 0.07,-0.07 0.01,-0.02 0.02,-0.04 0.02,-0.06 0,-0.02 0,-0.03 -0.01,-0.05 l -1.77,-3.06 z m 2.43,4.06 c -0.07,-0.14 -0.15,-0.21 -0.23,-0.23 -0.07,-0.02 -0.18,0.01 -0.31,0.09 -0.14,0.07 -0.21,0.15 -0.23,0.22 -0.03,0.08 0,0.18 0.08,0.31 0.07,0.13 0.15,0.21 0.23,0.22 0.07,0.02 0.18,-0.01 0.31,-0.08 0.13,-0.08 0.21,-0.15 0.23,-0.23 0.02,-0.07 0,-0.18 -0.08,-0.3 z m 2.85,-3.02 c 0,-0.01 -0.01,-0.02 -0.02,-0.03 0,-0.01 -0.01,-0.02 -0.02,-0.03 -0.01,-0.01 -0.02,-0.02 -0.03,-0.03 -0.01,-0.01 -0.02,-0.02 -0.04,-0.04 l -2.72,-2.3 c -0.02,-0.02 -0.05,-0.03 -0.07,-0.04 -0.02,-0.01 -0.05,-0.01 -0.09,0 -0.03,0.01 -0.07,0.02 -0.12,0.05 -0.05,0.02 -0.11,0.05 -0.17,0.09 -0.07,0.04 -0.13,0.07 -0.17,0.1 -0.04,0.03 -0.08,0.06 -0.1,0.09 -0.02,0.02 -0.04,0.05 -0.04,0.07 -0.01,0.03 -0.01,0.06 -0.01,0.08 l 0.64,3.51 c 0.01,0.03 0.01,0.06 0.02,0.09 0.01,0.02 0.01,0.04 0.02,0.05 0,0.01 0,0.02 0.01,0.02 0.01,0.02 0.02,0.03 0.04,0.04 0.02,0.01 0.04,0.01 0.06,0.01 0.03,-0.01 0.06,-0.02 0.1,-0.03 0.03,-0.02 0.08,-0.05 0.13,-0.08 0.07,-0.03 0.12,-0.07 0.16,-0.09 0.03,-0.03 0.06,-0.05 0.08,-0.08 0.01,-0.02 0.02,-0.04 0.03,-0.06 0,-0.02 0,-0.04 -0.01,-0.06 l -0.59,-3.03 -0.01,-0.04 0.04,0.03 2.31,2.03 c 0.01,0.02 0.03,0.03 0.05,0.04 0.02,0.01 0.04,0.01 0.07,0 0.02,0 0.06,-0.01 0.1,-0.03 0.04,-0.02 0.09,-0.04 0.15,-0.08 0.05,-0.03 0.09,-0.06 0.12,-0.08 0.04,-0.02 0.06,-0.04 0.07,-0.06 0.02,-0.02 0.03,-0.04 0.03,-0.06 0,-0.01 -0.01,-0.03 -0.02,-0.05 z m 1.14,-4.75 c -0.01,-0.03 -0.03,-0.04 -0.06,-0.05 -0.02,0 -0.06,0 -0.09,0.02 -0.04,0.01 -0.09,0.03 -0.15,0.07 -0.06,0.03 -0.1,0.06 -0.13,0.09 -0.03,0.03 -0.05,0.05 -0.06,0.07 -0.01,0.03 0,0.05 0.01,0.08 l 0.18,0.3 c -0.22,-0.06 -0.43,-0.09 -0.64,-0.07 -0.21,0.01 -0.41,0.07 -0.59,0.18 -0.16,0.09 -0.3,0.2 -0.4,0.32 -0.11,0.11 -0.19,0.24 -0.23,0.37 -0.05,0.13 -0.06,0.27 -0.05,0.42 0.02,0.14 0.07,0.29 0.15,0.43 0.1,0.18 0.23,0.31 0.37,0.39 0.14,0.09 0.3,0.14 0.48,0.14 0.18,0.01 0.38,-0.02 0.6,-0.09 0.21,-0.06 0.44,-0.17 0.67,-0.3 l 0.43,-0.25 0.13,0.24 c 0.07,0.12 0.12,0.23 0.15,0.34 0.02,0.1 0.03,0.2 0.01,0.29 -0.02,0.09 -0.07,0.18 -0.14,0.26 -0.07,0.08 -0.17,0.16 -0.3,0.24 -0.14,0.08 -0.27,0.13 -0.4,0.16 -0.13,0.03 -0.25,0.05 -0.35,0.06 -0.11,0.01 -0.2,0.01 -0.27,0.01 -0.08,0 -0.13,0.01 -0.16,0.02 -0.01,0.01 -0.03,0.03 -0.04,0.04 0,0.02 -0.01,0.04 -0.01,0.07 0,0.02 0.01,0.05 0.02,0.08 0.01,0.03 0.03,0.06 0.05,0.1 0.03,0.05 0.06,0.09 0.09,0.12 0.02,0.03 0.06,0.05 0.11,0.06 0.05,0.01 0.12,0.02 0.22,0.02 0.09,-0.01 0.2,-0.02 0.32,-0.05 0.11,-0.02 0.24,-0.05 0.36,-0.1 0.13,-0.04 0.26,-0.1 0.37,-0.17 0.22,-0.12 0.4,-0.26 0.52,-0.4 0.13,-0.14 0.21,-0.28 0.25,-0.43 0.04,-0.15 0.04,-0.31 0,-0.48 -0.04,-0.17 -0.12,-0.35 -0.22,-0.54 l -1.2,-2.06 z m 0.25,1.72 -0.48,0.27 c -0.15,0.09 -0.29,0.16 -0.42,0.2 -0.13,0.04 -0.25,0.05 -0.35,0.04 -0.1,0 -0.19,-0.03 -0.27,-0.08 -0.08,-0.05 -0.14,-0.13 -0.2,-0.22 -0.09,-0.16 -0.11,-0.31 -0.06,-0.47 0.04,-0.15 0.16,-0.28 0.34,-0.38 0.15,-0.09 0.3,-0.13 0.47,-0.13 0.17,0.01 0.37,0.04 0.6,0.12 l 0.37,0.65 z m 1.34,-2.63 c -0.01,-0.02 -0.03,-0.03 -0.04,-0.04 -0.02,-0.01 -0.04,-0.01 -0.07,-0.01 -0.02,0.01 -0.05,0.02 -0.09,0.03 -0.04,0.02 -0.09,0.04 -0.15,0.08 -0.05,0.03 -0.09,0.06 -0.13,0.08 -0.03,0.03 -0.06,0.05 -0.07,0.07 -0.02,0.02 -0.03,0.04 -0.03,0.06 0,0.02 0.01,0.04 0.02,0.05 l 2.62,4.55 c 0.01,0.01 0.02,0.03 0.04,0.04 0.01,0.01 0.03,0.01 0.06,0 0.03,0 0.06,-0.01 0.1,-0.03 0.04,-0.01 0.09,-0.04 0.14,-0.07 0.06,-0.03 0.1,-0.06 0.14,-0.08 0.03,-0.03 0.05,-0.05 0.07,-0.07 0.01,-0.02 0.02,-0.04 0.02,-0.06 0,-0.02 0,-0.04 -0.01,-0.06 l -2.62,-4.54 z m 4.57,-0.42 c -0.06,-0.09 -0.11,-0.14 -0.18,-0.15 -0.07,-0.01 -0.13,0 -0.18,0.03 l -2.02,1.16 c -0.1,-0.17 -0.17,-0.33 -0.21,-0.49 -0.05,-0.15 -0.06,-0.3 -0.03,-0.44 0.02,-0.15 0.08,-0.28 0.18,-0.41 0.09,-0.12 0.24,-0.24 0.42,-0.35 0.15,-0.08 0.28,-0.14 0.41,-0.19 0.13,-0.04 0.24,-0.07 0.34,-0.09 0.1,-0.02 0.19,-0.03 0.25,-0.03 0.07,-0.01 0.12,-0.02 0.14,-0.04 0.02,-0.01 0.03,-0.02 0.04,-0.04 0.01,-0.01 0.01,-0.03 0.01,-0.05 0,-0.02 -0.01,-0.04 -0.02,-0.07 -0.02,-0.03 -0.04,-0.07 -0.06,-0.11 -0.02,-0.03 -0.03,-0.05 -0.05,-0.07 -0.01,-0.02 -0.03,-0.04 -0.04,-0.06 -0.01,-0.01 -0.03,-0.02 -0.04,-0.03 -0.02,-0.01 -0.04,-0.02 -0.05,-0.03 -0.02,0 -0.07,0 -0.15,0.01 -0.08,0 -0.17,0.02 -0.29,0.05 -0.11,0.03 -0.24,0.07 -0.38,0.12 -0.14,0.06 -0.28,0.12 -0.43,0.21 -0.25,0.14 -0.45,0.31 -0.6,0.49 -0.14,0.17 -0.24,0.37 -0.29,0.58 -0.05,0.22 -0.05,0.45 0,0.69 0.06,0.25 0.17,0.51 0.33,0.79 0.15,0.26 0.32,0.48 0.51,0.65 0.19,0.17 0.39,0.29 0.6,0.36 0.21,0.07 0.43,0.1 0.66,0.07 0.22,-0.03 0.45,-0.1 0.67,-0.23 0.24,-0.14 0.43,-0.3 0.55,-0.47 0.13,-0.18 0.2,-0.36 0.24,-0.56 0.03,-0.19 0.02,-0.39 -0.03,-0.59 -0.05,-0.21 -0.13,-0.41 -0.25,-0.61 l -0.05,-0.1 z m -0.47,0.49 c 0.17,0.29 0.24,0.56 0.2,0.81 -0.04,0.25 -0.2,0.45 -0.47,0.6 -0.14,0.08 -0.27,0.13 -0.41,0.14 -0.13,0.01 -0.26,-0.01 -0.38,-0.06 -0.12,-0.04 -0.23,-0.11 -0.34,-0.2 -0.1,-0.1 -0.2,-0.2 -0.27,-0.33 l 1.67,-0.96 z m 2.96,-4.15 c -0.01,-0.02 -0.02,-0.03 -0.04,-0.04 -0.02,0 -0.04,-0.01 -0.06,0 -0.03,0 -0.06,0.01 -0.1,0.03 -0.04,0.01 -0.09,0.04 -0.14,0.07 -0.06,0.03 -0.1,0.06 -0.14,0.08 -0.03,0.03 -0.05,0.05 -0.07,0.07 -0.01,0.03 -0.02,0.04 -0.02,0.06 -0.01,0.02 0,0.04 0.01,0.06 l 1.03,1.79 c 0.1,0.17 0.17,0.32 0.21,0.44 0.03,0.12 0.04,0.24 0.04,0.35 -0.01,0.1 -0.05,0.2 -0.11,0.29 -0.05,0.09 -0.14,0.16 -0.25,0.23 -0.14,0.08 -0.31,0.11 -0.5,0.09 -0.2,-0.02 -0.43,-0.08 -0.7,-0.18 l -1.23,-2.14 c -0.02,-0.02 -0.03,-0.03 -0.04,-0.04 -0.02,-0.01 -0.04,-0.01 -0.07,-0.01 -0.02,0.01 -0.06,0.02 -0.09,0.03 -0.04,0.02 -0.09,0.04 -0.15,0.08 -0.05,0.03 -0.1,0.06 -0.13,0.08 -0.03,0.03 -0.06,0.05 -0.07,0.07 -0.02,0.02 -0.03,0.04 -0.03,0.06 0,0.02 0,0.04 0.01,0.05 l 1.77,3.06 c 0.01,0.02 0.02,0.03 0.04,0.04 0.01,0.01 0.03,0.02 0.06,0.01 0.02,0 0.05,-0.01 0.09,-0.02 0.03,-0.02 0.07,-0.04 0.13,-0.07 0.05,-0.03 0.09,-0.05 0.12,-0.08 0.03,-0.02 0.05,-0.04 0.06,-0.06 0.01,-0.02 0.02,-0.04 0.02,-0.06 0,-0.01 0,-0.03 -0.01,-0.05 l -0.24,-0.4 c 0.29,0.09 0.54,0.13 0.76,0.12 0.23,-0.01 0.42,-0.06 0.6,-0.16 0.2,-0.12 0.36,-0.25 0.45,-0.4 0.1,-0.15 0.16,-0.31 0.18,-0.48 0.02,-0.16 0.01,-0.33 -0.05,-0.51 -0.05,-0.18 -0.14,-0.37 -0.26,-0.59 L 340,291.04 z m 3.47,-1.38 c -0.02,-0.04 -0.04,-0.07 -0.06,-0.1 -0.02,-0.03 -0.04,-0.05 -0.05,-0.06 -0.02,-0.02 -0.04,-0.03 -0.05,-0.04 -0.02,-0.01 -0.05,-0.02 -0.1,-0.04 -0.04,-0.01 -0.11,-0.02 -0.2,-0.02 -0.09,0 -0.19,0.01 -0.3,0.02 -0.1,0.02 -0.21,0.04 -0.32,0.08 -0.11,0.04 -0.22,0.09 -0.33,0.15 -0.22,0.13 -0.39,0.28 -0.52,0.45 -0.13,0.17 -0.21,0.36 -0.24,0.56 -0.03,0.21 -0.02,0.43 0.03,0.67 0.06,0.23 0.17,0.48 0.32,0.75 0.17,0.3 0.36,0.54 0.56,0.71 0.2,0.18 0.4,0.3 0.61,0.36 0.21,0.06 0.42,0.08 0.63,0.05 0.21,-0.04 0.42,-0.11 0.62,-0.23 0.1,-0.05 0.19,-0.12 0.27,-0.19 0.08,-0.07 0.15,-0.14 0.21,-0.22 0.06,-0.07 0.11,-0.14 0.15,-0.22 0.03,-0.07 0.06,-0.13 0.07,-0.17 0.01,-0.04 0.02,-0.08 0.02,-0.1 0,-0.02 0,-0.04 -0.01,-0.07 0,-0.03 -0.01,-0.05 -0.03,-0.08 -0.01,-0.03 -0.03,-0.06 -0.05,-0.1 -0.05,-0.09 -0.1,-0.15 -0.14,-0.17 -0.04,-0.03 -0.08,-0.03 -0.11,-0.01 -0.03,0.02 -0.06,0.06 -0.08,0.12 -0.02,0.07 -0.06,0.14 -0.1,0.22 -0.04,0.09 -0.1,0.18 -0.17,0.27 -0.08,0.09 -0.18,0.18 -0.31,0.25 -0.27,0.16 -0.54,0.17 -0.8,0.05 -0.27,-0.12 -0.51,-0.38 -0.74,-0.78 -0.11,-0.19 -0.19,-0.38 -0.24,-0.55 -0.05,-0.17 -0.07,-0.32 -0.05,-0.47 0.01,-0.14 0.06,-0.26 0.14,-0.37 0.07,-0.11 0.18,-0.21 0.32,-0.28 0.13,-0.08 0.25,-0.12 0.37,-0.14 0.12,-0.02 0.23,-0.02 0.33,-0.01 0.1,0.01 0.19,0.02 0.26,0.03 0.07,0.01 0.12,0.01 0.15,-0.01 0.01,-0.01 0.02,-0.02 0.03,-0.04 0.01,-0.01 0.01,-0.03 0,-0.06 0,-0.03 -0.01,-0.06 -0.03,-0.09 -0.01,-0.04 -0.03,-0.08 -0.06,-0.12 z m 4.01,-0.72 c -0.05,-0.09 -0.11,-0.14 -0.17,-0.15 -0.07,-0.01 -0.13,0 -0.19,0.03 l -2.01,1.16 c -0.1,-0.17 -0.17,-0.33 -0.22,-0.49 -0.04,-0.15 -0.05,-0.3 -0.03,-0.44 0.03,-0.15 0.09,-0.28 0.18,-0.41 0.1,-0.12 0.24,-0.24 0.43,-0.35 0.14,-0.08 0.28,-0.14 0.41,-0.19 0.12,-0.04 0.24,-0.07 0.34,-0.09 0.1,-0.01 0.18,-0.03 0.25,-0.03 0.07,-0.01 0.11,-0.02 0.14,-0.04 0.02,-0.01 0.03,-0.02 0.04,-0.04 0,-0.01 0.01,-0.03 0.01,-0.05 -0.01,-0.02 -0.01,-0.04 -0.03,-0.07 -0.01,-0.03 -0.03,-0.07 -0.05,-0.11 -0.02,-0.03 -0.04,-0.05 -0.05,-0.07 -0.01,-0.02 -0.03,-0.04 -0.04,-0.06 -0.01,-0.01 -0.03,-0.02 -0.05,-0.03 -0.01,-0.01 -0.03,-0.02 -0.05,-0.03 -0.02,0 -0.07,0 -0.14,0.01 -0.08,0 -0.18,0.02 -0.29,0.05 -0.11,0.03 -0.24,0.07 -0.38,0.12 -0.14,0.06 -0.28,0.12 -0.43,0.21 -0.25,0.14 -0.45,0.31 -0.6,0.49 -0.15,0.17 -0.25,0.37 -0.3,0.58 -0.05,0.22 -0.04,0.45 0.01,0.69 0.06,0.25 0.16,0.51 0.32,0.79 0.15,0.26 0.33,0.48 0.51,0.65 0.19,0.17 0.39,0.29 0.61,0.36 0.21,0.07 0.43,0.1 0.65,0.07 0.23,-0.03 0.46,-0.1 0.68,-0.23 0.24,-0.14 0.42,-0.3 0.55,-0.47 0.12,-0.18 0.2,-0.36 0.23,-0.56 0.04,-0.19 0.03,-0.39 -0.02,-0.59 -0.05,-0.21 -0.13,-0.41 -0.25,-0.61 l -0.06,-0.1 z m -0.47,0.49 c 0.18,0.29 0.25,0.56 0.21,0.81 -0.04,0.25 -0.2,0.45 -0.47,0.6 -0.14,0.08 -0.28,0.13 -0.41,0.14 -0.14,0.01 -0.26,-0.01 -0.39,-0.06 -0.12,-0.04 -0.23,-0.11 -0.33,-0.2 -0.11,-0.1 -0.2,-0.2 -0.28,-0.33 l 1.67,-0.96 z m 5.82,-3.7 c -0.15,-0.27 -0.32,-0.49 -0.5,-0.67 -0.18,-0.18 -0.37,-0.31 -0.57,-0.39 -0.2,-0.09 -0.4,-0.12 -0.61,-0.11 -0.21,0.02 -0.42,0.09 -0.63,0.21 -0.1,0.05 -0.18,0.12 -0.25,0.18 -0.07,0.07 -0.14,0.15 -0.19,0.24 -0.06,0.09 -0.1,0.19 -0.15,0.3 -0.04,0.11 -0.08,0.24 -0.11,0.38 l -0.22,-0.37 c -0.01,-0.02 -0.02,-0.03 -0.04,-0.04 -0.01,-0.01 -0.04,-0.01 -0.06,-0.01 -0.02,0 -0.05,0.01 -0.09,0.03 -0.03,0.01 -0.07,0.03 -0.12,0.06 -0.04,0.02 -0.08,0.05 -0.11,0.07 -0.03,0.02 -0.05,0.04 -0.07,0.06 -0.01,0.02 -0.02,0.04 -0.02,0.06 0,0.02 0.01,0.04 0.02,0.05 l 2.62,4.55 c 0.01,0.01 0.02,0.03 0.04,0.04 0.02,0.01 0.04,0.01 0.06,0 0.03,0 0.06,-0.01 0.1,-0.03 0.04,-0.01 0.09,-0.04 0.14,-0.07 0.06,-0.03 0.1,-0.06 0.14,-0.08 0.03,-0.03 0.06,-0.05 0.07,-0.07 0.02,-0.02 0.02,-0.04 0.02,-0.06 0.01,-0.02 0,-0.04 -0.01,-0.06 l -1.06,-1.83 c 0.15,0.04 0.28,0.07 0.4,0.08 0.12,0.02 0.24,0.02 0.34,0.01 0.11,-0.01 0.2,-0.02 0.3,-0.05 0.09,-0.03 0.18,-0.07 0.27,-0.12 0.22,-0.13 0.39,-0.29 0.49,-0.47 0.11,-0.18 0.17,-0.37 0.18,-0.57 0.01,-0.21 -0.01,-0.42 -0.08,-0.65 -0.07,-0.23 -0.17,-0.45 -0.3,-0.67 z m -0.62,0.27 c 0.09,0.16 0.17,0.31 0.23,0.48 0.06,0.16 0.09,0.31 0.1,0.46 0,0.15 -0.02,0.28 -0.08,0.41 -0.06,0.12 -0.16,0.23 -0.31,0.31 -0.07,0.05 -0.15,0.08 -0.23,0.1 -0.08,0.02 -0.17,0.03 -0.27,0.02 -0.1,-0.01 -0.21,-0.02 -0.34,-0.05 -0.12,-0.03 -0.26,-0.08 -0.41,-0.14 l -0.71,-1.22 c 0.05,-0.28 0.12,-0.51 0.2,-0.69 0.09,-0.18 0.2,-0.31 0.36,-0.4 0.14,-0.08 0.28,-0.12 0.42,-0.11 0.14,0.01 0.27,0.06 0.4,0.13 0.13,0.08 0.24,0.18 0.35,0.3 0.11,0.12 0.21,0.26 0.29,0.4 z m 1.88,-3.21 -1.06,-0.89 c -0.03,-0.02 -0.08,-0.03 -0.15,-0.02 -0.07,0.01 -0.16,0.05 -0.27,0.12 -0.06,0.03 -0.1,0.06 -0.14,0.09 -0.03,0.03 -0.05,0.05 -0.06,0.08 -0.02,0.02 -0.02,0.04 -0.01,0.07 0.02,0.02 0.04,0.05 0.07,0.07 l 1.03,0.82 c -0.01,0.02 -0.02,0.05 -0.03,0.08 0,0.03 0,0.06 0,0.08 l 0.6,3.56 c 0.01,0.06 0.02,0.1 0.04,0.13 0.01,0.02 0.03,0.04 0.06,0.05 0.03,0 0.06,-0.01 0.11,-0.02 0.04,-0.02 0.1,-0.05 0.17,-0.09 0.06,-0.04 0.12,-0.07 0.15,-0.1 0.04,-0.02 0.07,-0.05 0.08,-0.07 0.02,-0.02 0.03,-0.04 0.03,-0.07 0,-0.02 0,-0.05 -0.01,-0.08 l -0.54,-2.96 0.01,-0.01 2.27,1.98 c 0.04,0.04 0.07,0.06 0.1,0.06 0.02,0 0.06,-0.01 0.1,-0.03 0.04,-0.01 0.1,-0.04 0.17,-0.08 0.06,-0.04 0.11,-0.07 0.15,-0.1 0.04,-0.03 0.06,-0.06 0.07,-0.09 0.01,-0.02 0.01,-0.05 -0.01,-0.08 -0.01,-0.02 -0.04,-0.05 -0.08,-0.09 l -2.85,-2.41 z m 6.64,-3 c -0.02,-0.04 -0.04,-0.07 -0.05,-0.1 -0.02,-0.02 -0.04,-0.04 -0.06,-0.06 -0.02,-0.02 -0.03,-0.03 -0.05,-0.04 -0.02,-0.01 -0.05,-0.02 -0.08,-0.03 -0.04,-0.01 -0.11,-0.02 -0.21,-0.02 -0.09,-0.01 -0.21,0 -0.34,0.02 -0.14,0.01 -0.28,0.05 -0.44,0.1 -0.16,0.05 -0.32,0.12 -0.48,0.22 -0.29,0.16 -0.52,0.36 -0.69,0.59 -0.18,0.22 -0.29,0.48 -0.35,0.76 -0.05,0.28 -0.05,0.58 0.02,0.9 0.08,0.32 0.21,0.66 0.42,1.02 0.21,0.36 0.44,0.66 0.7,0.89 0.26,0.24 0.53,0.4 0.82,0.5 0.28,0.1 0.57,0.14 0.87,0.1 0.3,-0.03 0.59,-0.13 0.88,-0.29 0.12,-0.08 0.24,-0.16 0.35,-0.25 0.1,-0.1 0.2,-0.19 0.28,-0.29 0.08,-0.09 0.15,-0.19 0.2,-0.28 0.05,-0.09 0.08,-0.16 0.1,-0.21 0.01,-0.05 0.01,-0.09 0.01,-0.11 0,-0.02 0,-0.04 -0.01,-0.07 0,-0.02 -0.01,-0.05 -0.03,-0.08 -0.01,-0.03 -0.03,-0.07 -0.05,-0.11 -0.03,-0.04 -0.05,-0.08 -0.08,-0.11 -0.02,-0.03 -0.04,-0.05 -0.06,-0.07 -0.02,-0.01 -0.04,-0.02 -0.06,-0.03 -0.02,0 -0.04,0 -0.06,0.01 -0.03,0.02 -0.06,0.07 -0.09,0.15 -0.03,0.08 -0.08,0.17 -0.14,0.27 -0.06,0.11 -0.14,0.22 -0.24,0.34 -0.11,0.12 -0.25,0.23 -0.43,0.33 -0.19,0.11 -0.39,0.18 -0.6,0.19 -0.21,0.02 -0.41,-0.02 -0.61,-0.1 -0.2,-0.09 -0.4,-0.23 -0.59,-0.41 -0.19,-0.18 -0.36,-0.41 -0.52,-0.69 -0.16,-0.28 -0.28,-0.55 -0.34,-0.79 -0.06,-0.25 -0.08,-0.48 -0.05,-0.69 0.03,-0.21 0.11,-0.4 0.23,-0.57 0.12,-0.17 0.28,-0.31 0.49,-0.43 0.18,-0.1 0.34,-0.17 0.5,-0.2 0.15,-0.03 0.29,-0.05 0.42,-0.05 0.12,0 0.22,0 0.31,0.01 0.08,0.01 0.14,0.01 0.17,-0.01 0.02,-0.01 0.03,-0.02 0.04,-0.04 0.01,-0.01 0.01,-0.03 0,-0.05 0,-0.03 -0.01,-0.05 -0.03,-0.09 -0.01,-0.04 -0.04,-0.08 -0.07,-0.13 z m 4.18,-1.05 c -0.14,-0.25 -0.31,-0.46 -0.49,-0.63 -0.19,-0.17 -0.39,-0.29 -0.61,-0.37 -0.22,-0.08 -0.45,-0.1 -0.7,-0.07 -0.24,0.03 -0.49,0.11 -0.75,0.26 -0.25,0.15 -0.45,0.31 -0.6,0.5 -0.14,0.18 -0.23,0.38 -0.27,0.59 -0.05,0.22 -0.04,0.44 0.02,0.68 0.05,0.24 0.16,0.49 0.31,0.75 0.14,0.25 0.3,0.46 0.49,0.63 0.19,0.17 0.39,0.3 0.61,0.38 0.21,0.07 0.44,0.1 0.69,0.07 0.24,-0.03 0.49,-0.12 0.75,-0.27 0.26,-0.15 0.45,-0.31 0.6,-0.49 0.14,-0.19 0.23,-0.38 0.28,-0.6 0.04,-0.21 0.03,-0.44 -0.02,-0.68 -0.06,-0.24 -0.16,-0.49 -0.31,-0.75 z m -0.6,0.3 c 0.09,0.17 0.17,0.33 0.22,0.5 0.06,0.16 0.08,0.32 0.07,0.47 0,0.16 -0.05,0.3 -0.13,0.43 -0.09,0.14 -0.22,0.26 -0.4,0.36 -0.17,0.1 -0.33,0.15 -0.48,0.16 -0.15,0.01 -0.3,-0.01 -0.44,-0.08 -0.14,-0.06 -0.27,-0.15 -0.4,-0.28 -0.12,-0.12 -0.23,-0.27 -0.33,-0.45 -0.1,-0.17 -0.17,-0.33 -0.23,-0.5 -0.05,-0.16 -0.07,-0.32 -0.07,-0.47 0.01,-0.15 0.06,-0.3 0.14,-0.43 0.09,-0.14 0.22,-0.26 0.4,-0.36 0.16,-0.1 0.32,-0.15 0.48,-0.16 0.15,-0.01 0.3,0.01 0.44,0.08 0.14,0.06 0.27,0.15 0.39,0.28 0.12,0.12 0.24,0.28 0.34,0.45 z m 3.12,-3.84 c -0.01,-0.02 -0.02,-0.03 -0.04,-0.04 -0.01,0 -0.03,-0.01 -0.06,0 -0.02,0 -0.06,0.01 -0.09,0.03 -0.04,0.01 -0.09,0.04 -0.14,0.07 -0.06,0.03 -0.11,0.06 -0.14,0.08 -0.03,0.03 -0.06,0.05 -0.07,0.07 -0.02,0.03 -0.03,0.04 -0.03,0.06 0,0.02 0,0.04 0.01,0.06 l 1.04,1.79 c 0.1,0.17 0.17,0.32 0.2,0.44 0.04,0.12 0.05,0.24 0.04,0.35 -0.01,0.1 -0.04,0.2 -0.1,0.29 -0.06,0.09 -0.14,0.16 -0.25,0.23 -0.14,0.08 -0.31,0.11 -0.51,0.09 -0.2,-0.02 -0.43,-0.08 -0.69,-0.18 l -1.24,-2.14 c -0.01,-0.02 -0.02,-0.03 -0.04,-0.04 -0.02,-0.01 -0.04,-0.01 -0.06,-0.01 -0.03,0.01 -0.06,0.02 -0.1,0.03 -0.04,0.02 -0.09,0.04 -0.14,0.08 -0.06,0.03 -0.1,0.06 -0.13,0.08 -0.04,0.03 -0.06,0.05 -0.08,0.07 -0.02,0.02 -0.02,0.04 -0.02,0.06 -0.01,0.02 0,0.04 0.01,0.05 l 1.77,3.06 c 0.01,0.02 0.02,0.03 0.03,0.04 0.02,0.01 0.04,0.02 0.06,0.01 0.03,0 0.06,-0.01 0.09,-0.02 0.04,-0.02 0.08,-0.04 0.13,-0.07 0.05,-0.03 0.09,-0.05 0.12,-0.08 0.03,-0.02 0.06,-0.04 0.07,-0.06 0.01,-0.02 0.02,-0.04 0.02,-0.06 0,-0.01 -0.01,-0.03 -0.02,-0.05 l -0.23,-0.4 c 0.28,0.09 0.54,0.13 0.76,0.12 0.22,-0.01 0.42,-0.06 0.59,-0.16 0.21,-0.12 0.36,-0.25 0.46,-0.4 0.1,-0.15 0.16,-0.31 0.18,-0.48 0.02,-0.16 0,-0.33 -0.05,-0.51 -0.05,-0.18 -0.14,-0.37 -0.27,-0.59 l -1.08,-1.87 z m 5.29,1.04 c -0.01,-0.01 -0.01,-0.02 -0.02,-0.03 -0.01,-0.01 -0.02,-0.02 -0.03,-0.03 0,-0.01 -0.01,-0.02 -0.03,-0.03 -0.01,-0.01 -0.02,-0.02 -0.03,-0.04 l -2.72,-2.3 c -0.03,-0.02 -0.05,-0.03 -0.08,-0.04 -0.02,-0.01 -0.05,-0.01 -0.08,0 -0.04,0.01 -0.08,0.02 -0.13,0.05 -0.04,0.02 -0.1,0.05 -0.17,0.09 -0.07,0.04 -0.12,0.07 -0.17,0.1 -0.04,0.03 -0.07,0.06 -0.09,0.09 -0.03,0.02 -0.04,0.05 -0.05,0.07 -0.01,0.03 -0.01,0.06 0,0.08 l 0.63,3.51 c 0.01,0.03 0.02,0.06 0.02,0.09 0.01,0.02 0.02,0.04 0.02,0.05 0,0.01 0.01,0.02 0.01,0.02 0.01,0.02 0.03,0.03 0.04,0.04 0.02,0.01 0.04,0.01 0.07,0.01 0.02,-0.01 0.06,-0.02 0.09,-0.03 0.04,-0.02 0.08,-0.05 0.14,-0.08 0.06,-0.03 0.11,-0.07 0.15,-0.09 0.04,-0.03 0.07,-0.05 0.08,-0.08 0.02,-0.02 0.03,-0.04 0.03,-0.06 0,-0.02 0,-0.04 0,-0.06 l -0.59,-3.03 -0.01,-0.04 0.03,0.03 2.31,2.03 c 0.02,0.02 0.03,0.03 0.05,0.04 0.02,0.01 0.05,0.01 0.07,0 0.03,0 0.06,-0.01 0.1,-0.03 0.04,-0.02 0.09,-0.04 0.15,-0.08 0.05,-0.03 0.1,-0.06 0.13,-0.08 0.03,-0.02 0.06,-0.04 0.07,-0.06 0.01,-0.02 0.02,-0.04 0.02,-0.06 0,-0.01 0,-0.03 -0.01,-0.05 z m 2.58,-3.5 c -0.14,-0.25 -0.31,-0.46 -0.49,-0.63 -0.19,-0.17 -0.39,-0.29 -0.61,-0.37 -0.22,-0.08 -0.45,-0.1 -0.69,-0.07 -0.25,0.03 -0.5,0.11 -0.76,0.26 -0.25,0.15 -0.45,0.31 -0.59,0.5 -0.15,0.18 -0.24,0.38 -0.28,0.59 -0.04,0.22 -0.04,0.44 0.02,0.68 0.06,0.24 0.16,0.49 0.31,0.75 0.14,0.25 0.31,0.46 0.49,0.63 0.19,0.17 0.39,0.3 0.61,0.38 0.22,0.07 0.45,0.1 0.69,0.07 0.24,-0.03 0.5,-0.12 0.76,-0.27 0.25,-0.15 0.45,-0.31 0.59,-0.49 0.14,-0.19 0.24,-0.38 0.28,-0.6 0.04,-0.21 0.03,-0.44 -0.02,-0.68 -0.06,-0.24 -0.16,-0.49 -0.31,-0.75 z m -0.6,0.3 c 0.1,0.17 0.17,0.33 0.23,0.5 0.05,0.16 0.07,0.32 0.07,0.47 -0.01,0.16 -0.06,0.3 -0.14,0.43 -0.08,0.14 -0.22,0.26 -0.4,0.36 -0.16,0.1 -0.32,0.15 -0.48,0.16 -0.15,0.01 -0.3,-0.01 -0.44,-0.08 -0.14,-0.06 -0.27,-0.15 -0.39,-0.28 -0.13,-0.12 -0.24,-0.27 -0.34,-0.45 -0.1,-0.17 -0.17,-0.33 -0.23,-0.5 -0.05,-0.16 -0.07,-0.32 -0.06,-0.47 0,-0.15 0.05,-0.3 0.14,-0.43 0.08,-0.14 0.21,-0.26 0.39,-0.36 0.17,-0.1 0.33,-0.15 0.48,-0.16 0.16,-0.01 0.3,0.01 0.44,0.08 0.14,0.06 0.27,0.15 0.39,0.28 0.13,0.12 0.24,0.28 0.34,0.45 z m 1.05,-2.64 c -0.01,-0.02 -0.02,-0.03 -0.04,-0.04 -0.01,-0.01 -0.03,-0.01 -0.06,-0.01 -0.03,0.01 -0.06,0.02 -0.1,0.03 -0.04,0.02 -0.08,0.04 -0.14,0.08 -0.05,0.03 -0.1,0.06 -0.13,0.08 -0.04,0.03 -0.06,0.05 -0.08,0.07 -0.01,0.02 -0.02,0.04 -0.02,0.06 0,0.02 0,0.04 0.01,0.05 l 2.62,4.55 c 0.02,0.01 0.03,0.03 0.04,0.04 0.02,0.01 0.04,0.01 0.07,0 0.02,0 0.06,-0.01 0.1,-0.03 0.04,-0.01 0.08,-0.04 0.14,-0.07 0.05,-0.03 0.1,-0.06 0.13,-0.08 0.04,-0.03 0.06,-0.05 0.07,-0.07 0.02,-0.02 0.03,-0.04 0.03,-0.06 0,-0.02 0,-0.04 -0.01,-0.06 l -2.63,-4.54 z m 3.62,-2.09 c -0.01,-0.02 -0.02,-0.03 -0.04,-0.04 -0.01,-0.01 -0.03,-0.01 -0.06,-0.01 -0.02,0.01 -0.05,0.01 -0.09,0.03 -0.03,0.01 -0.08,0.03 -0.12,0.06 -0.06,0.03 -0.1,0.06 -0.13,0.08 -0.03,0.03 -0.05,0.05 -0.06,0.07 -0.02,0.02 -0.02,0.04 -0.02,0.05 0,0.02 0,0.04 0.01,0.05 l 0.24,0.41 c -0.29,-0.09 -0.54,-0.13 -0.76,-0.12 -0.23,0.01 -0.42,0.06 -0.6,0.16 -0.2,0.12 -0.35,0.25 -0.45,0.4 -0.1,0.15 -0.16,0.31 -0.18,0.47 -0.02,0.17 0,0.34 0.05,0.52 0.05,0.17 0.14,0.37 0.27,0.6 l 1.07,1.85 c 0.01,0.02 0.02,0.03 0.04,0.04 0.01,0.01 0.04,0.01 0.06,0.01 0.03,0 0.07,-0.01 0.1,-0.03 0.04,-0.02 0.09,-0.04 0.14,-0.07 0.06,-0.04 0.1,-0.06 0.14,-0.09 0.03,-0.02 0.06,-0.05 0.07,-0.07 0.02,-0.02 0.03,-0.04 0.03,-0.06 0,-0.02 0,-0.03 -0.01,-0.05 l -1.03,-1.78 c -0.11,-0.18 -0.18,-0.33 -0.21,-0.46 -0.04,-0.12 -0.05,-0.23 -0.04,-0.34 0.01,-0.11 0.04,-0.21 0.1,-0.29 0.05,-0.09 0.14,-0.17 0.25,-0.23 0.14,-0.08 0.31,-0.11 0.5,-0.1 0.2,0.02 0.43,0.08 0.7,0.19 l 1.23,2.14 c 0.02,0.01 0.03,0.03 0.04,0.03 0.02,0.01 0.04,0.01 0.07,0.01 0.03,0 0.06,-0.01 0.1,-0.03 0.03,-0.01 0.08,-0.04 0.14,-0.07 0.05,-0.03 0.1,-0.06 0.13,-0.09 0.03,-0.02 0.06,-0.04 0.07,-0.07 0.02,-0.02 0.03,-0.04 0.03,-0.06 0,-0.01 0,-0.03 -0.01,-0.05 l -1.77,-3.06 z m 2.74,-1.28 c -0.04,-0.07 -0.07,-0.12 -0.1,-0.15 -0.04,-0.03 -0.07,-0.05 -0.09,-0.06 -0.03,-0.01 -0.07,-0.01 -0.12,0 -0.04,0 -0.09,0.01 -0.14,0.03 -0.05,0.01 -0.11,0.03 -0.17,0.06 -0.05,0.02 -0.11,0.05 -0.16,0.08 -0.16,0.09 -0.28,0.19 -0.37,0.3 -0.09,0.1 -0.14,0.22 -0.17,0.35 -0.02,0.12 -0.01,0.26 0.03,0.41 0.04,0.15 0.12,0.31 0.22,0.49 l 1.03,1.79 -0.43,0.25 c -0.03,0.02 -0.05,0.05 -0.05,0.1 0,0.05 0.03,0.11 0.07,0.19 0.03,0.05 0.05,0.08 0.07,0.11 0.03,0.02 0.05,0.04 0.07,0.06 0.02,0.01 0.04,0.02 0.06,0.02 0.02,0 0.04,-0.01 0.05,-0.02 l 0.43,-0.25 0.42,0.73 c 0.01,0.02 0.02,0.03 0.04,0.04 0.01,0.01 0.03,0.01 0.06,0.01 0.03,0 0.06,-0.01 0.1,-0.03 0.04,-0.01 0.09,-0.04 0.14,-0.07 0.06,-0.03 0.1,-0.06 0.14,-0.09 0.03,-0.02 0.05,-0.05 0.07,-0.07 0.01,-0.02 0.02,-0.04 0.02,-0.06 0,-0.02 0,-0.04 -0.01,-0.05 l -0.42,-0.73 0.78,-0.45 c 0.02,-0.01 0.04,-0.03 0.05,-0.04 0,-0.02 0.01,-0.04 0.01,-0.06 0,-0.03 -0.01,-0.06 -0.02,-0.09 -0.01,-0.03 -0.03,-0.07 -0.06,-0.11 -0.05,-0.08 -0.09,-0.14 -0.13,-0.16 -0.04,-0.03 -0.08,-0.03 -0.11,-0.01 l -0.79,0.46 -0.98,-1.71 c -0.13,-0.21 -0.19,-0.39 -0.19,-0.53 0,-0.15 0.08,-0.27 0.24,-0.36 0.06,-0.03 0.11,-0.05 0.15,-0.06 0.05,-0.02 0.09,-0.03 0.13,-0.03 0.04,-0.01 0.07,-0.02 0.1,-0.02 0.03,0 0.05,-0.01 0.07,-0.02 0.01,-0.01 0.02,-0.01 0.03,-0.03 0,-0.01 0.01,-0.02 0,-0.04 0,-0.02 -0.01,-0.05 -0.02,-0.08 -0.01,-0.02 -0.03,-0.06 -0.05,-0.1 z m 1.13,-0.95 c -0.01,-0.02 -0.03,-0.03 -0.04,-0.04 -0.02,-0.01 -0.04,-0.01 -0.07,-0.01 -0.02,0.01 -0.06,0.02 -0.09,0.03 -0.04,0.02 -0.09,0.04 -0.15,0.08 -0.05,0.03 -0.1,0.06 -0.13,0.08 -0.03,0.03 -0.06,0.05 -0.07,0.07 -0.02,0.02 -0.03,0.04 -0.03,0.06 0,0.02 0,0.04 0.01,0.05 l 1.77,3.06 c 0.01,0.02 0.02,0.03 0.04,0.04 0.01,0.01 0.04,0.01 0.06,0.01 0.03,0 0.06,-0.01 0.1,-0.03 0.04,-0.02 0.09,-0.04 0.14,-0.07 0.06,-0.04 0.1,-0.06 0.14,-0.09 0.03,-0.03 0.05,-0.05 0.07,-0.07 0.01,-0.02 0.02,-0.04 0.02,-0.06 0.01,-0.02 0,-0.03 -0.01,-0.05 l -1.76,-3.06 z m 2.42,4.06 c -0.07,-0.14 -0.15,-0.21 -0.23,-0.23 -0.07,-0.02 -0.18,0.01 -0.31,0.09 -0.13,0.07 -0.21,0.15 -0.23,0.22 -0.02,0.08 0,0.18 0.08,0.31 0.07,0.13 0.15,0.21 0.23,0.22 0.07,0.02 0.18,-0.01 0.31,-0.08 0.13,-0.08 0.21,-0.15 0.23,-0.23 0.02,-0.07 0,-0.18 -0.08,-0.3 z m 2.32,-4.72 c -0.14,-0.25 -0.31,-0.46 -0.49,-0.63 -0.19,-0.17 -0.39,-0.29 -0.61,-0.37 -0.22,-0.08 -0.45,-0.1 -0.7,-0.07 -0.24,0.03 -0.49,0.11 -0.75,0.26 -0.25,0.15 -0.45,0.31 -0.59,0.5 -0.15,0.18 -0.24,0.38 -0.28,0.59 -0.05,0.22 -0.04,0.44 0.02,0.68 0.05,0.24 0.16,0.49 0.31,0.75 0.14,0.25 0.31,0.46 0.49,0.63 0.19,0.17 0.39,0.3 0.61,0.38 0.21,0.07 0.45,0.1 0.69,0.07 0.24,-0.03 0.49,-0.12 0.75,-0.27 0.26,-0.15 0.45,-0.31 0.6,-0.49 0.14,-0.19 0.23,-0.38 0.28,-0.6 0.04,-0.21 0.03,-0.44 -0.02,-0.68 -0.06,-0.24 -0.16,-0.49 -0.31,-0.75 z m -0.6,0.3 c 0.09,0.17 0.17,0.33 0.22,0.5 0.06,0.16 0.08,0.32 0.07,0.47 0,0.16 -0.05,0.3 -0.13,0.43 -0.09,0.14 -0.22,0.26 -0.4,0.36 -0.17,0.1 -0.33,0.15 -0.48,0.16 -0.15,0.01 -0.3,-0.01 -0.44,-0.08 -0.14,-0.06 -0.27,-0.15 -0.39,-0.28 -0.13,-0.12 -0.24,-0.27 -0.34,-0.45 -0.1,-0.17 -0.17,-0.33 -0.23,-0.5 -0.05,-0.16 -0.07,-0.32 -0.07,-0.47 0.01,-0.15 0.06,-0.3 0.14,-0.43 0.09,-0.14 0.22,-0.26 0.4,-0.36 0.17,-0.1 0.33,-0.15 0.48,-0.16 0.16,-0.01 0.3,0.01 0.44,0.08 0.14,0.06 0.27,0.15 0.39,0.28 0.13,0.12 0.24,0.28 0.34,0.45 z m 3.13,-3.84 c -0.01,-0.02 -0.03,-0.03 -0.04,-0.04 -0.02,0 -0.04,-0.01 -0.07,0 -0.02,0 -0.06,0.01 -0.09,0.03 -0.04,0.01 -0.09,0.04 -0.14,0.07 -0.06,0.03 -0.11,0.06 -0.14,0.08 -0.03,0.03 -0.06,0.05 -0.07,0.07 -0.02,0.03 -0.03,0.04 -0.03,0.06 0,0.02 0,0.04 0.01,0.06 l 1.04,1.79 c 0.1,0.17 0.17,0.32 0.2,0.44 0.04,0.12 0.05,0.24 0.04,0.35 -0.01,0.1 -0.04,0.2 -0.1,0.29 -0.06,0.09 -0.14,0.16 -0.25,0.23 -0.14,0.08 -0.31,0.11 -0.51,0.09 -0.2,-0.02 -0.43,-0.08 -0.69,-0.18 l -1.24,-2.14 c -0.01,-0.02 -0.02,-0.03 -0.04,-0.04 -0.01,-0.01 -0.04,-0.01 -0.06,-0.01 -0.03,0.01 -0.06,0.02 -0.1,0.03 -0.04,0.02 -0.08,0.04 -0.14,0.08 -0.06,0.03 -0.1,0.06 -0.13,0.08 -0.04,0.03 -0.06,0.05 -0.08,0.07 -0.01,0.02 -0.02,0.04 -0.02,0.06 0,0.02 0,0.04 0.01,0.05 l 1.77,3.06 c 0.01,0.02 0.02,0.03 0.03,0.04 0.02,0.01 0.04,0.02 0.06,0.01 0.03,0 0.06,-0.01 0.09,-0.02 0.04,-0.02 0.08,-0.04 0.13,-0.07 0.05,-0.03 0.09,-0.05 0.12,-0.08 0.04,-0.02 0.06,-0.04 0.07,-0.06 0.01,-0.02 0.02,-0.04 0.02,-0.06 0,-0.01 -0.01,-0.03 -0.02,-0.05 l -0.23,-0.4 c 0.28,0.09 0.54,0.13 0.76,0.12 0.22,-0.01 0.42,-0.06 0.6,-0.16 0.2,-0.12 0.35,-0.25 0.45,-0.4 0.1,-0.15 0.16,-0.31 0.18,-0.48 0.02,-0.16 0,-0.33 -0.05,-0.51 -0.05,-0.18 -0.14,-0.37 -0.27,-0.59 l -1.07,-1.87 z m 8.04,0.78 c -0.03,-0.05 -0.05,-0.08 -0.08,-0.11 -0.02,-0.03 -0.04,-0.05 -0.06,-0.07 -0.02,-0.01 -0.04,-0.02 -0.06,-0.02 -0.02,0 -0.04,0.01 -0.06,0.02 l -1.24,0.71 -2.2,-3.81 c -0.01,-0.02 -0.02,-0.03 -0.04,-0.04 -0.02,-0.01 -0.04,-0.01 -0.07,-0.01 -0.03,0.01 -0.06,0.02 -0.1,0.04 -0.04,0.01 -0.09,0.04 -0.15,0.07 -0.05,0.03 -0.09,0.06 -0.13,0.09 -0.04,0.03 -0.06,0.05 -0.08,0.07 -0.02,0.02 -0.03,0.04 -0.03,0.06 0,0.02 0,0.04 0.01,0.06 l 2.21,3.81 -1.24,0.72 c -0.02,0.01 -0.03,0.02 -0.04,0.04 -0.01,0.01 -0.02,0.04 -0.01,0.06 0,0.03 0.01,0.05 0.02,0.09 0.01,0.03 0.03,0.07 0.06,0.12 0.02,0.04 0.04,0.08 0.07,0.11 0.02,0.03 0.05,0.05 0.07,0.06 0.02,0.02 0.04,0.03 0.06,0.03 0.02,0 0.04,-0.01 0.06,-0.02 l 3.06,-1.76 c 0.01,-0.02 0.03,-0.03 0.04,-0.05 0.01,-0.01 0.01,-0.04 0.01,-0.06 0,-0.03 -0.01,-0.06 -0.02,-0.1 -0.02,-0.03 -0.04,-0.07 -0.06,-0.11 z m 0.89,-5.94 c -0.01,-0.02 -0.02,-0.03 -0.04,-0.04 -0.01,0 -0.03,-0.01 -0.06,0 -0.03,0 -0.06,0.01 -0.1,0.03 -0.04,0.01 -0.08,0.04 -0.14,0.07 -0.05,0.03 -0.1,0.06 -0.13,0.08 -0.04,0.03 -0.06,0.05 -0.08,0.07 -0.01,0.03 -0.02,0.04 -0.02,0.06 0,0.02 0,0.04 0.01,0.06 l 1.04,1.79 c 0.1,0.17 0.16,0.32 0.2,0.44 0.03,0.12 0.05,0.24 0.04,0.35 -0.01,0.1 -0.04,0.2 -0.1,0.29 -0.06,0.09 -0.14,0.16 -0.25,0.23 -0.14,0.08 -0.31,0.11 -0.51,0.09 -0.2,-0.02 -0.43,-0.08 -0.7,-0.18 l -1.23,-2.14 c -0.01,-0.02 -0.02,-0.03 -0.04,-0.04 -0.02,-0.01 -0.04,-0.01 -0.06,-0.01 -0.03,0.01 -0.06,0.02 -0.1,0.03 -0.04,0.02 -0.09,0.04 -0.14,0.08 -0.06,0.03 -0.1,0.06 -0.14,0.08 -0.03,0.03 -0.05,0.05 -0.07,0.07 -0.02,0.02 -0.03,0.04 -0.03,0.06 0,0.02 0.01,0.04 0.02,0.05 l 2.62,4.55 c 0.01,0.01 0.02,0.03 0.04,0.04 0.02,0.01 0.04,0.01 0.06,0 0.03,0 0.06,-0.01 0.1,-0.03 0.04,-0.01 0.09,-0.04 0.14,-0.07 0.06,-0.03 0.1,-0.06 0.14,-0.08 0.03,-0.03 0.06,-0.05 0.07,-0.07 0.02,-0.02 0.02,-0.04 0.03,-0.06 0,-0.02 -0.01,-0.04 -0.02,-0.06 l -1.06,-1.83 c 0.26,0.08 0.5,0.11 0.71,0.1 0.21,-0.01 0.4,-0.07 0.56,-0.16 0.21,-0.12 0.36,-0.25 0.46,-0.4 0.1,-0.15 0.16,-0.31 0.18,-0.48 0.02,-0.16 0,-0.33 -0.05,-0.51 -0.05,-0.18 -0.14,-0.38 -0.27,-0.59 l -1.08,-1.87 z m 4.58,-0.42 c -0.05,-0.09 -0.11,-0.14 -0.18,-0.15 -0.07,-0.01 -0.13,0 -0.18,0.03 l -2.02,1.16 c -0.1,-0.17 -0.17,-0.33 -0.21,-0.49 -0.05,-0.15 -0.06,-0.3 -0.03,-0.44 0.02,-0.15 0.08,-0.28 0.18,-0.41 0.1,-0.12 0.24,-0.24 0.42,-0.35 0.15,-0.08 0.28,-0.14 0.41,-0.19 0.13,-0.04 0.24,-0.07 0.34,-0.09 0.1,-0.02 0.19,-0.03 0.25,-0.03 0.07,-0.01 0.12,-0.02 0.15,-0.04 0.01,-0.01 0.02,-0.02 0.03,-0.04 0.01,-0.01 0.01,-0.03 0.01,-0.05 0,-0.02 -0.01,-0.04 -0.02,-0.07 -0.02,-0.03 -0.03,-0.07 -0.06,-0.11 -0.02,-0.03 -0.03,-0.05 -0.05,-0.07 -0.01,-0.02 -0.02,-0.04 -0.04,-0.06 -0.01,-0.01 -0.03,-0.02 -0.04,-0.03 -0.02,-0.01 -0.03,-0.02 -0.05,-0.03 -0.02,0 -0.07,0 -0.15,0.01 -0.08,0 -0.17,0.02 -0.29,0.05 -0.11,0.03 -0.24,0.07 -0.38,0.12 -0.14,0.06 -0.28,0.12 -0.42,0.21 -0.26,0.14 -0.46,0.31 -0.61,0.49 -0.14,0.17 -0.24,0.37 -0.29,0.58 -0.05,0.22 -0.05,0.45 0.01,0.69 0.05,0.25 0.16,0.51 0.32,0.79 0.15,0.26 0.32,0.48 0.51,0.65 0.19,0.17 0.39,0.29 0.6,0.36 0.21,0.07 0.43,0.1 0.66,0.07 0.23,-0.03 0.45,-0.1 0.68,-0.23 0.24,-0.14 0.42,-0.3 0.54,-0.47 0.13,-0.18 0.21,-0.36 0.24,-0.56 0.03,-0.19 0.02,-0.39 -0.03,-0.59 -0.05,-0.21 -0.13,-0.41 -0.24,-0.61 l -0.06,-0.1 z m -0.47,0.49 c 0.18,0.29 0.24,0.56 0.2,0.81 -0.04,0.25 -0.2,0.45 -0.47,0.6 -0.14,0.08 -0.27,0.13 -0.41,0.14 -0.13,0.01 -0.26,-0.01 -0.38,-0.06 -0.12,-0.04 -0.23,-0.11 -0.34,-0.2 -0.1,-0.1 -0.19,-0.2 -0.27,-0.33 l 1.67,-0.96 z m 4.07,-2.71 c -0.14,-0.25 -0.31,-0.46 -0.49,-0.63 -0.19,-0.17 -0.39,-0.29 -0.61,-0.37 -0.22,-0.08 -0.45,-0.1 -0.69,-0.07 -0.25,0.03 -0.5,0.11 -0.76,0.26 -0.25,0.15 -0.45,0.31 -0.59,0.5 -0.15,0.18 -0.24,0.38 -0.28,0.59 -0.04,0.22 -0.04,0.44 0.02,0.68 0.06,0.24 0.16,0.49 0.31,0.75 0.14,0.25 0.31,0.46 0.49,0.63 0.19,0.17 0.39,0.3 0.61,0.38 0.22,0.07 0.45,0.1 0.69,0.07 0.24,-0.03 0.5,-0.12 0.76,-0.27 0.25,-0.15 0.45,-0.31 0.59,-0.49 0.14,-0.19 0.24,-0.38 0.28,-0.6 0.04,-0.21 0.03,-0.44 -0.02,-0.68 -0.06,-0.24 -0.16,-0.49 -0.31,-0.75 z m -0.6,0.3 c 0.1,0.17 0.17,0.33 0.23,0.5 0.05,0.16 0.07,0.32 0.07,0.47 -0.01,0.16 -0.06,0.3 -0.14,0.43 -0.08,0.14 -0.22,0.26 -0.4,0.36 -0.16,0.1 -0.32,0.15 -0.48,0.16 -0.15,0.01 -0.3,-0.01 -0.44,-0.08 -0.14,-0.06 -0.27,-0.15 -0.39,-0.28 -0.13,-0.12 -0.24,-0.27 -0.34,-0.45 -0.1,-0.17 -0.17,-0.33 -0.23,-0.5 -0.05,-0.16 -0.07,-0.32 -0.06,-0.47 0.01,-0.15 0.05,-0.3 0.14,-0.43 0.08,-0.14 0.21,-0.26 0.39,-0.36 0.17,-0.1 0.33,-0.15 0.48,-0.16 0.16,-0.01 0.3,0.01 0.44,0.08 0.14,0.06 0.27,0.15 0.4,0.28 0.12,0.12 0.23,0.28 0.33,0.45 z m 3.93,-0.49 c -0.03,-0.05 -0.05,-0.09 -0.07,-0.12 -0.03,-0.04 -0.05,-0.06 -0.06,-0.08 -0.02,-0.01 -0.04,-0.02 -0.06,-0.03 -0.01,0 -0.03,0 -0.05,0.01 -0.01,0.01 -0.03,0.03 -0.05,0.06 -0.02,0.02 -0.05,0.05 -0.07,0.08 -0.03,0.03 -0.06,0.06 -0.1,0.09 -0.03,0.03 -0.08,0.06 -0.12,0.09 -0.06,0.03 -0.12,0.06 -0.19,0.06 -0.07,0.01 -0.15,0.01 -0.24,-0.01 -0.09,-0.02 -0.19,-0.05 -0.3,-0.1 -0.12,-0.05 -0.25,-0.11 -0.4,-0.19 l -1.17,-2.01 c -0.01,-0.02 -0.02,-0.03 -0.04,-0.04 -0.01,-0.01 -0.03,-0.01 -0.06,-0.01 -0.03,0.01 -0.06,0.02 -0.1,0.03 -0.04,0.02 -0.08,0.04 -0.14,0.08 -0.05,0.03 -0.1,0.06 -0.13,0.08 -0.04,0.03 -0.06,0.05 -0.08,0.07 -0.01,0.02 -0.02,0.04 -0.02,0.06 0,0.02 0,0.04 0.01,0.05 l 1.77,3.06 c 0.01,0.02 0.02,0.03 0.04,0.04 0.01,0.01 0.03,0.02 0.06,0.01 0.02,0 0.05,-0.01 0.09,-0.02 0.03,-0.02 0.07,-0.04 0.12,-0.07 0.05,-0.03 0.1,-0.05 0.13,-0.08 0.03,-0.02 0.05,-0.04 0.06,-0.06 0.01,-0.02 0.02,-0.04 0.02,-0.06 0,-0.01 0,-0.03 -0.01,-0.05 l -0.26,-0.44 c 0.15,0.07 0.29,0.12 0.41,0.16 0.12,0.03 0.22,0.05 0.31,0.06 0.09,0.01 0.18,0 0.25,-0.02 0.07,-0.02 0.14,-0.05 0.21,-0.09 0.03,-0.02 0.06,-0.04 0.1,-0.06 0.03,-0.03 0.07,-0.06 0.1,-0.09 0.04,-0.03 0.07,-0.06 0.1,-0.09 0.02,-0.03 0.04,-0.06 0.05,-0.08 0,-0.02 0.01,-0.03 0.01,-0.05 -0.01,-0.01 -0.01,-0.02 -0.02,-0.04 0,-0.02 -0.01,-0.04 -0.03,-0.07 -0.02,-0.04 -0.04,-0.08 -0.07,-0.13 z m 2.52,-3.05 c -0.05,-0.09 -0.11,-0.14 -0.17,-0.15 -0.07,-0.01 -0.13,0 -0.19,0.03 l -2.01,1.16 c -0.1,-0.17 -0.17,-0.33 -0.22,-0.49 -0.04,-0.15 -0.05,-0.3 -0.03,-0.44 0.03,-0.15 0.09,-0.28 0.18,-0.41 0.1,-0.12 0.24,-0.24 0.43,-0.35 0.14,-0.08 0.28,-0.14 0.41,-0.19 0.13,-0.04 0.24,-0.07 0.34,-0.09 0.1,-0.02 0.18,-0.03 0.25,-0.03 0.07,-0.01 0.11,-0.02 0.14,-0.04 0.02,-0.01 0.03,-0.02 0.04,-0.04 0.01,-0.01 0.01,-0.03 0.01,-0.05 -0.01,-0.02 -0.01,-0.04 -0.03,-0.07 -0.01,-0.03 -0.03,-0.07 -0.05,-0.11 -0.02,-0.03 -0.03,-0.05 -0.05,-0.07 -0.01,-0.02 -0.03,-0.04 -0.04,-0.06 -0.01,-0.01 -0.03,-0.02 -0.04,-0.03 -0.02,-0.01 -0.04,-0.02 -0.06,-0.03 -0.02,0 -0.07,0 -0.14,0.01 -0.08,0 -0.18,0.02 -0.29,0.05 -0.11,0.03 -0.24,0.07 -0.38,0.12 -0.14,0.06 -0.28,0.12 -0.43,0.21 -0.25,0.14 -0.45,0.31 -0.6,0.49 -0.15,0.17 -0.25,0.37 -0.3,0.58 -0.04,0.22 -0.04,0.45 0.01,0.69 0.06,0.25 0.16,0.51 0.32,0.79 0.16,0.26 0.33,0.48 0.52,0.65 0.18,0.17 0.39,0.29 0.6,0.36 0.21,0.07 0.43,0.1 0.66,0.07 0.22,-0.03 0.45,-0.1 0.67,-0.23 0.24,-0.14 0.42,-0.3 0.55,-0.47 0.12,-0.18 0.2,-0.36 0.24,-0.56 0.03,-0.19 0.02,-0.39 -0.03,-0.59 -0.05,-0.21 -0.13,-0.41 -0.25,-0.61 l -0.06,-0.1 z m -0.46,0.49 c 0.17,0.29 0.24,0.56 0.2,0.81 -0.04,0.25 -0.2,0.45 -0.47,0.6 -0.14,0.08 -0.28,0.13 -0.41,0.14 -0.14,0.01 -0.26,-0.01 -0.38,-0.06 -0.12,-0.04 -0.24,-0.11 -0.34,-0.2 -0.11,-0.1 -0.2,-0.2 -0.27,-0.33 l 1.67,-0.96 z m 4.86,-5.25 c -0.01,-0.02 -0.02,-0.03 -0.04,-0.04 -0.02,0 -0.04,0 -0.06,0 -0.03,0 -0.06,0.01 -0.1,0.03 -0.04,0.01 -0.08,0.04 -0.14,0.07 -0.06,0.03 -0.1,0.06 -0.13,0.09 -0.04,0.02 -0.06,0.04 -0.08,0.07 -0.02,0.02 -0.02,0.04 -0.03,0.05 0,0.02 0.01,0.04 0.02,0.06 l 1.07,1.86 c 0.07,0.13 0.13,0.25 0.17,0.37 0.04,0.12 0.06,0.23 0.05,0.34 0,0.11 -0.03,0.2 -0.09,0.29 -0.05,0.08 -0.13,0.15 -0.23,0.21 -0.13,0.08 -0.29,0.1 -0.48,0.08 -0.19,-0.02 -0.42,-0.09 -0.68,-0.19 l -1.24,-2.14 c -0.01,-0.02 -0.02,-0.03 -0.04,-0.04 -0.01,0 -0.04,-0.01 -0.06,0 -0.03,0 -0.06,0.01 -0.1,0.03 -0.04,0.01 -0.09,0.04 -0.14,0.07 -0.05,0.03 -0.1,0.06 -0.13,0.08 -0.04,0.03 -0.06,0.05 -0.08,0.07 -0.01,0.03 -0.02,0.05 -0.02,0.06 0,0.02 0,0.04 0.01,0.05 l 1.07,1.86 c 0.08,0.13 0.13,0.26 0.17,0.38 0.04,0.12 0.05,0.23 0.05,0.34 -0.01,0.11 -0.04,0.2 -0.09,0.29 -0.05,0.08 -0.13,0.15 -0.23,0.21 -0.13,0.08 -0.29,0.1 -0.48,0.08 -0.19,-0.02 -0.42,-0.09 -0.68,-0.19 l -1.24,-2.14 c -0.01,-0.02 -0.02,-0.03 -0.04,-0.04 -0.01,-0.01 -0.03,-0.01 -0.06,-0.01 -0.03,0.01 -0.06,0.02 -0.1,0.03 -0.04,0.02 -0.08,0.04 -0.14,0.08 -0.05,0.03 -0.1,0.06 -0.13,0.08 -0.04,0.03 -0.06,0.05 -0.08,0.07 -0.01,0.02 -0.02,0.04 -0.02,0.06 0,0.02 0,0.04 0.01,0.05 l 1.77,3.06 c 0.01,0.02 0.02,0.03 0.04,0.04 0.01,0.01 0.03,0.02 0.06,0.01 0.02,0 0.05,-0.01 0.09,-0.02 0.03,-0.02 0.07,-0.04 0.12,-0.07 0.05,-0.03 0.09,-0.05 0.13,-0.08 0.03,-0.02 0.05,-0.04 0.06,-0.06 0.01,-0.02 0.02,-0.04 0.02,-0.06 0,-0.01 0,-0.03 -0.01,-0.05 l -0.24,-0.4 c 0.29,0.09 0.53,0.13 0.75,0.13 0.21,0 0.4,-0.05 0.57,-0.15 0.12,-0.07 0.23,-0.15 0.31,-0.24 0.09,-0.09 0.15,-0.18 0.2,-0.28 0.04,-0.1 0.07,-0.2 0.08,-0.3 0.02,-0.11 0.01,-0.22 0,-0.33 0.16,0.05 0.32,0.09 0.45,0.12 0.14,0.02 0.26,0.03 0.38,0.03 0.11,0 0.21,-0.01 0.3,-0.04 0.1,-0.02 0.18,-0.06 0.27,-0.11 0.19,-0.11 0.34,-0.24 0.43,-0.39 0.1,-0.14 0.15,-0.3 0.17,-0.46 0.01,-0.17 -0.01,-0.34 -0.06,-0.51 -0.06,-0.18 -0.13,-0.35 -0.23,-0.52 l -1.12,-1.94 z"
                 style="fill:#000000;fill-opacity:1;fill-rule:nonzero;stroke:none"
                 id="path80" /></g></g><text
             transform="matrix(1,0,0,-1,213,346.37)"
             id="text82"><tspan
               style="fill:#000000;fill-opacity:1;fill-rule:nonzero;stroke:none;font-family:Calibri;font-variant:normal;font-weight:normal;font-size:8.04;writing-mode:lr;-inkscape-font-specification:Calibri"
               x="0 3.95568 5.75664 12.22884 16.19256 17.75232 21.4668 25.31796 31.78212 36.00312 37.77996 41.74368"
               y="0"
               sodipodi:role="line"
               id="tspan84">Time Sampled</tspan></text>
<text
             transform="matrix(1,0,0,-1,220.08,336.77)"
             id="text86"><tspan
               style="fill:#000000;fill-opacity:1;fill-rule:nonzero;stroke:none;font-family:Calibri;font-variant:normal;font-weight:normal;font-size:8.04;writing-mode:lr;-inkscape-font-specification:Calibri"
               x="0 3.71448 7.3164 10.91832 12.47808 16.19256 17.99352 21.8286 26.0496 29.8686"
               y="0"
               sodipodi:role="line"
               id="tspan88">Sky Signal</tspan></text>
<text
             transform="matrix(1,0,0,-1,463.66,346.2)"
             id="text90"><tspan
               style="fill:#000000;fill-opacity:1;fill-rule:nonzero;stroke:none;font-family:Calibri;font-variant:normal;font-weight:normal;font-size:8.04;writing-mode:lr;-inkscape-font-specification:Calibri"
               x="0 3.71448 6.4722 10.43592 14.65692 16.683"
               y="0"
               sodipodi:role="line"
               id="tspan92">Freq. </tspan></text>
<text
             transform="matrix(1,0,0,-1,481.9,346.2)"
             id="text94"><tspan
               style="fill:#000000;fill-opacity:1;fill-rule:nonzero;stroke:none;font-family:Calibri;font-variant:normal;font-weight:normal;font-size:8.04;writing-mode:lr;-inkscape-font-specification:Calibri"
               x="0 4.92048 9.11736 15.58956 19.44072 21.2256"
               y="0"
               sodipodi:role="line"
               id="tspan96">Domain</tspan></text>
<text
             transform="matrix(1,0,0,-1,473.26,336.6)"
             id="text98"><tspan
               style="fill:#000000;fill-opacity:1;fill-rule:nonzero;stroke:none;font-family:Calibri;font-variant:normal;font-weight:normal;font-size:8.04;writing-mode:lr;-inkscape-font-specification:Calibri"
               x="0 3.71448 7.93548 11.87508 15.2358 17.87292 20.63064"
               y="0"
               sodipodi:role="line"
               id="tspan100">Spectra</tspan></text>
<text
             transform="matrix(1,0,0,-1,220.8,208.97)"
             id="text102"><tspan
               style="fill:#000000;fill-opacity:1;fill-rule:nonzero;stroke:none;font-family:Calibri;font-variant:normal;font-weight:normal;font-size:8.04;writing-mode:lr;-inkscape-font-specification:Calibri"
               x="0 4.30944 8.50632 12.72732 16.30512 20.502 22.30296 25.90488 29.8686"
               y="0"
               sodipodi:role="line"
               id="tspan104">Convolved</tspan></text>
<text
             transform="matrix(1,0,0,-1,218.16,199.37)"
             id="text106"><tspan
               style="fill:#000000;fill-opacity:1;fill-rule:nonzero;stroke:none;font-family:Calibri;font-variant:normal;font-weight:normal;font-size:8.04;writing-mode:lr;-inkscape-font-specification:Calibri"
               x="0 3.95568 5.75664 12.22884 16.19256 17.75232 20.89596 22.6728 26.50788 30.72888 34.54788 36.34884"
               y="0"
               sodipodi:role="line"
               id="tspan108">Time signals</tspan></text>
<text
             transform="matrix(1,0,0,-1,464.47,208.25)"
             id="text110"><tspan
               style="fill:#000000;fill-opacity:1;fill-rule:nonzero;stroke:none;font-family:Calibri;font-variant:normal;font-weight:normal;font-size:8.04;writing-mode:lr;-inkscape-font-specification:Calibri"
               x="0 4.30944 7.06716 11.26404 14.40768 17.50308 19.06284 23.37228 27.56916 30.32688 33.0846 37.04832 38.84928 42.70044 45.32952 49.29324"
               y="0"
               sodipodi:role="line"
               id="tspan112">Cross Correlated</tspan></text>
<text
             transform="matrix(1,0,0,-1,467.71,198.65)"
             id="text114"><tspan
               style="fill:#000000;fill-opacity:1;fill-rule:nonzero;stroke:none;font-family:Calibri;font-variant:normal;font-weight:normal;font-size:8.04;writing-mode:lr;-inkscape-font-specification:Calibri"
               x="0 4.18884 8.38572 14.13432 18.10608 20.8638 22.54416 26.25864 30.47964 34.41924 37.77996 40.41708 43.1748"
               y="0"
               sodipodi:role="line"
               id="tspan116">Power Spectra</tspan></text>
</g></g></g></g></svg>